ISO-10303-21;
HEADER;
FILE_DESCRIPTION (( 'STEP AP203' ),
    '1' );
FILE_NAME ('SideCushionMirrored.step',
    '2026-09-07T17:35:28',
    ( '' ),
    ( '' ),
    'SwSTEP 2.0',
    'SolidWorks 2026',
    '' );
FILE_SCHEMA (( 'CONFIG_CONTROL_DESIGN' ));
ENDSEC;

DATA;
#1 =( NAMED_UNIT ( * ) PLANE_ANGLE_UNIT ( ) SI_UNIT ( $, .RADIAN. ) );
#2 = CIRCLE ( 'NONE', #693, 1.000000000000000888 ) ;
#3 = CARTESIAN_POINT ( 'NONE',  ( -80.53126702862533648, 5.999999999999860556, -44.91230377573139521 ) ) ;
#4 = LINE ( 'NONE', #345, #649 ) ;
#5 = LINE ( 'NONE', #346, #163 ) ;
#6 = EDGE_LOOP ( 'NONE', ( #1123, #544, #481, #584 ) ) ;
#7 = PERSON_AND_ORGANIZATION ( #526, #756 ) ;
#8 = EDGE_CURVE ( 'NONE', #698, #89, #840, .T. ) ;
#9 = AXIS2_PLACEMENT_3D ( 'NONE', #93, #353, #704 ) ;
#10 = CARTESIAN_POINT ( 'NONE',  ( -80.77728987939363492, 6.999999999999996447, -46.04884803313819219 ) ) ;
#11 = LINE ( 'NONE', #455, #781 ) ;
#12 = AXIS2_PLACEMENT_3D ( 'NONE', #438, #690, #513 ) ;
#13 = FACE_OUTER_BOUND ( 'NONE', #1023, .T. ) ;
#14 = AXIS2_PLACEMENT_3D ( 'NONE', #509, #523, #92 ) ;
#15 = ORIENTED_EDGE ( 'NONE', *, *, #1070, .F. ) ;
#16 = CC_DESIGN_PERSON_AND_ORGANIZATION_ASSIGNMENT ( #782, #875, ( #402 ) ) ;
#17 = CARTESIAN_POINT ( 'NONE',  ( -82.42051944751685255, 7.000000000000000000, -55.21674210529830162 ) ) ;
#18 = LINE ( 'NONE', #187, #1017 ) ;
#19 = CARTESIAN_POINT ( 'NONE',  ( -80.17989755270048136, 5.999999999999999112, -44.75171762027470379 ) ) ;
#20 = CARTESIAN_POINT ( 'NONE',  ( -81.55392135783904450, 0.9999999999999991118, -45.17160545004531258 ) ) ;
#21 = CYLINDRICAL_SURFACE ( 'NONE', #9, 1.000000000000000888 ) ;
#22 = ORIENTED_EDGE ( 'NONE', *, *, #870, .T. ) ;
#23 = CARTESIAN_POINT ( 'NONE',  ( -79.49876917851969438, 7.000000000000000000, -38.21674210529830162 ) ) ;
#24 = CARTESIAN_POINT ( 'NONE',  ( -78.48029268601261776, 6.999999999999858780, -42.75429620550124810 ) ) ;
#25 = CC_DESIGN_SECURITY_CLASSIFICATION ( #402, ( #78 ) ) ;
#26 = FACE_OUTER_BOUND ( 'NONE', #566, .T. ) ;
#27 = ORIENTED_EDGE ( 'NONE', *, *, #1070, .T. ) ;
#28 = CARTESIAN_POINT ( 'NONE',  ( -81.00847368674762095, -1.734723475976807094E-15, -45.09818546468238054 ) ) ;
#29 = DIRECTION ( 'NONE',  ( -0.000000000000000000, -1.000000000000000000, -0.000000000000000000 ) ) ;
#30 = DIRECTION ( 'NONE',  ( -1.000000000000000000, -0.000000000000000000, 0.000000000000000000 ) ) ;
#31 = AXIS2_PLACEMENT_3D ( 'NONE', #472, #227, #149 ) ;
#32 = ORIENTED_EDGE ( 'NONE', *, *, #487, .T. ) ;
#33 = DIRECTION ( 'NONE',  ( 0.000000000000000000, 0.000000000000000000, -1.000000000000000000 ) ) ;
#34 = CARTESIAN_POINT ( 'NONE',  ( -81.42051944751688097, 6.000000000000000000, -46.16266747147606964 ) ) ;
#35 = EDGE_LOOP ( 'NONE', ( #120, #738, #792, #921 ) ) ;
#36 = EDGE_CURVE ( 'NONE', #396, #323, #411, .T. ) ;
#37 = DIRECTION ( 'NONE',  ( 0.000000000000000000, 0.000000000000000000, -1.000000000000000000 ) ) ;
#38 = CALENDAR_DATE ( 2026, 7, 9 ) ;
#39 = PLANE ( 'NONE',  #1063 ) ;
#40 = DESIGN_CONTEXT ( 'detailed design', #311, 'design' ) ;
#41 = CARTESIAN_POINT ( 'NONE',  ( -78.68902247729207033, 0.9999999999997170042, -43.23543728625790550 ) ) ;
#42 = ORIENTED_EDGE ( 'NONE', *, *, #247, .F. ) ;
#43 = AXIS2_PLACEMENT_3D ( 'NONE', #776, #193, #339 ) ;
#44 = CIRCLE ( 'NONE', #343, 2.000000000000001776 ) ;
#45 = CYLINDRICAL_SURFACE ( 'NONE', #620, 1.000000000000000888 ) ;
#46 = ADVANCED_FACE ( 'NONE', ( #66 ), #138, .T. ) ;
#47 = CARTESIAN_POINT ( 'NONE',  ( -78.13637233178062047, 1.000000000000000000, -40.52634505667347042 ) ) ;
#48 = LINE ( 'NONE', #905, #1100 ) ;
#49 = ORIENTED_EDGE ( 'NONE', *, *, #1113, .F. ) ;
#50 = CIRCLE ( 'NONE', #550, 1.000000000000000888 ) ;
#51 = EDGE_LOOP ( 'NONE', ( #596, #878, #156, #288 ) ) ;
#52 = DIRECTION ( 'NONE',  ( -0.000000000000000000, 1.000000000000000000, -0.000000000000000000 ) ) ;
#53 = CARTESIAN_POINT ( 'NONE',  ( -75.42051944751685255, 1.000000000000000000, -55.21674210529830162 ) ) ;
#54 = EDGE_CURVE ( 'NONE', #822, #999, #179, .T. ) ;
#55 = LINE ( 'NONE', #724, #248 ) ;
#56 = DIRECTION ( 'NONE',  ( -1.000000000000000000, 0.000000000000000000, 0.000000000000000000 ) ) ;
#57 = VERTEX_POINT ( 'NONE', #61 ) ;
#58 = CARTESIAN_POINT ( 'NONE',  ( -47.13254080751686104, 0.000000000000000000, -52.21674210529830162 ) ) ;
#59 = CARTESIAN_POINT ( 'NONE',  ( -78.13867057124038240, -1.276403504216305073E-12, -41.11803254235748284 ) ) ;
#60 = CARTESIAN_POINT ( 'NONE',  ( -77.79993386291796753, 7.000000000000000888, -43.69767823729193879 ) ) ;
#61 = CARTESIAN_POINT ( 'NONE',  ( -82.42051944751685255, 6.000000000000000000, -46.16266747147606964 ) ) ;
#62 = CC_DESIGN_APPROVAL ( #699, ( #78 ) ) ;
#63 = ORIENTED_EDGE ( 'NONE', *, *, #287, .T. ) ;
#64 = FACE_OUTER_BOUND ( 'NONE', #1059, .T. ) ;
#65 = CARTESIAN_POINT ( 'NONE',  ( -78.18489959655715893, 6.000000000000001776, -41.59551222995903430 ) ) ;
#66 = FACE_OUTER_BOUND ( 'NONE', #51, .T. ) ;
#67 = ORIENTED_EDGE ( 'NONE', *, *, #36, .T. ) ;
#68 = VECTOR ( 'NONE', #732, 1000.000000000000000 ) ;
#69 = DIRECTION ( 'NONE',  ( 0.000000000000000000, -1.000000000000000000, 0.000000000000000000 ) ) ;
#70 = CARTESIAN_POINT ( 'NONE',  ( -77.13637987526423956, 6.000000000000000000, -40.53022924388768189 ) ) ;
#71 = CARTESIAN_POINT ( 'NONE',  ( -82.42051944751685255, 7.000000000000000000, -48.21674210529830162 ) ) ;
#72 = EDGE_LOOP ( 'NONE', ( #1035, #1072, #828, #261 ) ) ;
#73 = VERTEX_POINT ( 'NONE', #306 ) ;
#74 = DIRECTION ( 'NONE',  ( 1.000000000000000000, 0.000000000000000000, 0.000000000000000000 ) ) ;
#75 = UNCERTAINTY_MEASURE_WITH_UNIT (LENGTH_MEASURE( 1.000000000000000082E-05 ), #178, 'distance_accuracy_value', 'NONE');
#76 = LINE ( 'NONE', #170, #798 ) ;
#77 = CARTESIAN_POINT ( 'NONE',  ( -78.13637233178062047, 6.000000000000000000, -40.52634505667347042 ) ) ;
#78 = PRODUCT_DEFINITION_FORMATION_WITH_SPECIFIED_SOURCE ( 'ANY', '', #1042, .NOT_KNOWN. ) ;
#79 = DIRECTION ( 'NONE',  ( 0.000000000000000000, 0.000000000000000000, -1.000000000000000000 ) ) ;
#80 = CARTESIAN_POINT ( 'NONE',  ( -77.95689122465631726, 6.999999999999999112, -43.98307650008883485 ) ) ;
#81 = EDGE_CURVE ( 'NONE', #582, #1144, #655, .T. ) ;
#82 = DIRECTION ( 'NONE',  ( 1.000000000000000000, -0.000000000000000000, 0.000000000000000000 ) ) ;
#83 = ORIENTED_EDGE ( 'NONE', *, *, #935, .F. ) ;
#84 = PERSON_AND_ORGANIZATION_ROLE ( 'design_supplier' ) ;
#85 = AXIS2_PLACEMENT_3D ( 'NONE', #647, #1008, #202 ) ;
#86 = CARTESIAN_POINT ( 'NONE',  ( -81.42051944751668202, 6.999999999999998224, -46.16266747147602700 ) ) ;
#87 = CARTESIAN_POINT ( 'NONE',  ( -78.14878188116367141, 1.000000000000000000, -43.72121056840690301 ) ) ;
#88 = SPHERICAL_SURFACE ( 'NONE', #645, 1.000000000000000000 ) ;
#89 = VERTEX_POINT ( 'NONE', #416 ) ;
#90 = CARTESIAN_POINT ( 'NONE',  ( -75.42051944751685255, 7.000000000000000000, -48.21674210529830162 ) ) ;
#91 = CARTESIAN_POINT ( 'NONE',  ( -81.02336576595138240, 7.000000000000277112, -45.07749543928421332 ) ) ;
#92 = DIRECTION ( 'NONE',  ( 0.000000000000000000, 0.000000000000000000, -1.000000000000000000 ) ) ;
#93 = CARTESIAN_POINT ( 'NONE',  ( -81.42051944751685255, 6.000000000000000000, -44.28090285740007914 ) ) ;
#94 = VERTEX_POINT ( 'NONE', #301 ) ;
#95 = EDGE_CURVE ( 'NONE', #102, #229, #1137, .T. ) ;
#96 = DIRECTION ( 'NONE',  ( 0.000000000000000000, 0.000000000000000000, 1.000000000000000000 ) ) ;
#97 = LOCAL_TIME ( 18, 35, 28.00000000000000000, #787 ) ;
#98 = VECTOR ( 'NONE', #849, 1000.000000000000000 ) ;
#99 = CARTESIAN_POINT ( 'NONE',  ( -78.69247128815844405, 6.000000000000142109, -43.24250424052454633 ) ) ;
#100 = CARTESIAN_POINT ( 'NONE',  ( -80.27266498557953867, 1.000000000000000222, -44.80720202463795943 ) ) ;
#101 = DIRECTION ( 'NONE',  ( 0.000000000000000000, -1.000000000000000000, 0.000000000000000000 ) ) ;
#102 = VERTEX_POINT ( 'NONE', #1015 ) ;
#103 = APPROVAL_DATE_TIME ( #887, #533 ) ;
#104 = B_SPLINE_CURVE_WITH_KNOTS ( 'NONE', 3,
 ( #851, #1125, #65, #400, #166, #506, #595, #962, #581, #159, #862, #420, #856, #415, #325, #675, #771, #150 ),
 .UNSPECIFIED., .F., .F.,
 ( 4, 2, 2, 2, 2, 2, 2, 2, 4 ),
 ( -5.999999998256833452E-08, 0.001604331828103276562, 0.002406527742154896017, 0.003208723656206515038, 0.004010919570258134059, 0.004813115484309754381, 0.005214213441335581456, 0.005615311398361409398, 0.006417507312413064414 ),
 .UNSPECIFIED. ) ;
#105 = AXIS2_PLACEMENT_3D ( 'NONE', #177, #748, #830 ) ;
#106 = CARTESIAN_POINT ( 'NONE',  ( -78.48029268626814314, 5.999999999999857891, -42.75429620539019027 ) ) ;
#107 = DIRECTION ( 'NONE',  ( 0.000000000000000000, 0.000000000000000000, -1.000000000000000000 ) ) ;
#108 = AXIS2_PLACEMENT_3D ( 'NONE', #963, #82, #341 ) ;
#109 = ORIENTED_EDGE ( 'NONE', *, *, #779, .F. ) ;
#110 = CARTESIAN_POINT ( 'NONE',  ( -79.10651423397038684, 6.406980182612181012E-13, -43.88367080727205405 ) ) ;
#111 = CARTESIAN_POINT ( 'NONE',  ( -78.81753832145005845, 6.000000000000000000, -43.46892914917294348 ) ) ;
#112 = CARTESIAN_POINT ( 'NONE',  ( -81.42051944751685255, 7.000000000000000000, -44.28090285740007914 ) ) ;
#113 = DIRECTION ( 'NONE',  ( 1.000000000000000000, 0.000000000000000000, 0.000000000000000000 ) ) ;
#114 = ORIENTED_EDGE ( 'NONE', *, *, #247, .T. ) ;
#115 = CARTESIAN_POINT ( 'NONE',  ( -80.50623439469821108, 3.258668406480767211E-12, -44.93849401960100209 ) ) ;
#116 = DIRECTION ( 'NONE',  ( 0.000000000000000000, 0.000000000000000000, -1.000000000000000000 ) ) ;
#117 = DIRECTION ( 'NONE',  ( 0.000000000000000000, 0.000000000000000000, -1.000000000000000000 ) ) ;
#118 = DIRECTION ( 'NONE',  ( 0.000000000000000000, -1.000000000000000000, 0.000000000000000000 ) ) ;
#119 = ORIENTED_EDGE ( 'NONE', *, *, #173, .T. ) ;
#120 = ORIENTED_EDGE ( 'NONE', *, *, #206, .T. ) ;
#121 = CARTESIAN_POINT ( 'NONE',  ( -77.13637233178062047, 1.000000000000000000, -38.21674210529830162 ) ) ;
#122 = CARTESIAN_POINT ( 'NONE',  ( -81.55392135783904450, 6.000000000000000000, -45.17160545004531258 ) ) ;
#123 = CARTESIAN_POINT ( 'NONE',  ( -81.42051944751685255, 0.000000000000000000, -55.21674210529830162 ) ) ;
#124 = AXIS2_PLACEMENT_3D ( 'NONE', #435, #1071, #790 ) ;
#125 = CIRCLE ( 'NONE', #427, 1.000000000000000888 ) ;
#126 = EDGE_LOOP ( 'NONE', ( #983, #578, #231 ) ) ;
#127 = AXIS2_PLACEMENT_3D ( 'NONE', #394, #1112, #949 ) ;
#128 = CARTESIAN_POINT ( 'NONE',  ( -79.64359310718114671, -4.586638787843773556E-13, -44.40509696225307579 ) ) ;
#129 = CARTESIAN_POINT ( 'NONE',  ( -77.13637987526423956, 7.000000000000000000, -40.53022924388768189 ) ) ;
#130 = CARTESIAN_POINT ( 'NONE',  ( -78.47918617973833477, 1.000000000000281331, -42.75086265762216442 ) ) ;
#131 = CYLINDRICAL_SURFACE ( 'NONE', #933, 1.000000000000000888 ) ;
#132 = VERTEX_POINT ( 'NONE', #224 ) ;
#133 = FACE_OUTER_BOUND ( 'NONE', #152, .T. ) ;
#134 = EDGE_CURVE ( 'NONE', #497, #753, #857, .T. ) ;
#135 = CARTESIAN_POINT ( 'NONE',  ( -78.13637233178062047, 1.000000000000000000, -38.21674210529830162 ) ) ;
#136 = CARTESIAN_POINT ( 'NONE',  ( -79.85217698469999448, -0.000000000000000000, -45.71646047794791201 ) ) ;
#137 = FACE_OUTER_BOUND ( 'NONE', #968, .T. ) ;
#138 = CYLINDRICAL_SURFACE ( 'NONE', #592, 1.000000000000000888 ) ;
#139 = TOROIDAL_SURFACE ( 'NONE', #926, 2.000000000000000000, 1.000000000000000000 ) ;
#140 = ORIENTED_EDGE ( 'NONE', *, *, #864, .F. ) ;
#141 = CARTESIAN_POINT ( 'NONE',  ( -75.42051944751685255, 6.000000000000000000, -48.21674210529830162 ) ) ;
#142 = DIRECTION ( 'NONE',  ( -0.000000000000000000, -1.000000000000000000, -0.000000000000000000 ) ) ;
#143 = CARTESIAN_POINT ( 'NONE',  ( -79.49876917851969438, 6.000000000000000000, -54.21674210529830162 ) ) ;
#144 = AXIS2_PLACEMENT_3D ( 'NONE', #821, #1003, #215 ) ;
#145 = ORIENTED_EDGE ( 'NONE', *, *, #656, .T. ) ;
#146 = VECTOR ( 'NONE', #715, 1000.000000000000000 ) ;
#147 = DIRECTION ( 'NONE',  ( 0.000000000000000000, 0.000000000000000000, -1.000000000000000000 ) ) ;
#148 = CARTESIAN_POINT ( 'NONE',  ( -75.42051944751685255, 7.000000000000000000, -55.21674210529830162 ) ) ;
#149 = DIRECTION ( 'NONE',  ( 0.000000000000000000, 0.000000000000000000, -1.000000000000000000 ) ) ;
#150 = CARTESIAN_POINT ( 'NONE',  ( -81.55392135783904450, 6.000000000000000000, -45.17160545004531258 ) ) ;
#151 = DIRECTION ( 'NONE',  ( 0.000000000000000000, 0.000000000000000000, -1.000000000000000000 ) ) ;
#152 = EDGE_LOOP ( 'NONE', ( #815, #1116, #1117, #1127 ) ) ;
#153 = DIRECTION ( 'NONE',  ( -0.000000000000000000, -0.000000000000000000, 1.000000000000000000 ) ) ;
#154 = CARTESIAN_POINT ( 'NONE',  ( -78.39334874946629839, 1.398813074578168818E-13, -42.49049058436424531 ) ) ;
#155 = VERTEX_POINT ( 'NONE', #160 ) ;
#156 = ORIENTED_EDGE ( 'NONE', *, *, #173, .F. ) ;
#157 = VECTOR ( 'NONE', #575, 1000.000000000000000 ) ;
#158 = FACE_OUTER_BOUND ( 'NONE', #456, .T. ) ;
#159 = CARTESIAN_POINT ( 'NONE',  ( -79.60333921026749238, 5.999999999999999112, -44.38331895608088473 ) ) ;
#160 = CARTESIAN_POINT ( 'NONE',  ( -75.42051944751685255, 6.000000000000000000, -55.21674210529830162 ) ) ;
#161 = EDGE_CURVE ( 'NONE', #525, #894, #1065, .T. ) ;
#162 = ORIENTED_EDGE ( 'NONE', *, *, #95, .T. ) ;
#163 = VECTOR ( 'NONE', #1064, 1000.000000000000000 ) ;
#164 = CIRCLE ( 'NONE', #799, 2.000000000000001776 ) ;
#165 = DIRECTION ( 'NONE',  ( 1.000000000000000000, 0.000000000000000000, 0.000000000000000000 ) ) ;
#166 = CARTESIAN_POINT ( 'NONE',  ( -78.43536397311096664, 6.000000000000000888, -42.62528104581993205 ) ) ;
#167 = CARTESIAN_POINT ( 'NONE',  ( -77.13637233178062047, 7.000000000000000000, -38.21674210529830162 ) ) ;
#168 = ADVANCED_FACE ( 'NONE', ( #680 ), #337, .T. ) ;
#169 = DIRECTION ( 'NONE',  ( -0.000000000000000000, 0.000000000000000000, 1.000000000000000000 ) ) ;
#170 = CARTESIAN_POINT ( 'NONE',  ( -82.42051944751685255, 1.000000000000000000, -55.21674210529830162 ) ) ;
#171 = CARTESIAN_POINT ( 'NONE',  ( -45.13254080751686104, 7.000000000000000000, -38.21674210529830162 ) ) ;
#172 = EDGE_LOOP ( 'NONE', ( #67, #1054, #835, #140 ) ) ;
#173 = EDGE_CURVE ( 'NONE', #155, #822, #877, .T. ) ;
#174 = EDGE_CURVE ( 'NONE', #294, #365, #629, .T. ) ;
#175 = PERSON_AND_ORGANIZATION ( #526, #756 ) ;
#176 = CARTESIAN_POINT ( 'NONE',  ( -81.28282908369349968, 7.000000000006548539, -45.13511507285432600 ) ) ;
#177 = CARTESIAN_POINT ( 'NONE',  ( -44.13254080751685393, 7.000000000000000000, -55.21674210529830162 ) ) ;
#178 =( LENGTH_UNIT ( ) NAMED_UNIT ( * ) SI_UNIT ( .MILLI., .METRE. ) );
#179 = CIRCLE ( 'NONE', #818, 3.000000000000002665 ) ;
#180 = CARTESIAN_POINT ( 'NONE',  ( -81.28282908363630099, 6.000000000000996536, -45.13511507258132838 ) ) ;
#181 = ADVANCED_FACE ( 'NONE', ( #264 ), #958, .F. ) ;
#182 = DIRECTION ( 'NONE',  ( 0.000000000000000000, 0.000000000000000000, -1.000000000000000000 ) ) ;
#183 = CC_DESIGN_PERSON_AND_ORGANIZATION_ASSIGNMENT ( #432, #521, ( #1042 ) ) ;
#184 = CARTESIAN_POINT ( 'NONE',  ( -80.29556057717182682, 7.000000000000214939, -44.80949467735534597 ) ) ;
#185 = FACE_OUTER_BOUND ( 'NONE', #126, .T. ) ;
#186 = ORIENTED_EDGE ( 'NONE', *, *, #997, .T. ) ;
#187 = CARTESIAN_POINT ( 'NONE',  ( -78.13637233178062047, 6.000000000000000000, -37.21674210529830162 ) ) ;
#188 = AXIS2_PLACEMENT_3D ( 'NONE', #375, #232, #570 ) ;
#189 = CARTESIAN_POINT ( 'NONE',  ( -80.16295165736521255, 7.000000000000002665, -45.84263896317404630 ) ) ;
#190 = CARTESIAN_POINT ( 'NONE',  ( -44.13254080751685393, 6.000000000000000000, -38.21674210529830162 ) ) ;
#191 = EDGE_LOOP ( 'NONE', ( #495, #769, #548, #225 ) ) ;
#192 = CARTESIAN_POINT ( 'NONE',  ( -78.32625064093799949, 0.000000000000000000, -44.51318536646039092 ) ) ;
#193 = DIRECTION ( 'NONE',  ( 0.000000000000000000, 0.000000000000000000, 1.000000000000000000 ) ) ;
#194 = CIRCLE ( 'NONE', #837, 1.000000000000000888 ) ;
#195 = CARTESIAN_POINT ( 'NONE',  ( -79.37053107822661957, 6.000000000000140332, -44.16434909122723695 ) ) ;
#196 = CARTESIAN_POINT ( 'NONE',  ( -79.59507175544230506, 1.000000000000000000, -44.37655592019569895 ) ) ;
#197 = CARTESIAN_POINT ( 'NONE',  ( -77.13637233178062047, 1.000000000000000000, -37.21674210529830162 ) ) ;
#198 = ORIENTED_EDGE ( 'NONE', *, *, #694, .F. ) ;
#199 = CARTESIAN_POINT ( 'NONE',  ( -79.42640525269155205, -2.602085213965210642E-15, -45.47306104099136093 ) ) ;
#200 = SHAPE_DEFINITION_REPRESENTATION ( #863, #542 ) ;
#201 = ADVANCED_FACE ( 'NONE', ( #434 ), #418, .F. ) ;
#202 = DIRECTION ( 'NONE',  ( 0.000000000000000000, 0.000000000000000000, -1.000000000000000000 ) ) ;
#203 = ORIENTED_EDGE ( 'NONE', *, *, #735, .T. ) ;
#204 = EDGE_CURVE ( 'NONE', #57, #277, #4, .T. ) ;
#205 = CARTESIAN_POINT ( 'NONE',  ( -79.02388651182823764, 1.301042606982605321E-15, -45.19081973720532375 ) ) ;
#206 = EDGE_CURVE ( 'NONE', #698, #216, #164, .T. ) ;
#207 = CARTESIAN_POINT ( 'NONE',  ( -45.13254080751686104, 1.000000000000000000, -38.21674210529830162 ) ) ;
#208 = AXIS2_PLACEMENT_3D ( 'NONE', #678, #580, #585 ) ;
#209 = ORIENTED_EDGE ( 'NONE', *, *, #886, .T. ) ;
#210 = ORIENTED_EDGE ( 'NONE', *, *, #1049, .F. ) ;
#211 = CARTESIAN_POINT ( 'NONE',  ( -78.54080199118713779, 1.301042606982605321E-15, -44.75967817264818649 ) ) ;
#212 = CARTESIAN_POINT ( 'NONE',  ( -78.13637233178062047, 6.000000000000000000, -40.52634505667347042 ) ) ;
#213 = CARTESIAN_POINT ( 'NONE',  ( -44.13254080751685393, 0.000000000000000000, -54.21674210529830162 ) ) ;
#214 = AXIS2_PLACEMENT_3D ( 'NONE', #652, #560, #147 ) ;
#215 = DIRECTION ( 'NONE',  ( 0.000000000000000000, 0.000000000000000000, -1.000000000000000000 ) ) ;
#216 = VERTEX_POINT ( 'NONE', #696 ) ;
#217 = ADVANCED_FACE ( 'NONE', ( #975 ), #514, .T. ) ;
#218 = AXIS2_PLACEMENT_3D ( 'NONE', #924, #501, #845 ) ;
#219 = CARTESIAN_POINT ( 'NONE',  ( -78.13868231343106174, 6.000000000000000000, -41.12105486280103150 ) ) ;
#220 = CARTESIAN_POINT ( 'NONE',  ( -79.10651423285614214, 0.9999999999995728972, -43.88367080804909648 ) ) ;
#221 = ORIENTED_EDGE ( 'NONE', *, *, #255, .F. ) ;
#222 = CARTESIAN_POINT ( 'NONE',  ( -78.13637233178062047, 1.000000000000000000, -38.21674210529830162 ) ) ;
#223 = FACE_OUTER_BOUND ( 'NONE', #515, .T. ) ;
#224 = CARTESIAN_POINT ( 'NONE',  ( -82.42051944751685255, 1.000000000000000000, -48.21674210529830162 ) ) ;
#225 = ORIENTED_EDGE ( 'NONE', *, *, #1140, .T. ) ;
#226 = CARTESIAN_POINT ( 'NONE',  ( -44.13254080751685393, 6.000000000000000000, -52.21674210529830162 ) ) ;
#227 = DIRECTION ( 'NONE',  ( 1.000000000000000000, 0.000000000000000000, 0.000000000000000000 ) ) ;
#228 = LINE ( 'NONE', #71, #817 ) ;
#229 = VERTEX_POINT ( 'NONE', #167 ) ;
#230 = AXIS2_PLACEMENT_3D ( 'NONE', #283, #720, #1094 ) ;
#231 = ORIENTED_EDGE ( 'NONE', *, *, #943, .T. ) ;
#232 = DIRECTION ( 'NONE',  ( 0.000000000000000000, 0.000000000000000000, 1.000000000000000000 ) ) ;
#233 = CARTESIAN_POINT ( 'NONE',  ( -78.39334874814952059, 0.9999999999997167821, -42.49049058469107365 ) ) ;
#234 = CARTESIAN_POINT ( 'NONE',  ( -77.43615851123404070, 6.999999999999994671, -42.78407397079101315 ) ) ;
#235 = ORIENTED_EDGE ( 'NONE', *, *, #204, .T. ) ;
#236 = EDGE_LOOP ( 'NONE', ( #32, #591, #426, #313 ) ) ;
#237 = DIRECTION ( 'NONE',  ( -1.000000000000000000, 0.000000000000000000, 0.000000000000000000 ) ) ;
#238 = CARTESIAN_POINT ( 'NONE',  ( -78.23745816717894286, 7.000000000000000000, -44.38491423902976152 ) ) ;
#239 = ORIENTED_EDGE ( 'NONE', *, *, #824, .T. ) ;
#240 = LOCAL_TIME ( 18, 35, 28.00000000000000000, #800 ) ;
#241 = ORIENTED_EDGE ( 'NONE', *, *, #95, .F. ) ;
#242 = AXIS2_PLACEMENT_3D ( 'NONE', #315, #961, #165 ) ;
#243 = CYLINDRICAL_SURFACE ( 'NONE', #831, 1.000000000000000888 ) ;
#244 = CARTESIAN_POINT ( 'NONE',  ( -44.13254080751685393, 1.000000000000000000, -52.21674210529830162 ) ) ;
#245 = AXIS2_PLACEMENT_3D ( 'NONE', #257, #314, #674 ) ;
#246 = ORIENTED_EDGE ( 'NONE', *, *, #613, .F. ) ;
#247 = EDGE_CURVE ( 'NONE', #1107, #899, #957, .T. ) ;
#248 = VECTOR ( 'NONE', #1010, 1000.000000000000000 ) ;
#249 = AXIS2_PLACEMENT_3D ( 'NONE', #873, #691, #421 ) ;
#250 = DIRECTION ( 'NONE',  ( 1.000000000000000000, 0.000000000000000000, 0.000000000000000000 ) ) ;
#251 = CC_DESIGN_PERSON_AND_ORGANIZATION_ASSIGNMENT ( #175, #869, ( #78 ) ) ;
#252 = CARTESIAN_POINT ( 'NONE',  ( -81.09481793519418602, 7.000000000000000888, -46.11882641713324205 ) ) ;
#253 = CARTESIAN_POINT ( 'NONE',  ( -81.55392135783786500, 1.000000000000000000, -45.17160545004515626 ) ) ;
#254 = VERTEX_POINT ( 'NONE', #773 ) ;
#255 = EDGE_CURVE ( 'NONE', #365, #396, #1005, .T. ) ;
#256 = DIRECTION ( 'NONE',  ( 0.000000000000000000, -1.000000000000000000, 0.000000000000000000 ) ) ;
#257 = CARTESIAN_POINT ( 'NONE',  ( -77.13637233178062047, 6.000000000000000000, -38.21674210529830162 ) ) ;
#258 =( NAMED_UNIT ( * ) SI_UNIT ( $, .STERADIAN. ) SOLID_ANGLE_UNIT ( ) );
#259 = CARTESIAN_POINT ( 'NONE',  ( -81.42051944751685255, 7.000000000000000000, -48.21674210529830162 ) ) ;
#260 = CARTESIAN_POINT ( 'NONE',  ( -81.02407935918495241, 1.000000000000002887, -45.07813571595185920 ) ) ;
#261 = ORIENTED_EDGE ( 'NONE', *, *, #358, .T. ) ;
#262 = B_SPLINE_CURVE_WITH_KNOTS ( 'NONE', 3,
 ( #679, #252, #764, #1046, #1121, #321, #423, #671, #778, #1032, #508, #866, #238, #80, #60, #1138, #234, #336, #1021, #572, #937, #488 ),
 .UNSPECIFIED., .F., .F.,
 ( 4, 2, 2, 2, 2, 2, 2, 2, 2, 2, 4 ),
 ( 5.928593550334433897E-17, 0.0009718247283921440565, 0.001457737092588189468, 0.001943649456784235204, 0.002915474185176352481, 0.003401386549372419684, 0.003887298913568486454, 0.004859123641960636474, 0.005830948370352786493, 0.006802773098744937380, 0.007774597827137087400 ),
 .UNSPECIFIED. ) ;
#263 = CARTESIAN_POINT ( 'NONE',  ( -79.64633778888646987, 6.999999999999579892, -44.41606684406937688 ) ) ;
#264 = FACE_OUTER_BOUND ( 'NONE', #925, .T. ) ;
#265 = LINE ( 'NONE', #539, #762 ) ;
#266 = VERTEX_POINT ( 'NONE', #268 ) ;
#267 = CARTESIAN_POINT ( 'NONE',  ( -79.28294677635516052, 6.999999999999644729, -44.07500738185910905 ) ) ;
#268 = CARTESIAN_POINT ( 'NONE',  ( -78.13637233178062047, 1.000000000000000000, -38.21674210529830162 ) ) ;
#269 = FACE_OUTER_BOUND ( 'NONE', #945, .T. ) ;
#270 = EDGE_LOOP ( 'NONE', ( #989, #836, #1088, #354 ) ) ;
#271 = CARTESIAN_POINT ( 'NONE',  ( -79.84682375238857333, 4.612659639983425662E-13, -44.55342026085727269 ) ) ;
#272 = CIRCLE ( 'NONE', #809, 1.000000000000000888 ) ;
#273 = VECTOR ( 'NONE', #832, 1000.000000000000000 ) ;
#274 = CARTESIAN_POINT ( 'NONE',  ( -81.55392135783884555, 5.999999999999999112, -45.17160545004528416 ) ) ;
#275 = CARTESIAN_POINT ( 'NONE',  ( -82.42051944751685255, 6.000000000000000000, -48.21674210529830162 ) ) ;
#276 = DIRECTION ( 'NONE',  ( 1.000000000000000000, 0.000000000000000000, 0.000000000000000000 ) ) ;
#277 = VERTEX_POINT ( 'NONE', #275 ) ;
#278 = ADVANCED_FACE ( 'NONE', ( #911 ), #370, .F. ) ;
#279 = CARTESIAN_POINT ( 'NONE',  ( -79.84682375217917638, 1.000000000000000888, -44.55342026114419696 ) ) ;
#280 = DIRECTION ( 'NONE',  ( 0.000000000000000000, 0.000000000000000000, 1.000000000000000000 ) ) ;
#281 = CARTESIAN_POINT ( 'NONE',  ( -47.13254080751686104, 7.000000000000000000, -52.21674210529830162 ) ) ;
#282 = EDGE_LOOP ( 'NONE', ( #119, #377, #203, #964 ) ) ;
#283 = CARTESIAN_POINT ( 'NONE',  ( -75.42051944751685255, 1.000000000000000000, -48.21674210529830162 ) ) ;
#284 = DATE_TIME_ROLE ( 'classification_date' ) ;
#285 = FACE_OUTER_BOUND ( 'NONE', #946, .T. ) ;
#286 = CARTESIAN_POINT ( 'NONE',  ( -45.13254080751686104, 6.000000000000000000, -38.21674210529830162 ) ) ;
#287 = EDGE_CURVE ( 'NONE', #841, #1107, #1082, .T. ) ;
#288 = ORIENTED_EDGE ( 'NONE', *, *, #860, .T. ) ;
#289 = CARTESIAN_POINT ( 'NONE',  ( -75.42051944751685255, 0.000000000000000000, -54.21674210529830162 ) ) ;
#290 = FACE_OUTER_BOUND ( 'NONE', #236, .T. ) ;
#291 = EDGE_CURVE ( 'NONE', #94, #753, #703, .T. ) ;
#292 = CARTESIAN_POINT ( 'NONE',  ( -78.43482260318553756, 1.000000000000000444, -42.62312440958283588 ) ) ;
#293 = CARTESIAN_POINT ( 'NONE',  ( -45.13254080751686104, 7.000000000000000000, -37.21674210529830162 ) ) ;
#294 = VERTEX_POINT ( 'NONE', #641 ) ;
#295 = B_SPLINE_CURVE_WITH_KNOTS ( 'NONE', 3,
 ( #795, #352, #1076, #624, #987, #660, #486, #305, #928, #742, #393, #479, #557, #136, #1104, #298, #839, #316 ),
 .UNSPECIFIED., .F., .F.,
 ( 4, 2, 2, 2, 2, 2, 2, 2, 4 ),
 ( 0.000000000000000000, 0.001943512856234555150, 0.002915269284351842700, 0.003887025712469130249, 0.004858782140586417365, 0.005344660354645053985, 0.005830538568703691471, 0.006802294996820939556, 0.007774051424938187640 ),
 .UNSPECIFIED. ) ;
#296 = CARTESIAN_POINT ( 'NONE',  ( -80.76629425516223648, -1.734723475976807094E-15, -46.07460549013025997 ) ) ;
#297 = CARTESIAN_POINT ( 'NONE',  ( -45.13254080751686104, 7.000000000000000000, -38.21674210529830162 ) ) ;
#298 = CARTESIAN_POINT ( 'NONE',  ( -80.77204566259337071, -0.000000000000000000, -46.04770373505547099 ) ) ;
#299 = AXIS2_PLACEMENT_3D ( 'NONE', #976, #618, #113 ) ;
#300 = VECTOR ( 'NONE', #317, 1000.000000000000000 ) ;
#301 = CARTESIAN_POINT ( 'NONE',  ( -81.42051944751688097, 0.000000000000000000, -46.16266747147604832 ) ) ;
#302 = FACE_OUTER_BOUND ( 'NONE', #270, .T. ) ;
#303 = DATE_AND_TIME ( #721, #882 ) ;
#304 = DIRECTION ( 'NONE',  ( 0.000000000000000000, 0.000000000000000000, 1.000000000000000000 ) ) ;
#305 = CARTESIAN_POINT ( 'NONE',  ( -78.32625063871743976, -5.777789833161870460E-31, -44.51318536756240718 ) ) ;
#306 = CARTESIAN_POINT ( 'NONE',  ( -78.13637233178062047, 6.000000000000000000, -40.52634505667347042 ) ) ;
#307 = EDGE_CURVE ( 'NONE', #312, #931, #980, .T. ) ;
#308 = ORIENTED_EDGE ( 'NONE', *, *, #484, .T. ) ;
#309 = LINE ( 'NONE', #324, #733 ) ;
#310 = CARTESIAN_POINT ( 'NONE',  ( -78.13637233178062047, 0.000000000000000000, -40.52634505667347042 ) ) ;
#311 = APPLICATION_CONTEXT ( 'configuration controlled 3d designs of mechanical parts and assemblies' ) ;
#312 = VERTEX_POINT ( 'NONE', #190 ) ;
#313 = ORIENTED_EDGE ( 'NONE', *, *, #81, .F. ) ;
#314 = DIRECTION ( 'NONE',  ( 0.000000000000000000, -1.000000000000000000, 0.000000000000000000 ) ) ;
#315 = CARTESIAN_POINT ( 'NONE',  ( -45.13254080751686104, 6.000000000000000000, -38.21674210529830162 ) ) ;
#316 = CARTESIAN_POINT ( 'NONE',  ( -81.42051944751688097, 0.000000000000000000, -46.16266747147604832 ) ) ;
#317 = DIRECTION ( 'NONE',  ( 0.000000000000000000, -1.000000000000000000, 0.000000000000000000 ) ) ;
#318 = ORIENTED_EDGE ( 'NONE', *, *, #358, .F. ) ;
#319 = ORIENTED_EDGE ( 'NONE', *, *, #772, .T. ) ;
#320 = CYLINDRICAL_SURFACE ( 'NONE', #884, 1.000000000000000888 ) ;
#321 = CARTESIAN_POINT ( 'NONE',  ( -79.86427861071742029, 6.999999999999998224, -45.71236545329596623 ) ) ;
#322 = DIRECTION ( 'NONE',  ( -1.000000000000000000, 0.000000000000000000, 0.000000000000000000 ) ) ;
#323 = VERTEX_POINT ( 'NONE', #1002 ) ;
#324 = CARTESIAN_POINT ( 'NONE',  ( -45.13254080751686104, 0.000000000000000000, -38.21674210529830162 ) ) ;
#325 = CARTESIAN_POINT ( 'NONE',  ( -80.65073371953072012, 5.999999999999998224, -44.95738181328233907 ) ) ;
#326 = EDGE_CURVE ( 'NONE', #497, #894, #532, .T. ) ;
#327 = ORIENTED_EDGE ( 'NONE', *, *, #914, .T. ) ;
#328 = CARTESIAN_POINT ( 'NONE',  ( -81.42051944751688097, 6.000000000000000000, -46.16266747147606964 ) ) ;
#329 = ADVANCED_FACE ( 'NONE', ( #376 ), #992, .T. ) ;
#330 = DIRECTION ( 'NONE',  ( 0.000000000000000000, 0.000000000000000000, 1.000000000000000000 ) ) ;
#331 = EDGE_CURVE ( 'NONE', #725, #323, #11, .T. ) ;
#332 = CARTESIAN_POINT ( 'NONE',  ( -82.42051944751685255, 6.000000000000000000, -55.21674210529830162 ) ) ;
#333 = CIRCLE ( 'NONE', #1134, 1.000000000000000888 ) ;
#334 = ORIENTED_EDGE ( 'NONE', *, *, #775, .F. ) ;
#335 = APPROVAL_DATE_TIME ( #1055, #699 ) ;
#336 = CARTESIAN_POINT ( 'NONE',  ( -77.28013516218715040, 6.999999999999997335, -42.15409034412670763 ) ) ;
#337 = CYLINDRICAL_SURFACE ( 'NONE', #1007, 1.000000000000000888 ) ;
#338 = EDGE_LOOP ( 'NONE', ( #15, #852, #246, #463 ) ) ;
#339 = DIRECTION ( 'NONE',  ( 1.000000000000000000, 0.000000000000000000, 0.000000000000000000 ) ) ;
#340 = CARTESIAN_POINT ( 'NONE',  ( -79.11611041629569741, 7.000000000000352607, -43.88447146792164233 ) ) ;
#341 = DIRECTION ( 'NONE',  ( 0.000000000000000000, 0.000000000000000000, -1.000000000000000000 ) ) ;
#342 = ORIENTED_EDGE ( 'NONE', *, *, #997, .F. ) ;
#343 = AXIS2_PLACEMENT_3D ( 'NONE', #58, #52, #499 ) ;
#344 = CARTESIAN_POINT ( 'NONE',  ( -79.03701613319697117, 6.000000000000000000, -43.78327290908683977 ) ) ;
#345 = CARTESIAN_POINT ( 'NONE',  ( -82.42051944751685255, 6.000000000000000000, -45.21674210529830162 ) ) ;
#346 = CARTESIAN_POINT ( 'NONE',  ( -45.13254080751686104, 7.000000000000000000, -44.28090285740007914 ) ) ;
#347 = ORIENTED_EDGE ( 'NONE', *, *, #1012, .F. ) ;
#348 = EDGE_CURVE ( 'NONE', #615, #725, #445, .T. ) ;
#349 = DIRECTION ( 'NONE',  ( -0.000000000000000000, -1.000000000000000000, 0.000000000000000000 ) ) ;
#350 = AXIS2_PLACEMENT_3D ( 'NONE', #1126, #606, #1139 ) ;
#351 = CARTESIAN_POINT ( 'NONE',  ( -77.95689122299532414, 7.000000000000000000, -43.98307650105591904 ) ) ;
#352 = CARTESIAN_POINT ( 'NONE',  ( -77.13892028225858155, -6.419766481290839455E-32, -41.18426255657595192 ) ) ;
#353 = DIRECTION ( 'NONE',  ( 0.000000000000000000, 0.000000000000000000, 1.000000000000000000 ) ) ;
#354 = ORIENTED_EDGE ( 'NONE', *, *, #307, .T. ) ;
#355 = CARTESIAN_POINT ( 'NONE',  ( -79.27202175343705903, -4.249678526777274569E-13, -44.07346301766614971 ) ) ;
#356 = CARTESIAN_POINT ( 'NONE',  ( -78.33928068045183579, 6.999999999999998224, -44.51527791765630582 ) ) ;
#357 = DIRECTION ( 'NONE',  ( 1.000000000000000000, -0.000000000000000000, 0.000000000000000000 ) ) ;
#358 = EDGE_CURVE ( 'NONE', #94, #294, #915, .T. ) ;
#359 = SPHERICAL_SURFACE ( 'NONE', #871, 1.000000000000000000 ) ;
#360 = ORIENTED_EDGE ( 'NONE', *, *, #888, .T. ) ;
#361 = LINE ( 'NONE', #23, #68 ) ;
#362 = CYLINDRICAL_SURFACE ( 'NONE', #700, 1.000000000000000888 ) ;
#363 = DIRECTION ( 'NONE',  ( 0.000000000000000000, 0.000000000000000000, 1.000000000000000000 ) ) ;
#364 = EDGE_CURVE ( 'NONE', #899, #57, #1061, .T. ) ;
#365 = VERTEX_POINT ( 'NONE', #20 ) ;
#366 = CARTESIAN_POINT ( 'NONE',  ( -81.55392135783870344, 0.9999999999999983347, -45.17160545004526284 ) ) ;
#367 = APPROVAL_ROLE ( '' ) ;
#368 = AXIS2_PLACEMENT_3D ( 'NONE', #710, #716, #625 ) ;
#369 = CARTESIAN_POINT ( 'NONE',  ( -78.13637233178062047, 7.000000000000000000, -40.52634505667347042 ) ) ;
#370 = PLANE ( 'NONE',  #895 ) ;
#371 = DIRECTION ( 'NONE',  ( -0.000000000000000000, 1.000000000000000000, -0.000000000000000000 ) ) ;
#372 = ORIENTED_EDGE ( 'NONE', *, *, #443, .F. ) ;
#373 = DIRECTION ( 'NONE',  ( 0.000000000000000000, 0.000000000000000000, -1.000000000000000000 ) ) ;
#374 = EDGE_CURVE ( 'NONE', #323, #94, #295, .T. ) ;
#375 = CARTESIAN_POINT ( 'NONE',  ( -81.42051944751685255, 1.000000000000000000, -48.21674210529830162 ) ) ;
#376 = FACE_OUTER_BOUND ( 'NONE', #797, .T. ) ;
#377 = ORIENTED_EDGE ( 'NONE', *, *, #786, .T. ) ;
#378 = CARTESIAN_POINT ( 'NONE',  ( -79.95422116008535340, -8.179197081376483161E-13, -44.62292654286792981 ) ) ;
#379 = DIRECTION ( 'NONE',  ( -0.000000000000000000, 1.000000000000000000, -0.000000000000000000 ) ) ;
#380 = AXIS2_PLACEMENT_3D ( 'NONE', #90, #349, #79 ) ;
#381 = CARTESIAN_POINT ( 'NONE',  ( -78.47918617919918916, 4.217090053549834679E-13, -42.75086265785564876 ) ) ;
#382 = CIRCLE ( 'NONE', #791, 1.000000000000000888 ) ;
#383 = ORIENTED_EDGE ( 'NONE', *, *, #498, .F. ) ;
#384 = CARTESIAN_POINT ( 'NONE',  ( -75.42051944751685255, 1.000000000000000000, -48.21674210529830162 ) ) ;
#385 = ADVANCED_FACE ( 'NONE', ( #223 ), #654, .T. ) ;
#386 = CARTESIAN_POINT ( 'NONE',  ( -81.55392135783904450, 7.000000000000000888, -45.17160545004531258 ) ) ;
#387 = AXIS2_PLACEMENT_3D ( 'NONE', #388, #142, #642 ) ;
#388 = CARTESIAN_POINT ( 'NONE',  ( -81.42051944751688097, 3.500000000000000000, -46.16266747147606964 ) ) ;
#389 = VERTEX_POINT ( 'NONE', #53 ) ;
#390 = VECTOR ( 'NONE', #363, 1000.000000000000000 ) ;
#391 = ORIENTED_EDGE ( 'NONE', *, *, #886, .F. ) ;
#392 = DIRECTION ( 'NONE',  ( 0.000000000000000000, 0.000000000000000000, 1.000000000000000000 ) ) ;
#393 = CARTESIAN_POINT ( 'NONE',  ( -79.02388651205018277, 2.602085213965210642E-15, -45.19081973697640109 ) ) ;
#394 = CARTESIAN_POINT ( 'NONE',  ( -75.42051944751685255, 0.000000000000000000, -48.21674210529830162 ) ) ;
#395 = ADVANCED_FACE ( 'NONE', ( #563 ), #833, .T. ) ;
#396 = VERTEX_POINT ( 'NONE', #47 ) ;
#397 = CC_DESIGN_DATE_AND_TIME_ASSIGNMENT ( #965, #622, ( #1109 ) ) ;
#398 = DIRECTION ( 'NONE',  ( 0.000000000000000000, 0.000000000000000000, -1.000000000000000000 ) ) ;
#399 = CARTESIAN_POINT ( 'NONE',  ( -78.19533744884266468, 1.000000000000563771, -41.68714631236544932 ) ) ;
#400 = CARTESIAN_POINT ( 'NONE',  ( -78.35949857010314190, 6.000000000000000000, -42.37060798104319304 ) ) ;
#401 = ORIENTED_EDGE ( 'NONE', *, *, #984, .F. ) ;
#402 = SECURITY_CLASSIFICATION ( '', '', #428 ) ;
#403 = ADVANCED_FACE ( 'NONE', ( #1111 ), #657, .T. ) ;
#404 = ORIENTED_EDGE ( 'NONE', *, *, #597, .T. ) ;
#405 = ADVANCED_FACE ( 'NONE', ( #706 ), #464, .F. ) ;
#406 = DIRECTION ( 'NONE',  ( 0.000000000000000000, 0.000000000000000000, 1.000000000000000000 ) ) ;
#407 = DIRECTION ( 'NONE',  ( 1.000000000000000000, 0.000000000000000000, 0.000000000000000000 ) ) ;
#408 = DIRECTION ( 'NONE',  ( 0.000000000000000000, -1.000000000000000000, 0.000000000000000000 ) ) ;
#409 = AXIS2_PLACEMENT_3D ( 'NONE', #823, #1089, #453 ) ;
#410 = ORIENTED_EDGE ( 'NONE', *, *, #651, .T. ) ;
#411 = CIRCLE ( 'NONE', #218, 0.9999999999999948930 ) ;
#412 = CARTESIAN_POINT ( 'NONE',  ( -45.13254080751686104, 6.000000000000000000, -37.21674210529830162 ) ) ;
#413 = ADVANCED_FACE ( 'NONE', ( #804 ), #1085, .T. ) ;
#414 = DIRECTION ( 'NONE',  ( 0.1334019103221562863, 0.000000000000000000, -0.9910620214307475084 ) ) ;
#415 = CARTESIAN_POINT ( 'NONE',  ( -80.52671045166408703, 6.000000000000001776, -44.91066837082714613 ) ) ;
#416 = CARTESIAN_POINT ( 'NONE',  ( -75.42051944751685255, 7.000000000000000000, -54.21674210529830162 ) ) ;
#417 = ORIENTED_EDGE ( 'NONE', *, *, #1028, .F. ) ;
#418 = B_SPLINE_SURFACE_WITH_KNOTS ( 'NONE', 3, 1, ( 
 ( #686, #253 ),
 ( #971, #1053 ),
 ( #424, #87 ),
 ( #77, #789 ) ),
 .UNSPECIFIED., .F., .F., .F.,
 ( 4, 4 ),
 ( 2, 2 ),
 ( 0.04712284002417700679, 0.3410530532729201258 ),
 ( 0.000000000000000000, 1.000000000000000000 ),
 .UNSPECIFIED. ) ;
#419 = CARTESIAN_POINT ( 'NONE',  ( -47.13254080751686104, 6.000000000000000000, -54.21674210529830162 ) ) ;
#420 = CARTESIAN_POINT ( 'NONE',  ( -80.16226214041742537, 6.000000000000000000, -44.74270403287415121 ) ) ;
#421 = DIRECTION ( 'NONE',  ( 0.1334019103221562863, 0.000000000000000000, -0.9910620214307475084 ) ) ;
#422 = ORIENTED_EDGE ( 'NONE', *, *, #1106, .F. ) ;
#423 = CARTESIAN_POINT ( 'NONE',  ( -79.71649158224487053, 6.999999999999999112, -45.63861019582667211 ) ) ;
#424 = CARTESIAN_POINT ( 'NONE',  ( -78.14878188116367141, 6.000000000000000000, -43.72121056840690301 ) ) ;
#425 = CIRCLE ( 'NONE', #1118, 6.999999999999999112 ) ;
#426 = ORIENTED_EDGE ( 'NONE', *, *, #943, .F. ) ;
#427 = AXIS2_PLACEMENT_3D ( 'NONE', #1091, #551, #991 ) ;
#428 = SECURITY_CLASSIFICATION_LEVEL ( 'unclassified' ) ;
#429 = CARTESIAN_POINT ( 'NONE',  ( -81.55392135783884555, 6.999999999999991118, -45.17160545004528416 ) ) ;
#430 = CARTESIAN_POINT ( 'NONE',  ( -81.55392135783904450, 0.9999999999999991118, -45.17160545004531258 ) ) ;
#431 = ORIENTED_EDGE ( 'NONE', *, *, #487, .F. ) ;
#432 = PERSON_AND_ORGANIZATION ( #526, #756 ) ;
#433 = CARTESIAN_POINT ( 'NONE',  ( -79.84751316851239267, 5.999999999999999112, -44.56235315656667240 ) ) ;
#434 = FACE_OUTER_BOUND ( 'NONE', #643, .T. ) ;
#435 = CARTESIAN_POINT ( 'NONE',  ( -45.13254080751686104, 6.000000000000000000, -44.28090285740007914 ) ) ;
#436 = CIRCLE ( 'NONE', #1078, 1.000000000000000888 ) ;
#437 = DIRECTION ( 'NONE',  ( -1.000000000000000000, -0.000000000000000000, -0.000000000000000000 ) ) ;
#438 = CARTESIAN_POINT ( 'NONE',  ( -75.42051944751685255, 6.000000000000000000, -48.21674210529830162 ) ) ;
#439 = CARTESIAN_POINT ( 'NONE',  ( -78.63147068269614692, 0.9999999999999997780, -43.11766273223076240 ) ) ;
#440 = AXIS2_PLACEMENT_3D ( 'NONE', #892, #467, #751 ) ;
#441 = PERSON_AND_ORGANIZATION_ROLE ( 'creator' ) ;
#442 = CIRCLE ( 'NONE', #719, 6.999999999999999112 ) ;
#443 = EDGE_CURVE ( 'NONE', #229, #858, #361, .T. ) ;
#444 = CARTESIAN_POINT ( 'NONE',  ( -77.53857219671692746, 7.000000000000000000, -43.09630343452317192 ) ) ;
#445 = LINE ( 'NONE', #450, #932 ) ;
#446 = ORIENTED_EDGE ( 'NONE', *, *, #593, .F. ) ;
#447 = CARTESIAN_POINT ( 'NONE',  ( -79.64359310739054365, 1.000000000000000888, -44.40509696196615153 ) ) ;
#448 = ADVANCED_FACE ( 'NONE', ( #133 ), #608, .T. ) ;
#449 = CARTESIAN_POINT ( 'NONE',  ( -79.84751316815291489, 6.999999999999998224, -44.56235315719766277 ) ) ;
#450 = CARTESIAN_POINT ( 'NONE',  ( -77.13637233178062047, 0.000000000000000000, -38.21674210529830162 ) ) ;
#451 = DIRECTION ( 'NONE',  ( 0.000000000000000000, 0.000000000000000000, -1.000000000000000000 ) ) ;
#452 = ORIENTED_EDGE ( 'NONE', *, *, #364, .T. ) ;
#453 = DIRECTION ( 'NONE',  ( 0.000000000000000000, -0.000000000000000000, -1.000000000000000000 ) ) ;
#454 = CARTESIAN_POINT ( 'NONE',  ( -77.13637233178062047, 6.000000000000000000, -38.21674210529830162 ) ) ;
#455 = CARTESIAN_POINT ( 'NONE',  ( -77.13637233178062047, 0.000000000000000000, -40.52634505667347042 ) ) ;
#456 = EDGE_LOOP ( 'NONE', ( #162, #619, #422, #401 ) ) ;
#457 = CARTESIAN_POINT ( 'NONE',  ( -78.89843605932306048, 1.301042606982605321E-15, -45.08795247684683716 ) ) ;
#458 = CIRCLE ( 'NONE', #502, 1.000000000000000888 ) ;
#459 = LINE ( 'NONE', #222, #763 ) ;
#460 = CARTESIAN_POINT ( 'NONE',  ( -81.42051944751688097, 1.000000000000000000, -46.16266747147606964 ) ) ;
#461 = AXIS2_PLACEMENT_3D ( 'NONE', #1122, #672, #1034 ) ;
#462 = DIRECTION ( 'NONE',  ( 1.000000000000000000, 0.000000000000000000, 0.000000000000000000 ) ) ;
#463 = ORIENTED_EDGE ( 'NONE', *, *, #518, .T. ) ;
#464 = PLANE ( 'NONE',  #409 ) ;
#465 = DIRECTION ( 'NONE',  ( -1.000000000000000000, 0.000000000000000000, 0.000000000000000000 ) ) ;
#466 = CARTESIAN_POINT ( 'NONE',  ( -77.53724880428306676, -1.301042606982605321E-15, -43.09216544342702804 ) ) ;
#467 = DIRECTION ( 'NONE',  ( -0.000000000000000000, 0.000000000000000000, 1.000000000000000000 ) ) ;
#468 = ORIENTED_EDGE ( 'NONE', *, *, #568, .T. ) ;
#469 = DIRECTION ( 'NONE',  ( 1.000000000000000000, 0.000000000000000000, -0.000000000000000000 ) ) ;
#470 = APPROVAL_STATUS ( 'not_yet_approved' ) ;
#471 = DIRECTION ( 'NONE',  ( -1.000000000000000000, 0.000000000000000000, -0.000000000000000000 ) ) ;
#472 = CARTESIAN_POINT ( 'NONE',  ( -77.13637233178062047, 1.000000000000000000, -38.21674210529830162 ) ) ;
#473 = CIRCLE ( 'NONE', #1128, 0.9999999999999994449 ) ;
#474 = CARTESIAN_POINT ( 'NONE',  ( -47.13254080751686104, 6.000000000000000000, -52.21674210529830162 ) ) ;
#475 = ORIENTED_EDGE ( 'NONE', *, *, #656, .F. ) ;
#476 = DIRECTION ( 'NONE',  ( 0.000000000000000000, -1.000000000000000000, 0.000000000000000000 ) ) ;
#477 = CIRCLE ( 'NONE', #245, 1.000000000000000888 ) ;
#478 = ADVANCED_FACE ( 'NONE', ( #1080 ), #644, .F. ) ;
#479 = CARTESIAN_POINT ( 'NONE',  ( -79.28748921805835437, 2.602085213965212614E-15, -45.38320422243650398 ) ) ;
#480 = CARTESIAN_POINT ( 'NONE',  ( -81.42051944751685255, 6.000000000000000000, -48.21674210529830162 ) ) ;
#481 = ORIENTED_EDGE ( 'NONE', *, *, #326, .F. ) ;
#482 = EDGE_LOOP ( 'NONE', ( #534, #1105, #940, #475 ) ) ;
#483 = APPROVAL ( #470, 'UNSPECIFIED' ) ;
#484 = EDGE_CURVE ( 'NONE', #132, #294, #713, .T. ) ;
#485 = DIRECTION ( 'NONE',  ( 0.000000000000000000, -1.000000000000000000, 0.000000000000000000 ) ) ;
#486 = CARTESIAN_POINT ( 'NONE',  ( -77.95140978679516763, 1.155557966632341862E-30, -43.97409600652696327 ) ) ;
#487 = EDGE_CURVE ( 'NONE', #582, #725, #50, .T. ) ;
#488 = CARTESIAN_POINT ( 'NONE',  ( -77.13637233178062047, 7.000000000000000000, -40.53022924388768189 ) ) ;
#489 = ORIENTED_EDGE ( 'NONE', *, *, #688, .F. ) ;
#490 = EDGE_LOOP ( 'NONE', ( #360, #210, #383, #885 ) ) ;
#491 = CARTESIAN_POINT ( 'NONE',  ( -78.13637233178062047, 7.000000000000000000, -38.21674210529830162 ) ) ;
#492 = CARTESIAN_POINT ( 'NONE',  ( -77.43431410153164052, -1.301042606982605321E-15, -42.77811437896477997 ) ) ;
#493 = APPROVAL_PERSON_ORGANIZATION ( #985, #699, #516 ) ;
#494 = DIRECTION ( 'NONE',  ( -0.000000000000000000, -1.000000000000000000, 0.000000000000000000 ) ) ;
#495 = ORIENTED_EDGE ( 'NONE', *, *, #613, .T. ) ;
#496 = CIRCLE ( 'NONE', #242, 1.000000000000000888 ) ;
#497 = VERTEX_POINT ( 'NONE', #289 ) ;
#498 = EDGE_CURVE ( 'NONE', #132, #389, #425, .T. ) ;
#499 = DIRECTION ( 'NONE',  ( 0.000000000000000000, 0.000000000000000000, -1.000000000000000000 ) ) ;
#500 = DIRECTION ( 'NONE',  ( -1.000000000000000000, 0.000000000000000000, 0.000000000000000000 ) ) ;
#501 = DIRECTION ( 'NONE',  ( 0.003884187214212040350, 0.000000000000000000, 0.9999924565163904600 ) ) ;
#502 = AXIS2_PLACEMENT_3D ( 'NONE', #883, #807, #993 ) ;
#503 = ORIENTED_EDGE ( 'NONE', *, *, #984, .T. ) ;
#504 = VECTOR ( 'NONE', #587, 1000.000000000000000 ) ;
#505 = DIRECTION ( 'NONE',  ( -0.000000000000000000, 1.000000000000000000, -0.000000000000000000 ) ) ;
#506 = CARTESIAN_POINT ( 'NONE',  ( -78.63459116954815897, 6.000000000000000888, -43.12470030920050590 ) ) ;
#507 = SPHERICAL_SURFACE ( 'NONE', #1039, 1.000000000000000000 ) ;
#508 = CARTESIAN_POINT ( 'NONE',  ( -78.55508281877736465, 6.999999999999997335, -44.76173532926043919 ) ) ;
#509 = CARTESIAN_POINT ( 'NONE',  ( -81.42051944751688097, 1.000000000000000000, -46.16266747147606964 ) ) ;
#510 = CC_DESIGN_APPROVAL ( #533, ( #1109 ) ) ;
#511 = ORIENTED_EDGE ( 'NONE', *, *, #726, .F. ) ;
#512 = PERSON_AND_ORGANIZATION ( #526, #756 ) ;
#513 = DIRECTION ( 'NONE',  ( 0.000000000000000000, 0.000000000000000000, -1.000000000000000000 ) ) ;
#514 = CYLINDRICAL_SURFACE ( 'NONE', #744, 1.000000000000000888 ) ;
#515 = EDGE_LOOP ( 'NONE', ( #1066, #554, #431 ) ) ;
#516 = APPROVAL_ROLE ( '' ) ;
#517 = CARTESIAN_POINT ( 'NONE',  ( -80.17989755288023446, 6.999999999999998224, -44.75171761995921571 ) ) ;
#518 = EDGE_CURVE ( 'NONE', #874, #102, #477, .T. ) ;
#519 = CYLINDRICAL_SURFACE ( 'NONE', #124, 1.000000000000000888 ) ;
#520 = VERTEX_POINT ( 'NONE', #412 ) ;
#521 = PERSON_AND_ORGANIZATION_ROLE ( 'design_owner' ) ;
#522 = CARTESIAN_POINT ( 'NONE',  ( -78.55508281856120334, 6.999999999999998224, -44.76173532952232392 ) ) ;
#523 = DIRECTION ( 'NONE',  ( 0.000000000000000000, 1.000000000000000000, 0.000000000000000000 ) ) ;
#524 = DIRECTION ( 'NONE',  ( 0.000000000000000000, 0.000000000000000000, -1.000000000000000000 ) ) ;
#525 = VERTEX_POINT ( 'NONE', #847 ) ;
#526 = PERSON ( 'UNSPECIFIED', 'UNSPECIFIED', 'UNSPECIFIED', ('UNSPECIFIED'), ('UNSPECIFIED'), ('UNSPECIFIED') ) ;
#527 =( GEOMETRIC_REPRESENTATION_CONTEXT ( 3 ) GLOBAL_UNCERTAINTY_ASSIGNED_CONTEXT ( ( #75 ) ) GLOBAL_UNIT_ASSIGNED_CONTEXT ( ( #178, #1, #258 ) ) REPRESENTATION_CONTEXT ( 'NONE', 'WORKASPACE' ) );
#528 = ADVANCED_FACE ( 'NONE', ( #302 ), #1036, .F. ) ;
#529 = CIRCLE ( 'NONE', #982, 0.9999999999999948930 ) ;
#530 = MECHANICAL_CONTEXT ( 'NONE', #929, 'mechanical' ) ;
#531 = CARTESIAN_POINT ( 'NONE',  ( -81.09483003453121341, 6.999999999999998224, -46.11882804737003028 ) ) ;
#532 = LINE ( 'NONE', #213, #146 ) ;
#533 = APPROVAL ( #701, 'UNSPECIFIED' ) ;
#534 = ORIENTED_EDGE ( 'NONE', *, *, #726, .T. ) ;
#535 = AXIS2_PLACEMENT_3D ( 'NONE', #745, #737, #564 ) ;
#536 = CARTESIAN_POINT ( 'NONE',  ( -81.55392135783870344, -1.734723475976807094E-15, -45.17160545004526284 ) ) ;
#537 = VECTOR ( 'NONE', #1069, 1000.000000000000000 ) ;
#538 = LINE ( 'NONE', #1052, #1045 ) ;
#539 = CARTESIAN_POINT ( 'NONE',  ( -77.13637233178062047, 7.000000000000000000, -44.28090285740007914 ) ) ;
#540 = ORIENTED_EDGE ( 'NONE', *, *, #896, .F. ) ;
#541 = CARTESIAN_POINT ( 'NONE',  ( -79.54715683026884676, 2.066292346074420802E-13, -44.32601103810838339 ) ) ;
#542 = ADVANCED_BREP_SHAPE_REPRESENTATION ( 'SideCushionMirrored', ( #636, #43 ), #527 ) ;
#543 = DIRECTION ( 'NONE',  ( 0.000000000000000000, 0.000000000000000000, -1.000000000000000000 ) ) ;
#544 = ORIENTED_EDGE ( 'NONE', *, *, #161, .T. ) ;
#545 = CARTESIAN_POINT ( 'NONE',  ( -82.42051944751685255, 1.000000000000000000, -46.16266747147606964 ) ) ;
#546 = DIRECTION ( 'NONE',  ( 1.000000000000000000, 0.000000000000000000, 0.000000000000000000 ) ) ;
#547 = CARTESIAN_POINT ( 'NONE',  ( -78.35782626539369744, 1.000000000000001332, -42.36457764211125010 ) ) ;
#548 = ORIENTED_EDGE ( 'NONE', *, *, #688, .T. ) ;
#549 = CARTESIAN_POINT ( 'NONE',  ( -79.28748921828021423, 1.301042606982605321E-15, -45.38320422220750316 ) ) ;
#550 = AXIS2_PLACEMENT_3D ( 'NONE', #121, #638, #373 ) ;
#551 = DIRECTION ( 'NONE',  ( 1.000000000000000000, -0.000000000000000000, 0.000000000000000000 ) ) ;
#552 = DIRECTION ( 'NONE',  ( -0.000000000000000000, -1.000000000000000000, -0.000000000000000000 ) ) ;
#553 = ADVANCED_FACE ( 'NONE', ( #1108 ), #969, .T. ) ;
#554 = ORIENTED_EDGE ( 'NONE', *, *, #990, .T. ) ;
#555 = CARTESIAN_POINT ( 'NONE',  ( -80.13602480477311474, -2.602085213965210642E-15, -45.87872677213668737 ) ) ;
#556 = CARTESIAN_POINT ( 'NONE',  ( -44.13254080751685393, 1.000000000000000000, -38.21674210529830162 ) ) ;
#557 = CARTESIAN_POINT ( 'NONE',  ( -79.42640525231183801, -1.348150961071072629E-30, -45.47306104185671671 ) ) ;
#558 = CARTESIAN_POINT ( 'NONE',  ( -45.13254080751686104, 0.000000000000000000, -38.21674210529830162 ) ) ;
#559 = ORIENTED_EDGE ( 'NONE', *, *, #1113, .T. ) ;
#560 = DIRECTION ( 'NONE',  ( 0.000000000000000000, -1.000000000000000000, 0.000000000000000000 ) ) ;
#561 = ADVANCED_FACE ( 'NONE', ( #842 ), #739, .T. ) ;
#562 = CARTESIAN_POINT ( 'NONE',  ( -78.39489110930054494, 7.000000000000283329, -42.49545790612676655 ) ) ;
#563 = FACE_OUTER_BOUND ( 'NONE', #658, .T. ) ;
#564 = DIRECTION ( 'NONE',  ( 0.000000000000000000, 0.000000000000000000, -1.000000000000000000 ) ) ;
#565 = EDGE_CURVE ( 'NONE', #497, #389, #458, .T. ) ;
#566 = EDGE_LOOP ( 'NONE', ( #417, #663, #446, #687 ) ) ;
#567 = ORIENTED_EDGE ( 'NONE', *, *, #607, .F. ) ;
#568 = EDGE_CURVE ( 'NONE', #520, #858, #777, .T. ) ;
#569 = ADVANCED_FACE ( 'NONE', ( #13 ), #21, .T. ) ;
#570 = DIRECTION ( 'NONE',  ( 1.000000000000000000, 0.000000000000000000, 0.000000000000000000 ) ) ;
#571 = VECTOR ( 'NONE', #995, 1000.000000000000000 ) ;
#572 = CARTESIAN_POINT ( 'NONE',  ( -77.15432342512656305, 7.000000000000003553, -41.18623952641448227 ) ) ;
#573 = ORIENTED_EDGE ( 'NONE', *, *, #602, .F. ) ;
#574 = ORIENTED_EDGE ( 'NONE', *, *, #568, .F. ) ;
#575 = DIRECTION ( 'NONE',  ( -0.000000000000000000, -0.000000000000000000, 1.000000000000000000 ) ) ;
#576 = CARTESIAN_POINT ( 'NONE',  ( -45.13254080751686104, 1.000000000000000000, -55.21674210529830162 ) ) ;
#577 = ADVANCED_FACE ( 'NONE', ( #269 ), #88, .T. ) ;
#578 = ORIENTED_EDGE ( 'NONE', *, *, #651, .F. ) ;
#579 = ORIENTED_EDGE ( 'NONE', *, *, #935, .T. ) ;
#580 = DIRECTION ( 'NONE',  ( 0.000000000000000000, 0.000000000000000000, 1.000000000000000000 ) ) ;
#581 = CARTESIAN_POINT ( 'NONE',  ( -79.21973211610543331, 5.999999999999997335, -44.01825861142093288 ) ) ;
#582 = VERTEX_POINT ( 'NONE', #197 ) ;
#583 = AXIS2_PLACEMENT_3D ( 'NONE', #419, #237, #406 ) ;
#584 = ORIENTED_EDGE ( 'NONE', *, *, #565, .T. ) ;
#585 = DIRECTION ( 'NONE',  ( 1.000000000000000000, 0.000000000000000000, 0.000000000000000000 ) ) ;
#586 = FACE_OUTER_BOUND ( 'NONE', #72, .T. ) ;
#587 = DIRECTION ( 'NONE',  ( 1.000000000000000000, -0.000000000000000000, -0.000000000000000000 ) ) ;
#588 = CIRCLE ( 'NONE', #535, 1.000000000000000888 ) ;
#589 = CIRCLE ( 'NONE', #1136, 1.000000000000000888 ) ;
#590 = ADVANCED_FACE ( 'NONE', ( #26 ), #519, .T. ) ;
#591 = ORIENTED_EDGE ( 'NONE', *, *, #348, .F. ) ;
#592 = AXIS2_PLACEMENT_3D ( 'NONE', #143, #56, #1029 ) ;
#593 = EDGE_CURVE ( 'NONE', #858, #216, #5, .T. ) ;
#594 = CARTESIAN_POINT ( 'NONE',  ( -81.42051944751685255, 7.000000000000000000, -46.16266747147606964 ) ) ;
#595 = CARTESIAN_POINT ( 'NONE',  ( -78.75527402116983922, 5.999999999999998224, -43.36229164483532372 ) ) ;
#596 = ORIENTED_EDGE ( 'NONE', *, *, #8, .F. ) ;
#597 = EDGE_CURVE ( 'NONE', #913, #229, #265, .T. ) ;
#598 = PLANE ( 'NONE',  #972 ) ;
#599 = DIRECTION ( 'NONE',  ( 0.000000000000000000, -1.000000000000000000, 0.000000000000000000 ) ) ;
#600 = PRODUCT_RELATED_PRODUCT_CATEGORY ( 'detail', '', ( #1042 ) ) ;
#601 = EDGE_LOOP ( 'NONE', ( #347, #186, #906, #959, #650, #1016, #803, #747 ) ) ;
#602 = EDGE_CURVE ( 'NONE', #1107, #57, #796, .T. ) ;
#603 = ADVANCED_FACE ( 'NONE', ( #185 ), #359, .T. ) ;
#604 = CALENDAR_DATE ( 2026, 7, 9 ) ;
#605 = CARTESIAN_POINT ( 'NONE',  ( -79.37053107833364152, 7.000000000000211386, -44.16434909110996898 ) ) ;
#606 = DIRECTION ( 'NONE',  ( -1.000000000000000000, -0.000000000000000000, -0.000000000000000000 ) ) ;
#607 = EDGE_CURVE ( 'NONE', #615, #931, #953, .T. ) ;
#608 = TOROIDAL_SURFACE ( 'NONE', #230, 6.000000000000000000, 1.000000000000000000 ) ;
#609 = ORIENTED_EDGE ( 'NONE', *, *, #775, .T. ) ;
#610 = VECTOR ( 'NONE', #322, 1000.000000000000000 ) ;
#611 = CARTESIAN_POINT ( 'NONE',  ( -79.03701613358347799, 6.999999999999647393, -43.78327290881640010 ) ) ;
#612 = DIRECTION ( 'NONE',  ( 0.000000000000000000, 0.000000000000000000, -1.000000000000000000 ) ) ;
#613 = EDGE_CURVE ( 'NONE', #874, #582, #48, .T. ) ;
#614 = DIRECTION ( 'NONE',  ( 0.000000000000000000, 0.000000000000000000, 1.000000000000000000 ) ) ;
#615 = VERTEX_POINT ( 'NONE', #558 ) ;
#616 = CARTESIAN_POINT ( 'NONE',  ( -78.23745816800882835, 7.000000000000000000, -44.38491423854528506 ) ) ;
#617 = DIRECTION ( 'NONE',  ( -0.000000000000000000, -0.000000000000000000, -1.000000000000000000 ) ) ;
#618 = DIRECTION ( 'NONE',  ( 0.000000000000000000, -0.000000000000000000, 1.000000000000000000 ) ) ;
#619 = ORIENTED_EDGE ( 'NONE', *, *, #597, .F. ) ;
#620 = AXIS2_PLACEMENT_3D ( 'NONE', #1103, #546, #33 ) ;
#621 = DIRECTION ( 'NONE',  ( 0.000000000000000000, -1.000000000000000000, 0.000000000000000000 ) ) ;
#622 = DATE_TIME_ROLE ( 'creation_date' ) ;
#623 = FACE_OUTER_BOUND ( 'NONE', #950, .T. ) ;
#624 = CARTESIAN_POINT ( 'NONE',  ( -77.43431409925317155, 1.301042606982605715E-15, -42.77811437929295835 ) ) ;
#625 = DIRECTION ( 'NONE',  ( 0.000000000000000000, 0.000000000000000000, 1.000000000000000000 ) ) ;
#626 = ORIENTED_EDGE ( 'NONE', *, *, #161, .F. ) ;
#627 = CIRCLE ( 'NONE', #144, 5.999999999999998224 ) ;
#628 = CARTESIAN_POINT ( 'NONE',  ( -79.27202175354223357, 0.9999999999997201128, -44.07346301755158180 ) ) ;
#629 = CIRCLE ( 'NONE', #14, 1.000000000000000888 ) ;
#630 = AXIS2_PLACEMENT_3D ( 'NONE', #286, #904, #107 ) ;
#631 = CARTESIAN_POINT ( 'NONE',  ( -77.13893244838068597, 7.000000000000000000, -41.18739600623968755 ) ) ;
#632 = CARTESIAN_POINT ( 'NONE',  ( -78.18381926672749671, 1.000000000000001554, -41.58787559521700672 ) ) ;
#633 = ORIENTED_EDGE ( 'NONE', *, *, #779, .T. ) ;
#634 = CARTESIAN_POINT ( 'NONE',  ( -79.95422115983552658, 0.9999999999997856159, -44.62292654330492780 ) ) ;
#635 = FACE_OUTER_BOUND ( 'NONE', #191, .T. ) ;
#636 = MANIFOLD_SOLID_BREP ( 'Fillet4', #917 ) ;
#637 = ORIENTED_EDGE ( 'NONE', *, *, #1012, .T. ) ;
#638 = DIRECTION ( 'NONE',  ( 1.000000000000000000, 0.000000000000000000, -0.000000000000000000 ) ) ;
#639 = CIRCLE ( 'NONE', #208, 1.000000000000000888 ) ;
#640 = CARTESIAN_POINT ( 'NONE',  ( -77.20212348366486310, 7.000000000000001776, -41.83909853164111325 ) ) ;
#641 = CARTESIAN_POINT ( 'NONE',  ( -82.42051944751685255, 1.000000000000000000, -46.16266747147606964 ) ) ;
#642 = DIRECTION ( 'NONE',  ( 0.000000000000000000, 0.000000000000000000, -1.000000000000000000 ) ) ;
#643 = EDGE_LOOP ( 'NONE', ( #731, #994, #83, #609 ) ) ;
#644 = PLANE ( 'NONE',  #1043 ) ;
#645 = AXIS2_PLACEMENT_3D ( 'NONE', #697, #1058, #182 ) ;
#646 = CIRCLE ( 'NONE', #85, 3.000000000000002665 ) ;
#647 = CARTESIAN_POINT ( 'NONE',  ( -47.13254080751686104, 1.000000000000000000, -52.21674210529830162 ) ) ;
#648 = CARTESIAN_POINT ( 'NONE',  ( -78.81321048943418361, -6.406980182612185051E-13, -43.46184665006892089 ) ) ;
#649 = VECTOR ( 'NONE', #1048, 1000.000000000000000 ) ;
#650 = ORIENTED_EDGE ( 'NONE', *, *, #374, .T. ) ;
#651 = EDGE_CURVE ( 'NONE', #1144, #931, #588, .T. ) ;
#652 = CARTESIAN_POINT ( 'NONE',  ( -47.13254080751686104, 6.000000000000000000, -52.21674210529830162 ) ) ;
#653 = CARTESIAN_POINT ( 'NONE',  ( -44.13254080751685393, 7.000000000000000000, -52.21674210529830162 ) ) ;
#654 = SPHERICAL_SURFACE ( 'NONE', #31, 1.000000000000000000 ) ;
#655 = LINE ( 'NONE', #759, #1102 ) ;
#656 = EDGE_CURVE ( 'NONE', #841, #277, #194, .T. ) ;
#657 =( BOUNDED_SURFACE ( )  B_SPLINE_SURFACE ( 3, 2, ( 
 ( #750, #310, #1020 ),
 ( #936, #59, #1115 ),
 ( #399, #757, #1027 ),
 ( #233, #154, #492 ),
 ( #130, #381, #466 ),
 ( #41, #826, #736 ),
 ( #1097, #648, #1009 ),
 ( #220, #110, #192 ),
 ( #628, #355, #211 ),
 ( #908, #541, #457 ),
 ( #447, #128, #205 ),
 ( #279, #271, #549 ),
 ( #634, #378, #199 ),
 ( #901, #115, #555 ),
 ( #922, #28, #296 ),
 ( #366, #536, #1073 ) ),
 .UNSPECIFIED., .F., .F., .F. ) 
 B_SPLINE_SURFACE_WITH_KNOTS ( ( 4, 2, 2, 2, 2, 2, 2, 4 ),
 ( 3, 3 ),
 ( 0.000000000000000000, 0.001943512856234501157, 0.002915269284351751627, 0.003887025712469002314, 0.004858782140586252567, 0.005344660354644877910, 0.005830538568703503254, 0.007774051424938004627 ),
 ( 0.000000000000000000, 1.000000000000000000 ),
 .UNSPECIFIED. ) 
 GEOMETRIC_REPRESENTATION_ITEM ( )  RATIONAL_B_SPLINE_SURFACE ( (
 ( 1.000000000000000000, 0.7071067811865475727, 1.000000000000000000),
 ( 1.000000000000000000, 0.7071067811865475727, 1.000000000000000000),
 ( 1.000000000000000000, 0.7071067811865473507, 1.000000000000000000),
 ( 1.000000000000000000, 0.7071067811865473507, 1.000000000000000000),
 ( 1.000000000000000000, 0.7071067811865473507, 1.000000000000000000),
 ( 1.000000000000000000, 0.7071067811865473507, 1.000000000000000000),
 ( 1.000000000000000000, 0.7071067811865475727, 1.000000000000000000),
 ( 1.000000000000000000, 0.7071067811865475727, 1.000000000000000000),
 ( 1.000000000000000000, 0.7071067811865459074, 1.000000000000000000),
 ( 1.000000000000000000, 0.7071067811865459074, 1.000000000000000000),
 ( 1.000000000000000000, 0.7071067811865476838, 1.000000000000000000),
 ( 1.000000000000000000, 0.7071067811865476838, 1.000000000000000000),
 ( 1.000000000000000000, 0.7071067811865472397, 1.000000000000000000),
 ( 1.000000000000000000, 0.7071067811865472397, 1.000000000000000000),
 ( 1.000000000000000000, 0.7071067811865475727, 1.000000000000000000),
 ( 1.000000000000000000, 0.7071067811865475727, 1.000000000000000000) ) ) 
 REPRESENTATION_ITEM ( '' )  SURFACE ( )  );
#658 = EDGE_LOOP ( 'NONE', ( #977, #327, #241 ) ) ;
#659 = LINE ( 'NONE', #947, #676 ) ;
#660 = CARTESIAN_POINT ( 'NONE',  ( -77.79564686370289905, -3.903127820947817540E-15, -43.68888366757900599 ) ) ;
#661 = DIRECTION ( 'NONE',  ( 0.000000000000000000, 0.000000000000000000, -1.000000000000000000 ) ) ;
#662 = ORIENTED_EDGE ( 'NONE', *, *, #870, .F. ) ;
#663 = ORIENTED_EDGE ( 'NONE', *, *, #1133, .T. ) ;
#664 = CARTESIAN_POINT ( 'NONE',  ( -77.13637233178062047, 6.000000000000000000, -44.28090285740007914 ) ) ;
#665 = AXIS2_PLACEMENT_3D ( 'NONE', #942, #1014, #666 ) ;
#666 = DIRECTION ( 'NONE',  ( 0.000000000000000000, 0.000000000000000000, -1.000000000000000000 ) ) ;
#667 = FACE_OUTER_BOUND ( 'NONE', #482, .T. ) ;
#668 = ORIENTED_EDGE ( 'NONE', *, *, #36, .F. ) ;
#669 = ORIENTED_EDGE ( 'NONE', *, *, #8, .T. ) ;
#670 = DIRECTION ( 'NONE',  ( 1.000000000000000000, 0.000000000000000000, -0.000000000000000000 ) ) ;
#671 = CARTESIAN_POINT ( 'NONE',  ( -79.28927617190984733, 6.999999999999999112, -45.39521904716154665 ) ) ;
#672 = DIRECTION ( 'NONE',  ( 0.000000000000000000, 0.000000000000000000, -1.000000000000000000 ) ) ;
#673 = ORIENTED_EDGE ( 'NONE', *, *, #593, .T. ) ;
#674 = DIRECTION ( 'NONE',  ( 0.000000000000000000, 0.000000000000000000, -1.000000000000000000 ) ) ;
#675 = CARTESIAN_POINT ( 'NONE',  ( -81.02852547534358507, 5.999999999999996447, -45.07909897012938671 ) ) ;
#676 = VECTOR ( 'NONE', #1038, 1000.000000000000000 ) ;
#677 = ORIENTED_EDGE ( 'NONE', *, *, #602, .T. ) ;
#678 = CARTESIAN_POINT ( 'NONE',  ( -77.13637233178062047, 1.000000000000000000, -38.21674210529830162 ) ) ;
#679 = CARTESIAN_POINT ( 'NONE',  ( -81.42051944751685255, 7.000000000000000000, -46.16266747147606964 ) ) ;
#680 = FACE_OUTER_BOUND ( 'NONE', #868, .T. ) ;
#681 = ORIENTED_EDGE ( 'NONE', *, *, #786, .F. ) ;
#682 = ADVANCED_FACE ( 'NONE', ( #137 ), #834, .T. ) ;
#683 = DIRECTION ( 'NONE',  ( 1.000000000000000000, 0.000000000000000000, 0.000000000000000000 ) ) ;
#684 = CC_DESIGN_PERSON_AND_ORGANIZATION_ASSIGNMENT ( #707, #441, ( #1109 ) ) ;
#685 = CARTESIAN_POINT ( 'NONE',  ( -78.39489110818898610, 6.000000000000141220, -42.49545790640205922 ) ) ;
#686 = CARTESIAN_POINT ( 'NONE',  ( -81.55392135783786500, 6.000000000000000000, -45.17160545004515626 ) ) ;
#687 = ORIENTED_EDGE ( 'NONE', *, *, #1033, .F. ) ;
#688 = EDGE_CURVE ( 'NONE', #1144, #520, #730, .T. ) ;
#689 = APPLICATION_PROTOCOL_DEFINITION ( 'international standard', 'config_control_design', 1994, #929 ) ;
#690 = DIRECTION ( 'NONE',  ( 0.000000000000000000, -1.000000000000000000, 0.000000000000000000 ) ) ;
#691 = DIRECTION ( 'NONE',  ( 0.9910620214307475084, -0.000000000000000000, 0.1334019103221562585 ) ) ;
#692 = APPROVAL_PERSON_ORGANIZATION ( #1101, #483, #367 ) ;
#693 = AXIS2_PLACEMENT_3D ( 'NONE', #454, #465, #304 ) ;
#694 = EDGE_CURVE ( 'NONE', #931, #766, #55, .T. ) ;
#695 = CARTESIAN_POINT ( 'NONE',  ( -79.28927617168828590, 6.999999999999998224, -45.39521904743024550 ) ) ;
#696 = CARTESIAN_POINT ( 'NONE',  ( -45.13254080751686104, 7.000000000000000000, -52.21674210529830162 ) ) ;
#697 = CARTESIAN_POINT ( 'NONE',  ( -81.42051944751688097, 1.000000000000000000, -46.16266747147606964 ) ) ;
#698 = VERTEX_POINT ( 'NONE', #827 ) ;
#699 = APPROVAL ( #865, 'UNSPECIFIED' ) ;
#700 = AXIS2_PLACEMENT_3D ( 'NONE', #135, #1081, #280 ) ;
#701 = APPROVAL_STATUS ( 'not_yet_approved' ) ;
#702 = CARTESIAN_POINT ( 'NONE',  ( -78.69247128841396943, 7.000000000000142109, -43.24250424041348850 ) ) ;
#703 = LINE ( 'NONE', #123, #1047 ) ;
#704 = DIRECTION ( 'NONE',  ( 1.000000000000000000, 0.000000000000000000, 0.000000000000000000 ) ) ;
#705 = EDGE_LOOP ( 'NONE', ( #752, #1099, #391, #681 ) ) ;
#706 = FACE_OUTER_BOUND ( 'NONE', #1084, .T. ) ;
#707 = PERSON_AND_ORGANIZATION ( #526, #756 ) ;
#708 = CARTESIAN_POINT ( 'NONE',  ( -79.64633778910052797, 5.999999999999719336, -44.41606684383482673 ) ) ;
#709 = CARTESIAN_POINT ( 'NONE',  ( -79.21308469398390173, 0.9999999999999997780, -44.01078395040246960 ) ) ;
#710 = CARTESIAN_POINT ( 'NONE',  ( -45.13254080751686104, 6.000000000000000000, -38.21674210529830162 ) ) ;
#711 = ORIENTED_EDGE ( 'NONE', *, *, #206, .F. ) ;
#712 = EDGE_CURVE ( 'NONE', #266, #582, #333, .T. ) ;
#713 = LINE ( 'NONE', #545, #571 ) ;
#714 = CARTESIAN_POINT ( 'NONE',  ( -77.43615851323335164, 7.000000000000001776, -42.78407397036720994 ) ) ;
#715 = DIRECTION ( 'NONE',  ( 1.000000000000000000, -0.000000000000000000, -0.000000000000000000 ) ) ;
#716 = DIRECTION ( 'NONE',  ( -1.000000000000000000, 0.000000000000000000, 0.000000000000000000 ) ) ;
#717 = ORIENTED_EDGE ( 'NONE', *, *, #1140, .F. ) ;
#718 = AXIS2_PLACEMENT_3D ( 'NONE', #810, #621, #37 ) ;
#719 = AXIS2_PLACEMENT_3D ( 'NONE', #141, #476, #543 ) ;
#720 = DIRECTION ( 'NONE',  ( 0.000000000000000000, -1.000000000000000000, 0.000000000000000000 ) ) ;
#721 = CALENDAR_DATE ( 2026, 7, 9 ) ;
#722 = DIRECTION ( 'NONE',  ( 1.000000000000000000, 0.000000000000000000, -0.000000000000000000 ) ) ;
#723 = CARTESIAN_POINT ( 'NONE',  ( -79.04207272785600935, 0.9999999999999988898, -43.80249214663125201 ) ) ;
#724 = CARTESIAN_POINT ( 'NONE',  ( -44.13254080751685393, 1.000000000000000000, -55.21674210529830162 ) ) ;
#725 = VERTEX_POINT ( 'NONE', #813 ) ;
#726 = EDGE_CURVE ( 'NONE', #841, #89, #627, .T. ) ;
#727 = CARTESIAN_POINT ( 'NONE',  ( -45.13254080751686104, 6.000000000000000000, -38.21674210529830162 ) ) ;
#728 = CARTESIAN_POINT ( 'NONE',  ( -78.13637233178062047, 1.000000000000000000, -40.52634505667347042 ) ) ;
#729 = ADVANCED_FACE ( 'NONE', ( #920 ), #131, .T. ) ;
#730 = LINE ( 'NONE', #293, #1083 ) ;
#731 = ORIENTED_EDGE ( 'NONE', *, *, #896, .T. ) ;
#732 = DIRECTION ( 'NONE',  ( 1.000000000000000000, 0.000000000000000000, 0.000000000000000000 ) ) ;
#733 = VECTOR ( 'NONE', #153, 1000.000000000000000 ) ;
#734 = CARTESIAN_POINT ( 'NONE',  ( -78.19668032396370450, 5.999999999999719336, -41.69513186896580237 ) ) ;
#735 = EDGE_CURVE ( 'NONE', #525, #389, #76, .T. ) ;
#736 = CARTESIAN_POINT ( 'NONE',  ( -77.79564686513768379, -1.301042606982605321E-15, -43.68888366686420710 ) ) ;
#737 = DIRECTION ( 'NONE',  ( -0.000000000000000000, 1.000000000000000000, -0.000000000000000000 ) ) ;
#738 = ORIENTED_EDGE ( 'NONE', *, *, #1133, .F. ) ;
#739 = CYLINDRICAL_SURFACE ( 'NONE', #891, 3.000000000000002665 ) ;
#740 = COORDINATED_UNIVERSAL_TIME_OFFSET ( 0, 0, .AHEAD. ) ;
#741 = CARTESIAN_POINT ( 'NONE',  ( -78.13637233178062047, 7.000000000000000000, -37.21674210529830162 ) ) ;
#742 = CARTESIAN_POINT ( 'NONE',  ( -78.89843605922499137, 1.301042606982605321E-15, -45.08795247694667552 ) ) ;
#743 = ADVANCED_FACE ( 'NONE', ( #586 ), #767, .T. ) ;
#744 = AXIS2_PLACEMENT_3D ( 'NONE', #780, #967, #784 ) ;
#745 = CARTESIAN_POINT ( 'NONE',  ( -45.13254080751686104, 1.000000000000000000, -38.21674210529830162 ) ) ;
#746 = CARTESIAN_POINT ( 'NONE',  ( -79.49876917851969438, 7.000000000000000000, -54.21674210529830162 ) ) ;
#747 = ORIENTED_EDGE ( 'NONE', *, *, #326, .T. ) ;
#748 = DIRECTION ( 'NONE',  ( -1.000000000000000000, 0.000000000000000000, 0.000000000000000000 ) ) ;
#749 = CARTESIAN_POINT ( 'NONE',  ( -81.42051944751688097, 1.000000000000000000, -46.16266747147606964 ) ) ;
#750 = CARTESIAN_POINT ( 'NONE',  ( -78.13637233178062047, 1.000000000000000000, -40.52634505667347042 ) ) ;
#751 = DIRECTION ( 'NONE',  ( 1.000000000000000000, 0.000000000000000000, 0.000000000000000000 ) ) ;
#752 = ORIENTED_EDGE ( 'NONE', *, *, #54, .T. ) ;
#753 = VERTEX_POINT ( 'NONE', #1040 ) ;
#754 = DIRECTION ( 'NONE',  ( 0.000000000000000000, 0.000000000000000000, -1.000000000000000000 ) ) ;
#755 = DIRECTION ( 'NONE',  ( 0.9999924565163904600, 7.806255641895671368E-15, -0.003884187214212040350 ) ) ;
#756 = ORGANIZATION ( 'UNSPECIFIED', 'UNSPECIFIED', '' ) ;
#757 = CARTESIAN_POINT ( 'NONE',  ( -78.19533744620905225, -2.836657427365816301E-13, -41.68714631301909890 ) ) ;
#758 = CARTESIAN_POINT ( 'NONE',  ( -47.13254080751686104, 7.000000000000000000, -55.21674210529830162 ) ) ;
#759 = CARTESIAN_POINT ( 'NONE',  ( -45.13254080751686104, 1.000000000000000000, -37.21674210529830162 ) ) ;
#760 = ORIENTED_EDGE ( 'NONE', *, *, #1051, .F. ) ;
#761 = FACE_OUTER_BOUND ( 'NONE', #6, .T. ) ;
#762 = VECTOR ( 'NONE', #614, 1000.000000000000000 ) ;
#763 = VECTOR ( 'NONE', #927, 1000.000000000000000 ) ;
#764 = CARTESIAN_POINT ( 'NONE',  ( -80.77728987988751896, 7.000000000000000888, -46.04884803155428585 ) ) ;
#765 = DIRECTION ( 'NONE',  ( 1.000000000000000000, 0.000000000000000000, 0.000000000000000000 ) ) ;
#766 = VERTEX_POINT ( 'NONE', #244 ) ;
#767 = CYLINDRICAL_SURFACE ( 'NONE', #893, 1.000000000000000888 ) ;
#768 = CARTESIAN_POINT ( 'NONE',  ( -79.81039524075136171, 1.000000000000000000, -44.53824024767749989 ) ) ;
#769 = ORIENTED_EDGE ( 'NONE', *, *, #81, .T. ) ;
#770 = LINE ( 'NONE', #491, #98 ) ;
#771 = CARTESIAN_POINT ( 'NONE',  ( -81.28797604711942881, 5.999999999999999112, -45.13580787963697105 ) ) ;
#772 = EDGE_CURVE ( 'NONE', #277, #132, #228, .T. ) ;
#773 = CARTESIAN_POINT ( 'NONE',  ( -45.13254080751686104, 0.000000000000000000, -52.21674210529830162 ) ) ;
#774 = VECTOR ( 'NONE', #505, 1000.000000000000000 ) ;
#775 = EDGE_CURVE ( 'NONE', #73, #899, #104, .T. ) ;
#776 = CARTESIAN_POINT ( 'NONE',  ( 0.000000000000000000, 0.000000000000000000, 0.000000000000000000 ) ) ;
#777 = CIRCLE ( 'NONE', #368, 1.000000000000000888 ) ;
#778 = CARTESIAN_POINT ( 'NONE',  ( -79.02736490986515605, 7.000000000000001776, -45.20501925715824854 ) ) ;
#779 = EDGE_CURVE ( 'NONE', #1107, #913, #262, .T. ) ;
#780 = CARTESIAN_POINT ( 'NONE',  ( -77.13637233178062047, 1.000000000000000000, -37.21674210529830162 ) ) ;
#781 = VECTOR ( 'NONE', #812, 1000.000000000000000 ) ;
#782 = PERSON_AND_ORGANIZATION ( #526, #756 ) ;
#783 = CARTESIAN_POINT ( 'NONE',  ( -80.65205971398826534, 5.999999999999927169, -44.95777946045755868 ) ) ;
#784 = DIRECTION ( 'NONE',  ( -1.000000000000000000, 0.000000000000000000, 0.000000000000000000 ) ) ;
#785 = ORIENTED_EDGE ( 'NONE', *, *, #1033, .T. ) ;
#786 = EDGE_CURVE ( 'NONE', #822, #525, #844, .T. ) ;
#787 = COORDINATED_UNIVERSAL_TIME_OFFSET ( 0, 0, .AHEAD. ) ;
#788 = CARTESIAN_POINT ( 'NONE',  ( -79.02736490964389304, 7.000000000000000000, -45.20501925742618710 ) ) ;
#789 = CARTESIAN_POINT ( 'NONE',  ( -78.13637233178062047, 1.000000000000000000, -40.52634505667347042 ) ) ;
#790 = DIRECTION ( 'NONE',  ( -1.000000000000000000, 0.000000000000000000, 0.000000000000000000 ) ) ;
#791 = AXIS2_PLACEMENT_3D ( 'NONE', #861, #169, #74 ) ;
#792 = ORIENTED_EDGE ( 'NONE', *, *, #54, .F. ) ;
#793 = APPLICATION_PROTOCOL_DEFINITION ( 'international standard', 'config_control_design', 1994, #311 ) ;
#794 = CARTESIAN_POINT ( 'NONE',  ( -81.02336576616598052, 6.000000000000137668, -45.07749543861863373 ) ) ;
#795 = CARTESIAN_POINT ( 'NONE',  ( -77.13637233178062047, 0.000000000000000000, -40.53022924388768189 ) ) ;
#796 = CIRCLE ( 'NONE', #299, 1.000000000000000888 ) ;
#797 = EDGE_LOOP ( 'NONE', ( #662, #785, #574 ) ) ;
#798 = VECTOR ( 'NONE', #1130, 1000.000000000000000 ) ;
#799 = AXIS2_PLACEMENT_3D ( 'NONE', #1057, #599, #612 ) ;
#800 = COORDINATED_UNIVERSAL_TIME_OFFSET ( 0, 0, .AHEAD. ) ;
#801 = CARTESIAN_POINT ( 'NONE',  ( -80.65205971409555730, 6.999999999999856115, -44.95777946012476178 ) ) ;
#802 = DIRECTION ( 'NONE',  ( -0.000000000000000000, -0.000000000000000000, -1.000000000000000000 ) ) ;
#803 = ORIENTED_EDGE ( 'NONE', *, *, #134, .F. ) ;
#804 = FACE_OUTER_BOUND ( 'NONE', #338, .T. ) ;
#805 = CARTESIAN_POINT ( 'NONE',  ( -78.13844575267592063, 1.000000000000000000, -41.06015178124994947 ) ) ;
#806 = ADVANCED_FACE ( 'NONE', ( #667 ), #955, .T. ) ;
#807 = DIRECTION ( 'NONE',  ( 1.000000000000000000, 0.000000000000000000, 0.000000000000000000 ) ) ;
#808 = EDGE_LOOP ( 'NONE', ( #626, #209, #760, #637 ) ) ;
#809 = AXIS2_PLACEMENT_3D ( 'NONE', #879, #96, #683 ) ;
#810 = CARTESIAN_POINT ( 'NONE',  ( -77.13637233178062047, 7.000000000000000000, -38.21674210529830162 ) ) ;
#811 = LINE ( 'NONE', #369, #273 ) ;
#812 = DIRECTION ( 'NONE',  ( -0.000000000000000000, -0.000000000000000000, -1.000000000000000000 ) ) ;
#813 = CARTESIAN_POINT ( 'NONE',  ( -77.13637233178062047, 0.000000000000000000, -38.21674210529830162 ) ) ;
#814 = ADVANCED_FACE ( 'NONE', ( #1056 ), #598, .T. ) ;
#815 = ORIENTED_EDGE ( 'NONE', *, *, #974, .F. ) ;
#816 = AXIS2_PLACEMENT_3D ( 'NONE', #34, #552, #919 ) ;
#817 = VECTOR ( 'NONE', #494, 1000.000000000000000 ) ;
#818 = AXIS2_PLACEMENT_3D ( 'NONE', #474, #408, #151 ) ;
#819 = CARTESIAN_POINT ( 'NONE',  ( -47.13254080751686104, 0.000000000000000000, -54.21674210529830162 ) ) ;
#820 = DIRECTION ( 'NONE',  ( -1.000000000000000000, 0.000000000000000000, 0.000000000000000000 ) ) ;
#821 = CARTESIAN_POINT ( 'NONE',  ( -75.42051944751685255, 7.000000000000000000, -48.21674210529830162 ) ) ;
#822 = VERTEX_POINT ( 'NONE', #979 ) ;
#823 = CARTESIAN_POINT ( 'NONE',  ( -79.49876917851969438, 7.000000000000000000, -44.28090285740007914 ) ) ;
#824 = EDGE_CURVE ( 'NONE', #294, #57, #538, .T. ) ;
#825 = CARTESIAN_POINT ( 'NONE',  ( -78.19668032174060102, 6.999999999999440448, -41.69513186951639483 ) ) ;
#826 = CARTESIAN_POINT ( 'NONE',  ( -78.68902247783121595, -4.243110905689487795E-13, -43.23543728602442826 ) ) ;
#827 = CARTESIAN_POINT ( 'NONE',  ( -47.13254080751686104, 7.000000000000000000, -54.21674210529830162 ) ) ;
#828 = ORIENTED_EDGE ( 'NONE', *, *, #291, .F. ) ;
#829 = CC_DESIGN_APPROVAL ( #483, ( #402 ) ) ;
#830 = DIRECTION ( 'NONE',  ( 0.000000000000000000, 0.000000000000000000, 1.000000000000000000 ) ) ;
#831 = AXIS2_PLACEMENT_3D ( 'NONE', #1031, #670, #1120 ) ;
#832 = DIRECTION ( 'NONE',  ( -0.000000000000000000, -1.000000000000000000, -0.000000000000000000 ) ) ;
#833 = SPHERICAL_SURFACE ( 'NONE', #665, 1.000000000000000000 ) ;
#834 = CYLINDRICAL_SURFACE ( 'NONE', #387, 1.000000000000000888 ) ;
#835 = ORIENTED_EDGE ( 'NONE', *, *, #990, .F. ) ;
#836 = ORIENTED_EDGE ( 'NONE', *, *, #951, .T. ) ;
#837 = AXIS2_PLACEMENT_3D ( 'NONE', #480, #912, #462 ) ;
#838 = LINE ( 'NONE', #386, #916 ) ;
#839 = CARTESIAN_POINT ( 'NONE',  ( -81.09466025542707257, -0.000000000000000000, -46.11880519264708767 ) ) ;
#840 = LINE ( 'NONE', #746, #610 ) ;
#841 = VERTEX_POINT ( 'NONE', #259 ) ;
#842 = FACE_OUTER_BOUND ( 'NONE', #705, .T. ) ;
#843 = FACE_OUTER_BOUND ( 'NONE', #808, .T. ) ;
#844 = LINE ( 'NONE', #758, #300 ) ;
#845 = DIRECTION ( 'NONE',  ( 0.9999924565163904600, 0.000000000000000000, -0.003884187214212040350 ) ) ;
#846 = ORIENTED_EDGE ( 'NONE', *, *, #914, .F. ) ;
#847 = CARTESIAN_POINT ( 'NONE',  ( -47.13254080751686104, 1.000000000000000000, -55.21674210529830162 ) ) ;
#848 = LOCAL_TIME ( 18, 35, 28.00000000000000000, #909 ) ;
#849 = DIRECTION ( 'NONE',  ( 0.000000000000000000, 1.000000000000000000, -0.000000000000000000 ) ) ;
#850 = VECTOR ( 'NONE', #379, 1000.000000000000000 ) ;
#851 = CARTESIAN_POINT ( 'NONE',  ( -78.13637233178062047, 6.000000000000000000, -40.52634505667347042 ) ) ;
#852 = ORIENTED_EDGE ( 'NONE', *, *, #712, .T. ) ;
#853 = ADVANCED_FACE ( 'NONE', ( #623 ), #939, .T. ) ;
#854 = ORIENTED_EDGE ( 'NONE', *, *, #364, .F. ) ;
#855 = DIRECTION ( 'NONE',  ( 0.9910620214307475084, 0.000000000000000000, 0.1334019103221562585 ) ) ;
#856 = CARTESIAN_POINT ( 'NONE',  ( -80.28290212252616698, 6.000000000000002665, -44.80359558327826619 ) ) ;
#857 = CIRCLE ( 'NONE', #127, 5.999999999999998224 ) ;
#858 = VERTEX_POINT ( 'NONE', #297 ) ;
#859 = ORIENTED_EDGE ( 'NONE', *, *, #174, .T. ) ;
#860 = EDGE_CURVE ( 'NONE', #155, #89, #125, .T. ) ;
#861 = CARTESIAN_POINT ( 'NONE',  ( -45.13254080751686104, 1.000000000000000000, -52.21674210529830162 ) ) ;
#862 = CARTESIAN_POINT ( 'NONE',  ( -79.81510088688632720, 5.999999999999999112, -44.54148633819986003 ) ) ;
#863 = PRODUCT_DEFINITION_SHAPE ( 'NONE', 'NONE',  #1109 ) ;
#864 = EDGE_CURVE ( 'NONE', #396, #266, #459, .T. ) ;
#865 = APPROVAL_STATUS ( 'not_yet_approved' ) ;
#866 = CARTESIAN_POINT ( 'NONE',  ( -78.33928068023675451, 6.999999999999996447, -44.51527791791939848 ) ) ;
#867 = DIRECTION ( 'NONE',  ( 0.000000000000000000, 0.000000000000000000, -1.000000000000000000 ) ) ;
#868 = EDGE_LOOP ( 'NONE', ( #489, #410, #1041, #22 ) ) ;
#869 = PERSON_AND_ORGANIZATION_ROLE ( 'creator' ) ;
#870 = EDGE_CURVE ( 'NONE', #312, #520, #589, .T. ) ;
#871 = AXIS2_PLACEMENT_3D ( 'NONE', #1077, #276, #524 ) ;
#872 = DIRECTION ( 'NONE',  ( 0.000000000000000000, -0.000000000000000000, -1.000000000000000000 ) ) ;
#873 = CARTESIAN_POINT ( 'NONE',  ( -81.42051944751688097, 6.000000000000000000, -46.16266747147606964 ) ) ;
#874 = VERTEX_POINT ( 'NONE', #918 ) ;
#875 = PERSON_AND_ORGANIZATION_ROLE ( 'classification_officer' ) ;
#876 = CARTESIAN_POINT ( 'NONE',  ( -79.71649158235499044, 6.999999999999998224, -45.63861019569191768 ) ) ;
#877 = LINE ( 'NONE', #332, #504 ) ;
#878 = ORIENTED_EDGE ( 'NONE', *, *, #1060, .T. ) ;
#879 = CARTESIAN_POINT ( 'NONE',  ( -45.13254080751686104, 6.000000000000000000, -52.21674210529830162 ) ) ;
#880 = CARTESIAN_POINT ( 'NONE',  ( -80.31480302679825911, 6.999999999999996447, -45.89973366618610839 ) ) ;
#881 = CARTESIAN_POINT ( 'NONE',  ( -80.51612390261638552, 1.000000000000002665, -44.91353167421578263 ) ) ;
#882 = LOCAL_TIME ( 18, 35, 28.00000000000000000, #740 ) ;
#883 = CARTESIAN_POINT ( 'NONE',  ( -75.42051944751685255, 1.000000000000000000, -54.21674210529830162 ) ) ;
#884 = AXIS2_PLACEMENT_3D ( 'NONE', #664, #392, #952 ) ;
#885 = ORIENTED_EDGE ( 'NONE', *, *, #772, .F. ) ;
#886 = EDGE_CURVE ( 'NONE', #525, #766, #646, .T. ) ;
#887 = DATE_AND_TIME ( #978, #97 ) ;
#888 = EDGE_CURVE ( 'NONE', #277, #155, #442, .T. ) ;
#889 = CARTESIAN_POINT ( 'NONE',  ( -79.28294677667514634, 5.999999999999785949, -44.07500738157892073 ) ) ;
#890 = CARTESIAN_POINT ( 'NONE',  ( -44.13254080751685393, 7.000000000000000000, -38.21674210529830162 ) ) ;
#891 = AXIS2_PLACEMENT_3D ( 'NONE', #281, #101, #451 ) ;
#892 = CARTESIAN_POINT ( 'NONE',  ( -45.13254080751686104, 1.000000000000000000, -38.21674210529830162 ) ) ;
#893 = AXIS2_PLACEMENT_3D ( 'NONE', #956, #944, #500 ) ;
#894 = VERTEX_POINT ( 'NONE', #819 ) ;
#895 = AXIS2_PLACEMENT_3D ( 'NONE', #898, #357, #117 ) ;
#896 = EDGE_CURVE ( 'NONE', #899, #365, #838, .T. ) ;
#897 = CARTESIAN_POINT ( 'NONE',  ( -80.29556057694431104, 6.000000000000142997, -44.80949467787694118 ) ) ;
#898 = CARTESIAN_POINT ( 'NONE',  ( -82.42051944751685255, 7.000000000000000000, -45.21674210529830162 ) ) ;
#899 = VERTEX_POINT ( 'NONE', #122 ) ;
#900 = ADVANCED_FACE ( 'NONE', ( #290 ), #362, .T. ) ;
#901 = CARTESIAN_POINT ( 'NONE',  ( -80.50623439569748996, 1.000000000000848877, -44.93849401785300302 ) ) ;
#902 = ADVANCED_FACE ( 'NONE', ( #635 ), #39, .F. ) ;
#903 = CARTESIAN_POINT ( 'NONE',  ( -77.13637233178062047, 7.000000000000000000, -40.53022924388768189 ) ) ;
#904 = DIRECTION ( 'NONE',  ( 1.000000000000000000, 0.000000000000000000, 0.000000000000000000 ) ) ;
#905 = CARTESIAN_POINT ( 'NONE',  ( -77.13637233178062047, 7.000000000000000000, -37.21674210529830162 ) ) ;
#906 = ORIENTED_EDGE ( 'NONE', *, *, #348, .T. ) ;
#907 = ORIENTED_EDGE ( 'NONE', *, *, #204, .F. ) ;
#908 = CARTESIAN_POINT ( 'NONE',  ( -79.54715683021626660, 1.000000000000141220, -44.32601103816567445 ) ) ;
#909 = COORDINATED_UNIVERSAL_TIME_OFFSET ( 0, 0, .AHEAD. ) ;
#910 = DIRECTION ( 'NONE',  ( 0.000000000000000000, -1.000000000000000000, 0.000000000000000000 ) ) ;
#911 = FACE_OUTER_BOUND ( 'NONE', #1092, .T. ) ;
#912 = DIRECTION ( 'NONE',  ( 0.000000000000000000, -0.000000000000000000, 1.000000000000000000 ) ) ;
#913 = VERTEX_POINT ( 'NONE', #903 ) ;
#914 = EDGE_CURVE ( 'NONE', #874, #229, #2, .T. ) ;
#915 = CIRCLE ( 'NONE', #988, 1.000000000000000888 ) ;
#916 = VECTOR ( 'NONE', #29, 1000.000000000000000 ) ;
#917 = CLOSED_SHELL ( 'NONE', ( #405, #814, #528, #478, #278, #201, #181, #902, #413, #682, #168, #577, #403, #743, #217, #1018, #385, #729, #900, #603, #590, #329, #46, #960, #569, #395, #1095, #1025, #853, #806, #1129, #448, #553, #561, #1119 ) ) ;
#918 = CARTESIAN_POINT ( 'NONE',  ( -77.13637233178062047, 6.000000000000000000, -37.21674210529830162 ) ) ;
#919 = DIRECTION ( 'NONE',  ( 0.000000000000000000, 0.000000000000000000, -1.000000000000000000 ) ) ;
#920 = FACE_OUTER_BOUND ( 'NONE', #938, .T. ) ;
#921 = ORIENTED_EDGE ( 'NONE', *, *, #1060, .F. ) ;
#922 = CARTESIAN_POINT ( 'NONE',  ( -81.00847368647625046, 1.000000000000571765, -45.09818546242885162 ) ) ;
#923 = DATE_AND_TIME ( #38, #848 ) ;
#924 = CARTESIAN_POINT ( 'NONE',  ( -77.13637987526423956, 1.000000000000000000, -40.53022924388768189 ) ) ;
#925 = EDGE_LOOP ( 'NONE', ( #579, #1030, #27, #503 ) ) ;
#926 = AXIS2_PLACEMENT_3D ( 'NONE', #1019, #485, #398 ) ;
#927 = DIRECTION ( 'NONE',  ( -0.000000000000000000, 0.000000000000000000, 1.000000000000000000 ) ) ;
#928 = CARTESIAN_POINT ( 'NONE',  ( -78.54080199138334706, 1.301042606982605715E-15, -44.75967817244862346 ) ) ;
#929 = APPLICATION_CONTEXT ( 'configuration controlled 3d designs of mechanical parts and assemblies' ) ;
#930 = ORIENTED_EDGE ( 'NONE', *, *, #824, .F. ) ;
#931 = VERTEX_POINT ( 'NONE', #556 ) ;
#932 = VECTOR ( 'NONE', #30, 1000.000000000000000 ) ;
#933 = AXIS2_PLACEMENT_3D ( 'NONE', #576, #330, #407 ) ;
#934 = CARTESIAN_POINT ( 'NONE',  ( -44.13254080751685393, 6.000000000000000000, -55.21674210529830162 ) ) ;
#935 = EDGE_CURVE ( 'NONE', #73, #396, #811, .T. ) ;
#936 = CARTESIAN_POINT ( 'NONE',  ( -78.13867057408592132, 0.9999999999991491251, -41.11803254283145037 ) ) ;
#937 = CARTESIAN_POINT ( 'NONE',  ( -77.13765286333170934, 7.000000000000000000, -40.85796279391338715 ) ) ;
#938 = EDGE_LOOP ( 'NONE', ( #342, #1050, #198, #567 ) ) ;
#939 =( BOUNDED_SURFACE ( )  B_SPLINE_SURFACE ( 3, 2, ( 
 ( #274, #429, #86 ),
 ( #180, #176, #531 ),
 ( #794, #91, #10 ),
 ( #783, #801, #880 ),
 ( #3, #1062, #189 ),
 ( #897, #184, #986 ),
 ( #19, #517, #876 ),
 ( #433, #449, #695 ),
 ( #708, #263, #788 ),
 ( #195, #605, #970 ),
 ( #889, #267, #522 ),
 ( #1142, #340, #356 ),
 ( #344, #611, #616 ),
 ( #111, #973, #351 ),
 ( #99, #702, #1068 ),
 ( #106, #24, #444 ),
 ( #685, #562, #714 ),
 ( #734, #825, #640 ),
 ( #219, #1001, #631 ),
 ( #212, #1013, #129 ) ),
 .UNSPECIFIED., .F., .F., .F. ) 
 B_SPLINE_SURFACE_WITH_KNOTS ( ( 4, 2, 2, 2, 2, 2, 2, 2, 2, 4 ),
 ( 3, 3 ),
 ( -1.929879867024197893E-16, 0.0009718247283921735468, 0.001457737092588356868, 0.001943649456784540082, 0.002915474185176906725, 0.003401386549373089721, 0.003887298913569273151, 0.004859123641961640011, 0.005830948370354006004, 0.007774597827138738856 ),
 ( 0.000000000000000000, 1.000000000000000000 ),
 .UNSPECIFIED. ) 
 GEOMETRIC_REPRESENTATION_ITEM ( )  RATIONAL_B_SPLINE_SURFACE ( (
 ( 1.000000000000000000, 0.7071067811865502373, 1.000000000000000000),
 ( 1.000000000000000000, 0.7071067811865502373, 1.000000000000000000),
 ( 1.000000000000000000, 0.7071067811865482389, 1.000000000000000000),
 ( 1.000000000000000000, 0.7071067811865482389, 1.000000000000000000),
 ( 1.000000000000000000, 0.7071067811865472397, 1.000000000000000000),
 ( 1.000000000000000000, 0.7071067811865472397, 1.000000000000000000),
 ( 1.000000000000000000, 0.7071067811865477948, 1.000000000000000000),
 ( 1.000000000000000000, 0.7071067811865477948, 1.000000000000000000),
 ( 1.000000000000000000, 0.7071067811865472397, 1.000000000000000000),
 ( 1.000000000000000000, 0.7071067811865472397, 1.000000000000000000),
 ( 1.000000000000000000, 0.7071067811865477948, 1.000000000000000000),
 ( 1.000000000000000000, 0.7071067811865477948, 1.000000000000000000),
 ( 1.000000000000000000, 0.7071067811865472397, 1.000000000000000000),
 ( 1.000000000000000000, 0.7071067811865472397, 1.000000000000000000),
 ( 1.000000000000000000, 0.7071067811865472397, 1.000000000000000000),
 ( 1.000000000000000000, 0.7071067811865472397, 1.000000000000000000),
 ( 1.000000000000000000, 0.7071067811865472397, 1.000000000000000000),
 ( 1.000000000000000000, 0.7071067811865472397, 1.000000000000000000),
 ( 1.000000000000000000, 0.7071067811865472397, 1.000000000000000000),
 ( 1.000000000000000000, 0.7071067811865472397, 1.000000000000000000) ) ) 
 REPRESENTATION_ITEM ( '' )  SURFACE ( )  );
#940 = ORIENTED_EDGE ( 'NONE', *, *, #888, .F. ) ;
#941 = LINE ( 'NONE', #148, #774 ) ;
#942 = CARTESIAN_POINT ( 'NONE',  ( -77.13637233178062047, 6.000000000000000000, -38.21674210529830162 ) ) ;
#943 = EDGE_CURVE ( 'NONE', #1144, #615, #436, .T. ) ;
#944 = DIRECTION ( 'NONE',  ( 0.000000000000000000, 0.000000000000000000, -1.000000000000000000 ) ) ;
#945 = EDGE_LOOP ( 'NONE', ( #318, #49, #1132 ) ) ;
#946 = EDGE_LOOP ( 'NONE', ( #468, #372, #846, #717 ) ) ;
#947 = CARTESIAN_POINT ( 'NONE',  ( -78.13637233178062047, 6.000000000000000000, -37.21674210529830162 ) ) ;
#948 = CIRCLE ( 'NONE', #188, 1.000000000000000888 ) ;
#949 = DIRECTION ( 'NONE',  ( 0.000000000000000000, 0.000000000000000000, -1.000000000000000000 ) ) ;
#950 = EDGE_LOOP ( 'NONE', ( #114, #334, #1024, #109 ) ) ;
#951 = EDGE_CURVE ( 'NONE', #766, #999, #1086, .T. ) ;
#952 = DIRECTION ( 'NONE',  ( 1.000000000000000000, 0.000000000000000000, 0.000000000000000000 ) ) ;
#953 = CIRCLE ( 'NONE', #440, 1.000000000000000888 ) ;
#954 = CC_DESIGN_DATE_AND_TIME_ASSIGNMENT ( #923, #284, ( #402 ) ) ;
#955 = TOROIDAL_SURFACE ( 'NONE', #12, 6.000000000000000000, 1.000000000000000000 ) ;
#956 = CARTESIAN_POINT ( 'NONE',  ( -81.42051944751685255, 1.000000000000000000, -45.21674210529830162 ) ) ;
#957 = CIRCLE ( 'NONE', #249, 0.9999999999999994449 ) ;
#958 = PLANE ( 'NONE',  #108 ) ;
#959 = ORIENTED_EDGE ( 'NONE', *, *, #331, .T. ) ;
#960 = ADVANCED_FACE ( 'NONE', ( #285 ), #45, .T. ) ;
#961 = DIRECTION ( 'NONE',  ( 0.000000000000000000, 0.000000000000000000, 1.000000000000000000 ) ) ;
#962 = CARTESIAN_POINT ( 'NONE',  ( -79.04661795056654228, 5.999999999999996447, -43.80838343528909462 ) ) ;
#963 = CARTESIAN_POINT ( 'NONE',  ( -78.13637233178062047, 7.000000000000000000, -37.21674210529830162 ) ) ;
#964 = ORIENTED_EDGE ( 'NONE', *, *, #1049, .T. ) ;
#965 = DATE_AND_TIME ( #1074, #240 ) ;
#966 = CARTESIAN_POINT ( 'NONE',  ( -79.49876917851969438, 0.000000000000000000, -44.28090285740007914 ) ) ;
#967 = DIRECTION ( 'NONE',  ( 0.000000000000000000, 0.000000000000000000, -1.000000000000000000 ) ) ;
#968 = EDGE_LOOP ( 'NONE', ( #930, #859, #540, #452 ) ) ;
#969 = TOROIDAL_SURFACE ( 'NONE', #214, 2.000000000000000000, 1.000000000000000000 ) ;
#970 = CARTESIAN_POINT ( 'NONE',  ( -78.66884520225302424, 7.000000000000000000, -44.87781266075428022 ) ) ;
#971 = CARTESIAN_POINT ( 'NONE',  ( -79.76688443459228495, 6.000000000000000000, -44.93106133250003609 ) ) ;
#972 = AXIS2_PLACEMENT_3D ( 'NONE', #966, #256, #872 ) ;
#973 = CARTESIAN_POINT ( 'NONE',  ( -78.81753832067701637, 7.000000000000708766, -43.46892914971380151 ) ) ;
#974 = EDGE_CURVE ( 'NONE', #132, #753, #948, .T. ) ;
#975 = FACE_OUTER_BOUND ( 'NONE', #172, .T. ) ;
#976 = CARTESIAN_POINT ( 'NONE',  ( -81.42051944751685255, 6.000000000000000000, -46.16266747147606964 ) ) ;
#977 = ORIENTED_EDGE ( 'NONE', *, *, #518, .F. ) ;
#978 = CALENDAR_DATE ( 2026, 7, 9 ) ;
#979 = CARTESIAN_POINT ( 'NONE',  ( -47.13254080751686104, 6.000000000000000000, -55.21674210529830162 ) ) ;
#980 = LINE ( 'NONE', #890, #537 ) ;
#981 = LOCAL_TIME ( 18, 35, 28.00000000000000000, #1135 ) ;
#982 = AXIS2_PLACEMENT_3D ( 'NONE', #70, #1044, #755 ) ;
#983 = ORIENTED_EDGE ( 'NONE', *, *, #607, .T. ) ;
#984 = EDGE_CURVE ( 'NONE', #102, #73, #659, .T. ) ;
#985 = PERSON_AND_ORGANIZATION ( #526, #756 ) ;
#986 = CARTESIAN_POINT ( 'NONE',  ( -79.86427861104709791, 7.000000000000002665, -45.71236545224297032 ) ) ;
#987 = CARTESIAN_POINT ( 'NONE',  ( -77.53724880571783729, -3.903127820947815962E-15, -43.09216544271232152 ) ) ;
#988 = AXIS2_PLACEMENT_3D ( 'NONE', #460, #802, #820 ) ;
#989 = ORIENTED_EDGE ( 'NONE', *, *, #694, .T. ) ;
#990 = EDGE_CURVE ( 'NONE', #266, #725, #639, .T. ) ;
#991 = DIRECTION ( 'NONE',  ( 0.000000000000000000, 0.000000000000000000, -1.000000000000000000 ) ) ;
#992 = SPHERICAL_SURFACE ( 'NONE', #630, 1.000000000000000000 ) ;
#993 = DIRECTION ( 'NONE',  ( 0.000000000000000000, 0.000000000000000000, -1.000000000000000000 ) ) ;
#994 = ORIENTED_EDGE ( 'NONE', *, *, #255, .T. ) ;
#995 = DIRECTION ( 'NONE',  ( -0.000000000000000000, 0.000000000000000000, 1.000000000000000000 ) ) ;
#996 = DIRECTION ( 'NONE',  ( 0.000000000000000000, 0.000000000000000000, -1.000000000000000000 ) ) ;
#997 = EDGE_CURVE ( 'NONE', #254, #615, #309, .T. ) ;
#998 = CARTESIAN_POINT ( 'NONE',  ( -78.75091922051322513, 0.9999999999999988898, -43.35452253705881276 ) ) ;
#999 = VERTEX_POINT ( 'NONE', #226 ) ;
#1000 = ORIENTED_EDGE ( 'NONE', *, *, #287, .F. ) ;
#1001 = CARTESIAN_POINT ( 'NONE',  ( -78.13868230997472608, 7.000000000000000000, -41.12105486240685792 ) ) ;
#1002 = CARTESIAN_POINT ( 'NONE',  ( -77.13637233178062047, 0.000000000000000000, -40.53022924388768189 ) ) ;
#1003 = DIRECTION ( 'NONE',  ( 0.000000000000000000, -1.000000000000000000, 0.000000000000000000 ) ) ;
#1004 = ORIENTED_EDGE ( 'NONE', *, *, #443, .T. ) ;
#1005 = B_SPLINE_CURVE_WITH_KNOTS ( 'NONE', 3,
 ( #430, #1131, #260, #881, #100, #768, #196, #709, #723, #998, #439, #292, #547, #632, #805, #728 ),
 .UNSPECIFIED., .F., .F.,
 ( 4, 2, 2, 2, 2, 2, 2, 4 ),
 ( 0.000000000000000000, 0.0008041790616037793960, 0.001608358123207558792, 0.002412537184811338296, 0.003216716246415117584, 0.004020895308018896872, 0.004825074369622676593, 0.006433432492830223892 ),
 .UNSPECIFIED. ) ;
#1006 = DIRECTION ( 'NONE',  ( 0.000000000000000000, 0.000000000000000000, 1.000000000000000000 ) ) ;
#1007 = AXIS2_PLACEMENT_3D ( 'NONE', #171, #1143, #867 ) ;
#1008 = DIRECTION ( 'NONE',  ( 0.000000000000000000, -1.000000000000000000, 0.000000000000000000 ) ) ;
#1009 = CARTESIAN_POINT ( 'NONE',  ( -77.95140978457448000, 0.000000000000000000, -43.97409600762876636 ) ) ;
#1010 = DIRECTION ( 'NONE',  ( 0.000000000000000000, 0.000000000000000000, -1.000000000000000000 ) ) ;
#1011 = EDGE_LOOP ( 'NONE', ( #559, #1079, #668, #221 ) ) ;
#1012 = EDGE_CURVE ( 'NONE', #254, #894, #44, .T. ) ;
#1013 = CARTESIAN_POINT ( 'NONE',  ( -78.13637233178062047, 7.000000000000000000, -40.52634505667347042 ) ) ;
#1014 = DIRECTION ( 'NONE',  ( 1.000000000000000000, 0.000000000000000000, 0.000000000000000000 ) ) ;
#1015 = CARTESIAN_POINT ( 'NONE',  ( -78.13637233178062047, 6.000000000000000000, -38.21674210529830162 ) ) ;
#1016 = ORIENTED_EDGE ( 'NONE', *, *, #291, .T. ) ;
#1017 = VECTOR ( 'NONE', #437, 1000.000000000000000 ) ;
#1018 = ADVANCED_FACE ( 'NONE', ( #761 ), #243, .T. ) ;
#1019 = CARTESIAN_POINT ( 'NONE',  ( -47.13254080751686104, 1.000000000000000000, -52.21674210529830162 ) ) ;
#1020 = CARTESIAN_POINT ( 'NONE',  ( -77.13637987526423956, 0.000000000000000000, -40.53022924388768189 ) ) ;
#1021 = CARTESIAN_POINT ( 'NONE',  ( -77.22563731220297711, 7.000000000000004441, -41.83412836554433767 ) ) ;
#1022 = CC_DESIGN_PERSON_AND_ORGANIZATION_ASSIGNMENT ( #512, #84, ( #78 ) ) ;
#1023 = EDGE_LOOP ( 'NONE', ( #1000, #145, #907, #573 ) ) ;
#1024 = ORIENTED_EDGE ( 'NONE', *, *, #1106, .T. ) ;
#1025 = ADVANCED_FACE ( 'NONE', ( #158 ), #320, .T. ) ;
#1026 = LINE ( 'NONE', #934, #157 ) ;
#1027 = CARTESIAN_POINT ( 'NONE',  ( -77.20058526632418250, -1.301042606982605321E-15, -41.82986184988018863 ) ) ;
#1028 = EDGE_CURVE ( 'NONE', #999, #312, #1026, .T. ) ;
#1029 = DIRECTION ( 'NONE',  ( 0.000000000000000000, 0.000000000000000000, 1.000000000000000000 ) ) ;
#1030 = ORIENTED_EDGE ( 'NONE', *, *, #864, .T. ) ;
#1031 = CARTESIAN_POINT ( 'NONE',  ( -82.42051944751685255, 1.000000000000000000, -54.21674210529830162 ) ) ;
#1032 = CARTESIAN_POINT ( 'NONE',  ( -78.66884520214317433, 6.999999999999999112, -44.87781266088899201 ) ) ;
#1033 = EDGE_CURVE ( 'NONE', #312, #858, #496, .T. ) ;
#1034 = DIRECTION ( 'NONE',  ( -1.000000000000000000, 0.000000000000000000, 0.000000000000000000 ) ) ;
#1035 = ORIENTED_EDGE ( 'NONE', *, *, #484, .F. ) ;
#1036 = PLANE ( 'NONE',  #105 ) ;
#1037 = APPROVAL_PERSON_ORGANIZATION ( #7, #533, #1067 ) ;
#1038 = DIRECTION ( 'NONE',  ( -0.000000000000000000, -0.000000000000000000, -1.000000000000000000 ) ) ;
#1039 = AXIS2_PLACEMENT_3D ( 'NONE', #328, #250, #1110 ) ;
#1040 = CARTESIAN_POINT ( 'NONE',  ( -81.42051944751685255, 0.000000000000000000, -48.21674210529830162 ) ) ;
#1041 = ORIENTED_EDGE ( 'NONE', *, *, #307, .F. ) ;
#1042 = PRODUCT ( 'SideCushionMirrored', 'SideCushionMirrored', '', ( #530 ) ) ;
#1043 = AXIS2_PLACEMENT_3D ( 'NONE', #17, #1006, #469 ) ;
#1044 = DIRECTION ( 'NONE',  ( -0.003884187214212040350, 0.000000000000000000, -0.9999924565163904600 ) ) ;
#1045 = VECTOR ( 'NONE', #1075, 1000.000000000000000 ) ;
#1046 = CARTESIAN_POINT ( 'NONE',  ( -80.31480302655167236, 7.000000000000000888, -45.89973366697819301 ) ) ;
#1047 = VECTOR ( 'NONE', #617, 1000.000000000000000 ) ;
#1048 = DIRECTION ( 'NONE',  ( -0.000000000000000000, -0.000000000000000000, -1.000000000000000000 ) ) ;
#1049 = EDGE_CURVE ( 'NONE', #389, #155, #941, .T. ) ;
#1050 = ORIENTED_EDGE ( 'NONE', *, *, #1051, .T. ) ;
#1051 = EDGE_CURVE ( 'NONE', #254, #766, #382, .T. ) ;
#1052 = CARTESIAN_POINT ( 'NONE',  ( -82.42051944751685255, 7.000000000000000000, -46.16266747147606964 ) ) ;
#1053 = CARTESIAN_POINT ( 'NONE',  ( -79.76688443459228495, 1.000000000000000000, -44.93106133250003609 ) ) ;
#1054 = ORIENTED_EDGE ( 'NONE', *, *, #331, .F. ) ;
#1055 = DATE_AND_TIME ( #604, #981 ) ;
#1056 = FACE_OUTER_BOUND ( 'NONE', #601, .T. ) ;
#1057 = CARTESIAN_POINT ( 'NONE',  ( -47.13254080751686104, 7.000000000000000000, -52.21674210529830162 ) ) ;
#1058 = DIRECTION ( 'NONE',  ( 1.000000000000000000, 0.000000000000000000, 0.000000000000000000 ) ) ;
#1059 = EDGE_LOOP ( 'NONE', ( #677, #854, #42 ) ) ;
#1060 = EDGE_CURVE ( 'NONE', #698, #822, #1093, .T. ) ;
#1061 = CIRCLE ( 'NONE', #816, 1.000000000000000888 ) ;
#1062 = CARTESIAN_POINT ( 'NONE',  ( -80.53126702839782070, 6.999999999999792166, -44.91230377625299752 ) ) ;
#1063 = AXIS2_PLACEMENT_3D ( 'NONE', #741, #116, #471 ) ;
#1064 = DIRECTION ( 'NONE',  ( 0.000000000000000000, 0.000000000000000000, -1.000000000000000000 ) ) ;
#1065 = CIRCLE ( 'NONE', #350, 1.000000000000000888 ) ;
#1066 = ORIENTED_EDGE ( 'NONE', *, *, #712, .F. ) ;
#1067 = APPROVAL_ROLE ( '' ) ;
#1068 = CARTESIAN_POINT ( 'NONE',  ( -77.79993386398540167, 7.000000000000000000, -43.69767823667218209 ) ) ;
#1069 = DIRECTION ( 'NONE',  ( 0.000000000000000000, -1.000000000000000000, 0.000000000000000000 ) ) ;
#1070 = EDGE_CURVE ( 'NONE', #266, #102, #770, .T. ) ;
#1071 = DIRECTION ( 'NONE',  ( 0.000000000000000000, 0.000000000000000000, -1.000000000000000000 ) ) ;
#1072 = ORIENTED_EDGE ( 'NONE', *, *, #974, .T. ) ;
#1073 = CARTESIAN_POINT ( 'NONE',  ( -81.42051944751652570, -1.734723475976807094E-15, -46.16266747147600569 ) ) ;
#1074 = CALENDAR_DATE ( 2026, 7, 9 ) ;
#1075 = DIRECTION ( 'NONE',  ( -0.000000000000000000, 1.000000000000000000, -0.000000000000000000 ) ) ;
#1076 = CARTESIAN_POINT ( 'NONE',  ( -77.20058527088120570, 1.301042606982605518E-15, -41.82986184922405215 ) ) ;
#1077 = CARTESIAN_POINT ( 'NONE',  ( -45.13254080751686104, 1.000000000000000000, -38.21674210529830162 ) ) ;
#1078 = AXIS2_PLACEMENT_3D ( 'NONE', #207, #722, #996 ) ;
#1079 = ORIENTED_EDGE ( 'NONE', *, *, #374, .F. ) ;
#1080 = FACE_OUTER_BOUND ( 'NONE', #282, .T. ) ;
#1081 = DIRECTION ( 'NONE',  ( -1.000000000000000000, 0.000000000000000000, 0.000000000000000000 ) ) ;
#1082 = LINE ( 'NONE', #112, #390 ) ;
#1083 = VECTOR ( 'NONE', #371, 1000.000000000000000 ) ;
#1084 = EDGE_LOOP ( 'NONE', ( #711, #669, #511, #63, #633, #404, #1004, #673 ) ) ;
#1085 = CYLINDRICAL_SURFACE ( 'NONE', #718, 1.000000000000000888 ) ;
#1086 = LINE ( 'NONE', #653, #850 ) ;
#1087 = CARTESIAN_POINT ( 'NONE',  ( -77.13637233178062047, 1.000000000000000000, -38.21674210529830162 ) ) ;
#1088 = ORIENTED_EDGE ( 'NONE', *, *, #1028, .T. ) ;
#1089 = DIRECTION ( 'NONE',  ( 0.000000000000000000, -1.000000000000000000, 0.000000000000000000 ) ) ;
#1090 = APPROVAL_DATE_TIME ( #303, #483 ) ;
#1091 = CARTESIAN_POINT ( 'NONE',  ( -75.42051944751685255, 6.000000000000000000, -54.21674210529830162 ) ) ;
#1092 = EDGE_LOOP ( 'NONE', ( #235, #319, #308, #239 ) ) ;
#1093 = CIRCLE ( 'NONE', #583, 1.000000000000000888 ) ;
#1094 = DIRECTION ( 'NONE',  ( 0.000000000000000000, 0.000000000000000000, -1.000000000000000000 ) ) ;
#1095 = ADVANCED_FACE ( 'NONE', ( #64 ), #507, .T. ) ;
#1096 = DIRECTION ( 'NONE',  ( 0.000000000000000000, 0.000000000000000000, -1.000000000000000000 ) ) ;
#1097 = CARTESIAN_POINT ( 'NONE',  ( -78.81321049054842831, 1.000000000000427214, -43.46184664929188557 ) ) ;
#1098 = DIRECTION ( 'NONE',  ( -0.000000000000000000, 1.000000000000000000, -0.000000000000000000 ) ) ;
#1099 = ORIENTED_EDGE ( 'NONE', *, *, #951, .F. ) ;
#1100 = VECTOR ( 'NONE', #118, 1000.000000000000000 ) ;
#1101 = PERSON_AND_ORGANIZATION ( #526, #756 ) ;
#1102 = VECTOR ( 'NONE', #765, 1000.000000000000000 ) ;
#1103 = CARTESIAN_POINT ( 'NONE',  ( -79.49876917851969438, 6.000000000000000000, -38.21674210529830162 ) ) ;
#1104 = CARTESIAN_POINT ( 'NONE',  ( -80.15033541967666508, 0.000000000000000000, -45.84614587846546385 ) ) ;
#1105 = ORIENTED_EDGE ( 'NONE', *, *, #860, .F. ) ;
#1106 = EDGE_CURVE ( 'NONE', #73, #913, #529, .T. ) ;
#1107 = VERTEX_POINT ( 'NONE', #594 ) ;
#1108 = FACE_OUTER_BOUND ( 'NONE', #35, .T. ) ;
#1109 = PRODUCT_DEFINITION ( 'UNKNOWN', '', #78, #40 ) ;
#1110 = DIRECTION ( 'NONE',  ( 0.000000000000000000, 0.000000000000000000, -1.000000000000000000 ) ) ;
#1111 = FACE_OUTER_BOUND ( 'NONE', #1011, .T. ) ;
#1112 = DIRECTION ( 'NONE',  ( -0.000000000000000000, 1.000000000000000000, -0.000000000000000000 ) ) ;
#1113 = EDGE_CURVE ( 'NONE', #365, #94, #473, .T. ) ;
#1114 = CYLINDRICAL_SURFACE ( 'NONE', #380, 6.999999999999999112 ) ;
#1115 = CARTESIAN_POINT ( 'NONE',  ( -77.13891983088775817, 0.000000000000000000, -41.18414743006972145 ) ) ;
#1116 = ORIENTED_EDGE ( 'NONE', *, *, #498, .T. ) ;
#1117 = ORIENTED_EDGE ( 'NONE', *, *, #565, .F. ) ;
#1118 = AXIS2_PLACEMENT_3D ( 'NONE', #384, #69, #754 ) ;
#1119 = ADVANCED_FACE ( 'NONE', ( #843 ), #139, .T. ) ;
#1120 = DIRECTION ( 'NONE',  ( 0.000000000000000000, 0.000000000000000000, -1.000000000000000000 ) ) ;
#1121 = CARTESIAN_POINT ( 'NONE',  ( -80.16295165769550124, 7.000000000000000888, -45.84263896212130618 ) ) ;
#1122 = CARTESIAN_POINT ( 'NONE',  ( -77.13637233178062047, 6.000000000000000000, -38.21674210529830162 ) ) ;
#1123 = ORIENTED_EDGE ( 'NONE', *, *, #735, .F. ) ;
#1124 = FACE_OUTER_BOUND ( 'NONE', #490, .T. ) ;
#1125 = CARTESIAN_POINT ( 'NONE',  ( -78.13844958452243361, 6.000000000000001776, -41.06113829847608798 ) ) ;
#1126 = CARTESIAN_POINT ( 'NONE',  ( -47.13254080751686104, 1.000000000000000000, -54.21674210529830162 ) ) ;
#1127 = ORIENTED_EDGE ( 'NONE', *, *, #134, .T. ) ;
#1128 = AXIS2_PLACEMENT_3D ( 'NONE', #749, #855, #414 ) ;
#1129 = ADVANCED_FACE ( 'NONE', ( #1124 ), #1114, .T. ) ;
#1130 = DIRECTION ( 'NONE',  ( -1.000000000000000000, 0.000000000000000000, 0.000000000000000000 ) ) ;
#1131 = CARTESIAN_POINT ( 'NONE',  ( -81.28772632481920368, 0.9999999999999986677, -45.13577426576492968 ) ) ;
#1132 = ORIENTED_EDGE ( 'NONE', *, *, #174, .F. ) ;
#1133 = EDGE_CURVE ( 'NONE', #999, #216, #272, .T. ) ;
#1134 = AXIS2_PLACEMENT_3D ( 'NONE', #1087, #1098, #661 ) ;
#1135 = COORDINATED_UNIVERSAL_TIME_OFFSET ( 0, 0, .AHEAD. ) ;
#1136 = AXIS2_PLACEMENT_3D ( 'NONE', #727, #910, #1096 ) ;
#1137 = CIRCLE ( 'NONE', #461, 1.000000000000000888 ) ;
#1138 = CARTESIAN_POINT ( 'NONE',  ( -77.53857219778481635, 6.999999999999998224, -43.09630343390454499 ) ) ;
#1139 = DIRECTION ( 'NONE',  ( 0.000000000000000000, 0.000000000000000000, 1.000000000000000000 ) ) ;
#1140 = EDGE_CURVE ( 'NONE', #520, #874, #18, .T. ) ;
#1141 = CARTESIAN_POINT ( 'NONE',  ( -45.13254080751686104, 1.000000000000000000, -37.21674210529830162 ) ) ;
#1142 = CARTESIAN_POINT ( 'NONE',  ( -79.11611041597569738, 6.000000000000212275, -43.88447146820183065 ) ) ;
#1143 = DIRECTION ( 'NONE',  ( 0.000000000000000000, -1.000000000000000000, 0.000000000000000000 ) ) ;
#1144 = VERTEX_POINT ( 'NONE', #1141 ) ;
ENDSEC;
END-ISO-10303-21;
