ISO-10303-21;
HEADER;
FILE_DESCRIPTION (( 'STEP AP203' ),
    '1' );
FILE_NAME ('BarWorktop.step',
    '2026-09-07T17:35:18',
    ( '' ),
    ( '' ),
    'SwSTEP 2.0',
    'SolidWorks 2026',
    '' );
FILE_SCHEMA (( 'CONFIG_CONTROL_DESIGN' ));
ENDSEC;

DATA;
#1 = EDGE_CURVE ( 'NONE', #109, #363, #261, .T. ) ;
#2 = EDGE_CURVE ( 'NONE', #147, #366, #227, .T. ) ;
#3 = LINE ( 'NONE', #376, #4 ) ;
#4 = VECTOR ( 'NONE', #121, 1000.000000000000000 ) ;
#5 = CARTESIAN_POINT ( 'NONE',  ( -15.75849803319520603, 0.000000000000000000, -20.56519104384513241 ) ) ;
#6 = VECTOR ( 'NONE', #164, 1000.000000000000000 ) ;
#7 = LINE ( 'NONE', #330, #6 ) ;
#8 = CARTESIAN_POINT ( 'NONE',  ( -15.75849803319519893, 3.000000000000000000, -2.565191043845137298 ) ) ;
#9 = CYLINDRICAL_SURFACE ( 'NONE', #114, 2.000000000000001776 ) ;
#10 = FACE_OUTER_BOUND ( 'NONE', #19, .T. ) ;
#11 = PRODUCT_DEFINITION ( 'UNKNOWN', '', #59, #236 ) ;
#12 = DIRECTION ( 'NONE',  ( 0.000000000000000000, 0.000000000000000000, -1.000000000000000000 ) ) ;
#13 = LINE ( 'NONE', #271, #237 ) ;
#14 = ORIENTED_EDGE ( 'NONE', *, *, #51, .F. ) ;
#15 = DIRECTION ( 'NONE',  ( -0.000000000000000000, -1.000000000000000000, -0.000000000000000000 ) ) ;
#16 = ORIENTED_EDGE ( 'NONE', *, *, #137, .T. ) ;
#17 = DIRECTION ( 'NONE',  ( 0.000000000000000000, 0.000000000000000000, 1.000000000000000000 ) ) ;
#18 = FACE_OUTER_BOUND ( 'NONE', #138, .T. ) ;
#19 = EDGE_LOOP ( 'NONE', ( #72, #308, #288, #84 ) ) ;
#20 = PERSON_AND_ORGANIZATION_ROLE ( 'creator' ) ;
#21 = AXIS2_PLACEMENT_3D ( 'NONE', #170, #166, #278 ) ;
#22 = APPROVAL ( #251, 'UNSPECIFIED' ) ;
#23 = SECURITY_CLASSIFICATION_LEVEL ( 'unclassified' ) ;
#24 = ORIENTED_EDGE ( 'NONE', *, *, #66, .F. ) ;
#25 = CARTESIAN_POINT ( 'NONE',  ( -71.25849803319519538, 3.000000000000000000, -22.56519104384513241 ) ) ;
#26 = APPROVAL_ROLE ( '' ) ;
#27 = EDGE_CURVE ( 'NONE', #207, #109, #3, .T. ) ;
#28 = VERTEX_POINT ( 'NONE', #91 ) ;
#29 = ORIENTED_EDGE ( 'NONE', *, *, #108, .F. ) ;
#30 = CARTESIAN_POINT ( 'NONE',  ( -69.25849803319519538, 3.000000000000000000, -0.5651910438451355212 ) ) ;
#31 = DIRECTION ( 'NONE',  ( 0.000000000000000000, 0.000000000000000000, -1.000000000000000000 ) ) ;
#32 = CC_DESIGN_PERSON_AND_ORGANIZATION_ASSIGNMENT ( #80, #318, ( #59 ) ) ;
#33 = CIRCLE ( 'NONE', #83, 2.000000000000001776 ) ;
#34 = CARTESIAN_POINT ( 'NONE',  ( -13.75849803319520426, 3.000000000000000000, -20.56519104384513241 ) ) ;
#35 = DIRECTION ( 'NONE',  ( -0.000000000000000000, 1.000000000000000000, -0.000000000000000000 ) ) ;
#36 = CLOSED_SHELL ( 'NONE', ( #228, #178, #281, #77, #267, #350, #188, #106, #250, #309 ) ) ;
#37 = LINE ( 'NONE', #162, #296 ) ;
#38 = EDGE_CURVE ( 'NONE', #335, #255, #116, .T. ) ;
#39 = PRODUCT ( 'BarWorktop', 'BarWorktop', '', ( #112 ) ) ;
#40 = DIRECTION ( 'NONE',  ( 0.000000000000000000, 0.000000000000000000, 1.000000000000000000 ) ) ;
#41 = CARTESIAN_POINT ( 'NONE',  ( -69.25849803319519538, 3.000000000000000000, -0.5651910438451355212 ) ) ;
#42 = ORIENTED_EDGE ( 'NONE', *, *, #312, .T. ) ;
#43 = CARTESIAN_POINT ( 'NONE',  ( 0.000000000000000000, 0.000000000000000000, 0.000000000000000000 ) ) ;
#44 = ORIENTED_EDGE ( 'NONE', *, *, #352, .F. ) ;
#45 = AXIS2_PLACEMENT_3D ( 'NONE', #98, #76, #49 ) ;
#46 =( GEOMETRIC_REPRESENTATION_CONTEXT ( 3 ) GLOBAL_UNCERTAINTY_ASSIGNED_CONTEXT ( ( #119 ) ) GLOBAL_UNIT_ASSIGNED_CONTEXT ( ( #313, #334, #115 ) ) REPRESENTATION_CONTEXT ( 'NONE', 'WORKASPACE' ) );
#47 = DIRECTION ( 'NONE',  ( 0.000000000000000000, -0.000000000000000000, 1.000000000000000000 ) ) ;
#48 = ORIENTED_EDGE ( 'NONE', *, *, #186, .F. ) ;
#49 = DIRECTION ( 'NONE',  ( 0.000000000000000000, 0.000000000000000000, -1.000000000000000000 ) ) ;
#50 = EDGE_LOOP ( 'NONE', ( #347, #351, #105, #196 ) ) ;
#51 = EDGE_CURVE ( 'NONE', #315, #207, #61, .T. ) ;
#52 = VECTOR ( 'NONE', #35, 1000.000000000000000 ) ;
#53 = DIRECTION ( 'NONE',  ( -0.000000000000000000, -1.000000000000000000, -0.000000000000000000 ) ) ;
#54 = PERSON_AND_ORGANIZATION ( #198, #151 ) ;
#55 = ORIENTED_EDGE ( 'NONE', *, *, #243, .F. ) ;
#56 = APPROVAL_STATUS ( 'not_yet_approved' ) ;
#57 = ORIENTED_EDGE ( 'NONE', *, *, #360, .F. ) ;
#58 = APPROVAL_DATE_TIME ( #322, #293 ) ;
#59 = PRODUCT_DEFINITION_FORMATION_WITH_SPECIFIED_SOURCE ( 'ANY', '', #39, .NOT_KNOWN. ) ;
#60 = ORIENTED_EDGE ( 'NONE', *, *, #27, .F. ) ;
#61 = LINE ( 'NONE', #30, #314 ) ;
#62 = DIRECTION ( 'NONE',  ( 0.000000000000000000, -1.000000000000000000, 0.000000000000000000 ) ) ;
#63 = AXIS2_PLACEMENT_3D ( 'NONE', #199, #53, #183 ) ;
#64 = DIRECTION ( 'NONE',  ( -0.000000000000000000, 1.000000000000000000, -0.000000000000000000 ) ) ;
#65 = CARTESIAN_POINT ( 'NONE',  ( -71.25849803319519538, 3.000000000000000000, -20.56519104384513241 ) ) ;
#66 = EDGE_CURVE ( 'NONE', #207, #323, #248, .T. ) ;
#67 = EDGE_CURVE ( 'NONE', #177, #345, #299, .T. ) ;
#68 = DIRECTION ( 'NONE',  ( 0.000000000000000000, 1.000000000000000000, 0.000000000000000000 ) ) ;
#69 = AXIS2_PLACEMENT_3D ( 'NONE', #249, #245, #134 ) ;
#70 = CARTESIAN_POINT ( 'NONE',  ( -15.75849803319520603, 0.000000000000000000, -22.56519104384513241 ) ) ;
#71 = LINE ( 'NONE', #367, #306 ) ;
#72 = ORIENTED_EDGE ( 'NONE', *, *, #2, .F. ) ;
#73 = VECTOR ( 'NONE', #176, 1000.000000000000000 ) ;
#74 = CYLINDRICAL_SURFACE ( 'NONE', #21, 2.000000000000000000 ) ;
#75 = LOCAL_TIME ( 18, 35, 18.00000000000000000, #110 ) ;
#76 = DIRECTION ( 'NONE',  ( 1.000000000000000000, 0.000000000000000000, 0.000000000000000000 ) ) ;
#77 = ADVANCED_FACE ( 'NONE', ( #264 ), #214, .F. ) ;
#78 = FACE_OUTER_BOUND ( 'NONE', #319, .T. ) ;
#79 = EDGE_CURVE ( 'NONE', #111, #143, #215, .T. ) ;
#80 = PERSON_AND_ORGANIZATION ( #198, #151 ) ;
#81 = DIRECTION ( 'NONE',  ( 0.000000000000000000, -1.000000000000000000, 0.000000000000000000 ) ) ;
#82 = DATE_AND_TIME ( #210, #333 ) ;
#83 = AXIS2_PLACEMENT_3D ( 'NONE', #141, #195, #364 ) ;
#84 = ORIENTED_EDGE ( 'NONE', *, *, #243, .T. ) ;
#85 = ADVANCED_BREP_SHAPE_REPRESENTATION ( 'BarWorktop', ( #192, #307 ), #46 ) ;
#86 = APPROVAL_DATE_TIME ( #82, #22 ) ;
#87 = ORIENTED_EDGE ( 'NONE', *, *, #155, .F. ) ;
#88 = DATE_AND_TIME ( #120, #95 ) ;
#89 = EDGE_LOOP ( 'NONE', ( #175, #290, #87, #44 ) ) ;
#90 = APPLICATION_CONTEXT ( 'configuration controlled 3d designs of mechanical parts and assemblies' ) ;
#91 = CARTESIAN_POINT ( 'NONE',  ( -71.25849803319519538, 0.000000000000000000, -20.56519104384513241 ) ) ;
#92 = CARTESIAN_POINT ( 'NONE',  ( -13.75849803319520426, 3.000000000000000000, -20.56519104384513241 ) ) ;
#93 = LINE ( 'NONE', #34, #52 ) ;
#94 = DIRECTION ( 'NONE',  ( 0.000000000000000000, 0.000000000000000000, 1.000000000000000000 ) ) ;
#95 = LOCAL_TIME ( 18, 35, 18.00000000000000000, #206 ) ;
#96 = AXIS2_PLACEMENT_3D ( 'NONE', #246, #225, #17 ) ;
#97 = CARTESIAN_POINT ( 'NONE',  ( -71.25849803319519538, 3.000000000000000000, -0.5651910438451355212 ) ) ;
#98 = CARTESIAN_POINT ( 'NONE',  ( -71.25849803319519538, 3.000000000000000000, -22.56519104384513241 ) ) ;
#99 = LINE ( 'NONE', #365, #269 ) ;
#100 = LOCAL_TIME ( 18, 35, 18.00000000000000000, #257 ) ;
#101 = VECTOR ( 'NONE', #298, 1000.000000000000000 ) ;
#102 = CC_DESIGN_PERSON_AND_ORGANIZATION_ASSIGNMENT ( #54, #197, ( #193 ) ) ;
#103 = CARTESIAN_POINT ( 'NONE',  ( -13.75849803319520426, 0.000000000000000000, -20.56519104384513241 ) ) ;
#104 = DIRECTION ( 'NONE',  ( 0.000000000000000000, -1.000000000000000000, 0.000000000000000000 ) ) ;
#105 = ORIENTED_EDGE ( 'NONE', *, *, #137, .F. ) ;
#106 = ADVANCED_FACE ( 'NONE', ( #128 ), #9, .T. ) ;
#107 = FACE_OUTER_BOUND ( 'NONE', #202, .T. ) ;
#108 = EDGE_CURVE ( 'NONE', #143, #147, #163, .T. ) ;
#109 = VERTEX_POINT ( 'NONE', #213 ) ;
#110 = COORDINATED_UNIVERSAL_TIME_OFFSET ( 0, 0, .AHEAD. ) ;
#111 = VERTEX_POINT ( 'NONE', #265 ) ;
#112 = MECHANICAL_CONTEXT ( 'NONE', #90, 'mechanical' ) ;
#113 = ORIENTED_EDGE ( 'NONE', *, *, #155, .T. ) ;
#114 = AXIS2_PLACEMENT_3D ( 'NONE', #241, #62, #217 ) ;
#115 =( NAMED_UNIT ( * ) SI_UNIT ( $, .STERADIAN. ) SOLID_ANGLE_UNIT ( ) );
#116 = LINE ( 'NONE', #231, #139 ) ;
#117 = APPLICATION_PROTOCOL_DEFINITION ( 'international standard', 'config_control_design', 1994, #125 ) ;
#118 = ORIENTED_EDGE ( 'NONE', *, *, #1, .T. ) ;
#119 = UNCERTAINTY_MEASURE_WITH_UNIT (LENGTH_MEASURE( 1.000000000000000082E-05 ), #313, 'distance_accuracy_value', 'NONE');
#120 = CALENDAR_DATE ( 2026, 7, 9 ) ;
#121 = DIRECTION ( 'NONE',  ( 1.000000000000000000, 0.000000000000000000, 0.000000000000000000 ) ) ;
#122 = CC_DESIGN_PERSON_AND_ORGANIZATION_ASSIGNMENT ( #371, #20, ( #11 ) ) ;
#123 = DIRECTION ( 'NONE',  ( 0.000000000000000000, 0.000000000000000000, 1.000000000000000000 ) ) ;
#124 = EDGE_CURVE ( 'NONE', #372, #335, #37, .T. ) ;
#125 = APPLICATION_CONTEXT ( 'configuration controlled 3d designs of mechanical parts and assemblies' ) ;
#126 = DIRECTION ( 'NONE',  ( -1.000000000000000000, 0.000000000000000000, -0.000000000000000000 ) ) ;
#127 = CYLINDRICAL_SURFACE ( 'NONE', #276, 2.000000000000001776 ) ;
#128 = FACE_OUTER_BOUND ( 'NONE', #89, .T. ) ;
#129 = PRODUCT_DEFINITION_SHAPE ( 'NONE', 'NONE',  #11 ) ;
#130 = DIRECTION ( 'NONE',  ( -0.000000000000000000, -1.000000000000000000, -0.000000000000000000 ) ) ;
#131 = CARTESIAN_POINT ( 'NONE',  ( -71.25849803319519538, 3.000000000000000000, -2.565191043845137298 ) ) ;
#132 = PRODUCT_RELATED_PRODUCT_CATEGORY ( 'detail', '', ( #39 ) ) ;
#133 = AXIS2_PLACEMENT_3D ( 'NONE', #354, #123, #332 ) ;
#134 = DIRECTION ( 'NONE',  ( 3.154042683594195121E-16, 0.000000000000000000, 1.000000000000000000 ) ) ;
#135 = DIRECTION ( 'NONE',  ( 0.000000000000000000, 0.000000000000000000, 1.000000000000000000 ) ) ;
#136 = CARTESIAN_POINT ( 'NONE',  ( -69.25849803319519538, 3.000000000000000000, -2.565191043845135521 ) ) ;
#137 = EDGE_CURVE ( 'NONE', #345, #143, #7, .T. ) ;
#138 = EDGE_LOOP ( 'NONE', ( #283, #171, #173, #145 ) ) ;
#139 = VECTOR ( 'NONE', #235, 1000.000000000000000 ) ;
#140 = EDGE_CURVE ( 'NONE', #28, #323, #242, .T. ) ;
#141 = CARTESIAN_POINT ( 'NONE',  ( -69.25849803319519538, 0.000000000000000000, -20.56519104384513241 ) ) ;
#142 = APPROVAL_DATE_TIME ( #282, #324 ) ;
#143 = VERTEX_POINT ( 'NONE', #270 ) ;
#144 = PERSON_AND_ORGANIZATION ( #198, #151 ) ;
#145 = ORIENTED_EDGE ( 'NONE', *, *, #124, .T. ) ;
#146 = DIRECTION ( 'NONE',  ( 0.000000000000000000, 0.000000000000000000, 1.000000000000000000 ) ) ;
#147 = VERTEX_POINT ( 'NONE', #295 ) ;
#148 = CC_DESIGN_SECURITY_CLASSIFICATION ( #193, ( #59 ) ) ;
#149 = AXIS2_PLACEMENT_3D ( 'NONE', #238, #68, #40 ) ;
#150 = PERSON_AND_ORGANIZATION ( #198, #151 ) ;
#151 = ORGANIZATION ( 'UNSPECIFIED', 'UNSPECIFIED', '' ) ;
#152 = ORIENTED_EDGE ( 'NONE', *, *, #38, .F. ) ;
#153 = PERSON_AND_ORGANIZATION ( #198, #151 ) ;
#154 = DIRECTION ( 'NONE',  ( 0.000000000000000000, 0.000000000000000000, 1.000000000000000000 ) ) ;
#155 = EDGE_CURVE ( 'NONE', #233, #255, #187, .T. ) ;
#156 = EDGE_CURVE ( 'NONE', #255, #177, #93, .T. ) ;
#157 = ORIENTED_EDGE ( 'NONE', *, *, #67, .T. ) ;
#158 = CARTESIAN_POINT ( 'NONE',  ( -69.25849803319519538, 0.000000000000000000, -0.5651910438451355212 ) ) ;
#159 = VECTOR ( 'NONE', #300, 1000.000000000000000 ) ;
#160 = CARTESIAN_POINT ( 'NONE',  ( -71.25849803319519538, 3.000000000000000000, -0.5651910438451355212 ) ) ;
#161 = PLANE ( 'NONE',  #263 ) ;
#162 = CARTESIAN_POINT ( 'NONE',  ( -13.75849803319519715, 3.000000000000000000, -2.565191043845137298 ) ) ;
#163 = CIRCLE ( 'NONE', #149, 2.000000000000001776 ) ;
#164 = DIRECTION ( 'NONE',  ( -1.000000000000000000, -0.000000000000000000, -0.000000000000000000 ) ) ;
#165 = CC_DESIGN_DATE_AND_TIME_ASSIGNMENT ( #373, #320, ( #193 ) ) ;
#166 = DIRECTION ( 'NONE',  ( 0.000000000000000000, -1.000000000000000000, 0.000000000000000000 ) ) ;
#167 = ORIENTED_EDGE ( 'NONE', *, *, #326, .T. ) ;
#168 = DIRECTION ( 'NONE',  ( 0.000000000000000000, 1.000000000000000000, 0.000000000000000000 ) ) ;
#169 = ORIENTED_EDGE ( 'NONE', *, *, #79, .F. ) ;
#170 = CARTESIAN_POINT ( 'NONE',  ( -15.75849803319519893, 3.000000000000000000, -2.565191043845137298 ) ) ;
#171 = ORIENTED_EDGE ( 'NONE', *, *, #156, .T. ) ;
#172 = APPROVAL_STATUS ( 'not_yet_approved' ) ;
#173 = ORIENTED_EDGE ( 'NONE', *, *, #326, .F. ) ;
#174 = CC_DESIGN_APPROVAL ( #22, ( #59 ) ) ;
#175 = ORIENTED_EDGE ( 'NONE', *, *, #67, .F. ) ;
#176 = DIRECTION ( 'NONE',  ( -0.000000000000000000, 1.000000000000000000, -0.000000000000000000 ) ) ;
#177 = VERTEX_POINT ( 'NONE', #92 ) ;
#178 = ADVANCED_FACE ( 'NONE', ( #266 ), #161, .F. ) ;
#179 = ORIENTED_EDGE ( 'NONE', *, *, #216, .F. ) ;
#180 = ORIENTED_EDGE ( 'NONE', *, *, #280, .F. ) ;
#181 = DIRECTION ( 'NONE',  ( 0.000000000000000000, -1.000000000000000000, 0.000000000000000000 ) ) ;
#182 = CARTESIAN_POINT ( 'NONE',  ( -71.25849803319519538, 0.000000000000000000, -22.56519104384513241 ) ) ;
#183 = DIRECTION ( 'NONE',  ( 0.000000000000000000, 0.000000000000000000, 1.000000000000000000 ) ) ;
#184 = DIRECTION ( 'NONE',  ( 0.000000000000000000, 1.000000000000000000, 0.000000000000000000 ) ) ;
#185 = CARTESIAN_POINT ( 'NONE',  ( -15.75849803319520603, 3.000000000000000000, -20.56519104384513241 ) ) ;
#186 = EDGE_CURVE ( 'NONE', #147, #28, #240, .T. ) ;
#187 = CIRCLE ( 'NONE', #219, 2.000000000000001776 ) ;
#188 = ADVANCED_FACE ( 'NONE', ( #328 ), #127, .T. ) ;
#189 = FACE_OUTER_BOUND ( 'NONE', #258, .T. ) ;
#190 = DIRECTION ( 'NONE',  ( -3.154042683594195121E-16, -0.000000000000000000, -1.000000000000000000 ) ) ;
#191 = DIRECTION ( 'NONE',  ( 0.000000000000000000, 1.000000000000000000, 0.000000000000000000 ) ) ;
#192 = MANIFOLD_SOLID_BREP ( 'Fillet1', #36 ) ;
#193 = SECURITY_CLASSIFICATION ( '', '', #23 ) ;
#194 = DIRECTION ( 'NONE',  ( -1.000000000000000000, -0.000000000000000000, -0.000000000000000000 ) ) ;
#195 = DIRECTION ( 'NONE',  ( -0.000000000000000000, -1.000000000000000000, -0.000000000000000000 ) ) ;
#196 = ORIENTED_EDGE ( 'NONE', *, *, #352, .T. ) ;
#197 = PERSON_AND_ORGANIZATION_ROLE ( 'classification_officer' ) ;
#198 = PERSON ( 'UNSPECIFIED', 'UNSPECIFIED', 'UNSPECIFIED', ('UNSPECIFIED'), ('UNSPECIFIED'), ('UNSPECIFIED') ) ;
#199 = CARTESIAN_POINT ( 'NONE',  ( -69.25849803319519538, 0.000000000000000000, -2.565191043845135521 ) ) ;
#200 = APPROVAL_PERSON_ORGANIZATION ( #153, #293, #26 ) ;
#201 = APPLICATION_PROTOCOL_DEFINITION ( 'international standard', 'config_control_design', 1994, #90 ) ;
#202 = EDGE_LOOP ( 'NONE', ( #16, #321, #325, #42, #226, #349, #167, #157 ) ) ;
#203 = APPROVAL_ROLE ( '' ) ;
#204 = EDGE_LOOP ( 'NONE', ( #311, #220, #180, #113, #152, #260, #60, #370 ) ) ;
#205 = CC_DESIGN_PERSON_AND_ORGANIZATION_ASSIGNMENT ( #144, #259, ( #39 ) ) ;
#206 = COORDINATED_UNIVERSAL_TIME_OFFSET ( 0, 0, .AHEAD. ) ;
#207 = VERTEX_POINT ( 'NONE', #158 ) ;
#208 = EDGE_CURVE ( 'NONE', #363, #372, #339, .T. ) ;
#209 = CIRCLE ( 'NONE', #284, 2.000000000000000000 ) ;
#210 = CALENDAR_DATE ( 2026, 7, 9 ) ;
#211 = EDGE_LOOP ( 'NONE', ( #273, #118, #179, #304 ) ) ;
#212 = DIRECTION ( 'NONE',  ( 0.000000000000000000, -1.000000000000000000, 0.000000000000000000 ) ) ;
#213 = CARTESIAN_POINT ( 'NONE',  ( -15.75849803319519893, 0.000000000000000000, -0.5651910438451355212 ) ) ;
#214 = PLANE ( 'NONE',  #133 ) ;
#215 = LINE ( 'NONE', #244, #274 ) ;
#216 = EDGE_CURVE ( 'NONE', #315, #363, #357, .T. ) ;
#217 = DIRECTION ( 'NONE',  ( 0.000000000000000000, 0.000000000000000000, -1.000000000000000000 ) ) ;
#218 = CARTESIAN_POINT ( 'NONE',  ( -13.75849803319519715, 3.000000000000000000, -2.565191043845137298 ) ) ;
#219 = AXIS2_PLACEMENT_3D ( 'NONE', #5, #130, #353 ) ;
#220 = ORIENTED_EDGE ( 'NONE', *, *, #377, .T. ) ;
#221 = DIRECTION ( 'NONE',  ( 0.000000000000000000, -1.000000000000000000, 0.000000000000000000 ) ) ;
#222 = CARTESIAN_POINT ( 'NONE',  ( -71.25849803319519538, 3.000000000000000000, -2.565191043845137298 ) ) ;
#223 = CARTESIAN_POINT ( 'NONE',  ( -15.75849803319519893, 0.000000000000000000, -2.565191043845137298 ) ) ;
#224 = AXIS2_PLACEMENT_3D ( 'NONE', #359, #191, #247 ) ;
#225 = DIRECTION ( 'NONE',  ( 0.000000000000000000, 1.000000000000000000, 0.000000000000000000 ) ) ;
#226 = ORIENTED_EDGE ( 'NONE', *, *, #216, .T. ) ;
#227 = LINE ( 'NONE', #25, #343 ) ;
#228 = ADVANCED_FACE ( 'NONE', ( #10 ), #358, .F. ) ;
#229 = PERSON_AND_ORGANIZATION ( #198, #151 ) ;
#230 = COORDINATED_UNIVERSAL_TIME_OFFSET ( 0, 0, .AHEAD. ) ;
#231 = CARTESIAN_POINT ( 'NONE',  ( -13.75849803319520426, 0.000000000000000000, -22.56519104384513241 ) ) ;
#232 = CALENDAR_DATE ( 2026, 7, 9 ) ;
#233 = VERTEX_POINT ( 'NONE', #70 ) ;
#234 = DATE_TIME_ROLE ( 'creation_date' ) ;
#235 = DIRECTION ( 'NONE',  ( -3.154042683594195121E-16, -0.000000000000000000, -1.000000000000000000 ) ) ;
#236 = DESIGN_CONTEXT ( 'detailed design', #125, 'design' ) ;
#237 = VECTOR ( 'NONE', #194, 1000.000000000000000 ) ;
#238 = CARTESIAN_POINT ( 'NONE',  ( -69.25849803319519538, 3.000000000000000000, -20.56519104384513241 ) ) ;
#239 = CC_DESIGN_PERSON_AND_ORGANIZATION_ASSIGNMENT ( #369, #289, ( #59 ) ) ;
#240 = LINE ( 'NONE', #65, #317 ) ;
#241 = CARTESIAN_POINT ( 'NONE',  ( -15.75849803319520603, 3.000000000000000000, -20.56519104384513241 ) ) ;
#242 = LINE ( 'NONE', #182, #101 ) ;
#243 = EDGE_CURVE ( 'NONE', #323, #366, #272, .T. ) ;
#244 = CARTESIAN_POINT ( 'NONE',  ( -69.25849803319519538, 3.000000000000000000, -22.56519104384513241 ) ) ;
#245 = DIRECTION ( 'NONE',  ( -1.000000000000000000, 0.000000000000000000, 3.154042683594195121E-16 ) ) ;
#246 = CARTESIAN_POINT ( 'NONE',  ( -69.25849803319519538, 3.000000000000000000, -2.565191043845135521 ) ) ;
#247 = DIRECTION ( 'NONE',  ( 0.000000000000000000, -0.000000000000000000, 1.000000000000000000 ) ) ;
#248 = CIRCLE ( 'NONE', #63, 2.000000000000000000 ) ;
#249 = CARTESIAN_POINT ( 'NONE',  ( -13.75849803319520426, 3.000000000000000000, -22.56519104384513241 ) ) ;
#250 = ADVANCED_FACE ( 'NONE', ( #189 ), #74, .T. ) ;
#251 = APPROVAL_STATUS ( 'not_yet_approved' ) ;
#252 = ORIENTED_EDGE ( 'NONE', *, *, #312, .F. ) ;
#253 = CALENDAR_DATE ( 2026, 7, 9 ) ;
#254 = ORIENTED_EDGE ( 'NONE', *, *, #1, .F. ) ;
#255 = VERTEX_POINT ( 'NONE', #103 ) ;
#256 = CC_DESIGN_APPROVAL ( #324, ( #11 ) ) ;
#257 = COORDINATED_UNIVERSAL_TIME_OFFSET ( 0, 0, .AHEAD. ) ;
#258 = EDGE_LOOP ( 'NONE', ( #374, #254, #57, #277 ) ) ;
#259 = PERSON_AND_ORGANIZATION_ROLE ( 'design_owner' ) ;
#260 = ORIENTED_EDGE ( 'NONE', *, *, #360, .T. ) ;
#261 = LINE ( 'NONE', #292, #73 ) ;
#262 = APPROVAL_PERSON_ORGANIZATION ( #229, #22, #285 ) ;
#263 = AXIS2_PLACEMENT_3D ( 'NONE', #160, #31, #126 ) ;
#264 = FACE_OUTER_BOUND ( 'NONE', #50, .T. ) ;
#265 = CARTESIAN_POINT ( 'NONE',  ( -69.25849803319519538, 0.000000000000000000, -22.56519104384513241 ) ) ;
#266 = FACE_OUTER_BOUND ( 'NONE', #211, .T. ) ;
#267 = ADVANCED_FACE ( 'NONE', ( #107 ), #302, .T. ) ;
#268 = LOCAL_TIME ( 18, 35, 18.00000000000000000, #230 ) ;
#269 = VECTOR ( 'NONE', #104, 1000.000000000000000 ) ;
#270 = CARTESIAN_POINT ( 'NONE',  ( -69.25849803319519538, 3.000000000000000000, -22.56519104384513241 ) ) ;
#271 = CARTESIAN_POINT ( 'NONE',  ( -71.25849803319519538, 0.000000000000000000, -22.56519104384513241 ) ) ;
#272 = LINE ( 'NONE', #222, #329 ) ;
#273 = ORIENTED_EDGE ( 'NONE', *, *, #27, .T. ) ;
#274 = VECTOR ( 'NONE', #64, 1000.000000000000000 ) ;
#275 = DIRECTION ( 'NONE',  ( -0.000000000000000000, 1.000000000000000000, -0.000000000000000000 ) ) ;
#276 = AXIS2_PLACEMENT_3D ( 'NONE', #327, #297, #331 ) ;
#277 = ORIENTED_EDGE ( 'NONE', *, *, #124, .F. ) ;
#278 = DIRECTION ( 'NONE',  ( 0.000000000000000000, 0.000000000000000000, -1.000000000000000000 ) ) ;
#279 = CARTESIAN_POINT ( 'NONE',  ( -15.75849803319519893, 3.000000000000000000, -0.5651910438451355212 ) ) ;
#280 = EDGE_CURVE ( 'NONE', #233, #111, #13, .T. ) ;
#281 = ADVANCED_FACE ( 'NONE', ( #18 ), #310, .F. ) ;
#282 = DATE_AND_TIME ( #253, #268 ) ;
#283 = ORIENTED_EDGE ( 'NONE', *, *, #38, .T. ) ;
#284 = AXIS2_PLACEMENT_3D ( 'NONE', #223, #15, #135 ) ;
#285 = APPROVAL_ROLE ( '' ) ;
#286 = ORIENTED_EDGE ( 'NONE', *, *, #377, .F. ) ;
#287 = CARTESIAN_POINT ( 'NONE',  ( 0.000000000000000000, 0.000000000000000000, 0.000000000000000000 ) ) ;
#288 = ORIENTED_EDGE ( 'NONE', *, *, #140, .T. ) ;
#289 = PERSON_AND_ORGANIZATION_ROLE ( 'creator' ) ;
#290 = ORIENTED_EDGE ( 'NONE', *, *, #156, .F. ) ;
#291 = AXIS2_PLACEMENT_3D ( 'NONE', #8, #184, #94 ) ;
#292 = CARTESIAN_POINT ( 'NONE',  ( -15.75849803319519893, 3.000000000000000000, -0.5651910438451355212 ) ) ;
#293 = APPROVAL ( #56, 'UNSPECIFIED' ) ;
#294 = AXIS2_PLACEMENT_3D ( 'NONE', #185, #301, #355 ) ;
#295 = CARTESIAN_POINT ( 'NONE',  ( -71.25849803319519538, 3.000000000000000000, -20.56519104384513241 ) ) ;
#296 = VECTOR ( 'NONE', #181, 1000.000000000000000 ) ;
#297 = DIRECTION ( 'NONE',  ( 0.000000000000000000, -1.000000000000000000, 0.000000000000000000 ) ) ;
#298 = DIRECTION ( 'NONE',  ( 0.000000000000000000, 0.000000000000000000, 1.000000000000000000 ) ) ;
#299 = CIRCLE ( 'NONE', #294, 2.000000000000001776 ) ;
#300 = DIRECTION ( 'NONE',  ( 1.000000000000000000, 0.000000000000000000, 0.000000000000000000 ) ) ;
#301 = DIRECTION ( 'NONE',  ( 0.000000000000000000, 1.000000000000000000, 0.000000000000000000 ) ) ;
#302 = PLANE ( 'NONE',  #224 ) ;
#303 = PLANE ( 'NONE',  #361 ) ;
#304 = ORIENTED_EDGE ( 'NONE', *, *, #51, .T. ) ;
#305 = FACE_OUTER_BOUND ( 'NONE', #204, .T. ) ;
#306 = VECTOR ( 'NONE', #190, 1000.000000000000000 ) ;
#307 = AXIS2_PLACEMENT_3D ( 'NONE', #287, #146, #346 ) ;
#308 = ORIENTED_EDGE ( 'NONE', *, *, #186, .T. ) ;
#309 = ADVANCED_FACE ( 'NONE', ( #78 ), #362, .T. ) ;
#310 = PLANE ( 'NONE',  #69 ) ;
#311 = ORIENTED_EDGE ( 'NONE', *, *, #140, .F. ) ;
#312 = EDGE_CURVE ( 'NONE', #366, #315, #375, .T. ) ;
#313 =( LENGTH_UNIT ( ) NAMED_UNIT ( * ) SI_UNIT ( .MILLI., .METRE. ) );
#314 = VECTOR ( 'NONE', #81, 1000.000000000000000 ) ;
#315 = VERTEX_POINT ( 'NONE', #41 ) ;
#316 = CC_DESIGN_APPROVAL ( #293, ( #193 ) ) ;
#317 = VECTOR ( 'NONE', #212, 1000.000000000000000 ) ;
#318 = PERSON_AND_ORGANIZATION_ROLE ( 'design_supplier' ) ;
#319 = EDGE_LOOP ( 'NONE', ( #252, #55, #24, #14 ) ) ;
#320 = DATE_TIME_ROLE ( 'classification_date' ) ;
#321 = ORIENTED_EDGE ( 'NONE', *, *, #108, .T. ) ;
#322 = DATE_AND_TIME ( #348, #100 ) ;
#323 = VERTEX_POINT ( 'NONE', #336 ) ;
#324 = APPROVAL ( #172, 'UNSPECIFIED' ) ;
#325 = ORIENTED_EDGE ( 'NONE', *, *, #2, .T. ) ;
#326 = EDGE_CURVE ( 'NONE', #372, #177, #71, .T. ) ;
#327 = CARTESIAN_POINT ( 'NONE',  ( -69.25849803319519538, 3.000000000000000000, -20.56519104384513241 ) ) ;
#328 = FACE_OUTER_BOUND ( 'NONE', #342, .T. ) ;
#329 = VECTOR ( 'NONE', #275, 1000.000000000000000 ) ;
#330 = CARTESIAN_POINT ( 'NONE',  ( -71.25849803319519538, 3.000000000000000000, -22.56519104384513241 ) ) ;
#331 = DIRECTION ( 'NONE',  ( 0.000000000000000000, 0.000000000000000000, -1.000000000000000000 ) ) ;
#332 = DIRECTION ( 'NONE',  ( 1.000000000000000000, 0.000000000000000000, -0.000000000000000000 ) ) ;
#333 = LOCAL_TIME ( 18, 35, 18.00000000000000000, #344 ) ;
#334 =( NAMED_UNIT ( * ) PLANE_ANGLE_UNIT ( ) SI_UNIT ( $, .RADIAN. ) );
#335 = VERTEX_POINT ( 'NONE', #340 ) ;
#336 = CARTESIAN_POINT ( 'NONE',  ( -71.25849803319519538, 0.000000000000000000, -2.565191043845137298 ) ) ;
#337 = CC_DESIGN_DATE_AND_TIME_ASSIGNMENT ( #88, #234, ( #11 ) ) ;
#338 = CARTESIAN_POINT ( 'NONE',  ( -15.75849803319520603, 3.000000000000000000, -22.56519104384513241 ) ) ;
#339 = CIRCLE ( 'NONE', #291, 2.000000000000000000 ) ;
#340 = CARTESIAN_POINT ( 'NONE',  ( -13.75849803319519715, 0.000000000000000000, -2.565191043845137298 ) ) ;
#341 = SHAPE_DEFINITION_REPRESENTATION ( #129, #85 ) ;
#342 = EDGE_LOOP ( 'NONE', ( #29, #169, #286, #48 ) ) ;
#343 = VECTOR ( 'NONE', #154, 1000.000000000000000 ) ;
#344 = COORDINATED_UNIVERSAL_TIME_OFFSET ( 0, 0, .AHEAD. ) ;
#345 = VERTEX_POINT ( 'NONE', #338 ) ;
#346 = DIRECTION ( 'NONE',  ( 1.000000000000000000, 0.000000000000000000, 0.000000000000000000 ) ) ;
#347 = ORIENTED_EDGE ( 'NONE', *, *, #280, .T. ) ;
#348 = CALENDAR_DATE ( 2026, 7, 9 ) ;
#349 = ORIENTED_EDGE ( 'NONE', *, *, #208, .T. ) ;
#350 = ADVANCED_FACE ( 'NONE', ( #305 ), #303, .F. ) ;
#351 = ORIENTED_EDGE ( 'NONE', *, *, #79, .T. ) ;
#352 = EDGE_CURVE ( 'NONE', #345, #233, #99, .T. ) ;
#353 = DIRECTION ( 'NONE',  ( 0.000000000000000000, 0.000000000000000000, 1.000000000000000000 ) ) ;
#354 = CARTESIAN_POINT ( 'NONE',  ( -71.25849803319519538, 3.000000000000000000, -22.56519104384513241 ) ) ;
#355 = DIRECTION ( 'NONE',  ( 0.000000000000000000, 0.000000000000000000, 1.000000000000000000 ) ) ;
#356 = APPROVAL_PERSON_ORGANIZATION ( #150, #324, #203 ) ;
#357 = LINE ( 'NONE', #97, #159 ) ;
#358 = PLANE ( 'NONE',  #45 ) ;
#359 = CARTESIAN_POINT ( 'NONE',  ( 0.000000000000000000, 3.000000000000000000, 0.000000000000000000 ) ) ;
#360 = EDGE_CURVE ( 'NONE', #335, #109, #209, .T. ) ;
#361 = AXIS2_PLACEMENT_3D ( 'NONE', #43, #168, #47 ) ;
#362 = CYLINDRICAL_SURFACE ( 'NONE', #368, 2.000000000000000000 ) ;
#363 = VERTEX_POINT ( 'NONE', #279 ) ;
#364 = DIRECTION ( 'NONE',  ( 0.000000000000000000, 0.000000000000000000, 1.000000000000000000 ) ) ;
#365 = CARTESIAN_POINT ( 'NONE',  ( -15.75849803319520603, 3.000000000000000000, -22.56519104384513241 ) ) ;
#366 = VERTEX_POINT ( 'NONE', #131 ) ;
#367 = CARTESIAN_POINT ( 'NONE',  ( -13.75849803319520426, 3.000000000000000000, -22.56519104384513241 ) ) ;
#368 = AXIS2_PLACEMENT_3D ( 'NONE', #136, #221, #12 ) ;
#369 = PERSON_AND_ORGANIZATION ( #198, #151 ) ;
#370 = ORIENTED_EDGE ( 'NONE', *, *, #66, .T. ) ;
#371 = PERSON_AND_ORGANIZATION ( #198, #151 ) ;
#372 = VERTEX_POINT ( 'NONE', #218 ) ;
#373 = DATE_AND_TIME ( #232, #75 ) ;
#374 = ORIENTED_EDGE ( 'NONE', *, *, #208, .F. ) ;
#375 = CIRCLE ( 'NONE', #96, 2.000000000000000000 ) ;
#376 = CARTESIAN_POINT ( 'NONE',  ( -71.25849803319519538, 0.000000000000000000, -0.5651910438451355212 ) ) ;
#377 = EDGE_CURVE ( 'NONE', #28, #111, #33, .T. ) ;
ENDSEC;
END-ISO-10303-21;
