ISO-10303-21;
HEADER;
FILE_DESCRIPTION (( 'STEP AP203' ),
    '1' );
FILE_NAME ('Book1.step',
    '2026-09-07T17:35:18',
    ( '' ),
    ( '' ),
    'SwSTEP 2.0',
    'SolidWorks 2026',
    '' );
FILE_SCHEMA (( 'CONFIG_CONTROL_DESIGN' ));
ENDSEC;

DATA;
#1 = CARTESIAN_POINT ( 'NONE',  ( -42.34636501085226001, 23.99190339624137636, 0.000000000000000000 ) ) ;
#2 = EDGE_CURVE ( 'NONE', #162, #602, #87, .T. ) ;
#3 = CC_DESIGN_PERSON_AND_ORGANIZATION_ASSIGNMENT ( #451, #75, ( #534 ) ) ;
#4 = EDGE_CURVE ( 'NONE', #228, #426, #88, .T. ) ;
#5 = ORIENTED_EDGE ( 'NONE', *, *, #140, .F. ) ;
#6 = CYLINDRICAL_SURFACE ( 'NONE', #482, 1.000000000000000000 ) ;
#7 = ORIENTED_EDGE ( 'NONE', *, *, #319, .T. ) ;
#8 = AXIS2_PLACEMENT_3D ( 'NONE', #39, #42, #391 ) ;
#9 = AXIS2_PLACEMENT_3D ( 'NONE', #618, #11, #254 ) ;
#10 = CARTESIAN_POINT ( 'NONE',  ( -38.34636501085226001, 23.99190339624137636, 0.000000000000000000 ) ) ;
#11 = DIRECTION ( 'NONE',  ( 1.000000000000000000, -0.000000000000000000, 0.000000000000000000 ) ) ;
#12 = EDGE_LOOP ( 'NONE', ( #72, #180, #553, #278 ) ) ;
#13 = DIRECTION ( 'NONE',  ( -0.000000000000000000, 0.000000000000000000, 1.000000000000000000 ) ) ;
#14 = PERSON_AND_ORGANIZATION_ROLE ( 'design_supplier' ) ;
#15 = CYLINDRICAL_SURFACE ( 'NONE', #59, 0.5000000000000000000 ) ;
#16 = EDGE_LOOP ( 'NONE', ( #289, #96, #26, #540 ) ) ;
#17 = PLANE ( 'NONE',  #461 ) ;
#18 = APPROVAL_ROLE ( '' ) ;
#19 = DIRECTION ( 'NONE',  ( 1.000000000000000000, -0.000000000000000000, -0.000000000000000000 ) ) ;
#20 = ORIENTED_EDGE ( 'NONE', *, *, #276, .T. ) ;
#21 = CARTESIAN_POINT ( 'NONE',  ( -38.34636501085226001, 23.99190339624137636, 7.000000000000000000 ) ) ;
#22 = APPROVAL_DATE_TIME ( #69, #598 ) ;
#23 = VECTOR ( 'NONE', #437, 1000.000000000000000 ) ;
#24 = AXIS2_PLACEMENT_3D ( 'NONE', #207, #174, #409 ) ;
#25 = CARTESIAN_POINT ( 'NONE',  ( -38.34636501085226001, 16.49190339624137636, -0.5000000000000000000 ) ) ;
#26 = ORIENTED_EDGE ( 'NONE', *, *, #170, .F. ) ;
#27 = EDGE_CURVE ( 'NONE', #453, #202, #182, .T. ) ;
#28 = COORDINATED_UNIVERSAL_TIME_OFFSET ( 0, 0, .AHEAD. ) ;
#29 = LINE ( 'NONE', #371, #613 ) ;
#30 = PLANE ( 'NONE',  #518 ) ;
#31 = DATE_TIME_ROLE ( 'classification_date' ) ;
#32 = LINE ( 'NONE', #464, #247 ) ;
#33 = EDGE_LOOP ( 'NONE', ( #47, #293, #412, #462 ) ) ;
#34 = CARTESIAN_POINT ( 'NONE',  ( -42.34636501085226001, 23.99190339624137636, 0.000000000000000000 ) ) ;
#35 = DIRECTION ( 'NONE',  ( -1.000000000000000000, -0.000000000000000000, 0.000000000000000000 ) ) ;
#36 = DIRECTION ( 'NONE',  ( 0.000000000000000000, -0.000000000000000000, 1.000000000000000000 ) ) ;
#37 = VERTEX_POINT ( 'NONE', #471 ) ;
#38 = CARTESIAN_POINT ( 'NONE',  ( -42.34636501085226001, 20.99190339624137636, -1.000000000000000000 ) ) ;
#39 = CARTESIAN_POINT ( 'NONE',  ( -41.34636501085226001, 23.99190339624137636, 6.000000000000000000 ) ) ;
#40 = CIRCLE ( 'NONE', #642, 1.000000000000000000 ) ;
#41 = EDGE_CURVE ( 'NONE', #133, #456, #611, .T. ) ;
#42 = DIRECTION ( 'NONE',  ( -0.000000000000000000, 1.000000000000000000, -0.000000000000000000 ) ) ;
#43 = EDGE_LOOP ( 'NONE', ( #608, #220, #184, #365, #428, #291 ) ) ;
#44 = CARTESIAN_POINT ( 'NONE',  ( -42.34636501085226001, 15.99190339624137458, -0.5000000000000000000 ) ) ;
#45 = CARTESIAN_POINT ( 'NONE',  ( -42.34636501085226001, 21.99190339624137636, -0.5000000000000000000 ) ) ;
#46 = ADVANCED_FACE ( 'NONE', ( #187 ), #30, .T. ) ;
#47 = ORIENTED_EDGE ( 'NONE', *, *, #4, .F. ) ;
#48 = UNCERTAINTY_MEASURE_WITH_UNIT (LENGTH_MEASURE( 1.000000000000000082E-05 ), #337, 'distance_accuracy_value', 'NONE');
#49 = CC_DESIGN_DATE_AND_TIME_ASSIGNMENT ( #571, #65, ( #534 ) ) ;
#50 = CARTESIAN_POINT ( 'NONE',  ( -38.34636501085226001, 15.99190339624137458, 0.000000000000000000 ) ) ;
#51 = ORIENTED_EDGE ( 'NONE', *, *, #477, .T. ) ;
#52 = DIRECTION ( 'NONE',  ( 0.000000000000000000, 0.000000000000000000, 1.000000000000000000 ) ) ;
#53 = ORIENTED_EDGE ( 'NONE', *, *, #89, .T. ) ;
#54 = DIRECTION ( 'NONE',  ( -0.000000000000000000, -0.000000000000000000, 1.000000000000000000 ) ) ;
#55 = PLANE ( 'NONE',  #134 ) ;
#56 = ORIENTED_EDGE ( 'NONE', *, *, #588, .F. ) ;
#57 = EDGE_CURVE ( 'NONE', #456, #83, #331, .T. ) ;
#58 = CLOSED_SHELL ( 'NONE', ( #533, #297, #620, #233, #392, #524, #340, #224, #284, #366, #387, #580, #572, #46, #200, #344, #322, #91 ) ) ;
#59 = AXIS2_PLACEMENT_3D ( 'NONE', #607, #161, #357 ) ;
#60 = CARTESIAN_POINT ( 'NONE',  ( -42.34636501085226001, 23.99190339624137636, 6.000000000000000000 ) ) ;
#61 = COORDINATED_UNIVERSAL_TIME_OFFSET ( 0, 0, .AHEAD. ) ;
#62 = CARTESIAN_POINT ( 'NONE',  ( -38.34636501085226001, 13.99190339624137458, 0.000000000000000000 ) ) ;
#63 = ORIENTED_EDGE ( 'NONE', *, *, #597, .T. ) ;
#64 = FACE_OUTER_BOUND ( 'NONE', #12, .T. ) ;
#65 = DATE_TIME_ROLE ( 'creation_date' ) ;
#66 = CARTESIAN_POINT ( 'NONE',  ( -42.34636501085226001, 16.99190339624137636, 0.000000000000000000 ) ) ;
#67 = ORIENTED_EDGE ( 'NONE', *, *, #316, .T. ) ;
#68 = DIRECTION ( 'NONE',  ( 0.000000000000000000, 0.000000000000000000, 1.000000000000000000 ) ) ;
#69 = DATE_AND_TIME ( #167, #513 ) ;
#70 = SECURITY_CLASSIFICATION ( '', '', #114 ) ;
#71 = FACE_OUTER_BOUND ( 'NONE', #315, .T. ) ;
#72 = ORIENTED_EDGE ( 'NONE', *, *, #121, .F. ) ;
#73 = EDGE_CURVE ( 'NONE', #152, #368, #223, .T. ) ;
#74 = CARTESIAN_POINT ( 'NONE',  ( -42.34636501085226001, 13.99190339624137458, 0.000000000000000000 ) ) ;
#75 = PERSON_AND_ORGANIZATION_ROLE ( 'creator' ) ;
#76 = VECTOR ( 'NONE', #323, 1000.000000000000000 ) ;
#77 = EDGE_CURVE ( 'NONE', #232, #602, #230, .T. ) ;
#78 = DIRECTION ( 'NONE',  ( -1.000000000000000000, -0.000000000000000000, -0.000000000000000000 ) ) ;
#79 = ORIENTED_EDGE ( 'NONE', *, *, #199, .F. ) ;
#80 = CARTESIAN_POINT ( 'NONE',  ( -38.34636501085226001, 15.99190339624137458, -1.000000000000000000 ) ) ;
#81 = ORIENTED_EDGE ( 'NONE', *, *, #154, .T. ) ;
#82 = CARTESIAN_POINT ( 'NONE',  ( -42.34636501085226001, 16.99190339624137636, -0.5000000000000000000 ) ) ;
#83 = VERTEX_POINT ( 'NONE', #295 ) ;
#84 = VECTOR ( 'NONE', #78, 1000.000000000000000 ) ;
#85 = DIRECTION ( 'NONE',  ( 0.000000000000000000, -1.000000000000000000, 0.000000000000000000 ) ) ;
#86 = CIRCLE ( 'NONE', #165, 0.5000000000000000000 ) ;
#87 = LINE ( 'NONE', #532, #424 ) ;
#88 = LINE ( 'NONE', #476, #163 ) ;
#89 = EDGE_CURVE ( 'NONE', #342, #355, #488, .T. ) ;
#90 = ORIENTED_EDGE ( 'NONE', *, *, #384, .T. ) ;
#91 = ADVANCED_FACE ( 'NONE', ( #336 ), #586, .T. ) ;
#92 = DIRECTION ( 'NONE',  ( 0.000000000000000000, 0.000000000000000000, -1.000000000000000000 ) ) ;
#93 = AXIS2_PLACEMENT_3D ( 'NONE', #112, #305, #504 ) ;
#94 = VERTEX_POINT ( 'NONE', #1 ) ;
#95 = DIRECTION ( 'NONE',  ( -1.000000000000000000, 0.000000000000000000, 0.000000000000000000 ) ) ;
#96 = ORIENTED_EDGE ( 'NONE', *, *, #548, .F. ) ;
#97 = CARTESIAN_POINT ( 'NONE',  ( 0.000000000000000000, 0.000000000000000000, 7.000000000000000000 ) ) ;
#98 = ORIENTED_EDGE ( 'NONE', *, *, #203, .F. ) ;
#99 = PRODUCT_RELATED_PRODUCT_CATEGORY ( 'detail', '', ( #339 ) ) ;
#100 = CARTESIAN_POINT ( 'NONE',  ( 0.000000000000000000, 0.000000000000000000, 0.000000000000000000 ) ) ;
#101 = CARTESIAN_POINT ( 'NONE',  ( -39.34636501085226001, 23.99190339624137636, 6.000000000000000000 ) ) ;
#102 = AXIS2_PLACEMENT_3D ( 'NONE', #287, #147, #543 ) ;
#103 = ORIENTED_EDGE ( 'NONE', *, *, #548, .T. ) ;
#104 = CC_DESIGN_APPROVAL ( #343, ( #534 ) ) ;
#105 = CARTESIAN_POINT ( 'NONE',  ( -42.34636501085226001, 13.99190339624137458, 0.000000000000000000 ) ) ;
#106 = EDGE_LOOP ( 'NONE', ( #5, #493, #399, #156 ) ) ;
#107 = CARTESIAN_POINT ( 'NONE',  ( -38.34636501085226001, 15.99190339624137458, -1.000000000000000000 ) ) ;
#108 = LINE ( 'NONE', #205, #381 ) ;
#109 = EDGE_CURVE ( 'NONE', #266, #372, #595, .T. ) ;
#110 = ORIENTED_EDGE ( 'NONE', *, *, #77, .T. ) ;
#111 = APPROVAL_STATUS ( 'not_yet_approved' ) ;
#112 = CARTESIAN_POINT ( 'NONE',  ( -42.34636501085226001, 23.99190339624137636, 7.000000000000000000 ) ) ;
#113 = ORIENTED_EDGE ( 'NONE', *, *, #645, .F. ) ;
#114 = SECURITY_CLASSIFICATION_LEVEL ( 'unclassified' ) ;
#115 = CARTESIAN_POINT ( 'NONE',  ( -38.34636501085226001, 15.99190339624137458, 0.000000000000000000 ) ) ;
#116 = VERTEX_POINT ( 'NONE', #192 ) ;
#117 = PLANE ( 'NONE',  #272 ) ;
#118 = PERSON_AND_ORGANIZATION_ROLE ( 'classification_officer' ) ;
#119 = EDGE_CURVE ( 'NONE', #453, #232, #198, .T. ) ;
#120 = FACE_OUTER_BOUND ( 'NONE', #489, .T. ) ;
#121 = EDGE_CURVE ( 'NONE', #152, #162, #285, .T. ) ;
#122 = DIRECTION ( 'NONE',  ( 0.000000000000000000, -0.000000000000000000, -1.000000000000000000 ) ) ;
#123 = DIRECTION ( 'NONE',  ( 0.000000000000000000, 0.000000000000000000, 1.000000000000000000 ) ) ;
#124 = ORIENTED_EDGE ( 'NONE', *, *, #584, .T. ) ;
#125 = LINE ( 'NONE', #447, #559 ) ;
#126 = APPROVAL_ROLE ( '' ) ;
#127 = AXIS2_PLACEMENT_3D ( 'NONE', #507, #497, #209 ) ;
#128 = CARTESIAN_POINT ( 'NONE',  ( -42.34636501085226001, 23.99190339624137636, 7.000000000000000000 ) ) ;
#129 = ORIENTED_EDGE ( 'NONE', *, *, #469, .T. ) ;
#130 = LINE ( 'NONE', #229, #529 ) ;
#131 = ORIENTED_EDGE ( 'NONE', *, *, #253, .T. ) ;
#132 = CARTESIAN_POINT ( 'NONE',  ( -41.34636501085226001, 13.99190339624137458, 7.000000000000000000 ) ) ;
#133 = VERTEX_POINT ( 'NONE', #45 ) ;
#134 = AXIS2_PLACEMENT_3D ( 'NONE', #555, #364, #268 ) ;
#135 = DIRECTION ( 'NONE',  ( -0.000000000000000000, -0.000000000000000000, -1.000000000000000000 ) ) ;
#136 = AXIS2_PLACEMENT_3D ( 'NONE', #21, #309, #68 ) ;
#137 = ORIENTED_EDGE ( 'NONE', *, *, #332, .F. ) ;
#138 = EDGE_CURVE ( 'NONE', #368, #266, #574, .T. ) ;
#139 = DIRECTION ( 'NONE',  ( 0.000000000000000000, 1.000000000000000000, 0.000000000000000000 ) ) ;
#140 = EDGE_CURVE ( 'NONE', #355, #116, #151, .T. ) ;
#141 = CARTESIAN_POINT ( 'NONE',  ( -38.34636501085226001, 20.99190339624137636, -0.5000000000000000000 ) ) ;
#142 = ORIENTED_EDGE ( 'NONE', *, *, #27, .T. ) ;
#143 = CARTESIAN_POINT ( 'NONE',  ( -42.34636501085226001, 16.99190339624137636, 0.000000000000000000 ) ) ;
#144 = CIRCLE ( 'NONE', #473, 0.5000000000000000000 ) ;
#145 = AXIS2_PLACEMENT_3D ( 'NONE', #80, #179, #36 ) ;
#146 = ORIENTED_EDGE ( 'NONE', *, *, #138, .T. ) ;
#147 = DIRECTION ( 'NONE',  ( -1.000000000000000000, 0.000000000000000000, 0.000000000000000000 ) ) ;
#148 = DESIGN_CONTEXT ( 'detailed design', #395, 'design' ) ;
#149 = DIRECTION ( 'NONE',  ( 0.000000000000000000, 0.000000000000000000, 1.000000000000000000 ) ) ;
#150 = CARTESIAN_POINT ( 'NONE',  ( -38.34636501085226001, 20.99190339624137636, 0.000000000000000000 ) ) ;
#151 = LINE ( 'NONE', #50, #632 ) ;
#152 = VERTEX_POINT ( 'NONE', #440 ) ;
#153 = AXIS2_PLACEMENT_3D ( 'NONE', #100, #243, #546 ) ;
#154 = EDGE_CURVE ( 'NONE', #596, #537, #345, .T. ) ;
#155 = LINE ( 'NONE', #411, #281 ) ;
#156 = ORIENTED_EDGE ( 'NONE', *, *, #413, .F. ) ;
#157 =( NAMED_UNIT ( * ) PLANE_ANGLE_UNIT ( ) SI_UNIT ( $, .RADIAN. ) );
#158 = DIRECTION ( 'NONE',  ( 0.000000000000000000, 1.000000000000000000, 0.000000000000000000 ) ) ;
#159 = EDGE_LOOP ( 'NONE', ( #417, #248, #173, #283 ) ) ;
#160 = COORDINATED_UNIVERSAL_TIME_OFFSET ( 0, 0, .AHEAD. ) ;
#161 = DIRECTION ( 'NONE',  ( 1.000000000000000000, 0.000000000000000000, 0.000000000000000000 ) ) ;
#162 = VERTEX_POINT ( 'NONE', #536 ) ;
#163 = VECTOR ( 'NONE', #465, 1000.000000000000000 ) ;
#164 = VECTOR ( 'NONE', #522, 1000.000000000000000 ) ;
#165 = AXIS2_PLACEMENT_3D ( 'NONE', #374, #568, #123 ) ;
#166 = CARTESIAN_POINT ( 'NONE',  ( -42.34636501085226001, 16.49190339624137636, -0.5000000000000000000 ) ) ;
#167 = CALENDAR_DATE ( 2026, 7, 9 ) ;
#168 = DIRECTION ( 'NONE',  ( 0.000000000000000000, 0.000000000000000000, 1.000000000000000000 ) ) ;
#169 = ORIENTED_EDGE ( 'NONE', *, *, #121, .T. ) ;
#170 = EDGE_CURVE ( 'NONE', #349, #585, #431, .T. ) ;
#171 = CARTESIAN_POINT ( 'NONE',  ( -42.34636501085226001, 20.99190339624137636, -1.000000000000000000 ) ) ;
#172 = DIRECTION ( 'NONE',  ( 1.000000000000000000, -0.000000000000000000, -0.000000000000000000 ) ) ;
#173 = ORIENTED_EDGE ( 'NONE', *, *, #316, .F. ) ;
#174 = DIRECTION ( 'NONE',  ( 0.000000000000000000, -1.000000000000000000, 0.000000000000000000 ) ) ;
#175 = PERSON_AND_ORGANIZATION_ROLE ( 'creator' ) ;
#176 = LINE ( 'NONE', #422, #84 ) ;
#177 = ORIENTED_EDGE ( 'NONE', *, *, #185, .F. ) ;
#178 = EDGE_CURVE ( 'NONE', #575, #262, #286, .T. ) ;
#179 = DIRECTION ( 'NONE',  ( 0.000000000000000000, 1.000000000000000000, 0.000000000000000000 ) ) ;
#180 = ORIENTED_EDGE ( 'NONE', *, *, #73, .T. ) ;
#181 = LINE ( 'NONE', #427, #503 ) ;
#182 = LINE ( 'NONE', #38, #244 ) ;
#183 = CARTESIAN_POINT ( 'NONE',  ( -38.34636501085226001, 16.49190339624137636, -1.000000000000000000 ) ) ;
#184 = ORIENTED_EDGE ( 'NONE', *, *, #402, .F. ) ;
#185 = EDGE_CURVE ( 'NONE', #232, #83, #558, .T. ) ;
#186 = VECTOR ( 'NONE', #442, 1000.000000000000000 ) ;
#187 = FACE_OUTER_BOUND ( 'NONE', #33, .T. ) ;
#188 = EDGE_CURVE ( 'NONE', #256, #162, #197, .T. ) ;
#189 = CC_DESIGN_DATE_AND_TIME_ASSIGNMENT ( #463, #31, ( #70 ) ) ;
#190 = CYLINDRICAL_SURFACE ( 'NONE', #626, 0.5000000000000000000 ) ;
#191 = ORIENTED_EDGE ( 'NONE', *, *, #2, .F. ) ;
#192 = CARTESIAN_POINT ( 'NONE',  ( -42.34636501085226001, 15.99190339624137458, 0.000000000000000000 ) ) ;
#193 = ORIENTED_EDGE ( 'NONE', *, *, #140, .T. ) ;
#194 = DIRECTION ( 'NONE',  ( -0.000000000000000000, -0.000000000000000000, 1.000000000000000000 ) ) ;
#195 = CIRCLE ( 'NONE', #396, 0.5000000000000000000 ) ;
#196 = DIRECTION ( 'NONE',  ( 0.000000000000000000, 0.000000000000000000, 1.000000000000000000 ) ) ;
#197 = LINE ( 'NONE', #143, #320 ) ;
#198 = LINE ( 'NONE', #141, #545 ) ;
#199 = EDGE_CURVE ( 'NONE', #228, #133, #239, .T. ) ;
#200 = ADVANCED_FACE ( 'NONE', ( #434 ), #190, .T. ) ;
#201 = CARTESIAN_POINT ( 'NONE',  ( -41.34636501085226001, 0.000000000000000000, 6.000000000000000000 ) ) ;
#202 = VERTEX_POINT ( 'NONE', #388 ) ;
#203 = EDGE_CURVE ( 'NONE', #591, #94, #589, .T. ) ;
#204 = LINE ( 'NONE', #400, #600 ) ;
#205 = CARTESIAN_POINT ( 'NONE',  ( -38.34636501085226001, 15.99190339624137458, -0.5000000000000000000 ) ) ;
#206 = VERTEX_POINT ( 'NONE', #44 ) ;
#207 = CARTESIAN_POINT ( 'NONE',  ( -42.34636501085226001, 16.99190339624137636, -1.000000000000000000 ) ) ;
#208 = CALENDAR_DATE ( 2026, 7, 9 ) ;
#209 = DIRECTION ( 'NONE',  ( 0.000000000000000000, 0.000000000000000000, -1.000000000000000000 ) ) ;
#210 = ORIENTED_EDGE ( 'NONE', *, *, #235, .F. ) ;
#211 = PLANE ( 'NONE',  #136 ) ;
#212 = PERSON_AND_ORGANIZATION ( #242, #583 ) ;
#213 = CC_DESIGN_PERSON_AND_ORGANIZATION_ASSIGNMENT ( #363, #304, ( #339 ) ) ;
#214 = FACE_OUTER_BOUND ( 'NONE', #475, .T. ) ;
#215 = ORIENTED_EDGE ( 'NONE', *, *, #446, .T. ) ;
#216 = VECTOR ( 'NONE', #35, 1000.000000000000000 ) ;
#217 = DIRECTION ( 'NONE',  ( 0.000000000000000000, -1.000000000000000000, 0.000000000000000000 ) ) ;
#218 = APPLICATION_PROTOCOL_DEFINITION ( 'international standard', 'config_control_design', 1994, #637 ) ;
#219 = DIRECTION ( 'NONE',  ( 0.000000000000000000, 0.000000000000000000, 1.000000000000000000 ) ) ;
#220 = ORIENTED_EDGE ( 'NONE', *, *, #178, .T. ) ;
#221 = CARTESIAN_POINT ( 'NONE',  ( -38.34636501085226001, 21.49190339624137636, -0.5000000000000000000 ) ) ;
#222 = DIRECTION ( 'NONE',  ( -0.000000000000000000, 1.000000000000000000, -0.000000000000000000 ) ) ;
#223 = LINE ( 'NONE', #623, #216 ) ;
#224 = ADVANCED_FACE ( 'NONE', ( #241 ), #590, .T. ) ;
#225 = SHAPE_DEFINITION_REPRESENTATION ( #249, #261 ) ;
#226 = CC_DESIGN_SECURITY_CLASSIFICATION ( #70, ( #519 ) ) ;
#227 = PLANE ( 'NONE',  #501 ) ;
#228 = VERTEX_POINT ( 'NONE', #351 ) ;
#229 = CARTESIAN_POINT ( 'NONE',  ( -42.34636501085226001, 23.99190339624137636, 6.000000000000000000 ) ) ;
#230 = LINE ( 'NONE', #341, #294 ) ;
#231 = LINE ( 'NONE', #34, #164 ) ;
#232 = VERTEX_POINT ( 'NONE', #552 ) ;
#233 = ADVANCED_FACE ( 'NONE', ( #71 ), #55, .F. ) ;
#234 = CC_DESIGN_APPROVAL ( #598, ( #70 ) ) ;
#235 = EDGE_CURVE ( 'NONE', #206, #334, #108, .T. ) ;
#236 = CC_DESIGN_PERSON_AND_ORGANIZATION_ASSIGNMENT ( #356, #14, ( #519 ) ) ;
#237 = DIRECTION ( 'NONE',  ( -0.000000000000000000, -0.000000000000000000, 1.000000000000000000 ) ) ;
#238 = DIRECTION ( 'NONE',  ( 1.000000000000000000, 0.000000000000000000, 0.000000000000000000 ) ) ;
#239 = LINE ( 'NONE', #539, #472 ) ;
#240 = EDGE_LOOP ( 'NONE', ( #514, #129, #520, #169, #498, #631, #393, #508, #404, #640, #352, #103, #579, #53 ) ) ;
#241 = FACE_OUTER_BOUND ( 'NONE', #569, .T. ) ;
#242 = PERSON ( 'UNSPECIFIED', 'UNSPECIFIED', 'UNSPECIFIED', ('UNSPECIFIED'), ('UNSPECIFIED'), ('UNSPECIFIED') ) ;
#243 = DIRECTION ( 'NONE',  ( -0.000000000000000000, 0.000000000000000000, 1.000000000000000000 ) ) ;
#244 = VECTOR ( 'NONE', #237, 1000.000000000000000 ) ;
#245 = VECTOR ( 'NONE', #486, 1000.000000000000000 ) ;
#246 = DIRECTION ( 'NONE',  ( 1.000000000000000000, 0.000000000000000000, 0.000000000000000000 ) ) ;
#247 = VECTOR ( 'NONE', #517, 1000.000000000000000 ) ;
#248 = ORIENTED_EDGE ( 'NONE', *, *, #433, .F. ) ;
#249 = PRODUCT_DEFINITION_SHAPE ( 'NONE', 'NONE',  #534 ) ;
#250 = CARTESIAN_POINT ( 'NONE',  ( -38.34636501085226001, 13.99190339624137458, 6.000000000000000000 ) ) ;
#251 = DIRECTION ( 'NONE',  ( -0.000000000000000000, -0.000000000000000000, 1.000000000000000000 ) ) ;
#252 = ORIENTED_EDGE ( 'NONE', *, *, #235, .T. ) ;
#253 = EDGE_CURVE ( 'NONE', #456, #453, #460, .T. ) ;
#254 = DIRECTION ( 'NONE',  ( 0.000000000000000000, 0.000000000000000000, -1.000000000000000000 ) ) ;
#255 = EDGE_CURVE ( 'NONE', #202, #256, #494, .T. ) ;
#256 = VERTEX_POINT ( 'NONE', #66 ) ;
#257 = CARTESIAN_POINT ( 'NONE',  ( -41.34636501085226001, 13.99190339624137458, 6.000000000000000000 ) ) ;
#258 = ORIENTED_EDGE ( 'NONE', *, *, #531, .F. ) ;
#259 = CARTESIAN_POINT ( 'NONE',  ( 0.000000000000000000, 0.000000000000000000, 0.000000000000000000 ) ) ;
#260 = FACE_OUTER_BOUND ( 'NONE', #487, .T. ) ;
#261 = ADVANCED_BREP_SHAPE_REPRESENTATION ( 'Book1', ( #566, #296 ), #635 ) ;
#262 = VERTEX_POINT ( 'NONE', #265 ) ;
#263 = PLANE ( 'NONE',  #24 ) ;
#264 = APPROVAL_STATUS ( 'not_yet_approved' ) ;
#265 = CARTESIAN_POINT ( 'NONE',  ( -41.34636501085226001, 23.99190339624137636, 7.000000000000000000 ) ) ;
#266 = VERTEX_POINT ( 'NONE', #512 ) ;
#267 = CARTESIAN_POINT ( 'NONE',  ( 0.000000000000000000, 0.000000000000000000, 0.000000000000000000 ) ) ;
#268 = DIRECTION ( 'NONE',  ( -0.000000000000000000, 0.000000000000000000, -1.000000000000000000 ) ) ;
#269 = ORIENTED_EDGE ( 'NONE', *, *, #638, .T. ) ;
#270 = AXIS2_PLACEMENT_3D ( 'NONE', #541, #394, #385 ) ;
#271 = AXIS2_PLACEMENT_3D ( 'NONE', #435, #644, #390 ) ;
#272 = AXIS2_PLACEMENT_3D ( 'NONE', #171, #217, #122 ) ;
#273 = APPROVAL_DATE_TIME ( #563, #418 ) ;
#274 = CARTESIAN_POINT ( 'NONE',  ( -42.34636501085226001, 13.99190339624137458, 7.000000000000000000 ) ) ;
#275 = ORIENTED_EDGE ( 'NONE', *, *, #288, .F. ) ;
#276 = EDGE_CURVE ( 'NONE', #582, #342, #302, .T. ) ;
#277 = DIRECTION ( 'NONE',  ( 1.000000000000000000, 0.000000000000000000, 0.000000000000000000 ) ) ;
#278 = ORIENTED_EDGE ( 'NONE', *, *, #188, .T. ) ;
#279 = DIRECTION ( 'NONE',  ( 0.000000000000000000, -0.000000000000000000, 1.000000000000000000 ) ) ;
#280 = ORIENTED_EDGE ( 'NONE', *, *, #413, .T. ) ;
#281 = VECTOR ( 'NONE', #452, 1000.000000000000000 ) ;
#282 = CYLINDRICAL_SURFACE ( 'NONE', #358, 1.000000000000000000 ) ;
#283 = ORIENTED_EDGE ( 'NONE', *, *, #509, .F. ) ;
#284 = ADVANCED_FACE ( 'NONE', ( #455 ), #6, .T. ) ;
#285 = LINE ( 'NONE', #480, #380 ) ;
#286 = CIRCLE ( 'NONE', #8, 1.000000000000000000 ) ;
#287 = CARTESIAN_POINT ( 'NONE',  ( -42.34636501085226001, 21.49190339624137636, -0.5000000000000000000 ) ) ;
#288 = EDGE_CURVE ( 'NONE', #372, #152, #195, .T. ) ;
#289 = ORIENTED_EDGE ( 'NONE', *, *, #154, .F. ) ;
#290 = CARTESIAN_POINT ( 'NONE',  ( -42.34636501085226001, 23.99190339624137636, 0.000000000000000000 ) ) ;
#291 = ORIENTED_EDGE ( 'NONE', *, *, #203, .T. ) ;
#292 = DIRECTION ( 'NONE',  ( -0.000000000000000000, 0.000000000000000000, 1.000000000000000000 ) ) ;
#293 = ORIENTED_EDGE ( 'NONE', *, *, #199, .T. ) ;
#294 = VECTOR ( 'NONE', #251, 1000.000000000000000 ) ;
#295 = CARTESIAN_POINT ( 'NONE',  ( -38.34636501085226001, 21.49190339624137636, -1.000000000000000000 ) ) ;
#296 = AXIS2_PLACEMENT_3D ( 'NONE', #259, #557, #554 ) ;
#297 = ADVANCED_FACE ( 'NONE', ( #214 ), #601, .F. ) ;
#298 = ORIENTED_EDGE ( 'NONE', *, *, #477, .F. ) ;
#299 = CC_DESIGN_PERSON_AND_ORGANIZATION_ASSIGNMENT ( #406, #118, ( #70 ) ) ;
#300 = DIRECTION ( 'NONE',  ( 0.000000000000000000, -1.000000000000000000, 0.000000000000000000 ) ) ;
#301 = ORIENTED_EDGE ( 'NONE', *, *, #119, .F. ) ;
#302 = LINE ( 'NONE', #105, #634 ) ;
#303 = ORIENTED_EDGE ( 'NONE', *, *, #469, .F. ) ;
#304 = PERSON_AND_ORGANIZATION_ROLE ( 'design_owner' ) ;
#305 = DIRECTION ( 'NONE',  ( 0.000000000000000000, -1.000000000000000000, 0.000000000000000000 ) ) ;
#306 = CIRCLE ( 'NONE', #389, 0.5000000000000000000 ) ;
#307 = ORIENTED_EDGE ( 'NONE', *, *, #255, .T. ) ;
#308 = VECTOR ( 'NONE', #135, 1000.000000000000000 ) ;
#309 = DIRECTION ( 'NONE',  ( -1.000000000000000000, 0.000000000000000000, 0.000000000000000000 ) ) ;
#310 = FACE_OUTER_BOUND ( 'NONE', #16, .T. ) ;
#311 = EDGE_LOOP ( 'NONE', ( #523, #450, #177, #301 ) ) ;
#312 = DIRECTION ( 'NONE',  ( -1.000000000000000000, -0.000000000000000000, 0.000000000000000000 ) ) ;
#313 = COORDINATED_UNIVERSAL_TIME_OFFSET ( 0, 0, .AHEAD. ) ;
#314 = FACE_OUTER_BOUND ( 'NONE', #43, .T. ) ;
#315 = EDGE_LOOP ( 'NONE', ( #146, #542, #90, #280, #619, #605, #215, #63, #56, #484, #131, #142, #307, #113 ) ) ;
#316 = EDGE_CURVE ( 'NONE', #505, #445, #40, .T. ) ;
#317 = LINE ( 'NONE', #622, #530 ) ;
#318 = ORIENTED_EDGE ( 'NONE', *, *, #109, .T. ) ;
#319 = EDGE_CURVE ( 'NONE', #426, #37, #155, .T. ) ;
#320 = VECTOR ( 'NONE', #238, 1000.000000000000000 ) ;
#321 = VECTOR ( 'NONE', #401, 1000.000000000000000 ) ;
#322 = ADVANCED_FACE ( 'NONE', ( #120 ), #416, .T. ) ;
#323 = DIRECTION ( 'NONE',  ( 0.000000000000000000, -1.000000000000000000, 0.000000000000000000 ) ) ;
#324 = ORIENTED_EDGE ( 'NONE', *, *, #188, .F. ) ;
#325 = CARTESIAN_POINT ( 'NONE',  ( -38.34636501085226001, 21.99190339624137636, 0.000000000000000000 ) ) ;
#326 = ORIENTED_EDGE ( 'NONE', *, *, #509, .T. ) ;
#327 = DIRECTION ( 'NONE',  ( -0.000000000000000000, -0.000000000000000000, 1.000000000000000000 ) ) ;
#328 = EDGE_LOOP ( 'NONE', ( #544, #561, #110, #535 ) ) ;
#329 = VECTOR ( 'NONE', #577, 1000.000000000000000 ) ;
#330 = ORIENTED_EDGE ( 'NONE', *, *, #402, .T. ) ;
#331 = LINE ( 'NONE', #375, #329 ) ;
#332 = EDGE_CURVE ( 'NONE', #596, #342, #614, .T. ) ;
#333 = CARTESIAN_POINT ( 'NONE',  ( -39.34636501085226001, 13.99190339624137458, 6.000000000000000000 ) ) ;
#334 = VERTEX_POINT ( 'NONE', #444 ) ;
#335 = LOCAL_TIME ( 18, 35, 18.00000000000000000, #160 ) ;
#336 = FACE_OUTER_BOUND ( 'NONE', #311, .T. ) ;
#337 =( LENGTH_UNIT ( ) NAMED_UNIT ( * ) SI_UNIT ( .MILLI., .METRE. ) );
#338 = DIRECTION ( 'NONE',  ( -0.000000000000000000, -0.000000000000000000, 1.000000000000000000 ) ) ;
#339 = PRODUCT ( 'Book1', 'Book1', '', ( #621 ) ) ;
#340 = ADVANCED_FACE ( 'NONE', ( #314 ), #354, .F. ) ;
#341 = CARTESIAN_POINT ( 'NONE',  ( -38.34636501085226001, 20.99190339624137636, -1.000000000000000000 ) ) ;
#342 = VERTEX_POINT ( 'NONE', #62 ) ;
#343 = APPROVAL ( #111, 'UNSPECIFIED' ) ;
#344 = ADVANCED_FACE ( 'NONE', ( #260 ), #15, .T. ) ;
#345 = CIRCLE ( 'NONE', #599, 1.000000000000000000 ) ;
#346 = AXIS2_PLACEMENT_3D ( 'NONE', #97, #292, #246 ) ;
#347 = DIRECTION ( 'NONE',  ( -1.000000000000000000, 0.000000000000000000, 0.000000000000000000 ) ) ;
#348 = LOCAL_TIME ( 18, 35, 18.00000000000000000, #61 ) ;
#349 = VERTEX_POINT ( 'NONE', #560 ) ;
#350 = DIRECTION ( 'NONE',  ( 1.000000000000000000, 0.000000000000000000, 0.000000000000000000 ) ) ;
#351 = CARTESIAN_POINT ( 'NONE',  ( -38.34636501085226001, 21.99190339624137636, -0.5000000000000000000 ) ) ;
#352 = ORIENTED_EDGE ( 'NONE', *, *, #479, .F. ) ;
#353 =( NAMED_UNIT ( * ) SI_UNIT ( $, .STERADIAN. ) SOLID_ANGLE_UNIT ( ) );
#354 = PLANE ( 'NONE',  #93 ) ;
#355 = VERTEX_POINT ( 'NONE', #115 ) ;
#356 = PERSON_AND_ORGANIZATION ( #242, #583 ) ;
#357 = DIRECTION ( 'NONE',  ( 0.000000000000000000, 0.000000000000000000, -1.000000000000000000 ) ) ;
#358 = AXIS2_PLACEMENT_3D ( 'NONE', #576, #85, #470 ) ;
#359 = VECTOR ( 'NONE', #499, 1000.000000000000000 ) ;
#360 = ORIENTED_EDGE ( 'NONE', *, *, #495, .F. ) ;
#361 = VECTOR ( 'NONE', #378, 1000.000000000000000 ) ;
#362 = CARTESIAN_POINT ( 'NONE',  ( -39.34636501085226001, 13.99190339624137458, 7.000000000000000000 ) ) ;
#363 = PERSON_AND_ORGANIZATION ( #242, #583 ) ;
#364 = DIRECTION ( 'NONE',  ( 1.000000000000000000, 0.000000000000000000, -0.000000000000000000 ) ) ;
#365 = ORIENTED_EDGE ( 'NONE', *, *, #170, .T. ) ;
#366 = ADVANCED_FACE ( 'NONE', ( #310 ), #282, .T. ) ;
#367 = DIRECTION ( 'NONE',  ( 1.000000000000000000, 0.000000000000000000, 0.000000000000000000 ) ) ;
#368 = VERTEX_POINT ( 'NONE', #82 ) ;
#369 = CARTESIAN_POINT ( 'NONE',  ( -38.34636501085226001, 23.99190339624137636, 6.000000000000000000 ) ) ;
#370 = CALENDAR_DATE ( 2026, 7, 9 ) ;
#371 = CARTESIAN_POINT ( 'NONE',  ( -38.34636501085226001, 23.99190339624137636, 0.000000000000000000 ) ) ;
#372 = VERTEX_POINT ( 'NONE', #183 ) ;
#373 = VECTOR ( 'NONE', #604, 1000.000000000000000 ) ;
#374 = CARTESIAN_POINT ( 'NONE',  ( -38.34636501085226001, 16.49190339624137636, -0.5000000000000000000 ) ) ;
#375 = CARTESIAN_POINT ( 'NONE',  ( -38.34636501085226001, 21.49190339624137636, -1.000000000000000000 ) ) ;
#376 = CARTESIAN_POINT ( 'NONE',  ( -42.34636501085226001, 13.99190339624137458, 6.000000000000000000 ) ) ;
#377 = CARTESIAN_POINT ( 'NONE',  ( -38.34636501085226001, 21.99190339624137636, -1.000000000000000000 ) ) ;
#378 = DIRECTION ( 'NONE',  ( -0.000000000000000000, -0.000000000000000000, -1.000000000000000000 ) ) ;
#379 = ORIENTED_EDGE ( 'NONE', *, *, #384, .F. ) ;
#380 = VECTOR ( 'NONE', #338, 1000.000000000000000 ) ;
#381 = VECTOR ( 'NONE', #19, 1000.000000000000000 ) ;
#382 = APPROVAL_PERSON_ORGANIZATION ( #415, #343, #18 ) ;
#383 = DIRECTION ( 'NONE',  ( 0.000000000000000000, -0.000000000000000000, 1.000000000000000000 ) ) ;
#384 = EDGE_CURVE ( 'NONE', #206, #116, #181, .T. ) ;
#385 = DIRECTION ( 'NONE',  ( 0.000000000000000000, 0.000000000000000000, -1.000000000000000000 ) ) ;
#386 = ORIENTED_EDGE ( 'NONE', *, *, #457, .T. ) ;
#387 = ADVANCED_FACE ( 'NONE', ( #425 ), #527, .F. ) ;
#388 = CARTESIAN_POINT ( 'NONE',  ( -42.34636501085226001, 20.99190339624137636, 0.000000000000000000 ) ) ;
#389 = AXIS2_PLACEMENT_3D ( 'NONE', #221, #603, #570 ) ;
#390 = DIRECTION ( 'NONE',  ( 0.000000000000000000, 0.000000000000000000, 1.000000000000000000 ) ) ;
#391 = DIRECTION ( 'NONE',  ( 0.000000000000000000, 0.000000000000000000, -1.000000000000000000 ) ) ;
#392 = ADVANCED_FACE ( 'NONE', ( #525 ), #227, .F. ) ;
#393 = ORIENTED_EDGE ( 'NONE', *, *, #185, .T. ) ;
#394 = DIRECTION ( 'NONE',  ( -1.000000000000000000, -0.000000000000000000, 0.000000000000000000 ) ) ;
#395 = APPLICATION_CONTEXT ( 'configuration controlled 3d designs of mechanical parts and assemblies' ) ;
#396 = AXIS2_PLACEMENT_3D ( 'NONE', #25, #172, #219 ) ;
#397 = DIRECTION ( 'NONE',  ( -0.000000000000000000, 0.000000000000000000, 1.000000000000000000 ) ) ;
#398 = APPROVAL_PERSON_ORGANIZATION ( #212, #418, #126 ) ;
#399 = ORIENTED_EDGE ( 'NONE', *, *, #276, .F. ) ;
#400 = CARTESIAN_POINT ( 'NONE',  ( -42.34636501085226001, 20.99190339624137636, 0.000000000000000000 ) ) ;
#401 = DIRECTION ( 'NONE',  ( -0.000000000000000000, -0.000000000000000000, 1.000000000000000000 ) ) ;
#402 = EDGE_CURVE ( 'NONE', #349, #262, #176, .T. ) ;
#403 = CARTESIAN_POINT ( 'NONE',  ( -38.34636501085226001, 13.99190339624137458, 7.000000000000000000 ) ) ;
#404 = ORIENTED_EDGE ( 'NONE', *, *, #4, .T. ) ;
#405 = LINE ( 'NONE', #454, #502 ) ;
#406 = PERSON_AND_ORGANIZATION ( #242, #583 ) ;
#407 = CARTESIAN_POINT ( 'NONE',  ( -42.34636501085226001, 23.99190339624137636, 0.000000000000000000 ) ) ;
#408 = ORIENTED_EDGE ( 'NONE', *, *, #41, .F. ) ;
#409 = DIRECTION ( 'NONE',  ( 0.000000000000000000, -0.000000000000000000, -1.000000000000000000 ) ) ;
#410 = APPROVAL_STATUS ( 'not_yet_approved' ) ;
#411 = CARTESIAN_POINT ( 'NONE',  ( -38.34636501085226001, 21.99190339624137636, 0.000000000000000000 ) ) ;
#412 = ORIENTED_EDGE ( 'NONE', *, *, #588, .T. ) ;
#413 = EDGE_CURVE ( 'NONE', #116, #582, #231, .T. ) ;
#414 = FACE_OUTER_BOUND ( 'NONE', #240, .T. ) ;
#415 = PERSON_AND_ORGANIZATION ( #242, #583 ) ;
#416 = CYLINDRICAL_SURFACE ( 'NONE', #9, 0.5000000000000000000 ) ;
#417 = ORIENTED_EDGE ( 'NONE', *, *, #178, .F. ) ;
#418 = APPROVAL ( #410, 'UNSPECIFIED' ) ;
#419 = FACE_OUTER_BOUND ( 'NONE', #328, .T. ) ;
#420 = LINE ( 'NONE', #573, #76 ) ;
#421 = CARTESIAN_POINT ( 'NONE',  ( -42.34636501085226001, 21.49190339624137636, -0.5000000000000000000 ) ) ;
#422 = CARTESIAN_POINT ( 'NONE',  ( -42.34636501085226001, 23.99190339624137636, 7.000000000000000000 ) ) ;
#423 = ORIENTED_EDGE ( 'NONE', *, *, #138, .F. ) ;
#424 = VECTOR ( 'NONE', #627, 1000.000000000000000 ) ;
#425 = FACE_OUTER_BOUND ( 'NONE', #629, .T. ) ;
#426 = VERTEX_POINT ( 'NONE', #325 ) ;
#427 = CARTESIAN_POINT ( 'NONE',  ( -42.34636501085226001, 15.99190339624137458, -1.000000000000000000 ) ) ;
#428 = ORIENTED_EDGE ( 'NONE', *, *, #479, .T. ) ;
#429 = LOCAL_TIME ( 18, 35, 18.00000000000000000, #313 ) ;
#430 = DIRECTION ( 'NONE',  ( -1.000000000000000000, -0.000000000000000000, 0.000000000000000000 ) ) ;
#431 = CIRCLE ( 'NONE', #481, 1.000000000000000000 ) ;
#432 = VECTOR ( 'NONE', #441, 1000.000000000000000 ) ;
#433 = EDGE_CURVE ( 'NONE', #445, #575, #130, .T. ) ;
#434 = FACE_OUTER_BOUND ( 'NONE', #565, .T. ) ;
#435 = CARTESIAN_POINT ( 'NONE',  ( -38.34636501085226001, 21.49190339624137636, -0.5000000000000000000 ) ) ;
#436 = EDGE_LOOP ( 'NONE', ( #360, #7, #587, #98 ) ) ;
#437 = DIRECTION ( 'NONE',  ( -0.000000000000000000, 1.000000000000000000, -0.000000000000000000 ) ) ;
#438 = AXIS2_PLACEMENT_3D ( 'NONE', #459, #397, #367 ) ;
#439 = PLANE ( 'NONE',  #153 ) ;
#440 = CARTESIAN_POINT ( 'NONE',  ( -38.34636501085226001, 16.99190339624137636, -0.5000000000000000000 ) ) ;
#441 = DIRECTION ( 'NONE',  ( 0.000000000000000000, -1.000000000000000000, 0.000000000000000000 ) ) ;
#442 = DIRECTION ( 'NONE',  ( 1.000000000000000000, 0.000000000000000000, 0.000000000000000000 ) ) ;
#443 = ORIENTED_EDGE ( 'NONE', *, *, #73, .F. ) ;
#444 = CARTESIAN_POINT ( 'NONE',  ( -38.34636501085226001, 15.99190339624137458, -0.5000000000000000000 ) ) ;
#445 = VERTEX_POINT ( 'NONE', #376 ) ;
#446 = EDGE_CURVE ( 'NONE', #575, #94, #624, .T. ) ;
#447 = CARTESIAN_POINT ( 'NONE',  ( -42.34636501085226001, 21.99190339624137636, -1.000000000000000000 ) ) ;
#448 = LINE ( 'NONE', #107, #321 ) ;
#449 = DIRECTION ( 'NONE',  ( -0.000000000000000000, -1.000000000000000000, -0.000000000000000000 ) ) ;
#450 = ORIENTED_EDGE ( 'NONE', *, *, #57, .T. ) ;
#451 = PERSON_AND_ORGANIZATION ( #242, #583 ) ;
#452 = DIRECTION ( 'NONE',  ( -1.000000000000000000, 0.000000000000000000, 0.000000000000000000 ) ) ;
#453 = VERTEX_POINT ( 'NONE', #578 ) ;
#454 = CARTESIAN_POINT ( 'NONE',  ( -39.34636501085226001, 23.99190339624137636, 7.000000000000000000 ) ) ;
#455 = FACE_OUTER_BOUND ( 'NONE', #159, .T. ) ;
#456 = VERTEX_POINT ( 'NONE', #630 ) ;
#457 = EDGE_CURVE ( 'NONE', #445, #582, #581, .T. ) ;
#458 = CC_DESIGN_PERSON_AND_ORGANIZATION_ASSIGNMENT ( #617, #175, ( #519 ) ) ;
#459 = CARTESIAN_POINT ( 'NONE',  ( 0.000000000000000000, 0.000000000000000000, 0.000000000000000000 ) ) ;
#460 = CIRCLE ( 'NONE', #127, 0.5000000000000000000 ) ;
#461 = AXIS2_PLACEMENT_3D ( 'NONE', #267, #13, #609 ) ;
#462 = ORIENTED_EDGE ( 'NONE', *, *, #319, .F. ) ;
#463 = DATE_AND_TIME ( #521, #429 ) ;
#464 = CARTESIAN_POINT ( 'NONE',  ( -38.34636501085226001, 23.99190339624137636, 7.000000000000000000 ) ) ;
#465 = DIRECTION ( 'NONE',  ( -0.000000000000000000, -0.000000000000000000, 1.000000000000000000 ) ) ;
#466 = DIRECTION ( 'NONE',  ( -0.000000000000000000, 1.000000000000000000, -0.000000000000000000 ) ) ;
#467 = ORIENTED_EDGE ( 'NONE', *, *, #594, .T. ) ;
#468 = CC_DESIGN_APPROVAL ( #418, ( #519 ) ) ;
#469 = EDGE_CURVE ( 'NONE', #334, #372, #86, .T. ) ;
#470 = DIRECTION ( 'NONE',  ( 0.000000000000000000, 0.000000000000000000, -1.000000000000000000 ) ) ;
#471 = CARTESIAN_POINT ( 'NONE',  ( -42.34636501085226001, 21.99190339624137636, 0.000000000000000000 ) ) ;
#472 = VECTOR ( 'NONE', #593, 1000.000000000000000 ) ;
#473 = AXIS2_PLACEMENT_3D ( 'NONE', #166, #312, #496 ) ;
#474 = DIRECTION ( 'NONE',  ( 0.000000000000000000, 1.000000000000000000, 0.000000000000000000 ) ) ;
#475 = EDGE_LOOP ( 'NONE', ( #526, #467, #191, #324 ) ) ;
#476 = CARTESIAN_POINT ( 'NONE',  ( -38.34636501085226001, 21.99190339624137636, -1.000000000000000000 ) ) ;
#477 = EDGE_CURVE ( 'NONE', #505, #537, #317, .T. ) ;
#478 = APPROVAL_PERSON_ORGANIZATION ( #506, #598, #610 ) ;
#479 = EDGE_CURVE ( 'NONE', #585, #591, #32, .T. ) ;
#480 = CARTESIAN_POINT ( 'NONE',  ( -38.34636501085226001, 16.99190339624137636, -1.000000000000000000 ) ) ;
#481 = AXIS2_PLACEMENT_3D ( 'NONE', #101, #483, #92 ) ;
#482 = AXIS2_PLACEMENT_3D ( 'NONE', #201, #158, #168 ) ;
#483 = DIRECTION ( 'NONE',  ( -0.000000000000000000, 1.000000000000000000, -0.000000000000000000 ) ) ;
#484 = ORIENTED_EDGE ( 'NONE', *, *, #41, .T. ) ;
#485 = CARTESIAN_POINT ( 'NONE',  ( -42.34636501085226001, 16.99190339624137636, -1.000000000000000000 ) ) ;
#486 = DIRECTION ( 'NONE',  ( -1.000000000000000000, -0.000000000000000000, -0.000000000000000000 ) ) ;
#487 = EDGE_LOOP ( 'NONE', ( #303, #210, #615, #318 ) ) ;
#488 = LINE ( 'NONE', #641, #23 ) ;
#489 = EDGE_LOOP ( 'NONE', ( #528, #408, #79, #258 ) ) ;
#490 = AXIS2_PLACEMENT_3D ( 'NONE', #421, #430, #633 ) ;
#491 = VECTOR ( 'NONE', #300, 1000.000000000000000 ) ;
#492 = CARTESIAN_POINT ( 'NONE',  ( -38.34636501085226001, 16.49190339624137636, -1.000000000000000000 ) ) ;
#493 = ORIENTED_EDGE ( 'NONE', *, *, #89, .F. ) ;
#494 = LINE ( 'NONE', #407, #491 ) ;
#495 = EDGE_CURVE ( 'NONE', #426, #591, #29, .T. ) ;
#496 = DIRECTION ( 'NONE',  ( 0.000000000000000000, 0.000000000000000000, -1.000000000000000000 ) ) ;
#497 = DIRECTION ( 'NONE',  ( -1.000000000000000000, -0.000000000000000000, 0.000000000000000000 ) ) ;
#498 = ORIENTED_EDGE ( 'NONE', *, *, #2, .T. ) ;
#499 = DIRECTION ( 'NONE',  ( -0.000000000000000000, -1.000000000000000000, -0.000000000000000000 ) ) ;
#500 = CALENDAR_DATE ( 2026, 7, 9 ) ;
#501 = AXIS2_PLACEMENT_3D ( 'NONE', #628, #474, #279 ) ;
#502 = VECTOR ( 'NONE', #510, 1000.000000000000000 ) ;
#503 = VECTOR ( 'NONE', #327, 1000.000000000000000 ) ;
#504 = DIRECTION ( 'NONE',  ( 0.000000000000000000, -0.000000000000000000, -1.000000000000000000 ) ) ;
#505 = VERTEX_POINT ( 'NONE', #132 ) ;
#506 = PERSON_AND_ORGANIZATION ( #242, #583 ) ;
#507 = CARTESIAN_POINT ( 'NONE',  ( -42.34636501085226001, 21.49190339624137636, -0.5000000000000000000 ) ) ;
#508 = ORIENTED_EDGE ( 'NONE', *, *, #531, .T. ) ;
#509 = EDGE_CURVE ( 'NONE', #262, #505, #420, .T. ) ;
#510 = DIRECTION ( 'NONE',  ( 0.000000000000000000, 1.000000000000000000, -0.000000000000000000 ) ) ;
#511 = APPROVAL_DATE_TIME ( #567, #343 ) ;
#512 = CARTESIAN_POINT ( 'NONE',  ( -42.34636501085226001, 16.49190339624137636, -1.000000000000000000 ) ) ;
#513 = LOCAL_TIME ( 18, 35, 18.00000000000000000, #28 ) ;
#514 = ORIENTED_EDGE ( 'NONE', *, *, #638, .F. ) ;
#515 = CARTESIAN_POINT ( 'NONE',  ( -38.34636501085226001, 13.99190339624137458, 6.000000000000000000 ) ) ;
#516 = APPLICATION_PROTOCOL_DEFINITION ( 'international standard', 'config_control_design', 1994, #395 ) ;
#517 = DIRECTION ( 'NONE',  ( -0.000000000000000000, -0.000000000000000000, -1.000000000000000000 ) ) ;
#518 = AXIS2_PLACEMENT_3D ( 'NONE', #377, #139, #383 ) ;
#519 = PRODUCT_DEFINITION_FORMATION_WITH_SPECIFIED_SOURCE ( 'ANY', '', #339, .NOT_KNOWN. ) ;
#520 = ORIENTED_EDGE ( 'NONE', *, *, #288, .T. ) ;
#521 = CALENDAR_DATE ( 2026, 7, 9 ) ;
#522 = DIRECTION ( 'NONE',  ( 0.000000000000000000, -1.000000000000000000, 0.000000000000000000 ) ) ;
#523 = ORIENTED_EDGE ( 'NONE', *, *, #253, .F. ) ;
#524 = ADVANCED_FACE ( 'NONE', ( #414 ), #211, .F. ) ;
#525 = FACE_OUTER_BOUND ( 'NONE', #556, .T. ) ;
#526 = ORIENTED_EDGE ( 'NONE', *, *, #255, .F. ) ;
#527 = PLANE ( 'NONE',  #145 ) ;
#528 = ORIENTED_EDGE ( 'NONE', *, *, #57, .F. ) ;
#529 = VECTOR ( 'NONE', #466, 1000.000000000000000 ) ;
#530 = VECTOR ( 'NONE', #277, 1000.000000000000000 ) ;
#531 = EDGE_CURVE ( 'NONE', #83, #228, #306, .T. ) ;
#532 = CARTESIAN_POINT ( 'NONE',  ( -38.34636501085226001, 23.99190339624137636, 0.000000000000000000 ) ) ;
#533 = ADVANCED_FACE ( 'NONE', ( #616 ), #17, .F. ) ;
#534 = PRODUCT_DEFINITION ( 'UNKNOWN', '', #519, #148 ) ;
#535 = ORIENTED_EDGE ( 'NONE', *, *, #594, .F. ) ;
#536 = CARTESIAN_POINT ( 'NONE',  ( -38.34636501085226001, 16.99190339624137636, 0.000000000000000000 ) ) ;
#537 = VERTEX_POINT ( 'NONE', #362 ) ;
#538 = LINE ( 'NONE', #485, #612 ) ;
#539 = CARTESIAN_POINT ( 'NONE',  ( -42.34636501085226001, 21.99190339624137636, -0.5000000000000000000 ) ) ;
#540 = ORIENTED_EDGE ( 'NONE', *, *, #584, .F. ) ;
#541 = CARTESIAN_POINT ( 'NONE',  ( -42.34636501085226001, 16.49190339624137636, -0.5000000000000000000 ) ) ;
#542 = ORIENTED_EDGE ( 'NONE', *, *, #551, .T. ) ;
#543 = DIRECTION ( 'NONE',  ( 0.000000000000000000, 0.000000000000000000, 1.000000000000000000 ) ) ;
#544 = ORIENTED_EDGE ( 'NONE', *, *, #27, .F. ) ;
#545 = VECTOR ( 'NONE', #636, 1000.000000000000000 ) ;
#546 = DIRECTION ( 'NONE',  ( 1.000000000000000000, 0.000000000000000000, 0.000000000000000000 ) ) ;
#547 = DIRECTION ( 'NONE',  ( -0.000000000000000000, -1.000000000000000000, -0.000000000000000000 ) ) ;
#548 = EDGE_CURVE ( 'NONE', #585, #596, #562, .T. ) ;
#549 = ORIENTED_EDGE ( 'NONE', *, *, #109, .F. ) ;
#550 = FACE_OUTER_BOUND ( 'NONE', #106, .T. ) ;
#551 = EDGE_CURVE ( 'NONE', #266, #206, #144, .T. ) ;
#552 = CARTESIAN_POINT ( 'NONE',  ( -38.34636501085226001, 20.99190339624137636, -0.5000000000000000000 ) ) ;
#553 = ORIENTED_EDGE ( 'NONE', *, *, #645, .T. ) ;
#554 = DIRECTION ( 'NONE',  ( 1.000000000000000000, 0.000000000000000000, 0.000000000000000000 ) ) ;
#555 = CARTESIAN_POINT ( 'NONE',  ( -42.34636501085226001, 23.99190339624137636, 7.000000000000000000 ) ) ;
#556 = EDGE_LOOP ( 'NONE', ( #298, #67, #386, #20, #137, #81 ) ) ;
#557 = DIRECTION ( 'NONE',  ( 0.000000000000000000, 0.000000000000000000, 1.000000000000000000 ) ) ;
#558 = CIRCLE ( 'NONE', #271, 0.5000000000000000000 ) ;
#559 = VECTOR ( 'NONE', #54, 1000.000000000000000 ) ;
#560 = CARTESIAN_POINT ( 'NONE',  ( -39.34636501085226001, 23.99190339624137636, 7.000000000000000000 ) ) ;
#561 = ORIENTED_EDGE ( 'NONE', *, *, #119, .T. ) ;
#562 = LINE ( 'NONE', #515, #359 ) ;
#563 = DATE_AND_TIME ( #370, #335 ) ;
#564 = DIRECTION ( 'NONE',  ( 1.000000000000000000, 0.000000000000000000, 0.000000000000000000 ) ) ;
#565 = EDGE_LOOP ( 'NONE', ( #443, #275, #549, #423 ) ) ;
#566 = MANIFOLD_SOLID_BREP ( 'Fillet3', #58 ) ;
#567 = DATE_AND_TIME ( #500, #625 ) ;
#568 = DIRECTION ( 'NONE',  ( 1.000000000000000000, -0.000000000000000000, -0.000000000000000000 ) ) ;
#569 = EDGE_LOOP ( 'NONE', ( #330, #326, #51, #124 ) ) ;
#570 = DIRECTION ( 'NONE',  ( 0.000000000000000000, 0.000000000000000000, 1.000000000000000000 ) ) ;
#571 = DATE_AND_TIME ( #208, #348 ) ;
#572 = ADVANCED_FACE ( 'NONE', ( #419 ), #117, .T. ) ;
#573 = CARTESIAN_POINT ( 'NONE',  ( -41.34636501085226001, 13.99190339624137458, 7.000000000000000000 ) ) ;
#574 = CIRCLE ( 'NONE', #270, 0.5000000000000000000 ) ;
#575 = VERTEX_POINT ( 'NONE', #60 ) ;
#576 = CARTESIAN_POINT ( 'NONE',  ( -39.34636501085226001, 0.000000000000000000, 6.000000000000000000 ) ) ;
#577 = DIRECTION ( 'NONE',  ( 1.000000000000000000, -0.000000000000000000, 0.000000000000000000 ) ) ;
#578 = CARTESIAN_POINT ( 'NONE',  ( -42.34636501085226001, 20.99190339624137636, -0.5000000000000000000 ) ) ;
#579 = ORIENTED_EDGE ( 'NONE', *, *, #332, .T. ) ;
#580 = ADVANCED_FACE ( 'NONE', ( #64 ), #263, .F. ) ;
#581 = LINE ( 'NONE', #274, #308 ) ;
#582 = VERTEX_POINT ( 'NONE', #74 ) ;
#583 = ORGANIZATION ( 'UNSPECIFIED', 'UNSPECIFIED', '' ) ;
#584 = EDGE_CURVE ( 'NONE', #537, #349, #405, .T. ) ;
#585 = VERTEX_POINT ( 'NONE', #369 ) ;
#586 = CYLINDRICAL_SURFACE ( 'NONE', #102, 0.5000000000000000000 ) ;
#587 = ORIENTED_EDGE ( 'NONE', *, *, #597, .F. ) ;
#588 = EDGE_CURVE ( 'NONE', #133, #37, #125, .T. ) ;
#589 = LINE ( 'NONE', #290, #245 ) ;
#590 = PLANE ( 'NONE',  #346 ) ;
#591 = VERTEX_POINT ( 'NONE', #10 ) ;
#592 = LINE ( 'NONE', #643, #432 ) ;
#593 = DIRECTION ( 'NONE',  ( -1.000000000000000000, 0.000000000000000000, -0.000000000000000000 ) ) ;
#594 = EDGE_CURVE ( 'NONE', #202, #602, #204, .T. ) ;
#595 = LINE ( 'NONE', #492, #186 ) ;
#596 = VERTEX_POINT ( 'NONE', #250 ) ;
#597 = EDGE_CURVE ( 'NONE', #94, #37, #592, .T. ) ;
#598 = APPROVAL ( #264, 'UNSPECIFIED' ) ;
#599 = AXIS2_PLACEMENT_3D ( 'NONE', #333, #547, #196 ) ;
#600 = VECTOR ( 'NONE', #350, 1000.000000000000000 ) ;
#601 = PLANE ( 'NONE',  #438 ) ;
#602 = VERTEX_POINT ( 'NONE', #150 ) ;
#603 = DIRECTION ( 'NONE',  ( 1.000000000000000000, -0.000000000000000000, -0.000000000000000000 ) ) ;
#604 = DIRECTION ( 'NONE',  ( -0.000000000000000000, -0.000000000000000000, -1.000000000000000000 ) ) ;
#605 = ORIENTED_EDGE ( 'NONE', *, *, #433, .T. ) ;
#606 = COORDINATED_UNIVERSAL_TIME_OFFSET ( 0, 0, .AHEAD. ) ;
#607 = CARTESIAN_POINT ( 'NONE',  ( 0.000000000000000000, 16.49190339624137636, -0.5000000000000000000 ) ) ;
#608 = ORIENTED_EDGE ( 'NONE', *, *, #446, .F. ) ;
#609 = DIRECTION ( 'NONE',  ( 1.000000000000000000, 0.000000000000000000, 0.000000000000000000 ) ) ;
#610 = APPROVAL_ROLE ( '' ) ;
#611 = CIRCLE ( 'NONE', #490, 0.5000000000000000000 ) ;
#612 = VECTOR ( 'NONE', #194, 1000.000000000000000 ) ;
#613 = VECTOR ( 'NONE', #222, 1000.000000000000000 ) ;
#614 = LINE ( 'NONE', #403, #373 ) ;
#615 = ORIENTED_EDGE ( 'NONE', *, *, #551, .F. ) ;
#616 = FACE_OUTER_BOUND ( 'NONE', #436, .T. ) ;
#617 = PERSON_AND_ORGANIZATION ( #242, #583 ) ;
#618 = CARTESIAN_POINT ( 'NONE',  ( -38.34636501085226001, 21.49190339624137636, -0.5000000000000000000 ) ) ;
#619 = ORIENTED_EDGE ( 'NONE', *, *, #457, .F. ) ;
#620 = ADVANCED_FACE ( 'NONE', ( #550 ), #439, .F. ) ;
#621 = MECHANICAL_CONTEXT ( 'NONE', #637, 'mechanical' ) ;
#622 = CARTESIAN_POINT ( 'NONE',  ( -42.34636501085226001, 13.99190339624137458, 7.000000000000000000 ) ) ;
#623 = CARTESIAN_POINT ( 'NONE',  ( -42.34636501085226001, 16.99190339624137636, -0.5000000000000000000 ) ) ;
#624 = LINE ( 'NONE', #128, #361 ) ;
#625 = LOCAL_TIME ( 18, 35, 18.00000000000000000, #606 ) ;
#626 = AXIS2_PLACEMENT_3D ( 'NONE', #639, #95, #149 ) ;
#627 = DIRECTION ( 'NONE',  ( -0.000000000000000000, 1.000000000000000000, -0.000000000000000000 ) ) ;
#628 = CARTESIAN_POINT ( 'NONE',  ( -42.34636501085226001, 13.99190339624137458, 7.000000000000000000 ) ) ;
#629 = EDGE_LOOP ( 'NONE', ( #379, #252, #269, #193 ) ) ;
#630 = CARTESIAN_POINT ( 'NONE',  ( -42.34636501085226001, 21.49190339624137636, -1.000000000000000000 ) ) ;
#631 = ORIENTED_EDGE ( 'NONE', *, *, #77, .F. ) ;
#632 = VECTOR ( 'NONE', #347, 1000.000000000000000 ) ;
#633 = DIRECTION ( 'NONE',  ( 0.000000000000000000, 0.000000000000000000, -1.000000000000000000 ) ) ;
#634 = VECTOR ( 'NONE', #564, 1000.000000000000000 ) ;
#635 =( GEOMETRIC_REPRESENTATION_CONTEXT ( 3 ) GLOBAL_UNCERTAINTY_ASSIGNED_CONTEXT ( ( #48 ) ) GLOBAL_UNIT_ASSIGNED_CONTEXT ( ( #337, #157, #353 ) ) REPRESENTATION_CONTEXT ( 'NONE', 'WORKASPACE' ) );
#636 = DIRECTION ( 'NONE',  ( 1.000000000000000000, 0.000000000000000000, -0.000000000000000000 ) ) ;
#637 = APPLICATION_CONTEXT ( 'configuration controlled 3d designs of mechanical parts and assemblies' ) ;
#638 = EDGE_CURVE ( 'NONE', #334, #355, #448, .T. ) ;
#639 = CARTESIAN_POINT ( 'NONE',  ( 0.000000000000000000, 16.49190339624137636, -0.5000000000000000000 ) ) ;
#640 = ORIENTED_EDGE ( 'NONE', *, *, #495, .T. ) ;
#641 = CARTESIAN_POINT ( 'NONE',  ( -38.34636501085226001, 23.99190339624137636, 0.000000000000000000 ) ) ;
#642 = AXIS2_PLACEMENT_3D ( 'NONE', #257, #449, #52 ) ;
#643 = CARTESIAN_POINT ( 'NONE',  ( -42.34636501085226001, 23.99190339624137636, 0.000000000000000000 ) ) ;
#644 = DIRECTION ( 'NONE',  ( 1.000000000000000000, -0.000000000000000000, -0.000000000000000000 ) ) ;
#645 = EDGE_CURVE ( 'NONE', #368, #256, #538, .T. ) ;
ENDSEC;
END-ISO-10303-21;
