ISO-10303-21;
HEADER;
FILE_DESCRIPTION (( 'STEP AP203' ),
    '1' );
FILE_NAME ('Book3.step',
    '2026-09-07T17:35:19',
    ( '' ),
    ( '' ),
    'SwSTEP 2.0',
    'SolidWorks 2026',
    '' );
FILE_SCHEMA (( 'CONFIG_CONTROL_DESIGN' ));
ENDSEC;

DATA;
#1 = EDGE_CURVE ( 'NONE', #298, #114, #260, .T. ) ;
#2 = EDGE_CURVE ( 'NONE', #18, #131, #280, .T. ) ;
#3 = DIRECTION ( 'NONE',  ( 0.000000000000000000, 1.000000000000000000, 0.000000000000000000 ) ) ;
#4 = CYLINDRICAL_SURFACE ( 'NONE', #259, 1.000000000000000888 ) ;
#5 = CIRCLE ( 'NONE', #11, 1.000000000000000000 ) ;
#6 = LOCAL_TIME ( 18, 35, 19.00000000000000000, #88 ) ;
#7 = DIRECTION ( 'NONE',  ( 0.000000000000000000, -1.000000000000000000, 0.000000000000000000 ) ) ;
#8 = CARTESIAN_POINT ( 'NONE',  ( -14.02805280545260658, 27.66279571916355096, 7.000000000000000000 ) ) ;
#9 = DIRECTION ( 'NONE',  ( -2.168404344971008868E-16, 1.000000000000000000, 0.000000000000000000 ) ) ;
#10 = VERTEX_POINT ( 'NONE', #263 ) ;
#11 = AXIS2_PLACEMENT_3D ( 'NONE', #74, #115, #169 ) ;
#12 = PLANE ( 'NONE',  #152 ) ;
#13 = EDGE_CURVE ( 'NONE', #114, #51, #295, .T. ) ;
#14 = DIRECTION ( 'NONE',  ( 1.000000000000000000, 0.000000000000000000, 0.000000000000000000 ) ) ;
#15 = DATE_TIME_ROLE ( 'creation_date' ) ;
#16 = ORIENTED_EDGE ( 'NONE', *, *, #59, .T. ) ;
#17 = APPROVAL_STATUS ( 'not_yet_approved' ) ;
#18 = VERTEX_POINT ( 'NONE', #47 ) ;
#19 = CALENDAR_DATE ( 2026, 7, 9 ) ;
#20 = APPROVAL_ROLE ( '' ) ;
#21 = EDGE_LOOP ( 'NONE', ( #200, #124, #161, #135 ) ) ;
#22 = APPROVAL_PERSON_ORGANIZATION ( #65, #120, #20 ) ;
#23 = CYLINDRICAL_SURFACE ( 'NONE', #151, 1.000000000000000000 ) ;
#24 = ORIENTED_EDGE ( 'NONE', *, *, #266, .T. ) ;
#25 = APPROVAL ( #204, 'UNSPECIFIED' ) ;
#26 = AXIS2_PLACEMENT_3D ( 'NONE', #28, #238, #119 ) ;
#27 = DIRECTION ( 'NONE',  ( 0.000000000000000000, -0.000000000000000000, 1.000000000000000000 ) ) ;
#28 = CARTESIAN_POINT ( 'NONE',  ( -14.02805280545260658, 27.66279571916355096, 7.000000000000000000 ) ) ;
#29 = CARTESIAN_POINT ( 'NONE',  ( -11.02805280545260835, 27.66279571916355096, 7.000000000000000000 ) ) ;
#30 = DIRECTION ( 'NONE',  ( 0.000000000000000000, -1.000000000000000000, 0.000000000000000000 ) ) ;
#31 = VECTOR ( 'NONE', #145, 1000.000000000000000 ) ;
#32 = LINE ( 'NONE', #149, #243 ) ;
#33 = CARTESIAN_POINT ( 'NONE',  ( -14.02805280545260658, 27.66279571916355096, 7.000000000000000000 ) ) ;
#34 = LINE ( 'NONE', #248, #173 ) ;
#35 = CC_DESIGN_PERSON_AND_ORGANIZATION_ASSIGNMENT ( #43, #205, ( #301 ) ) ;
#36 = DIRECTION ( 'NONE',  ( -0.000000000000000000, -0.000000000000000000, -1.000000000000000000 ) ) ;
#37 = PERSON_AND_ORGANIZATION ( #153, #251 ) ;
#38 = ORIENTED_EDGE ( 'NONE', *, *, #277, .F. ) ;
#39 = DATE_AND_TIME ( #19, #41 ) ;
#40 = VERTEX_POINT ( 'NONE', #261 ) ;
#41 = LOCAL_TIME ( 18, 35, 19.00000000000000000, #130 ) ;
#42 = ORIENTED_EDGE ( 'NONE', *, *, #13, .T. ) ;
#43 = PERSON_AND_ORGANIZATION ( #153, #251 ) ;
#44 = ORIENTED_EDGE ( 'NONE', *, *, #277, .T. ) ;
#45 = PERSON_AND_ORGANIZATION ( #153, #251 ) ;
#46 = ADVANCED_FACE ( 'NONE', ( #164 ), #23, .T. ) ;
#47 = CARTESIAN_POINT ( 'NONE',  ( -14.02805280545260658, 27.66279571916355096, 6.000000000000000000 ) ) ;
#48 = PLANE ( 'NONE',  #26 ) ;
#49 = DIRECTION ( 'NONE',  ( -0.000000000000000000, -0.000000000000000000, -1.000000000000000000 ) ) ;
#50 = VECTOR ( 'NONE', #52, 1000.000000000000000 ) ;
#51 = VERTEX_POINT ( 'NONE', #144 ) ;
#52 = DIRECTION ( 'NONE',  ( -0.000000000000000000, -0.000000000000000000, -1.000000000000000000 ) ) ;
#53 = CARTESIAN_POINT ( 'NONE',  ( -11.02805280545260835, 27.66279571916355096, 0.000000000000000000 ) ) ;
#54 = DIRECTION ( 'NONE',  ( 1.000000000000000000, 0.000000000000000000, 0.000000000000000000 ) ) ;
#55 = ORIENTED_EDGE ( 'NONE', *, *, #307, .F. ) ;
#56 = CARTESIAN_POINT ( 'NONE',  ( 0.000000000000000000, 0.000000000000000000, 0.000000000000000000 ) ) ;
#57 = EDGE_CURVE ( 'NONE', #188, #66, #143, .T. ) ;
#58 = ORIENTED_EDGE ( 'NONE', *, *, #190, .F. ) ;
#59 = EDGE_CURVE ( 'NONE', #18, #10, #141, .T. ) ;
#60 = CARTESIAN_POINT ( 'NONE',  ( -11.02805280545260658, 19.66279571916355096, 6.000000000000000000 ) ) ;
#61 = PERSON_AND_ORGANIZATION_ROLE ( 'design_owner' ) ;
#62 = ORIENTED_EDGE ( 'NONE', *, *, #121, .F. ) ;
#63 = COORDINATED_UNIVERSAL_TIME_OFFSET ( 0, 0, .AHEAD. ) ;
#64 = VECTOR ( 'NONE', #175, 1000.000000000000000 ) ;
#65 = PERSON_AND_ORGANIZATION ( #153, #251 ) ;
#66 = VERTEX_POINT ( 'NONE', #116 ) ;
#67 = EDGE_CURVE ( 'NONE', #193, #40, #5, .T. ) ;
#68 = DIRECTION ( 'NONE',  ( 0.000000000000000000, 0.000000000000000000, 1.000000000000000000 ) ) ;
#69 = ADVANCED_FACE ( 'NONE', ( #213 ), #48, .F. ) ;
#70 = CARTESIAN_POINT ( 'NONE',  ( -14.02805280545260658, 19.66279571916355096, 7.000000000000000000 ) ) ;
#71 = CIRCLE ( 'NONE', #269, 1.000000000000000000 ) ;
#72 = LINE ( 'NONE', #29, #87 ) ;
#73 = CARTESIAN_POINT ( 'NONE',  ( -12.02805280545260835, 27.66279571916355096, 7.000000000000000000 ) ) ;
#74 = CARTESIAN_POINT ( 'NONE',  ( -13.02805280545260658, 19.66279571916355096, 6.000000000000000000 ) ) ;
#75 = CARTESIAN_POINT ( 'NONE',  ( -11.02805280545260835, 27.66279571916355096, 0.000000000000000000 ) ) ;
#76 = CARTESIAN_POINT ( 'NONE',  ( -14.02805280545260658, 27.66279571916355096, 0.000000000000000000 ) ) ;
#77 = LINE ( 'NONE', #220, #229 ) ;
#78 = CARTESIAN_POINT ( 'NONE',  ( -11.02805280545260835, 27.66279571916355096, 7.000000000000000000 ) ) ;
#79 = LINE ( 'NONE', #105, #209 ) ;
#80 = PERSON_AND_ORGANIZATION ( #153, #251 ) ;
#81 = AXIS2_PLACEMENT_3D ( 'NONE', #56, #247, #102 ) ;
#82 = DATE_AND_TIME ( #296, #6 ) ;
#83 = CARTESIAN_POINT ( 'NONE',  ( 0.000000000000000000, 0.000000000000000000, 0.000000000000000000 ) ) ;
#84 = APPLICATION_PROTOCOL_DEFINITION ( 'international standard', 'config_control_design', 1994, #183 ) ;
#85 = ORIENTED_EDGE ( 'NONE', *, *, #99, .F. ) ;
#86 = ADVANCED_FACE ( 'NONE', ( #191 ), #304, .F. ) ;
#87 = VECTOR ( 'NONE', #49, 1000.000000000000000 ) ;
#88 = COORDINATED_UNIVERSAL_TIME_OFFSET ( 0, 0, .AHEAD. ) ;
#89 = EDGE_CURVE ( 'NONE', #279, #66, #281, .T. ) ;
#90 = ORIENTED_EDGE ( 'NONE', *, *, #67, .F. ) ;
#91 = DIRECTION ( 'NONE',  ( 0.000000000000000000, 0.000000000000000000, 1.000000000000000000 ) ) ;
#92 = ORIENTED_EDGE ( 'NONE', *, *, #256, .F. ) ;
#93 = LOCAL_TIME ( 18, 35, 19.00000000000000000, #225 ) ;
#94 = DIRECTION ( 'NONE',  ( 0.000000000000000000, 1.000000000000000000, 0.000000000000000000 ) ) ;
#95 = CARTESIAN_POINT ( 'NONE',  ( -12.02805280545260835, 27.66279571916355096, 6.000000000000000000 ) ) ;
#96 = ORIENTED_EDGE ( 'NONE', *, *, #99, .T. ) ;
#97 = APPROVAL ( #17, 'UNSPECIFIED' ) ;
#98 = DIRECTION ( 'NONE',  ( -0.000000000000000000, -1.000000000000000000, -0.000000000000000000 ) ) ;
#99 = EDGE_CURVE ( 'NONE', #51, #188, #72, .T. ) ;
#100 = LINE ( 'NONE', #33, #127 ) ;
#101 = FACE_OUTER_BOUND ( 'NONE', #290, .T. ) ;
#102 = DIRECTION ( 'NONE',  ( -1.000000000000000000, 0.000000000000000000, -0.000000000000000000 ) ) ;
#103 = VECTOR ( 'NONE', #166, 1000.000000000000000 ) ;
#104 = ORIENTED_EDGE ( 'NONE', *, *, #1, .T. ) ;
#105 = CARTESIAN_POINT ( 'NONE',  ( -14.02805280545260658, 19.66279571916355096, 0.000000000000000000 ) ) ;
#106 = PERSON_AND_ORGANIZATION ( #153, #251 ) ;
#107 = DATE_TIME_ROLE ( 'classification_date' ) ;
#108 = APPROVAL_STATUS ( 'not_yet_approved' ) ;
#109 = ADVANCED_FACE ( 'NONE', ( #122 ), #217, .F. ) ;
#110 = EDGE_LOOP ( 'NONE', ( #265, #176, #90, #234 ) ) ;
#111 = ADVANCED_FACE ( 'NONE', ( #287 ), #4, .T. ) ;
#112 = CALENDAR_DATE ( 2026, 7, 9 ) ;
#113 = VECTOR ( 'NONE', #306, 1000.000000000000000 ) ;
#114 = VERTEX_POINT ( 'NONE', #196 ) ;
#115 = DIRECTION ( 'NONE',  ( -0.000000000000000000, -1.000000000000000000, -0.000000000000000000 ) ) ;
#116 = CARTESIAN_POINT ( 'NONE',  ( -11.02805280545260658, 19.66279571916355096, 0.000000000000000000 ) ) ;
#117 = LOCAL_TIME ( 18, 35, 19.00000000000000000, #63 ) ;
#118 = DIRECTION ( 'NONE',  ( 0.000000000000000000, 0.000000000000000000, -1.000000000000000000 ) ) ;
#119 = DIRECTION ( 'NONE',  ( -0.000000000000000000, 0.000000000000000000, -1.000000000000000000 ) ) ;
#120 = APPROVAL ( #108, 'UNSPECIFIED' ) ;
#121 = EDGE_CURVE ( 'NONE', #10, #114, #100, .T. ) ;
#122 = FACE_OUTER_BOUND ( 'NONE', #146, .T. ) ;
#123 = DIRECTION ( 'NONE',  ( 1.000000000000000000, 0.000000000000000000, 0.000000000000000000 ) ) ;
#124 = ORIENTED_EDGE ( 'NONE', *, *, #233, .T. ) ;
#125 = DIRECTION ( 'NONE',  ( -2.168404344971008868E-16, 1.000000000000000000, 0.000000000000000000 ) ) ;
#126 = DIRECTION ( 'NONE',  ( -1.000000000000000000, 0.000000000000000000, 0.000000000000000000 ) ) ;
#127 = VECTOR ( 'NONE', #271, 1000.000000000000000 ) ;
#128 = CC_DESIGN_APPROVAL ( #25, ( #253 ) ) ;
#129 = CARTESIAN_POINT ( 'NONE',  ( -12.02805280545260658, 19.66279571916355096, 7.000000000000000000 ) ) ;
#130 = COORDINATED_UNIVERSAL_TIME_OFFSET ( 0, 0, .AHEAD. ) ;
#131 = VERTEX_POINT ( 'NONE', #76 ) ;
#132 = PERSON_AND_ORGANIZATION_ROLE ( 'design_supplier' ) ;
#133 = ORIENTED_EDGE ( 'NONE', *, *, #67, .T. ) ;
#134 = APPROVAL_PERSON_ORGANIZATION ( #106, #25, #249 ) ;
#135 = ORIENTED_EDGE ( 'NONE', *, *, #142, .T. ) ;
#136 = ORIENTED_EDGE ( 'NONE', *, *, #307, .T. ) ;
#137 = AXIS2_PLACEMENT_3D ( 'NONE', #282, #3, #91 ) ;
#138 = DIRECTION ( 'NONE',  ( -1.000000000000000000, 0.000000000000000000, -0.000000000000000000 ) ) ;
#139 = CARTESIAN_POINT ( 'NONE',  ( -14.02805280545260658, 27.66279571916355096, 7.000000000000000000 ) ) ;
#140 = CARTESIAN_POINT ( 'NONE',  ( -13.02805280545260658, 0.000000000000000000, 6.000000000000000000 ) ) ;
#141 = CIRCLE ( 'NONE', #137, 1.000000000000000000 ) ;
#142 = EDGE_CURVE ( 'NONE', #131, #252, #171, .T. ) ;
#143 = LINE ( 'NONE', #75, #103 ) ;
#144 = CARTESIAN_POINT ( 'NONE',  ( -11.02805280545260835, 27.66279571916355096, 6.000000000000000000 ) ) ;
#145 = DIRECTION ( 'NONE',  ( -0.000000000000000000, 1.000000000000000000, -0.000000000000000000 ) ) ;
#146 = EDGE_LOOP ( 'NONE', ( #44, #104, #62, #24 ) ) ;
#147 = CARTESIAN_POINT ( 'NONE',  ( -14.02805280545260658, 27.66279571916355096, 0.000000000000000000 ) ) ;
#148 = CARTESIAN_POINT ( 'NONE',  ( -14.02805280545260658, 27.66279571916355096, 0.000000000000000000 ) ) ;
#149 = CARTESIAN_POINT ( 'NONE',  ( -13.02805280545260658, 0.000000000000000000, 7.000000000000000000 ) ) ;
#150 = CC_DESIGN_PERSON_AND_ORGANIZATION_ASSIGNMENT ( #231, #61, ( #203 ) ) ;
#151 = AXIS2_PLACEMENT_3D ( 'NONE', #140, #241, #118 ) ;
#152 = AXIS2_PLACEMENT_3D ( 'NONE', #8, #288, #199 ) ;
#153 = PERSON ( 'UNSPECIFIED', 'UNSPECIFIED', 'UNSPECIFIED', ('UNSPECIFIED'), ('UNSPECIFIED'), ('UNSPECIFIED') ) ;
#154 = CALENDAR_DATE ( 2026, 7, 9 ) ;
#155 = SHAPE_DEFINITION_REPRESENTATION ( #294, #170 ) ;
#156 = MANIFOLD_SOLID_BREP ( 'Fillet1', #157 ) ;
#157 = CLOSED_SHELL ( 'NONE', ( #86, #167, #285, #69, #109, #222, #111, #46 ) ) ;
#158 = APPLICATION_CONTEXT ( 'configuration controlled 3d designs of mechanical parts and assemblies' ) ;
#159 = PERSON_AND_ORGANIZATION_ROLE ( 'creator' ) ;
#160 = MECHANICAL_CONTEXT ( 'NONE', #183, 'mechanical' ) ;
#161 = ORIENTED_EDGE ( 'NONE', *, *, #2, .T. ) ;
#162 = DIRECTION ( 'NONE',  ( 0.000000000000000000, 0.000000000000000000, -1.000000000000000000 ) ) ;
#163 = ORIENTED_EDGE ( 'NONE', *, *, #1, .F. ) ;
#164 = FACE_OUTER_BOUND ( 'NONE', #110, .T. ) ;
#165 = CC_DESIGN_PERSON_AND_ORGANIZATION_ASSIGNMENT ( #45, #159, ( #253 ) ) ;
#166 = DIRECTION ( 'NONE',  ( 2.168404344971008868E-16, -1.000000000000000000, 0.000000000000000000 ) ) ;
#167 = ADVANCED_FACE ( 'NONE', ( #291 ), #198, .T. ) ;
#168 = AXIS2_PLACEMENT_3D ( 'NONE', #78, #224, #125 ) ;
#169 = DIRECTION ( 'NONE',  ( 0.000000000000000000, 0.000000000000000000, 1.000000000000000000 ) ) ;
#170 = ADVANCED_BREP_SHAPE_REPRESENTATION ( 'Book3', ( #156, #219 ), #187 ) ;
#171 = LINE ( 'NONE', #148, #299 ) ;
#172 = LINE ( 'NONE', #289, #31 ) ;
#173 = VECTOR ( 'NONE', #54, 1000.000000000000000 ) ;
#174 = CARTESIAN_POINT ( 'NONE',  ( -12.02805280545260658, 19.66279571916355096, 6.000000000000000000 ) ) ;
#175 = DIRECTION ( 'NONE',  ( 2.168404344971008868E-16, -1.000000000000000000, 0.000000000000000000 ) ) ;
#176 = ORIENTED_EDGE ( 'NONE', *, *, #233, .F. ) ;
#177 = CC_DESIGN_PERSON_AND_ORGANIZATION_ASSIGNMENT ( #37, #132, ( #305 ) ) ;
#178 = LINE ( 'NONE', #60, #64 ) ;
#179 =( NAMED_UNIT ( * ) SI_UNIT ( $, .STERADIAN. ) SOLID_ANGLE_UNIT ( ) );
#180 = CC_DESIGN_SECURITY_CLASSIFICATION ( #301, ( #305 ) ) ;
#181 = ORIENTED_EDGE ( 'NONE', *, *, #264, .F. ) ;
#182 = APPROVAL_DATE_TIME ( #82, #120 ) ;
#183 = APPLICATION_CONTEXT ( 'configuration controlled 3d designs of mechanical parts and assemblies' ) ;
#184 = DATE_AND_TIME ( #112, #195 ) ;
#185 = DATE_AND_TIME ( #292, #117 ) ;
#186 = AXIS2_PLACEMENT_3D ( 'NONE', #95, #216, #192 ) ;
#187 =( GEOMETRIC_REPRESENTATION_CONTEXT ( 3 ) GLOBAL_UNCERTAINTY_ASSIGNED_CONTEXT ( ( #262 ) ) GLOBAL_UNIT_ASSIGNED_CONTEXT ( ( #244, #270, #179 ) ) REPRESENTATION_CONTEXT ( 'NONE', 'WORKASPACE' ) );
#188 = VERTEX_POINT ( 'NONE', #53 ) ;
#189 = CARTESIAN_POINT ( 'NONE',  ( 0.000000000000000000, 0.000000000000000000, 7.000000000000000000 ) ) ;
#190 = EDGE_CURVE ( 'NONE', #252, #66, #79, .T. ) ;
#191 = FACE_OUTER_BOUND ( 'NONE', #211, .T. ) ;
#192 = DIRECTION ( 'NONE',  ( 0.000000000000000000, 0.000000000000000000, 1.000000000000000000 ) ) ;
#193 = VERTEX_POINT ( 'NONE', #273 ) ;
#194 = DESIGN_CONTEXT ( 'detailed design', #158, 'design' ) ;
#195 = LOCAL_TIME ( 18, 35, 19.00000000000000000, #228 ) ;
#196 = CARTESIAN_POINT ( 'NONE',  ( -12.02805280545260835, 27.66279571916355096, 7.000000000000000000 ) ) ;
#197 = CARTESIAN_POINT ( 'NONE',  ( -11.02805280545260658, 19.66279571916355096, 6.000000000000000000 ) ) ;
#198 = PLANE ( 'NONE',  #168 ) ;
#199 = DIRECTION ( 'NONE',  ( 0.000000000000000000, -0.000000000000000000, 1.000000000000000000 ) ) ;
#200 = ORIENTED_EDGE ( 'NONE', *, *, #293, .F. ) ;
#201 = CC_DESIGN_DATE_AND_TIME_ASSIGNMENT ( #278, #15, ( #253 ) ) ;
#202 = CARTESIAN_POINT ( 'NONE',  ( -14.02805280545260658, 19.66279571916355096, 0.000000000000000000 ) ) ;
#203 = PRODUCT ( 'Book3', 'Book3', '', ( #160 ) ) ;
#204 = APPROVAL_STATUS ( 'not_yet_approved' ) ;
#205 = PERSON_AND_ORGANIZATION_ROLE ( 'classification_officer' ) ;
#206 = VECTOR ( 'NONE', #236, 1000.000000000000000 ) ;
#207 = ORIENTED_EDGE ( 'NONE', *, *, #264, .T. ) ;
#208 = PERSON_AND_ORGANIZATION ( #153, #251 ) ;
#209 = VECTOR ( 'NONE', #221, 1000.000000000000000 ) ;
#210 = PRODUCT_RELATED_PRODUCT_CATEGORY ( 'detail', '', ( #203 ) ) ;
#211 = EDGE_LOOP ( 'NONE', ( #245, #136, #38, #133, #302, #297 ) ) ;
#212 = CARTESIAN_POINT ( 'NONE',  ( -11.02805280545260658, 19.66279571916355096, 7.000000000000000000 ) ) ;
#213 = FACE_OUTER_BOUND ( 'NONE', #21, .T. ) ;
#214 = CC_DESIGN_APPROVAL ( #120, ( #301 ) ) ;
#215 = ORIENTED_EDGE ( 'NONE', *, *, #142, .F. ) ;
#216 = DIRECTION ( 'NONE',  ( 0.000000000000000000, 1.000000000000000000, 0.000000000000000000 ) ) ;
#217 = PLANE ( 'NONE',  #218 ) ;
#218 = AXIS2_PLACEMENT_3D ( 'NONE', #189, #162, #138 ) ;
#219 = AXIS2_PLACEMENT_3D ( 'NONE', #83, #68, #14 ) ;
#220 = CARTESIAN_POINT ( 'NONE',  ( -14.02805280545260658, 19.66279571916355096, 7.000000000000000000 ) ) ;
#221 = DIRECTION ( 'NONE',  ( 1.000000000000000000, 0.000000000000000000, 0.000000000000000000 ) ) ;
#222 = ADVANCED_FACE ( 'NONE', ( #246 ), #242, .T. ) ;
#223 = CC_DESIGN_APPROVAL ( #97, ( #305 ) ) ;
#224 = DIRECTION ( 'NONE',  ( 1.000000000000000000, 2.168404344971008868E-16, -0.000000000000000000 ) ) ;
#225 = COORDINATED_UNIVERSAL_TIME_OFFSET ( 0, 0, .AHEAD. ) ;
#226 = SECURITY_CLASSIFICATION_LEVEL ( 'unclassified' ) ;
#227 = ORIENTED_EDGE ( 'NONE', *, *, #13, .F. ) ;
#228 = COORDINATED_UNIVERSAL_TIME_OFFSET ( 0, 0, .AHEAD. ) ;
#229 = VECTOR ( 'NONE', #36, 1000.000000000000000 ) ;
#230 = EDGE_LOOP ( 'NONE', ( #58, #215, #258, #275 ) ) ;
#231 = PERSON_AND_ORGANIZATION ( #153, #251 ) ;
#232 = CC_DESIGN_DATE_AND_TIME_ASSIGNMENT ( #184, #107, ( #301 ) ) ;
#233 = EDGE_CURVE ( 'NONE', #40, #18, #172, .T. ) ;
#234 = ORIENTED_EDGE ( 'NONE', *, *, #266, .F. ) ;
#235 = APPROVAL_PERSON_ORGANIZATION ( #80, #97, #254 ) ;
#236 = DIRECTION ( 'NONE',  ( -0.000000000000000000, -0.000000000000000000, -1.000000000000000000 ) ) ;
#237 = ORIENTED_EDGE ( 'NONE', *, *, #57, .F. ) ;
#238 = DIRECTION ( 'NONE',  ( 1.000000000000000000, 0.000000000000000000, -0.000000000000000000 ) ) ;
#239 = AXIS2_PLACEMENT_3D ( 'NONE', #70, #94, #27 ) ;
#240 = VECTOR ( 'NONE', #123, 1000.000000000000000 ) ;
#241 = DIRECTION ( 'NONE',  ( 0.000000000000000000, -1.000000000000000000, 0.000000000000000000 ) ) ;
#242 = PLANE ( 'NONE',  #81 ) ;
#243 = VECTOR ( 'NONE', #7, 1000.000000000000000 ) ;
#244 =( LENGTH_UNIT ( ) NAMED_UNIT ( * ) SI_UNIT ( .MILLI., .METRE. ) );
#245 = ORIENTED_EDGE ( 'NONE', *, *, #89, .F. ) ;
#246 = FACE_OUTER_BOUND ( 'NONE', #230, .T. ) ;
#247 = DIRECTION ( 'NONE',  ( 0.000000000000000000, 0.000000000000000000, -1.000000000000000000 ) ) ;
#248 = CARTESIAN_POINT ( 'NONE',  ( -14.02805280545260658, 19.66279571916355096, 7.000000000000000000 ) ) ;
#249 = APPROVAL_ROLE ( '' ) ;
#250 = ORIENTED_EDGE ( 'NONE', *, *, #121, .T. ) ;
#251 = ORGANIZATION ( 'UNSPECIFIED', 'UNSPECIFIED', '' ) ;
#252 = VERTEX_POINT ( 'NONE', #202 ) ;
#253 = PRODUCT_DEFINITION ( 'UNKNOWN', '', #305, #194 ) ;
#254 = APPROVAL_ROLE ( '' ) ;
#255 = EDGE_LOOP ( 'NONE', ( #85, #207, #284, #237 ) ) ;
#256 = EDGE_CURVE ( 'NONE', #131, #188, #286, .T. ) ;
#257 = APPROVAL_DATE_TIME ( #185, #25 ) ;
#258 = ORIENTED_EDGE ( 'NONE', *, *, #256, .T. ) ;
#259 = AXIS2_PLACEMENT_3D ( 'NONE', #267, #9, #126 ) ;
#260 = LINE ( 'NONE', #73, #113 ) ;
#261 = CARTESIAN_POINT ( 'NONE',  ( -14.02805280545260658, 19.66279571916355096, 6.000000000000000000 ) ) ;
#262 = UNCERTAINTY_MEASURE_WITH_UNIT (LENGTH_MEASURE( 1.000000000000000082E-05 ), #244, 'distance_accuracy_value', 'NONE');
#263 = CARTESIAN_POINT ( 'NONE',  ( -13.02805280545260658, 27.66279571916355096, 7.000000000000000000 ) ) ;
#264 = EDGE_CURVE ( 'NONE', #51, #279, #178, .T. ) ;
#265 = ORIENTED_EDGE ( 'NONE', *, *, #59, .F. ) ;
#266 = EDGE_CURVE ( 'NONE', #10, #193, #32, .T. ) ;
#267 = CARTESIAN_POINT ( 'NONE',  ( -12.02805280545260835, 27.66279571916355096, 6.000000000000000000 ) ) ;
#268 = DIRECTION ( 'NONE',  ( 0.000000000000000000, 0.000000000000000000, 1.000000000000000000 ) ) ;
#269 = AXIS2_PLACEMENT_3D ( 'NONE', #174, #98, #268 ) ;
#270 =( NAMED_UNIT ( * ) PLANE_ANGLE_UNIT ( ) SI_UNIT ( $, .RADIAN. ) );
#271 = DIRECTION ( 'NONE',  ( 1.000000000000000000, 0.000000000000000000, 0.000000000000000000 ) ) ;
#272 = EDGE_LOOP ( 'NONE', ( #227, #163, #55, #181 ) ) ;
#273 = CARTESIAN_POINT ( 'NONE',  ( -13.02805280545260658, 19.66279571916355096, 7.000000000000000000 ) ) ;
#274 = APPROVAL_DATE_TIME ( #39, #97 ) ;
#275 = ORIENTED_EDGE ( 'NONE', *, *, #57, .T. ) ;
#276 = APPLICATION_PROTOCOL_DEFINITION ( 'international standard', 'config_control_design', 1994, #158 ) ;
#277 = EDGE_CURVE ( 'NONE', #193, #298, #34, .T. ) ;
#278 = DATE_AND_TIME ( #154, #93 ) ;
#279 = VERTEX_POINT ( 'NONE', #197 ) ;
#280 = LINE ( 'NONE', #139, #206 ) ;
#281 = LINE ( 'NONE', #212, #50 ) ;
#282 = CARTESIAN_POINT ( 'NONE',  ( -13.02805280545260658, 27.66279571916355096, 6.000000000000000000 ) ) ;
#283 = CC_DESIGN_PERSON_AND_ORGANIZATION_ASSIGNMENT ( #208, #300, ( #305 ) ) ;
#284 = ORIENTED_EDGE ( 'NONE', *, *, #89, .T. ) ;
#285 = ADVANCED_FACE ( 'NONE', ( #101 ), #12, .T. ) ;
#286 = LINE ( 'NONE', #147, #240 ) ;
#287 = FACE_OUTER_BOUND ( 'NONE', #272, .T. ) ;
#288 = DIRECTION ( 'NONE',  ( 0.000000000000000000, 1.000000000000000000, 0.000000000000000000 ) ) ;
#289 = CARTESIAN_POINT ( 'NONE',  ( -14.02805280545260658, 27.66279571916355096, 6.000000000000000000 ) ) ;
#290 = EDGE_LOOP ( 'NONE', ( #250, #42, #96, #92, #303, #16 ) ) ;
#291 = FACE_OUTER_BOUND ( 'NONE', #255, .T. ) ;
#292 = CALENDAR_DATE ( 2026, 7, 9 ) ;
#293 = EDGE_CURVE ( 'NONE', #40, #252, #77, .T. ) ;
#294 = PRODUCT_DEFINITION_SHAPE ( 'NONE', 'NONE',  #253 ) ;
#295 = CIRCLE ( 'NONE', #186, 1.000000000000000000 ) ;
#296 = CALENDAR_DATE ( 2026, 7, 9 ) ;
#297 = ORIENTED_EDGE ( 'NONE', *, *, #190, .T. ) ;
#298 = VERTEX_POINT ( 'NONE', #129 ) ;
#299 = VECTOR ( 'NONE', #30, 1000.000000000000000 ) ;
#300 = PERSON_AND_ORGANIZATION_ROLE ( 'creator' ) ;
#301 = SECURITY_CLASSIFICATION ( '', '', #226 ) ;
#302 = ORIENTED_EDGE ( 'NONE', *, *, #293, .T. ) ;
#303 = ORIENTED_EDGE ( 'NONE', *, *, #2, .F. ) ;
#304 = PLANE ( 'NONE',  #239 ) ;
#305 = PRODUCT_DEFINITION_FORMATION_WITH_SPECIFIED_SOURCE ( 'ANY', '', #203, .NOT_KNOWN. ) ;
#306 = DIRECTION ( 'NONE',  ( -2.168404344971008868E-16, 1.000000000000000000, -0.000000000000000000 ) ) ;
#307 = EDGE_CURVE ( 'NONE', #279, #298, #71, .T. ) ;
ENDSEC;
END-ISO-10303-21;
