ISO-10303-21;
HEADER;
FILE_DESCRIPTION (( 'STEP AP203' ),
    '1' );
FILE_NAME ('Bookshelf.step',
    '2026-09-07T17:35:21',
    ( '' ),
    ( '' ),
    'SwSTEP 2.0',
    'SolidWorks 2026',
    '' );
FILE_SCHEMA (( 'CONFIG_CONTROL_DESIGN' ));
ENDSEC;

DATA;
#1 = CARTESIAN_POINT ( 'NONE',  ( 5.000000000000000888, -79.11243946797250715, 34.75774960719952844 ) ) ;
#2 = VERTEX_POINT ( 'NONE', #328 ) ;
#3 = LINE ( 'NONE', #431, #482 ) ;
#4 = EDGE_CURVE ( 'NONE', #439, #683, #35, .T. ) ;
#5 = VECTOR ( 'NONE', #198, 1000.000000000000000 ) ;
#6 = VECTOR ( 'NONE', #722, 1000.000000000000000 ) ;
#7 = VERTEX_POINT ( 'NONE', #641 ) ;
#8 = CARTESIAN_POINT ( 'NONE',  ( 0.000000000000000000, 0.000000000000000000, 0.000000000000000000 ) ) ;
#9 = APPROVAL ( #509, 'UNSPECIFIED' ) ;
#10 = ORIENTED_EDGE ( 'NONE', *, *, #798, .F. ) ;
#11 = CARTESIAN_POINT ( 'NONE',  ( 18.00000000000000355, -82.61243946797250715, 10.88274960719953732 ) ) ;
#12 = VECTOR ( 'NONE', #150, 1000.000000000000000 ) ;
#13 = CARTESIAN_POINT ( 'NONE',  ( 18.00000000000000355, -82.61243946797250715, -15.99225039280045202 ) ) ;
#14 = ADVANCED_FACE ( 'NONE', ( #143 ), #378, .F. ) ;
#15 = EDGE_CURVE ( 'NONE', #714, #7, #22, .T. ) ;
#16 = ORIENTED_EDGE ( 'NONE', *, *, #634, .T. ) ;
#17 = APPROVAL_DATE_TIME ( #778, #123 ) ;
#18 = ORIENTED_EDGE ( 'NONE', *, *, #495, .T. ) ;
#19 = DIRECTION ( 'NONE',  ( -1.000000000000000000, 0.000000000000000000, -0.000000000000000000 ) ) ;
#20 = FACE_OUTER_BOUND ( 'NONE', #349, .T. ) ;
#21 = EDGE_CURVE ( 'NONE', #173, #137, #528, .T. ) ;
#22 = LINE ( 'NONE', #91, #5 ) ;
#23 = APPROVAL_ROLE ( '' ) ;
#24 = CARTESIAN_POINT ( 'NONE',  ( 0.000000000000000000, -113.5124394679724986, -18.99225039280045380 ) ) ;
#25 = DIRECTION ( 'NONE',  ( 0.000000000000000000, 1.367269734760045303E-16, -1.000000000000000000 ) ) ;
#26 = APPROVAL_DATE_TIME ( #385, #238 ) ;
#27 = VECTOR ( 'NONE', #377, 1000.000000000000000 ) ;
#28 = LINE ( 'NONE', #411, #608 ) ;
#29 = CARTESIAN_POINT ( 'NONE',  ( 5.000000000000000888, -35.61243946797250004, -15.99225039280045912 ) ) ;
#30 = APPROVAL_STATUS ( 'not_yet_approved' ) ;
#31 = EDGE_LOOP ( 'NONE', ( #706, #117, #186, #344 ) ) ;
#32 = DIRECTION ( 'NONE',  ( 1.000000000000000000, -0.000000000000000000, -0.000000000000000000 ) ) ;
#33 = EDGE_CURVE ( 'NONE', #556, #256, #762, .T. ) ;
#34 = CARTESIAN_POINT ( 'NONE',  ( 5.000000000000000888, -59.11243946797250004, -15.99225039280047156 ) ) ;
#35 = LINE ( 'NONE', #766, #276 ) ;
#36 = EDGE_LOOP ( 'NONE', ( #430, #477, #811, #61 ) ) ;
#37 = PLANE ( 'NONE',  #645 ) ;
#38 = LINE ( 'NONE', #45, #48 ) ;
#39 = CC_DESIGN_DATE_AND_TIME_ASSIGNMENT ( #324, #648, ( #702 ) ) ;
#40 = ORIENTED_EDGE ( 'NONE', *, *, #209, .F. ) ;
#41 = DIRECTION ( 'NONE',  ( -1.000000000000000000, -0.000000000000000000, 0.000000000000000000 ) ) ;
#42 = EDGE_CURVE ( 'NONE', #2, #631, #770, .T. ) ;
#43 = ORIENTED_EDGE ( 'NONE', *, *, #233, .F. ) ;
#44 = FACE_OUTER_BOUND ( 'NONE', #508, .T. ) ;
#45 = CARTESIAN_POINT ( 'NONE',  ( 20.00000000000000000, -55.61243946797250004, 34.75774960719952844 ) ) ;
#46 = EDGE_CURVE ( 'NONE', #790, #273, #387, .T. ) ;
#47 = CLOSED_SHELL ( 'NONE', ( #359, #270, #318, #322, #265, #101, #200, #443, #251, #187, #381, #426, #728, #300, #544, #515, #341, #303, #175, #406, #14, #502, #704, #786, #471, #118 ) ) ;
#48 = VECTOR ( 'NONE', #792, 1000.000000000000000 ) ;
#49 = ORIENTED_EDGE ( 'NONE', *, *, #798, .T. ) ;
#50 = CARTESIAN_POINT ( 'NONE',  ( 0.000000000000000000, 0.000000000000000000, 0.000000000000000000 ) ) ;
#51 = CARTESIAN_POINT ( 'NONE',  ( 5.000000000000000888, -79.11243946797250715, 34.75774960719952844 ) ) ;
#52 = VECTOR ( 'NONE', #409, 1000.000000000000000 ) ;
#53 = ORIENTED_EDGE ( 'NONE', *, *, #768, .T. ) ;
#54 = DIRECTION ( 'NONE',  ( -1.000000000000000000, 0.000000000000000000, -0.000000000000000000 ) ) ;
#55 = CYLINDRICAL_SURFACE ( 'NONE', #269, 25.44999999999999929 ) ;
#56 = EDGE_LOOP ( 'NONE', ( #181, #296, #743, #759 ) ) ;
#57 = FACE_OUTER_BOUND ( 'NONE', #336, .T. ) ;
#58 = DIRECTION ( 'NONE',  ( 0.000000000000000000, -1.367269734760045056E-16, -1.000000000000000000 ) ) ;
#59 = FACE_BOUND ( 'NONE', #239, .T. ) ;
#60 = CARTESIAN_POINT ( 'NONE',  ( 20.00000000000000000, -55.61243946797250715, -15.99225039280045912 ) ) ;
#61 = ORIENTED_EDGE ( 'NONE', *, *, #650, .F. ) ;
#62 = DIRECTION ( 'NONE',  ( -1.000000000000000000, -0.000000000000000000, -0.000000000000000000 ) ) ;
#63 = EDGE_CURVE ( 'NONE', #556, #173, #591, .T. ) ;
#64 = CARTESIAN_POINT ( 'NONE',  ( 5.000000000000000888, -79.11243946797250715, 34.75774960719952844 ) ) ;
#65 = CARTESIAN_POINT ( 'NONE',  ( 18.00000000000000355, -82.61243946797250715, -15.99225039280045202 ) ) ;
#66 = EDGE_LOOP ( 'NONE', ( #473, #70, #580, #282 ) ) ;
#67 =( NAMED_UNIT ( * ) PLANE_ANGLE_UNIT ( ) SI_UNIT ( $, .RADIAN. ) );
#68 = CARTESIAN_POINT ( 'NONE',  ( 5.000000000000000888, -59.11243946797250004, -15.99225039280047156 ) ) ;
#69 = LOCAL_TIME ( 18, 35, 21.00000000000000000, #584 ) ;
#70 = ORIENTED_EDGE ( 'NONE', *, *, #130, .F. ) ;
#71 = CARTESIAN_POINT ( 'NONE',  ( 0.000000000000000000, -0.1124394679724999291, 37.75774960719954976 ) ) ;
#72 = LINE ( 'NONE', #568, #696 ) ;
#73 = ORIENTED_EDGE ( 'NONE', *, *, #601, .T. ) ;
#74 =( NAMED_UNIT ( * ) SI_UNIT ( $, .STERADIAN. ) SOLID_ANGLE_UNIT ( ) );
#75 = VECTOR ( 'NONE', #174, 1000.000000000000000 ) ;
#76 = ORIENTED_EDGE ( 'NONE', *, *, #15, .T. ) ;
#77 = VECTOR ( 'NONE', #577, 1000.000000000000000 ) ;
#78 = AXIS2_PLACEMENT_3D ( 'NONE', #119, #794, #546 ) ;
#79 = EDGE_CURVE ( 'NONE', #542, #330, #214, .T. ) ;
#80 = EDGE_CURVE ( 'NONE', #656, #560, #727, .T. ) ;
#81 = CIRCLE ( 'NONE', #183, 25.45000000000000284 ) ;
#82 = ORIENTED_EDGE ( 'NONE', *, *, #684, .T. ) ;
#83 = CARTESIAN_POINT ( 'NONE',  ( 5.000000000000000888, 0.000000000000000000, 0.000000000000000000 ) ) ;
#84 = PRODUCT_DEFINITION_SHAPE ( 'NONE', 'NONE',  #640 ) ;
#85 = VECTOR ( 'NONE', #638, 1000.000000000000000 ) ;
#86 = VERTEX_POINT ( 'NONE', #167 ) ;
#87 = CARTESIAN_POINT ( 'NONE',  ( 20.00000000000000000, -32.11243946797249293, -15.99225039280046445 ) ) ;
#88 = LINE ( 'NONE', #720, #188 ) ;
#89 = AXIS2_PLACEMENT_3D ( 'NONE', #51, #540, #731 ) ;
#90 = DIRECTION ( 'NONE',  ( 0.000000000000000000, 1.223790811976583605E-16, -1.000000000000000000 ) ) ;
#91 = CARTESIAN_POINT ( 'NONE',  ( 5.000000000000000888, -32.11243946797247872, 34.75774960719952844 ) ) ;
#92 = PERSON_AND_ORGANIZATION ( #171, #129 ) ;
#93 = ORIENTED_EDGE ( 'NONE', *, *, #513, .F. ) ;
#94 = CC_DESIGN_SECURITY_CLASSIFICATION ( #702, ( #628 ) ) ;
#95 = EDGE_LOOP ( 'NONE', ( #529, #565, #168, #18 ) ) ;
#96 = CARTESIAN_POINT ( 'NONE',  ( 5.000000000000000888, -55.61243946797250004, 34.75774960719952844 ) ) ;
#97 = CARTESIAN_POINT ( 'NONE',  ( 5.000000000000000888, -59.11243946797250004, -15.99225039280047156 ) ) ;
#98 = ORIENTED_EDGE ( 'NONE', *, *, #219, .F. ) ;
#99 = EDGE_LOOP ( 'NONE', ( #772, #398, #611, #246 ) ) ;
#100 = CARTESIAN_POINT ( 'NONE',  ( 20.00000000000000000, -110.5124394679724844, 34.75774960719952844 ) ) ;
#101 = ADVANCED_FACE ( 'NONE', ( #723 ), #401, .T. ) ;
#102 = DESIGN_CONTEXT ( 'detailed design', #331, 'design' ) ;
#103 = ORIENTED_EDGE ( 'NONE', *, *, #4, .F. ) ;
#104 = DIRECTION ( 'NONE',  ( 0.000000000000000000, -1.367269734760045303E-16, -1.000000000000000000 ) ) ;
#105 = EDGE_CURVE ( 'NONE', #330, #137, #407, .T. ) ;
#106 = EDGE_LOOP ( 'NONE', ( #793, #803, #666, #216 ) ) ;
#107 = CARTESIAN_POINT ( 'NONE',  ( 5.000000000000000888, -35.61243946797249293, 34.75774960719952844 ) ) ;
#108 = EDGE_CURVE ( 'NONE', #145, #496, #610, .T. ) ;
#109 = PLANE ( 'NONE',  #675 ) ;
#110 = VECTOR ( 'NONE', #776, 1000.000000000000000 ) ;
#111 = EDGE_LOOP ( 'NONE', ( #583, #450, #124, #228 ) ) ;
#112 = FACE_OUTER_BOUND ( 'NONE', #375, .T. ) ;
#113 = ORIENTED_EDGE ( 'NONE', *, *, #495, .F. ) ;
#114 = CARTESIAN_POINT ( 'NONE',  ( 5.000000000000000888, -35.61243946797249293, 34.75774960719952844 ) ) ;
#115 = ORIENTED_EDGE ( 'NONE', *, *, #658, .T. ) ;
#116 = DIRECTION ( 'NONE',  ( 0.000000000000000000, 0.000000000000000000, 1.000000000000000000 ) ) ;
#117 = ORIENTED_EDGE ( 'NONE', *, *, #449, .T. ) ;
#118 = ADVANCED_FACE ( 'NONE', ( #172 ), #413, .F. ) ;
#119 = CARTESIAN_POINT ( 'NONE',  ( 5.000000000000000888, -79.11243946797250715, -15.99225039280045202 ) ) ;
#120 = VECTOR ( 'NONE', #774, 1000.000000000000000 ) ;
#121 = LINE ( 'NONE', #315, #75 ) ;
#122 = CARTESIAN_POINT ( 'NONE',  ( 0.000000000000000000, -0.1124394679724999291, -18.99225039280043248 ) ) ;
#123 = APPROVAL ( #257, 'UNSPECIFIED' ) ;
#124 = ORIENTED_EDGE ( 'NONE', *, *, #218, .F. ) ;
#125 = CARTESIAN_POINT ( 'NONE',  ( 5.000000000000000888, -79.11243946797250715, 34.75774960719952844 ) ) ;
#126 = DIRECTION ( 'NONE',  ( 1.000000000000000000, -0.000000000000000000, -0.000000000000000000 ) ) ;
#127 = VERTEX_POINT ( 'NONE', #552 ) ;
#128 = CARTESIAN_POINT ( 'NONE',  ( 20.00000000000000000, -113.5124394679724986, -18.99225039280045380 ) ) ;
#129 = ORGANIZATION ( 'UNSPECIFIED', 'UNSPECIFIED', '' ) ;
#130 = EDGE_CURVE ( 'NONE', #738, #496, #802, .T. ) ;
#131 = AXIS2_PLACEMENT_3D ( 'NONE', #557, #616, #444 ) ;
#132 = ORIENTED_EDGE ( 'NONE', *, *, #736, .T. ) ;
#133 =( LENGTH_UNIT ( ) NAMED_UNIT ( * ) SI_UNIT ( .MILLI., .METRE. ) );
#134 = ORIENTED_EDGE ( 'NONE', *, *, #165, .F. ) ;
#135 = DIRECTION ( 'NONE',  ( 0.000000000000000000, 0.000000000000000000, 1.000000000000000000 ) ) ;
#136 = CARTESIAN_POINT ( 'NONE',  ( 5.000000000000000888, -79.11243946797250715, -15.99225039280045202 ) ) ;
#137 = VERTEX_POINT ( 'NONE', #60 ) ;
#138 = CARTESIAN_POINT ( 'NONE',  ( 5.000000000000000888, -30.16003710165550800, 34.83274960719953839 ) ) ;
#139 = CARTESIAN_POINT ( 'NONE',  ( 5.000000000000000888, -30.16003710165551155, 9.382749607199533770 ) ) ;
#140 = PERSON_AND_ORGANIZATION ( #171, #129 ) ;
#141 = ORIENTED_EDGE ( 'NONE', *, *, #243, .F. ) ;
#142 = DIRECTION ( 'NONE',  ( 0.000000000000000000, 0.000000000000000000, 1.000000000000000000 ) ) ;
#143 = FACE_OUTER_BOUND ( 'NONE', #469, .T. ) ;
#144 = COORDINATED_UNIVERSAL_TIME_OFFSET ( 0, 0, .AHEAD. ) ;
#145 = VERTEX_POINT ( 'NONE', #690 ) ;
#146 = CARTESIAN_POINT ( 'NONE',  ( 20.00000000000000000, -79.11243946797250715, 34.75774960719952844 ) ) ;
#147 = VECTOR ( 'NONE', #476, 1000.000000000000000 ) ;
#148 = EDGE_CURVE ( 'NONE', #154, #145, #72, .T. ) ;
#149 = ORIENTED_EDGE ( 'NONE', *, *, #749, .T. ) ;
#150 = DIRECTION ( 'NONE',  ( 0.000000000000000000, -1.000000000000000000, -1.835686217964875531E-16 ) ) ;
#151 = DIRECTION ( 'NONE',  ( 0.000000000000000000, -1.367269734760045303E-16, -1.000000000000000000 ) ) ;
#152 = CARTESIAN_POINT ( 'NONE',  ( 5.000000000000000888, -55.61243946797250004, 34.75774960719952844 ) ) ;
#153 = LOCAL_TIME ( 18, 35, 21.00000000000000000, #144 ) ;
#154 = VERTEX_POINT ( 'NONE', #620 ) ;
#155 = DIRECTION ( 'NONE',  ( 0.000000000000000000, -1.000000000000000000, 1.367269734760045303E-16 ) ) ;
#156 = CARTESIAN_POINT ( 'NONE',  ( 5.000000000000000888, -59.11243946797250715, 34.75774960719952844 ) ) ;
#157 = VECTOR ( 'NONE', #572, 1000.000000000000000 ) ;
#158 = DATE_AND_TIME ( #319, #589 ) ;
#159 = EDGE_CURVE ( 'NONE', #203, #560, #757, .T. ) ;
#160 = ORIENTED_EDGE ( 'NONE', *, *, #233, .T. ) ;
#161 = EDGE_CURVE ( 'NONE', #701, #569, #307, .T. ) ;
#162 = DIRECTION ( 'NONE',  ( 0.000000000000000000, 0.000000000000000000, -1.000000000000000000 ) ) ;
#163 = ORIENTED_EDGE ( 'NONE', *, *, #461, .T. ) ;
#164 = LINE ( 'NONE', #169, #52 ) ;
#165 = EDGE_CURVE ( 'NONE', #127, #268, #194, .T. ) ;
#166 = CARTESIAN_POINT ( 'NONE',  ( 5.000000000000000888, -55.61243946797250715, -15.99225039280045912 ) ) ;
#167 = CARTESIAN_POINT ( 'NONE',  ( 20.00000000000000000, -79.11243946797250715, 34.75774960719952844 ) ) ;
#168 = ORIENTED_EDGE ( 'NONE', *, *, #161, .T. ) ;
#169 = CARTESIAN_POINT ( 'NONE',  ( 18.00000000000000355, -85.61243946797250715, 34.75774960719952844 ) ) ;
#170 = VECTOR ( 'NONE', #507, 1000.000000000000000 ) ;
#171 = PERSON ( 'UNSPECIFIED', 'UNSPECIFIED', 'UNSPECIFIED', ('UNSPECIFIED'), ('UNSPECIFIED'), ('UNSPECIFIED') ) ;
#172 = FACE_OUTER_BOUND ( 'NONE', #95, .T. ) ;
#173 = VERTEX_POINT ( 'NONE', #499 ) ;
#174 = DIRECTION ( 'NONE',  ( 1.000000000000000000, -0.000000000000000000, -0.000000000000000000 ) ) ;
#175 = ADVANCED_FACE ( 'NONE', ( #438 ), #369, .F. ) ;
#176 = CIRCLE ( 'NONE', #680, 25.45000000000000284 ) ;
#177 = ORIENTED_EDGE ( 'NONE', *, *, #192, .F. ) ;
#178 = DIRECTION ( 'NONE',  ( 0.000000000000000000, 0.000000000000000000, -1.000000000000000000 ) ) ;
#179 = DIRECTION ( 'NONE',  ( 0.000000000000000000, 1.000000000000000000, 0.000000000000000000 ) ) ;
#180 = DIRECTION ( 'NONE',  ( 0.000000000000000000, -1.000000000000000000, 1.367269734760045303E-16 ) ) ;
#181 = ORIENTED_EDGE ( 'NONE', *, *, #410, .F. ) ;
#182 = CARTESIAN_POINT ( 'NONE',  ( 5.000000000000000888, -30.16003710165551155, 9.382749607199533770 ) ) ;
#183 = AXIS2_PLACEMENT_3D ( 'NONE', #204, #195, #255 ) ;
#184 = CC_DESIGN_PERSON_AND_ORGANIZATION_ASSIGNMENT ( #707, #215, ( #702 ) ) ;
#185 = DIRECTION ( 'NONE',  ( -1.000000000000000000, -0.000000000000000000, -0.000000000000000000 ) ) ;
#186 = ORIENTED_EDGE ( 'NONE', *, *, #312, .T. ) ;
#187 = ADVANCED_FACE ( 'NONE', ( #578 ), #514, .T. ) ;
#188 = VECTOR ( 'NONE', #703, 1000.000000000000000 ) ;
#189 = VERTEX_POINT ( 'NONE', #765 ) ;
#190 = PERSON_AND_ORGANIZATION ( #171, #129 ) ;
#191 = AXIS2_PLACEMENT_3D ( 'NONE', #288, #351, #486 ) ;
#192 = EDGE_CURVE ( 'NONE', #242, #615, #761, .T. ) ;
#193 = DIRECTION ( 'NONE',  ( -0.000000000000000000, 0.000000000000000000, 1.000000000000000000 ) ) ;
#194 = LINE ( 'NONE', #304, #157 ) ;
#195 = DIRECTION ( 'NONE',  ( -1.000000000000000000, -0.000000000000000000, 0.000000000000000000 ) ) ;
#196 = ORIENTED_EDGE ( 'NONE', *, *, #601, .F. ) ;
#197 = CARTESIAN_POINT ( 'NONE',  ( 20.00000000000000000, -110.5124394679724844, 34.75774960719952844 ) ) ;
#198 = DIRECTION ( 'NONE',  ( 1.000000000000000000, -0.000000000000000000, -0.000000000000000000 ) ) ;
#199 = LINE ( 'NONE', #136, #27 ) ;
#200 = ADVANCED_FACE ( 'NONE', ( #769 ), #705, .F. ) ;
#201 = EDGE_LOOP ( 'NONE', ( #586, #308, #592, #224 ) ) ;
#202 = CALENDAR_DATE ( 2026, 7, 9 ) ;
#203 = VERTEX_POINT ( 'NONE', #710 ) ;
#204 = CARTESIAN_POINT ( 'NONE',  ( 20.00000000000000000, -30.16003710165551155, 9.382749607199533770 ) ) ;
#205 = VERTEX_POINT ( 'NONE', #326 ) ;
#206 = ORIENTED_EDGE ( 'NONE', *, *, #699, .T. ) ;
#207 = CARTESIAN_POINT ( 'NONE',  ( 20.00000000000000000, -35.61243946797249293, 34.75774960719952844 ) ) ;
#208 = DIRECTION ( 'NONE',  ( -0.000000000000000000, 1.000000000000000000, -0.000000000000000000 ) ) ;
#209 = EDGE_CURVE ( 'NONE', #154, #189, #28, .T. ) ;
#210 = VERTEX_POINT ( 'NONE', #97 ) ;
#211 = ORIENTED_EDGE ( 'NONE', *, *, #624, .T. ) ;
#212 = AXIS2_PLACEMENT_3D ( 'NONE', #679, #229, #178 ) ;
#213 = LINE ( 'NONE', #452, #511 ) ;
#214 = LINE ( 'NONE', #152, #530 ) ;
#215 = PERSON_AND_ORGANIZATION_ROLE ( 'classification_officer' ) ;
#216 = ORIENTED_EDGE ( 'NONE', *, *, #79, .T. ) ;
#217 = CYLINDRICAL_SURFACE ( 'NONE', #289, 25.44999999999999929 ) ;
#218 = EDGE_CURVE ( 'NONE', #738, #656, #232, .T. ) ;
#219 = EDGE_CURVE ( 'NONE', #330, #368, #38, .T. ) ;
#220 = EDGE_LOOP ( 'NONE', ( #73, #462, #607, #82 ) ) ;
#221 = LINE ( 'NONE', #725, #77 ) ;
#222 = DIRECTION ( 'NONE',  ( 1.000000000000000000, -0.000000000000000000, -0.000000000000000000 ) ) ;
#223 = AXIS2_PLACEMENT_3D ( 'NONE', #672, #396, #285 ) ;
#224 = ORIENTED_EDGE ( 'NONE', *, *, #348, .T. ) ;
#225 = ORIENTED_EDGE ( 'NONE', *, *, #687, .T. ) ;
#226 = CARTESIAN_POINT ( 'NONE',  ( 5.000000000000000888, -30.16003710165551155, -16.06725039280046730 ) ) ;
#227 = DIRECTION ( 'NONE',  ( 1.000000000000000000, -0.000000000000000000, -0.000000000000000000 ) ) ;
#228 = ORIENTED_EDGE ( 'NONE', *, *, #130, .T. ) ;
#229 = DIRECTION ( 'NONE',  ( 0.000000000000000000, -1.000000000000000000, -0.000000000000000000 ) ) ;
#230 = APPROVAL_PERSON_ORGANIZATION ( #783, #123, #23 ) ;
#231 = AXIS2_PLACEMENT_3D ( 'NONE', #423, #417, #364 ) ;
#232 = LINE ( 'NONE', #347, #777 ) ;
#233 = EDGE_CURVE ( 'NONE', #516, #268, #333, .T. ) ;
#234 = DIRECTION ( 'NONE',  ( -0.000000000000000000, 0.000000000000000000, 1.000000000000000000 ) ) ;
#235 = VERTEX_POINT ( 'NONE', #606 ) ;
#236 = DIRECTION ( 'NONE',  ( 0.000000000000000000, 1.000000000000000000, 0.000000000000000000 ) ) ;
#237 = VERTEX_POINT ( 'NONE', #660 ) ;
#238 = APPROVAL ( #30, 'UNSPECIFIED' ) ;
#239 = EDGE_LOOP ( 'NONE', ( #698, #657, #160, #53 ) ) ;
#240 = FACE_OUTER_BOUND ( 'NONE', #106, .T. ) ;
#241 = DIRECTION ( 'NONE',  ( 0.000000000000000000, 0.000000000000000000, 1.000000000000000000 ) ) ;
#242 = VERTEX_POINT ( 'NONE', #156 ) ;
#243 = EDGE_CURVE ( 'NONE', #354, #419, #352, .T. ) ;
#244 = DIRECTION ( 'NONE',  ( 1.000000000000000000, -0.000000000000000000, -0.000000000000000000 ) ) ;
#245 = DIRECTION ( 'NONE',  ( -1.000000000000000000, -0.000000000000000000, -0.000000000000000000 ) ) ;
#246 = ORIENTED_EDGE ( 'NONE', *, *, #105, .F. ) ;
#247 = AXIS2_PLACEMENT_3D ( 'NONE', #139, #646, #717 ) ;
#248 = CIRCLE ( 'NONE', #712, 25.45000000000000284 ) ;
#249 = CARTESIAN_POINT ( 'NONE',  ( 5.000000000000000888, -32.11243946797249293, -15.99225039280046445 ) ) ;
#250 = ORIENTED_EDGE ( 'NONE', *, *, #292, .T. ) ;
#251 = ADVANCED_FACE ( 'NONE', ( #337 ), #549, .T. ) ;
#252 = DIRECTION ( 'NONE',  ( 0.000000000000000000, 1.367269734760045056E-16, -1.000000000000000000 ) ) ;
#253 = ORIENTED_EDGE ( 'NONE', *, *, #299, .F. ) ;
#254 = AXIS2_PLACEMENT_3D ( 'NONE', #746, #180, #151 ) ;
#255 = DIRECTION ( 'NONE',  ( 0.000000000000000000, 0.000000000000000000, 1.000000000000000000 ) ) ;
#256 = VERTEX_POINT ( 'NONE', #655 ) ;
#257 = APPROVAL_STATUS ( 'not_yet_approved' ) ;
#258 = ORIENTED_EDGE ( 'NONE', *, *, #536, .F. ) ;
#259 = FACE_BOUND ( 'NONE', #685, .T. ) ;
#260 = EDGE_CURVE ( 'NONE', #256, #137, #280, .T. ) ;
#261 = CARTESIAN_POINT ( 'NONE',  ( 18.00000000000000355, -82.61243946797250715, 34.75774960719952844 ) ) ;
#262 = CARTESIAN_POINT ( 'NONE',  ( 18.00000000000000355, -85.61243946797250715, 34.75774960719952844 ) ) ;
#263 = CARTESIAN_POINT ( 'NONE',  ( 5.000000000000000888, -35.61243946797250004, -15.99225039280045912 ) ) ;
#264 = ORIENTED_EDGE ( 'NONE', *, *, #46, .T. ) ;
#265 = ADVANCED_FACE ( 'NONE', ( #284 ), #472, .T. ) ;
#266 = DIRECTION ( 'NONE',  ( 0.000000000000000000, 1.000000000000000000, 0.000000000000000000 ) ) ;
#267 = APPROVAL_PERSON_ORGANIZATION ( #190, #9, #760 ) ;
#268 = VERTEX_POINT ( 'NONE', #787 ) ;
#269 = AXIS2_PLACEMENT_3D ( 'NONE', #521, #244, #689 ) ;
#270 = ADVANCED_FACE ( 'NONE', ( #466 ), #217, .F. ) ;
#271 = DIRECTION ( 'NONE',  ( 0.000000000000000000, 0.000000000000000000, -1.000000000000000000 ) ) ;
#272 = AXIS2_PLACEMENT_3D ( 'NONE', #353, #295, #234 ) ;
#273 = VERTEX_POINT ( 'NONE', #795 ) ;
#274 = ORIENTED_EDGE ( 'NONE', *, *, #15, .F. ) ;
#275 = LINE ( 'NONE', #207, #433 ) ;
#276 = VECTOR ( 'NONE', #448, 1000.000000000000000 ) ;
#277 = PLANE ( 'NONE',  #459 ) ;
#278 = CALENDAR_DATE ( 2026, 7, 9 ) ;
#279 = LINE ( 'NONE', #386, #468 ) ;
#280 = LINE ( 'NONE', #166, #647 ) ;
#281 = LOCAL_TIME ( 18, 35, 21.00000000000000000, #523 ) ;
#282 = ORIENTED_EDGE ( 'NONE', *, *, #148, .T. ) ;
#283 = EDGE_CURVE ( 'NONE', #439, #237, #596, .T. ) ;
#284 = FACE_OUTER_BOUND ( 'NONE', #414, .T. ) ;
#285 = DIRECTION ( 'NONE',  ( 0.000000000000000000, -0.000000000000000000, 1.000000000000000000 ) ) ;
#286 = ORIENTED_EDGE ( 'NONE', *, *, #360, .T. ) ;
#287 = PLANE ( 'NONE',  #78 ) ;
#288 = CARTESIAN_POINT ( 'NONE',  ( 20.00000000000000000, -30.16003710165551155, 9.382749607199533770 ) ) ;
#289 = AXIS2_PLACEMENT_3D ( 'NONE', #399, #222, #741 ) ;
#290 = VERTEX_POINT ( 'NONE', #226 ) ;
#291 = PLANE ( 'NONE',  #212 ) ;
#292 = EDGE_CURVE ( 'NONE', #210, #127, #480, .T. ) ;
#293 = VECTOR ( 'NONE', #504, 1000.000000000000000 ) ;
#294 = DIRECTION ( 'NONE',  ( 1.000000000000000000, -0.000000000000000000, -0.000000000000000000 ) ) ;
#295 = DIRECTION ( 'NONE',  ( -1.000000000000000000, 0.000000000000000000, -0.000000000000000000 ) ) ;
#296 = ORIENTED_EDGE ( 'NONE', *, *, #360, .F. ) ;
#297 = LINE ( 'NONE', #64, #418 ) ;
#298 = ORIENTED_EDGE ( 'NONE', *, *, #80, .T. ) ;
#299 = EDGE_CURVE ( 'NONE', #290, #235, #248, .T. ) ;
#300 = ADVANCED_FACE ( 'NONE', ( #391 ), #277, .T. ) ;
#301 = MANIFOLD_SOLID_BREP ( 'Cut-Extrude4', #47 ) ;
#302 = FACE_BOUND ( 'NONE', #99, .T. ) ;
#303 = ADVANCED_FACE ( 'NONE', ( #535 ), #109, .F. ) ;
#304 = CARTESIAN_POINT ( 'NONE',  ( 5.000000000000000888, -79.11243946797250715, -15.99225039280045202 ) ) ;
#305 = PLANE ( 'NONE',  #429 ) ;
#306 = ORIENTED_EDGE ( 'NONE', *, *, #312, .F. ) ;
#307 = LINE ( 'NONE', #65, #619 ) ;
#308 = ORIENTED_EDGE ( 'NONE', *, *, #684, .F. ) ;
#309 = EDGE_CURVE ( 'NONE', #357, #242, #297, .T. ) ;
#310 = LINE ( 'NONE', #686, #541 ) ;
#311 = LINE ( 'NONE', #249, #603 ) ;
#312 = EDGE_CURVE ( 'NONE', #290, #354, #121, .T. ) ;
#313 = ORIENTED_EDGE ( 'NONE', *, *, #771, .T. ) ;
#314 = DIRECTION ( 'NONE',  ( 1.000000000000000000, 0.000000000000000000, 0.000000000000000000 ) ) ;
#315 = CARTESIAN_POINT ( 'NONE',  ( 5.000000000000000888, -30.16003710165551155, -16.06725039280046730 ) ) ;
#316 = CARTESIAN_POINT ( 'NONE',  ( 18.00000000000000355, -82.61243946797250715, -15.99225039280045202 ) ) ;
#317 = ORIENTED_EDGE ( 'NONE', *, *, #479, .T. ) ;
#318 = ADVANCED_FACE ( 'NONE', ( #259, #755, #59, #491, #302 ), #305, .F. ) ;
#319 = CALENDAR_DATE ( 2026, 7, 9 ) ;
#320 = FACE_OUTER_BOUND ( 'NONE', #408, .T. ) ;
#321 = LINE ( 'NONE', #13, #293 ) ;
#322 = ADVANCED_FACE ( 'NONE', ( #745 ), #682, .F. ) ;
#323 = CARTESIAN_POINT ( 'NONE',  ( 20.00000000000000000, -35.61243946797250004, -15.99225039280045912 ) ) ;
#324 = DATE_AND_TIME ( #278, #281 ) ;
#325 = CARTESIAN_POINT ( 'NONE',  ( 5.000000000000000888, -35.61243946797249293, 34.75774960719952844 ) ) ;
#326 = CARTESIAN_POINT ( 'NONE',  ( 20.00000000000000000, -82.61243946797250715, 34.75774960719952844 ) ) ;
#327 = CC_DESIGN_APPROVAL ( #9, ( #640 ) ) ;
#328 = CARTESIAN_POINT ( 'NONE',  ( 20.00000000000000000, -110.5124394679724844, -15.99225039280045202 ) ) ;
#329 = DATE_AND_TIME ( #652, #153 ) ;
#330 = VERTEX_POINT ( 'NONE', #810 ) ;
#331 = APPLICATION_CONTEXT ( 'configuration controlled 3d designs of mechanical parts and assemblies' ) ;
#332 = DIRECTION ( 'NONE',  ( 0.000000000000000000, -1.367269734760045303E-16, -1.000000000000000000 ) ) ;
#333 = LINE ( 'NONE', #343, #147 ) ;
#334 = ORIENTED_EDGE ( 'NONE', *, *, #209, .T. ) ;
#335 = UNCERTAINTY_MEASURE_WITH_UNIT (LENGTH_MEASURE( 1.000000000000000082E-05 ), #133, 'distance_accuracy_value', 'NONE');
#336 = EDGE_LOOP ( 'NONE', ( #633, #434, #537, #532 ) ) ;
#337 = FACE_OUTER_BOUND ( 'NONE', #489, .T. ) ;
#338 = DIRECTION ( 'NONE',  ( 0.000000000000000000, -1.367269734760045303E-16, -1.000000000000000000 ) ) ;
#339 = ORIENTED_EDGE ( 'NONE', *, *, #658, .F. ) ;
#340 = DIRECTION ( 'NONE',  ( 0.000000000000000000, 0.000000000000000000, -1.000000000000000000 ) ) ;
#341 = ADVANCED_FACE ( 'NONE', ( #240 ), #421, .F. ) ;
#342 = CARTESIAN_POINT ( 'NONE',  ( 5.000000000000000888, -30.16003710165551155, 9.382749607199533770 ) ) ;
#343 = CARTESIAN_POINT ( 'NONE',  ( 20.00000000000000000, -59.11243946797250004, -15.99225039280047156 ) ) ;
#344 = ORIENTED_EDGE ( 'NONE', *, *, #747, .F. ) ;
#345 = DIRECTION ( 'NONE',  ( 0.000000000000000000, -1.000000000000000000, 0.000000000000000000 ) ) ;
#346 = CARTESIAN_POINT ( 'NONE',  ( 5.000000000000000888, 0.000000000000000000, 0.000000000000000000 ) ) ;
#347 = CARTESIAN_POINT ( 'NONE',  ( 20.00000000000000000, -113.5124394679724986, 37.75774960719953555 ) ) ;
#348 = EDGE_CURVE ( 'NONE', #237, #2, #677, .T. ) ;
#349 = EDGE_LOOP ( 'NONE', ( #670, #103, #113, #149 ) ) ;
#350 = DIRECTION ( 'NONE',  ( -0.000000000000000000, 0.000000000000000000, -1.000000000000000000 ) ) ;
#351 = DIRECTION ( 'NONE',  ( -1.000000000000000000, -0.000000000000000000, 0.000000000000000000 ) ) ;
#352 = CIRCLE ( 'NONE', #191, 25.45000000000000284 ) ;
#353 = CARTESIAN_POINT ( 'NONE',  ( 18.00000000000000355, 0.000000000000000000, 0.000000000000000000 ) ) ;
#354 = VERTEX_POINT ( 'NONE', #753 ) ;
#355 = FACE_OUTER_BOUND ( 'NONE', #201, .T. ) ;
#356 = DIRECTION ( 'NONE',  ( 0.000000000000000000, 1.040834085586084059E-15, 1.000000000000000000 ) ) ;
#357 = VERTEX_POINT ( 'NONE', #1 ) ;
#358 = CARTESIAN_POINT ( 'NONE',  ( 18.00000000000000355, -82.61243946797250715, -15.99225039280045202 ) ) ;
#359 = ADVANCED_FACE ( 'NONE', ( #428 ), #55, .F. ) ;
#360 = EDGE_CURVE ( 'NONE', #483, #368, #503, .T. ) ;
#361 = VECTOR ( 'NONE', #440, 1000.000000000000000 ) ;
#362 = ORIENTED_EDGE ( 'NONE', *, *, #165, .T. ) ;
#363 = LINE ( 'NONE', #612, #809 ) ;
#364 = DIRECTION ( 'NONE',  ( 0.000000000000000000, -1.367269734760045303E-16, -1.000000000000000000 ) ) ;
#365 = ORIENTED_EDGE ( 'NONE', *, *, #159, .F. ) ;
#366 = CARTESIAN_POINT ( 'NONE',  ( 20.00000000000000000, -35.61243946797249293, 34.75774960719952844 ) ) ;
#367 = VECTOR ( 'NONE', #58, 1000.000000000000000 ) ;
#368 = VERTEX_POINT ( 'NONE', #366 ) ;
#369 = PLANE ( 'NONE',  #254 ) ;
#370 = CC_DESIGN_PERSON_AND_ORGANIZATION_ASSIGNMENT ( #140, #519, ( #628 ) ) ;
#371 = DIRECTION ( 'NONE',  ( 0.000000000000000000, -1.000000000000000000, -1.367269734760045303E-16 ) ) ;
#372 = VECTOR ( 'NONE', #62, 1000.000000000000000 ) ;
#373 = ORIENTED_EDGE ( 'NONE', *, *, #449, .F. ) ;
#374 = CARTESIAN_POINT ( 'NONE',  ( 20.00000000000000000, -79.11243946797250715, -15.99225039280045202 ) ) ;
#375 = EDGE_LOOP ( 'NONE', ( #492, #518, #554, #550 ) ) ;
#376 = FACE_OUTER_BOUND ( 'NONE', #585, .T. ) ;
#377 = DIRECTION ( 'NONE',  ( 0.000000000000000000, 0.000000000000000000, 1.000000000000000000 ) ) ;
#378 = PLANE ( 'NONE',  #247 ) ;
#379 = APPROVAL_ROLE ( '' ) ;
#380 = AXIS2_PLACEMENT_3D ( 'NONE', #383, #90, #527 ) ;
#381 = ADVANCED_FACE ( 'NONE', ( #376 ), #626, .T. ) ;
#382 = PLANE ( 'NONE',  #735 ) ;
#383 = CARTESIAN_POINT ( 'NONE',  ( 20.00000000000000000, -0.1124394679724999291, 37.75774960719954976 ) ) ;
#384 = ORIENTED_EDGE ( 'NONE', *, *, #461, .F. ) ;
#385 = DATE_AND_TIME ( #202, #693 ) ;
#386 = CARTESIAN_POINT ( 'NONE',  ( 0.000000000000000000, -113.5124394679724986, 37.75774960719953555 ) ) ;
#387 = LINE ( 'NONE', #651, #361 ) ;
#388 = AXIS2_PLACEMENT_3D ( 'NONE', #358, #350, #403 ) ;
#389 = COORDINATED_UNIVERSAL_TIME_OFFSET ( 0, 0, .AHEAD. ) ;
#390 = ORIENTED_EDGE ( 'NONE', *, *, #475, .F. ) ;
#391 = FACE_OUTER_BOUND ( 'NONE', #573, .T. ) ;
#392 = ORIENTED_EDGE ( 'NONE', *, *, #243, .T. ) ;
#393 = SHAPE_DEFINITION_REPRESENTATION ( #84, #752 ) ;
#394 = ORIENTED_EDGE ( 'NONE', *, *, #570, .T. ) ;
#395 = DIRECTION ( 'NONE',  ( -1.000000000000000000, 0.000000000000000000, -0.000000000000000000 ) ) ;
#396 = DIRECTION ( 'NONE',  ( -0.000000000000000000, 1.000000000000000000, 0.000000000000000000 ) ) ;
#397 = DATE_TIME_ROLE ( 'creation_date' ) ;
#398 = ORIENTED_EDGE ( 'NONE', *, *, #410, .T. ) ;
#399 = CARTESIAN_POINT ( 'NONE',  ( 5.000000000000000888, -30.16003710165551155, 9.382749607199533770 ) ) ;
#400 = CC_DESIGN_PERSON_AND_ORGANIZATION_ASSIGNMENT ( #92, #454, ( #640 ) ) ;
#401 = PLANE ( 'NONE',  #223 ) ;
#402 = ORIENTED_EDGE ( 'NONE', *, *, #192, .T. ) ;
#403 = DIRECTION ( 'NONE',  ( -1.000000000000000000, 0.000000000000000000, 0.000000000000000000 ) ) ;
#404 = CARTESIAN_POINT ( 'NONE',  ( 20.00000000000000000, -30.16003710165551155, 9.382749607199533770 ) ) ;
#405 = DIRECTION ( 'NONE',  ( 0.000000000000000000, 0.000000000000000000, 1.000000000000000000 ) ) ;
#406 = ADVANCED_FACE ( 'NONE', ( #593 ), #643, .F. ) ;
#407 = LINE ( 'NONE', #488, #639 ) ;
#408 = EDGE_LOOP ( 'NONE', ( #719, #134, #206, #49 ) ) ;
#409 = DIRECTION ( 'NONE',  ( -0.000000000000000000, -1.000000000000000000, -0.000000000000000000 ) ) ;
#410 = EDGE_CURVE ( 'NONE', #368, #173, #275, .T. ) ;
#411 = CARTESIAN_POINT ( 'NONE',  ( 20.00000000000000000, -0.1124394679724999291, 37.75774960719954976 ) ) ;
#412 = VECTOR ( 'NONE', #522, 1000.000000000000000 ) ;
#413 = PLANE ( 'NONE',  #272 ) ;
#414 = EDGE_LOOP ( 'NONE', ( #365, #384, #394, #298 ) ) ;
#415 = LINE ( 'NONE', #676, #367 ) ;
#416 = VECTOR ( 'NONE', #420, 1000.000000000000000 ) ;
#417 = DIRECTION ( 'NONE',  ( 0.000000000000000000, -1.000000000000000000, 1.367269734760045303E-16 ) ) ;
#418 = VECTOR ( 'NONE', #179, 1000.000000000000000 ) ;
#419 = VERTEX_POINT ( 'NONE', #87 ) ;
#420 = DIRECTION ( 'NONE',  ( 0.000000000000000000, 1.367269734760045056E-16, -1.000000000000000000 ) ) ;
#421 = PLANE ( 'NONE',  #231 ) ;
#422 = ORIENTED_EDGE ( 'NONE', *, *, #148, .F. ) ;
#423 = CARTESIAN_POINT ( 'NONE',  ( 5.000000000000000888, -55.61243946797250004, 34.75774960719952844 ) ) ;
#424 = AXIS2_PLACEMENT_3D ( 'NONE', #517, #371, #25 ) ;
#425 = ORIENTED_EDGE ( 'NONE', *, *, #4, .T. ) ;
#426 = ADVANCED_FACE ( 'NONE', ( #320 ), #287, .T. ) ;
#427 = MECHANICAL_CONTEXT ( 'NONE', #451, 'mechanical' ) ;
#428 = FACE_OUTER_BOUND ( 'NONE', #545, .T. ) ;
#429 = AXIS2_PLACEMENT_3D ( 'NONE', #555, #563, #805 ) ;
#430 = ORIENTED_EDGE ( 'NONE', *, *, #309, .F. ) ;
#431 = CARTESIAN_POINT ( 'NONE',  ( 18.00000000000000355, -82.61243946797250715, 34.75774960719952844 ) ) ;
#432 = DIRECTION ( 'NONE',  ( 1.000000000000000000, 0.000000000000000000, -0.000000000000000000 ) ) ;
#433 = VECTOR ( 'NONE', #605, 1000.000000000000000 ) ;
#434 = ORIENTED_EDGE ( 'NONE', *, *, #63, .F. ) ;
#435 = LINE ( 'NONE', #374, #553 ) ;
#436 = CC_DESIGN_APPROVAL ( #238, ( #702 ) ) ;
#437 = AXIS2_PLACEMENT_3D ( 'NONE', #68, #356, #636 ) ;
#438 = FACE_OUTER_BOUND ( 'NONE', #808, .T. ) ;
#439 = VERTEX_POINT ( 'NONE', #674 ) ;
#440 = DIRECTION ( 'NONE',  ( 1.000000000000000000, -0.000000000000000000, -0.000000000000000000 ) ) ;
#441 = EDGE_CURVE ( 'NONE', #205, #683, #363, .T. ) ;
#442 = LINE ( 'NONE', #125, #668 ) ;
#443 = ADVANCED_FACE ( 'NONE', ( #112 ), #493, .T. ) ;
#444 = DIRECTION ( 'NONE',  ( 0.000000000000000000, -0.000000000000000000, 1.000000000000000000 ) ) ;
#445 = LINE ( 'NONE', #756, #750 ) ;
#446 = PRODUCT ( 'Bookshelf', 'Bookshelf', '', ( #427 ) ) ;
#447 = CARTESIAN_POINT ( 'NONE',  ( 5.000000000000000888, -59.11243946797250715, 34.75774960719952844 ) ) ;
#448 = DIRECTION ( 'NONE',  ( 1.000000000000000000, -0.000000000000000000, -0.000000000000000000 ) ) ;
#449 = EDGE_CURVE ( 'NONE', #790, #290, #665, .T. ) ;
#450 = ORIENTED_EDGE ( 'NONE', *, *, #80, .F. ) ;
#451 = APPLICATION_CONTEXT ( 'configuration controlled 3d designs of mechanical parts and assemblies' ) ;
#452 = CARTESIAN_POINT ( 'NONE',  ( 18.00000000000000355, -82.61243946797250715, -15.99225039280045202 ) ) ;
#453 = ORIENTED_EDGE ( 'NONE', *, *, #309, .T. ) ;
#454 = PERSON_AND_ORGANIZATION_ROLE ( 'creator' ) ;
#455 = ORIENTED_EDGE ( 'NONE', *, *, #348, .F. ) ;
#456 = CARTESIAN_POINT ( 'NONE',  ( 20.00000000000000000, -82.61243946797250715, -15.99225039280045202 ) ) ;
#457 = PERSON_AND_ORGANIZATION ( #171, #129 ) ;
#458 = ORIENTED_EDGE ( 'NONE', *, *, #567, .T. ) ;
#459 = AXIS2_PLACEMENT_3D ( 'NONE', #543, #669, #395 ) ;
#460 = CARTESIAN_POINT ( 'NONE',  ( 20.00000000000000000, -82.61243946797250715, 10.88274960719953732 ) ) ;
#461 = EDGE_CURVE ( 'NONE', #189, #203, #807, .T. ) ;
#462 = ORIENTED_EDGE ( 'NONE', *, *, #749, .F. ) ;
#463 = APPROVAL_DATE_TIME ( #329, #9 ) ;
#464 = EDGE_LOOP ( 'NONE', ( #642, #597, #40, #16 ) ) ;
#465 = DIRECTION ( 'NONE',  ( 1.000000000000000000, 0.000000000000000000, -0.000000000000000000 ) ) ;
#466 = FACE_OUTER_BOUND ( 'NONE', #31, .T. ) ;
#467 = AXIS2_PLACEMENT_3D ( 'NONE', #346, #613, #740 ) ;
#468 = VECTOR ( 'NONE', #271, 1000.000000000000000 ) ;
#469 = EDGE_LOOP ( 'NONE', ( #132, #253, #373, #784 ) ) ;
#470 = DIRECTION ( 'NONE',  ( 0.000000000000000000, 0.000000000000000000, 1.000000000000000000 ) ) ;
#471 = ADVANCED_FACE ( 'NONE', ( #355 ), #791, .F. ) ;
#472 = PLANE ( 'NONE',  #505 ) ;
#473 = ORIENTED_EDGE ( 'NONE', *, *, #108, .T. ) ;
#474 = CARTESIAN_POINT ( 'NONE',  ( 5.000000000000000888, -55.61243946797250004, 34.75774960719952844 ) ) ;
#475 = EDGE_CURVE ( 'NONE', #542, #483, #804, .T. ) ;
#476 = DIRECTION ( 'NONE',  ( 0.000000000000000000, -1.000000000000000000, 1.040834085586084059E-15 ) ) ;
#477 = ORIENTED_EDGE ( 'NONE', *, *, #699, .F. ) ;
#478 = CARTESIAN_POINT ( 'NONE',  ( 0.000000000000000000, -113.5124394679724986, 37.75774960719953555 ) ) ;
#479 = EDGE_CURVE ( 'NONE', #210, #516, #667, .T. ) ;
#480 = LINE ( 'NONE', #34, #6 ) ;
#481 = CARTESIAN_POINT ( 'NONE',  ( 0.000000000000000000, -0.1124394679724999291, 37.75774960719954976 ) ) ;
#482 = VECTOR ( 'NONE', #506, 1000.000000000000000 ) ;
#483 = VERTEX_POINT ( 'NONE', #107 ) ;
#484 = LINE ( 'NONE', #618, #416 ) ;
#485 = CARTESIAN_POINT ( 'NONE',  ( 20.00000000000000000, -113.5124394679724986, 37.75774960719953555 ) ) ;
#486 = DIRECTION ( 'NONE',  ( 0.000000000000000000, 0.000000000000000000, 1.000000000000000000 ) ) ;
#487 = VECTOR ( 'NONE', #185, 1000.000000000000000 ) ;
#488 = CARTESIAN_POINT ( 'NONE',  ( 20.00000000000000000, -55.61243946797250004, 34.75774960719952844 ) ) ;
#489 = EDGE_LOOP ( 'NONE', ( #673, #10, #453, #402 ) ) ;
#490 = CARTESIAN_POINT ( 'NONE',  ( 5.000000000000000888, -59.11243946797250004, -15.99225039280047156 ) ) ;
#491 = FACE_OUTER_BOUND ( 'NONE', #464, .T. ) ;
#492 = ORIENTED_EDGE ( 'NONE', *, *, #600, .F. ) ;
#493 = PLANE ( 'NONE',  #664 ) ;
#494 = CARTESIAN_POINT ( 'NONE',  ( 5.000000000000000888, -32.11243946797247872, 34.75774960719952844 ) ) ;
#495 = EDGE_CURVE ( 'NONE', #569, #439, #164, .T. ) ;
#496 = VERTEX_POINT ( 'NONE', #478 ) ;
#497 = CC_DESIGN_DATE_AND_TIME_ASSIGNMENT ( #158, #397, ( #640 ) ) ;
#498 = DIRECTION ( 'NONE',  ( 1.000000000000000000, -0.000000000000000000, -0.000000000000000000 ) ) ;
#499 = CARTESIAN_POINT ( 'NONE',  ( 20.00000000000000000, -35.61243946797250004, -15.99225039280045912 ) ) ;
#500 = ORIENTED_EDGE ( 'NONE', *, *, #627, .T. ) ;
#501 = PERSON_AND_ORGANIZATION ( #171, #129 ) ;
#502 = ADVANCED_FACE ( 'NONE', ( #44 ), #291, .F. ) ;
#503 = LINE ( 'NONE', #114, #695 ) ;
#504 = DIRECTION ( 'NONE',  ( 1.000000000000000000, -0.000000000000000000, -0.000000000000000000 ) ) ;
#505 = AXIS2_PLACEMENT_3D ( 'NONE', #781, #602, #800 ) ;
#506 = DIRECTION ( 'NONE',  ( 1.000000000000000000, -0.000000000000000000, -0.000000000000000000 ) ) ;
#507 = DIRECTION ( 'NONE',  ( 0.000000000000000000, 0.000000000000000000, -1.000000000000000000 ) ) ;
#508 = EDGE_LOOP ( 'NONE', ( #458, #455, #653, #425 ) ) ;
#509 = APPROVAL_STATUS ( 'not_yet_approved' ) ;
#510 =( GEOMETRIC_REPRESENTATION_CONTEXT ( 3 ) GLOBAL_UNCERTAINTY_ASSIGNED_CONTEXT ( ( #335 ) ) GLOBAL_UNIT_ASSIGNED_CONTEXT ( ( #133, #67, #74 ) ) REPRESENTATION_CONTEXT ( 'NONE', 'WORKASPACE' ) );
#511 = VECTOR ( 'NONE', #208, 1000.000000000000000 ) ;
#512 = DIRECTION ( 'NONE',  ( 1.000000000000000000, -0.000000000000000000, -0.000000000000000000 ) ) ;
#513 = EDGE_CURVE ( 'NONE', #615, #516, #484, .T. ) ;
#514 = PLANE ( 'NONE',  #424 ) ;
#515 = ADVANCED_FACE ( 'NONE', ( #57 ), #551, .T. ) ;
#516 = VERTEX_POINT ( 'NONE', #534 ) ;
#517 = CARTESIAN_POINT ( 'NONE',  ( 5.000000000000000888, -59.11243946797250715, 34.75774960719952844 ) ) ;
#518 = ORIENTED_EDGE ( 'NONE', *, *, #108, .F. ) ;
#519 = PERSON_AND_ORGANIZATION_ROLE ( 'creator' ) ;
#520 = ORIENTED_EDGE ( 'NONE', *, *, #42, .F. ) ;
#521 = CARTESIAN_POINT ( 'NONE',  ( 5.000000000000000888, -30.16003710165551155, 9.382749607199533770 ) ) ;
#522 = DIRECTION ( 'NONE',  ( 0.000000000000000000, -1.000000000000000000, 0.000000000000000000 ) ) ;
#523 = COORDINATED_UNIVERSAL_TIME_OFFSET ( 0, 0, .AHEAD. ) ;
#524 = ORIENTED_EDGE ( 'NONE', *, *, #650, .T. ) ;
#525 = CARTESIAN_POINT ( 'NONE',  ( 5.000000000000000888, -35.61243946797250004, -15.99225039280045912 ) ) ;
#526 = AXIS2_PLACEMENT_3D ( 'NONE', #404, #571, #135 ) ;
#527 = DIRECTION ( 'NONE',  ( 0.000000000000000000, 1.000000000000000000, 1.223790811976583605E-16 ) ) ;
#528 = LINE ( 'NONE', #323, #120 ) ;
#529 = ORIENTED_EDGE ( 'NONE', *, *, #283, .T. ) ;
#530 = VECTOR ( 'NONE', #227, 1000.000000000000000 ) ;
#531 = LINE ( 'NONE', #460, #558 ) ;
#532 = ORIENTED_EDGE ( 'NONE', *, *, #260, .T. ) ;
#533 = CALENDAR_DATE ( 2026, 7, 9 ) ;
#534 = CARTESIAN_POINT ( 'NONE',  ( 20.00000000000000000, -59.11243946797250004, -15.99225039280047156 ) ) ;
#535 = FACE_OUTER_BOUND ( 'NONE', #779, .T. ) ;
#536 = EDGE_CURVE ( 'NONE', #483, #556, #88, .T. ) ;
#537 = ORIENTED_EDGE ( 'NONE', *, *, #33, .T. ) ;
#538 = CARTESIAN_POINT ( 'NONE',  ( 5.000000000000000888, -30.16003710165551155, 9.382749607199533770 ) ) ;
#539 = CARTESIAN_POINT ( 'NONE',  ( 20.00000000000000000, -59.11243946797250715, 34.75774960719952844 ) ) ;
#540 = DIRECTION ( 'NONE',  ( 0.000000000000000000, 0.000000000000000000, -1.000000000000000000 ) ) ;
#541 = VECTOR ( 'NONE', #691, 1000.000000000000000 ) ;
#542 = VERTEX_POINT ( 'NONE', #649 ) ;
#543 = CARTESIAN_POINT ( 'NONE',  ( 5.000000000000000888, -55.61243946797250004, 34.75774960719952844 ) ) ;
#544 = ADVANCED_FACE ( 'NONE', ( #644 ), #37, .T. ) ;
#545 = EDGE_LOOP ( 'NONE', ( #500, #264, #748, #274 ) ) ;
#546 = DIRECTION ( 'NONE',  ( 0.000000000000000000, 0.000000000000000000, 1.000000000000000000 ) ) ;
#547 = AXIS2_PLACEMENT_3D ( 'NONE', #797, #739, #465 ) ;
#548 = VECTOR ( 'NONE', #162, 1000.000000000000000 ) ;
#549 = PLANE ( 'NONE',  #89 ) ;
#550 = ORIENTED_EDGE ( 'NONE', *, *, #159, .T. ) ;
#551 = PLANE ( 'NONE',  #547 ) ;
#552 = CARTESIAN_POINT ( 'NONE',  ( 5.000000000000000888, -79.11243946797250715, -15.99225039280045202 ) ) ;
#553 = VECTOR ( 'NONE', #751, 1000.000000000000000 ) ;
#554 = ORIENTED_EDGE ( 'NONE', *, *, #709, .T. ) ;
#555 = CARTESIAN_POINT ( 'NONE',  ( 20.00000000000000000, 0.000000000000000000, 0.000000000000000000 ) ) ;
#556 = VERTEX_POINT ( 'NONE', #525 ) ;
#557 = CARTESIAN_POINT ( 'NONE',  ( 20.00000000000000000, -113.5124394679724986, 37.75774960719953555 ) ) ;
#558 = VECTOR ( 'NONE', #470, 1000.000000000000000 ) ;
#559 = DIRECTION ( 'NONE',  ( 0.000000000000000000, -1.000000000000000000, -1.835686217964875531E-16 ) ) ;
#560 = VERTEX_POINT ( 'NONE', #24 ) ;
#561 = EDGE_CURVE ( 'NONE', #86, #615, #654, .T. ) ;
#562 = PLANE ( 'NONE',  #467 ) ;
#563 = DIRECTION ( 'NONE',  ( -1.000000000000000000, 0.000000000000000000, -0.000000000000000000 ) ) ;
#564 = AXIS2_PLACEMENT_3D ( 'NONE', #8, #575, #314 ) ;
#565 = ORIENTED_EDGE ( 'NONE', *, *, #582, .T. ) ;
#566 = PLANE ( 'NONE',  #637 ) ;
#567 = EDGE_CURVE ( 'NONE', #683, #2, #659, .T. ) ;
#568 = CARTESIAN_POINT ( 'NONE',  ( 20.00000000000000000, -0.1124394679724999291, 37.75774960719954976 ) ) ;
#569 = VERTEX_POINT ( 'NONE', #261 ) ;
#570 = EDGE_CURVE ( 'NONE', #189, #656, #708, .T. ) ;
#571 = DIRECTION ( 'NONE',  ( -1.000000000000000000, -0.000000000000000000, 0.000000000000000000 ) ) ;
#572 = DIRECTION ( 'NONE',  ( 1.000000000000000000, -0.000000000000000000, -0.000000000000000000 ) ) ;
#573 = EDGE_LOOP ( 'NONE', ( #98, #729, #733, #286 ) ) ;
#574 = PERSON_AND_ORGANIZATION_ROLE ( 'design_owner' ) ;
#575 = DIRECTION ( 'NONE',  ( 0.000000000000000000, 0.000000000000000000, 1.000000000000000000 ) ) ;
#576 = VECTOR ( 'NONE', #266, 1000.000000000000000 ) ;
#577 = DIRECTION ( 'NONE',  ( 0.000000000000000000, -1.000000000000000000, -1.223790811976583605E-16 ) ) ;
#578 = FACE_OUTER_BOUND ( 'NONE', #697, .T. ) ;
#579 = VECTOR ( 'NONE', #711, 1000.000000000000000 ) ;
#580 = ORIENTED_EDGE ( 'NONE', *, *, #634, .F. ) ;
#581 = APPLICATION_PROTOCOL_DEFINITION ( 'international standard', 'config_control_design', 1994, #451 ) ;
#582 = EDGE_CURVE ( 'NONE', #237, #701, #213, .T. ) ;
#583 = ORIENTED_EDGE ( 'NONE', *, *, #600, .T. ) ;
#584 = COORDINATED_UNIVERSAL_TIME_OFFSET ( 0, 0, .AHEAD. ) ;
#585 = EDGE_LOOP ( 'NONE', ( #43, #598, #250, #362 ) ) ;
#586 = ORIENTED_EDGE ( 'NONE', *, *, #42, .T. ) ;
#587 = COORDINATED_UNIVERSAL_TIME_OFFSET ( 0, 0, .AHEAD. ) ;
#588 = CARTESIAN_POINT ( 'NONE',  ( 20.00000000000000000, -0.1124394679724999291, -18.99225039280043248 ) ) ;
#589 = LOCAL_TIME ( 18, 35, 21.00000000000000000, #389 ) ;
#590 = VECTOR ( 'NONE', #498, 1000.000000000000000 ) ;
#591 = LINE ( 'NONE', #29, #110 ) ;
#592 = ORIENTED_EDGE ( 'NONE', *, *, #582, .F. ) ;
#593 = FACE_OUTER_BOUND ( 'NONE', #617, .T. ) ;
#594 = VECTOR ( 'NONE', #559, 1000.000000000000000 ) ;
#595 = DIRECTION ( 'NONE',  ( -1.000000000000000000, -0.000000000000000000, 0.000000000000000000 ) ) ;
#596 = LINE ( 'NONE', #726, #548 ) ;
#597 = ORIENTED_EDGE ( 'NONE', *, *, #570, .F. ) ;
#598 = ORIENTED_EDGE ( 'NONE', *, *, #479, .F. ) ;
#599 = DIRECTION ( 'NONE',  ( 0.000000000000000000, 0.000000000000000000, 1.000000000000000000 ) ) ;
#600 = EDGE_CURVE ( 'NONE', #496, #560, #279, .T. ) ;
#601 = EDGE_CURVE ( 'NONE', #631, #205, #531, .T. ) ;
#602 = DIRECTION ( 'NONE',  ( 0.000000000000000000, 1.835686217964875284E-16, -1.000000000000000000 ) ) ;
#603 = VECTOR ( 'NONE', #512, 1000.000000000000000 ) ;
#604 = EDGE_LOOP ( 'NONE', ( #724, #422, #334, #163 ) ) ;
#605 = DIRECTION ( 'NONE',  ( 0.000000000000000000, -1.367269734760045303E-16, -1.000000000000000000 ) ) ;
#606 = CARTESIAN_POINT ( 'NONE',  ( 5.000000000000000888, -32.11243946797249293, -15.99225039280046445 ) ) ;
#607 = ORIENTED_EDGE ( 'NONE', *, *, #161, .F. ) ;
#608 = VECTOR ( 'NONE', #609, 1000.000000000000000 ) ;
#609 = DIRECTION ( 'NONE',  ( 0.000000000000000000, 0.000000000000000000, -1.000000000000000000 ) ) ;
#610 = LINE ( 'NONE', #481, #789 ) ;
#611 = ORIENTED_EDGE ( 'NONE', *, *, #21, .T. ) ;
#612 = CARTESIAN_POINT ( 'NONE',  ( 20.00000000000000000, -85.61243946797250715, 34.75774960719952844 ) ) ;
#613 = DIRECTION ( 'NONE',  ( -1.000000000000000000, 0.000000000000000000, 0.000000000000000000 ) ) ;
#614 = AXIS2_PLACEMENT_3D ( 'NONE', #182, #622, #116 ) ;
#615 = VERTEX_POINT ( 'NONE', #539 ) ;
#616 = DIRECTION ( 'NONE',  ( -0.000000000000000000, 1.000000000000000000, 0.000000000000000000 ) ) ;
#617 = EDGE_LOOP ( 'NONE', ( #306, #775, #115, #141 ) ) ;
#618 = CARTESIAN_POINT ( 'NONE',  ( 20.00000000000000000, -59.11243946797250715, 34.75774960719952844 ) ) ;
#619 = VECTOR ( 'NONE', #241, 1000.000000000000000 ) ;
#620 = CARTESIAN_POINT ( 'NONE',  ( 20.00000000000000000, -0.1124394679724999291, 37.75774960719954976 ) ) ;
#621 = PRODUCT_RELATED_PRODUCT_CATEGORY ( 'detail', '', ( #446 ) ) ;
#622 = DIRECTION ( 'NONE',  ( -1.000000000000000000, -0.000000000000000000, 0.000000000000000000 ) ) ;
#623 = CARTESIAN_POINT ( 'NONE',  ( 18.00000000000000355, -110.5124394679724844, -15.99225039280045202 ) ) ;
#624 = EDGE_CURVE ( 'NONE', #542, #256, #715, .T. ) ;
#625 = ORIENTED_EDGE ( 'NONE', *, *, #33, .F. ) ;
#626 = PLANE ( 'NONE',  #437 ) ;
#627 = EDGE_CURVE ( 'NONE', #714, #790, #176, .T. ) ;
#628 = PRODUCT_DEFINITION_FORMATION_WITH_SPECIFIED_SOURCE ( 'ANY', '', #446, .NOT_KNOWN. ) ;
#629 = EDGE_LOOP ( 'NONE', ( #225, #635, #392, #678 ) ) ;
#630 = VECTOR ( 'NONE', #782, 1000.000000000000000 ) ;
#631 = VERTEX_POINT ( 'NONE', #785 ) ;
#632 = DIRECTION ( 'NONE',  ( 1.000000000000000000, -0.000000000000000000, -0.000000000000000000 ) ) ;
#633 = ORIENTED_EDGE ( 'NONE', *, *, #21, .F. ) ;
#634 = EDGE_CURVE ( 'NONE', #154, #738, #221, .T. ) ;
#635 = ORIENTED_EDGE ( 'NONE', *, *, #747, .T. ) ;
#636 = DIRECTION ( 'NONE',  ( 0.000000000000000000, -1.000000000000000000, 1.040834085586084059E-15 ) ) ;
#637 = AXIS2_PLACEMENT_3D ( 'NONE', #11, #694, #763 ) ;
#638 = DIRECTION ( 'NONE',  ( 1.000000000000000000, -0.000000000000000000, -0.000000000000000000 ) ) ;
#639 = VECTOR ( 'NONE', #338, 1000.000000000000000 ) ;
#640 = PRODUCT_DEFINITION ( 'UNKNOWN', '', #628, #102 ) ;
#641 = CARTESIAN_POINT ( 'NONE',  ( 20.00000000000000000, -32.11243946797247872, 34.75774960719952844 ) ) ;
#642 = ORIENTED_EDGE ( 'NONE', *, *, #218, .T. ) ;
#643 = CYLINDRICAL_SURFACE ( 'NONE', #732, 25.44999999999999929 ) ;
#644 = FACE_OUTER_BOUND ( 'NONE', #56, .T. ) ;
#645 = AXIS2_PLACEMENT_3D ( 'NONE', #325, #155, #104 ) ;
#646 = DIRECTION ( 'NONE',  ( -1.000000000000000000, -0.000000000000000000, 0.000000000000000000 ) ) ;
#647 = VECTOR ( 'NONE', #294, 1000.000000000000000 ) ;
#648 = DATE_TIME_ROLE ( 'classification_date' ) ;
#649 = CARTESIAN_POINT ( 'NONE',  ( 5.000000000000000888, -55.61243946797250004, 34.75774960719952844 ) ) ;
#650 = EDGE_CURVE ( 'NONE', #242, #210, #445, .T. ) ;
#651 = CARTESIAN_POINT ( 'NONE',  ( 5.000000000000000888, -30.16003710165550800, 34.83274960719953839 ) ) ;
#652 = CALENDAR_DATE ( 2026, 7, 9 ) ;
#653 = ORIENTED_EDGE ( 'NONE', *, *, #283, .F. ) ;
#654 = LINE ( 'NONE', #146, #576 ) ;
#655 = CARTESIAN_POINT ( 'NONE',  ( 5.000000000000000888, -55.61243946797250715, -15.99225039280045912 ) ) ;
#656 = VERTEX_POINT ( 'NONE', #128 ) ;
#657 = ORIENTED_EDGE ( 'NONE', *, *, #513, .T. ) ;
#658 = EDGE_CURVE ( 'NONE', #235, #419, #311, .T. ) ;
#659 = LINE ( 'NONE', #100, #801 ) ;
#660 = CARTESIAN_POINT ( 'NONE',  ( 18.00000000000000355, -110.5124394679724844, -15.99225039280045202 ) ) ;
#661 = ORIENTED_EDGE ( 'NONE', *, *, #567, .F. ) ;
#662 = VECTOR ( 'NONE', #332, 1000.000000000000000 ) ;
#663 = CARTESIAN_POINT ( 'NONE',  ( 5.000000000000000888, -30.16003710165551155, 9.382749607199533770 ) ) ;
#664 = AXIS2_PLACEMENT_3D ( 'NONE', #50, #54, #744 ) ;
#665 = CIRCLE ( 'NONE', #614, 25.45000000000000284 ) ;
#666 = ORIENTED_EDGE ( 'NONE', *, *, #624, .F. ) ;
#667 = LINE ( 'NONE', #490, #780 ) ;
#668 = VECTOR ( 'NONE', #632, 1000.000000000000000 ) ;
#669 = DIRECTION ( 'NONE',  ( 0.000000000000000000, 0.000000000000000000, -1.000000000000000000 ) ) ;
#670 = ORIENTED_EDGE ( 'NONE', *, *, #441, .T. ) ;
#671 = DIRECTION ( 'NONE',  ( 0.000000000000000000, 0.000000000000000000, -1.000000000000000000 ) ) ;
#672 = CARTESIAN_POINT ( 'NONE',  ( 20.00000000000000000, -0.1124394679724999291, 37.75774960719954976 ) ) ;
#673 = ORIENTED_EDGE ( 'NONE', *, *, #561, .F. ) ;
#674 = CARTESIAN_POINT ( 'NONE',  ( 18.00000000000000355, -110.5124394679724844, 34.75774960719952844 ) ) ;
#675 = AXIS2_PLACEMENT_3D ( 'NONE', #83, #19, #193 ) ;
#676 = CARTESIAN_POINT ( 'NONE',  ( 5.000000000000000888, -32.11243946797247872, 34.75774960719952844 ) ) ;
#677 = LINE ( 'NONE', #623, #590 ) ;
#678 = ORIENTED_EDGE ( 'NONE', *, *, #771, .F. ) ;
#679 = CARTESIAN_POINT ( 'NONE',  ( 18.00000000000000355, -110.5124394679724844, 34.75774960719952844 ) ) ;
#680 = AXIS2_PLACEMENT_3D ( 'NONE', #342, #595, #599 ) ;
#681 = CC_DESIGN_PERSON_AND_ORGANIZATION_ASSIGNMENT ( #457, #713, ( #628 ) ) ;
#682 = PLANE ( 'NONE',  #131 ) ;
#683 = VERTEX_POINT ( 'NONE', #197 ) ;
#684 = EDGE_CURVE ( 'NONE', #701, #631, #321, .T. ) ;
#685 = EDGE_LOOP ( 'NONE', ( #520, #661, #796, #196 ) ) ;
#686 = CARTESIAN_POINT ( 'NONE',  ( 20.00000000000000000, -32.11243946797247872, 34.75774960719952844 ) ) ;
#687 = EDGE_CURVE ( 'NONE', #7, #273, #81, .T. ) ;
#688 = FACE_OUTER_BOUND ( 'NONE', #36, .T. ) ;
#689 = DIRECTION ( 'NONE',  ( 0.000000000000000000, 0.000000000000000000, -1.000000000000000000 ) ) ;
#690 = CARTESIAN_POINT ( 'NONE',  ( 0.000000000000000000, -0.1124394679724999291, 37.75774960719954976 ) ) ;
#691 = DIRECTION ( 'NONE',  ( 0.000000000000000000, -1.367269734760045056E-16, -1.000000000000000000 ) ) ;
#692 = LINE ( 'NONE', #71, #170 ) ;
#693 = LOCAL_TIME ( 18, 35, 21.00000000000000000, #587 ) ;
#694 = DIRECTION ( 'NONE',  ( 0.000000000000000000, 1.000000000000000000, -0.000000000000000000 ) ) ;
#695 = VECTOR ( 'NONE', #126, 1000.000000000000000 ) ;
#696 = VECTOR ( 'NONE', #245, 1000.000000000000000 ) ;
#697 = EDGE_LOOP ( 'NONE', ( #93, #177, #524, #317 ) ) ;
#698 = ORIENTED_EDGE ( 'NONE', *, *, #561, .T. ) ;
#699 = EDGE_CURVE ( 'NONE', #127, #357, #199, .T. ) ;
#700 = APPROVAL_PERSON_ORGANIZATION ( #718, #238, #379 ) ;
#701 = VERTEX_POINT ( 'NONE', #316 ) ;
#702 = SECURITY_CLASSIFICATION ( '', '', #767 ) ;
#703 = DIRECTION ( 'NONE',  ( 0.000000000000000000, -1.367269734760045303E-16, -1.000000000000000000 ) ) ;
#704 = ADVANCED_FACE ( 'NONE', ( #20 ), #382, .F. ) ;
#705 = PLANE ( 'NONE',  #380 ) ;
#706 = ORIENTED_EDGE ( 'NONE', *, *, #46, .F. ) ;
#707 = PERSON_AND_ORGANIZATION ( #171, #129 ) ;
#708 = LINE ( 'NONE', #588, #12 ) ;
#709 = EDGE_CURVE ( 'NONE', #145, #203, #692, .T. ) ;
#710 = CARTESIAN_POINT ( 'NONE',  ( 0.000000000000000000, -0.1124394679724999291, -18.99225039280043248 ) ) ;
#711 = DIRECTION ( 'NONE',  ( -0.000000000000000000, 1.000000000000000000, -0.000000000000000000 ) ) ;
#712 = AXIS2_PLACEMENT_3D ( 'NONE', #663, #41, #405 ) ;
#713 = PERSON_AND_ORGANIZATION_ROLE ( 'design_supplier' ) ;
#714 = VERTEX_POINT ( 'NONE', #494 ) ;
#715 = LINE ( 'NONE', #96, #662 ) ;
#716 = VECTOR ( 'NONE', #236, 1000.000000000000000 ) ;
#717 = DIRECTION ( 'NONE',  ( 0.000000000000000000, 0.000000000000000000, 1.000000000000000000 ) ) ;
#718 = PERSON_AND_ORGANIZATION ( #171, #129 ) ;
#719 = ORIENTED_EDGE ( 'NONE', *, *, #768, .F. ) ;
#720 = CARTESIAN_POINT ( 'NONE',  ( 5.000000000000000888, -35.61243946797249293, 34.75774960719952844 ) ) ;
#721 = CC_DESIGN_APPROVAL ( #123, ( #628 ) ) ;
#722 = DIRECTION ( 'NONE',  ( 0.000000000000000000, -1.000000000000000000, 1.040834085586084059E-15 ) ) ;
#723 = FACE_OUTER_BOUND ( 'NONE', #604, .T. ) ;
#724 = ORIENTED_EDGE ( 'NONE', *, *, #709, .F. ) ;
#725 = CARTESIAN_POINT ( 'NONE',  ( 20.00000000000000000, -0.1124394679724999291, 37.75774960719954976 ) ) ;
#726 = CARTESIAN_POINT ( 'NONE',  ( 18.00000000000000355, -110.5124394679724844, 10.88274960719953732 ) ) ;
#727 = LINE ( 'NONE', #788, #630 ) ;
#728 = ADVANCED_FACE ( 'NONE', ( #688 ), #562, .F. ) ;
#729 = ORIENTED_EDGE ( 'NONE', *, *, #79, .F. ) ;
#730 = DIRECTION ( 'NONE',  ( 1.000000000000000000, -0.000000000000000000, -0.000000000000000000 ) ) ;
#731 = DIRECTION ( 'NONE',  ( -1.000000000000000000, 0.000000000000000000, -0.000000000000000000 ) ) ;
#732 = AXIS2_PLACEMENT_3D ( 'NONE', #538, #32, #340 ) ;
#733 = ORIENTED_EDGE ( 'NONE', *, *, #475, .T. ) ;
#734 = CARTESIAN_POINT ( 'NONE',  ( 20.00000000000000000, -0.1124394679724999291, -18.99225039280043248 ) ) ;
#735 = AXIS2_PLACEMENT_3D ( 'NONE', #262, #142, #432 ) ;
#736 = EDGE_CURVE ( 'NONE', #714, #235, #415, .T. ) ;
#737 = DIRECTION ( 'NONE',  ( 0.000000000000000000, -1.000000000000000000, -1.223790811976583605E-16 ) ) ;
#738 = VERTEX_POINT ( 'NONE', #485 ) ;
#739 = DIRECTION ( 'NONE',  ( 0.000000000000000000, 0.000000000000000000, 1.000000000000000000 ) ) ;
#740 = DIRECTION ( 'NONE',  ( 0.000000000000000000, 0.000000000000000000, 1.000000000000000000 ) ) ;
#741 = DIRECTION ( 'NONE',  ( 0.000000000000000000, 0.000000000000000000, -1.000000000000000000 ) ) ;
#742 = CARTESIAN_POINT ( 'NONE',  ( 20.00000000000000000, -113.5124394679724986, 37.75774960719953555 ) ) ;
#743 = ORIENTED_EDGE ( 'NONE', *, *, #536, .T. ) ;
#744 = DIRECTION ( 'NONE',  ( -0.000000000000000000, 0.000000000000000000, 1.000000000000000000 ) ) ;
#745 = FACE_OUTER_BOUND ( 'NONE', #111, .T. ) ;
#746 = CARTESIAN_POINT ( 'NONE',  ( 5.000000000000000888, -32.11243946797247872, 34.75774960719952844 ) ) ;
#747 = EDGE_CURVE ( 'NONE', #273, #354, #799, .T. ) ;
#748 = ORIENTED_EDGE ( 'NONE', *, *, #687, .F. ) ;
#749 = EDGE_CURVE ( 'NONE', #569, #205, #3, .T. ) ;
#750 = VECTOR ( 'NONE', #252, 1000.000000000000000 ) ;
#751 = DIRECTION ( 'NONE',  ( 0.000000000000000000, 0.000000000000000000, 1.000000000000000000 ) ) ;
#752 = ADVANCED_BREP_SHAPE_REPRESENTATION ( 'Bookshelf', ( #301, #564 ), #510 ) ;
#753 = CARTESIAN_POINT ( 'NONE',  ( 20.00000000000000000, -30.16003710165551155, -16.06725039280046730 ) ) ;
#754 = APPLICATION_PROTOCOL_DEFINITION ( 'international standard', 'config_control_design', 1994, #331 ) ;
#755 = FACE_BOUND ( 'NONE', #629, .T. ) ;
#756 = CARTESIAN_POINT ( 'NONE',  ( 5.000000000000000888, -59.11243946797250715, 34.75774960719952844 ) ) ;
#757 = LINE ( 'NONE', #122, #594 ) ;
#758 = FACE_OUTER_BOUND ( 'NONE', #220, .T. ) ;
#759 = ORIENTED_EDGE ( 'NONE', *, *, #63, .T. ) ;
#760 = APPROVAL_ROLE ( '' ) ;
#761 = LINE ( 'NONE', #447, #85 ) ;
#762 = LINE ( 'NONE', #263, #412 ) ;
#763 = DIRECTION ( 'NONE',  ( 0.000000000000000000, 0.000000000000000000, 1.000000000000000000 ) ) ;
#764 = CC_DESIGN_PERSON_AND_ORGANIZATION_ASSIGNMENT ( #501, #574, ( #446 ) ) ;
#765 = CARTESIAN_POINT ( 'NONE',  ( 20.00000000000000000, -0.1124394679724999291, -18.99225039280043248 ) ) ;
#766 = CARTESIAN_POINT ( 'NONE',  ( 18.00000000000000355, -110.5124394679724844, 34.75774960719952844 ) ) ;
#767 = SECURITY_CLASSIFICATION_LEVEL ( 'unclassified' ) ;
#768 = EDGE_CURVE ( 'NONE', #268, #86, #435, .T. ) ;
#769 = FACE_OUTER_BOUND ( 'NONE', #66, .T. ) ;
#770 = LINE ( 'NONE', #456, #579 ) ;
#771 = EDGE_CURVE ( 'NONE', #7, #419, #310, .T. ) ;
#772 = ORIENTED_EDGE ( 'NONE', *, *, #219, .T. ) ;
#773 = DIRECTION ( 'NONE',  ( 0.000000000000000000, 0.000000000000000000, -1.000000000000000000 ) ) ;
#774 = DIRECTION ( 'NONE',  ( 0.000000000000000000, -1.000000000000000000, 0.000000000000000000 ) ) ;
#775 = ORIENTED_EDGE ( 'NONE', *, *, #299, .T. ) ;
#776 = DIRECTION ( 'NONE',  ( 1.000000000000000000, -0.000000000000000000, -0.000000000000000000 ) ) ;
#777 = VECTOR ( 'NONE', #671, 1000.000000000000000 ) ;
#778 = DATE_AND_TIME ( #533, #69 ) ;
#779 = EDGE_LOOP ( 'NONE', ( #390, #211, #625, #258 ) ) ;
#780 = VECTOR ( 'NONE', #730, 1000.000000000000000 ) ;
#781 = CARTESIAN_POINT ( 'NONE',  ( 20.00000000000000000, -0.1124394679724999291, -18.99225039280043248 ) ) ;
#782 = DIRECTION ( 'NONE',  ( -1.000000000000000000, -0.000000000000000000, -0.000000000000000000 ) ) ;
#783 = PERSON_AND_ORGANIZATION ( #171, #129 ) ;
#784 = ORIENTED_EDGE ( 'NONE', *, *, #627, .F. ) ;
#785 = CARTESIAN_POINT ( 'NONE',  ( 20.00000000000000000, -82.61243946797250715, -15.99225039280045202 ) ) ;
#786 = ADVANCED_FACE ( 'NONE', ( #758 ), #566, .F. ) ;
#787 = CARTESIAN_POINT ( 'NONE',  ( 20.00000000000000000, -79.11243946797250715, -15.99225039280045202 ) ) ;
#788 = CARTESIAN_POINT ( 'NONE',  ( 20.00000000000000000, -113.5124394679724986, -18.99225039280045380 ) ) ;
#789 = VECTOR ( 'NONE', #737, 1000.000000000000000 ) ;
#790 = VERTEX_POINT ( 'NONE', #138 ) ;
#791 = PLANE ( 'NONE',  #388 ) ;
#792 = DIRECTION ( 'NONE',  ( 0.000000000000000000, 1.000000000000000000, 0.000000000000000000 ) ) ;
#793 = ORIENTED_EDGE ( 'NONE', *, *, #105, .T. ) ;
#794 = DIRECTION ( 'NONE',  ( 0.000000000000000000, 1.000000000000000000, -0.000000000000000000 ) ) ;
#795 = CARTESIAN_POINT ( 'NONE',  ( 20.00000000000000000, -30.16003710165550800, 34.83274960719953839 ) ) ;
#796 = ORIENTED_EDGE ( 'NONE', *, *, #441, .F. ) ;
#797 = CARTESIAN_POINT ( 'NONE',  ( 5.000000000000000888, -35.61243946797250004, -15.99225039280045912 ) ) ;
#798 = EDGE_CURVE ( 'NONE', #357, #86, #442, .T. ) ;
#799 = CIRCLE ( 'NONE', #526, 25.45000000000000284 ) ;
#800 = DIRECTION ( 'NONE',  ( 0.000000000000000000, 1.000000000000000000, 1.835686217964875284E-16 ) ) ;
#801 = VECTOR ( 'NONE', #773, 1000.000000000000000 ) ;
#802 = LINE ( 'NONE', #742, #487 ) ;
#803 = ORIENTED_EDGE ( 'NONE', *, *, #260, .F. ) ;
#804 = LINE ( 'NONE', #474, #716 ) ;
#805 = DIRECTION ( 'NONE',  ( -0.000000000000000000, 0.000000000000000000, 1.000000000000000000 ) ) ;
#806 = ORIENTED_EDGE ( 'NONE', *, *, #736, .F. ) ;
#807 = LINE ( 'NONE', #734, #372 ) ;
#808 = EDGE_LOOP ( 'NONE', ( #313, #339, #806, #76 ) ) ;
#809 = VECTOR ( 'NONE', #345, 1000.000000000000000 ) ;
#810 = CARTESIAN_POINT ( 'NONE',  ( 20.00000000000000000, -55.61243946797250004, 34.75774960719952844 ) ) ;
#811 = ORIENTED_EDGE ( 'NONE', *, *, #292, .F. ) ;
ENDSEC;
END-ISO-10303-21;
