ISO-10303-21;
HEADER;
FILE_DESCRIPTION (( 'STEP AP203' ),
    '1' );
FILE_NAME ('Book2.step',
    '2026-09-07T17:35:18',
    ( '' ),
    ( '' ),
    'SwSTEP 2.0',
    'SolidWorks 2026',
    '' );
FILE_SCHEMA (( 'CONFIG_CONTROL_DESIGN' ));
ENDSEC;

DATA;
#1 = EDGE_CURVE ( 'NONE', #8, #113, #201, .T. ) ;
#2 = ADVANCED_FACE ( 'NONE', ( #138 ), #137, .T. ) ;
#3 = CARTESIAN_POINT ( 'NONE',  ( -13.36349896691369032, 34.74237377051345987, 6.000000000000000000 ) ) ;
#4 = DIRECTION ( 'NONE',  ( -0.000000000000000000, -1.000000000000000000, -0.000000000000000000 ) ) ;
#5 = VECTOR ( 'NONE', #35, 1000.000000000000000 ) ;
#6 = DIRECTION ( 'NONE',  ( -0.000000000000000000, -0.000000000000000000, -1.000000000000000000 ) ) ;
#7 = CARTESIAN_POINT ( 'NONE',  ( -14.36349896691369032, 34.74237377051345987, 7.000000000000000000 ) ) ;
#8 = VERTEX_POINT ( 'NONE', #228 ) ;
#9 = PLANE ( 'NONE',  #181 ) ;
#10 = VERTEX_POINT ( 'NONE', #304 ) ;
#11 = DIRECTION ( 'NONE',  ( -0.000000000000000000, -1.000000000000000000, -0.000000000000000000 ) ) ;
#12 = APPROVAL ( #219, 'UNSPECIFIED' ) ;
#13 = APPLICATION_PROTOCOL_DEFINITION ( 'international standard', 'config_control_design', 1994, #45 ) ;
#14 = CIRCLE ( 'NONE', #95, 1.000000000000000000 ) ;
#15 = PERSON_AND_ORGANIZATION ( #74, #48 ) ;
#16 = ORIENTED_EDGE ( 'NONE', *, *, #59, .T. ) ;
#17 = DIRECTION ( 'NONE',  ( 1.000000000000000000, 0.000000000000000000, 0.000000000000000000 ) ) ;
#18 = ORIENTED_EDGE ( 'NONE', *, *, #58, .T. ) ;
#19 = PERSON_AND_ORGANIZATION_ROLE ( 'classification_officer' ) ;
#20 = ORIENTED_EDGE ( 'NONE', *, *, #165, .T. ) ;
#21 = VECTOR ( 'NONE', #11, 1000.000000000000000 ) ;
#22 = DIRECTION ( 'NONE',  ( -0.000000000000000000, -1.000000000000000000, -0.000000000000000000 ) ) ;
#23 = LINE ( 'NONE', #229, #86 ) ;
#24 = CC_DESIGN_PERSON_AND_ORGANIZATION_ASSIGNMENT ( #63, #295, ( #266 ) ) ;
#25 = EDGE_LOOP ( 'NONE', ( #139, #61, #158, #183 ) ) ;
#26 = UNCERTAINTY_MEASURE_WITH_UNIT (LENGTH_MEASURE( 1.000000000000000082E-05 ), #80, 'distance_accuracy_value', 'NONE');
#27 = PLANE ( 'NONE',  #66 ) ;
#28 = ORIENTED_EDGE ( 'NONE', *, *, #1, .T. ) ;
#29 = CARTESIAN_POINT ( 'NONE',  ( -15.86349896691369210, 34.74237377051345987, 6.000000000000000000 ) ) ;
#30 = LINE ( 'NONE', #7, #170 ) ;
#31 = EDGE_LOOP ( 'NONE', ( #147, #255, #296, #90 ) ) ;
#32 = DIRECTION ( 'NONE',  ( 0.000000000000000000, 0.000000000000000000, 1.000000000000000000 ) ) ;
#33 = CARTESIAN_POINT ( 'NONE',  ( -14.86349896691369032, 22.74237377051345987, 7.000000000000000000 ) ) ;
#34 = CC_DESIGN_PERSON_AND_ORGANIZATION_ASSIGNMENT ( #85, #176, ( #203 ) ) ;
#35 = DIRECTION ( 'NONE',  ( 1.000000000000000000, 0.000000000000000000, 0.000000000000000000 ) ) ;
#36 = COORDINATED_UNIVERSAL_TIME_OFFSET ( 0, 0, .AHEAD. ) ;
#37 = ORIENTED_EDGE ( 'NONE', *, *, #282, .F. ) ;
#38 = PERSON_AND_ORGANIZATION ( #74, #48 ) ;
#39 = ORIENTED_EDGE ( 'NONE', *, *, #247, .F. ) ;
#40 = CC_DESIGN_APPROVAL ( #91, ( #140 ) ) ;
#41 = LOCAL_TIME ( 18, 35, 18.00000000000000000, #36 ) ;
#42 = ORIENTED_EDGE ( 'NONE', *, *, #185, .T. ) ;
#43 = SECURITY_CLASSIFICATION_LEVEL ( 'unclassified' ) ;
#44 = ORIENTED_EDGE ( 'NONE', *, *, #103, .F. ) ;
#45 = APPLICATION_CONTEXT ( 'configuration controlled 3d designs of mechanical parts and assemblies' ) ;
#46 = COORDINATED_UNIVERSAL_TIME_OFFSET ( 0, 0, .AHEAD. ) ;
#47 = EDGE_CURVE ( 'NONE', #94, #64, #252, .T. ) ;
#48 = ORGANIZATION ( 'UNSPECIFIED', 'UNSPECIFIED', '' ) ;
#49 = DIRECTION ( 'NONE',  ( 0.000000000000000000, 0.000000000000000000, -1.000000000000000000 ) ) ;
#50 = LINE ( 'NONE', #52, #152 ) ;
#51 = MANIFOLD_SOLID_BREP ( 'Fillet1', #224 ) ;
#52 = CARTESIAN_POINT ( 'NONE',  ( -13.36349896691369032, 34.74237377051345987, 0.000000000000000000 ) ) ;
#53 = EDGE_LOOP ( 'NONE', ( #115, #299, #218, #28, #118, #132 ) ) ;
#54 = LINE ( 'NONE', #97, #100 ) ;
#55 = DIRECTION ( 'NONE',  ( -0.000000000000000000, 1.000000000000000000, -0.000000000000000000 ) ) ;
#56 = CARTESIAN_POINT ( 'NONE',  ( -14.86349896691369032, 0.000000000000000000, 6.000000000000000000 ) ) ;
#57 =( NAMED_UNIT ( * ) PLANE_ANGLE_UNIT ( ) SI_UNIT ( $, .RADIAN. ) );
#58 = EDGE_CURVE ( 'NONE', #113, #196, #54, .T. ) ;
#59 = EDGE_CURVE ( 'NONE', #178, #113, #184, .T. ) ;
#60 = LINE ( 'NONE', #107, #5 ) ;
#61 = ORIENTED_EDGE ( 'NONE', *, *, #163, .F. ) ;
#62 = CIRCLE ( 'NONE', #274, 1.000000000000000000 ) ;
#63 = PERSON_AND_ORGANIZATION ( #74, #48 ) ;
#64 = VERTEX_POINT ( 'NONE', #257 ) ;
#65 = APPROVAL_DATE_TIME ( #273, #12 ) ;
#66 = AXIS2_PLACEMENT_3D ( 'NONE', #206, #119, #142 ) ;
#67 = APPROVAL_DATE_TIME ( #87, #91 ) ;
#68 = ORIENTED_EDGE ( 'NONE', *, *, #272, .T. ) ;
#69 = APPROVAL ( #242, 'UNSPECIFIED' ) ;
#70 = APPROVAL_ROLE ( '' ) ;
#71 = ADVANCED_FACE ( 'NONE', ( #278 ), #75, .F. ) ;
#72 = ORIENTED_EDGE ( 'NONE', *, *, #112, .T. ) ;
#73 = CARTESIAN_POINT ( 'NONE',  ( -13.36349896691369032, 22.74237377051345987, 6.000000000000000000 ) ) ;
#74 = PERSON ( 'UNSPECIFIED', 'UNSPECIFIED', 'UNSPECIFIED', ('UNSPECIFIED'), ('UNSPECIFIED'), ('UNSPECIFIED') ) ;
#75 = PLANE ( 'NONE',  #144 ) ;
#76 = DIRECTION ( 'NONE',  ( 0.000000000000000000, -0.000000000000000000, -1.000000000000000000 ) ) ;
#77 = CARTESIAN_POINT ( 'NONE',  ( -15.86349896691369210, 34.74237377051345987, 0.000000000000000000 ) ) ;
#78 = CARTESIAN_POINT ( 'NONE',  ( -13.36349896691369032, 34.74237377051345987, 7.000000000000000000 ) ) ;
#79 = FACE_OUTER_BOUND ( 'NONE', #25, .T. ) ;
#80 =( LENGTH_UNIT ( ) NAMED_UNIT ( * ) SI_UNIT ( .MILLI., .METRE. ) );
#81 = AXIS2_PLACEMENT_3D ( 'NONE', #286, #149, #84 ) ;
#82 = LOCAL_TIME ( 18, 35, 18.00000000000000000, #297 ) ;
#83 = LINE ( 'NONE', #33, #177 ) ;
#84 = DIRECTION ( 'NONE',  ( 0.000000000000000000, 0.000000000000000000, 1.000000000000000000 ) ) ;
#85 = PERSON_AND_ORGANIZATION ( #74, #48 ) ;
#86 = VECTOR ( 'NONE', #256, 1000.000000000000000 ) ;
#87 = DATE_AND_TIME ( #222, #305 ) ;
#88 = CALENDAR_DATE ( 2026, 7, 9 ) ;
#89 = APPROVAL_ROLE ( '' ) ;
#90 = ORIENTED_EDGE ( 'NONE', *, *, #307, .F. ) ;
#91 = APPROVAL ( #251, 'UNSPECIFIED' ) ;
#92 = EDGE_CURVE ( 'NONE', #178, #175, #14, .T. ) ;
#93 = VERTEX_POINT ( 'NONE', #162 ) ;
#94 = VERTEX_POINT ( 'NONE', #73 ) ;
#95 = AXIS2_PLACEMENT_3D ( 'NONE', #98, #230, #161 ) ;
#96 = CARTESIAN_POINT ( 'NONE',  ( -14.36349896691369032, 0.000000000000000000, 6.000000000000000000 ) ) ;
#97 = CARTESIAN_POINT ( 'NONE',  ( -15.86349896691369210, 34.74237377051345987, 0.000000000000000000 ) ) ;
#98 = CARTESIAN_POINT ( 'NONE',  ( -14.86349896691369032, 34.74237377051345987, 6.000000000000000000 ) ) ;
#99 = DIRECTION ( 'NONE',  ( 0.000000000000000000, -1.000000000000000000, 0.000000000000000000 ) ) ;
#100 = VECTOR ( 'NONE', #279, 1000.000000000000000 ) ;
#101 = CC_DESIGN_DATE_AND_TIME_ASSIGNMENT ( #292, #109, ( #140 ) ) ;
#102 = FACE_OUTER_BOUND ( 'NONE', #263, .T. ) ;
#103 = EDGE_CURVE ( 'NONE', #196, #10, #23, .T. ) ;
#104 = DIRECTION ( 'NONE',  ( 0.000000000000000000, -1.000000000000000000, 0.000000000000000000 ) ) ;
#105 = DIRECTION ( 'NONE',  ( 0.000000000000000000, 1.000000000000000000, -0.000000000000000000 ) ) ;
#106 = CARTESIAN_POINT ( 'NONE',  ( -14.86349896691369032, 22.74237377051345987, 6.000000000000000000 ) ) ;
#107 = CARTESIAN_POINT ( 'NONE',  ( -15.86349896691369210, 22.74237377051345987, 7.000000000000000000 ) ) ;
#108 = APPROVAL_DATE_TIME ( #248, #69 ) ;
#109 = DATE_TIME_ROLE ( 'creation_date' ) ;
#110 = ADVANCED_FACE ( 'NONE', ( #276 ), #164, .F. ) ;
#111 = ORIENTED_EDGE ( 'NONE', *, *, #103, .T. ) ;
#112 = EDGE_CURVE ( 'NONE', #10, #8, #50, .T. ) ;
#113 = VERTEX_POINT ( 'NONE', #187 ) ;
#114 = CARTESIAN_POINT ( 'NONE',  ( -15.86349896691369210, 34.74237377051345987, 7.000000000000000000 ) ) ;
#115 = ORIENTED_EDGE ( 'NONE', *, *, #199, .F. ) ;
#116 = APPROVAL_PERSON_ORGANIZATION ( #243, #69, #89 ) ;
#117 = APPROVAL_PERSON_ORGANIZATION ( #15, #12, #197 ) ;
#118 = ORIENTED_EDGE ( 'NONE', *, *, #59, .F. ) ;
#119 = DIRECTION ( 'NONE',  ( -0.000000000000000000, 0.000000000000000000, 1.000000000000000000 ) ) ;
#120 = ADVANCED_FACE ( 'NONE', ( #232 ), #27, .F. ) ;
#121 = DIRECTION ( 'NONE',  ( 0.000000000000000000, 0.000000000000000000, 1.000000000000000000 ) ) ;
#122 = DIRECTION ( 'NONE',  ( -0.000000000000000000, 0.000000000000000000, 1.000000000000000000 ) ) ;
#123 = AXIS2_PLACEMENT_3D ( 'NONE', #205, #141, #188 ) ;
#124 = DIRECTION ( 'NONE',  ( -1.000000000000000000, -0.000000000000000000, -0.000000000000000000 ) ) ;
#125 = LINE ( 'NONE', #216, #21 ) ;
#126 = CARTESIAN_POINT ( 'NONE',  ( -15.86349896691369210, 34.74237377051345987, 6.000000000000000000 ) ) ;
#127 = AXIS2_PLACEMENT_3D ( 'NONE', #194, #290, #283 ) ;
#128 = FACE_OUTER_BOUND ( 'NONE', #289, .T. ) ;
#129 = MECHANICAL_CONTEXT ( 'NONE', #134, 'mechanical' ) ;
#130 = ORIENTED_EDGE ( 'NONE', *, *, #250, .T. ) ;
#131 = DATE_TIME_ROLE ( 'classification_date' ) ;
#132 = ORIENTED_EDGE ( 'NONE', *, *, #92, .T. ) ;
#133 = VERTEX_POINT ( 'NONE', #3 ) ;
#134 = APPLICATION_CONTEXT ( 'configuration controlled 3d designs of mechanical parts and assemblies' ) ;
#135 = AXIS2_PLACEMENT_3D ( 'NONE', #96, #99, #49 ) ;
#136 = ORIENTED_EDGE ( 'NONE', *, *, #153, .F. ) ;
#137 = CYLINDRICAL_SURFACE ( 'NONE', #135, 1.000000000000000000 ) ;
#138 = FACE_OUTER_BOUND ( 'NONE', #31, .T. ) ;
#139 = ORIENTED_EDGE ( 'NONE', *, *, #92, .F. ) ;
#140 = PRODUCT_DEFINITION ( 'UNKNOWN', '', #203, #285 ) ;
#141 = DIRECTION ( 'NONE',  ( 0.000000000000000000, 1.000000000000000000, 0.000000000000000000 ) ) ;
#142 = DIRECTION ( 'NONE',  ( 1.000000000000000000, 0.000000000000000000, 0.000000000000000000 ) ) ;
#143 = CARTESIAN_POINT ( 'NONE',  ( -15.86349896691369210, 34.74237377051345987, 7.000000000000000000 ) ) ;
#144 = AXIS2_PLACEMENT_3D ( 'NONE', #306, #277, #76 ) ;
#145 = LINE ( 'NONE', #126, #235 ) ;
#146 = SECURITY_CLASSIFICATION ( '', '', #43 ) ;
#147 = ORIENTED_EDGE ( 'NONE', *, *, #47, .F. ) ;
#148 = DIRECTION ( 'NONE',  ( 0.000000000000000000, 0.000000000000000000, 1.000000000000000000 ) ) ;
#149 = DIRECTION ( 'NONE',  ( -1.000000000000000000, 0.000000000000000000, 0.000000000000000000 ) ) ;
#150 = CARTESIAN_POINT ( 'NONE',  ( -14.36349896691369032, 34.74237377051345987, 6.000000000000000000 ) ) ;
#151 = CC_DESIGN_PERSON_AND_ORGANIZATION_ASSIGNMENT ( #179, #270, ( #140 ) ) ;
#152 = VECTOR ( 'NONE', #202, 1000.000000000000000 ) ;
#153 = EDGE_CURVE ( 'NONE', #94, #10, #281, .T. ) ;
#154 = PERSON_AND_ORGANIZATION ( #74, #48 ) ;
#155 = SHAPE_DEFINITION_REPRESENTATION ( #214, #284 ) ;
#156 = COORDINATED_UNIVERSAL_TIME_OFFSET ( 0, 0, .AHEAD. ) ;
#157 = COORDINATED_UNIVERSAL_TIME_OFFSET ( 0, 0, .AHEAD. ) ;
#158 = ORIENTED_EDGE ( 'NONE', *, *, #165, .F. ) ;
#159 = VECTOR ( 'NONE', #303, 1000.000000000000000 ) ;
#160 = DIRECTION ( 'NONE',  ( -1.000000000000000000, -0.000000000000000000, -0.000000000000000000 ) ) ;
#161 = DIRECTION ( 'NONE',  ( 0.000000000000000000, 0.000000000000000000, -1.000000000000000000 ) ) ;
#162 = CARTESIAN_POINT ( 'NONE',  ( -14.86349896691369032, 22.74237377051345987, 7.000000000000000000 ) ) ;
#163 = EDGE_CURVE ( 'NONE', #200, #178, #145, .T. ) ;
#164 = PLANE ( 'NONE',  #123 ) ;
#165 = EDGE_CURVE ( 'NONE', #93, #200, #62, .T. ) ;
#166 = AXIS2_PLACEMENT_3D ( 'NONE', #275, #198, #17 ) ;
#167 = ORIENTED_EDGE ( 'NONE', *, *, #153, .T. ) ;
#168 = CARTESIAN_POINT ( 'NONE',  ( 0.000000000000000000, 0.000000000000000000, 7.000000000000000000 ) ) ;
#169 = CYLINDRICAL_SURFACE ( 'NONE', #294, 1.000000000000000000 ) ;
#170 = VECTOR ( 'NONE', #105, 1000.000000000000000 ) ;
#171 = CC_DESIGN_APPROVAL ( #69, ( #203 ) ) ;
#172 = DIRECTION ( 'NONE',  ( 1.000000000000000000, 0.000000000000000000, 0.000000000000000000 ) ) ;
#173 = CC_DESIGN_DATE_AND_TIME_ASSIGNMENT ( #217, #131, ( #146 ) ) ;
#174 = DIRECTION ( 'NONE',  ( -0.000000000000000000, -0.000000000000000000, -1.000000000000000000 ) ) ;
#175 = VERTEX_POINT ( 'NONE', #265 ) ;
#176 = PERSON_AND_ORGANIZATION_ROLE ( 'creator' ) ;
#177 = VECTOR ( 'NONE', #104, 1000.000000000000000 ) ;
#178 = VERTEX_POINT ( 'NONE', #29 ) ;
#179 = PERSON_AND_ORGANIZATION ( #74, #48 ) ;
#180 = CALENDAR_DATE ( 2026, 7, 9 ) ;
#181 = AXIS2_PLACEMENT_3D ( 'NONE', #168, #122, #172 ) ;
#182 = APPLICATION_PROTOCOL_DEFINITION ( 'international standard', 'config_control_design', 1994, #134 ) ;
#183 = ORIENTED_EDGE ( 'NONE', *, *, #272, .F. ) ;
#184 = LINE ( 'NONE', #114, #159 ) ;
#185 = EDGE_CURVE ( 'NONE', #133, #94, #125, .T. ) ;
#186 = ORIENTED_EDGE ( 'NONE', *, *, #1, .F. ) ;
#187 = CARTESIAN_POINT ( 'NONE',  ( -15.86349896691369210, 34.74237377051345987, 0.000000000000000000 ) ) ;
#188 = DIRECTION ( 'NONE',  ( 0.000000000000000000, -0.000000000000000000, 1.000000000000000000 ) ) ;
#189 = AXIS2_PLACEMENT_3D ( 'NONE', #150, #55, #191 ) ;
#190 = LINE ( 'NONE', #143, #236 ) ;
#191 = DIRECTION ( 'NONE',  ( 0.000000000000000000, 0.000000000000000000, -1.000000000000000000 ) ) ;
#192 = CARTESIAN_POINT ( 'NONE',  ( -15.86349896691369210, 22.74237377051345987, 7.000000000000000000 ) ) ;
#193 = EDGE_CURVE ( 'NONE', #253, #133, #254, .T. ) ;
#194 = CARTESIAN_POINT ( 'NONE',  ( -15.86349896691369210, 34.74237377051345987, 7.000000000000000000 ) ) ;
#195 = CALENDAR_DATE ( 2026, 7, 9 ) ;
#196 = VERTEX_POINT ( 'NONE', #238 ) ;
#197 = APPROVAL_ROLE ( '' ) ;
#198 = DIRECTION ( 'NONE',  ( 0.000000000000000000, 0.000000000000000000, 1.000000000000000000 ) ) ;
#199 = EDGE_CURVE ( 'NONE', #253, #175, #190, .T. ) ;
#200 = VERTEX_POINT ( 'NONE', #210 ) ;
#201 = LINE ( 'NONE', #77, #239 ) ;
#202 = DIRECTION ( 'NONE',  ( -0.000000000000000000, 1.000000000000000000, -0.000000000000000000 ) ) ;
#203 = PRODUCT_DEFINITION_FORMATION_WITH_SPECIFIED_SOURCE ( 'ANY', '', #266, .NOT_KNOWN. ) ;
#204 = ORIENTED_EDGE ( 'NONE', *, *, #199, .T. ) ;
#205 = CARTESIAN_POINT ( 'NONE',  ( -15.86349896691369210, 22.74237377051345987, 7.000000000000000000 ) ) ;
#206 = CARTESIAN_POINT ( 'NONE',  ( 0.000000000000000000, 0.000000000000000000, 0.000000000000000000 ) ) ;
#207 = LOCAL_TIME ( 18, 35, 18.00000000000000000, #157 ) ;
#208 = PLANE ( 'NONE',  #127 ) ;
#209 = ORIENTED_EDGE ( 'NONE', *, *, #250, .F. ) ;
#210 = CARTESIAN_POINT ( 'NONE',  ( -15.86349896691369210, 22.74237377051345987, 6.000000000000000000 ) ) ;
#211 = PLANE ( 'NONE',  #81 ) ;
#212 = ADVANCED_FACE ( 'NONE', ( #233 ), #211, .F. ) ;
#213 = EDGE_LOOP ( 'NONE', ( #37, #42, #167, #72 ) ) ;
#214 = PRODUCT_DEFINITION_SHAPE ( 'NONE', 'NONE',  #140 ) ;
#215 = VECTOR ( 'NONE', #174, 1000.000000000000000 ) ;
#216 = CARTESIAN_POINT ( 'NONE',  ( -13.36349896691369032, 22.74237377051345987, 6.000000000000000000 ) ) ;
#217 = DATE_AND_TIME ( #88, #41 ) ;
#218 = ORIENTED_EDGE ( 'NONE', *, *, #282, .T. ) ;
#219 = APPROVAL_STATUS ( 'not_yet_approved' ) ;
#220 =( GEOMETRIC_REPRESENTATION_CONTEXT ( 3 ) GLOBAL_UNCERTAINTY_ASSIGNED_CONTEXT ( ( #26 ) ) GLOBAL_UNIT_ASSIGNED_CONTEXT ( ( #80, #57, #300 ) ) REPRESENTATION_CONTEXT ( 'NONE', 'WORKASPACE' ) );
#221 = EDGE_LOOP ( 'NONE', ( #249, #186, #302, #44 ) ) ;
#222 = CALENDAR_DATE ( 2026, 7, 9 ) ;
#223 = CC_DESIGN_PERSON_AND_ORGANIZATION_ASSIGNMENT ( #154, #19, ( #146 ) ) ;
#224 = CLOSED_SHELL ( 'NONE', ( #260, #110, #212, #71, #225, #120, #2, #293 ) ) ;
#225 = ADVANCED_FACE ( 'NONE', ( #102 ), #9, .T. ) ;
#226 = ORIENTED_EDGE ( 'NONE', *, *, #307, .T. ) ;
#227 = VECTOR ( 'NONE', #6, 1000.000000000000000 ) ;
#228 = CARTESIAN_POINT ( 'NONE',  ( -13.36349896691369032, 34.74237377051345987, 0.000000000000000000 ) ) ;
#229 = CARTESIAN_POINT ( 'NONE',  ( -15.86349896691369210, 22.74237377051345987, 0.000000000000000000 ) ) ;
#230 = DIRECTION ( 'NONE',  ( -0.000000000000000000, 1.000000000000000000, -0.000000000000000000 ) ) ;
#231 = VECTOR ( 'NONE', #261, 1000.000000000000000 ) ;
#232 = FACE_OUTER_BOUND ( 'NONE', #221, .T. ) ;
#233 = FACE_OUTER_BOUND ( 'NONE', #213, .T. ) ;
#234 = ORIENTED_EDGE ( 'NONE', *, *, #47, .T. ) ;
#235 = VECTOR ( 'NONE', #288, 1000.000000000000000 ) ;
#236 = VECTOR ( 'NONE', #124, 1000.000000000000000 ) ;
#237 = DIRECTION ( 'NONE',  ( 0.000000000000000000, 1.000000000000000000, 0.000000000000000000 ) ) ;
#238 = CARTESIAN_POINT ( 'NONE',  ( -15.86349896691369210, 22.74237377051345987, 0.000000000000000000 ) ) ;
#239 = VECTOR ( 'NONE', #160, 1000.000000000000000 ) ;
#240 = LINE ( 'NONE', #192, #215 ) ;
#241 = CARTESIAN_POINT ( 'NONE',  ( -14.36349896691369032, 34.74237377051345987, 7.000000000000000000 ) ) ;
#242 = APPROVAL_STATUS ( 'not_yet_approved' ) ;
#243 = PERSON_AND_ORGANIZATION ( #74, #48 ) ;
#244 = EDGE_LOOP ( 'NONE', ( #136, #234, #39, #20, #130, #111 ) ) ;
#245 = CC_DESIGN_SECURITY_CLASSIFICATION ( #146, ( #203 ) ) ;
#246 = ORIENTED_EDGE ( 'NONE', *, *, #247, .T. ) ;
#247 = EDGE_CURVE ( 'NONE', #93, #64, #60, .T. ) ;
#248 = DATE_AND_TIME ( #298, #301 ) ;
#249 = ORIENTED_EDGE ( 'NONE', *, *, #58, .F. ) ;
#250 = EDGE_CURVE ( 'NONE', #200, #196, #240, .T. ) ;
#251 = APPROVAL_STATUS ( 'not_yet_approved' ) ;
#252 = CIRCLE ( 'NONE', #291, 1.000000000000000000 ) ;
#253 = VERTEX_POINT ( 'NONE', #241 ) ;
#254 = CIRCLE ( 'NONE', #189, 1.000000000000000000 ) ;
#255 = ORIENTED_EDGE ( 'NONE', *, *, #185, .F. ) ;
#256 = DIRECTION ( 'NONE',  ( 1.000000000000000000, 0.000000000000000000, 0.000000000000000000 ) ) ;
#257 = CARTESIAN_POINT ( 'NONE',  ( -14.36349896691369032, 22.74237377051345987, 7.000000000000000000 ) ) ;
#258 = PRODUCT_RELATED_PRODUCT_CATEGORY ( 'detail', '', ( #266 ) ) ;
#259 = CARTESIAN_POINT ( 'NONE',  ( -14.36349896691369032, 22.74237377051345987, 6.000000000000000000 ) ) ;
#260 = ADVANCED_FACE ( 'NONE', ( #128 ), #208, .F. ) ;
#261 = DIRECTION ( 'NONE',  ( -0.000000000000000000, -0.000000000000000000, -1.000000000000000000 ) ) ;
#262 = CARTESIAN_POINT ( 'NONE',  ( -13.36349896691369032, 22.74237377051345987, 7.000000000000000000 ) ) ;
#263 = EDGE_LOOP ( 'NONE', ( #246, #226, #204, #68 ) ) ;
#264 = APPROVAL_PERSON_ORGANIZATION ( #271, #91, #70 ) ;
#265 = CARTESIAN_POINT ( 'NONE',  ( -14.86349896691369032, 34.74237377051345987, 7.000000000000000000 ) ) ;
#266 = PRODUCT ( 'Book2', 'Book2', '', ( #129 ) ) ;
#267 = LINE ( 'NONE', #78, #227 ) ;
#268 = PERSON_AND_ORGANIZATION_ROLE ( 'design_supplier' ) ;
#269 = ORIENTED_EDGE ( 'NONE', *, *, #163, .T. ) ;
#270 = PERSON_AND_ORGANIZATION_ROLE ( 'creator' ) ;
#271 = PERSON_AND_ORGANIZATION ( #74, #48 ) ;
#272 = EDGE_CURVE ( 'NONE', #175, #93, #83, .T. ) ;
#273 = DATE_AND_TIME ( #180, #82 ) ;
#274 = AXIS2_PLACEMENT_3D ( 'NONE', #106, #4, #32 ) ;
#275 = CARTESIAN_POINT ( 'NONE',  ( 0.000000000000000000, 0.000000000000000000, 0.000000000000000000 ) ) ;
#276 = FACE_OUTER_BOUND ( 'NONE', #244, .T. ) ;
#277 = DIRECTION ( 'NONE',  ( 0.000000000000000000, -1.000000000000000000, 0.000000000000000000 ) ) ;
#278 = FACE_OUTER_BOUND ( 'NONE', #53, .T. ) ;
#279 = DIRECTION ( 'NONE',  ( 0.000000000000000000, -1.000000000000000000, 0.000000000000000000 ) ) ;
#280 = CC_DESIGN_PERSON_AND_ORGANIZATION_ASSIGNMENT ( #38, #268, ( #203 ) ) ;
#281 = LINE ( 'NONE', #262, #231 ) ;
#282 = EDGE_CURVE ( 'NONE', #133, #8, #267, .T. ) ;
#283 = DIRECTION ( 'NONE',  ( -0.000000000000000000, 0.000000000000000000, -1.000000000000000000 ) ) ;
#284 = ADVANCED_BREP_SHAPE_REPRESENTATION ( 'Book2', ( #51, #166 ), #220 ) ;
#285 = DESIGN_CONTEXT ( 'detailed design', #45, 'design' ) ;
#286 = CARTESIAN_POINT ( 'NONE',  ( -13.36349896691369032, 34.74237377051345987, 7.000000000000000000 ) ) ;
#287 = CC_DESIGN_APPROVAL ( #12, ( #146 ) ) ;
#288 = DIRECTION ( 'NONE',  ( -0.000000000000000000, 1.000000000000000000, -0.000000000000000000 ) ) ;
#289 = EDGE_LOOP ( 'NONE', ( #209, #269, #16, #18 ) ) ;
#290 = DIRECTION ( 'NONE',  ( 1.000000000000000000, 0.000000000000000000, -0.000000000000000000 ) ) ;
#291 = AXIS2_PLACEMENT_3D ( 'NONE', #259, #22, #121 ) ;
#292 = DATE_AND_TIME ( #195, #207 ) ;
#293 = ADVANCED_FACE ( 'NONE', ( #79 ), #169, .T. ) ;
#294 = AXIS2_PLACEMENT_3D ( 'NONE', #56, #237, #148 ) ;
#295 = PERSON_AND_ORGANIZATION_ROLE ( 'design_owner' ) ;
#296 = ORIENTED_EDGE ( 'NONE', *, *, #193, .F. ) ;
#297 = COORDINATED_UNIVERSAL_TIME_OFFSET ( 0, 0, .AHEAD. ) ;
#298 = CALENDAR_DATE ( 2026, 7, 9 ) ;
#299 = ORIENTED_EDGE ( 'NONE', *, *, #193, .T. ) ;
#300 =( NAMED_UNIT ( * ) SI_UNIT ( $, .STERADIAN. ) SOLID_ANGLE_UNIT ( ) );
#301 = LOCAL_TIME ( 18, 35, 18.00000000000000000, #46 ) ;
#302 = ORIENTED_EDGE ( 'NONE', *, *, #112, .F. ) ;
#303 = DIRECTION ( 'NONE',  ( -0.000000000000000000, -0.000000000000000000, -1.000000000000000000 ) ) ;
#304 = CARTESIAN_POINT ( 'NONE',  ( -13.36349896691369032, 22.74237377051345987, 0.000000000000000000 ) ) ;
#305 = LOCAL_TIME ( 18, 35, 18.00000000000000000, #156 ) ;
#306 = CARTESIAN_POINT ( 'NONE',  ( -15.86349896691369210, 34.74237377051345987, 7.000000000000000000 ) ) ;
#307 = EDGE_CURVE ( 'NONE', #64, #253, #30, .T. ) ;
ENDSEC;
END-ISO-10303-21;
