ISO-10303-21;
HEADER;
FILE_DESCRIPTION (( 'STEP AP203' ),
    '1' );
FILE_NAME ('BottomCushion.step',
    '2026-09-07T17:35:21',
    ( '' ),
    ( '' ),
    'SwSTEP 2.0',
    'SolidWorks 2026',
    '' );
FILE_SCHEMA (( 'CONFIG_CONTROL_DESIGN' ));
ENDSEC;

DATA;
#1 = CARTESIAN_POINT ( 'NONE',  ( 3.314459268353859400, -18.30270741657488998, 6.000000000000000000 ) ) ;
#2 = EDGE_CURVE ( 'NONE', #45, #492, #272, .T. ) ;
#3 = ORIENTED_EDGE ( 'NONE', *, *, #647, .T. ) ;
#4 = ADVANCED_FACE ( 'NONE', ( #548 ), #435, .T. ) ;
#5 = DIRECTION ( 'NONE',  ( 0.000000000000000000, 1.000000000000000000, 0.000000000000000000 ) ) ;
#6 = VERTEX_POINT ( 'NONE', #646 ) ;
#7 = CIRCLE ( 'NONE', #191, 1.000000000000000000 ) ;
#8 = VECTOR ( 'NONE', #123, 1000.000000000000000 ) ;
#9 = CARTESIAN_POINT ( 'NONE',  ( 3.314459268353859400, -18.30270741657488998, 0.000000000000000000 ) ) ;
#10 = CARTESIAN_POINT ( 'NONE',  ( 3.314459268353857180, 4.106907359273105197E-16, 6.000000000000000000 ) ) ;
#11 = CYLINDRICAL_SURFACE ( 'NONE', #133, 1.000000000000000000 ) ;
#12 = DIRECTION ( 'NONE',  ( 0.000000000000000000, 0.000000000000000000, 1.000000000000000000 ) ) ;
#13 = ORIENTED_EDGE ( 'NONE', *, *, #533, .F. ) ;
#14 = FACE_OUTER_BOUND ( 'NONE', #633, .T. ) ;
#15 = DIRECTION ( 'NONE',  ( 0.000000000000000000, 0.000000000000000000, 1.000000000000000000 ) ) ;
#16 = CARTESIAN_POINT ( 'NONE',  ( 3.314459268353856292, 7.697292583425109136, 6.000000000000000000 ) ) ;
#17 = VERTEX_POINT ( 'NONE', #259 ) ;
#18 = PRODUCT_DEFINITION ( 'UNKNOWN', '', #167, #196 ) ;
#19 = CARTESIAN_POINT ( 'NONE',  ( -28.68554073164614593, -18.30270741657488998, 7.000000000000000000 ) ) ;
#20 = ADVANCED_FACE ( 'NONE', ( #261 ), #160, .T. ) ;
#21 = AXIS2_PLACEMENT_3D ( 'NONE', #91, #183, #687 ) ;
#22 = CIRCLE ( 'NONE', #685, 1.000000000000000000 ) ;
#23 = LINE ( 'NONE', #72, #87 ) ;
#24 = VERTEX_POINT ( 'NONE', #161 ) ;
#25 = DIRECTION ( 'NONE',  ( 0.000000000000000000, 0.000000000000000000, 1.000000000000000000 ) ) ;
#26 = SHAPE_DEFINITION_REPRESENTATION ( #77, #434 ) ;
#27 = LINE ( 'NONE', #673, #101 ) ;
#28 = ORIENTED_EDGE ( 'NONE', *, *, #526, .T. ) ;
#29 = CARTESIAN_POINT ( 'NONE',  ( 3.314459268353859400, -19.30270741657488998, 0.000000000000000000 ) ) ;
#30 = CYLINDRICAL_SURFACE ( 'NONE', #273, 1.000000000000000000 ) ;
#31 = DIRECTION ( 'NONE',  ( 0.000000000000000000, 0.000000000000000000, -1.000000000000000000 ) ) ;
#32 = DATE_AND_TIME ( #569, #628 ) ;
#33 = CARTESIAN_POINT ( 'NONE',  ( -28.68554073164614593, 7.697292583425109136, 7.000000000000000000 ) ) ;
#34 = VERTEX_POINT ( 'NONE', #436 ) ;
#35 = DIRECTION ( 'NONE',  ( -1.000000000000000000, 0.000000000000000000, 0.000000000000000000 ) ) ;
#36 = PERSON_AND_ORGANIZATION ( #288, #509 ) ;
#37 = CARTESIAN_POINT ( 'NONE',  ( -29.68554073164614593, -18.30270741657488998, 0.000000000000000000 ) ) ;
#38 = ORIENTED_EDGE ( 'NONE', *, *, #194, .T. ) ;
#39 = DIRECTION ( 'NONE',  ( -1.000000000000000000, 0.000000000000000000, 0.000000000000000000 ) ) ;
#40 = ORIENTED_EDGE ( 'NONE', *, *, #194, .F. ) ;
#41 = CC_DESIGN_DATE_AND_TIME_ASSIGNMENT ( #144, #412, ( #614 ) ) ;
#42 = ADVANCED_FACE ( 'NONE', ( #381 ), #594, .T. ) ;
#43 = CARTESIAN_POINT ( 'NONE',  ( 3.314459268353855403, 8.697292583425110024, 1.000000000000000000 ) ) ;
#44 = AXIS2_PLACEMENT_3D ( 'NONE', #391, #502, #499 ) ;
#45 = VERTEX_POINT ( 'NONE', #54 ) ;
#46 = AXIS2_PLACEMENT_3D ( 'NONE', #609, #377, #599 ) ;
#47 = EDGE_CURVE ( 'NONE', #645, #310, #406, .T. ) ;
#48 = ORIENTED_EDGE ( 'NONE', *, *, #586, .T. ) ;
#49 = DIRECTION ( 'NONE',  ( -1.000000000000000000, -1.239088197126291310E-16, 0.000000000000000000 ) ) ;
#50 = DIRECTION ( 'NONE',  ( -1.239088197126290817E-16, 1.000000000000000000, 0.000000000000000000 ) ) ;
#51 = AXIS2_PLACEMENT_3D ( 'NONE', #174, #386, #230 ) ;
#52 = VECTOR ( 'NONE', #631, 1000.000000000000000 ) ;
#53 = LINE ( 'NONE', #309, #703 ) ;
#54 = CARTESIAN_POINT ( 'NONE',  ( -28.68554073164614593, -19.30270741657488998, 6.000000000000000000 ) ) ;
#55 = DIRECTION ( 'NONE',  ( -1.000000000000000000, 0.000000000000000000, 0.000000000000000000 ) ) ;
#56 = DIRECTION ( 'NONE',  ( 0.000000000000000000, 1.000000000000000000, 0.000000000000000000 ) ) ;
#57 = ORIENTED_EDGE ( 'NONE', *, *, #150, .F. ) ;
#58 = DIRECTION ( 'NONE',  ( 1.000000000000000000, 0.000000000000000000, 0.000000000000000000 ) ) ;
#59 = CARTESIAN_POINT ( 'NONE',  ( -28.68554073164614593, 7.697292583425109136, 6.000000000000000000 ) ) ;
#60 = ORIENTED_EDGE ( 'NONE', *, *, #252, .T. ) ;
#61 = EDGE_CURVE ( 'NONE', #6, #45, #71, .T. ) ;
#62 = AXIS2_PLACEMENT_3D ( 'NONE', #336, #562, #669 ) ;
#63 = CIRCLE ( 'NONE', #554, 1.000000000000000000 ) ;
#64 = CARTESIAN_POINT ( 'NONE',  ( 3.314459268353856292, 7.697292583425109136, 6.000000000000000000 ) ) ;
#65 = CARTESIAN_POINT ( 'NONE',  ( 3.314459268353856292, 7.697292583425109136, 6.000000000000000000 ) ) ;
#66 = APPROVAL_PERSON_ORGANIZATION ( #677, #262, #92 ) ;
#67 = CARTESIAN_POINT ( 'NONE',  ( -29.68554073164614593, 8.697292583425110024, 7.000000000000000000 ) ) ;
#68 = CC_DESIGN_PERSON_AND_ORGANIZATION_ASSIGNMENT ( #180, #398, ( #667 ) ) ;
#69 = DIRECTION ( 'NONE',  ( 1.239088197126290817E-16, -1.000000000000000000, -0.000000000000000000 ) ) ;
#70 = DIRECTION ( 'NONE',  ( 1.000000000000000000, 0.000000000000000000, 0.000000000000000000 ) ) ;
#71 = CIRCLE ( 'NONE', #218, 1.000000000000000888 ) ;
#72 = CARTESIAN_POINT ( 'NONE',  ( -29.18554073164614238, -19.30270741657488998, 6.000000000000000000 ) ) ;
#73 = VERTEX_POINT ( 'NONE', #448 ) ;
#74 = DIRECTION ( 'NONE',  ( -0.000000000000000000, 1.000000000000000000, -0.000000000000000000 ) ) ;
#75 = PERSON_AND_ORGANIZATION ( #288, #509 ) ;
#76 = CC_DESIGN_APPROVAL ( #200, ( #18 ) ) ;
#77 = PRODUCT_DEFINITION_SHAPE ( 'NONE', 'NONE',  #18 ) ;
#78 = LINE ( 'NONE', #121, #162 ) ;
#79 = EDGE_CURVE ( 'NONE', #592, #249, #27, .T. ) ;
#80 = CARTESIAN_POINT ( 'NONE',  ( 3.314459268353856292, 7.697292583425109136, 1.000000000000000000 ) ) ;
#81 = APPROVAL_DATE_TIME ( #140, #284 ) ;
#82 = DIRECTION ( 'NONE',  ( 0.000000000000000000, -0.000000000000000000, 1.000000000000000000 ) ) ;
#83 = ORIENTED_EDGE ( 'NONE', *, *, #99, .T. ) ;
#84 = CARTESIAN_POINT ( 'NONE',  ( 3.314459268353856292, 7.697292583425109136, 0.000000000000000000 ) ) ;
#85 = CYLINDRICAL_SURFACE ( 'NONE', #508, 1.000000000000000000 ) ;
#86 = SPHERICAL_SURFACE ( 'NONE', #454, 1.000000000000000000 ) ;
#87 = VECTOR ( 'NONE', #413, 1000.000000000000000 ) ;
#88 = DIRECTION ( 'NONE',  ( 0.000000000000000000, 1.000000000000000000, 0.000000000000000000 ) ) ;
#89 = VECTOR ( 'NONE', #198, 1000.000000000000000 ) ;
#90 = ORIENTED_EDGE ( 'NONE', *, *, #647, .F. ) ;
#91 = CARTESIAN_POINT ( 'NONE',  ( -28.68554073164614593, 7.697292583425109136, 1.000000000000000000 ) ) ;
#92 = APPROVAL_ROLE ( '' ) ;
#93 = LINE ( 'NONE', #642, #540 ) ;
#94 = APPLICATION_CONTEXT ( 'configuration controlled 3d designs of mechanical parts and assemblies' ) ;
#95 = ADVANCED_FACE ( 'NONE', ( #570 ), #507, .T. ) ;
#96 = ORIENTED_EDGE ( 'NONE', *, *, #214, .F. ) ;
#97 = EDGE_CURVE ( 'NONE', #461, #6, #78, .T. ) ;
#98 = FACE_OUTER_BOUND ( 'NONE', #585, .T. ) ;
#99 = EDGE_CURVE ( 'NONE', #674, #45, #23, .T. ) ;
#100 = ORIENTED_EDGE ( 'NONE', *, *, #241, .T. ) ;
#101 = VECTOR ( 'NONE', #513, 1000.000000000000000 ) ;
#102 = FACE_OUTER_BOUND ( 'NONE', #295, .T. ) ;
#103 = EDGE_CURVE ( 'NONE', #17, #138, #339, .T. ) ;
#104 = CIRCLE ( 'NONE', #495, 1.000000000000000000 ) ;
#105 = ORIENTED_EDGE ( 'NONE', *, *, #672, .F. ) ;
#106 = LOCAL_TIME ( 18, 35, 21.00000000000000000, #519 ) ;
#107 = ORIENTED_EDGE ( 'NONE', *, *, #624, .T. ) ;
#108 = ORIENTED_EDGE ( 'NONE', *, *, #214, .T. ) ;
#109 = CARTESIAN_POINT ( 'NONE',  ( 3.314459268353855403, 7.697292583425109136, 7.000000000000000000 ) ) ;
#110 = VECTOR ( 'NONE', #396, 1000.000000000000000 ) ;
#111 =( GEOMETRIC_REPRESENTATION_CONTEXT ( 3 ) GLOBAL_UNCERTAINTY_ASSIGNED_CONTEXT ( ( #466 ) ) GLOBAL_UNIT_ASSIGNED_CONTEXT ( ( #329, #447, #277 ) ) REPRESENTATION_CONTEXT ( 'NONE', 'WORKASPACE' ) );
#112 = DIRECTION ( 'NONE',  ( 0.000000000000000000, -1.000000000000000000, 0.000000000000000000 ) ) ;
#113 = ORIENTED_EDGE ( 'NONE', *, *, #263, .F. ) ;
#114 = EDGE_CURVE ( 'NONE', #477, #592, #181, .T. ) ;
#115 = LINE ( 'NONE', #663, #110 ) ;
#116 = CARTESIAN_POINT ( 'NONE',  ( 3.314459268353855848, 7.697292583425109136, 1.000000000000000000 ) ) ;
#117 = EDGE_CURVE ( 'NONE', #702, #210, #282, .T. ) ;
#118 = ORIENTED_EDGE ( 'NONE', *, *, #426, .T. ) ;
#119 = DIRECTION ( 'NONE',  ( 0.000000000000000000, 1.000000000000000000, 0.000000000000000000 ) ) ;
#120 = DIRECTION ( 'NONE',  ( 1.000000000000000000, 0.000000000000000000, 0.000000000000000000 ) ) ;
#121 = CARTESIAN_POINT ( 'NONE',  ( -29.68554073164614593, -18.30270741657488998, 7.000000000000000000 ) ) ;
#122 = CARTESIAN_POINT ( 'NONE',  ( -28.68554073164614593, 0.000000000000000000, 6.000000000000000000 ) ) ;
#123 = DIRECTION ( 'NONE',  ( 1.000000000000000000, -0.000000000000000000, -0.000000000000000000 ) ) ;
#124 = ORIENTED_EDGE ( 'NONE', *, *, #61, .T. ) ;
#125 = PERSON_AND_ORGANIZATION ( #288, #509 ) ;
#126 = DIRECTION ( 'NONE',  ( 1.000000000000000000, 0.000000000000000000, 0.000000000000000000 ) ) ;
#127 = ORIENTED_EDGE ( 'NONE', *, *, #621, .T. ) ;
#128 = CARTESIAN_POINT ( 'NONE',  ( 3.314459268353858956, -18.30270741657488998, 6.000000000000000000 ) ) ;
#129 = ADVANCED_FACE ( 'NONE', ( #175 ), #611, .F. ) ;
#130 = CARTESIAN_POINT ( 'NONE',  ( 0.000000000000000000, 0.000000000000000000, 0.000000000000000000 ) ) ;
#131 = ORIENTED_EDGE ( 'NONE', *, *, #397, .F. ) ;
#132 = DIRECTION ( 'NONE',  ( 0.000000000000000000, -0.000000000000000000, 1.000000000000000000 ) ) ;
#133 = AXIS2_PLACEMENT_3D ( 'NONE', #122, #112, #598 ) ;
#134 = CIRCLE ( 'NONE', #211, 1.000000000000000000 ) ;
#135 = DIRECTION ( 'NONE',  ( 0.000000000000000000, -0.000000000000000000, 1.000000000000000000 ) ) ;
#136 = CARTESIAN_POINT ( 'NONE',  ( 4.314459268353855848, 8.697292583425110024, 7.000000000000000000 ) ) ;
#137 = CARTESIAN_POINT ( 'NONE',  ( -29.18554073164614593, 7.697292583425109136, 1.000000000000000000 ) ) ;
#138 = VERTEX_POINT ( 'NONE', #559 ) ;
#139 = FACE_OUTER_BOUND ( 'NONE', #488, .T. ) ;
#140 = DATE_AND_TIME ( #357, #106 ) ;
#141 = LINE ( 'NONE', #37, #392 ) ;
#142 = EDGE_LOOP ( 'NONE', ( #57, #118, #131, #370 ) ) ;
#143 = DIRECTION ( 'NONE',  ( 1.239088197126290817E-16, -1.000000000000000000, -0.000000000000000000 ) ) ;
#144 = DATE_AND_TIME ( #291, #383 ) ;
#145 = EDGE_CURVE ( 'NONE', #612, #34, #300, .T. ) ;
#146 = CIRCLE ( 'NONE', #484, 1.000000000000000888 ) ;
#147 = AXIS2_PLACEMENT_3D ( 'NONE', #460, #294, #686 ) ;
#148 = AXIS2_PLACEMENT_3D ( 'NONE', #136, #296, #307 ) ;
#149 = FACE_OUTER_BOUND ( 'NONE', #240, .T. ) ;
#150 = EDGE_CURVE ( 'NONE', #210, #589, #330, .T. ) ;
#151 = ORIENTED_EDGE ( 'NONE', *, *, #97, .T. ) ;
#152 = DIRECTION ( 'NONE',  ( 0.000000000000000000, -0.000000000000000000, -1.000000000000000000 ) ) ;
#153 = EDGE_CURVE ( 'NONE', #645, #73, #286, .T. ) ;
#154 = DIRECTION ( 'NONE',  ( 0.000000000000000000, 0.000000000000000000, -1.000000000000000000 ) ) ;
#155 = ORIENTED_EDGE ( 'NONE', *, *, #602, .T. ) ;
#156 = EDGE_CURVE ( 'NONE', #24, #138, #608, .T. ) ;
#157 = CIRCLE ( 'NONE', #441, 1.000000000000000000 ) ;
#158 = ORIENTED_EDGE ( 'NONE', *, *, #219, .T. ) ;
#159 = CC_DESIGN_APPROVAL ( #262, ( #614 ) ) ;
#160 = CYLINDRICAL_SURFACE ( 'NONE', #364, 1.000000000000000000 ) ;
#161 = CARTESIAN_POINT ( 'NONE',  ( 4.314459268353855848, 7.697292583425109136, 6.000000000000000000 ) ) ;
#162 = VECTOR ( 'NONE', #82, 1000.000000000000000 ) ;
#163 = CARTESIAN_POINT ( 'NONE',  ( -29.18554073164614238, -19.30270741657488998, 7.000000000000000000 ) ) ;
#164 = CC_DESIGN_PERSON_AND_ORGANIZATION_ASSIGNMENT ( #577, #515, ( #167 ) ) ;
#165 = DIRECTION ( 'NONE',  ( 0.000000000000000000, 0.000000000000000000, 1.000000000000000000 ) ) ;
#166 = EDGE_CURVE ( 'NONE', #73, #34, #616, .T. ) ;
#167 = PRODUCT_DEFINITION_FORMATION_WITH_SPECIFIED_SOURCE ( 'ANY', '', #667, .NOT_KNOWN. ) ;
#168 = CARTESIAN_POINT ( 'NONE',  ( 3.314459268353855403, 8.697292583425110024, 7.000000000000000000 ) ) ;
#169 = ADVANCED_FACE ( 'NONE', ( #457 ), #30, .T. ) ;
#170 = ORIENTED_EDGE ( 'NONE', *, *, #397, .T. ) ;
#171 = DIRECTION ( 'NONE',  ( 1.000000000000000000, 0.000000000000000000, 0.000000000000000000 ) ) ;
#172 = DIRECTION ( 'NONE',  ( 1.000000000000000000, 0.000000000000000000, 0.000000000000000000 ) ) ;
#173 = ORIENTED_EDGE ( 'NONE', *, *, #473, .T. ) ;
#174 = CARTESIAN_POINT ( 'NONE',  ( -28.68554073164614593, -18.30270741657488998, 6.000000000000000000 ) ) ;
#175 = FACE_OUTER_BOUND ( 'NONE', #483, .T. ) ;
#176 = AXIS2_PLACEMENT_3D ( 'NONE', #437, #607, #58 ) ;
#177 = VECTOR ( 'NONE', #588, 1000.000000000000000 ) ;
#178 = AXIS2_PLACEMENT_3D ( 'NONE', #530, #425, #152 ) ;
#179 = DIRECTION ( 'NONE',  ( 1.000000000000000000, 0.000000000000000000, -0.000000000000000000 ) ) ;
#180 = PERSON_AND_ORGANIZATION ( #288, #509 ) ;
#181 = LINE ( 'NONE', #400, #192 ) ;
#182 = ORIENTED_EDGE ( 'NONE', *, *, #47, .F. ) ;
#183 = DIRECTION ( 'NONE',  ( -0.000000000000000000, -1.000000000000000000, -0.000000000000000000 ) ) ;
#184 = EDGE_CURVE ( 'NONE', #253, #589, #157, .T. ) ;
#185 = CARTESIAN_POINT ( 'NONE',  ( 3.314459268353859400, -18.30270741657488998, 7.000000000000000000 ) ) ;
#186 = EDGE_LOOP ( 'NONE', ( #481, #405, #572, #693 ) ) ;
#187 = DIRECTION ( 'NONE',  ( 0.000000000000000000, 0.000000000000000000, 1.000000000000000000 ) ) ;
#188 = CALENDAR_DATE ( 2026, 7, 9 ) ;
#189 = CARTESIAN_POINT ( 'NONE',  ( 3.314459268353855403, 7.697292583425109136, 1.000000000000000000 ) ) ;
#190 = FACE_OUTER_BOUND ( 'NONE', #203, .T. ) ;
#191 = AXIS2_PLACEMENT_3D ( 'NONE', #276, #171, #321 ) ;
#192 = VECTOR ( 'NONE', #292, 1000.000000000000000 ) ;
#193 = PERSON_AND_ORGANIZATION ( #288, #509 ) ;
#194 = EDGE_CURVE ( 'NONE', #24, #313, #134, .T. ) ;
#195 = DIRECTION ( 'NONE',  ( -0.000000000000000000, 1.000000000000000000, -0.000000000000000000 ) ) ;
#196 = DESIGN_CONTEXT ( 'detailed design', #225, 'design' ) ;
#197 = DIRECTION ( 'NONE',  ( -1.239088197126290817E-16, 1.000000000000000000, -0.000000000000000000 ) ) ;
#198 = DIRECTION ( 'NONE',  ( 1.000000000000000000, -0.000000000000000000, 0.000000000000000000 ) ) ;
#199 = ORIENTED_EDGE ( 'NONE', *, *, #2, .T. ) ;
#200 = APPROVAL ( #332, 'UNSPECIFIED' ) ;
#201 = DIRECTION ( 'NONE',  ( 1.000000000000000000, 0.000000000000000000, 0.000000000000000000 ) ) ;
#202 = DIRECTION ( 'NONE',  ( -0.000000000000000000, -0.000000000000000000, 1.000000000000000000 ) ) ;
#203 = EDGE_LOOP ( 'NONE', ( #469, #641, #567, #538 ) ) ;
#204 = VECTOR ( 'NONE', #402, 1000.000000000000000 ) ;
#205 = CARTESIAN_POINT ( 'NONE',  ( 3.314459268353855403, 8.697292583425110024, 6.000000000000000000 ) ) ;
#206 = ORIENTED_EDGE ( 'NONE', *, *, #528, .T. ) ;
#207 = ADVANCED_FACE ( 'NONE', ( #464 ), #275, .T. ) ;
#208 = DIRECTION ( 'NONE',  ( 1.000000000000000000, -0.000000000000000000, 0.000000000000000000 ) ) ;
#209 = ORIENTED_EDGE ( 'NONE', *, *, #426, .F. ) ;
#210 = VERTEX_POINT ( 'NONE', #302 ) ;
#211 = AXIS2_PLACEMENT_3D ( 'NONE', #65, #135, #243 ) ;
#212 = EDGE_LOOP ( 'NONE', ( #401, #662, #355, #206 ) ) ;
#213 = VERTEX_POINT ( 'NONE', #632 ) ;
#214 = EDGE_CURVE ( 'NONE', #443, #17, #53, .T. ) ;
#215 = FACE_OUTER_BOUND ( 'NONE', #659, .T. ) ;
#216 = EDGE_CURVE ( 'NONE', #17, #477, #104, .T. ) ;
#217 = ORIENTED_EDGE ( 'NONE', *, *, #2, .F. ) ;
#218 = AXIS2_PLACEMENT_3D ( 'NONE', #228, #347, #565 ) ;
#219 = EDGE_CURVE ( 'NONE', #6, #73, #93, .T. ) ;
#220 = PLANE ( 'NONE',  #421 ) ;
#221 = DIRECTION ( 'NONE',  ( 0.000000000000000000, 1.000000000000000000, 0.000000000000000000 ) ) ;
#222 = ORIENTED_EDGE ( 'NONE', *, *, #97, .F. ) ;
#223 = EDGE_CURVE ( 'NONE', #482, #702, #141, .T. ) ;
#224 = ORIENTED_EDGE ( 'NONE', *, *, #156, .T. ) ;
#225 = APPLICATION_CONTEXT ( 'configuration controlled 3d designs of mechanical parts and assemblies' ) ;
#226 = CARTESIAN_POINT ( 'NONE',  ( -29.68554073164614593, 8.697292583425110024, 1.000000000000000000 ) ) ;
#227 = FACE_OUTER_BOUND ( 'NONE', #617, .T. ) ;
#228 = CARTESIAN_POINT ( 'NONE',  ( -28.68554073164614593, -18.30270741657488998, 6.000000000000000000 ) ) ;
#229 = ORIENTED_EDGE ( 'NONE', *, *, #517, .T. ) ;
#230 = DIRECTION ( 'NONE',  ( 0.000000000000000000, 0.000000000000000000, -1.000000000000000000 ) ) ;
#231 = DIRECTION ( 'NONE',  ( 0.000000000000000000, 1.000000000000000000, 0.000000000000000000 ) ) ;
#232 = DIRECTION ( 'NONE',  ( -1.239088197126290817E-16, 1.000000000000000000, 0.000000000000000000 ) ) ;
#233 = AXIS2_PLACEMENT_3D ( 'NONE', #19, #270, #328 ) ;
#234 = DIRECTION ( 'NONE',  ( 1.000000000000000000, 0.000000000000000000, 0.000000000000000000 ) ) ;
#235 = DIRECTION ( 'NONE',  ( 0.000000000000000000, -0.000000000000000000, 1.000000000000000000 ) ) ;
#236 = ORIENTED_EDGE ( 'NONE', *, *, #493, .F. ) ;
#237 = LINE ( 'NONE', #523, #539 ) ;
#238 = ADVANCED_FACE ( 'NONE', ( #215 ), #532, .T. ) ;
#239 = CARTESIAN_POINT ( 'NONE',  ( -28.68554073164614593, 8.697292583425110024, 0.000000000000000000 ) ) ;
#240 = EDGE_LOOP ( 'NONE', ( #170, #340, #107, #173 ) ) ;
#241 = EDGE_CURVE ( 'NONE', #674, #477, #63, .T. ) ;
#242 = CARTESIAN_POINT ( 'NONE',  ( -28.68554073164614593, -18.30270741657488998, 1.000000000000000000 ) ) ;
#243 = DIRECTION ( 'NONE',  ( 1.000000000000000000, 0.000000000000000000, 0.000000000000000000 ) ) ;
#244 = DIRECTION ( 'NONE',  ( 1.000000000000000000, 0.000000000000000000, 0.000000000000000000 ) ) ;
#245 = FACE_OUTER_BOUND ( 'NONE', #385, .T. ) ;
#246 = ORIENTED_EDGE ( 'NONE', *, *, #334, .F. ) ;
#247 = CARTESIAN_POINT ( 'NONE',  ( -28.68554073164614593, -18.30270741657488998, 1.000000000000000000 ) ) ;
#248 = DIRECTION ( 'NONE',  ( -1.000000000000000000, -0.000000000000000000, -0.000000000000000000 ) ) ;
#249 = VERTEX_POINT ( 'NONE', #520 ) ;
#250 = FACE_OUTER_BOUND ( 'NONE', #527, .T. ) ;
#251 = DIRECTION ( 'NONE',  ( 0.000000000000000000, 0.000000000000000000, 1.000000000000000000 ) ) ;
#252 = EDGE_CURVE ( 'NONE', #213, #674, #351, .T. ) ;
#253 = VERTEX_POINT ( 'NONE', #43 ) ;
#254 = AXIS2_PLACEMENT_3D ( 'NONE', #128, #511, #31 ) ;
#255 = CYLINDRICAL_SURFACE ( 'NONE', #666, 1.000000000000000000 ) ;
#256 = EDGE_LOOP ( 'NONE', ( #83, #199, #510, #60 ) ) ;
#257 = ORIENTED_EDGE ( 'NONE', *, *, #293, .F. ) ;
#258 = MANIFOLD_SOLID_BREP ( 'Fillet2', #679 ) ;
#259 = CARTESIAN_POINT ( 'NONE',  ( 3.314459268353859400, -18.30270741657488998, 7.000000000000000000 ) ) ;
#260 = AXIS2_PLACEMENT_3D ( 'NONE', #618, #35, #25 ) ;
#261 = FACE_OUTER_BOUND ( 'NONE', #362, .T. ) ;
#262 = APPROVAL ( #574, 'UNSPECIFIED' ) ;
#263 = EDGE_CURVE ( 'NONE', #24, #477, #575, .T. ) ;
#264 = LINE ( 'NONE', #297, #636 ) ;
#265 = EDGE_LOOP ( 'NONE', ( #90, #503, #534 ) ) ;
#266 = SPHERICAL_SURFACE ( 'NONE', #465, 1.000000000000000000 ) ;
#267 = CARTESIAN_POINT ( 'NONE',  ( -28.68554073164614593, -18.30270741657488998, 0.000000000000000000 ) ) ;
#268 = ADVANCED_FACE ( 'NONE', ( #102 ), #85, .T. ) ;
#269 = ORIENTED_EDGE ( 'NONE', *, *, #166, .F. ) ;
#270 = DIRECTION ( 'NONE',  ( -0.000000000000000000, 0.000000000000000000, -1.000000000000000000 ) ) ;
#271 = DIRECTION ( 'NONE',  ( 1.000000000000000000, 0.000000000000000000, 0.000000000000000000 ) ) ;
#272 = LINE ( 'NONE', #595, #308 ) ;
#273 = AXIS2_PLACEMENT_3D ( 'NONE', #185, #404, #678 ) ;
#274 = FACE_OUTER_BOUND ( 'NONE', #265, .T. ) ;
#275 = CYLINDRICAL_SURFACE ( 'NONE', #410, 1.000000000000000000 ) ;
#276 = CARTESIAN_POINT ( 'NONE',  ( -28.68554073164614593, 7.697292583425109136, 1.000000000000000000 ) ) ;
#277 =( NAMED_UNIT ( * ) SI_UNIT ( $, .STERADIAN. ) SOLID_ANGLE_UNIT ( ) );
#278 = DIRECTION ( 'NONE',  ( 1.000000000000000000, -0.000000000000000000, -0.000000000000000000 ) ) ;
#279 = ORIENTED_EDGE ( 'NONE', *, *, #475, .T. ) ;
#280 = FACE_OUTER_BOUND ( 'NONE', #656, .T. ) ;
#281 = APPLICATION_PROTOCOL_DEFINITION ( 'international standard', 'config_control_design', 1994, #94 ) ;
#282 = LINE ( 'NONE', #239, #342 ) ;
#283 = ORIENTED_EDGE ( 'NONE', *, *, #145, .T. ) ;
#284 = APPROVAL ( #345, 'UNSPECIFIED' ) ;
#285 = CIRCLE ( 'NONE', #260, 1.000000000000000000 ) ;
#286 = CIRCLE ( 'NONE', #379, 1.000000000000000888 ) ;
#287 = CIRCLE ( 'NONE', #522, 1.000000000000000444 ) ;
#288 = PERSON ( 'UNSPECIFIED', 'UNSPECIFIED', 'UNSPECIFIED', ('UNSPECIFIED'), ('UNSPECIFIED'), ('UNSPECIFIED') ) ;
#289 = LINE ( 'NONE', #455, #204 ) ;
#290 = EDGE_CURVE ( 'NONE', #310, #443, #264, .T. ) ;
#291 = CALENDAR_DATE ( 2026, 7, 9 ) ;
#292 = DIRECTION ( 'NONE',  ( 0.000000000000000000, 0.000000000000000000, -1.000000000000000000 ) ) ;
#293 = EDGE_CURVE ( 'NONE', #612, #645, #640, .T. ) ;
#294 = DIRECTION ( 'NONE',  ( 0.000000000000000000, -0.000000000000000000, 1.000000000000000000 ) ) ;
#295 = EDGE_LOOP ( 'NONE', ( #246, #155, #298, #643 ) ) ;
#296 = DIRECTION ( 'NONE',  ( -1.000000000000000000, -1.239088197126290817E-16, 0.000000000000000000 ) ) ;
#297 = CARTESIAN_POINT ( 'NONE',  ( -28.68554073164614593, 0.000000000000000000, 7.000000000000000000 ) ) ;
#298 = ORIENTED_EDGE ( 'NONE', *, *, #223, .F. ) ;
#299 = CYLINDRICAL_SURFACE ( 'NONE', #378, 1.000000000000000000 ) ;
#300 = CIRCLE ( 'NONE', #147, 1.000000000000000888 ) ;
#301 = CALENDAR_DATE ( 2026, 7, 9 ) ;
#302 = CARTESIAN_POINT ( 'NONE',  ( -28.68554073164614593, 7.697292583425109136, 0.000000000000000000 ) ) ;
#303 = ORIENTED_EDGE ( 'NONE', *, *, #544, .F. ) ;
#304 = CARTESIAN_POINT ( 'NONE',  ( -28.68554073164614593, 8.697292583425110024, 1.000000000000000000 ) ) ;
#305 = LINE ( 'NONE', #694, #89 ) ;
#306 = ORIENTED_EDGE ( 'NONE', *, *, #103, .F. ) ;
#307 = DIRECTION ( 'NONE',  ( 1.239088197126290817E-16, -1.000000000000000000, 0.000000000000000000 ) ) ;
#308 = VECTOR ( 'NONE', #496, 1000.000000000000000 ) ;
#309 = CARTESIAN_POINT ( 'NONE',  ( 0.000000000000000000, -18.30270741657488998, 7.000000000000000000 ) ) ;
#310 = VERTEX_POINT ( 'NONE', #33 ) ;
#311 = ORIENTED_EDGE ( 'NONE', *, *, #184, .F. ) ;
#312 = ADVANCED_FACE ( 'NONE', ( #245 ), #416, .T. ) ;
#313 = VERTEX_POINT ( 'NONE', #205 ) ;
#314 = ORIENTED_EDGE ( 'NONE', *, *, #375, .T. ) ;
#315 = DIRECTION ( 'NONE',  ( 1.000000000000000000, 0.000000000000000000, 0.000000000000000000 ) ) ;
#316 = CIRCLE ( 'NONE', #21, 1.000000000000000000 ) ;
#317 = ORIENTED_EDGE ( 'NONE', *, *, #241, .F. ) ;
#318 = FACE_OUTER_BOUND ( 'NONE', #622, .T. ) ;
#319 = SPHERICAL_SURFACE ( 'NONE', #638, 1.000000000000000000 ) ;
#320 = ORIENTED_EDGE ( 'NONE', *, *, #290, .T. ) ;
#321 = DIRECTION ( 'NONE',  ( 0.000000000000000000, 0.000000000000000000, -1.000000000000000000 ) ) ;
#322 = ORIENTED_EDGE ( 'NONE', *, *, #475, .F. ) ;
#323 = DIRECTION ( 'NONE',  ( 0.000000000000000000, 0.000000000000000000, 1.000000000000000000 ) ) ;
#324 = SPHERICAL_SURFACE ( 'NONE', #566, 1.000000000000000000 ) ;
#325 = DIRECTION ( 'NONE',  ( 0.000000000000000000, 0.000000000000000000, -1.000000000000000000 ) ) ;
#326 = AXIS2_PLACEMENT_3D ( 'NONE', #247, #414, #187 ) ;
#327 = VECTOR ( 'NONE', #202, 1000.000000000000000 ) ;
#328 = DIRECTION ( 'NONE',  ( -1.000000000000000000, 0.000000000000000000, 0.000000000000000000 ) ) ;
#329 =( LENGTH_UNIT ( ) NAMED_UNIT ( * ) SI_UNIT ( .MILLI., .METRE. ) );
#330 = LINE ( 'NONE', #516, #8 ) ;
#331 = CARTESIAN_POINT ( 'NONE',  ( -29.68554073164614593, -18.30270741657488998, 1.000000000000000000 ) ) ;
#332 = APPROVAL_STATUS ( 'not_yet_approved' ) ;
#333 = CARTESIAN_POINT ( 'NONE',  ( -29.68554073164614593, 7.697292583425109136, 7.000000000000000000 ) ) ;
#334 = EDGE_CURVE ( 'NONE', #492, #213, #305, .T. ) ;
#335 = ORIENTED_EDGE ( 'NONE', *, *, #117, .F. ) ;
#336 = CARTESIAN_POINT ( 'NONE',  ( 3.314459268353858512, -18.30270741657488998, 1.000000000000000000 ) ) ;
#337 = PERSON_AND_ORGANIZATION_ROLE ( 'creator' ) ;
#338 = ADVANCED_FACE ( 'NONE', ( #149 ), #581, .F. ) ;
#339 = LINE ( 'NONE', #661, #696 ) ;
#340 = ORIENTED_EDGE ( 'NONE', *, *, #293, .T. ) ;
#341 = AXIS2_PLACEMENT_3D ( 'NONE', #80, #411, #244 ) ;
#342 = VECTOR ( 'NONE', #195, 1000.000000000000000 ) ;
#343 = CIRCLE ( 'NONE', #46, 1.000000000000000000 ) ;
#344 = LINE ( 'NONE', #568, #52 ) ;
#345 = APPROVAL_STATUS ( 'not_yet_approved' ) ;
#346 = ADVANCED_FACE ( 'NONE', ( #98 ), #255, .T. ) ;
#347 = DIRECTION ( 'NONE',  ( 0.000000000000000000, 0.000000000000000000, 1.000000000000000000 ) ) ;
#348 = EDGE_LOOP ( 'NONE', ( #388, #521, #124 ) ) ;
#349 = DIRECTION ( 'NONE',  ( 1.000000000000000000, 0.000000000000000000, 0.000000000000000000 ) ) ;
#350 = COORDINATED_UNIVERSAL_TIME_OFFSET ( 0, 0, .AHEAD. ) ;
#351 = LINE ( 'NONE', #584, #423 ) ;
#352 = ORIENTED_EDGE ( 'NONE', *, *, #675, .F. ) ;
#353 = CARTESIAN_POINT ( 'NONE',  ( -28.68554073164614593, -18.30270741657488998, 6.000000000000000000 ) ) ;
#354 = CARTESIAN_POINT ( 'NONE',  ( 4.314459268353855848, 8.697292583425110024, 6.000000000000000000 ) ) ;
#355 = ORIENTED_EDGE ( 'NONE', *, *, #219, .F. ) ;
#356 = CARTESIAN_POINT ( 'NONE',  ( -28.68554073164614593, 8.697292583425110024, 6.000000000000000000 ) ) ;
#357 = CALENDAR_DATE ( 2026, 7, 9 ) ;
#358 = DIRECTION ( 'NONE',  ( -1.239088197126290817E-16, 1.000000000000000000, 0.000000000000000000 ) ) ;
#359 = ORIENTED_EDGE ( 'NONE', *, *, #526, .F. ) ;
#360 = DIRECTION ( 'NONE',  ( 0.000000000000000000, 0.000000000000000000, -1.000000000000000000 ) ) ;
#361 = CC_DESIGN_PERSON_AND_ORGANIZATION_ASSIGNMENT ( #75, #635, ( #614 ) ) ;
#362 = EDGE_LOOP ( 'NONE', ( #582, #395, #322, #28 ) ) ;
#363 = ADVANCED_FACE ( 'NONE', ( #497 ), #11, .T. ) ;
#364 = AXIS2_PLACEMENT_3D ( 'NONE', #651, #372, #165 ) ;
#365 = DIRECTION ( 'NONE',  ( -1.000000000000000000, 0.000000000000000000, 0.000000000000000000 ) ) ;
#366 = ADVANCED_FACE ( 'NONE', ( #318 ), #376, .T. ) ;
#367 = ORIENTED_EDGE ( 'NONE', *, *, #644, .T. ) ;
#368 = AXIS2_PLACEMENT_3D ( 'NONE', #163, #382, #601 ) ;
#369 = VECTOR ( 'NONE', #143, 1000.000000000000000 ) ;
#370 = ORIENTED_EDGE ( 'NONE', *, *, #184, .T. ) ;
#371 = CC_DESIGN_SECURITY_CLASSIFICATION ( #614, ( #167 ) ) ;
#372 = DIRECTION ( 'NONE',  ( -1.000000000000000000, 0.000000000000000000, 0.000000000000000000 ) ) ;
#373 = AXIS2_PLACEMENT_3D ( 'NONE', #620, #278, #12 ) ;
#374 = EDGE_LOOP ( 'NONE', ( #127, #531, #40, #561 ) ) ;
#375 = EDGE_CURVE ( 'NONE', #443, #45, #590, .T. ) ;
#376 = CYLINDRICAL_SURFACE ( 'NONE', #535, 1.000000000000000000 ) ;
#377 = DIRECTION ( 'NONE',  ( 0.000000000000000000, -1.000000000000000000, 0.000000000000000000 ) ) ;
#378 = AXIS2_PLACEMENT_3D ( 'NONE', #459, #407, #576 ) ;
#379 = AXIS2_PLACEMENT_3D ( 'NONE', #557, #235, #126 ) ;
#380 = APPROVAL_PERSON_ORGANIZATION ( #125, #200, #650 ) ;
#381 = FACE_OUTER_BOUND ( 'NONE', #374, .T. ) ;
#382 = DIRECTION ( 'NONE',  ( 0.000000000000000000, 1.000000000000000000, 0.000000000000000000 ) ) ;
#383 = LOCAL_TIME ( 18, 35, 21.00000000000000000, #350 ) ;
#384 = CARTESIAN_POINT ( 'NONE',  ( 3.314459268353858512, -19.30270741657488998, 6.000000000000000000 ) ) ;
#385 = EDGE_LOOP ( 'NONE', ( #458, #626, #100 ) ) ;
#386 = DIRECTION ( 'NONE',  ( 1.000000000000000000, -0.000000000000000000, 0.000000000000000000 ) ) ;
#387 = DIRECTION ( 'NONE',  ( 1.000000000000000000, 0.000000000000000000, 0.000000000000000000 ) ) ;
#388 = ORIENTED_EDGE ( 'NONE', *, *, #375, .F. ) ;
#389 = LINE ( 'NONE', #226, #564 ) ;
#390 = SPHERICAL_SURFACE ( 'NONE', #393, 1.000000000000000000 ) ;
#391 = CARTESIAN_POINT ( 'NONE',  ( 0.000000000000000000, 0.000000000000000000, 7.000000000000000000 ) ) ;
#392 = VECTOR ( 'NONE', #248, 1000.000000000000000 ) ;
#393 = AXIS2_PLACEMENT_3D ( 'NONE', #546, #231, #451 ) ;
#394 = AXIS2_PLACEMENT_3D ( 'NONE', #578, #88, #419 ) ;
#395 = ORIENTED_EDGE ( 'NONE', *, *, #47, .T. ) ;
#396 = DIRECTION ( 'NONE',  ( -1.000000000000000000, 0.000000000000000000, 0.000000000000000000 ) ) ;
#397 = EDGE_CURVE ( 'NONE', #253, #612, #389, .T. ) ;
#398 = PERSON_AND_ORGANIZATION_ROLE ( 'design_owner' ) ;
#399 = ADVANCED_FACE ( 'NONE', ( #440 ), #444, .T. ) ;
#400 = CARTESIAN_POINT ( 'NONE',  ( 4.314459268353859400, -18.30270741657488998, 7.000000000000000000 ) ) ;
#401 = ORIENTED_EDGE ( 'NONE', *, *, #290, .F. ) ;
#402 = DIRECTION ( 'NONE',  ( 0.000000000000000000, -1.000000000000000000, 0.000000000000000000 ) ) ;
#403 = PERSON_AND_ORGANIZATION ( #288, #509 ) ;
#404 = DIRECTION ( 'NONE',  ( 0.000000000000000000, 0.000000000000000000, -1.000000000000000000 ) ) ;
#405 = ORIENTED_EDGE ( 'NONE', *, *, #533, .T. ) ;
#406 = CIRCLE ( 'NONE', #373, 1.000000000000000000 ) ;
#407 = DIRECTION ( 'NONE',  ( 1.239088197126290817E-16, -1.000000000000000000, 0.000000000000000000 ) ) ;
#408 = SECURITY_CLASSIFICATION_LEVEL ( 'unclassified' ) ;
#409 = DIRECTION ( 'NONE',  ( -1.000000000000000000, -0.000000000000000000, -0.000000000000000000 ) ) ;
#410 = AXIS2_PLACEMENT_3D ( 'NONE', #137, #315, #360 ) ;
#411 = DIRECTION ( 'NONE',  ( 1.239088197126290817E-16, -1.000000000000000000, 0.000000000000000000 ) ) ;
#412 = DATE_TIME_ROLE ( 'classification_date' ) ;
#413 = DIRECTION ( 'NONE',  ( -1.000000000000000000, 0.000000000000000000, -0.000000000000000000 ) ) ;
#414 = DIRECTION ( 'NONE',  ( 1.000000000000000000, -0.000000000000000000, -0.000000000000000000 ) ) ;
#415 = DATE_TIME_ROLE ( 'creation_date' ) ;
#416 = SPHERICAL_SURFACE ( 'NONE', #394, 1.000000000000000000 ) ;
#417 = ORIENTED_EDGE ( 'NONE', *, *, #252, .F. ) ;
#418 = DIRECTION ( 'NONE',  ( -0.000000000000000000, -0.000000000000000000, 1.000000000000000000 ) ) ;
#419 = DIRECTION ( 'NONE',  ( 1.000000000000000000, 0.000000000000000000, 0.000000000000000000 ) ) ;
#420 = EDGE_LOOP ( 'NONE', ( #680, #637, #699, #367 ) ) ;
#421 = AXIS2_PLACEMENT_3D ( 'NONE', #67, #179, #504 ) ;
#422 = CARTESIAN_POINT ( 'NONE',  ( 3.314459268353858956, -18.30270741657488998, 1.000000000000000000 ) ) ;
#423 = VECTOR ( 'NONE', #541, 1000.000000000000000 ) ;
#424 = CC_DESIGN_DATE_AND_TIME_ASSIGNMENT ( #671, #415, ( #18 ) ) ;
#425 = DIRECTION ( 'NONE',  ( 0.000000000000000000, -1.000000000000000000, 0.000000000000000000 ) ) ;
#426 = EDGE_CURVE ( 'NONE', #210, #612, #7, .T. ) ;
#427 = ORIENTED_EDGE ( 'NONE', *, *, #145, .F. ) ;
#428 = ADVANCED_FACE ( 'NONE', ( #280 ), #490, .T. ) ;
#429 = DIRECTION ( 'NONE',  ( 1.000000000000000000, -0.000000000000000000, 0.000000000000000000 ) ) ;
#430 = ORIENTED_EDGE ( 'NONE', *, *, #153, .T. ) ;
#431 = ADVANCED_FACE ( 'NONE', ( #274 ), #549, .T. ) ;
#432 = ORIENTED_EDGE ( 'NONE', *, *, #596, .F. ) ;
#433 = CIRCLE ( 'NONE', #610, 1.000000000000000000 ) ;
#434 = ADVANCED_BREP_SHAPE_REPRESENTATION ( 'BottomCushion', ( #258, #655 ), #111 ) ;
#435 = CYLINDRICAL_SURFACE ( 'NONE', #560, 1.000000000000000000 ) ;
#436 = CARTESIAN_POINT ( 'NONE',  ( -29.68554073164614593, 7.697292583425108248, 1.000000000000000000 ) ) ;
#437 = CARTESIAN_POINT ( 'NONE',  ( -28.68554073164614593, -18.30270741657488998, 1.000000000000000000 ) ) ;
#438 = ADVANCED_FACE ( 'NONE', ( #654 ), #266, .T. ) ;
#439 = ORIENTED_EDGE ( 'NONE', *, *, #99, .F. ) ;
#440 = FACE_OUTER_BOUND ( 'NONE', #701, .T. ) ;
#441 = AXIS2_PLACEMENT_3D ( 'NONE', #189, #409, #555 ) ;
#442 = LOCAL_TIME ( 18, 35, 21.00000000000000000, #563 ) ;
#443 = VERTEX_POINT ( 'NONE', #551 ) ;
#444 = CYLINDRICAL_SURFACE ( 'NONE', #233, 1.000000000000000888 ) ;
#445 = ADVANCED_FACE ( 'NONE', ( #14 ), #220, .F. ) ;
#446 = ORIENTED_EDGE ( 'NONE', *, *, #544, .T. ) ;
#447 =( NAMED_UNIT ( * ) PLANE_ANGLE_UNIT ( ) SI_UNIT ( $, .RADIAN. ) );
#448 = CARTESIAN_POINT ( 'NONE',  ( -29.68554073164614593, 7.697292583425109136, 6.000000000000000000 ) ) ;
#449 = EDGE_LOOP ( 'NONE', ( #113, #224, #306, #486 ) ) ;
#450 = LINE ( 'NONE', #168, #684 ) ;
#451 = DIRECTION ( 'NONE',  ( 1.000000000000000000, 0.000000000000000000, 0.000000000000000000 ) ) ;
#452 = CIRCLE ( 'NONE', #62, 1.000000000000000000 ) ;
#453 = DIRECTION ( 'NONE',  ( -1.000000000000000000, 0.000000000000000000, 0.000000000000000000 ) ) ;
#454 = AXIS2_PLACEMENT_3D ( 'NONE', #529, #634, #234 ) ;
#455 = CARTESIAN_POINT ( 'NONE',  ( -29.68554073164614593, -19.30270741657488998, 1.000000000000000000 ) ) ;
#456 = PERSON_AND_ORGANIZATION_ROLE ( 'creator' ) ;
#457 = FACE_OUTER_BOUND ( 'NONE', #606, .T. ) ;
#458 = ORIENTED_EDGE ( 'NONE', *, *, #216, .F. ) ;
#459 = CARTESIAN_POINT ( 'NONE',  ( 3.314459268353856292, 8.697292583425110024, 1.000000000000000000 ) ) ;
#460 = CARTESIAN_POINT ( 'NONE',  ( -28.68554073164614593, 7.697292583425109136, 1.000000000000000000 ) ) ;
#461 = VERTEX_POINT ( 'NONE', #331 ) ;
#462 = DIRECTION ( 'NONE',  ( 0.000000000000000000, 1.000000000000000000, 0.000000000000000000 ) ) ;
#463 = COORDINATED_UNIVERSAL_TIME_OFFSET ( 0, 0, .AHEAD. ) ;
#464 = FACE_OUTER_BOUND ( 'NONE', #142, .T. ) ;
#465 = AXIS2_PLACEMENT_3D ( 'NONE', #660, #494, #556 ) ;
#466 = UNCERTAINTY_MEASURE_WITH_UNIT (LENGTH_MEASURE( 1.000000000000000082E-05 ), #329, 'distance_accuracy_value', 'NONE');
#467 = CARTESIAN_POINT ( 'NONE',  ( 3.314459268353859400, -18.30270741657488998, 1.000000000000000000 ) ) ;
#468 = CARTESIAN_POINT ( 'NONE',  ( -28.68554073164614593, 7.697292583425109136, 7.000000000000000000 ) ) ;
#469 = ORIENTED_EDGE ( 'NONE', *, *, #79, .T. ) ;
#470 = CARTESIAN_POINT ( 'NONE',  ( -28.68554073164614593, -18.30270741657488998, 1.000000000000000000 ) ) ;
#471 = CARTESIAN_POINT ( 'NONE',  ( -29.18554073164614238, -18.30270741657488998, 1.000000000000000000 ) ) ;
#472 = ORIENTED_EDGE ( 'NONE', *, *, #103, .T. ) ;
#473 = EDGE_CURVE ( 'NONE', #313, #253, #450, .T. ) ;
#474 = AXIS2_PLACEMENT_3D ( 'NONE', #130, #625, #668 ) ;
#475 = EDGE_CURVE ( 'NONE', #138, #310, #115, .T. ) ;
#476 = DIRECTION ( 'NONE',  ( 0.000000000000000000, -1.000000000000000000, 0.000000000000000000 ) ) ;
#477 = VERTEX_POINT ( 'NONE', #613 ) ;
#478 = CIRCLE ( 'NONE', #597, 1.000000000000000000 ) ;
#479 = LOCAL_TIME ( 18, 35, 21.00000000000000000, #463 ) ;
#480 = CARTESIAN_POINT ( 'NONE',  ( 3.314459268353858956, -18.30270741657488998, 6.000000000000000000 ) ) ;
#481 = ORIENTED_EDGE ( 'NONE', *, *, #644, .F. ) ;
#482 = VERTEX_POINT ( 'NONE', #9 ) ;
#483 = EDGE_LOOP ( 'NONE', ( #108, #472, #279, #320 ) ) ;
#484 = AXIS2_PLACEMENT_3D ( 'NONE', #470, #691, #201 ) ;
#485 = AXIS2_PLACEMENT_3D ( 'NONE', #468, #154, #365 ) ;
#486 = ORIENTED_EDGE ( 'NONE', *, *, #216, .T. ) ;
#487 = DIRECTION ( 'NONE',  ( -0.000000000000000000, 1.000000000000000000, -0.000000000000000000 ) ) ;
#488 = EDGE_LOOP ( 'NONE', ( #209, #550, #427 ) ) ;
#489 = CC_DESIGN_PERSON_AND_ORGANIZATION_ASSIGNMENT ( #403, #456, ( #18 ) ) ;
#490 = SPHERICAL_SURFACE ( 'NONE', #695, 1.000000000000000000 ) ;
#491 = ADVANCED_FACE ( 'NONE', ( #558 ), #649, .F. ) ;
#492 = VERTEX_POINT ( 'NONE', #657 ) ;
#493 = EDGE_CURVE ( 'NONE', #482, #213, #452, .T. ) ;
#494 = DIRECTION ( 'NONE',  ( 0.000000000000000000, 1.000000000000000000, 0.000000000000000000 ) ) ;
#495 = AXIS2_PLACEMENT_3D ( 'NONE', #480, #358, #525 ) ;
#496 = DIRECTION ( 'NONE',  ( -0.000000000000000000, 0.000000000000000000, -1.000000000000000000 ) ) ;
#497 = FACE_OUTER_BOUND ( 'NONE', #212, .T. ) ;
#498 = DIRECTION ( 'NONE',  ( -0.000000000000000000, 0.000000000000000000, 1.000000000000000000 ) ) ;
#499 = DIRECTION ( 'NONE',  ( -1.000000000000000000, 0.000000000000000000, -0.000000000000000000 ) ) ;
#500 = DIRECTION ( 'NONE',  ( 0.000000000000000000, 0.000000000000000000, -1.000000000000000000 ) ) ;
#501 = MECHANICAL_CONTEXT ( 'NONE', #94, 'mechanical' ) ;
#502 = DIRECTION ( 'NONE',  ( 0.000000000000000000, 0.000000000000000000, -1.000000000000000000 ) ) ;
#503 = ORIENTED_EDGE ( 'NONE', *, *, #602, .F. ) ;
#504 = DIRECTION ( 'NONE',  ( -0.000000000000000000, 0.000000000000000000, -1.000000000000000000 ) ) ;
#505 = APPROVAL_DATE_TIME ( #32, #262 ) ;
#506 = CIRCLE ( 'NONE', #341, 1.000000000000000000 ) ;
#507 = PLANE ( 'NONE',  #474 ) ;
#508 = AXIS2_PLACEMENT_3D ( 'NONE', #471, #39, #251 ) ;
#509 = ORGANIZATION ( 'UNSPECIFIED', 'UNSPECIFIED', '' ) ;
#510 = ORIENTED_EDGE ( 'NONE', *, *, #334, .T. ) ;
#511 = DIRECTION ( 'NONE',  ( -1.000000000000000000, 0.000000000000000000, -0.000000000000000000 ) ) ;
#512 = COORDINATED_UNIVERSAL_TIME_OFFSET ( 0, 0, .AHEAD. ) ;
#513 = DIRECTION ( 'NONE',  ( -1.239088197126290817E-16, 1.000000000000000000, 0.000000000000000000 ) ) ;
#514 = LINE ( 'NONE', #29, #369 ) ;
#515 = PERSON_AND_ORGANIZATION_ROLE ( 'design_supplier' ) ;
#516 = CARTESIAN_POINT ( 'NONE',  ( 4.314459268353855848, 7.697292583425109136, 0.000000000000000000 ) ) ;
#517 = EDGE_CURVE ( 'NONE', #461, #492, #146, .T. ) ;
#518 = FACE_OUTER_BOUND ( 'NONE', #186, .T. ) ;
#519 = COORDINATED_UNIVERSAL_TIME_OFFSET ( 0, 0, .AHEAD. ) ;
#520 = CARTESIAN_POINT ( 'NONE',  ( 4.314459268353855848, 7.697292583425109136, 1.000000000000000000 ) ) ;
#521 = ORIENTED_EDGE ( 'NONE', *, *, #528, .F. ) ;
#522 = AXIS2_PLACEMENT_3D ( 'NONE', #422, #498, #120 ) ;
#523 = CARTESIAN_POINT ( 'NONE',  ( 4.314459268353855848, 7.697292583425109136, 7.000000000000000000 ) ) ;
#524 = APPROVAL_DATE_TIME ( #688, #200 ) ;
#525 = DIRECTION ( 'NONE',  ( -1.000000000000000000, 0.000000000000000000, 0.000000000000000000 ) ) ;
#526 = EDGE_CURVE ( 'NONE', #138, #313, #285, .T. ) ;
#527 = EDGE_LOOP ( 'NONE', ( #236, #432, #105 ) ) ;
#528 = EDGE_CURVE ( 'NONE', #6, #443, #478, .T. ) ;
#529 = CARTESIAN_POINT ( 'NONE',  ( -28.68554073164614593, 7.697292583425109136, 1.000000000000000000 ) ) ;
#530 = CARTESIAN_POINT ( 'NONE',  ( -29.18554073164614593, 8.697292583425110024, 7.000000000000000000 ) ) ;
#531 = ORIENTED_EDGE ( 'NONE', *, *, #473, .F. ) ;
#532 = CYLINDRICAL_SURFACE ( 'NONE', #485, 1.000000000000000888 ) ;
#533 = EDGE_CURVE ( 'NONE', #589, #249, #506, .T. ) ;
#534 = ORIENTED_EDGE ( 'NONE', *, *, #517, .F. ) ;
#535 = AXIS2_PLACEMENT_3D ( 'NONE', #605, #119, #323 ) ;
#536 = ORIENTED_EDGE ( 'NONE', *, *, #153, .F. ) ;
#537 = ORIENTED_EDGE ( 'NONE', *, *, #114, .F. ) ;
#538 = ORIENTED_EDGE ( 'NONE', *, *, #114, .T. ) ;
#539 = VECTOR ( 'NONE', #418, 1000.000000000000000 ) ;
#540 = VECTOR ( 'NONE', #487, 1000.000000000000000 ) ;
#541 = DIRECTION ( 'NONE',  ( -0.000000000000000000, -0.000000000000000000, 1.000000000000000000 ) ) ;
#542 = DIRECTION ( 'NONE',  ( -1.000000000000000000, 0.000000000000000000, 0.000000000000000000 ) ) ;
#543 = CC_DESIGN_PERSON_AND_ORGANIZATION_ASSIGNMENT ( #36, #337, ( #167 ) ) ;
#544 = EDGE_CURVE ( 'NONE', #34, #461, #289, .T. ) ;
#545 = DIRECTION ( 'NONE',  ( 0.000000000000000000, 0.000000000000000000, -1.000000000000000000 ) ) ;
#546 = CARTESIAN_POINT ( 'NONE',  ( 3.314459268353858956, -18.30270741657488998, 1.000000000000000000 ) ) ;
#547 = EDGE_CURVE ( 'NONE', #674, #17, #664, .T. ) ;
#548 = FACE_OUTER_BOUND ( 'NONE', #449, .T. ) ;
#549 = SPHERICAL_SURFACE ( 'NONE', #176, 1.000000000000000000 ) ;
#550 = ORIENTED_EDGE ( 'NONE', *, *, #586, .F. ) ;
#551 = CARTESIAN_POINT ( 'NONE',  ( -28.68554073164614593, -18.30270741657488998, 7.000000000000000000 ) ) ;
#552 = AXIS2_PLACEMENT_3D ( 'NONE', #16, #69, #453 ) ;
#553 = AXIS2_PLACEMENT_3D ( 'NONE', #467, #197, #580 ) ;
#554 = AXIS2_PLACEMENT_3D ( 'NONE', #1, #689, #629 ) ;
#555 = DIRECTION ( 'NONE',  ( 0.000000000000000000, 0.000000000000000000, -1.000000000000000000 ) ) ;
#556 = DIRECTION ( 'NONE',  ( 1.000000000000000000, 0.000000000000000000, 0.000000000000000000 ) ) ;
#557 = CARTESIAN_POINT ( 'NONE',  ( -28.68554073164614593, 7.697292583425109136, 6.000000000000000000 ) ) ;
#558 = FACE_OUTER_BOUND ( 'NONE', #256, .T. ) ;
#559 = CARTESIAN_POINT ( 'NONE',  ( 3.314459268353856292, 7.697292583425109136, 7.000000000000000000 ) ) ;
#560 = AXIS2_PLACEMENT_3D ( 'NONE', #10, #50, #49 ) ;
#561 = ORIENTED_EDGE ( 'NONE', *, *, #571, .F. ) ;
#562 = DIRECTION ( 'NONE',  ( -1.000000000000000000, 0.000000000000000000, 0.000000000000000000 ) ) ;
#563 = COORDINATED_UNIVERSAL_TIME_OFFSET ( 0, 0, .AHEAD. ) ;
#564 = VECTOR ( 'NONE', #55, 1000.000000000000000 ) ;
#565 = DIRECTION ( 'NONE',  ( 1.000000000000000000, 0.000000000000000000, 0.000000000000000000 ) ) ;
#566 = AXIS2_PLACEMENT_3D ( 'NONE', #116, #221, #387 ) ;
#567 = ORIENTED_EDGE ( 'NONE', *, *, #263, .T. ) ;
#568 = CARTESIAN_POINT ( 'NONE',  ( -29.18554073164614593, 8.697292583425110024, 6.000000000000000000 ) ) ;
#569 = CALENDAR_DATE ( 2026, 7, 9 ) ;
#570 = FACE_OUTER_BOUND ( 'NONE', #420, .T. ) ;
#571 = EDGE_CURVE ( 'NONE', #249, #24, #237, .T. ) ;
#572 = ORIENTED_EDGE ( 'NONE', *, *, #79, .F. ) ;
#573 = DIRECTION ( 'NONE',  ( 0.000000000000000000, 0.000000000000000000, -1.000000000000000000 ) ) ;
#574 = APPROVAL_STATUS ( 'not_yet_approved' ) ;
#575 = LINE ( 'NONE', #354, #177 ) ;
#576 = DIRECTION ( 'NONE',  ( 1.000000000000000000, 0.000000000000000000, 0.000000000000000000 ) ) ;
#577 = PERSON_AND_ORGANIZATION ( #288, #509 ) ;
#578 = CARTESIAN_POINT ( 'NONE',  ( 3.314459268353858956, -18.30270741657488998, 6.000000000000000000 ) ) ;
#579 = ORIENTED_EDGE ( 'NONE', *, *, #621, .F. ) ;
#580 = DIRECTION ( 'NONE',  ( 1.000000000000000000, 0.000000000000000000, 0.000000000000000000 ) ) ;
#581 = PLANE ( 'NONE',  #178 ) ;
#582 = ORIENTED_EDGE ( 'NONE', *, *, #624, .F. ) ;
#583 = ADVANCED_FACE ( 'NONE', ( #518 ), #299, .T. ) ;
#584 = CARTESIAN_POINT ( 'NONE',  ( 3.314459268353858512, -19.30270741657488998, 7.000000000000000000 ) ) ;
#585 = EDGE_LOOP ( 'NONE', ( #96, #314, #439, #604 ) ) ;
#586 = EDGE_CURVE ( 'NONE', #34, #210, #316, .T. ) ;
#587 = AXIS2_PLACEMENT_3D ( 'NONE', #109, #600, #542 ) ;
#588 = DIRECTION ( 'NONE',  ( 1.239088197126290817E-16, -1.000000000000000000, -0.000000000000000000 ) ) ;
#589 = VERTEX_POINT ( 'NONE', #84 ) ;
#590 = CIRCLE ( 'NONE', #51, 1.000000000000000000 ) ;
#591 = VECTOR ( 'NONE', #325, 1000.000000000000000 ) ;
#592 = VERTEX_POINT ( 'NONE', #676 ) ;
#593 = CC_DESIGN_APPROVAL ( #284, ( #167 ) ) ;
#594 = CYLINDRICAL_SURFACE ( 'NONE', #587, 1.000000000000000000 ) ;
#595 = CARTESIAN_POINT ( 'NONE',  ( -28.68554073164614593, -19.30270741657488998, 7.000000000000000000 ) ) ;
#596 = EDGE_CURVE ( 'NONE', #592, #482, #653, .T. ) ;
#597 = AXIS2_PLACEMENT_3D ( 'NONE', #353, #74, #573 ) ;
#598 = DIRECTION ( 'NONE',  ( 0.000000000000000000, 0.000000000000000000, -1.000000000000000000 ) ) ;
#599 = DIRECTION ( 'NONE',  ( 0.000000000000000000, 0.000000000000000000, -1.000000000000000000 ) ) ;
#600 = DIRECTION ( 'NONE',  ( 0.000000000000000000, 0.000000000000000000, -1.000000000000000000 ) ) ;
#601 = DIRECTION ( 'NONE',  ( 0.000000000000000000, -0.000000000000000000, 1.000000000000000000 ) ) ;
#602 = EDGE_CURVE ( 'NONE', #492, #702, #665, .T. ) ;
#603 = FACE_OUTER_BOUND ( 'NONE', #630, .T. ) ;
#604 = ORIENTED_EDGE ( 'NONE', *, *, #547, .T. ) ;
#605 = CARTESIAN_POINT ( 'NONE',  ( -28.68554073164614593, 8.697292583425110024, 1.000000000000000000 ) ) ;
#606 = EDGE_LOOP ( 'NONE', ( #704, #537, #317, #417 ) ) ;
#607 = DIRECTION ( 'NONE',  ( 0.000000000000000000, 1.000000000000000000, 0.000000000000000000 ) ) ;
#608 = CIRCLE ( 'NONE', #552, 1.000000000000000000 ) ;
#609 = CARTESIAN_POINT ( 'NONE',  ( -28.68554073164614593, 7.697292583425109136, 6.000000000000000000 ) ) ;
#610 = AXIS2_PLACEMENT_3D ( 'NONE', #623, #132, #349 ) ;
#611 = PLANE ( 'NONE',  #44 ) ;
#612 = VERTEX_POINT ( 'NONE', #304 ) ;
#613 = CARTESIAN_POINT ( 'NONE',  ( 4.314459268353859400, -18.30270741657488998, 6.000000000000000000 ) ) ;
#614 = SECURITY_CLASSIFICATION ( '', '', #408 ) ;
#615 = APPLICATION_PROTOCOL_DEFINITION ( 'international standard', 'config_control_design', 1994, #225 ) ;
#616 = LINE ( 'NONE', #333, #591 ) ;
#617 = EDGE_LOOP ( 'NONE', ( #430, #352, #182 ) ) ;
#618 = CARTESIAN_POINT ( 'NONE',  ( 3.314459268353856292, 7.697292583425109136, 6.000000000000000000 ) ) ;
#619 = PRODUCT_RELATED_PRODUCT_CATEGORY ( 'detail', '', ( #667 ) ) ;
#620 = CARTESIAN_POINT ( 'NONE',  ( -28.68554073164614593, 7.697292583425109136, 6.000000000000000000 ) ) ;
#621 = EDGE_CURVE ( 'NONE', #249, #253, #433, .T. ) ;
#622 = EDGE_LOOP ( 'NONE', ( #303, #48, #335, #3 ) ) ;
#623 = CARTESIAN_POINT ( 'NONE',  ( 3.314459268353856292, 7.697292583425109136, 1.000000000000000000 ) ) ;
#624 = EDGE_CURVE ( 'NONE', #645, #313, #344, .T. ) ;
#625 = DIRECTION ( 'NONE',  ( 0.000000000000000000, 0.000000000000000000, -1.000000000000000000 ) ) ;
#626 = ORIENTED_EDGE ( 'NONE', *, *, #547, .F. ) ;
#627 = PLANE ( 'NONE',  #148 ) ;
#628 = LOCAL_TIME ( 18, 35, 21.00000000000000000, #512 ) ;
#629 = DIRECTION ( 'NONE',  ( 1.000000000000000000, 0.000000000000000000, 0.000000000000000000 ) ) ;
#630 = EDGE_LOOP ( 'NONE', ( #13, #311, #579 ) ) ;
#631 = DIRECTION ( 'NONE',  ( 1.000000000000000000, -0.000000000000000000, -0.000000000000000000 ) ) ;
#632 = CARTESIAN_POINT ( 'NONE',  ( 3.314459268353859400, -19.30270741657488998, 1.000000000000000000 ) ) ;
#633 = EDGE_LOOP ( 'NONE', ( #158, #648, #446, #151 ) ) ;
#634 = DIRECTION ( 'NONE',  ( 0.000000000000000000, 1.000000000000000000, 0.000000000000000000 ) ) ;
#635 = PERSON_AND_ORGANIZATION_ROLE ( 'classification_officer' ) ;
#636 = VECTOR ( 'NONE', #476, 1000.000000000000000 ) ;
#637 = ORIENTED_EDGE ( 'NONE', *, *, #117, .T. ) ;
#638 = AXIS2_PLACEMENT_3D ( 'NONE', #59, #56, #271 ) ;
#639 = ADVANCED_FACE ( 'NONE', ( #139 ), #86, .T. ) ;
#640 = LINE ( 'NONE', #692, #327 ) ;
#641 = ORIENTED_EDGE ( 'NONE', *, *, #571, .T. ) ;
#642 = CARTESIAN_POINT ( 'NONE',  ( -29.68554073164614593, 8.697292583425110024, 6.000000000000000000 ) ) ;
#643 = ORIENTED_EDGE ( 'NONE', *, *, #493, .T. ) ;
#644 = EDGE_CURVE ( 'NONE', #589, #482, #514, .T. ) ;
#645 = VERTEX_POINT ( 'NONE', #356 ) ;
#646 = CARTESIAN_POINT ( 'NONE',  ( -29.68554073164614593, -18.30270741657488998, 6.000000000000000000 ) ) ;
#647 = EDGE_CURVE ( 'NONE', #702, #461, #22, .T. ) ;
#648 = ORIENTED_EDGE ( 'NONE', *, *, #166, .T. ) ;
#649 = PLANE ( 'NONE',  #368 ) ;
#650 = APPROVAL_ROLE ( '' ) ;
#651 = CARTESIAN_POINT ( 'NONE',  ( 0.000000000000000000, 7.697292583425109136, 6.000000000000000000 ) ) ;
#652 = ADVANCED_FACE ( 'NONE', ( #190 ), #627, .F. ) ;
#653 = CIRCLE ( 'NONE', #553, 1.000000000000000000 ) ;
#654 = FACE_OUTER_BOUND ( 'NONE', #348, .T. ) ;
#655 = AXIS2_PLACEMENT_3D ( 'NONE', #658, #15, #172 ) ;
#656 = EDGE_LOOP ( 'NONE', ( #38, #359, #690 ) ) ;
#657 = CARTESIAN_POINT ( 'NONE',  ( -28.68554073164614238, -19.30270741657488998, 1.000000000000000000 ) ) ;
#658 = CARTESIAN_POINT ( 'NONE',  ( 0.000000000000000000, 0.000000000000000000, 0.000000000000000000 ) ) ;
#659 = EDGE_LOOP ( 'NONE', ( #283, #269, #536, #257 ) ) ;
#660 = CARTESIAN_POINT ( 'NONE',  ( -28.68554073164614593, -18.30270741657488998, 6.000000000000000000 ) ) ;
#661 = CARTESIAN_POINT ( 'NONE',  ( 3.314459268353857180, 4.106907359273105197E-16, 7.000000000000000000 ) ) ;
#662 = ORIENTED_EDGE ( 'NONE', *, *, #675, .T. ) ;
#663 = CARTESIAN_POINT ( 'NONE',  ( 0.000000000000000000, 7.697292583425109136, 7.000000000000000000 ) ) ;
#664 = CIRCLE ( 'NONE', #254, 1.000000000000000000 ) ;
#665 = CIRCLE ( 'NONE', #326, 1.000000000000000000 ) ;
#666 = AXIS2_PLACEMENT_3D ( 'NONE', #698, #208, #545 ) ;
#667 = PRODUCT ( 'BottomCushion', 'BottomCushion', '', ( #501 ) ) ;
#668 = DIRECTION ( 'NONE',  ( -1.000000000000000000, 0.000000000000000000, -0.000000000000000000 ) ) ;
#669 = DIRECTION ( 'NONE',  ( 0.000000000000000000, 0.000000000000000000, 1.000000000000000000 ) ) ;
#670 = ADVANCED_FACE ( 'NONE', ( #250 ), #390, .T. ) ;
#671 = DATE_AND_TIME ( #301, #479 ) ;
#672 = EDGE_CURVE ( 'NONE', #213, #592, #287, .T. ) ;
#673 = CARTESIAN_POINT ( 'NONE',  ( 4.314459268353855848, 8.697292583425110024, 1.000000000000000000 ) ) ;
#674 = VERTEX_POINT ( 'NONE', #384 ) ;
#675 = EDGE_CURVE ( 'NONE', #310, #73, #343, .T. ) ;
#676 = CARTESIAN_POINT ( 'NONE',  ( 4.314459268353859400, -18.30270741657488998, 1.000000000000000000 ) ) ;
#677 = PERSON_AND_ORGANIZATION ( #288, #509 ) ;
#678 = DIRECTION ( 'NONE',  ( -1.000000000000000000, 0.000000000000000000, 0.000000000000000000 ) ) ;
#679 = CLOSED_SHELL ( 'NONE', ( #338, #445, #491, #652, #129, #95, #583, #207, #268, #366, #363, #346, #20, #4, #639, #238, #700, #431, #399, #438, #681, #42, #428, #670, #169, #312 ) ) ;
#680 = ORIENTED_EDGE ( 'NONE', *, *, #223, .T. ) ;
#681 = ADVANCED_FACE ( 'NONE', ( #603 ), #324, .T. ) ;
#682 = DIRECTION ( 'NONE',  ( 0.000000000000000000, 0.000000000000000000, 1.000000000000000000 ) ) ;
#683 = APPROVAL_ROLE ( '' ) ;
#684 = VECTOR ( 'NONE', #500, 1000.000000000000000 ) ;
#685 = AXIS2_PLACEMENT_3D ( 'NONE', #242, #462, #682 ) ;
#686 = DIRECTION ( 'NONE',  ( 1.000000000000000000, 0.000000000000000000, 0.000000000000000000 ) ) ;
#687 = DIRECTION ( 'NONE',  ( 0.000000000000000000, 0.000000000000000000, 1.000000000000000000 ) ) ;
#688 = DATE_AND_TIME ( #188, #442 ) ;
#689 = DIRECTION ( 'NONE',  ( -0.000000000000000000, 0.000000000000000000, 1.000000000000000000 ) ) ;
#690 = ORIENTED_EDGE ( 'NONE', *, *, #156, .F. ) ;
#691 = DIRECTION ( 'NONE',  ( 0.000000000000000000, 0.000000000000000000, 1.000000000000000000 ) ) ;
#692 = CARTESIAN_POINT ( 'NONE',  ( -28.68554073164614593, 8.697292583425110024, 7.000000000000000000 ) ) ;
#693 = ORIENTED_EDGE ( 'NONE', *, *, #596, .T. ) ;
#694 = CARTESIAN_POINT ( 'NONE',  ( 4.314459268353859400, -19.30270741657488998, 1.000000000000000000 ) ) ;
#695 = AXIS2_PLACEMENT_3D ( 'NONE', #64, #5, #70 ) ;
#696 = VECTOR ( 'NONE', #232, 1000.000000000000000 ) ;
#697 = ORIENTED_EDGE ( 'NONE', *, *, #61, .F. ) ;
#698 = CARTESIAN_POINT ( 'NONE',  ( 0.000000000000000000, -18.30270741657488998, 6.000000000000000000 ) ) ;
#699 = ORIENTED_EDGE ( 'NONE', *, *, #150, .T. ) ;
#700 = ADVANCED_FACE ( 'NONE', ( #227 ), #319, .T. ) ;
#701 = EDGE_LOOP ( 'NONE', ( #229, #217, #697, #222 ) ) ;
#702 = VERTEX_POINT ( 'NONE', #267 ) ;
#703 = VECTOR ( 'NONE', #429, 1000.000000000000000 ) ;
#704 = ORIENTED_EDGE ( 'NONE', *, *, #672, .T. ) ;
#705 = APPROVAL_PERSON_ORGANIZATION ( #193, #284, #683 ) ;
ENDSEC;
END-ISO-10303-21;
