ISO-10303-21;
HEADER;
FILE_DESCRIPTION (( 'STEP AP203' ),
    '1' );
FILE_NAME ('Door.step',
    '2026-09-07T17:35:22',
    ( '' ),
    ( '' ),
    'SwSTEP 2.0',
    'SolidWorks 2026',
    '' );
FILE_SCHEMA (( 'CONFIG_CONTROL_DESIGN' ));
ENDSEC;

DATA;
#1 = APPROVAL_ROLE ( '' ) ;
#2 = ADVANCED_FACE ( 'NONE', ( #100 ), #278, .F. ) ;
#3 = CARTESIAN_POINT ( 'NONE',  ( 0.4142135623730978100, -23.58578643762690064, 2.999999999999999556 ) ) ;
#4 = EDGE_CURVE ( 'NONE', #198, #307, #281, .T. ) ;
#5 = PERSON_AND_ORGANIZATION ( #467, #85 ) ;
#6 = EDGE_CURVE ( 'NONE', #285, #84, #248, .T. ) ;
#7 =( BOUNDED_CURVE ( )  B_SPLINE_CURVE ( 3, ( #87, #154, #238, #344 ),
 .UNSPECIFIED., .F., .T. ) 
 B_SPLINE_CURVE_WITH_KNOTS ( ( 4, 4 ),
 ( 1.570796326794896558, 3.141592653589793116 ),
 .UNSPECIFIED. ) 
 CURVE ( )  GEOMETRIC_REPRESENTATION_ITEM ( )  RATIONAL_B_SPLINE_CURVE ( ( 1.000000000000000000, 0.8047378541243649375, 0.8047378541243649375, 1.000000000000000000 ) ) 
 REPRESENTATION_ITEM ( '' )  );
#8 = PLANE ( 'NONE',  #31 ) ;
#9 = ORIENTED_EDGE ( 'NONE', *, *, #171, .F. ) ;
#10 = CC_DESIGN_APPROVAL ( #231, ( #313 ) ) ;
#11 = VECTOR ( 'NONE', #262, 1000.000000000000000 ) ;
#12 = CARTESIAN_POINT ( 'NONE',  ( 19.35000000000000497, -24.00000000000000000, 2.000000000000000000 ) ) ;
#13 = PERSON_AND_ORGANIZATION ( #467, #85 ) ;
#14 = CARTESIAN_POINT ( 'NONE',  ( -7.151684150059480926E-17, -1.000000000000000000, 2.000000000000000000 ) ) ;
#15 = EDGE_LOOP ( 'NONE', ( #161, #304, #53, #254 ) ) ;
#16 = CARTESIAN_POINT ( 'NONE',  ( 3.000000000000002665, -2.999999999999999556, 3.000000000000000000 ) ) ;
#17 = ORIENTED_EDGE ( 'NONE', *, *, #98, .F. ) ;
#18 = LOCAL_TIME ( 18, 35, 22.00000000000000000, #149 ) ;
#19 = CARTESIAN_POINT ( 'NONE',  ( 1.000000000000002887, -23.00000000000000000, 3.000000000000000000 ) ) ;
#20 = EDGE_LOOP ( 'NONE', ( #403, #22, #430, #461 ) ) ;
#21 = FACE_OUTER_BOUND ( 'NONE', #409, .T. ) ;
#22 = ORIENTED_EDGE ( 'NONE', *, *, #233, .F. ) ;
#23 = CARTESIAN_POINT ( 'NONE',  ( 1.000000000000000222, -1.000000000000000000, 3.000000000000000000 ) ) ;
#24 = DIRECTION ( 'NONE',  ( 1.445602896647339163E-16, -1.000000000000000000, 0.000000000000000000 ) ) ;
#25 = DIRECTION ( 'NONE',  ( -0.000000000000000000, -0.000000000000000000, -1.000000000000000000 ) ) ;
#26 = CARTESIAN_POINT ( 'NONE',  ( 2.939152317953647894E-15, -24.00000000000000000, 3.000000000000000000 ) ) ;
#27 = VERTEX_POINT ( 'NONE', #167 ) ;
#28 = CARTESIAN_POINT ( 'NONE',  ( 0.000000000000000000, -23.00000000000000000, 2.000000000000000000 ) ) ;
#29 = CARTESIAN_POINT ( 'NONE',  ( 16.35000000000000497, -3.000000000000000000, 0.000000000000000000 ) ) ;
#30 = CC_DESIGN_PERSON_AND_ORGANIZATION_ASSIGNMENT ( #5, #186, ( #441 ) ) ;
#31 = AXIS2_PLACEMENT_3D ( 'NONE', #214, #146, #105 ) ;
#32 = LINE ( 'NONE', #164, #433 ) ;
#33 = EDGE_CURVE ( 'NONE', #155, #328, #32, .T. ) ;
#34 = CARTESIAN_POINT ( 'NONE',  ( 16.35000000000000497, -20.99999999999999289, 3.000000000000000000 ) ) ;
#35 = CARTESIAN_POINT ( 'NONE',  ( -7.151684150059480926E-17, -1.000000000000000000, 3.000000000000000000 ) ) ;
#36 = LINE ( 'NONE', #322, #341 ) ;
#37 = CARTESIAN_POINT ( 'NONE',  ( 0.000000000000000000, 0.000000000000000000, 3.000000000000000000 ) ) ;
#38 = FACE_OUTER_BOUND ( 'NONE', #348, .T. ) ;
#39 = CALENDAR_DATE ( 2026, 7, 9 ) ;
#40 = LINE ( 'NONE', #143, #471 ) ;
#41 = CARTESIAN_POINT ( 'NONE',  ( 2.939152317953647894E-15, -24.00000000000000000, 0.000000000000000000 ) ) ;
#42 = ORIENTED_EDGE ( 'NONE', *, *, #405, .F. ) ;
#43 = AXIS2_PLACEMENT_3D ( 'NONE', #416, #116, #199 ) ;
#44 = DATE_TIME_ROLE ( 'creation_date' ) ;
#45 = FACE_OUTER_BOUND ( 'NONE', #122, .T. ) ;
#46 = DATE_AND_TIME ( #334, #339 ) ;
#47 = PLANE ( 'NONE',  #99 ) ;
#48 = CARTESIAN_POINT ( 'NONE',  ( 3.000000000000002665, -2.999999999999999556, 3.000000000000000000 ) ) ;
#49 = ORIENTED_EDGE ( 'NONE', *, *, #180, .T. ) ;
#50 = LINE ( 'NONE', #119, #256 ) ;
#51 = ADVANCED_FACE ( 'NONE', ( #136 ), #427, .F. ) ;
#52 = AXIS2_PLACEMENT_3D ( 'NONE', #131, #253, #432 ) ;
#53 = ORIENTED_EDGE ( 'NONE', *, *, #290, .T. ) ;
#54 = LINE ( 'NONE', #347, #386 ) ;
#55 = AXIS2_PLACEMENT_3D ( 'NONE', #263, #449, #408 ) ;
#56 = FACE_OUTER_BOUND ( 'NONE', #270, .T. ) ;
#57 = CARTESIAN_POINT ( 'NONE',  ( 0.000000000000000000, 0.000000000000000000, 3.000000000000000000 ) ) ;
#58 = VECTOR ( 'NONE', #25, 1000.000000000000000 ) ;
#59 = PERSON_AND_ORGANIZATION_ROLE ( 'design_owner' ) ;
#60 = DIRECTION ( 'NONE',  ( -0.000000000000000000, -0.000000000000000000, -1.000000000000000000 ) ) ;
#61 = APPROVAL ( #179, 'UNSPECIFIED' ) ;
#62 = CARTESIAN_POINT ( 'NONE',  ( 2.939152317953647894E-15, -24.00000000000000000, 2.000000000000000000 ) ) ;
#63 = EDGE_CURVE ( 'NONE', #198, #191, #389, .T. ) ;
#64 = ORIENTED_EDGE ( 'NONE', *, *, #237, .T. ) ;
#65 = DIRECTION ( 'NONE',  ( 0.000000000000000000, 0.000000000000000000, 1.000000000000000000 ) ) ;
#66 = VECTOR ( 'NONE', #381, 1000.000000000000000 ) ;
#67 = CARTESIAN_POINT ( 'NONE',  ( 19.35000000000000142, -1.383850883036509659E-15, 3.000000000000000000 ) ) ;
#68 = LINE ( 'NONE', #346, #58 ) ;
#69 = CARTESIAN_POINT ( 'NONE',  ( 3.000000000000002665, -2.999999999999999556, 0.000000000000000000 ) ) ;
#70 = CARTESIAN_POINT ( 'NONE',  ( 1.000000000000003109, -24.00000000000000000, 3.000000000000000000 ) ) ;
#71 = CC_DESIGN_SECURITY_CLASSIFICATION ( #378, ( #441 ) ) ;
#72 = CARTESIAN_POINT ( 'NONE',  ( 0.000000000000000000, 0.000000000000000000, 0.000000000000000000 ) ) ;
#73 = VERTEX_POINT ( 'NONE', #431 ) ;
#74 = LINE ( 'NONE', #35, #236 ) ;
#75 = ORIENTED_EDGE ( 'NONE', *, *, #182, .T. ) ;
#76 = CARTESIAN_POINT ( 'NONE',  ( 16.35000000000000497, -3.000000000000000000, 3.000000000000000000 ) ) ;
#77 = ADVANCED_BREP_SHAPE_REPRESENTATION ( 'Door', ( #318, #211 ), #175 ) ;
#78 = CARTESIAN_POINT ( 'NONE',  ( 0.000000000000000000, 0.000000000000000000, 2.000000000000000000 ) ) ;
#79 = ORIENTED_EDGE ( 'NONE', *, *, #209, .F. ) ;
#80 = DIRECTION ( 'NONE',  ( 1.000000000000000000, 0.000000000000000000, 0.000000000000000000 ) ) ;
#81 = ORIENTED_EDGE ( 'NONE', *, *, #454, .T. ) ;
#82 = EDGE_CURVE ( 'NONE', #250, #158, #317, .T. ) ;
#83 = DIRECTION ( 'NONE',  ( 1.000000000000000000, 1.445602896647338670E-16, 0.000000000000000000 ) ) ;
#84 = VERTEX_POINT ( 'NONE', #208 ) ;
#85 = ORGANIZATION ( 'UNSPECIFIED', 'UNSPECIFIED', '' ) ;
#86 = VECTOR ( 'NONE', #365, 1000.000000000000000 ) ;
#87 = CARTESIAN_POINT ( 'NONE',  ( 18.35000000000000497, -23.00000000000000000, 3.000000000000000000 ) ) ;
#88 = DATE_AND_TIME ( #141, #218 ) ;
#89 = ORIENTED_EDGE ( 'NONE', *, *, #4, .F. ) ;
#90 = MECHANICAL_CONTEXT ( 'NONE', #189, 'mechanical' ) ;
#91 = CARTESIAN_POINT ( 'NONE',  ( 18.93578643762690561, -0.4142135623730964222, 3.000000000000000000 ) ) ;
#92 = LOCAL_TIME ( 18, 35, 22.00000000000000000, #373 ) ;
#93 = VECTOR ( 'NONE', #443, 1000.000000000000000 ) ;
#94 = CARTESIAN_POINT ( 'NONE',  ( 0.000000000000000000, 0.000000000000000000, 0.000000000000000000 ) ) ;
#95 = LINE ( 'NONE', #308, #264 ) ;
#96 = EDGE_CURVE ( 'NONE', #185, #328, #68, .T. ) ;
#97 = CARTESIAN_POINT ( 'NONE',  ( 18.35000000000000142, -1.000000000000001332, 3.000000000000000000 ) ) ;
#98 = EDGE_CURVE ( 'NONE', #200, #158, #282, .T. ) ;
#99 = AXIS2_PLACEMENT_3D ( 'NONE', #371, #337, #80 ) ;
#100 = FACE_OUTER_BOUND ( 'NONE', #188, .T. ) ;
#101 = DIRECTION ( 'NONE',  ( 1.224646799147353207E-16, -1.000000000000000000, 0.000000000000000000 ) ) ;
#102 = DIRECTION ( 'NONE',  ( 1.224646799147353207E-16, -1.000000000000000000, 0.000000000000000000 ) ) ;
#103 = ORIENTED_EDGE ( 'NONE', *, *, #405, .T. ) ;
#104 = DATE_AND_TIME ( #404, #18 ) ;
#105 = DIRECTION ( 'NONE',  ( 0.000000000000000000, -0.000000000000000000, -1.000000000000000000 ) ) ;
#106 = PERSON_AND_ORGANIZATION ( #467, #85 ) ;
#107 = ADVANCED_FACE ( 'NONE', ( #315 ), #466, .F. ) ;
#108 = CARTESIAN_POINT ( 'NONE',  ( 16.35000000000000497, -3.000000000000000000, 0.000000000000000000 ) ) ;
#109 = EDGE_LOOP ( 'NONE', ( #453, #140, #232, #49 ) ) ;
#110 = CARTESIAN_POINT ( 'NONE',  ( 0.000000000000000000, 0.000000000000000000, 2.000000000000000000 ) ) ;
#111 = APPROVAL_ROLE ( '' ) ;
#112 = CARTESIAN_POINT ( 'NONE',  ( 18.35000000000000142, -1.000000000000001332, 3.000000000000000000 ) ) ;
#113 = ORIENTED_EDGE ( 'NONE', *, *, #144, .F. ) ;
#114 = AXIS2_PLACEMENT_3D ( 'NONE', #28, #464, #391 ) ;
#115 = APPROVAL_STATUS ( 'not_yet_approved' ) ;
#116 = DIRECTION ( 'NONE',  ( -0.000000000000000000, 0.000000000000000000, 1.000000000000000000 ) ) ;
#117 = EDGE_LOOP ( 'NONE', ( #275, #277, #336, #377 ) ) ;
#118 = EDGE_CURVE ( 'NONE', #307, #319, #74, .T. ) ;
#119 = CARTESIAN_POINT ( 'NONE',  ( 16.35000000000000497, -20.99999999999999289, 0.000000000000000000 ) ) ;
#120 = ORIENTED_EDGE ( 'NONE', *, *, #63, .F. ) ;
#121 = DIRECTION ( 'NONE',  ( 1.000000000000000000, 1.445602896647339163E-16, -0.000000000000000000 ) ) ;
#122 = EDGE_LOOP ( 'NONE', ( #120, #417, #434, #338 ) ) ;
#123 = APPROVAL_PERSON_ORGANIZATION ( #13, #413, #111 ) ;
#124 = VECTOR ( 'NONE', #436, 1000.000000000000000 ) ;
#125 = FACE_BOUND ( 'NONE', #210, .T. ) ;
#126 = ORIENTED_EDGE ( 'NONE', *, *, #457, .T. ) ;
#127 = ORIENTED_EDGE ( 'NONE', *, *, #33, .T. ) ;
#128 =( LENGTH_UNIT ( ) NAMED_UNIT ( * ) SI_UNIT ( .MILLI., .METRE. ) );
#129 = ORIENTED_EDGE ( 'NONE', *, *, #283, .F. ) ;
#130 = DIRECTION ( 'NONE',  ( -1.224646799147353207E-16, 1.000000000000000000, 0.000000000000000000 ) ) ;
#131 = CARTESIAN_POINT ( 'NONE',  ( 2.939152317953647894E-15, -24.00000000000000000, 3.000000000000000000 ) ) ;
#132 = EDGE_CURVE ( 'NONE', #191, #84, #472, .T. ) ;
#133 = ADVANCED_FACE ( 'NONE', ( #400 ), #183, .F. ) ;
#134 = LINE ( 'NONE', #361, #225 ) ;
#135 = ORIENTED_EDGE ( 'NONE', *, *, #382, .F. ) ;
#136 = FACE_OUTER_BOUND ( 'NONE', #117, .T. ) ;
#137 = VECTOR ( 'NONE', #230, 1000.000000000000000 ) ;
#138 = DIRECTION ( 'NONE',  ( -1.000000000000000000, 7.151684150059480926E-17, -0.000000000000000000 ) ) ;
#139 = CARTESIAN_POINT ( 'NONE',  ( 16.35000000000000497, -20.99999999999999289, 3.000000000000000000 ) ) ;
#140 = ORIENTED_EDGE ( 'NONE', *, *, #197, .T. ) ;
#141 = CALENDAR_DATE ( 2026, 7, 9 ) ;
#142 = CC_DESIGN_DATE_AND_TIME_ASSIGNMENT ( #295, #44, ( #313 ) ) ;
#143 = CARTESIAN_POINT ( 'NONE',  ( 19.35000000000000142, -1.383850883036509659E-15, 2.000000000000000000 ) ) ;
#144 = EDGE_CURVE ( 'NONE', #285, #198, #40, .T. ) ;
#145 = DATE_TIME_ROLE ( 'classification_date' ) ;
#146 = DIRECTION ( 'NONE',  ( 0.000000000000000000, -1.000000000000000000, 0.000000000000000000 ) ) ;
#147 = ADVANCED_FACE ( 'NONE', ( #439 ), #8, .F. ) ;
#148 = DIRECTION ( 'NONE',  ( 0.000000000000000000, 1.000000000000000000, 0.000000000000000000 ) ) ;
#149 = COORDINATED_UNIVERSAL_TIME_OFFSET ( 0, 0, .AHEAD. ) ;
#150 = DIRECTION ( 'NONE',  ( -1.000000000000000000, 0.000000000000000000, 0.000000000000000000 ) ) ;
#151 = ORIENTED_EDGE ( 'NONE', *, *, #182, .F. ) ;
#152 = PLANE ( 'NONE',  #423 ) ;
#153 = CC_DESIGN_APPROVAL ( #61, ( #441 ) ) ;
#154 = CARTESIAN_POINT ( 'NONE',  ( 18.93578643762690916, -23.58578643762689708, 3.000000000000000000 ) ) ;
#155 = VERTEX_POINT ( 'NONE', #41 ) ;
#156 = CC_DESIGN_DATE_AND_TIME_ASSIGNMENT ( #46, #145, ( #378 ) ) ;
#157 = PLANE ( 'NONE',  #332 ) ;
#158 = VERTEX_POINT ( 'NONE', #358 ) ;
#159 = EDGE_CURVE ( 'NONE', #198, #185, #291, .T. ) ;
#160 = FACE_OUTER_BOUND ( 'NONE', #226, .T. ) ;
#161 = ORIENTED_EDGE ( 'NONE', *, *, #169, .T. ) ;
#162 =( BOUNDED_CURVE ( )  B_SPLINE_CURVE ( 3, ( #228, #190, #306, #23 ),
 .UNSPECIFIED., .F., .F. ) 
 B_SPLINE_CURVE_WITH_KNOTS ( ( 4, 4 ),
 ( 3.141592653589793116, 4.712388980384689674 ),
 .UNSPECIFIED. ) 
 CURVE ( )  GEOMETRIC_REPRESENTATION_ITEM ( )  RATIONAL_B_SPLINE_CURVE ( ( 1.000000000000000000, 0.8047378541243649375, 0.8047378541243649375, 1.000000000000000000 ) ) 
 REPRESENTATION_ITEM ( '' )  );
#163 = CYLINDRICAL_SURFACE ( 'NONE', #114, 1.000000000000000000 ) ;
#164 = CARTESIAN_POINT ( 'NONE',  ( 2.939152317953647894E-15, -24.00000000000000000, 0.000000000000000000 ) ) ;
#165 = VECTOR ( 'NONE', #395, 1000.000000000000000 ) ;
#166 = DIRECTION ( 'NONE',  ( 1.000000000000000000, -7.151684150059480926E-17, 0.000000000000000000 ) ) ;
#167 = CARTESIAN_POINT ( 'NONE',  ( 3.000000000000002665, -20.99999999999999289, 3.000000000000000000 ) ) ;
#168 = LINE ( 'NONE', #26, #321 ) ;
#169 = EDGE_CURVE ( 'NONE', #250, #27, #445, .T. ) ;
#170 = DIRECTION ( 'NONE',  ( 0.000000000000000000, -1.000000000000000000, 0.000000000000000000 ) ) ;
#171 = EDGE_CURVE ( 'NONE', #372, #383, #428, .T. ) ;
#172 = DIRECTION ( 'NONE',  ( -7.151684150059480926E-17, -1.000000000000000000, 0.000000000000000000 ) ) ;
#173 = DIRECTION ( 'NONE',  ( -0.000000000000000000, -0.000000000000000000, -1.000000000000000000 ) ) ;
#174 = LINE ( 'NONE', #69, #86 ) ;
#175 =( GEOMETRIC_REPRESENTATION_CONTEXT ( 3 ) GLOBAL_UNCERTAINTY_ASSIGNED_CONTEXT ( ( #312 ) ) GLOBAL_UNIT_ASSIGNED_CONTEXT ( ( #128, #352, #276 ) ) REPRESENTATION_CONTEXT ( 'NONE', 'WORKASPACE' ) );
#176 = LINE ( 'NONE', #216, #273 ) ;
#177 = DIRECTION ( 'NONE',  ( 1.000000000000000000, 1.224646799147353207E-16, -0.000000000000000000 ) ) ;
#178 = DIRECTION ( 'NONE',  ( 1.445602896647339163E-16, -1.000000000000000000, 0.000000000000000000 ) ) ;
#179 = APPROVAL_STATUS ( 'not_yet_approved' ) ;
#180 = EDGE_CURVE ( 'NONE', #84, #155, #220, .T. ) ;
#181 = CARTESIAN_POINT ( 'NONE',  ( 19.35000000000000142, -1.383850883036509659E-15, 0.000000000000000000 ) ) ;
#182 = EDGE_CURVE ( 'NONE', #245, #200, #174, .T. ) ;
#183 = PLANE ( 'NONE',  #465 ) ;
#184 = VECTOR ( 'NONE', #101, 1000.000000000000000 ) ;
#185 = VERTEX_POINT ( 'NONE', #12 ) ;
#186 = PERSON_AND_ORGANIZATION_ROLE ( 'design_supplier' ) ;
#187 = CARTESIAN_POINT ( 'NONE',  ( 2.939152317953647894E-15, -24.00000000000000000, 2.000000000000000000 ) ) ;
#188 = EDGE_LOOP ( 'NONE', ( #75, #351, #399, #229 ) ) ;
#189 = APPLICATION_CONTEXT ( 'configuration controlled 3d designs of mechanical parts and assemblies' ) ;
#190 = CARTESIAN_POINT ( 'NONE',  ( -7.173814858237199660E-17, 7.173814858237199660E-17, 2.585786437626905077 ) ) ;
#191 = VERTEX_POINT ( 'NONE', #294 ) ;
#192 = CARTESIAN_POINT ( 'NONE',  ( 3.000000000000002665, -20.99999999999999289, 0.000000000000000000 ) ) ;
#193 = ORIENTED_EDGE ( 'NONE', *, *, #221, .T. ) ;
#194 = VECTOR ( 'NONE', #178, 1000.000000000000000 ) ;
#195 = CARTESIAN_POINT ( 'NONE',  ( 1.000000000000000222, -1.000000000000000000, 3.000000000000000000 ) ) ;
#196 = AXIS2_PLACEMENT_3D ( 'NONE', #67, #172, #212 ) ;
#197 = EDGE_CURVE ( 'NONE', #383, #285, #297, .T. ) ;
#198 = VERTEX_POINT ( 'NONE', #320 ) ;
#199 = DIRECTION ( 'NONE',  ( 1.000000000000000000, 0.000000000000000000, 0.000000000000000000 ) ) ;
#200 = VERTEX_POINT ( 'NONE', #108 ) ;
#201 = DIRECTION ( 'NONE',  ( 7.151684150059480926E-17, 1.000000000000000000, 0.000000000000000000 ) ) ;
#202 = EDGE_LOOP ( 'NONE', ( #240, #287, #79, #268 ) ) ;
#203 = AXIS2_PLACEMENT_3D ( 'NONE', #37, #177, #130 ) ;
#204 = LINE ( 'NONE', #62, #370 ) ;
#205 = CARTESIAN_POINT ( 'NONE',  ( 19.35000000000000142, -1.383850883036509659E-15, 3.000000000000000000 ) ) ;
#206 = DESIGN_CONTEXT ( 'detailed design', #215, 'design' ) ;
#207 = PERSON_AND_ORGANIZATION ( #467, #85 ) ;
#208 = CARTESIAN_POINT ( 'NONE',  ( 0.000000000000000000, 0.000000000000000000, 0.000000000000000000 ) ) ;
#209 = EDGE_CURVE ( 'NONE', #27, #300, #176, .T. ) ;
#210 = EDGE_LOOP ( 'NONE', ( #242, #129, #17, #151 ) ) ;
#211 = AXIS2_PLACEMENT_3D ( 'NONE', #94, #65, #241 ) ;
#212 = DIRECTION ( 'NONE',  ( 1.000000000000000000, -7.151684150059480926E-17, 0.000000000000000000 ) ) ;
#213 = CLOSED_SHELL ( 'NONE', ( #356, #51, #425, #107, #376, #353, #147, #133, #2, #286, #329, #390, #415, #255 ) ) ;
#214 = CARTESIAN_POINT ( 'NONE',  ( 16.35000000000000497, -20.99999999999999289, 3.000000000000000000 ) ) ;
#215 = APPLICATION_CONTEXT ( 'configuration controlled 3d designs of mechanical parts and assemblies' ) ;
#216 = CARTESIAN_POINT ( 'NONE',  ( 3.000000000000002665, -20.99999999999999289, 3.000000000000000000 ) ) ;
#217 = APPROVAL_STATUS ( 'not_yet_approved' ) ;
#218 = LOCAL_TIME ( 18, 35, 22.00000000000000000, #419 ) ;
#219 = DIRECTION ( 'NONE',  ( -1.445602896647339163E-16, 1.000000000000000000, -0.000000000000000000 ) ) ;
#220 = LINE ( 'NONE', #72, #293 ) ;
#221 = EDGE_CURVE ( 'NONE', #319, #372, #261, .T. ) ;
#222 = PERSON_AND_ORGANIZATION_ROLE ( 'classification_officer' ) ;
#223 = LINE ( 'NONE', #359, #360 ) ;
#224 = DIRECTION ( 'NONE',  ( -0.000000000000000000, -0.000000000000000000, -1.000000000000000000 ) ) ;
#225 = VECTOR ( 'NONE', #426, 1000.000000000000000 ) ;
#226 = EDGE_LOOP ( 'NONE', ( #81, #64, #302, #193 ) ) ;
#227 = PERSON_AND_ORGANIZATION_ROLE ( 'creator' ) ;
#228 = CARTESIAN_POINT ( 'NONE',  ( 0.000000000000000000, 0.000000000000000000, 2.000000000000000000 ) ) ;
#229 = ORIENTED_EDGE ( 'NONE', *, *, #257, .T. ) ;
#230 = DIRECTION ( 'NONE',  ( 0.000000000000000000, -1.000000000000000000, 0.000000000000000000 ) ) ;
#231 = APPROVAL ( #217, 'UNSPECIFIED' ) ;
#232 = ORIENTED_EDGE ( 'NONE', *, *, #6, .T. ) ;
#233 = EDGE_CURVE ( 'NONE', #27, #414, #223, .T. ) ;
#234 = CARTESIAN_POINT ( 'NONE',  ( 3.000000000000002665, -20.99999999999999289, 3.000000000000000000 ) ) ;
#235 = ORIENTED_EDGE ( 'NONE', *, *, #180, .F. ) ;
#236 = VECTOR ( 'NONE', #138, 1000.000000000000000 ) ;
#237 = EDGE_CURVE ( 'NONE', #73, #307, #36, .T. ) ;
#238 = CARTESIAN_POINT ( 'NONE',  ( 19.35000000000000497, -24.00000000000000000, 2.585786437626905077 ) ) ;
#239 = ORIENTED_EDGE ( 'NONE', *, *, #171, .T. ) ;
#240 = ORIENTED_EDGE ( 'NONE', *, *, #296, .T. ) ;
#241 = DIRECTION ( 'NONE',  ( 1.000000000000000000, 0.000000000000000000, 0.000000000000000000 ) ) ;
#242 = ORIENTED_EDGE ( 'NONE', *, *, #296, .F. ) ;
#243 = DIRECTION ( 'NONE',  ( 1.000000000000000000, 0.000000000000000000, 0.000000000000000000 ) ) ;
#244 = FACE_OUTER_BOUND ( 'NONE', #109, .T. ) ;
#245 = VERTEX_POINT ( 'NONE', #407 ) ;
#246 = CC_DESIGN_PERSON_AND_ORGANIZATION_ASSIGNMENT ( #298, #227, ( #441 ) ) ;
#247 = DIRECTION ( 'NONE',  ( 1.000000000000000000, -0.000000000000000000, 0.000000000000000000 ) ) ;
#248 = LINE ( 'NONE', #57, #165 ) ;
#249 = APPROVAL_PERSON_ORGANIZATION ( #323, #231, #1 ) ;
#250 = VERTEX_POINT ( 'NONE', #139 ) ;
#251 = DIRECTION ( 'NONE',  ( 1.000000000000000000, 0.000000000000000000, -0.000000000000000000 ) ) ;
#252 = ORIENTED_EDGE ( 'NONE', *, *, #118, .F. ) ;
#253 = DIRECTION ( 'NONE',  ( 0.000000000000000000, 1.000000000000000000, 0.000000000000000000 ) ) ;
#254 = ORIENTED_EDGE ( 'NONE', *, *, #382, .T. ) ;
#255 = ADVANCED_FACE ( 'NONE', ( #38 ), #289, .T. ) ;
#256 = VECTOR ( 'NONE', #150, 1000.000000000000000 ) ;
#257 = EDGE_CURVE ( 'NONE', #300, #245, #299, .T. ) ;
#258 = CARTESIAN_POINT ( 'NONE',  ( 16.35000000000000497, -20.99999999999999289, 3.000000000000000000 ) ) ;
#259 = DATE_AND_TIME ( #292, #331 ) ;
#260 = VECTOR ( 'NONE', #173, 1000.000000000000000 ) ;
#261 = LINE ( 'NONE', #70, #184 ) ;
#262 = DIRECTION ( 'NONE',  ( -1.000000000000000000, 0.000000000000000000, 0.000000000000000000 ) ) ;
#263 = CARTESIAN_POINT ( 'NONE',  ( 1.000000000000000000, 1.224646799147353207E-16, 2.000000000000000000 ) ) ;
#264 = VECTOR ( 'NONE', #247, 1000.000000000000000 ) ;
#265 = ORIENTED_EDGE ( 'NONE', *, *, #132, .F. ) ;
#266 = SHAPE_DEFINITION_REPRESENTATION ( #305, #77 ) ;
#267 = FACE_BOUND ( 'NONE', #15, .T. ) ;
#268 = ORIENTED_EDGE ( 'NONE', *, *, #233, .T. ) ;
#269 = DIRECTION ( 'NONE',  ( 1.000000000000000000, -3.248545835162560333E-17, 0.000000000000000000 ) ) ;
#270 = EDGE_LOOP ( 'NONE', ( #239, #42, #448, #272 ) ) ;
#271 = FACE_OUTER_BOUND ( 'NONE', #202, .T. ) ;
#272 = ORIENTED_EDGE ( 'NONE', *, *, #454, .F. ) ;
#273 = VECTOR ( 'NONE', #148, 1000.000000000000000 ) ;
#274 = LINE ( 'NONE', #76, #137 ) ;
#275 = ORIENTED_EDGE ( 'NONE', *, *, #6, .F. ) ;
#276 =( NAMED_UNIT ( * ) SI_UNIT ( $, .STERADIAN. ) SOLID_ANGLE_UNIT ( ) );
#277 = ORIENTED_EDGE ( 'NONE', *, *, #144, .T. ) ;
#278 = PLANE ( 'NONE',  #473 ) ;
#279 = CC_DESIGN_APPROVAL ( #413, ( #378 ) ) ;
#280 = CARTESIAN_POINT ( 'NONE',  ( 3.000000000000002665, -20.99999999999999289, 0.000000000000000000 ) ) ;
#281 =( BOUNDED_CURVE ( )  B_SPLINE_CURVE ( 3, ( #309, #392, #91, #97 ),
 .UNSPECIFIED., .F., .F. ) 
 B_SPLINE_CURVE_WITH_KNOTS ( ( 4, 4 ),
 ( 0.000000000000000000, 1.570796326794896558 ),
 .UNSPECIFIED. ) 
 CURVE ( )  GEOMETRIC_REPRESENTATION_ITEM ( )  RATIONAL_B_SPLINE_CURVE ( ( 1.000000000000000000, 0.8047378541243649375, 0.8047378541243649375, 1.000000000000000000 ) ) 
 REPRESENTATION_ITEM ( '' )  );
#282 = LINE ( 'NONE', #29, #418 ) ;
#283 = EDGE_CURVE ( 'NONE', #158, #414, #50, .T. ) ;
#284 = CARTESIAN_POINT ( 'NONE',  ( 16.35000000000000497, -3.000000000000000000, 3.000000000000000000 ) ) ;
#285 = VERTEX_POINT ( 'NONE', #78 ) ;
#286 = ADVANCED_FACE ( 'NONE', ( #271 ), #152, .F. ) ;
#287 = ORIENTED_EDGE ( 'NONE', *, *, #257, .F. ) ;
#288 = CARTESIAN_POINT ( 'NONE',  ( 16.35000000000000497, -3.000000000000000000, 3.000000000000000000 ) ) ;
#289 = CYLINDRICAL_SURFACE ( 'NONE', #396, 1.000000000000000888 ) ;
#290 = EDGE_CURVE ( 'NONE', #300, #456, #447, .T. ) ;
#291 = LINE ( 'NONE', #398, #194 ) ;
#292 = CALENDAR_DATE ( 2026, 7, 9 ) ;
#293 = VECTOR ( 'NONE', #102, 1000.000000000000000 ) ;
#294 = CARTESIAN_POINT ( 'NONE',  ( 19.35000000000000142, -1.383850883036509659E-15, 0.000000000000000000 ) ) ;
#295 = DATE_AND_TIME ( #39, #92 ) ;
#296 = EDGE_CURVE ( 'NONE', #414, #245, #379, .T. ) ;
#297 = LINE ( 'NONE', #110, #93 ) ;
#298 = PERSON_AND_ORGANIZATION ( #467, #85 ) ;
#299 = LINE ( 'NONE', #16, #460 ) ;
#300 = VERTEX_POINT ( 'NONE', #48 ) ;
#301 = CYLINDRICAL_SURFACE ( 'NONE', #55, 1.000000000000000000 ) ;
#302 = ORIENTED_EDGE ( 'NONE', *, *, #118, .T. ) ;
#303 = FACE_OUTER_BOUND ( 'NONE', #469, .T. ) ;
#304 = ORIENTED_EDGE ( 'NONE', *, *, #209, .T. ) ;
#305 = PRODUCT_DEFINITION_SHAPE ( 'NONE', 'NONE',  #313 ) ;
#306 = CARTESIAN_POINT ( 'NONE',  ( 0.4142135623730949234, -0.4142135623730948124, 3.000000000000000000 ) ) ;
#307 = VERTEX_POINT ( 'NONE', #112 ) ;
#308 = CARTESIAN_POINT ( 'NONE',  ( 19.35000000000000497, -23.00000000000000000, 3.000000000000000000 ) ) ;
#309 = CARTESIAN_POINT ( 'NONE',  ( 19.35000000000000142, -1.383850883036509659E-15, 2.000000000000000000 ) ) ;
#310 = PLANE ( 'NONE',  #203 ) ;
#311 = EDGE_LOOP ( 'NONE', ( #333, #103, #422, #127 ) ) ;
#312 = UNCERTAINTY_MEASURE_WITH_UNIT (LENGTH_MEASURE( 1.000000000000000082E-05 ), #128, 'distance_accuracy_value', 'NONE');
#313 = PRODUCT_DEFINITION ( 'UNKNOWN', '', #441, #206 ) ;
#314 = DIRECTION ( 'NONE',  ( -1.000000000000000000, 0.000000000000000000, -0.000000000000000000 ) ) ;
#315 = FACE_OUTER_BOUND ( 'NONE', #311, .T. ) ;
#316 = PERSON_AND_ORGANIZATION ( #467, #85 ) ;
#317 = LINE ( 'NONE', #34, #260 ) ;
#318 = MANIFOLD_SOLID_BREP ( 'Fillet1', #213 ) ;
#319 = VERTEX_POINT ( 'NONE', #195 ) ;
#320 = CARTESIAN_POINT ( 'NONE',  ( 19.35000000000000142, -1.383850883036509659E-15, 2.000000000000000000 ) ) ;
#321 = VECTOR ( 'NONE', #421, 1000.000000000000000 ) ;
#322 = CARTESIAN_POINT ( 'NONE',  ( 18.35000000000000142, 2.652681315347867647E-15, 3.000000000000000000 ) ) ;
#323 = PERSON_AND_ORGANIZATION ( #467, #85 ) ;
#324 = CARTESIAN_POINT ( 'NONE',  ( 1.000000000000002887, -23.00000000000000000, 3.000000000000000000 ) ) ;
#325 = APPROVAL_DATE_TIME ( #259, #61 ) ;
#326 = CC_DESIGN_PERSON_AND_ORGANIZATION_ASSIGNMENT ( #316, #59, ( #452 ) ) ;
#327 = DIRECTION ( 'NONE',  ( -0.000000000000000000, 0.000000000000000000, -1.000000000000000000 ) ) ;
#328 = VERTEX_POINT ( 'NONE', #343 ) ;
#329 = ADVANCED_FACE ( 'NONE', ( #21 ), #301, .T. ) ;
#330 = APPROVAL_DATE_TIME ( #104, #413 ) ;
#331 = LOCAL_TIME ( 18, 35, 22.00000000000000000, #438 ) ;
#332 = AXIS2_PLACEMENT_3D ( 'NONE', #455, #121, #410 ) ;
#333 = ORIENTED_EDGE ( 'NONE', *, *, #96, .F. ) ;
#334 = CALENDAR_DATE ( 2026, 7, 9 ) ;
#335 = CYLINDRICAL_SURFACE ( 'NONE', #369, 1.000000000000000000 ) ;
#336 = ORIENTED_EDGE ( 'NONE', *, *, #63, .T. ) ;
#337 = DIRECTION ( 'NONE',  ( -0.000000000000000000, 0.000000000000000000, 1.000000000000000000 ) ) ;
#338 = ORIENTED_EDGE ( 'NONE', *, *, #440, .F. ) ;
#339 = LOCAL_TIME ( 18, 35, 22.00000000000000000, #368 ) ;
#340 = DIRECTION ( 'NONE',  ( 1.445602896647339163E-16, -1.000000000000000000, 0.000000000000000000 ) ) ;
#341 = VECTOR ( 'NONE', #219, 1000.000000000000000 ) ;
#342 = EDGE_LOOP ( 'NONE', ( #367, #450, #135, #126 ) ) ;
#343 = CARTESIAN_POINT ( 'NONE',  ( 19.35000000000000497, -24.00000000000000000, 0.000000000000000000 ) ) ;
#344 = CARTESIAN_POINT ( 'NONE',  ( 19.35000000000000497, -24.00000000000000000, 2.000000000000000000 ) ) ;
#345 = EDGE_CURVE ( 'NONE', #285, #319, #162, .T. ) ;
#346 = CARTESIAN_POINT ( 'NONE',  ( 19.35000000000000497, -24.00000000000000000, 3.000000000000000000 ) ) ;
#347 = CARTESIAN_POINT ( 'NONE',  ( 19.35000000000000142, -1.383850883036509659E-15, 0.000000000000000000 ) ) ;
#348 = EDGE_LOOP ( 'NONE', ( #420, #354, #397, #444 ) ) ;
#349 = CC_DESIGN_PERSON_AND_ORGANIZATION_ASSIGNMENT ( #106, #222, ( #378 ) ) ;
#350 = PERSON_AND_ORGANIZATION_ROLE ( 'creator' ) ;
#351 = ORIENTED_EDGE ( 'NONE', *, *, #457, .F. ) ;
#352 =( NAMED_UNIT ( * ) PLANE_ANGLE_UNIT ( ) SI_UNIT ( $, .RADIAN. ) );
#353 = ADVANCED_FACE ( 'NONE', ( #125, #303 ), #374, .F. ) ;
#354 = ORIENTED_EDGE ( 'NONE', *, *, #237, .F. ) ;
#355 = VECTOR ( 'NONE', #269, 1000.000000000000000 ) ;
#356 = ADVANCED_FACE ( 'NONE', ( #45 ), #157, .T. ) ;
#357 = DIRECTION ( 'NONE',  ( -1.000000000000000000, 3.248545835162559716E-17, 0.000000000000000000 ) ) ;
#358 = CARTESIAN_POINT ( 'NONE',  ( 16.35000000000000497, -20.99999999999999289, 0.000000000000000000 ) ) ;
#359 = CARTESIAN_POINT ( 'NONE',  ( 3.000000000000002665, -20.99999999999999289, 3.000000000000000000 ) ) ;
#360 = VECTOR ( 'NONE', #366, 1000.000000000000000 ) ;
#361 = CARTESIAN_POINT ( 'NONE',  ( 16.35000000000000497, -3.000000000000000000, 3.000000000000000000 ) ) ;
#362 = CARTESIAN_POINT ( 'NONE',  ( 18.35000000000000142, -1.528411172701243649E-15, 2.000000000000000000 ) ) ;
#363 = SECURITY_CLASSIFICATION_LEVEL ( 'unclassified' ) ;
#364 = EDGE_CURVE ( 'NONE', #73, #185, #7, .T. ) ;
#365 = DIRECTION ( 'NONE',  ( 1.000000000000000000, -3.248545835162560333E-17, 0.000000000000000000 ) ) ;
#366 = DIRECTION ( 'NONE',  ( -0.000000000000000000, -0.000000000000000000, -1.000000000000000000 ) ) ;
#367 = ORIENTED_EDGE ( 'NONE', *, *, #98, .T. ) ;
#368 = COORDINATED_UNIVERSAL_TIME_OFFSET ( 0, 0, .AHEAD. ) ;
#369 = AXIS2_PLACEMENT_3D ( 'NONE', #14, #166, #201 ) ;
#370 = VECTOR ( 'NONE', #314, 1000.000000000000000 ) ;
#371 = CARTESIAN_POINT ( 'NONE',  ( 0.000000000000000000, 0.000000000000000000, 3.000000000000000000 ) ) ;
#372 = VERTEX_POINT ( 'NONE', #19 ) ;
#373 = COORDINATED_UNIVERSAL_TIME_OFFSET ( 0, 0, .AHEAD. ) ;
#374 = PLANE ( 'NONE',  #43 ) ;
#375 = FACE_OUTER_BOUND ( 'NONE', #462, .T. ) ;
#376 = ADVANCED_FACE ( 'NONE', ( #160, #267 ), #47, .T. ) ;
#377 = ORIENTED_EDGE ( 'NONE', *, *, #132, .T. ) ;
#378 = SECURITY_CLASSIFICATION ( '', '', #363 ) ;
#379 = LINE ( 'NONE', #192, #66 ) ;
#380 = ORIENTED_EDGE ( 'NONE', *, *, #221, .F. ) ;
#381 = DIRECTION ( 'NONE',  ( 0.000000000000000000, 1.000000000000000000, 0.000000000000000000 ) ) ;
#382 = EDGE_CURVE ( 'NONE', #456, #250, #274, .T. ) ;
#383 = VERTEX_POINT ( 'NONE', #187 ) ;
#384 = APPROVAL_DATE_TIME ( #88, #231 ) ;
#385 = ORIENTED_EDGE ( 'NONE', *, *, #197, .F. ) ;
#386 = VECTOR ( 'NONE', #24, 1000.000000000000000 ) ;
#387 = CARTESIAN_POINT ( 'NONE',  ( 3.000000000000002665, -2.999999999999999556, 3.000000000000000000 ) ) ;
#388 = VECTOR ( 'NONE', #60, 1000.000000000000000 ) ;
#389 = LINE ( 'NONE', #205, #388 ) ;
#390 = ADVANCED_FACE ( 'NONE', ( #375 ), #335, .T. ) ;
#391 = DIRECTION ( 'NONE',  ( 0.000000000000000000, 0.000000000000000000, 1.000000000000000000 ) ) ;
#392 = CARTESIAN_POINT ( 'NONE',  ( 19.35000000000000142, -1.517883041479706208E-15, 2.585786437626905077 ) ) ;
#393 = EDGE_CURVE ( 'NONE', #383, #155, #168, .T. ) ;
#394 = APPLICATION_PROTOCOL_DEFINITION ( 'international standard', 'config_control_design', 1994, #215 ) ;
#395 = DIRECTION ( 'NONE',  ( -0.000000000000000000, -0.000000000000000000, -1.000000000000000000 ) ) ;
#396 = AXIS2_PLACEMENT_3D ( 'NONE', #362, #340, #83 ) ;
#397 = ORIENTED_EDGE ( 'NONE', *, *, #364, .T. ) ;
#398 = CARTESIAN_POINT ( 'NONE',  ( 19.35000000000000142, -1.383850883036509659E-15, 2.000000000000000000 ) ) ;
#399 = ORIENTED_EDGE ( 'NONE', *, *, #290, .F. ) ;
#400 = FACE_OUTER_BOUND ( 'NONE', #342, .T. ) ;
#401 = PRODUCT_RELATED_PRODUCT_CATEGORY ( 'detail', '', ( #452 ) ) ;
#402 = CARTESIAN_POINT ( 'NONE',  ( 3.107504231541784202E-15, -23.99999999999999645, 2.585786437626904632 ) ) ;
#403 = ORIENTED_EDGE ( 'NONE', *, *, #283, .T. ) ;
#404 = CALENDAR_DATE ( 2026, 7, 9 ) ;
#405 = EDGE_CURVE ( 'NONE', #185, #383, #204, .T. ) ;
#406 = CARTESIAN_POINT ( 'NONE',  ( 2.939152317953647894E-15, -24.00000000000000000, 2.000000000000000000 ) ) ;
#407 = CARTESIAN_POINT ( 'NONE',  ( 3.000000000000002665, -2.999999999999999556, 0.000000000000000000 ) ) ;
#408 = DIRECTION ( 'NONE',  ( -1.000000000000000000, -1.224646799147353207E-16, 0.000000000000000000 ) ) ;
#409 = EDGE_LOOP ( 'NONE', ( #9, #380, #468, #385 ) ) ;
#410 = DIRECTION ( 'NONE',  ( -1.445602896647339163E-16, 1.000000000000000000, 0.000000000000000000 ) ) ;
#411 = ORIENTED_EDGE ( 'NONE', *, *, #345, .T. ) ;
#412 = DIRECTION ( 'NONE',  ( 0.000000000000000000, 0.000000000000000000, 1.000000000000000000 ) ) ;
#413 = APPROVAL ( #115, 'UNSPECIFIED' ) ;
#414 = VERTEX_POINT ( 'NONE', #280 ) ;
#415 = ADVANCED_FACE ( 'NONE', ( #56 ), #163, .T. ) ;
#416 = CARTESIAN_POINT ( 'NONE',  ( 0.000000000000000000, 0.000000000000000000, 0.000000000000000000 ) ) ;
#417 = ORIENTED_EDGE ( 'NONE', *, *, #159, .T. ) ;
#418 = VECTOR ( 'NONE', #170, 1000.000000000000000 ) ;
#419 = COORDINATED_UNIVERSAL_TIME_OFFSET ( 0, 0, .AHEAD. ) ;
#420 = ORIENTED_EDGE ( 'NONE', *, *, #4, .T. ) ;
#421 = DIRECTION ( 'NONE',  ( -0.000000000000000000, -0.000000000000000000, -1.000000000000000000 ) ) ;
#422 = ORIENTED_EDGE ( 'NONE', *, *, #393, .T. ) ;
#423 = AXIS2_PLACEMENT_3D ( 'NONE', #234, #451, #412 ) ;
#424 = DIRECTION ( 'NONE',  ( 3.248545835162559716E-17, 1.000000000000000000, -0.000000000000000000 ) ) ;
#425 = ADVANCED_FACE ( 'NONE', ( #244 ), #310, .F. ) ;
#426 = DIRECTION ( 'NONE',  ( -0.000000000000000000, -0.000000000000000000, -1.000000000000000000 ) ) ;
#427 = PLANE ( 'NONE',  #196 ) ;
#428 =( BOUNDED_CURVE ( )  B_SPLINE_CURVE ( 3, ( #324, #3, #402, #406 ),
 .UNSPECIFIED., .F., .F. ) 
 B_SPLINE_CURVE_WITH_KNOTS ( ( 4, 4 ),
 ( 1.570796326794896780, 3.141592653589793116 ),
 .UNSPECIFIED. ) 
 CURVE ( )  GEOMETRIC_REPRESENTATION_ITEM ( )  RATIONAL_B_SPLINE_CURVE ( ( 1.000000000000000000, 0.8047378541243650485, 0.8047378541243650485, 1.000000000000000000 ) ) 
 REPRESENTATION_ITEM ( '' )  );
#429 = APPLICATION_PROTOCOL_DEFINITION ( 'international standard', 'config_control_design', 1994, #189 ) ;
#430 = ORIENTED_EDGE ( 'NONE', *, *, #169, .F. ) ;
#431 = CARTESIAN_POINT ( 'NONE',  ( 18.35000000000000497, -23.00000000000000000, 3.000000000000000000 ) ) ;
#432 = DIRECTION ( 'NONE',  ( 0.000000000000000000, -0.000000000000000000, 1.000000000000000000 ) ) ;
#433 = VECTOR ( 'NONE', #243, 1000.000000000000000 ) ;
#434 = ORIENTED_EDGE ( 'NONE', *, *, #96, .T. ) ;
#435 = CC_DESIGN_PERSON_AND_ORGANIZATION_ASSIGNMENT ( #207, #350, ( #313 ) ) ;
#436 = DIRECTION ( 'NONE',  ( -1.000000000000000000, 7.151684150059480926E-17, 0.000000000000000000 ) ) ;
#437 = ORIENTED_EDGE ( 'NONE', *, *, #33, .F. ) ;
#438 = COORDINATED_UNIVERSAL_TIME_OFFSET ( 0, 0, .AHEAD. ) ;
#439 = FACE_OUTER_BOUND ( 'NONE', #20, .T. ) ;
#440 = EDGE_CURVE ( 'NONE', #191, #328, #54, .T. ) ;
#441 = PRODUCT_DEFINITION_FORMATION_WITH_SPECIFIED_SOURCE ( 'ANY', '', #452, .NOT_KNOWN. ) ;
#442 = APPROVAL_ROLE ( '' ) ;
#443 = DIRECTION ( 'NONE',  ( -1.224646799147353207E-16, 1.000000000000000000, -0.000000000000000000 ) ) ;
#444 = ORIENTED_EDGE ( 'NONE', *, *, #159, .F. ) ;
#445 = LINE ( 'NONE', #258, #11 ) ;
#446 = PERSON_AND_ORGANIZATION ( #467, #85 ) ;
#447 = LINE ( 'NONE', #459, #355 ) ;
#448 = ORIENTED_EDGE ( 'NONE', *, *, #364, .F. ) ;
#449 = DIRECTION ( 'NONE',  ( -1.224646799147353207E-16, 1.000000000000000000, 0.000000000000000000 ) ) ;
#450 = ORIENTED_EDGE ( 'NONE', *, *, #82, .F. ) ;
#451 = DIRECTION ( 'NONE',  ( -1.000000000000000000, 0.000000000000000000, 0.000000000000000000 ) ) ;
#452 = PRODUCT ( 'Door', 'Door', '', ( #90 ) ) ;
#453 = ORIENTED_EDGE ( 'NONE', *, *, #393, .F. ) ;
#454 = EDGE_CURVE ( 'NONE', #372, #73, #95, .T. ) ;
#455 = CARTESIAN_POINT ( 'NONE',  ( 19.35000000000000142, -1.383850883036509659E-15, 3.000000000000000000 ) ) ;
#456 = VERTEX_POINT ( 'NONE', #284 ) ;
#457 = EDGE_CURVE ( 'NONE', #456, #200, #134, .T. ) ;
#458 = APPROVAL_PERSON_ORGANIZATION ( #446, #61, #442 ) ;
#459 = CARTESIAN_POINT ( 'NONE',  ( 3.000000000000002665, -2.999999999999999556, 3.000000000000000000 ) ) ;
#460 = VECTOR ( 'NONE', #224, 1000.000000000000000 ) ;
#461 = ORIENTED_EDGE ( 'NONE', *, *, #82, .T. ) ;
#462 = EDGE_LOOP ( 'NONE', ( #411, #252, #89, #113 ) ) ;
#463 = ORIENTED_EDGE ( 'NONE', *, *, #440, .T. ) ;
#464 = DIRECTION ( 'NONE',  ( -1.000000000000000000, 0.000000000000000000, -0.000000000000000000 ) ) ;
#465 = AXIS2_PLACEMENT_3D ( 'NONE', #288, #251, #327 ) ;
#466 = PLANE ( 'NONE',  #52 ) ;
#467 = PERSON ( 'UNSPECIFIED', 'UNSPECIFIED', 'UNSPECIFIED', ('UNSPECIFIED'), ('UNSPECIFIED'), ('UNSPECIFIED') ) ;
#468 = ORIENTED_EDGE ( 'NONE', *, *, #345, .F. ) ;
#469 = EDGE_LOOP ( 'NONE', ( #463, #437, #235, #265 ) ) ;
#470 = DIRECTION ( 'NONE',  ( 1.000000000000000000, -7.151684150059480926E-17, -0.000000000000000000 ) ) ;
#471 = VECTOR ( 'NONE', #470, 1000.000000000000000 ) ;
#472 = LINE ( 'NONE', #181, #124 ) ;
#473 = AXIS2_PLACEMENT_3D ( 'NONE', #387, #424, #357 ) ;
ENDSEC;
END-ISO-10303-21;
