ISO-10303-21;
HEADER;
FILE_DESCRIPTION (( 'STEP AP203' ),
    '1' );
FILE_NAME ('Part1.step',
    '2026-09-07T17:35:27',
    ( '' ),
    ( '' ),
    'SwSTEP 2.0',
    'SolidWorks 2026',
    '' );
FILE_SCHEMA (( 'CONFIG_CONTROL_DESIGN' ));
ENDSEC;

DATA;
#1 = LINE ( 'NONE', #21, #140 ) ;
#2 = VERTEX_POINT ( 'NONE', #10 ) ;
#3 = AXIS2_PLACEMENT_3D ( 'NONE', #295, #61, #64 ) ;
#4 =( LENGTH_UNIT ( ) NAMED_UNIT ( * ) SI_UNIT ( .MILLI., .METRE. ) );
#5 = VERTEX_POINT ( 'NONE', #8 ) ;
#6 = ORIENTED_EDGE ( 'NONE', *, *, #261, .F. ) ;
#7 = DATE_AND_TIME ( #210, #48 ) ;
#8 = CARTESIAN_POINT ( 'NONE',  ( -67.01692076931450970, 0.000000000000000000, -39.02251082770212776 ) ) ;
#9 = PERSON_AND_ORGANIZATION_ROLE ( 'design_supplier' ) ;
#10 = CARTESIAN_POINT ( 'NONE',  ( -62.81692076931451396, 2.500000000000000000, 100.9774891722978936 ) ) ;
#11 = EDGE_CURVE ( 'NONE', #226, #119, #294, .T. ) ;
#12 = PERSON_AND_ORGANIZATION_ROLE ( 'creator' ) ;
#13 = ORIENTED_EDGE ( 'NONE', *, *, #218, .F. ) ;
#14 = CARTESIAN_POINT ( 'NONE',  ( 72.98307923068550451, 0.000000000000000000, -39.02251082770212776 ) ) ;
#15 = EDGE_CURVE ( 'NONE', #124, #226, #324, .T. ) ;
#16 = FACE_OUTER_BOUND ( 'NONE', #93, .T. ) ;
#17 = PERSON ( 'UNSPECIFIED', 'UNSPECIFIED', 'UNSPECIFIED', ('UNSPECIFIED'), ('UNSPECIFIED'), ('UNSPECIFIED') ) ;
#18 = DIRECTION ( 'NONE',  ( 0.000000000000000000, 0.000000000000000000, -1.000000000000000000 ) ) ;
#19 = CARTESIAN_POINT ( 'NONE',  ( -67.01692076931450970, 0.000000000000000000, -39.02251082770212776 ) ) ;
#20 = CARTESIAN_POINT ( 'NONE',  ( -67.01692076931450970, 2.500000000000000000, -39.02251082770212776 ) ) ;
#21 = CARTESIAN_POINT ( 'NONE',  ( 72.98307923068550451, 0.000000000000000000, -39.02251082770212776 ) ) ;
#22 = ORIENTED_EDGE ( 'NONE', *, *, #146, .T. ) ;
#23 = ORIENTED_EDGE ( 'NONE', *, *, #146, .F. ) ;
#24 = DIRECTION ( 'NONE',  ( -0.000000000000000000, 0.000000000000000000, 1.000000000000000000 ) ) ;
#25 = ORIENTED_EDGE ( 'NONE', *, *, #46, .T. ) ;
#26 = APPLICATION_PROTOCOL_DEFINITION ( 'international standard', 'config_control_design', 1994, #154 ) ;
#27 = VERTEX_POINT ( 'NONE', #105 ) ;
#28 = PRODUCT_DEFINITION_FORMATION_WITH_SPECIFIED_SOURCE ( 'ANY', '', #281, .NOT_KNOWN. ) ;
#29 = VECTOR ( 'NONE', #108, 1000.000000000000000 ) ;
#30 = CARTESIAN_POINT ( 'NONE',  ( 0.000000000000000000, 2.500000000000000000, 0.000000000000000000 ) ) ;
#31 = DATE_AND_TIME ( #33, #87 ) ;
#32 = LINE ( 'NONE', #81, #289 ) ;
#33 = CALENDAR_DATE ( 2026, 7, 9 ) ;
#34 = CLOSED_SHELL ( 'NONE', ( #104, #41, #112, #192, #68, #188, #247, #100, #277 ) ) ;
#35 = PLANE ( 'NONE',  #275 ) ;
#36 = CARTESIAN_POINT ( 'NONE',  ( -67.01692076931450970, 4.000000000000000000, 100.9774891722978936 ) ) ;
#37 = LINE ( 'NONE', #118, #101 ) ;
#38 = VECTOR ( 'NONE', #57, 1000.000000000000000 ) ;
#39 = DIRECTION ( 'NONE',  ( 1.000000000000000000, 0.000000000000000000, 0.000000000000000000 ) ) ;
#40 = CARTESIAN_POINT ( 'NONE',  ( -67.01692076931450970, 4.000000000000000000, -34.82251082770212491 ) ) ;
#41 = ADVANCED_FACE ( 'NONE', ( #237 ), #76, .F. ) ;
#42 = FACE_OUTER_BOUND ( 'NONE', #208, .T. ) ;
#43 = VECTOR ( 'NONE', #129, 1000.000000000000000 ) ;
#44 = DIRECTION ( 'NONE',  ( 1.000000000000000000, 0.000000000000000000, 0.000000000000000000 ) ) ;
#45 = ORIENTED_EDGE ( 'NONE', *, *, #126, .F. ) ;
#46 = EDGE_CURVE ( 'NONE', #119, #200, #133, .T. ) ;
#47 = EDGE_LOOP ( 'NONE', ( #230, #258, #25, #148, #97, #317 ) ) ;
#48 = LOCAL_TIME ( 18, 35, 27.00000000000000000, #211 ) ;
#49 = AXIS2_PLACEMENT_3D ( 'NONE', #36, #193, #297 ) ;
#50 = VERTEX_POINT ( 'NONE', #240 ) ;
#51 = ORIENTED_EDGE ( 'NONE', *, *, #218, .T. ) ;
#52 = COORDINATED_UNIVERSAL_TIME_OFFSET ( 0, 0, .AHEAD. ) ;
#53 = CARTESIAN_POINT ( 'NONE',  ( 72.98307923068550451, 2.500000000000000000, -34.82251082770212491 ) ) ;
#54 = SECURITY_CLASSIFICATION_LEVEL ( 'unclassified' ) ;
#55 = CARTESIAN_POINT ( 'NONE',  ( -62.81692076931451396, 2.500000000000000000, -34.82251082770212491 ) ) ;
#56 = EDGE_CURVE ( 'NONE', #200, #50, #153, .T. ) ;
#57 = DIRECTION ( 'NONE',  ( 0.000000000000000000, 0.000000000000000000, 1.000000000000000000 ) ) ;
#58 = APPROVAL_PERSON_ORGANIZATION ( #71, #160, #147 ) ;
#59 = APPROVAL_ROLE ( '' ) ;
#60 = VECTOR ( 'NONE', #115, 1000.000000000000000 ) ;
#61 = DIRECTION ( 'NONE',  ( 0.000000000000000000, 0.000000000000000000, -1.000000000000000000 ) ) ;
#62 = CARTESIAN_POINT ( 'NONE',  ( 72.98307923068550451, 4.000000000000000000, -39.02251082770212776 ) ) ;
#63 = VECTOR ( 'NONE', #144, 1000.000000000000000 ) ;
#64 = DIRECTION ( 'NONE',  ( -1.000000000000000000, 0.000000000000000000, -0.000000000000000000 ) ) ;
#65 = CARTESIAN_POINT ( 'NONE',  ( -62.81692076931451396, 4.000000000000000000, -34.82251082770212491 ) ) ;
#66 = LINE ( 'NONE', #111, #325 ) ;
#67 = LINE ( 'NONE', #267, #116 ) ;
#68 = ADVANCED_FACE ( 'NONE', ( #290 ), #263, .F. ) ;
#69 = EDGE_LOOP ( 'NONE', ( #125, #22, #181, #212 ) ) ;
#70 = VERTEX_POINT ( 'NONE', #55 ) ;
#71 = PERSON_AND_ORGANIZATION ( #17, #196 ) ;
#72 = ORIENTED_EDGE ( 'NONE', *, *, #283, .F. ) ;
#73 = ORIENTED_EDGE ( 'NONE', *, *, #15, .F. ) ;
#74 = PERSON_AND_ORGANIZATION ( #17, #196 ) ;
#75 = APPROVAL_STATUS ( 'not_yet_approved' ) ;
#76 = PLANE ( 'NONE',  #109 ) ;
#77 = CC_DESIGN_APPROVAL ( #160, ( #227 ) ) ;
#78 = PERSON_AND_ORGANIZATION ( #17, #196 ) ;
#79 = CC_DESIGN_PERSON_AND_ORGANIZATION_ASSIGNMENT ( #216, #242, ( #227 ) ) ;
#80 = APPROVAL_DATE_TIME ( #292, #327 ) ;
#81 = CARTESIAN_POINT ( 'NONE',  ( -67.01692076931450970, 2.500000000000000000, -39.02251082770212776 ) ) ;
#82 = FACE_OUTER_BOUND ( 'NONE', #169, .T. ) ;
#83 = AXIS2_PLACEMENT_3D ( 'NONE', #279, #24, #276 ) ;
#84 = CC_DESIGN_DATE_AND_TIME_ASSIGNMENT ( #152, #262, ( #312 ) ) ;
#85 = CARTESIAN_POINT ( 'NONE',  ( 72.98307923068550451, 4.000000000000000000, 100.9774891722978936 ) ) ;
#86 = FACE_OUTER_BOUND ( 'NONE', #47, .T. ) ;
#87 = LOCAL_TIME ( 18, 35, 27.00000000000000000, #180 ) ;
#88 = DIRECTION ( 'NONE',  ( 1.000000000000000000, 0.000000000000000000, 0.000000000000000000 ) ) ;
#89 = LINE ( 'NONE', #19, #60 ) ;
#90 = CARTESIAN_POINT ( 'NONE',  ( 72.98307923068550451, 2.500000000000000000, -39.02251082770212776 ) ) ;
#91 = EDGE_CURVE ( 'NONE', #259, #205, #32, .T. ) ;
#92 = LINE ( 'NONE', #207, #228 ) ;
#93 = EDGE_LOOP ( 'NONE', ( #13, #334, #149, #145 ) ) ;
#94 =( NAMED_UNIT ( * ) PLANE_ANGLE_UNIT ( ) SI_UNIT ( $, .RADIAN. ) );
#95 = ORIENTED_EDGE ( 'NONE', *, *, #252, .F. ) ;
#96 = PERSON_AND_ORGANIZATION_ROLE ( 'design_owner' ) ;
#97 = ORIENTED_EDGE ( 'NONE', *, *, #311, .F. ) ;
#98 = APPLICATION_PROTOCOL_DEFINITION ( 'international standard', 'config_control_design', 1994, #298 ) ;
#99 = ORIENTED_EDGE ( 'NONE', *, *, #11, .F. ) ;
#100 = ADVANCED_FACE ( 'NONE', ( #187 ), #35, .F. ) ;
#101 = VECTOR ( 'NONE', #178, 1000.000000000000000 ) ;
#102 = DIRECTION ( 'NONE',  ( 1.000000000000000000, 0.000000000000000000, 0.000000000000000000 ) ) ;
#103 = ORIENTED_EDGE ( 'NONE', *, *, #46, .F. ) ;
#104 = ADVANCED_FACE ( 'NONE', ( #82 ), #243, .T. ) ;
#105 = CARTESIAN_POINT ( 'NONE',  ( -62.81692076931451396, 4.000000000000000000, 100.9774891722978936 ) ) ;
#106 = APPROVAL_DATE_TIME ( #127, #160 ) ;
#107 = DIRECTION ( 'NONE',  ( 0.000000000000000000, -1.000000000000000000, 0.000000000000000000 ) ) ;
#108 = DIRECTION ( 'NONE',  ( -0.000000000000000000, 1.000000000000000000, -0.000000000000000000 ) ) ;
#109 = AXIS2_PLACEMENT_3D ( 'NONE', #182, #320, #158 ) ;
#110 = CARTESIAN_POINT ( 'NONE',  ( -67.01692076931450970, 2.500000000000000000, 100.9774891722978936 ) ) ;
#111 = CARTESIAN_POINT ( 'NONE',  ( -67.01692076931450970, 4.000000000000000000, -39.02251082770212776 ) ) ;
#112 = ADVANCED_FACE ( 'NONE', ( #251 ), #224, .F. ) ;
#113 = CARTESIAN_POINT ( 'NONE',  ( 72.98307923068550451, 2.500000000000000000, -34.82251082770212491 ) ) ;
#114 = CC_DESIGN_PERSON_AND_ORGANIZATION_ASSIGNMENT ( #236, #9, ( #28 ) ) ;
#115 = DIRECTION ( 'NONE',  ( 0.000000000000000000, 0.000000000000000000, 1.000000000000000000 ) ) ;
#116 = VECTOR ( 'NONE', #39, 1000.000000000000000 ) ;
#117 = CARTESIAN_POINT ( 'NONE',  ( 72.98307923068550451, 4.000000000000000000, -39.02251082770212776 ) ) ;
#118 = CARTESIAN_POINT ( 'NONE',  ( -67.01692076931450970, 4.000000000000000000, 100.9774891722978936 ) ) ;
#119 = VERTEX_POINT ( 'NONE', #159 ) ;
#120 = DIRECTION ( 'NONE',  ( 0.000000000000000000, 0.000000000000000000, 1.000000000000000000 ) ) ;
#121 = VERTEX_POINT ( 'NONE', #65 ) ;
#122 = MECHANICAL_CONTEXT ( 'NONE', #298, 'mechanical' ) ;
#123 = EDGE_LOOP ( 'NONE', ( #150, #176, #209, #73, #280, #315 ) ) ;
#124 = VERTEX_POINT ( 'NONE', #90 ) ;
#125 = ORIENTED_EDGE ( 'NONE', *, *, #91, .F. ) ;
#126 = EDGE_CURVE ( 'NONE', #27, #200, #246, .T. ) ;
#127 = DATE_AND_TIME ( #319, #287 ) ;
#128 = SHAPE_DEFINITION_REPRESENTATION ( #170, #318 ) ;
#129 = DIRECTION ( 'NONE',  ( 0.000000000000000000, 0.000000000000000000, 1.000000000000000000 ) ) ;
#130 = VECTOR ( 'NONE', #219, 1000.000000000000000 ) ;
#131 = APPROVAL_ROLE ( '' ) ;
#132 = MANIFOLD_SOLID_BREP ( 'Cut-Extrude2', #34 ) ;
#133 = LINE ( 'NONE', #156, #38 ) ;
#134 = DIRECTION ( 'NONE',  ( -0.000000000000000000, -1.000000000000000000, -0.000000000000000000 ) ) ;
#135 = LOCAL_TIME ( 18, 35, 27.00000000000000000, #213 ) ;
#136 = VECTOR ( 'NONE', #162, 1000.000000000000000 ) ;
#137 = LINE ( 'NONE', #199, #136 ) ;
#138 = DIRECTION ( 'NONE',  ( 0.000000000000000000, 0.000000000000000000, 1.000000000000000000 ) ) ;
#139 = LINE ( 'NONE', #273, #223 ) ;
#140 = VECTOR ( 'NONE', #120, 1000.000000000000000 ) ;
#141 = CARTESIAN_POINT ( 'NONE',  ( -62.81692076931451396, 2.500000000000000000, -39.02251082770212776 ) ) ;
#142 = LINE ( 'NONE', #314, #63 ) ;
#143 = ORIENTED_EDGE ( 'NONE', *, *, #300, .F. ) ;
#144 = DIRECTION ( 'NONE',  ( 1.000000000000000000, 0.000000000000000000, 0.000000000000000000 ) ) ;
#145 = ORIENTED_EDGE ( 'NONE', *, *, #311, .T. ) ;
#146 = EDGE_CURVE ( 'NONE', #259, #5, #66, .T. ) ;
#147 = APPROVAL_ROLE ( '' ) ;
#148 = ORIENTED_EDGE ( 'NONE', *, *, #56, .T. ) ;
#149 = ORIENTED_EDGE ( 'NONE', *, *, #300, .T. ) ;
#150 = ORIENTED_EDGE ( 'NONE', *, *, #261, .T. ) ;
#151 = AXIS2_PLACEMENT_3D ( 'NONE', #141, #326, #222 ) ;
#152 = DATE_AND_TIME ( #155, #135 ) ;
#153 = LINE ( 'NONE', #185, #167 ) ;
#154 = APPLICATION_CONTEXT ( 'configuration controlled 3d designs of mechanical parts and assemblies' ) ;
#155 = CALENDAR_DATE ( 2026, 7, 9 ) ;
#156 = CARTESIAN_POINT ( 'NONE',  ( 72.98307923068550451, 4.000000000000000000, -39.02251082770212776 ) ) ;
#157 = EDGE_CURVE ( 'NONE', #70, #226, #137, .T. ) ;
#158 = DIRECTION ( 'NONE',  ( 0.000000000000000000, 0.000000000000000000, -1.000000000000000000 ) ) ;
#159 = CARTESIAN_POINT ( 'NONE',  ( 72.98307923068550451, 4.000000000000000000, -34.82251082770212491 ) ) ;
#160 = APPROVAL ( #175, 'UNSPECIFIED' ) ;
#161 = DIRECTION ( 'NONE',  ( 0.000000000000000000, -0.000000000000000000, -1.000000000000000000 ) ) ;
#162 = DIRECTION ( 'NONE',  ( 1.000000000000000000, 0.000000000000000000, 0.000000000000000000 ) ) ;
#163 = DIRECTION ( 'NONE',  ( -0.000000000000000000, -1.000000000000000000, -0.000000000000000000 ) ) ;
#164 = CC_DESIGN_APPROVAL ( #306, ( #312 ) ) ;
#165 = PRODUCT_RELATED_PRODUCT_CATEGORY ( 'detail', '', ( #281 ) ) ;
#166 = CARTESIAN_POINT ( 'NONE',  ( -62.81692076931451396, 2.500000000000000000, 100.9774891722978936 ) ) ;
#167 = VECTOR ( 'NONE', #189, 1000.000000000000000 ) ;
#168 =( NAMED_UNIT ( * ) SI_UNIT ( $, .STERADIAN. ) SOLID_ANGLE_UNIT ( ) );
#169 = EDGE_LOOP ( 'NONE', ( #23, #229, #253, #143 ) ) ;
#170 = PRODUCT_DEFINITION_SHAPE ( 'NONE', 'NONE',  #227 ) ;
#171 = ORIENTED_EDGE ( 'NONE', *, *, #172, .F. ) ;
#172 = EDGE_CURVE ( 'NONE', #70, #121, #304, .T. ) ;
#173 = CC_DESIGN_PERSON_AND_ORGANIZATION_ASSIGNMENT ( #235, #12, ( #28 ) ) ;
#174 = CC_DESIGN_APPROVAL ( #327, ( #28 ) ) ;
#175 = APPROVAL_STATUS ( 'not_yet_approved' ) ;
#176 = ORIENTED_EDGE ( 'NONE', *, *, #238, .F. ) ;
#177 = AXIS2_PLACEMENT_3D ( 'NONE', #62, #88, #18 ) ;
#178 = DIRECTION ( 'NONE',  ( -0.000000000000000000, -1.000000000000000000, -0.000000000000000000 ) ) ;
#179 = ORIENTED_EDGE ( 'NONE', *, *, #126, .T. ) ;
#180 = COORDINATED_UNIVERSAL_TIME_OFFSET ( 0, 0, .AHEAD. ) ;
#181 = ORIENTED_EDGE ( 'NONE', *, *, #257, .T. ) ;
#182 = CARTESIAN_POINT ( 'NONE',  ( -67.01692076931450970, 4.000000000000000000, -39.02251082770212776 ) ) ;
#183 = VECTOR ( 'NONE', #231, 1000.000000000000000 ) ;
#184 = CALENDAR_DATE ( 2026, 7, 9 ) ;
#185 = CARTESIAN_POINT ( 'NONE',  ( 72.98307923068550451, 4.000000000000000000, 100.9774891722978936 ) ) ;
#186 = APPROVAL_STATUS ( 'not_yet_approved' ) ;
#187 = FACE_OUTER_BOUND ( 'NONE', #123, .T. ) ;
#188 = ADVANCED_FACE ( 'NONE', ( #16 ), #221, .T. ) ;
#189 = DIRECTION ( 'NONE',  ( -0.000000000000000000, -1.000000000000000000, -0.000000000000000000 ) ) ;
#190 = LOCAL_TIME ( 18, 35, 27.00000000000000000, #52 ) ;
#191 = CARTESIAN_POINT ( 'NONE',  ( 72.98307923068550451, 2.500000000000000000, -39.02251082770212776 ) ) ;
#192 = ADVANCED_FACE ( 'NONE', ( #86 ), #270, .T. ) ;
#193 = DIRECTION ( 'NONE',  ( 0.000000000000000000, 0.000000000000000000, -1.000000000000000000 ) ) ;
#194 = CARTESIAN_POINT ( 'NONE',  ( 0.000000000000000000, 0.000000000000000000, 0.000000000000000000 ) ) ;
#195 = UNCERTAINTY_MEASURE_WITH_UNIT (LENGTH_MEASURE( 1.000000000000000082E-05 ), #4, 'distance_accuracy_value', 'NONE');
#196 = ORGANIZATION ( 'UNSPECIFIED', 'UNSPECIFIED', '' ) ;
#197 = AXIS2_PLACEMENT_3D ( 'NONE', #293, #260, #214 ) ;
#198 = CARTESIAN_POINT ( 'NONE',  ( -67.01692076931450970, 2.500000000000000000, 100.9774891722978936 ) ) ;
#199 = CARTESIAN_POINT ( 'NONE',  ( -67.01692076931450970, 2.500000000000000000, -34.82251082770212491 ) ) ;
#200 = VERTEX_POINT ( 'NONE', #85 ) ;
#201 = CARTESIAN_POINT ( 'NONE',  ( -67.01692076931450970, 4.000000000000000000, 100.9774891722978936 ) ) ;
#202 = CARTESIAN_POINT ( 'NONE',  ( -67.01692076931450970, 0.000000000000000000, 100.9774891722978936 ) ) ;
#203 = ORIENTED_EDGE ( 'NONE', *, *, #238, .T. ) ;
#204 = EDGE_CURVE ( 'NONE', #124, #206, #272, .T. ) ;
#205 = VERTEX_POINT ( 'NONE', #198 ) ;
#206 = VERTEX_POINT ( 'NONE', #14 ) ;
#207 = CARTESIAN_POINT ( 'NONE',  ( -67.01692076931450970, 0.000000000000000000, -39.02251082770212776 ) ) ;
#208 = EDGE_LOOP ( 'NONE', ( #203, #310, #296, #171 ) ) ;
#209 = ORIENTED_EDGE ( 'NONE', *, *, #157, .T. ) ;
#210 = CALENDAR_DATE ( 2026, 7, 9 ) ;
#211 = COORDINATED_UNIVERSAL_TIME_OFFSET ( 0, 0, .AHEAD. ) ;
#212 = ORIENTED_EDGE ( 'NONE', *, *, #271, .F. ) ;
#213 = COORDINATED_UNIVERSAL_TIME_OFFSET ( 0, 0, .AHEAD. ) ;
#214 = DIRECTION ( 'NONE',  ( 0.000000000000000000, -0.000000000000000000, -1.000000000000000000 ) ) ;
#215 = EDGE_CURVE ( 'NONE', #121, #27, #139, .T. ) ;
#216 = PERSON_AND_ORGANIZATION ( #17, #196 ) ;
#217 = DIRECTION ( 'NONE',  ( 0.000000000000000000, -0.000000000000000000, -1.000000000000000000 ) ) ;
#218 = EDGE_CURVE ( 'NONE', #307, #50, #67, .T. ) ;
#219 = DIRECTION ( 'NONE',  ( 0.000000000000000000, 1.000000000000000000, 0.000000000000000000 ) ) ;
#220 = DESIGN_CONTEXT ( 'detailed design', #154, 'design' ) ;
#221 = PLANE ( 'NONE',  #265 ) ;
#222 = DIRECTION ( 'NONE',  ( 0.000000000000000000, 0.000000000000000000, 1.000000000000000000 ) ) ;
#223 = VECTOR ( 'NONE', #245, 1000.000000000000000 ) ;
#224 = PLANE ( 'NONE',  #49 ) ;
#225 = LINE ( 'NONE', #110, #250 ) ;
#226 = VERTEX_POINT ( 'NONE', #113 ) ;
#227 = PRODUCT_DEFINITION ( 'UNKNOWN', '', #28, #220 ) ;
#228 = VECTOR ( 'NONE', #102, 1000.000000000000000 ) ;
#229 = ORIENTED_EDGE ( 'NONE', *, *, #322, .T. ) ;
#230 = ORIENTED_EDGE ( 'NONE', *, *, #15, .T. ) ;
#231 = DIRECTION ( 'NONE',  ( -0.000000000000000000, 1.000000000000000000, -0.000000000000000000 ) ) ;
#232 = EDGE_LOOP ( 'NONE', ( #6, #254, #51, #308, #45, #72 ) ) ;
#233 = ORIENTED_EDGE ( 'NONE', *, *, #252, .T. ) ;
#234 = VECTOR ( 'NONE', #134, 1000.000000000000000 ) ;
#235 = PERSON_AND_ORGANIZATION ( #17, #196 ) ;
#236 = PERSON_AND_ORGANIZATION ( #17, #196 ) ;
#237 = FACE_OUTER_BOUND ( 'NONE', #69, .T. ) ;
#238 = EDGE_CURVE ( 'NONE', #70, #2, #303, .T. ) ;
#239 = DATE_TIME_ROLE ( 'creation_date' ) ;
#240 = CARTESIAN_POINT ( 'NONE',  ( 72.98307923068550451, 0.000000000000000000, 100.9774891722978936 ) ) ;
#241 = VECTOR ( 'NONE', #329, 1000.000000000000000 ) ;
#242 = PERSON_AND_ORGANIZATION_ROLE ( 'creator' ) ;
#243 = PLANE ( 'NONE',  #3 ) ;
#244 = PLANE ( 'NONE',  #151 ) ;
#245 = DIRECTION ( 'NONE',  ( 0.000000000000000000, 0.000000000000000000, 1.000000000000000000 ) ) ;
#246 = LINE ( 'NONE', #201, #241 ) ;
#247 = ADVANCED_FACE ( 'NONE', ( #42 ), #244, .T. ) ;
#248 = DIRECTION ( 'NONE',  ( 1.000000000000000000, 0.000000000000000000, 0.000000000000000000 ) ) ;
#249 = APPROVAL_PERSON_ORGANIZATION ( #74, #306, #131 ) ;
#250 = VECTOR ( 'NONE', #330, 1000.000000000000000 ) ;
#251 = FACE_OUTER_BOUND ( 'NONE', #232, .T. ) ;
#252 = EDGE_CURVE ( 'NONE', #121, #119, #302, .T. ) ;
#253 = ORIENTED_EDGE ( 'NONE', *, *, #204, .T. ) ;
#254 = ORIENTED_EDGE ( 'NONE', *, *, #271, .T. ) ;
#255 = COORDINATED_UNIVERSAL_TIME_OFFSET ( 0, 0, .AHEAD. ) ;
#256 = FACE_OUTER_BOUND ( 'NONE', #286, .T. ) ;
#257 = EDGE_CURVE ( 'NONE', #5, #307, #89, .T. ) ;
#258 = ORIENTED_EDGE ( 'NONE', *, *, #11, .T. ) ;
#259 = VERTEX_POINT ( 'NONE', #20 ) ;
#260 = DIRECTION ( 'NONE',  ( 0.000000000000000000, -1.000000000000000000, 0.000000000000000000 ) ) ;
#261 = EDGE_CURVE ( 'NONE', #205, #2, #225, .T. ) ;
#262 = DATE_TIME_ROLE ( 'classification_date' ) ;
#263 = PLANE ( 'NONE',  #197 ) ;
#264 =( GEOMETRIC_REPRESENTATION_CONTEXT ( 3 ) GLOBAL_UNCERTAINTY_ASSIGNED_CONTEXT ( ( #195 ) ) GLOBAL_UNIT_ASSIGNED_CONTEXT ( ( #4, #94, #168 ) ) REPRESENTATION_CONTEXT ( 'NONE', 'WORKASPACE' ) );
#265 = AXIS2_PLACEMENT_3D ( 'NONE', #194, #299, #161 ) ;
#266 = DIRECTION ( 'NONE',  ( 0.000000000000000000, 0.000000000000000000, 1.000000000000000000 ) ) ;
#267 = CARTESIAN_POINT ( 'NONE',  ( -67.01692076931450970, 0.000000000000000000, 100.9774891722978936 ) ) ;
#268 = CARTESIAN_POINT ( 'NONE',  ( -62.81692076931451396, 2.500000000000000000, -39.02251082770212776 ) ) ;
#269 = CC_DESIGN_SECURITY_CLASSIFICATION ( #312, ( #28 ) ) ;
#270 = PLANE ( 'NONE',  #177 ) ;
#271 = EDGE_CURVE ( 'NONE', #205, #307, #37, .T. ) ;
#272 = LINE ( 'NONE', #117, #234 ) ;
#273 = CARTESIAN_POINT ( 'NONE',  ( -62.81692076931451396, 4.000000000000000000, -39.02251082770212776 ) ) ;
#274 = AXIS2_PLACEMENT_3D ( 'NONE', #309, #316, #44 ) ;
#275 = AXIS2_PLACEMENT_3D ( 'NONE', #30, #107, #217 ) ;
#276 = DIRECTION ( 'NONE',  ( 1.000000000000000000, 0.000000000000000000, 0.000000000000000000 ) ) ;
#277 = ADVANCED_FACE ( 'NONE', ( #256 ), #278, .F. ) ;
#278 = PLANE ( 'NONE',  #83 ) ;
#279 = CARTESIAN_POINT ( 'NONE',  ( -67.01692076931450970, 2.500000000000000000, -34.82251082770212491 ) ) ;
#280 = ORIENTED_EDGE ( 'NONE', *, *, #322, .F. ) ;
#281 = PRODUCT ( 'Part1', 'Part1', '', ( #122 ) ) ;
#282 = ORIENTED_EDGE ( 'NONE', *, *, #172, .T. ) ;
#283 = EDGE_CURVE ( 'NONE', #2, #27, #332, .T. ) ;
#284 = ORIENTED_EDGE ( 'NONE', *, *, #157, .F. ) ;
#285 = APPROVAL_DATE_TIME ( #31, #306 ) ;
#286 = EDGE_LOOP ( 'NONE', ( #282, #233, #99, #284 ) ) ;
#287 = LOCAL_TIME ( 18, 35, 27.00000000000000000, #255 ) ;
#288 = PERSON_AND_ORGANIZATION ( #17, #196 ) ;
#289 = VECTOR ( 'NONE', #266, 1000.000000000000000 ) ;
#290 = FACE_OUTER_BOUND ( 'NONE', #336, .T. ) ;
#291 = CC_DESIGN_PERSON_AND_ORGANIZATION_ASSIGNMENT ( #335, #96, ( #281 ) ) ;
#292 = DATE_AND_TIME ( #184, #190 ) ;
#293 = CARTESIAN_POINT ( 'NONE',  ( 0.000000000000000000, 4.000000000000000000, 0.000000000000000000 ) ) ;
#294 = LINE ( 'NONE', #53, #29 ) ;
#295 = CARTESIAN_POINT ( 'NONE',  ( -67.01692076931450970, 4.000000000000000000, -39.02251082770212776 ) ) ;
#296 = ORIENTED_EDGE ( 'NONE', *, *, #215, .F. ) ;
#297 = DIRECTION ( 'NONE',  ( -1.000000000000000000, 0.000000000000000000, -0.000000000000000000 ) ) ;
#298 = APPLICATION_CONTEXT ( 'configuration controlled 3d designs of mechanical parts and assemblies' ) ;
#299 = DIRECTION ( 'NONE',  ( 0.000000000000000000, -1.000000000000000000, 0.000000000000000000 ) ) ;
#300 = EDGE_CURVE ( 'NONE', #5, #206, #92, .T. ) ;
#301 = CC_DESIGN_DATE_AND_TIME_ASSIGNMENT ( #7, #239, ( #227 ) ) ;
#302 = LINE ( 'NONE', #40, #313 ) ;
#303 = LINE ( 'NONE', #268, #305 ) ;
#304 = LINE ( 'NONE', #328, #130 ) ;
#305 = VECTOR ( 'NONE', #138, 1000.000000000000000 ) ;
#306 = APPROVAL ( #186, 'UNSPECIFIED' ) ;
#307 = VERTEX_POINT ( 'NONE', #202 ) ;
#308 = ORIENTED_EDGE ( 'NONE', *, *, #56, .F. ) ;
#309 = CARTESIAN_POINT ( 'NONE',  ( 0.000000000000000000, 0.000000000000000000, 0.000000000000000000 ) ) ;
#310 = ORIENTED_EDGE ( 'NONE', *, *, #283, .T. ) ;
#311 = EDGE_CURVE ( 'NONE', #206, #50, #1, .T. ) ;
#312 = SECURITY_CLASSIFICATION ( '', '', #54 ) ;
#313 = VECTOR ( 'NONE', #248, 1000.000000000000000 ) ;
#314 = CARTESIAN_POINT ( 'NONE',  ( -67.01692076931450970, 2.500000000000000000, -39.02251082770212776 ) ) ;
#315 = ORIENTED_EDGE ( 'NONE', *, *, #91, .T. ) ;
#316 = DIRECTION ( 'NONE',  ( 0.000000000000000000, 0.000000000000000000, 1.000000000000000000 ) ) ;
#317 = ORIENTED_EDGE ( 'NONE', *, *, #204, .F. ) ;
#318 = ADVANCED_BREP_SHAPE_REPRESENTATION ( 'Part1', ( #132, #274 ), #264 ) ;
#319 = CALENDAR_DATE ( 2026, 7, 9 ) ;
#320 = DIRECTION ( 'NONE',  ( 1.000000000000000000, 0.000000000000000000, 0.000000000000000000 ) ) ;
#321 = PERSON_AND_ORGANIZATION_ROLE ( 'classification_officer' ) ;
#322 = EDGE_CURVE ( 'NONE', #259, #124, #142, .T. ) ;
#323 = APPROVAL_PERSON_ORGANIZATION ( #78, #327, #59 ) ;
#324 = LINE ( 'NONE', #191, #43 ) ;
#325 = VECTOR ( 'NONE', #163, 1000.000000000000000 ) ;
#326 = DIRECTION ( 'NONE',  ( -1.000000000000000000, 0.000000000000000000, 0.000000000000000000 ) ) ;
#327 = APPROVAL ( #75, 'UNSPECIFIED' ) ;
#328 = CARTESIAN_POINT ( 'NONE',  ( -62.81692076931451396, 2.500000000000000000, -34.82251082770212491 ) ) ;
#329 = DIRECTION ( 'NONE',  ( 1.000000000000000000, 0.000000000000000000, 0.000000000000000000 ) ) ;
#330 = DIRECTION ( 'NONE',  ( 1.000000000000000000, 0.000000000000000000, 0.000000000000000000 ) ) ;
#331 = CC_DESIGN_PERSON_AND_ORGANIZATION_ASSIGNMENT ( #288, #321, ( #312 ) ) ;
#332 = LINE ( 'NONE', #166, #183 ) ;
#333 = ORIENTED_EDGE ( 'NONE', *, *, #215, .T. ) ;
#334 = ORIENTED_EDGE ( 'NONE', *, *, #257, .F. ) ;
#335 = PERSON_AND_ORGANIZATION ( #17, #196 ) ;
#336 = EDGE_LOOP ( 'NONE', ( #95, #333, #179, #103 ) ) ;
ENDSEC;
END-ISO-10303-21;
