ISO-10303-21;
HEADER;
FILE_DESCRIPTION (( 'STEP AP203' ),
    '1' );
FILE_NAME ('NewBookshelf.step',
    '2026-09-07T17:35:25',
    ( '' ),
    ( '' ),
    'SwSTEP 2.0',
    'SolidWorks 2026',
    '' );
FILE_SCHEMA (( 'CONFIG_CONTROL_DESIGN' ));
ENDSEC;

DATA;
#1 = FACE_OUTER_BOUND ( 'NONE', #591, .T. ) ;
#2 = LINE ( 'NONE', #577, #445 ) ;
#3 = DIRECTION ( 'NONE',  ( 0.000000000000000000, -1.000000000000000000, -2.843808977011159309E-16 ) ) ;
#4 = ORIENTED_EDGE ( 'NONE', *, *, #608, .F. ) ;
#5 = EDGE_CURVE ( 'NONE', #953, #790, #249, .T. ) ;
#6 = PLANE ( 'NONE',  #487 ) ;
#7 = DIRECTION ( 'NONE',  ( 1.000000000000000000, -0.000000000000000000, -0.000000000000000000 ) ) ;
#8 = FACE_OUTER_BOUND ( 'NONE', #750, .T. ) ;
#9 = APPROVAL_PERSON_ORGANIZATION ( #181, #723, #24 ) ;
#10 = ORIENTED_EDGE ( 'NONE', *, *, #500, .T. ) ;
#11 = CC_DESIGN_PERSON_AND_ORGANIZATION_ASSIGNMENT ( #690, #836, ( #66 ) ) ;
#12 = FACE_OUTER_BOUND ( 'NONE', #38, .T. ) ;
#13 = VECTOR ( 'NONE', #455, 1000.000000000000000 ) ;
#14 = DIRECTION ( 'NONE',  ( 0.000000000000000000, 0.000000000000000000, -1.000000000000000000 ) ) ;
#15 = CARTESIAN_POINT ( 'NONE',  ( 4.999999999999999112, -49.56196909370039094, -9.228635763700406613 ) ) ;
#16 = VECTOR ( 'NONE', #7, 1000.000000000000000 ) ;
#17 = LINE ( 'NONE', #433, #525 ) ;
#18 = ORIENTED_EDGE ( 'NONE', *, *, #647, .T. ) ;
#19 = CARTESIAN_POINT ( 'NONE',  ( 15.00000000000000000, 2.438030906299596179, -9.228635763700401284 ) ) ;
#20 =( LENGTH_UNIT ( ) NAMED_UNIT ( * ) SI_UNIT ( .MILLI., .METRE. ) );
#21 = CARTESIAN_POINT ( 'NONE',  ( 4.999999999999999112, -34.56196909370040515, -9.228635763700403061 ) ) ;
#22 = VERTEX_POINT ( 'NONE', #787 ) ;
#23 = LINE ( 'NONE', #688, #206 ) ;
#24 = APPROVAL_ROLE ( '' ) ;
#25 = LINE ( 'NONE', #219, #16 ) ;
#26 = ORIENTED_EDGE ( 'NONE', *, *, #326, .T. ) ;
#27 = AXIS2_PLACEMENT_3D ( 'NONE', #275, #60, #356 ) ;
#28 = APPROVAL_STATUS ( 'not_yet_approved' ) ;
#29 = LINE ( 'NONE', #452, #721 ) ;
#30 = EDGE_LOOP ( 'NONE', ( #771, #95, #939, #355 ) ) ;
#31 = DIRECTION ( 'NONE',  ( -1.000000000000000000, 0.000000000000000000, -0.000000000000000000 ) ) ;
#32 = CARTESIAN_POINT ( 'NONE',  ( 4.999999999999999112, -16.06196909370040160, -9.228635763700403061 ) ) ;
#33 = ORIENTED_EDGE ( 'NONE', *, *, #125, .T. ) ;
#34 = COORDINATED_UNIVERSAL_TIME_OFFSET ( 0, 0, .AHEAD. ) ;
#35 = ADVANCED_FACE ( 'NONE', ( #107 ), #52, .T. ) ;
#36 = CARTESIAN_POINT ( 'NONE',  ( 15.00000000000000000, -80.46196909370040373, -12.22863576036707656 ) ) ;
#37 = LINE ( 'NONE', #171, #782 ) ;
#38 = EDGE_LOOP ( 'NONE', ( #212, #772, #183, #717 ) ) ;
#39 = ORIENTED_EDGE ( 'NONE', *, *, #753, .T. ) ;
#40 = DIRECTION ( 'NONE',  ( 0.000000000000000000, 4.417801721502906717E-17, -1.000000000000000000 ) ) ;
#41 = EDGE_CURVE ( 'NONE', #493, #345, #624, .T. ) ;
#42 = DIRECTION ( 'NONE',  ( 0.000000000000000000, -2.312964634635744929E-16, 1.000000000000000000 ) ) ;
#43 = ORIENTED_EDGE ( 'NONE', *, *, #740, .F. ) ;
#44 = AXIS2_PLACEMENT_3D ( 'NONE', #451, #151, #31 ) ;
#45 = EDGE_LOOP ( 'NONE', ( #108, #934, #134, #668 ) ) ;
#46 = VECTOR ( 'NONE', #360, 1000.000000000000000 ) ;
#47 = DIRECTION ( 'NONE',  ( 1.000000000000000000, -0.000000000000000000, -0.000000000000000000 ) ) ;
#48 = PLANE ( 'NONE',  #555 ) ;
#49 = CARTESIAN_POINT ( 'NONE',  ( 15.00000000000000000, 33.03803090629959627, -12.22863576036706235 ) ) ;
#50 = ORIENTED_EDGE ( 'NONE', *, *, #948, .T. ) ;
#51 = FACE_OUTER_BOUND ( 'NONE', #239, .T. ) ;
#52 = PLANE ( 'NONE',  #334 ) ;
#53 = ORIENTED_EDGE ( 'NONE', *, *, #477, .F. ) ;
#54 = LINE ( 'NONE', #262, #193 ) ;
#55 = DIRECTION ( 'NONE',  ( 0.000000000000000000, -1.767120688451151171E-16, 1.000000000000000000 ) ) ;
#56 = ORIENTED_EDGE ( 'NONE', *, *, #613, .T. ) ;
#57 = ORIENTED_EDGE ( 'NONE', *, *, #851, .T. ) ;
#58 = VECTOR ( 'NONE', #40, 1000.000000000000000 ) ;
#59 = VECTOR ( 'NONE', #538, 1000.000000000000000 ) ;
#60 = DIRECTION ( 'NONE',  ( -1.000000000000000000, -0.000000000000000000, 0.000000000000000000 ) ) ;
#61 = FACE_BOUND ( 'NONE', #266, .T. ) ;
#62 = CARTESIAN_POINT ( 'NONE',  ( 15.00000000000000000, 5.938030906299581524, -9.228635760367057017 ) ) ;
#63 = ADVANCED_FACE ( 'NONE', ( #546, #61, #72, #484, #868, #133 ), #354, .T. ) ;
#64 = CARTESIAN_POINT ( 'NONE',  ( 4.999999999999999112, -31.06196909370040515, 30.03803090296624489 ) ) ;
#65 = ORIENTED_EDGE ( 'NONE', *, *, #541, .F. ) ;
#66 = PRODUCT_DEFINITION ( 'UNKNOWN', '', #417, #936 ) ;
#67 = LINE ( 'NONE', #570, #456 ) ;
#68 = DIRECTION ( 'NONE',  ( 0.000000000000000000, 0.000000000000000000, 1.000000000000000000 ) ) ;
#69 = ORIENTED_EDGE ( 'NONE', *, *, #336, .F. ) ;
#70 = AXIS2_PLACEMENT_3D ( 'NONE', #905, #834, #826 ) ;
#71 = DIRECTION ( 'NONE',  ( 0.000000000000000000, -1.767120688451151171E-16, 1.000000000000000000 ) ) ;
#72 = FACE_BOUND ( 'NONE', #564, .T. ) ;
#73 = LINE ( 'NONE', #575, #283 ) ;
#74 = ORIENTED_EDGE ( 'NONE', *, *, #531, .F. ) ;
#75 = ADVANCED_FACE ( 'NONE', ( #363 ), #952, .F. ) ;
#76 = FACE_OUTER_BOUND ( 'NONE', #192, .T. ) ;
#77 = CARTESIAN_POINT ( 'NONE',  ( 15.00000000000000000, -53.06196909370040515, 30.03803090629959627 ) ) ;
#78 = ORIENTED_EDGE ( 'NONE', *, *, #494, .F. ) ;
#79 = LINE ( 'NONE', #85, #492 ) ;
#80 = CC_DESIGN_APPROVAL ( #923, ( #664 ) ) ;
#81 = ORIENTED_EDGE ( 'NONE', *, *, #926, .F. ) ;
#82 = DIRECTION ( 'NONE',  ( 0.000000000000000000, -1.000000000000000000, -2.312964634635744929E-16 ) ) ;
#83 = CIRCLE ( 'NONE', #27, 19.63706921162200203 ) ;
#84 = LINE ( 'NONE', #813, #139 ) ;
#85 = CARTESIAN_POINT ( 'NONE',  ( 4.999999999999999112, -31.06196909370040515, -9.228635763700403061 ) ) ;
#86 = AXIS2_PLACEMENT_3D ( 'NONE', #203, #801, #422 ) ;
#87 = CARTESIAN_POINT ( 'NONE',  ( 15.00000000000000000, 6.321057594998241491, 10.40469757296626163 ) ) ;
#88 = ORIENTED_EDGE ( 'NONE', *, *, #135, .F. ) ;
#89 = LINE ( 'NONE', #166, #430 ) ;
#90 = DIRECTION ( 'NONE',  ( 0.000000000000000000, 0.000000000000000000, -1.000000000000000000 ) ) ;
#91 = DIRECTION ( 'NONE',  ( 0.000000000000000000, -2.208900860751453358E-17, -1.000000000000000000 ) ) ;
#92 = ORIENTED_EDGE ( 'NONE', *, *, #205, .F. ) ;
#93 = LINE ( 'NONE', #908, #269 ) ;
#94 = PLANE ( 'NONE',  #207 ) ;
#95 = ORIENTED_EDGE ( 'NONE', *, *, #468, .F. ) ;
#96 = AXIS2_PLACEMENT_3D ( 'NONE', #424, #293, #140 ) ;
#97 = FACE_OUTER_BOUND ( 'NONE', #780, .T. ) ;
#98 = FACE_OUTER_BOUND ( 'NONE', #603, .T. ) ;
#99 = DIRECTION ( 'NONE',  ( 0.000000000000000000, 0.000000000000000000, -1.000000000000000000 ) ) ;
#100 = AXIS2_PLACEMENT_3D ( 'NONE', #138, #346, #209 ) ;
#101 = ORIENTED_EDGE ( 'NONE', *, *, #435, .F. ) ;
#102 = LINE ( 'NONE', #233, #605 ) ;
#103 = EDGE_CURVE ( 'NONE', #714, #698, #214, .T. ) ;
#104 = COORDINATED_UNIVERSAL_TIME_OFFSET ( 0, 0, .AHEAD. ) ;
#105 = CARTESIAN_POINT ( 'NONE',  ( 4.999999999999999112, 6.321057594998244156, 30.04176678458826188 ) ) ;
#106 = PLANE ( 'NONE',  #667 ) ;
#107 = FACE_OUTER_BOUND ( 'NONE', #434, .T. ) ;
#108 = ORIENTED_EDGE ( 'NONE', *, *, #276, .T. ) ;
#109 = CARTESIAN_POINT ( 'NONE',  ( 4.999999999999999112, 2.438030906299596179, -9.228635763700401284 ) ) ;
#110 = DIRECTION ( 'NONE',  ( 0.000000000000000000, -1.000000000000000000, 2.208900860751453358E-17 ) ) ;
#111 = ORIENTED_EDGE ( 'NONE', *, *, #394, .T. ) ;
#112 = ORIENTED_EDGE ( 'NONE', *, *, #621, .F. ) ;
#113 = VECTOR ( 'NONE', #128, 1000.000000000000000 ) ;
#114 = PLANE ( 'NONE',  #100 ) ;
#115 = CARTESIAN_POINT ( 'NONE',  ( 15.00000000000000000, -53.06196909370039805, -9.228635763700406613 ) ) ;
#116 = DIRECTION ( 'NONE',  ( 0.000000000000000000, 0.000000000000000000, -1.000000000000000000 ) ) ;
#117 = ORIENTED_EDGE ( 'NONE', *, *, #918, .F. ) ;
#118 = VECTOR ( 'NONE', #583, 1000.000000000000000 ) ;
#119 = ORIENTED_EDGE ( 'NONE', *, *, #366, .F. ) ;
#120 = DIRECTION ( 'NONE',  ( 1.000000000000000000, -0.000000000000000000, -0.000000000000000000 ) ) ;
#121 = ORIENTED_EDGE ( 'NONE', *, *, #336, .T. ) ;
#122 = ORIENTED_EDGE ( 'NONE', *, *, #604, .F. ) ;
#123 = FACE_OUTER_BOUND ( 'NONE', #529, .T. ) ;
#124 = ORIENTED_EDGE ( 'NONE', *, *, #498, .F. ) ;
#125 = EDGE_CURVE ( 'NONE', #896, #610, #726, .T. ) ;
#126 = VERTEX_POINT ( 'NONE', #286 ) ;
#127 = CC_DESIGN_APPROVAL ( #723, ( #417 ) ) ;
#128 = DIRECTION ( 'NONE',  ( 0.000000000000000000, 0.000000000000000000, -1.000000000000000000 ) ) ;
#129 = DIRECTION ( 'NONE',  ( 0.000000000000000000, 0.000000000000000000, -1.000000000000000000 ) ) ;
#130 = AXIS2_PLACEMENT_3D ( 'NONE', #231, #328, #615 ) ;
#131 = ADVANCED_FACE ( 'NONE', ( #659 ), #729, .T. ) ;
#132 = CARTESIAN_POINT ( 'NONE',  ( 0.000000000000000000, 33.03803090629959627, 33.03803090629958916 ) ) ;
#133 = FACE_BOUND ( 'NONE', #830, .T. ) ;
#134 = ORIENTED_EDGE ( 'NONE', *, *, #861, .F. ) ;
#135 = EDGE_CURVE ( 'NONE', #933, #788, #2, .T. ) ;
#136 = ADVANCED_FACE ( 'NONE', ( #574 ), #651, .F. ) ;
#137 = DIRECTION ( 'NONE',  ( 0.000000000000000000, 0.000000000000000000, -1.000000000000000000 ) ) ;
#138 = CARTESIAN_POINT ( 'NONE',  ( 13.00000000000000000, -53.06196909370040515, 30.03803090629959627 ) ) ;
#139 = VECTOR ( 'NONE', #893, 1000.000000000000000 ) ;
#140 = DIRECTION ( 'NONE',  ( 0.000000000000000000, 0.000000000000000000, 1.000000000000000000 ) ) ;
#141 = EDGE_CURVE ( 'NONE', #896, #683, #566, .T. ) ;
#142 = CARTESIAN_POINT ( 'NONE',  ( 4.999999999999999112, -31.06196909370040515, -9.228635763700403061 ) ) ;
#143 = CC_DESIGN_DATE_AND_TIME_ASSIGNMENT ( #241, #532, ( #664 ) ) ;
#144 = CARTESIAN_POINT ( 'NONE',  ( 15.00000000000000000, 2.438030906299596179, -9.228635763700401284 ) ) ;
#145 = CARTESIAN_POINT ( 'NONE',  ( 4.999999999999999112, 5.938030906299591294, 30.03803090629958206 ) ) ;
#146 = VERTEX_POINT ( 'NONE', #644 ) ;
#147 = CARTESIAN_POINT ( 'NONE',  ( 13.00000000000000000, -53.06196909370039805, -9.228635763700406613 ) ) ;
#148 = LINE ( 'NONE', #301, #873 ) ;
#149 = DIRECTION ( 'NONE',  ( 0.000000000000000000, 1.000000000000000000, 0.000000000000000000 ) ) ;
#150 = ORIENTED_EDGE ( 'NONE', *, *, #508, .F. ) ;
#151 = DIRECTION ( 'NONE',  ( 0.000000000000000000, 0.000000000000000000, -1.000000000000000000 ) ) ;
#152 = ADVANCED_BREP_SHAPE_REPRESENTATION ( 'NewBookshelf', ( #841, #883 ), #745 ) ;
#153 = PRODUCT ( 'NewBookshelf', 'NewBookshelf', '', ( #881 ) ) ;
#154 = CARTESIAN_POINT ( 'NONE',  ( 0.000000000000000000, 0.000000000000000000, 0.000000000000000000 ) ) ;
#155 = CARTESIAN_POINT ( 'NONE',  ( 4.999999999999999112, -49.56196909370039094, -9.228635763700406613 ) ) ;
#156 = DIRECTION ( 'NONE',  ( 1.000000000000000000, -0.000000000000000000, -0.000000000000000000 ) ) ;
#157 = ORIENTED_EDGE ( 'NONE', *, *, #237, .T. ) ;
#158 = DIRECTION ( 'NONE',  ( 0.000000000000000000, -1.000000000000000000, 0.000000000000000000 ) ) ;
#159 = EDGE_CURVE ( 'NONE', #22, #258, #67, .T. ) ;
#160 = CIRCLE ( 'NONE', #720, 19.63706921162200203 ) ;
#161 = PERSON_AND_ORGANIZATION ( #758, #639 ) ;
#162 = AXIS2_PLACEMENT_3D ( 'NONE', #294, #582, #666 ) ;
#163 = EDGE_LOOP ( 'NONE', ( #497, #378, #802, #65 ) ) ;
#164 = EDGE_CURVE ( 'NONE', #146, #383, #809, .T. ) ;
#165 = ADVANCED_FACE ( 'NONE', ( #736 ), #807, .F. ) ;
#166 = CARTESIAN_POINT ( 'NONE',  ( 15.00000000000000000, -77.46196909370040373, 30.03803090629958916 ) ) ;
#167 = APPROVAL_DATE_TIME ( #910, #723 ) ;
#168 = ORIENTED_EDGE ( 'NONE', *, *, #828, .F. ) ;
#169 = CARTESIAN_POINT ( 'NONE',  ( 15.00000000000000000, -49.56196909370039094, -9.228635763700406613 ) ) ;
#170 = CYLINDRICAL_SURFACE ( 'NONE', #162, 19.63706921162200203 ) ;
#171 = CARTESIAN_POINT ( 'NONE',  ( 4.999999999999999112, 2.438030906299596179, -9.228635763700401284 ) ) ;
#172 = EDGE_LOOP ( 'NONE', ( #479, #324, #375, #824 ) ) ;
#173 = ADVANCED_FACE ( 'NONE', ( #76 ), #938, .F. ) ;
#174 = LOCAL_TIME ( 18, 35, 25.00000000000000000, #759 ) ;
#175 = DIRECTION ( 'NONE',  ( 0.000000000000000000, 0.000000000000000000, -1.000000000000000000 ) ) ;
#176 = PERSON_AND_ORGANIZATION ( #758, #639 ) ;
#177 = DIRECTION ( 'NONE',  ( -1.000000000000000000, -0.000000000000000000, 0.000000000000000000 ) ) ;
#178 = AXIS2_PLACEMENT_3D ( 'NONE', #706, #47, #323 ) ;
#179 = VECTOR ( 'NONE', #402, 1000.000000000000000 ) ;
#180 = ORIENTED_EDGE ( 'NONE', *, *, #508, .T. ) ;
#181 = PERSON_AND_ORGANIZATION ( #758, #639 ) ;
#182 = DIRECTION ( 'NONE',  ( 1.000000000000000000, -0.000000000000000000, -0.000000000000000000 ) ) ;
#183 = ORIENTED_EDGE ( 'NONE', *, *, #427, .F. ) ;
#184 = ORIENTED_EDGE ( 'NONE', *, *, #5, .F. ) ;
#185 = CYLINDRICAL_SURFACE ( 'NONE', #178, 19.63706921162200203 ) ;
#186 = LINE ( 'NONE', #264, #475 ) ;
#187 = EDGE_LOOP ( 'NONE', ( #735, #399, #744, #199 ) ) ;
#188 = ORIENTED_EDGE ( 'NONE', *, *, #477, .T. ) ;
#189 = VECTOR ( 'NONE', #14, 1000.000000000000000 ) ;
#190 = DIRECTION ( 'NONE',  ( 0.000000000000000000, 0.000000000000000000, 1.000000000000000000 ) ) ;
#191 = DIRECTION ( 'NONE',  ( 0.000000000000000000, 1.000000000000000000, -1.421904488505579408E-16 ) ) ;
#192 = EDGE_LOOP ( 'NONE', ( #122, #833, #92, #560 ) ) ;
#193 = VECTOR ( 'NONE', #562, 1000.000000000000000 ) ;
#194 = VERTEX_POINT ( 'NONE', #673 ) ;
#195 = CARTESIAN_POINT ( 'NONE',  ( 4.999999999999999112, 0.000000000000000000, 0.000000000000000000 ) ) ;
#196 = ORIENTED_EDGE ( 'NONE', *, *, #257, .T. ) ;
#197 = EDGE_LOOP ( 'NONE', ( #416, #344, #880, #943 ) ) ;
#198 = DIRECTION ( 'NONE',  ( 0.000000000000000000, -1.222712582186295884E-16, 1.000000000000000000 ) ) ;
#199 = ORIENTED_EDGE ( 'NONE', *, *, #816, .T. ) ;
#200 = EDGE_CURVE ( 'NONE', #863, #788, #381, .T. ) ;
#201 = AXIS2_PLACEMENT_3D ( 'NONE', #951, #806, #874 ) ;
#202 = CARTESIAN_POINT ( 'NONE',  ( 15.00000000000000000, 33.03803090629959627, -12.22863576036706235 ) ) ;
#203 = CARTESIAN_POINT ( 'NONE',  ( 15.00000000000000000, 0.000000000000000000, 0.000000000000000000 ) ) ;
#204 = EDGE_LOOP ( 'NONE', ( #415, #393, #268, #699 ) ) ;
#205 = EDGE_CURVE ( 'NONE', #225, #904, #822, .T. ) ;
#206 = VECTOR ( 'NONE', #82, 1000.000000000000000 ) ;
#207 = AXIS2_PLACEMENT_3D ( 'NONE', #684, #367, #814 ) ;
#208 = DIRECTION ( 'NONE',  ( 1.000000000000000000, 0.000000000000000000, 0.000000000000000000 ) ) ;
#209 = DIRECTION ( 'NONE',  ( 0.000000000000000000, -1.000000000000000000, -2.843808977011159309E-16 ) ) ;
#210 = CARTESIAN_POINT ( 'NONE',  ( 4.999999999999999112, -31.06196909370040515, 30.03803090296624489 ) ) ;
#211 = DIRECTION ( 'NONE',  ( 0.000000000000000000, -0.000000000000000000, 1.000000000000000000 ) ) ;
#212 = ORIENTED_EDGE ( 'NONE', *, *, #568, .T. ) ;
#213 = DIRECTION ( 'NONE',  ( 0.000000000000000000, 0.000000000000000000, -1.000000000000000000 ) ) ;
#214 = LINE ( 'NONE', #875, #238 ) ;
#215 = DIRECTION ( 'NONE',  ( -1.000000000000000000, -0.000000000000000000, 0.000000000000000000 ) ) ;
#216 = ORIENTED_EDGE ( 'NONE', *, *, #848, .F. ) ;
#217 = VECTOR ( 'NONE', #396, 1000.000000000000000 ) ;
#218 = PLANE ( 'NONE',  #764 ) ;
#219 = CARTESIAN_POINT ( 'NONE',  ( 13.00000000000000000, -53.06196909370039805, -9.228635763700406613 ) ) ;
#220 = CARTESIAN_POINT ( 'NONE',  ( 4.999999999999999112, 5.938030906299581524, -9.228635760367057017 ) ) ;
#221 = ORIENTED_EDGE ( 'NONE', *, *, #647, .F. ) ;
#222 = CARTESIAN_POINT ( 'NONE',  ( 4.999999999999999112, -16.06196909370040160, -9.228635763700403061 ) ) ;
#223 = FACE_OUTER_BOUND ( 'NONE', #540, .T. ) ;
#224 = PLANE ( 'NONE',  #130 ) ;
#225 = VERTEX_POINT ( 'NONE', #898 ) ;
#226 = ADVANCED_FACE ( 'NONE', ( #223 ), #437, .F. ) ;
#227 = CARTESIAN_POINT ( 'NONE',  ( 15.00000000000000000, 6.321057594998244156, 30.04176678458826188 ) ) ;
#228 = CALENDAR_DATE ( 2026, 7, 9 ) ;
#229 = DIRECTION ( 'NONE',  ( 0.000000000000000000, -1.000000000000000000, 0.000000000000000000 ) ) ;
#230 = CC_DESIGN_PERSON_AND_ORGANIZATION_ASSIGNMENT ( #176, #906, ( #417 ) ) ;
#231 = CARTESIAN_POINT ( 'NONE',  ( 4.999999999999999112, 2.438030906299596179, 30.03803090296624489 ) ) ;
#232 = EDGE_LOOP ( 'NONE', ( #548, #150, #78, #260 ) ) ;
#233 = CARTESIAN_POINT ( 'NONE',  ( 4.999999999999999112, 5.938030906299589518, 30.03803090629958561 ) ) ;
#234 = VECTOR ( 'NONE', #602, 1000.000000000000000 ) ;
#235 = DATE_AND_TIME ( #380, #835 ) ;
#236 = DIRECTION ( 'NONE',  ( 0.000000000000000000, 1.000000000000000000, 0.000000000000000000 ) ) ;
#237 = EDGE_CURVE ( 'NONE', #683, #446, #79, .T. ) ;
#238 = VECTOR ( 'NONE', #425, 1000.000000000000000 ) ;
#239 = EDGE_LOOP ( 'NONE', ( #26, #184, #504, #121 ) ) ;
#240 = PLANE ( 'NONE',  #949 ) ;
#241 = DATE_AND_TIME ( #228, #945 ) ;
#242 = ADVANCED_FACE ( 'NONE', ( #607 ), #680, .T. ) ;
#243 = CARTESIAN_POINT ( 'NONE',  ( 15.00000000000000000, 33.03803090629959627, 33.03803090629958916 ) ) ;
#244 = DIRECTION ( 'NONE',  ( 0.000000000000000000, -1.000000000000000000, -1.156482317317871725E-16 ) ) ;
#245 = ORIENTED_EDGE ( 'NONE', *, *, #604, .T. ) ;
#246 = LINE ( 'NONE', #752, #13 ) ;
#247 = COORDINATED_UNIVERSAL_TIME_OFFSET ( 0, 0, .AHEAD. ) ;
#248 = DIRECTION ( 'NONE',  ( -0.000000000000000000, -0.000000000000000000, 1.000000000000000000 ) ) ;
#249 = LINE ( 'NONE', #49, #799 ) ;
#250 = APPROVAL_PERSON_ORGANIZATION ( #901, #923, #528 ) ;
#251 = DIRECTION ( 'NONE',  ( 1.000000000000000000, -0.000000000000000000, -0.000000000000000000 ) ) ;
#252 = PERSON_AND_ORGANIZATION ( #758, #639 ) ;
#253 = CARTESIAN_POINT ( 'NONE',  ( 15.00000000000000000, 6.321057594998241491, -9.232371638655738622 ) ) ;
#254 = AXIS2_PLACEMENT_3D ( 'NONE', #195, #353, #707 ) ;
#255 = CLOSED_SHELL ( 'NONE', ( #453, #413, #63, #226, #165, #785, #488, #75, #944, #719, #927, #308, #403, #739, #316, #347, #136, #889, #871, #617, #820, #465, #131, #746, #242, #173, #909, #791, #857, #573, #35 ) ) ;
#256 = DIRECTION ( 'NONE',  ( 1.000000000000000000, -0.000000000000000000, -0.000000000000000000 ) ) ;
#257 = EDGE_CURVE ( 'NONE', #847, #738, #29, .T. ) ;
#258 = VERTEX_POINT ( 'NONE', #818 ) ;
#259 = FACE_OUTER_BOUND ( 'NONE', #296, .T. ) ;
#260 = ORIENTED_EDGE ( 'NONE', *, *, #682, .F. ) ;
#261 = ORIENTED_EDGE ( 'NONE', *, *, #342, .T. ) ;
#262 = CARTESIAN_POINT ( 'NONE',  ( 15.00000000000000000, 5.938030906299589518, 30.03803090629958561 ) ) ;
#263 = LINE ( 'NONE', #553, #58 ) ;
#264 = CARTESIAN_POINT ( 'NONE',  ( 4.999999999999999112, 5.938030906299591294, 30.03803090629958206 ) ) ;
#265 = ORIENTED_EDGE ( 'NONE', *, *, #621, .T. ) ;
#266 = EDGE_LOOP ( 'NONE', ( #899, #335, #388, #124 ) ) ;
#267 = LINE ( 'NONE', #867, #362 ) ;
#268 = ORIENTED_EDGE ( 'NONE', *, *, #205, .T. ) ;
#269 = VECTOR ( 'NONE', #526, 1000.000000000000000 ) ;
#270 = ORIENTED_EDGE ( 'NONE', *, *, #576, .T. ) ;
#271 = DIRECTION ( 'NONE',  ( 0.000000000000000000, -8.835603443005813433E-17, 1.000000000000000000 ) ) ;
#272 = EDGE_CURVE ( 'NONE', #493, #815, #533, .T. ) ;
#273 = ORIENTED_EDGE ( 'NONE', *, *, #141, .T. ) ;
#274 = EDGE_CURVE ( 'NONE', #126, #412, #25, .T. ) ;
#275 = CARTESIAN_POINT ( 'NONE',  ( 4.999999999999999112, 6.321057594998241491, 10.40469757296626163 ) ) ;
#276 = EDGE_CURVE ( 'NONE', #412, #258, #513, .T. ) ;
#277 = DIRECTION ( 'NONE',  ( 0.000000000000000000, 0.000000000000000000, -1.000000000000000000 ) ) ;
#278 = ORIENTED_EDGE ( 'NONE', *, *, #257, .F. ) ;
#279 = VECTOR ( 'NONE', #55, 1000.000000000000000 ) ;
#280 = DIRECTION ( 'NONE',  ( 0.000000000000000000, -8.835603443005813433E-17, 1.000000000000000000 ) ) ;
#281 = DIRECTION ( 'NONE',  ( 1.000000000000000000, 0.000000000000000000, 0.000000000000000000 ) ) ;
#282 = ORIENTED_EDGE ( 'NONE', *, *, #302, .F. ) ;
#283 = VECTOR ( 'NONE', #156, 1000.000000000000000 ) ;
#284 = AXIS2_PLACEMENT_3D ( 'NONE', #357, #496, #289 ) ;
#285 = LINE ( 'NONE', #495, #189 ) ;
#286 = CARTESIAN_POINT ( 'NONE',  ( 13.00000000000000000, -53.06196909370039805, -9.228635763700406613 ) ) ;
#287 = VERTEX_POINT ( 'NONE', #319 ) ;
#288 = CARTESIAN_POINT ( 'NONE',  ( 4.999999999999999112, -34.56196909370040515, 30.03803090296624489 ) ) ;
#289 = DIRECTION ( 'NONE',  ( 0.000000000000000000, 0.000000000000000000, -1.000000000000000000 ) ) ;
#290 = CARTESIAN_POINT ( 'NONE',  ( 15.00000000000000000, -49.56196909370039094, 30.03803090296624489 ) ) ;
#291 = ORIENTED_EDGE ( 'NONE', *, *, #462, .T. ) ;
#292 = AXIS2_PLACEMENT_3D ( 'NONE', #722, #946, #280 ) ;
#293 = DIRECTION ( 'NONE',  ( -1.000000000000000000, -0.000000000000000000, 0.000000000000000000 ) ) ;
#294 = CARTESIAN_POINT ( 'NONE',  ( 4.999999999999999112, 6.321057594998241491, 10.40469757296626163 ) ) ;
#295 = DIRECTION ( 'NONE',  ( 0.000000000000000000, 1.000000000000000000, 1.156482317317871232E-16 ) ) ;
#296 = EDGE_LOOP ( 'NONE', ( #712, #789, #686, #852 ) ) ;
#297 = VECTOR ( 'NONE', #447, 1000.000000000000000 ) ;
#298 = LINE ( 'NONE', #670, #872 ) ;
#299 = AXIS2_PLACEMENT_3D ( 'NONE', #795, #281, #129 ) ;
#300 = DIRECTION ( 'NONE',  ( 0.000000000000000000, 1.000000000000000000, 1.767120688451151171E-16 ) ) ;
#301 = CARTESIAN_POINT ( 'NONE',  ( 0.000000000000000000, 33.03803090629959627, -12.22863576036706235 ) ) ;
#302 = EDGE_CURVE ( 'NONE', #904, #762, #307, .T. ) ;
#303 = LINE ( 'NONE', #77, #511 ) ;
#304 = ORIENTED_EDGE ( 'NONE', *, *, #940, .T. ) ;
#305 = DIRECTION ( 'NONE',  ( 0.000000000000000000, -2.208900860751453358E-17, -1.000000000000000000 ) ) ;
#306 = PERSON_AND_ORGANIZATION_ROLE ( 'design_owner' ) ;
#307 = LINE ( 'NONE', #155, #628 ) ;
#308 = ADVANCED_FACE ( 'NONE', ( #760 ), #94, .F. ) ;
#309 = EDGE_LOOP ( 'NONE', ( #442, #111, #478, #552 ) ) ;
#310 = LINE ( 'NONE', #169, #350 ) ;
#311 = DATE_TIME_ROLE ( 'creation_date' ) ;
#312 = DIRECTION ( 'NONE',  ( 1.000000000000000000, -0.000000000000000000, -0.000000000000000000 ) ) ;
#313 = LINE ( 'NONE', #767, #491 ) ;
#314 = ORIENTED_EDGE ( 'NONE', *, *, #41, .F. ) ;
#315 = DIRECTION ( 'NONE',  ( 0.000000000000000000, 0.000000000000000000, 1.000000000000000000 ) ) ;
#316 = ADVANCED_FACE ( 'NONE', ( #831 ), #170, .F. ) ;
#317 = VECTOR ( 'NONE', #325, 1000.000000000000000 ) ;
#318 = APPLICATION_PROTOCOL_DEFINITION ( 'international standard', 'config_control_design', 1994, #523 ) ;
#319 = CARTESIAN_POINT ( 'NONE',  ( 13.00000000000000000, -77.46196909370040373, -9.228635763700403061 ) ) ;
#320 = ORIENTED_EDGE ( 'NONE', *, *, #650, .T. ) ;
#321 = DIRECTION ( 'NONE',  ( 0.000000000000000000, 1.000000000000000000, 1.156482317317871232E-16 ) ) ;
#322 = DATE_AND_TIME ( #821, #174 ) ;
#323 = DIRECTION ( 'NONE',  ( 0.000000000000000000, 0.000000000000000000, -1.000000000000000000 ) ) ;
#324 = ORIENTED_EDGE ( 'NONE', *, *, #613, .F. ) ;
#325 = DIRECTION ( 'NONE',  ( 0.000000000000000000, -1.000000000000000000, 0.000000000000000000 ) ) ;
#326 = EDGE_CURVE ( 'NONE', #718, #790, #148, .T. ) ;
#327 = APPROVAL_DATE_TIME ( #915, #923 ) ;
#328 = DIRECTION ( 'NONE',  ( 0.000000000000000000, -1.000000000000000000, -0.000000000000000000 ) ) ;
#329 = DIRECTION ( 'NONE',  ( 0.000000000000000000, 0.000000000000000000, -1.000000000000000000 ) ) ;
#330 = CC_DESIGN_SECURITY_CLASSIFICATION ( #664, ( #417 ) ) ;
#331 = VERTEX_POINT ( 'NONE', #894 ) ;
#332 = LINE ( 'NONE', #470, #687 ) ;
#333 = VECTOR ( 'NONE', #389, 1000.000000000000000 ) ;
#334 = AXIS2_PLACEMENT_3D ( 'NONE', #640, #392, #329 ) ;
#335 = ORIENTED_EDGE ( 'NONE', *, *, #713, .T. ) ;
#336 = EDGE_CURVE ( 'NONE', #768, #718, #517, .T. ) ;
#337 = ORIENTED_EDGE ( 'NONE', *, *, #272, .T. ) ;
#338 = CARTESIAN_POINT ( 'NONE',  ( 15.00000000000000000, 2.438030906299596179, 30.03803090296624489 ) ) ;
#339 = DIRECTION ( 'NONE',  ( 0.000000000000000000, -1.000000000000000000, -0.000000000000000000 ) ) ;
#340 = ORIENTED_EDGE ( 'NONE', *, *, #713, .F. ) ;
#341 = ORIENTED_EDGE ( 'NONE', *, *, #498, .T. ) ;
#342 = EDGE_CURVE ( 'NONE', #572, #907, #545, .T. ) ;
#343 = CARTESIAN_POINT ( 'NONE',  ( 13.00000000000000000, -77.46196909370040373, -9.228635763700403061 ) ) ;
#344 = ORIENTED_EDGE ( 'NONE', *, *, #568, .F. ) ;
#345 = VERTEX_POINT ( 'NONE', #928 ) ;
#346 = DIRECTION ( 'NONE',  ( 0.000000000000000000, -2.843808977011159309E-16, 1.000000000000000000 ) ) ;
#347 = ADVANCED_FACE ( 'NONE', ( #549 ), #634, .F. ) ;
#348 = CARTESIAN_POINT ( 'NONE',  ( 4.999999999999999112, -16.06196909370040160, -9.228635763700403061 ) ) ;
#349 = ORIENTED_EDGE ( 'NONE', *, *, #500, .F. ) ;
#350 = VECTOR ( 'NONE', #315, 1000.000000000000000 ) ;
#351 = AXIS2_PLACEMENT_3D ( 'NONE', #202, #198, #410 ) ;
#352 = EDGE_LOOP ( 'NONE', ( #676, #314, #337, #423 ) ) ;
#353 = DIRECTION ( 'NONE',  ( 1.000000000000000000, -0.000000000000000000, 0.000000000000000000 ) ) ;
#354 = PLANE ( 'NONE',  #86 ) ;
#355 = ORIENTED_EDGE ( 'NONE', *, *, #931, .F. ) ;
#356 = DIRECTION ( 'NONE',  ( 0.000000000000000000, 0.000000000000000000, 1.000000000000000000 ) ) ;
#357 = CARTESIAN_POINT ( 'NONE',  ( 4.999999999999999112, -34.56196909370040515, 30.03803090296624489 ) ) ;
#358 = VERTEX_POINT ( 'NONE', #620 ) ;
#359 = LINE ( 'NONE', #665, #622 ) ;
#360 = DIRECTION ( 'NONE',  ( 1.000000000000000000, -0.000000000000000000, -0.000000000000000000 ) ) ;
#361 = EDGE_LOOP ( 'NONE', ( #50, #637, #454, #556 ) ) ;
#362 = VECTOR ( 'NONE', #646, 1000.000000000000000 ) ;
#363 = FACE_OUTER_BOUND ( 'NONE', #197, .T. ) ;
#364 = DIRECTION ( 'NONE',  ( 1.000000000000000000, -0.000000000000000000, -0.000000000000000000 ) ) ;
#365 = DIRECTION ( 'NONE',  ( 0.000000000000000000, 1.000000000000000000, 1.156482317317871232E-16 ) ) ;
#366 = EDGE_CURVE ( 'NONE', #287, #126, #395, .T. ) ;
#367 = DIRECTION ( 'NONE',  ( 0.000000000000000000, -1.000000000000000000, -4.417801721502906717E-17 ) ) ;
#368 = VERTEX_POINT ( 'NONE', #916 ) ;
#369 = AXIS2_PLACEMENT_3D ( 'NONE', #611, #516, #757 ) ;
#370 = DIRECTION ( 'NONE',  ( 0.000000000000000000, 0.000000000000000000, 1.000000000000000000 ) ) ;
#371 = VECTOR ( 'NONE', #502, 1000.000000000000000 ) ;
#372 = DIRECTION ( 'NONE',  ( 0.000000000000000000, 0.000000000000000000, 1.000000000000000000 ) ) ;
#373 = CARTESIAN_POINT ( 'NONE',  ( 15.00000000000000000, -53.06196909370039805, -9.228635763700406613 ) ) ;
#374 = CARTESIAN_POINT ( 'NONE',  ( 15.00000000000000000, -31.06196909370040515, -9.228635763700403061 ) ) ;
#375 = ORIENTED_EDGE ( 'NONE', *, *, #141, .F. ) ;
#376 = LINE ( 'NONE', #379, #333 ) ;
#377 = CARTESIAN_POINT ( 'NONE',  ( 0.000000000000000000, 33.03803090629959627, 33.03803090629958916 ) ) ;
#378 = ORIENTED_EDGE ( 'NONE', *, *, #468, .T. ) ;
#379 = CARTESIAN_POINT ( 'NONE',  ( 4.999999999999999112, 2.438030906299596179, 30.03803090296624489 ) ) ;
#380 = CALENDAR_DATE ( 2026, 7, 9 ) ;
#381 = LINE ( 'NONE', #377, #406 ) ;
#382 = CARTESIAN_POINT ( 'NONE',  ( 15.00000000000000000, 33.03803090629959627, -12.22863576036706235 ) ) ;
#383 = VERTEX_POINT ( 'NONE', #253 ) ;
#384 = LINE ( 'NONE', #444, #885 ) ;
#385 = AXIS2_PLACEMENT_3D ( 'NONE', #142, #596, #295 ) ;
#386 = CARTESIAN_POINT ( 'NONE',  ( 13.00000000000000000, -77.46196909370040373, -9.228635763700403061 ) ) ;
#387 = CARTESIAN_POINT ( 'NONE',  ( 15.00000000000000000, -77.46196909370040373, 30.03803090629958916 ) ) ;
#388 = ORIENTED_EDGE ( 'NONE', *, *, #728, .F. ) ;
#389 = DIRECTION ( 'NONE',  ( 1.000000000000000000, -0.000000000000000000, -0.000000000000000000 ) ) ;
#390 = PERSON_AND_ORGANIZATION_ROLE ( 'classification_officer' ) ;
#391 = CARTESIAN_POINT ( 'NONE',  ( 4.999999999999999112, -49.56196909370039094, -9.228635763700406613 ) ) ;
#392 = DIRECTION ( 'NONE',  ( 1.000000000000000000, 0.000000000000000000, 0.000000000000000000 ) ) ;
#393 = ORIENTED_EDGE ( 'NONE', *, *, #689, .F. ) ;
#394 = EDGE_CURVE ( 'NONE', #493, #756, #263, .T. ) ;
#395 = LINE ( 'NONE', #386, #179 ) ;
#396 = DIRECTION ( 'NONE',  ( 0.000000000000000000, -1.000000000000000000, -2.843808977011159309E-16 ) ) ;
#397 = APPROVAL_PERSON_ORGANIZATION ( #161, #678, #827 ) ;
#398 = ORIENTED_EDGE ( 'NONE', *, *, #159, .T. ) ;
#399 = ORIENTED_EDGE ( 'NONE', *, *, #657, .F. ) ;
#400 = PRODUCT_RELATED_PRODUCT_CATEGORY ( 'detail', '', ( #153 ) ) ;
#401 = EDGE_CURVE ( 'NONE', #896, #481, #332, .T. ) ;
#402 = DIRECTION ( 'NONE',  ( 0.000000000000000000, 1.000000000000000000, -1.421904488505579408E-16 ) ) ;
#403 = ADVANCED_FACE ( 'NONE', ( #855 ), #778, .F. ) ;
#404 = CIRCLE ( 'NONE', #369, 19.63706921162200203 ) ;
#405 = CARTESIAN_POINT ( 'NONE',  ( 15.00000000000000000, -34.56196909370040515, 30.03803090296624489 ) ) ;
#406 = VECTOR ( 'NONE', #229, 1000.000000000000000 ) ;
#407 = ORIENTED_EDGE ( 'NONE', *, *, #918, .T. ) ;
#408 = EDGE_LOOP ( 'NONE', ( #53, #282, #291, #858 ) ) ;
#409 = CARTESIAN_POINT ( 'NONE',  ( 15.00000000000000000, -77.46196909370040373, -9.228635763700403061 ) ) ;
#410 = DIRECTION ( 'NONE',  ( 0.000000000000000000, -1.000000000000000000, -1.222712582186295884E-16 ) ) ;
#411 = VERTEX_POINT ( 'NONE', #773 ) ;
#412 = VERTEX_POINT ( 'NONE', #115 ) ;
#413 = ADVANCED_FACE ( 'NONE', ( #98 ), #474, .F. ) ;
#414 = CARTESIAN_POINT ( 'NONE',  ( 15.00000000000000000, -80.46196909370040373, -12.22863576036707656 ) ) ;
#415 = ORIENTED_EDGE ( 'NONE', *, *, #469, .F. ) ;
#416 = ORIENTED_EDGE ( 'NONE', *, *, #200, .F. ) ;
#417 = PRODUCT_DEFINITION_FORMATION_WITH_SPECIFIED_SOURCE ( 'ANY', '', #153, .NOT_KNOWN. ) ;
#418 = PLANE ( 'NONE',  #292 ) ;
#419 = VECTOR ( 'NONE', #614, 1000.000000000000000 ) ;
#420 = AXIS2_PLACEMENT_3D ( 'NONE', #742, #829, #522 ) ;
#421 = FACE_OUTER_BOUND ( 'NONE', #929, .T. ) ;
#422 = DIRECTION ( 'NONE',  ( 0.000000000000000000, 0.000000000000000000, -1.000000000000000000 ) ) ;
#423 = ORIENTED_EDGE ( 'NONE', *, *, #569, .T. ) ;
#424 = CARTESIAN_POINT ( 'NONE',  ( 4.999999999999999112, 6.321057594998241491, 10.40469757296626163 ) ) ;
#425 = DIRECTION ( 'NONE',  ( 1.000000000000000000, -0.000000000000000000, -0.000000000000000000 ) ) ;
#426 = ORIENTED_EDGE ( 'NONE', *, *, #948, .F. ) ;
#427 = EDGE_CURVE ( 'NONE', #953, #641, #629, .T. ) ;
#428 = CARTESIAN_POINT ( 'NONE',  ( 15.00000000000000000, 33.03803090629959627, 33.03803090629958916 ) ) ;
#429 = ORIENTED_EDGE ( 'NONE', *, *, #854, .F. ) ;
#430 = VECTOR ( 'NONE', #175, 1000.000000000000000 ) ;
#431 = LINE ( 'NONE', #501, #730 ) ;
#432 = CARTESIAN_POINT ( 'NONE',  ( 4.999999999999999112, 6.321057594998241491, -9.232371638655738622 ) ) ;
#433 = CARTESIAN_POINT ( 'NONE',  ( 15.00000000000000000, -12.56196909370040338, 30.03803090296624489 ) ) ;
#434 = EDGE_LOOP ( 'NONE', ( #450, #925, #805, #515 ) ) ;
#435 = EDGE_CURVE ( 'NONE', #585, #535, #784, .T. ) ;
#436 = CARTESIAN_POINT ( 'NONE',  ( 15.00000000000000000, 33.03803090629959627, -12.22863576036706235 ) ) ;
#437 = PLANE ( 'NONE',  #751 ) ;
#438 = VERTEX_POINT ( 'NONE', #409 ) ;
#439 = DIRECTION ( 'NONE',  ( -1.000000000000000000, -0.000000000000000000, 0.000000000000000000 ) ) ;
#440 =( NAMED_UNIT ( * ) SI_UNIT ( $, .STERADIAN. ) SOLID_ANGLE_UNIT ( ) );
#441 = CARTESIAN_POINT ( 'NONE',  ( 4.999999999999999112, -31.06196909370040515, -9.228635763700403061 ) ) ;
#442 = ORIENTED_EDGE ( 'NONE', *, *, #272, .F. ) ;
#443 = CIRCLE ( 'NONE', #935, 19.63706921162200203 ) ;
#444 = CARTESIAN_POINT ( 'NONE',  ( 15.00000000000000000, -77.46196909370040373, -9.228635763700403061 ) ) ;
#445 = VECTOR ( 'NONE', #507, 1000.000000000000000 ) ;
#446 = VERTEX_POINT ( 'NONE', #32 ) ;
#447 = DIRECTION ( 'NONE',  ( 0.000000000000000000, -1.000000000000000000, -1.156482317317871725E-16 ) ) ;
#448 = PERSON_AND_ORGANIZATION ( #758, #639 ) ;
#449 = DIRECTION ( 'NONE',  ( 1.000000000000000000, -0.000000000000000000, -0.000000000000000000 ) ) ;
#450 = ORIENTED_EDGE ( 'NONE', *, *, #861, .T. ) ;
#451 = CARTESIAN_POINT ( 'NONE',  ( 4.999999999999999112, -49.56196909370039094, 30.03803090296624489 ) ) ;
#452 = CARTESIAN_POINT ( 'NONE',  ( 13.00000000000000000, -77.46196909370040373, 30.03803090629958916 ) ) ;
#453 = ADVANCED_FACE ( 'NONE', ( #259 ), #185, .F. ) ;
#454 = ORIENTED_EDGE ( 'NONE', *, *, #394, .F. ) ;
#455 = DIRECTION ( 'NONE',  ( -0.000000000000000000, -0.000000000000000000, 1.000000000000000000 ) ) ;
#456 = VECTOR ( 'NONE', #804, 1000.000000000000000 ) ;
#457 = APPROVAL_DATE_TIME ( #322, #678 ) ;
#458 = CARTESIAN_POINT ( 'NONE',  ( 4.999999999999999112, 0.000000000000000000, 0.000000000000000000 ) ) ;
#459 = FACE_OUTER_BOUND ( 'NONE', #187, .T. ) ;
#460 = EDGE_LOOP ( 'NONE', ( #340, #631, #33, #407 ) ) ;
#461 = LINE ( 'NONE', #694, #317 ) ;
#462 = EDGE_CURVE ( 'NONE', #904, #714, #911, .T. ) ;
#463 = DIRECTION ( 'NONE',  ( -1.000000000000000000, 0.000000000000000000, 0.000000000000000000 ) ) ;
#464 = CARTESIAN_POINT ( 'NONE',  ( 15.00000000000000000, -16.06196909370040160, -9.228635763700403061 ) ) ;
#465 = ADVANCED_FACE ( 'NONE', ( #97 ), #677, .T. ) ;
#466 = ORIENTED_EDGE ( 'NONE', *, *, #777, .T. ) ;
#467 = ORIENTED_EDGE ( 'NONE', *, *, #828, .T. ) ;
#468 = EDGE_CURVE ( 'NONE', #146, #701, #584, .T. ) ;
#469 = EDGE_CURVE ( 'NONE', #358, #762, #23, .T. ) ;
#470 = CARTESIAN_POINT ( 'NONE',  ( 4.999999999999999112, -31.06196909370040515, 30.03803090296624489 ) ) ;
#471 = LINE ( 'NONE', #793, #798 ) ;
#472 = ORIENTED_EDGE ( 'NONE', *, *, #869, .T. ) ;
#473 = ORIENTED_EDGE ( 'NONE', *, *, #682, .T. ) ;
#474 = CYLINDRICAL_SURFACE ( 'NONE', #627, 19.63706921162200203 ) ;
#475 = VECTOR ( 'NONE', #490, 1000.000000000000000 ) ;
#476 = CARTESIAN_POINT ( 'NONE',  ( 13.00000000000000000, -77.46196909370040373, 30.03803090629958916 ) ) ;
#477 = EDGE_CURVE ( 'NONE', #762, #698, #310, .T. ) ;
#478 = ORIENTED_EDGE ( 'NONE', *, *, #753, .F. ) ;
#479 = ORIENTED_EDGE ( 'NONE', *, *, #765, .T. ) ;
#480 = DIRECTION ( 'NONE',  ( 1.000000000000000000, -0.000000000000000000, -0.000000000000000000 ) ) ;
#481 = VERTEX_POINT ( 'NONE', #598 ) ;
#482 = ORIENTED_EDGE ( 'NONE', *, *, #547, .T. ) ;
#483 = DIRECTION ( 'NONE',  ( 0.000000000000000000, 0.000000000000000000, -1.000000000000000000 ) ) ;
#484 = FACE_OUTER_BOUND ( 'NONE', #524, .T. ) ;
#485 = EDGE_CURVE ( 'NONE', #846, #535, #160, .T. ) ;
#486 = ORIENTED_EDGE ( 'NONE', *, *, #342, .F. ) ;
#487 = AXIS2_PLACEMENT_3D ( 'NONE', #210, #137, #808 ) ;
#488 = ADVANCED_FACE ( 'NONE', ( #12 ), #240, .F. ) ;
#489 = UNCERTAINTY_MEASURE_WITH_UNIT (LENGTH_MEASURE( 1.000000000000000082E-05 ), #20, 'distance_accuracy_value', 'NONE');
#490 = DIRECTION ( 'NONE',  ( 1.000000000000000000, -0.000000000000000000, -0.000000000000000000 ) ) ;
#491 = VECTOR ( 'NONE', #99, 1000.000000000000000 ) ;
#492 = VECTOR ( 'NONE', #365, 1000.000000000000000 ) ;
#493 = VERTEX_POINT ( 'NONE', #530 ) ;
#494 = EDGE_CURVE ( 'NONE', #738, #438, #89, .T. ) ;
#495 = CARTESIAN_POINT ( 'NONE',  ( 0.000000000000000000, -80.46196909370040373, 33.03803090629958916 ) ) ;
#496 = DIRECTION ( 'NONE',  ( 0.000000000000000000, -1.000000000000000000, -0.000000000000000000 ) ) ;
#497 = ORIENTED_EDGE ( 'NONE', *, *, #164, .F. ) ;
#498 = EDGE_CURVE ( 'NONE', #632, #331, #298, .T. ) ;
#499 = APPLICATION_CONTEXT ( 'configuration controlled 3d designs of mechanical parts and assemblies' ) ;
#500 = EDGE_CURVE ( 'NONE', #907, #411, #770, .T. ) ;
#501 = CARTESIAN_POINT ( 'NONE',  ( 13.00000000000000000, -77.46196909370040373, 30.03803090629958916 ) ) ;
#502 = DIRECTION ( 'NONE',  ( 0.000000000000000000, 0.000000000000000000, -1.000000000000000000 ) ) ;
#503 = EDGE_CURVE ( 'NONE', #661, #701, #102, .T. ) ;
#504 = ORIENTED_EDGE ( 'NONE', *, *, #763, .F. ) ;
#505 = VECTOR ( 'NONE', #271, 1000.000000000000000 ) ;
#506 = DIRECTION ( 'NONE',  ( -1.000000000000000000, 0.000000000000000000, -0.000000000000000000 ) ) ;
#507 = DIRECTION ( 'NONE',  ( -1.000000000000000000, -0.000000000000000000, -0.000000000000000000 ) ) ;
#508 = EDGE_CURVE ( 'NONE', #438, #412, #384, .T. ) ;
#509 = DIRECTION ( 'NONE',  ( 0.000000000000000000, 1.000000000000000000, 0.000000000000000000 ) ) ;
#510 = ORIENTED_EDGE ( 'NONE', *, *, #274, .F. ) ;
#511 = VECTOR ( 'NONE', #3, 1000.000000000000000 ) ;
#512 = FACE_OUTER_BOUND ( 'NONE', #45, .T. ) ;
#513 = LINE ( 'NONE', #373, #705 ) ;
#514 = CARTESIAN_POINT ( 'NONE',  ( 15.00000000000000000, -31.06196909370040515, 30.03803090296624489 ) ) ;
#515 = ORIENTED_EDGE ( 'NONE', *, *, #366, .T. ) ;
#516 = DIRECTION ( 'NONE',  ( -1.000000000000000000, -0.000000000000000000, 0.000000000000000000 ) ) ;
#517 = LINE ( 'NONE', #36, #527 ) ;
#518 = LINE ( 'NONE', #514, #543 ) ;
#519 = ORIENTED_EDGE ( 'NONE', *, *, #237, .F. ) ;
#520 = CARTESIAN_POINT ( 'NONE',  ( 15.00000000000000000, 33.03803090629959627, 33.03803090629958916 ) ) ;
#521 = AXIS2_PLACEMENT_3D ( 'NONE', #886, #803, #506 ) ;
#522 = DIRECTION ( 'NONE',  ( 0.000000000000000000, 0.000000000000000000, 1.000000000000000000 ) ) ;
#523 = APPLICATION_CONTEXT ( 'configuration controlled 3d designs of mechanical parts and assemblies' ) ;
#524 = EDGE_LOOP ( 'NONE', ( #270, #472, #870, #579 ) ) ;
#525 = VECTOR ( 'NONE', #737, 1000.000000000000000 ) ;
#526 = DIRECTION ( 'NONE',  ( 0.000000000000000000, 0.000000000000000000, -1.000000000000000000 ) ) ;
#527 = VECTOR ( 'NONE', #691, 1000.000000000000000 ) ;
#528 = APPROVAL_ROLE ( '' ) ;
#529 = EDGE_LOOP ( 'NONE', ( #180, #510, #119, #913 ) ) ;
#530 = CARTESIAN_POINT ( 'NONE',  ( 4.999999999999999112, -12.56196909370040338, 30.03803090296624489 ) ) ;
#531 = EDGE_CURVE ( 'NONE', #446, #331, #900, .T. ) ;
#532 = DATE_TIME_ROLE ( 'classification_date' ) ;
#533 = LINE ( 'NONE', #662, #950 ) ;
#534 = LINE ( 'NONE', #382, #919 ) ;
#535 = VERTEX_POINT ( 'NONE', #227 ) ;
#536 = CARTESIAN_POINT ( 'NONE',  ( 15.00000000000000000, 6.321057594998241491, 10.40469757296626163 ) ) ;
#537 = COORDINATED_UNIVERSAL_TIME_OFFSET ( 0, 0, .AHEAD. ) ;
#538 = DIRECTION ( 'NONE',  ( 0.000000000000000000, 0.000000000000000000, -1.000000000000000000 ) ) ;
#539 = LOCAL_TIME ( 18, 35, 25.00000000000000000, #104 ) ;
#540 = EDGE_LOOP ( 'NONE', ( #567, #88, #891, #702 ) ) ;
#541 = EDGE_CURVE ( 'NONE', #383, #839, #404, .T. ) ;
#542 = CARTESIAN_POINT ( 'NONE',  ( 4.999999999999999112, -16.06196909370040515, 30.03803090296624489 ) ) ;
#543 = VECTOR ( 'NONE', #149, 1000.000000000000000 ) ;
#544 = CC_DESIGN_PERSON_AND_ORGANIZATION_ASSIGNMENT ( #252, #606, ( #417 ) ) ;
#545 = LINE ( 'NONE', #338, #59 ) ;
#546 = FACE_BOUND ( 'NONE', #232, .T. ) ;
#547 = EDGE_CURVE ( 'NONE', #930, #225, #93, .T. ) ;
#548 = ORIENTED_EDGE ( 'NONE', *, *, #276, .F. ) ;
#549 = FACE_OUTER_BOUND ( 'NONE', #30, .T. ) ;
#550 = DIRECTION ( 'NONE',  ( -0.000000000000000000, 1.000000000000000000, 1.222712582186295884E-16 ) ) ;
#551 = EDGE_LOOP ( 'NONE', ( #486, #597, #320, #663 ) ) ;
#552 = ORIENTED_EDGE ( 'NONE', *, *, #650, .F. ) ;
#553 = CARTESIAN_POINT ( 'NONE',  ( 4.999999999999999112, -12.56196909370040338, 30.03803090296624489 ) ) ;
#554 = LINE ( 'NONE', #348, #505 ) ;
#555 = AXIS2_PLACEMENT_3D ( 'NONE', #476, #339, #483 ) ;
#556 = ORIENTED_EDGE ( 'NONE', *, *, #41, .T. ) ;
#557 = ORIENTED_EDGE ( 'NONE', *, *, #135, .T. ) ;
#558 = AXIS2_PLACEMENT_3D ( 'NONE', #458, #463, #190 ) ;
#559 = FACE_OUTER_BOUND ( 'NONE', #645, .T. ) ;
#560 = ORIENTED_EDGE ( 'NONE', *, *, #547, .F. ) ;
#561 = ORIENTED_EDGE ( 'NONE', *, *, #848, .T. ) ;
#562 = DIRECTION ( 'NONE',  ( 0.000000000000000000, -2.208900860751453358E-17, -1.000000000000000000 ) ) ;
#563 = CARTESIAN_POINT ( 'NONE',  ( 15.00000000000000000, -80.46196909370040373, 33.03803090629958916 ) ) ;
#564 = EDGE_LOOP ( 'NONE', ( #774, #862, #265, #625 ) ) ;
#565 = CARTESIAN_POINT ( 'NONE',  ( 4.999999999999999112, 2.438030906299596179, 30.03803090296624489 ) ) ;
#566 = LINE ( 'NONE', #947, #371 ) ;
#567 = ORIENTED_EDGE ( 'NONE', *, *, #200, .T. ) ;
#568 = EDGE_CURVE ( 'NONE', #790, #863, #246, .T. ) ;
#569 = EDGE_CURVE ( 'NONE', #815, #572, #376, .T. ) ;
#570 = CARTESIAN_POINT ( 'NONE',  ( 13.00000000000000000, -53.06196909370040515, 30.03803090629959627 ) ) ;
#571 = VECTOR ( 'NONE', #509, 1000.000000000000000 ) ;
#572 = VERTEX_POINT ( 'NONE', #587 ) ;
#573 = ADVANCED_FACE ( 'NONE', ( #633 ), #114, .F. ) ;
#574 = FACE_OUTER_BOUND ( 'NONE', #172, .T. ) ;
#575 = CARTESIAN_POINT ( 'NONE',  ( 4.999999999999999112, 5.938030906299581524, -9.228635760367057017 ) ) ;
#576 = EDGE_CURVE ( 'NONE', #641, #933, #461, .T. ) ;
#577 = CARTESIAN_POINT ( 'NONE',  ( 15.00000000000000000, -80.46196909370040373, 33.03803090629958916 ) ) ;
#578 = LINE ( 'NONE', #21, #118 ) ;
#579 = ORIENTED_EDGE ( 'NONE', *, *, #427, .T. ) ;
#580 = CC_DESIGN_PERSON_AND_ORGANIZATION_ASSIGNMENT ( #844, #306, ( #153 ) ) ;
#581 = CARTESIAN_POINT ( 'NONE',  ( 15.00000000000000000, -80.46196909370040373, 33.03803090629958916 ) ) ;
#582 = DIRECTION ( 'NONE',  ( 1.000000000000000000, -0.000000000000000000, -0.000000000000000000 ) ) ;
#583 = DIRECTION ( 'NONE',  ( 1.000000000000000000, -0.000000000000000000, -0.000000000000000000 ) ) ;
#584 = CIRCLE ( 'NONE', #70, 19.63706921162200203 ) ;
#585 = VERTEX_POINT ( 'NONE', #703 ) ;
#586 = AXIS2_PLACEMENT_3D ( 'NONE', #837, #177, #845 ) ;
#587 = CARTESIAN_POINT ( 'NONE',  ( 15.00000000000000000, 2.438030906299596179, 30.03803090296624489 ) ) ;
#588 = PLANE ( 'NONE',  #521 ) ;
#589 = DIRECTION ( 'NONE',  ( -0.000000000000000000, 1.000000000000000000, 1.222712582186295884E-16 ) ) ;
#590 = FACE_OUTER_BOUND ( 'NONE', #551, .T. ) ;
#591 = EDGE_LOOP ( 'NONE', ( #349, #4, #39, #466 ) ) ;
#592 = EDGE_CURVE ( 'NONE', #846, #839, #54, .T. ) ;
#593 = DIRECTION ( 'NONE',  ( 0.000000000000000000, 1.000000000000000000, -1.421904488505579408E-16 ) ) ;
#594 = APPROVAL_STATUS ( 'not_yet_approved' ) ;
#595 = DIRECTION ( 'NONE',  ( 0.000000000000000000, 0.000000000000000000, 1.000000000000000000 ) ) ;
#596 = DIRECTION ( 'NONE',  ( 0.000000000000000000, 1.156482317317871232E-16, -1.000000000000000000 ) ) ;
#597 = ORIENTED_EDGE ( 'NONE', *, *, #569, .F. ) ;
#598 = CARTESIAN_POINT ( 'NONE',  ( 15.00000000000000000, -31.06196909370040515, 30.03803090296624489 ) ) ;
#599 = CIRCLE ( 'NONE', #96, 19.63706921162200203 ) ;
#600 = SECURITY_CLASSIFICATION_LEVEL ( 'unclassified' ) ;
#601 = DIRECTION ( 'NONE',  ( -1.000000000000000000, 0.000000000000000000, -0.000000000000000000 ) ) ;
#602 = DIRECTION ( 'NONE',  ( 0.000000000000000000, -8.835603443005813433E-17, 1.000000000000000000 ) ) ;
#603 = EDGE_LOOP ( 'NONE', ( #101, #727, #812, #112 ) ) ;
#604 = EDGE_CURVE ( 'NONE', #714, #930, #710, .T. ) ;
#605 = VECTOR ( 'NONE', #305, 1000.000000000000000 ) ;
#606 = PERSON_AND_ORGANIZATION_ROLE ( 'creator' ) ;
#607 = FACE_OUTER_BOUND ( 'NONE', #408, .T. ) ;
#608 = EDGE_CURVE ( 'NONE', #797, #907, #618, .T. ) ;
#609 = DIRECTION ( 'NONE',  ( 0.000000000000000000, -1.000000000000000000, -2.312964634635744929E-16 ) ) ;
#610 = VERTEX_POINT ( 'NONE', #542 ) ;
#611 = CARTESIAN_POINT ( 'NONE',  ( 15.00000000000000000, 6.321057594998241491, 10.40469757296626163 ) ) ;
#612 = APPROVAL_STATUS ( 'not_yet_approved' ) ;
#613 = EDGE_CURVE ( 'NONE', #683, #632, #922, .T. ) ;
#614 = DIRECTION ( 'NONE',  ( 1.000000000000000000, -0.000000000000000000, -0.000000000000000000 ) ) ;
#615 = DIRECTION ( 'NONE',  ( 0.000000000000000000, 0.000000000000000000, -1.000000000000000000 ) ) ;
#616 = ORIENTED_EDGE ( 'NONE', *, *, #494, .T. ) ;
#617 = ADVANCED_FACE ( 'NONE', ( #8 ), #660, .F. ) ;
#618 = LINE ( 'NONE', #109, #749 ) ;
#619 = SHAPE_DEFINITION_REPRESENTATION ( #671, #152 ) ;
#620 = CARTESIAN_POINT ( 'NONE',  ( 15.00000000000000000, -34.56196909370040515, -9.228635763700403061 ) ) ;
#621 = EDGE_CURVE ( 'NONE', #535, #383, #443, .T. ) ;
#622 = VECTOR ( 'NONE', #672, 1000.000000000000000 ) ;
#623 = PLANE ( 'NONE',  #903 ) ;
#624 = LINE ( 'NONE', #917, #825 ) ;
#625 = ORIENTED_EDGE ( 'NONE', *, *, #541, .T. ) ;
#626 = CARTESIAN_POINT ( 'NONE',  ( 4.999999999999999112, -49.56196909370039094, 30.03803090296624489 ) ) ;
#627 = AXIS2_PLACEMENT_3D ( 'NONE', #849, #120, #700 ) ;
#628 = VECTOR ( 'NONE', #449, 1000.000000000000000 ) ;
#629 = LINE ( 'NONE', #924, #769 ) ;
#630 = CARTESIAN_POINT ( 'NONE',  ( 15.00000000000000000, -49.56196909370039094, -9.228635763700406613 ) ) ;
#631 = ORIENTED_EDGE ( 'NONE', *, *, #401, .F. ) ;
#632 = VERTEX_POINT ( 'NONE', #374 ) ;
#633 = FACE_OUTER_BOUND ( 'NONE', #920, .T. ) ;
#634 = PLANE ( 'NONE',  #586 ) ;
#635 = LINE ( 'NONE', #786, #279 ) ;
#636 = DIRECTION ( 'NONE',  ( -1.000000000000000000, -0.000000000000000000, -0.000000000000000000 ) ) ;
#637 = ORIENTED_EDGE ( 'NONE', *, *, #777, .F. ) ;
#638 = PLANE ( 'NONE',  #254 ) ;
#639 = ORGANIZATION ( 'UNSPECIFIED', 'UNSPECIFIED', '' ) ;
#640 = CARTESIAN_POINT ( 'NONE',  ( 13.00000000000000000, 0.000000000000000000, 0.000000000000000000 ) ) ;
#641 = VERTEX_POINT ( 'NONE', #428 ) ;
#642 = VECTOR ( 'NONE', #696, 1000.000000000000000 ) ;
#643 = LINE ( 'NONE', #563, #113 ) ;
#644 = CARTESIAN_POINT ( 'NONE',  ( 4.999999999999999112, 6.321057594998241491, -9.232371638655738622 ) ) ;
#645 = EDGE_LOOP ( 'NONE', ( #273, #157, #561, #781 ) ) ;
#646 = DIRECTION ( 'NONE',  ( 1.000000000000000000, -0.000000000000000000, -0.000000000000000000 ) ) ;
#647 = EDGE_CURVE ( 'NONE', #698, #194, #675, .T. ) ;
#648 = CARTESIAN_POINT ( 'NONE',  ( 4.999999999999999112, -31.06196909370040515, 30.03803090296624489 ) ) ;
#649 = FACE_OUTER_BOUND ( 'NONE', #656, .T. ) ;
#650 = EDGE_CURVE ( 'NONE', #815, #797, #811, .T. ) ;
#651 = PLANE ( 'NONE',  #669 ) ;
#652 =( NAMED_UNIT ( * ) PLANE_ANGLE_UNIT ( ) SI_UNIT ( $, .RADIAN. ) );
#653 = CARTESIAN_POINT ( 'NONE',  ( 15.00000000000000000, -80.46196909370040373, 33.03803090629958916 ) ) ;
#654 = VECTOR ( 'NONE', #697, 1000.000000000000000 ) ;
#655 = AXIS2_PLACEMENT_3D ( 'NONE', #15, #887, #595 ) ;
#656 = EDGE_LOOP ( 'NONE', ( #616, #429, #81, #196 ) ) ;
#657 = EDGE_CURVE ( 'NONE', #701, #839, #73, .T. ) ;
#658 = CARTESIAN_POINT ( 'NONE',  ( 4.999999999999999112, -49.56196909370039094, -9.228635763700406613 ) ) ;
#659 = FACE_OUTER_BOUND ( 'NONE', #876, .T. ) ;
#660 = PLANE ( 'NONE',  #385 ) ;
#661 = VERTEX_POINT ( 'NONE', #145 ) ;
#662 = CARTESIAN_POINT ( 'NONE',  ( 4.999999999999999112, -12.56196909370040338, 30.03803090296624489 ) ) ;
#663 = ORIENTED_EDGE ( 'NONE', *, *, #608, .T. ) ;
#664 = SECURITY_CLASSIFICATION ( '', '', #600 ) ;
#665 = CARTESIAN_POINT ( 'NONE',  ( 4.999999999999999112, -16.06196909370040515, 30.03803090296624489 ) ) ;
#666 = DIRECTION ( 'NONE',  ( 0.000000000000000000, 0.000000000000000000, -1.000000000000000000 ) ) ;
#667 = AXIS2_PLACEMENT_3D ( 'NONE', #755, #110, #91 ) ;
#668 = ORIENTED_EDGE ( 'NONE', *, *, #274, .T. ) ;
#669 = AXIS2_PLACEMENT_3D ( 'NONE', #648, #942, #277 ) ;
#670 = CARTESIAN_POINT ( 'NONE',  ( 15.00000000000000000, -31.06196909370040515, -9.228635763700403061 ) ) ;
#671 = PRODUCT_DEFINITION_SHAPE ( 'NONE', 'NONE',  #66 ) ;
#672 = DIRECTION ( 'NONE',  ( 1.000000000000000000, -0.000000000000000000, -0.000000000000000000 ) ) ;
#673 = CARTESIAN_POINT ( 'NONE',  ( 15.00000000000000000, -34.56196909370040515, 30.03803090296624489 ) ) ;
#674 = EDGE_CURVE ( 'NONE', #345, #572, #17, .T. ) ;
#675 = LINE ( 'NONE', #290, #571 ) ;
#676 = ORIENTED_EDGE ( 'NONE', *, *, #674, .F. ) ;
#677 = PLANE ( 'NONE',  #44 ) ;
#678 = APPROVAL ( #612, 'UNSPECIFIED' ) ;
#679 = CALENDAR_DATE ( 2026, 7, 9 ) ;
#680 = PLANE ( 'NONE',  #655 ) ;
#681 = FACE_OUTER_BOUND ( 'NONE', #204, .T. ) ;
#682 = EDGE_CURVE ( 'NONE', #258, #738, #303, .T. ) ;
#683 = VERTEX_POINT ( 'NONE', #441 ) ;
#684 = CARTESIAN_POINT ( 'NONE',  ( 4.999999999999999112, -12.56196909370040338, 30.03803090296624489 ) ) ;
#685 = LINE ( 'NONE', #464, #234 ) ;
#686 = ORIENTED_EDGE ( 'NONE', *, *, #485, .F. ) ;
#687 = VECTOR ( 'NONE', #182, 1000.000000000000000 ) ;
#688 = CARTESIAN_POINT ( 'NONE',  ( 15.00000000000000000, -34.56196909370040515, -9.228635763700403061 ) ) ;
#689 = EDGE_CURVE ( 'NONE', #225, #358, #578, .T. ) ;
#690 = PERSON_AND_ORGANIZATION ( #758, #639 ) ;
#691 = DIRECTION ( 'NONE',  ( -1.000000000000000000, -0.000000000000000000, -0.000000000000000000 ) ) ;
#692 = LINE ( 'NONE', #838, #654 ) ;
#693 = ORIENTED_EDGE ( 'NONE', *, *, #531, .T. ) ;
#694 = CARTESIAN_POINT ( 'NONE',  ( 15.00000000000000000, 33.03803090629959627, 33.03803090629958916 ) ) ;
#695 = CALENDAR_DATE ( 2026, 7, 9 ) ;
#696 = DIRECTION ( 'NONE',  ( 0.000000000000000000, 0.000000000000000000, 1.000000000000000000 ) ) ;
#697 = DIRECTION ( 'NONE',  ( -1.000000000000000000, -0.000000000000000000, -0.000000000000000000 ) ) ;
#698 = VERTEX_POINT ( 'NONE', #890 ) ;
#699 = ORIENTED_EDGE ( 'NONE', *, *, #302, .T. ) ;
#700 = DIRECTION ( 'NONE',  ( 0.000000000000000000, 0.000000000000000000, -1.000000000000000000 ) ) ;
#701 = VERTEX_POINT ( 'NONE', #220 ) ;
#702 = ORIENTED_EDGE ( 'NONE', *, *, #724, .T. ) ;
#703 = CARTESIAN_POINT ( 'NONE',  ( 4.999999999999999112, 6.321057594998244156, 30.04176678458826188 ) ) ;
#704 = VECTOR ( 'NONE', #895, 1000.000000000000000 ) ;
#705 = VECTOR ( 'NONE', #748, 1000.000000000000000 ) ;
#706 = CARTESIAN_POINT ( 'NONE',  ( 4.999999999999999112, 6.321057594998241491, 10.40469757296626163 ) ) ;
#707 = DIRECTION ( 'NONE',  ( 0.000000000000000000, 0.000000000000000000, -1.000000000000000000 ) ) ;
#708 = EDGE_LOOP ( 'NONE', ( #304, #69, #819, #557 ) ) ;
#709 = ORIENTED_EDGE ( 'NONE', *, *, #674, .T. ) ;
#710 = LINE ( 'NONE', #626, #810 ) ;
#711 = PLANE ( 'NONE',  #888 ) ;
#712 = ORIENTED_EDGE ( 'NONE', *, *, #931, .T. ) ;
#713 = EDGE_CURVE ( 'NONE', #481, #368, #518, .T. ) ;
#714 = VERTEX_POINT ( 'NONE', #823 ) ;
#715 = LINE ( 'NONE', #405, #776 ) ;
#716 = CC_DESIGN_APPROVAL ( #678, ( #66 ) ) ;
#717 = ORIENTED_EDGE ( 'NONE', *, *, #5, .T. ) ;
#718 = VERTEX_POINT ( 'NONE', #743 ) ;
#719 = ADVANCED_FACE ( 'NONE', ( #590 ), #224, .T. ) ;
#720 = AXIS2_PLACEMENT_3D ( 'NONE', #536, #439, #370 ) ;
#721 = VECTOR ( 'NONE', #312, 1000.000000000000000 ) ;
#722 = CARTESIAN_POINT ( 'NONE',  ( 4.999999999999999112, -16.06196909370040160, -9.228635763700403061 ) ) ;
#723 = APPROVAL ( #594, 'UNSPECIFIED' ) ;
#724 = EDGE_CURVE ( 'NONE', #641, #863, #692, .T. ) ;
#725 = DIRECTION ( 'NONE',  ( 1.000000000000000000, -0.000000000000000000, -0.000000000000000000 ) ) ;
#726 = LINE ( 'NONE', #64, #842 ) ;
#727 = ORIENTED_EDGE ( 'NONE', *, *, #843, .T. ) ;
#728 = EDGE_CURVE ( 'NONE', #331, #368, #685, .T. ) ;
#729 = PLANE ( 'NONE',  #284 ) ;
#730 = VECTOR ( 'NONE', #213, 1000.000000000000000 ) ;
#731 = ORIENTED_EDGE ( 'NONE', *, *, #469, .T. ) ;
#732 = APPLICATION_PROTOCOL_DEFINITION ( 'international standard', 'config_control_design', 1994, #499 ) ;
#733 = DIRECTION ( 'NONE',  ( 0.000000000000000000, 1.000000000000000000, 0.000000000000000000 ) ) ;
#734 = VECTOR ( 'NONE', #364, 1000.000000000000000 ) ;
#735 = ORIENTED_EDGE ( 'NONE', *, *, #592, .T. ) ;
#736 = FACE_OUTER_BOUND ( 'NONE', #708, .T. ) ;
#737 = DIRECTION ( 'NONE',  ( 0.000000000000000000, 1.000000000000000000, 0.000000000000000000 ) ) ;
#738 = VERTEX_POINT ( 'NONE', #387 ) ;
#739 = ADVANCED_FACE ( 'NONE', ( #459 ), #106, .F. ) ;
#740 = EDGE_CURVE ( 'NONE', #22, #847, #902, .T. ) ;
#741 = CARTESIAN_POINT ( 'NONE',  ( 4.999999999999999112, -31.06196909370040515, 30.03803090296624489 ) ) ;
#742 = CARTESIAN_POINT ( 'NONE',  ( 4.999999999999999112, 0.000000000000000000, 0.000000000000000000 ) ) ;
#743 = CARTESIAN_POINT ( 'NONE',  ( 0.000000000000000000, -80.46196909370040373, -12.22863576036707656 ) ) ;
#744 = ORIENTED_EDGE ( 'NONE', *, *, #503, .F. ) ;
#745 =( GEOMETRIC_REPRESENTATION_CONTEXT ( 3 ) GLOBAL_UNCERTAINTY_ASSIGNED_CONTEXT ( ( #489 ) ) GLOBAL_UNIT_ASSIGNED_CONTEXT ( ( #20, #652, #440 ) ) REPRESENTATION_CONTEXT ( 'NONE', 'WORKASPACE' ) );
#746 = ADVANCED_FACE ( 'NONE', ( #681 ), #623, .T. ) ;
#747 = PLANE ( 'NONE',  #201 ) ;
#748 = DIRECTION ( 'NONE',  ( 0.000000000000000000, -1.767120688451151171E-16, 1.000000000000000000 ) ) ;
#749 = VECTOR ( 'NONE', #251, 1000.000000000000000 ) ;
#750 = EDGE_LOOP ( 'NONE', ( #341, #74, #519, #56 ) ) ;
#751 = AXIS2_PLACEMENT_3D ( 'NONE', #243, #90, #601 ) ;
#752 = CARTESIAN_POINT ( 'NONE',  ( 0.000000000000000000, 33.03803090629959627, 33.03803090629958916 ) ) ;
#753 = EDGE_CURVE ( 'NONE', #797, #756, #37, .T. ) ;
#754 = CARTESIAN_POINT ( 'NONE',  ( 4.999999999999999112, -34.56196909370040515, -9.228635763700403061 ) ) ;
#755 = CARTESIAN_POINT ( 'NONE',  ( 4.999999999999999112, 5.938030906299589518, 30.03803090629958561 ) ) ;
#756 = VERTEX_POINT ( 'NONE', #761 ) ;
#757 = DIRECTION ( 'NONE',  ( 0.000000000000000000, 0.000000000000000000, 1.000000000000000000 ) ) ;
#758 = PERSON ( 'UNSPECIFIED', 'UNSPECIFIED', 'UNSPECIFIED', ('UNSPECIFIED'), ('UNSPECIFIED'), ('UNSPECIFIED') ) ;
#759 = COORDINATED_UNIVERSAL_TIME_OFFSET ( 0, 0, .AHEAD. ) ;
#760 = FACE_OUTER_BOUND ( 'NONE', #361, .T. ) ;
#761 = CARTESIAN_POINT ( 'NONE',  ( 4.999999999999999112, -12.56196909370040160, -9.228635763700403061 ) ) ;
#762 = VERTEX_POINT ( 'NONE', #630 ) ;
#763 = EDGE_CURVE ( 'NONE', #768, #953, #534, .T. ) ;
#764 = AXIS2_PLACEMENT_3D ( 'NONE', #147, #300, #71 ) ;
#765 = EDGE_CURVE ( 'NONE', #481, #632, #313, .T. ) ;
#766 = DIRECTION ( 'NONE',  ( 0.000000000000000000, -1.000000000000000000, -2.312964634635744929E-16 ) ) ;
#767 = CARTESIAN_POINT ( 'NONE',  ( 15.00000000000000000, -31.06196909370040515, 30.03803090296624489 ) ) ;
#768 = VERTEX_POINT ( 'NONE', #414 ) ;
#769 = VECTOR ( 'NONE', #248, 1000.000000000000000 ) ;
#770 = LINE ( 'NONE', #19, #297 ) ;
#771 = ORIENTED_EDGE ( 'NONE', *, *, #503, .T. ) ;
#772 = ORIENTED_EDGE ( 'NONE', *, *, #724, .F. ) ;
#773 = CARTESIAN_POINT ( 'NONE',  ( 15.00000000000000000, -12.56196909370040160, -9.228635763700403061 ) ) ;
#774 = ORIENTED_EDGE ( 'NONE', *, *, #592, .F. ) ;
#775 = EDGE_LOOP ( 'NONE', ( #426, #709, #261, #10 ) ) ;
#776 = VECTOR ( 'NONE', #116, 1000.000000000000000 ) ;
#777 = EDGE_CURVE ( 'NONE', #756, #411, #267, .T. ) ;
#778 = PLANE ( 'NONE',  #558 ) ;
#779 = DIRECTION ( 'NONE',  ( 0.000000000000000000, -1.421904488505579408E-16, -1.000000000000000000 ) ) ;
#780 = EDGE_LOOP ( 'NONE', ( #221, #859, #245, #467 ) ) ;
#781 = ORIENTED_EDGE ( 'NONE', *, *, #125, .F. ) ;
#782 = VECTOR ( 'NONE', #244, 1000.000000000000000 ) ;
#783 = AXIS2_PLACEMENT_3D ( 'NONE', #653, #878, #211 ) ;
#784 = LINE ( 'NONE', #105, #419 ) ;
#785 = ADVANCED_FACE ( 'NONE', ( #51 ), #860, .F. ) ;
#786 = CARTESIAN_POINT ( 'NONE',  ( 13.00000000000000000, -53.06196909370039805, -9.228635763700406613 ) ) ;
#787 = CARTESIAN_POINT ( 'NONE',  ( 13.00000000000000000, -53.06196909370040515, 30.03803090629959627 ) ) ;
#788 = VERTEX_POINT ( 'NONE', #856 ) ;
#789 = ORIENTED_EDGE ( 'NONE', *, *, #435, .T. ) ;
#790 = VERTEX_POINT ( 'NONE', #850 ) ;
#791 = ADVANCED_FACE ( 'NONE', ( #123 ), #711, .F. ) ;
#792 = CC_DESIGN_PERSON_AND_ORGANIZATION_ASSIGNMENT ( #448, #390, ( #664 ) ) ;
#793 = CARTESIAN_POINT ( 'NONE',  ( 4.999999999999999112, -34.56196909370040515, 30.03803090296624489 ) ) ;
#794 = LOCAL_TIME ( 18, 35, 25.00000000000000000, #537 ) ;
#795 = CARTESIAN_POINT ( 'NONE',  ( 0.000000000000000000, 0.000000000000000000, 0.000000000000000000 ) ) ;
#796 = CC_DESIGN_DATE_AND_TIME_ASSIGNMENT ( #235, #311, ( #66 ) ) ;
#797 = VERTEX_POINT ( 'NONE', #941 ) ;
#798 = VECTOR ( 'NONE', #725, 1000.000000000000000 ) ;
#799 = VECTOR ( 'NONE', #636, 1000.000000000000000 ) ;
#800 = CARTESIAN_POINT ( 'NONE',  ( 13.00000000000000000, -77.46196909370040373, -9.228635763700403061 ) ) ;
#801 = DIRECTION ( 'NONE',  ( 1.000000000000000000, 0.000000000000000000, 0.000000000000000000 ) ) ;
#802 = ORIENTED_EDGE ( 'NONE', *, *, #657, .T. ) ;
#803 = DIRECTION ( 'NONE',  ( 0.000000000000000000, 0.000000000000000000, -1.000000000000000000 ) ) ;
#804 = DIRECTION ( 'NONE',  ( 1.000000000000000000, -0.000000000000000000, -0.000000000000000000 ) ) ;
#805 = ORIENTED_EDGE ( 'NONE', *, *, #926, .T. ) ;
#806 = DIRECTION ( 'NONE',  ( 0.000000000000000000, -1.156482317317871725E-16, 1.000000000000000000 ) ) ;
#807 = PLANE ( 'NONE',  #783 ) ;
#808 = DIRECTION ( 'NONE',  ( -1.000000000000000000, 0.000000000000000000, -0.000000000000000000 ) ) ;
#809 = LINE ( 'NONE', #432, #46 ) ;
#810 = VECTOR ( 'NONE', #864, 1000.000000000000000 ) ;
#811 = LINE ( 'NONE', #879, #704 ) ;
#812 = ORIENTED_EDGE ( 'NONE', *, *, #164, .T. ) ;
#813 = CARTESIAN_POINT ( 'NONE',  ( 15.00000000000000000, -12.56196909370040338, 30.03803090296624489 ) ) ;
#814 = DIRECTION ( 'NONE',  ( 0.000000000000000000, 4.417801721502906717E-17, -1.000000000000000000 ) ) ;
#815 = VERTEX_POINT ( 'NONE', #565 ) ;
#816 = EDGE_CURVE ( 'NONE', #661, #846, #186, .T. ) ;
#817 = FACE_OUTER_BOUND ( 'NONE', #460, .T. ) ;
#818 = CARTESIAN_POINT ( 'NONE',  ( 15.00000000000000000, -53.06196909370040515, 30.03803090629959627 ) ) ;
#819 = ORIENTED_EDGE ( 'NONE', *, *, #869, .F. ) ;
#820 = ADVANCED_FACE ( 'NONE', ( #559 ), #638, .T. ) ;
#821 = CALENDAR_DATE ( 2026, 7, 9 ) ;
#822 = LINE ( 'NONE', #754, #921 ) ;
#823 = CARTESIAN_POINT ( 'NONE',  ( 4.999999999999999112, -49.56196909370039094, 30.03803090296624489 ) ) ;
#824 = ORIENTED_EDGE ( 'NONE', *, *, #401, .T. ) ;
#825 = VECTOR ( 'NONE', #256, 1000.000000000000000 ) ;
#826 = DIRECTION ( 'NONE',  ( 0.000000000000000000, 0.000000000000000000, 1.000000000000000000 ) ) ;
#827 = APPROVAL_ROLE ( '' ) ;
#828 = EDGE_CURVE ( 'NONE', #930, #194, #471, .T. ) ;
#829 = DIRECTION ( 'NONE',  ( -1.000000000000000000, 0.000000000000000000, 0.000000000000000000 ) ) ;
#830 = EDGE_LOOP ( 'NONE', ( #188, #18, #57, #731 ) ) ;
#831 = FACE_OUTER_BOUND ( 'NONE', #163, .T. ) ;
#832 = CARTESIAN_POINT ( 'NONE',  ( 13.00000000000000000, -53.06196909370040515, 30.03803090629959627 ) ) ;
#833 = ORIENTED_EDGE ( 'NONE', *, *, #462, .F. ) ;
#834 = DIRECTION ( 'NONE',  ( -1.000000000000000000, -0.000000000000000000, 0.000000000000000000 ) ) ;
#835 = LOCAL_TIME ( 18, 35, 25.00000000000000000, #34 ) ;
#836 = PERSON_AND_ORGANIZATION_ROLE ( 'creator' ) ;
#837 = CARTESIAN_POINT ( 'NONE',  ( 4.999999999999999112, 6.321057594998241491, 10.40469757296626163 ) ) ;
#838 = CARTESIAN_POINT ( 'NONE',  ( 15.00000000000000000, 33.03803090629959627, 33.03803090629958916 ) ) ;
#839 = VERTEX_POINT ( 'NONE', #62 ) ;
#840 = VECTOR ( 'NONE', #897, 1000.000000000000000 ) ;
#841 = MANIFOLD_SOLID_BREP ( 'Cut-Extrude2', #255 ) ;
#842 = VECTOR ( 'NONE', #733, 1000.000000000000000 ) ;
#843 = EDGE_CURVE ( 'NONE', #585, #146, #83, .T. ) ;
#844 = PERSON_AND_ORGANIZATION ( #758, #639 ) ;
#845 = DIRECTION ( 'NONE',  ( 0.000000000000000000, 0.000000000000000000, 1.000000000000000000 ) ) ;
#846 = VERTEX_POINT ( 'NONE', #932 ) ;
#847 = VERTEX_POINT ( 'NONE', #937 ) ;
#848 = EDGE_CURVE ( 'NONE', #446, #610, #554, .T. ) ;
#849 = CARTESIAN_POINT ( 'NONE',  ( 4.999999999999999112, 6.321057594998241491, 10.40469757296626163 ) ) ;
#850 = CARTESIAN_POINT ( 'NONE',  ( 0.000000000000000000, 33.03803090629959627, -12.22863576036706235 ) ) ;
#851 = EDGE_CURVE ( 'NONE', #194, #358, #715, .T. ) ;
#852 = ORIENTED_EDGE ( 'NONE', *, *, #816, .F. ) ;
#853 = ORIENTED_EDGE ( 'NONE', *, *, #728, .T. ) ;
#854 = EDGE_CURVE ( 'NONE', #287, #438, #865, .T. ) ;
#855 = FACE_OUTER_BOUND ( 'NONE', #309, .T. ) ;
#856 = CARTESIAN_POINT ( 'NONE',  ( 0.000000000000000000, -80.46196909370040373, 33.03803090629958916 ) ) ;
#857 = ADVANCED_FACE ( 'NONE', ( #649 ), #48, .F. ) ;
#858 = ORIENTED_EDGE ( 'NONE', *, *, #103, .T. ) ;
#859 = ORIENTED_EDGE ( 'NONE', *, *, #103, .F. ) ;
#860 = PLANE ( 'NONE',  #351 ) ;
#861 = EDGE_CURVE ( 'NONE', #126, #22, #635, .T. ) ;
#862 = ORIENTED_EDGE ( 'NONE', *, *, #485, .T. ) ;
#863 = VERTEX_POINT ( 'NONE', #132 ) ;
#864 = DIRECTION ( 'NONE',  ( 0.000000000000000000, 1.000000000000000000, 0.000000000000000000 ) ) ;
#865 = LINE ( 'NONE', #800, #914 ) ;
#866 = ORIENTED_EDGE ( 'NONE', *, *, #851, .F. ) ;
#867 = CARTESIAN_POINT ( 'NONE',  ( 4.999999999999999112, -12.56196909370040160, -9.228635763700403061 ) ) ;
#868 = FACE_BOUND ( 'NONE', #775, .T. ) ;
#869 = EDGE_CURVE ( 'NONE', #933, #768, #643, .T. ) ;
#870 = ORIENTED_EDGE ( 'NONE', *, *, #763, .T. ) ;
#871 = ADVANCED_FACE ( 'NONE', ( #421 ), #418, .F. ) ;
#872 = VECTOR ( 'NONE', #321, 1000.000000000000000 ) ;
#873 = VECTOR ( 'NONE', #589, 1000.000000000000000 ) ;
#874 = DIRECTION ( 'NONE',  ( 0.000000000000000000, -1.000000000000000000, -1.156482317317871725E-16 ) ) ;
#875 = CARTESIAN_POINT ( 'NONE',  ( 4.999999999999999112, -49.56196909370039094, 30.03803090296624489 ) ) ;
#876 = EDGE_LOOP ( 'NONE', ( #866, #168, #482, #884 ) ) ;
#877 = FACE_OUTER_BOUND ( 'NONE', #352, .T. ) ;
#878 = DIRECTION ( 'NONE',  ( -0.000000000000000000, 1.000000000000000000, 0.000000000000000000 ) ) ;
#879 = CARTESIAN_POINT ( 'NONE',  ( 4.999999999999999112, 2.438030906299596179, 30.03803090296624489 ) ) ;
#880 = ORIENTED_EDGE ( 'NONE', *, *, #326, .F. ) ;
#881 = MECHANICAL_CONTEXT ( 'NONE', #499, 'mechanical' ) ;
#882 = CARTESIAN_POINT ( 'NONE',  ( 4.999999999999999112, -31.06196909370040515, -9.228635763700403061 ) ) ;
#883 = AXIS2_PLACEMENT_3D ( 'NONE', #154, #372, #208 ) ;
#884 = ORIENTED_EDGE ( 'NONE', *, *, #689, .T. ) ;
#885 = VECTOR ( 'NONE', #593, 1000.000000000000000 ) ;
#886 = CARTESIAN_POINT ( 'NONE',  ( 4.999999999999999112, -12.56196909370040338, 30.03803090296624489 ) ) ;
#887 = DIRECTION ( 'NONE',  ( 0.000000000000000000, 1.000000000000000000, -0.000000000000000000 ) ) ;
#888 = AXIS2_PLACEMENT_3D ( 'NONE', #343, #779, #191 ) ;
#889 = ADVANCED_FACE ( 'NONE', ( #817 ), #6, .T. ) ;
#890 = CARTESIAN_POINT ( 'NONE',  ( 15.00000000000000000, -49.56196909370039094, 30.03803090296624489 ) ) ;
#891 = ORIENTED_EDGE ( 'NONE', *, *, #576, .F. ) ;
#892 = DIRECTION ( 'NONE',  ( 0.000000000000000000, -0.000000000000000000, -1.000000000000000000 ) ) ;
#893 = DIRECTION ( 'NONE',  ( 0.000000000000000000, 4.417801721502906717E-17, -1.000000000000000000 ) ) ;
#894 = CARTESIAN_POINT ( 'NONE',  ( 15.00000000000000000, -16.06196909370040160, -9.228635763700403061 ) ) ;
#895 = DIRECTION ( 'NONE',  ( 0.000000000000000000, 0.000000000000000000, -1.000000000000000000 ) ) ;
#896 = VERTEX_POINT ( 'NONE', #741 ) ;
#897 = DIRECTION ( 'NONE',  ( 1.000000000000000000, -0.000000000000000000, -0.000000000000000000 ) ) ;
#898 = CARTESIAN_POINT ( 'NONE',  ( 4.999999999999999112, -34.56196909370040515, -9.228635763700403061 ) ) ;
#899 = ORIENTED_EDGE ( 'NONE', *, *, #765, .F. ) ;
#900 = LINE ( 'NONE', #222, #840 ) ;
#901 = PERSON_AND_ORGANIZATION ( #758, #639 ) ;
#902 = LINE ( 'NONE', #832, #217 ) ;
#903 = AXIS2_PLACEMENT_3D ( 'NONE', #912, #42, #609 ) ;
#904 = VERTEX_POINT ( 'NONE', #658 ) ;
#905 = CARTESIAN_POINT ( 'NONE',  ( 4.999999999999999112, 6.321057594998241491, 10.40469757296626163 ) ) ;
#906 = PERSON_AND_ORGANIZATION_ROLE ( 'design_supplier' ) ;
#907 = VERTEX_POINT ( 'NONE', #144 ) ;
#908 = CARTESIAN_POINT ( 'NONE',  ( 4.999999999999999112, -34.56196909370040515, 30.03803090296624489 ) ) ;
#909 = ADVANCED_FACE ( 'NONE', ( #512 ), #218, .F. ) ;
#910 = DATE_AND_TIME ( #679, #539 ) ;
#911 = LINE ( 'NONE', #391, #642 ) ;
#912 = CARTESIAN_POINT ( 'NONE',  ( 4.999999999999999112, -34.56196909370040515, -9.228635763700403061 ) ) ;
#913 = ORIENTED_EDGE ( 'NONE', *, *, #854, .T. ) ;
#914 = VECTOR ( 'NONE', #480, 1000.000000000000000 ) ;
#915 = DATE_AND_TIME ( #695, #794 ) ;
#916 = CARTESIAN_POINT ( 'NONE',  ( 15.00000000000000000, -16.06196909370040515, 30.03803090296624489 ) ) ;
#917 = CARTESIAN_POINT ( 'NONE',  ( 4.999999999999999112, -12.56196909370040338, 30.03803090296624489 ) ) ;
#918 = EDGE_CURVE ( 'NONE', #610, #368, #359, .T. ) ;
#919 = VECTOR ( 'NONE', #550, 1000.000000000000000 ) ;
#920 = EDGE_LOOP ( 'NONE', ( #473, #278, #43, #398 ) ) ;
#921 = VECTOR ( 'NONE', #766, 1000.000000000000000 ) ;
#922 = LINE ( 'NONE', #882, #734 ) ;
#923 = APPROVAL ( #28, 'UNSPECIFIED' ) ;
#924 = CARTESIAN_POINT ( 'NONE',  ( 15.00000000000000000, 33.03803090629959627, 33.03803090629958916 ) ) ;
#925 = ORIENTED_EDGE ( 'NONE', *, *, #740, .T. ) ;
#926 = EDGE_CURVE ( 'NONE', #847, #287, #431, .T. ) ;
#927 = ADVANCED_FACE ( 'NONE', ( #1 ), #747, .T. ) ;
#928 = CARTESIAN_POINT ( 'NONE',  ( 15.00000000000000000, -12.56196909370040338, 30.03803090296624489 ) ) ;
#929 = EDGE_LOOP ( 'NONE', ( #853, #117, #216, #693 ) ) ;
#930 = VERTEX_POINT ( 'NONE', #288 ) ;
#931 = EDGE_CURVE ( 'NONE', #661, #585, #599, .T. ) ;
#932 = CARTESIAN_POINT ( 'NONE',  ( 15.00000000000000000, 5.938030906299591294, 30.03803090629958206 ) ) ;
#933 = VERTEX_POINT ( 'NONE', #581 ) ;
#934 = ORIENTED_EDGE ( 'NONE', *, *, #159, .F. ) ;
#935 = AXIS2_PLACEMENT_3D ( 'NONE', #87, #215, #68 ) ;
#936 = DESIGN_CONTEXT ( 'detailed design', #523, 'design' ) ;
#937 = CARTESIAN_POINT ( 'NONE',  ( 13.00000000000000000, -77.46196909370040373, 30.03803090629958916 ) ) ;
#938 = PLANE ( 'NONE',  #420 ) ;
#939 = ORIENTED_EDGE ( 'NONE', *, *, #843, .F. ) ;
#940 = EDGE_CURVE ( 'NONE', #788, #718, #285, .T. ) ;
#941 = CARTESIAN_POINT ( 'NONE',  ( 4.999999999999999112, 2.438030906299596179, -9.228635763700401284 ) ) ;
#942 = DIRECTION ( 'NONE',  ( 0.000000000000000000, -1.000000000000000000, -0.000000000000000000 ) ) ;
#943 = ORIENTED_EDGE ( 'NONE', *, *, #940, .F. ) ;
#944 = ADVANCED_FACE ( 'NONE', ( #877 ), #588, .T. ) ;
#945 = LOCAL_TIME ( 18, 35, 25.00000000000000000, #247 ) ;
#946 = DIRECTION ( 'NONE',  ( 0.000000000000000000, 1.000000000000000000, 8.835603443005813433E-17 ) ) ;
#947 = CARTESIAN_POINT ( 'NONE',  ( 4.999999999999999112, -31.06196909370040515, 30.03803090296624489 ) ) ;
#948 = EDGE_CURVE ( 'NONE', #345, #411, #84, .T. ) ;
#949 = AXIS2_PLACEMENT_3D ( 'NONE', #520, #158, #892 ) ;
#950 = VECTOR ( 'NONE', #236, 1000.000000000000000 ) ;
#951 = CARTESIAN_POINT ( 'NONE',  ( 4.999999999999999112, 2.438030906299596179, -9.228635763700401284 ) ) ;
#952 = PLANE ( 'NONE',  #299 ) ;
#953 = VERTEX_POINT ( 'NONE', #436 ) ;
ENDSEC;
END-ISO-10303-21;
