ISO-10303-21;
HEADER;
FILE_DESCRIPTION (( 'STEP AP203' ),
    '1' );
FILE_NAME ('ParasolPole.step',
    '2026-09-07T17:35:26',
    ( '' ),
    ( '' ),
    'SwSTEP 2.0',
    'SolidWorks 2026',
    '' );
FILE_SCHEMA (( 'CONFIG_CONTROL_DESIGN' ));
ENDSEC;

DATA;
#1 = DIRECTION ( 'NONE',  ( 0.000000000000000000, -0.000000000000000000, 1.000000000000000000 ) ) ;
#2 = SECURITY_CLASSIFICATION ( '', '', #83 ) ;
#3 = DIRECTION ( 'NONE',  ( 0.000000000000000000, 1.000000000000000000, 0.000000000000000000 ) ) ;
#4 = PERSON_AND_ORGANIZATION ( #145, #115 ) ;
#5 = CIRCLE ( 'NONE', #134, 1.500000000000000222 ) ;
#6 = PERSON_AND_ORGANIZATION_ROLE ( 'design_supplier' ) ;
#7 = ADVANCED_BREP_SHAPE_REPRESENTATION ( 'ParasolPole', ( #52, #90 ), #59 ) ;
#8 = APPROVAL_DATE_TIME ( #45, #58 ) ;
#9 = UNCERTAINTY_MEASURE_WITH_UNIT (LENGTH_MEASURE( 1.000000000000000082E-05 ), #165, 'distance_accuracy_value', 'NONE');
#10 = APPROVAL_DATE_TIME ( #154, #85 ) ;
#11 = CC_DESIGN_DATE_AND_TIME_ASSIGNMENT ( #84, #46, ( #142 ) ) ;
#12 = ORIENTED_EDGE ( 'NONE', *, *, #152, .T. ) ;
#13 = LINE ( 'NONE', #57, #41 ) ;
#14 = DIRECTION ( 'NONE',  ( 0.000000000000000000, 0.000000000000000000, -1.000000000000000000 ) ) ;
#15 = MECHANICAL_CONTEXT ( 'NONE', #135, 'mechanical' ) ;
#16 = CIRCLE ( 'NONE', #71, 1.500000000000000222 ) ;
#17 = APPROVAL_DATE_TIME ( #82, #117 ) ;
#18 = COORDINATED_UNIVERSAL_TIME_OFFSET ( 0, 0, .AHEAD. ) ;
#19 = CC_DESIGN_APPROVAL ( #85, ( #2 ) ) ;
#20 = EDGE_LOOP ( 'NONE', ( #172, #36, #23, #49 ) ) ;
#21 = CARTESIAN_POINT ( 'NONE',  ( 1.836970198721030181E-16, 77.00000000000000000, 1.500000000000000222 ) ) ;
#22 = PRODUCT_RELATED_PRODUCT_CATEGORY ( 'detail', '', ( #140 ) ) ;
#23 = ORIENTED_EDGE ( 'NONE', *, *, #105, .T. ) ;
#24 = VERTEX_POINT ( 'NONE', #21 ) ;
#25 = CARTESIAN_POINT ( 'NONE',  ( 0.000000000000000000, 77.00000000000000000, 0.000000000000000000 ) ) ;
#26 = ADVANCED_FACE ( 'NONE', ( #86 ), #50, .T. ) ;
#27 =( NAMED_UNIT ( * ) PLANE_ANGLE_UNIT ( ) SI_UNIT ( $, .RADIAN. ) );
#28 = DIRECTION ( 'NONE',  ( 1.000000000000000000, 0.000000000000000000, 0.000000000000000000 ) ) ;
#29 = PERSON_AND_ORGANIZATION ( #145, #115 ) ;
#30 = APPROVAL_ROLE ( '' ) ;
#31 = APPROVAL_STATUS ( 'not_yet_approved' ) ;
#32 = EDGE_CURVE ( 'NONE', #159, #24, #5, .T. ) ;
#33 = SHAPE_DEFINITION_REPRESENTATION ( #112, #7 ) ;
#34 = CIRCLE ( 'NONE', #156, 1.500000000000000222 ) ;
#35 = APPLICATION_CONTEXT ( 'configuration controlled 3d designs of mechanical parts and assemblies' ) ;
#36 = ORIENTED_EDGE ( 'NONE', *, *, #128, .T. ) ;
#37 = AXIS2_PLACEMENT_3D ( 'NONE', #170, #65, #114 ) ;
#38 = EDGE_LOOP ( 'NONE', ( #48, #74 ) ) ;
#39 = ORIENTED_EDGE ( 'NONE', *, *, #75, .T. ) ;
#40 = EDGE_LOOP ( 'NONE', ( #126, #102, #39, #12 ) ) ;
#41 = VECTOR ( 'NONE', #118, 1000.000000000000000 ) ;
#42 = DIRECTION ( 'NONE',  ( -0.000000000000000000, -1.000000000000000000, -0.000000000000000000 ) ) ;
#43 = DIRECTION ( 'NONE',  ( 0.000000000000000000, 1.000000000000000000, 0.000000000000000000 ) ) ;
#44 = CARTESIAN_POINT ( 'NONE',  ( 0.000000000000000000, 0.000000000000000000, 0.000000000000000000 ) ) ;
#45 = DATE_AND_TIME ( #72, #67 ) ;
#46 = DATE_TIME_ROLE ( 'creation_date' ) ;
#47 = APPROVAL_STATUS ( 'not_yet_approved' ) ;
#48 = ORIENTED_EDGE ( 'NONE', *, *, #32, .T. ) ;
#49 = ORIENTED_EDGE ( 'NONE', *, *, #75, .F. ) ;
#50 = CYLINDRICAL_SURFACE ( 'NONE', #37, 1.500000000000000222 ) ;
#51 = ADVANCED_FACE ( 'NONE', ( #107 ), #53, .F. ) ;
#52 = MANIFOLD_SOLID_BREP ( 'Boss-Extrude1', #113 ) ;
#53 = PLANE ( 'NONE',  #130 ) ;
#54 = AXIS2_PLACEMENT_3D ( 'NONE', #162, #68, #104 ) ;
#55 = CARTESIAN_POINT ( 'NONE',  ( 0.000000000000000000, 77.00000000000000000, -1.500000000000000222 ) ) ;
#56 =( NAMED_UNIT ( * ) SI_UNIT ( $, .STERADIAN. ) SOLID_ANGLE_UNIT ( ) );
#57 = CARTESIAN_POINT ( 'NONE',  ( 1.836970198721030181E-16, 77.00000000000000000, 1.500000000000000222 ) ) ;
#58 = APPROVAL ( #109, 'UNSPECIFIED' ) ;
#59 =( GEOMETRIC_REPRESENTATION_CONTEXT ( 3 ) GLOBAL_UNCERTAINTY_ASSIGNED_CONTEXT ( ( #9 ) ) GLOBAL_UNIT_ASSIGNED_CONTEXT ( ( #165, #27, #56 ) ) REPRESENTATION_CONTEXT ( 'NONE', 'WORKASPACE' ) );
#60 = CYLINDRICAL_SURFACE ( 'NONE', #150, 1.500000000000000222 ) ;
#61 = CC_DESIGN_PERSON_AND_ORGANIZATION_ASSIGNMENT ( #4, #136, ( #161 ) ) ;
#62 = PERSON_AND_ORGANIZATION_ROLE ( 'classification_officer' ) ;
#63 = PERSON_AND_ORGANIZATION_ROLE ( 'creator' ) ;
#64 = APPROVAL_ROLE ( '' ) ;
#65 = DIRECTION ( 'NONE',  ( -0.000000000000000000, -1.000000000000000000, -0.000000000000000000 ) ) ;
#66 = CC_DESIGN_PERSON_AND_ORGANIZATION_ASSIGNMENT ( #29, #80, ( #140 ) ) ;
#67 = LOCAL_TIME ( 18, 35, 26.00000000000000000, #98 ) ;
#68 = DIRECTION ( 'NONE',  ( 0.000000000000000000, 1.000000000000000000, 0.000000000000000000 ) ) ;
#69 = FACE_OUTER_BOUND ( 'NONE', #38, .T. ) ;
#70 = COORDINATED_UNIVERSAL_TIME_OFFSET ( 0, 0, .AHEAD. ) ;
#71 = AXIS2_PLACEMENT_3D ( 'NONE', #25, #149, #132 ) ;
#72 = CALENDAR_DATE ( 2026, 7, 9 ) ;
#73 = AXIS2_PLACEMENT_3D ( 'NONE', #119, #3, #106 ) ;
#74 = ORIENTED_EDGE ( 'NONE', *, *, #89, .T. ) ;
#75 = EDGE_CURVE ( 'NONE', #159, #141, #131, .T. ) ;
#76 = APPROVAL_PERSON_ORGANIZATION ( #122, #117, #30 ) ;
#77 = CARTESIAN_POINT ( 'NONE',  ( 0.000000000000000000, 77.00000000000000000, 0.000000000000000000 ) ) ;
#78 = CC_DESIGN_PERSON_AND_ORGANIZATION_ASSIGNMENT ( #124, #62, ( #2 ) ) ;
#79 = APPLICATION_PROTOCOL_DEFINITION ( 'international standard', 'config_control_design', 1994, #135 ) ;
#80 = PERSON_AND_ORGANIZATION_ROLE ( 'design_owner' ) ;
#81 = LOCAL_TIME ( 18, 35, 26.00000000000000000, #18 ) ;
#82 = DATE_AND_TIME ( #155, #81 ) ;
#83 = SECURITY_CLASSIFICATION_LEVEL ( 'unclassified' ) ;
#84 = DATE_AND_TIME ( #96, #127 ) ;
#85 = APPROVAL ( #47, 'UNSPECIFIED' ) ;
#86 = FACE_OUTER_BOUND ( 'NONE', #20, .T. ) ;
#87 = FACE_OUTER_BOUND ( 'NONE', #40, .T. ) ;
#88 = CARTESIAN_POINT ( 'NONE',  ( 1.836970198721030181E-16, 0.000000000000000000, 1.500000000000000222 ) ) ;
#89 = EDGE_CURVE ( 'NONE', #24, #159, #16, .T. ) ;
#90 = AXIS2_PLACEMENT_3D ( 'NONE', #148, #91, #28 ) ;
#91 = DIRECTION ( 'NONE',  ( 0.000000000000000000, 0.000000000000000000, 1.000000000000000000 ) ) ;
#92 = CARTESIAN_POINT ( 'NONE',  ( 0.000000000000000000, 0.000000000000000000, 0.000000000000000000 ) ) ;
#93 = PERSON_AND_ORGANIZATION ( #145, #115 ) ;
#94 = LOCAL_TIME ( 18, 35, 26.00000000000000000, #97 ) ;
#95 = CC_DESIGN_SECURITY_CLASSIFICATION ( #2, ( #161 ) ) ;
#96 = CALENDAR_DATE ( 2026, 7, 9 ) ;
#97 = COORDINATED_UNIVERSAL_TIME_OFFSET ( 0, 0, .AHEAD. ) ;
#98 = COORDINATED_UNIVERSAL_TIME_OFFSET ( 0, 0, .AHEAD. ) ;
#99 = CC_DESIGN_PERSON_AND_ORGANIZATION_ASSIGNMENT ( #93, #63, ( #142 ) ) ;
#100 = DESIGN_CONTEXT ( 'detailed design', #35, 'design' ) ;
#101 = VECTOR ( 'NONE', #42, 1000.000000000000000 ) ;
#102 = ORIENTED_EDGE ( 'NONE', *, *, #32, .F. ) ;
#103 = DIRECTION ( 'NONE',  ( 0.000000000000000000, 1.000000000000000000, 0.000000000000000000 ) ) ;
#104 = DIRECTION ( 'NONE',  ( 0.000000000000000000, 0.000000000000000000, 1.000000000000000000 ) ) ;
#105 = EDGE_CURVE ( 'NONE', #158, #141, #144, .T. ) ;
#106 = DIRECTION ( 'NONE',  ( 0.000000000000000000, -0.000000000000000000, 1.000000000000000000 ) ) ;
#107 = FACE_OUTER_BOUND ( 'NONE', #171, .T. ) ;
#108 = PERSON_AND_ORGANIZATION ( #145, #115 ) ;
#109 = APPROVAL_STATUS ( 'not_yet_approved' ) ;
#110 = ADVANCED_FACE ( 'NONE', ( #87 ), #60, .T. ) ;
#111 = DATE_TIME_ROLE ( 'classification_date' ) ;
#112 = PRODUCT_DEFINITION_SHAPE ( 'NONE', 'NONE',  #142 ) ;
#113 = CLOSED_SHELL ( 'NONE', ( #26, #110, #137, #51 ) ) ;
#114 = DIRECTION ( 'NONE',  ( 0.000000000000000000, 0.000000000000000000, -1.000000000000000000 ) ) ;
#115 = ORGANIZATION ( 'UNSPECIFIED', 'UNSPECIFIED', '' ) ;
#116 = PERSON_AND_ORGANIZATION ( #145, #115 ) ;
#117 = APPROVAL ( #31, 'UNSPECIFIED' ) ;
#118 = DIRECTION ( 'NONE',  ( -0.000000000000000000, -1.000000000000000000, -0.000000000000000000 ) ) ;
#119 = CARTESIAN_POINT ( 'NONE',  ( 0.000000000000000000, 77.00000000000000000, 0.000000000000000000 ) ) ;
#120 = DIRECTION ( 'NONE',  ( 0.000000000000000000, 0.000000000000000000, 1.000000000000000000 ) ) ;
#121 = LOCAL_TIME ( 18, 35, 26.00000000000000000, #70 ) ;
#122 = PERSON_AND_ORGANIZATION ( #145, #115 ) ;
#123 = APPROVAL_ROLE ( '' ) ;
#124 = PERSON_AND_ORGANIZATION ( #145, #115 ) ;
#125 = ORIENTED_EDGE ( 'NONE', *, *, #152, .F. ) ;
#126 = ORIENTED_EDGE ( 'NONE', *, *, #128, .F. ) ;
#127 = LOCAL_TIME ( 18, 35, 26.00000000000000000, #151 ) ;
#128 = EDGE_CURVE ( 'NONE', #24, #158, #13, .T. ) ;
#129 = DIRECTION ( 'NONE',  ( -0.000000000000000000, -1.000000000000000000, -0.000000000000000000 ) ) ;
#130 = AXIS2_PLACEMENT_3D ( 'NONE', #92, #173, #1 ) ;
#131 = LINE ( 'NONE', #55, #101 ) ;
#132 = DIRECTION ( 'NONE',  ( 0.000000000000000000, 0.000000000000000000, 1.000000000000000000 ) ) ;
#133 = APPLICATION_PROTOCOL_DEFINITION ( 'international standard', 'config_control_design', 1994, #35 ) ;
#134 = AXIS2_PLACEMENT_3D ( 'NONE', #169, #103, #143 ) ;
#135 = APPLICATION_CONTEXT ( 'configuration controlled 3d designs of mechanical parts and assemblies' ) ;
#136 = PERSON_AND_ORGANIZATION_ROLE ( 'creator' ) ;
#137 = ADVANCED_FACE ( 'NONE', ( #69 ), #175, .T. ) ;
#138 = CALENDAR_DATE ( 2026, 7, 9 ) ;
#139 = APPROVAL_PERSON_ORGANIZATION ( #116, #58, #64 ) ;
#140 = PRODUCT ( 'ParasolPole', 'ParasolPole', '', ( #15 ) ) ;
#141 = VERTEX_POINT ( 'NONE', #163 ) ;
#142 = PRODUCT_DEFINITION ( 'UNKNOWN', '', #161, #100 ) ;
#143 = DIRECTION ( 'NONE',  ( 0.000000000000000000, 0.000000000000000000, 1.000000000000000000 ) ) ;
#144 = CIRCLE ( 'NONE', #54, 1.500000000000000222 ) ;
#145 = PERSON ( 'UNSPECIFIED', 'UNSPECIFIED', 'UNSPECIFIED', ('UNSPECIFIED'), ('UNSPECIFIED'), ('UNSPECIFIED') ) ;
#146 = CARTESIAN_POINT ( 'NONE',  ( 0.000000000000000000, 77.00000000000000000, -1.500000000000000222 ) ) ;
#147 = CC_DESIGN_DATE_AND_TIME_ASSIGNMENT ( #166, #111, ( #2 ) ) ;
#148 = CARTESIAN_POINT ( 'NONE',  ( 0.000000000000000000, 0.000000000000000000, 0.000000000000000000 ) ) ;
#149 = DIRECTION ( 'NONE',  ( 0.000000000000000000, 1.000000000000000000, 0.000000000000000000 ) ) ;
#150 = AXIS2_PLACEMENT_3D ( 'NONE', #77, #129, #14 ) ;
#151 = COORDINATED_UNIVERSAL_TIME_OFFSET ( 0, 0, .AHEAD. ) ;
#152 = EDGE_CURVE ( 'NONE', #141, #158, #34, .T. ) ;
#153 = PERSON_AND_ORGANIZATION ( #145, #115 ) ;
#154 = DATE_AND_TIME ( #157, #94 ) ;
#155 = CALENDAR_DATE ( 2026, 7, 9 ) ;
#156 = AXIS2_PLACEMENT_3D ( 'NONE', #44, #43, #120 ) ;
#157 = CALENDAR_DATE ( 2026, 7, 9 ) ;
#158 = VERTEX_POINT ( 'NONE', #88 ) ;
#159 = VERTEX_POINT ( 'NONE', #146 ) ;
#160 = ORIENTED_EDGE ( 'NONE', *, *, #105, .F. ) ;
#161 = PRODUCT_DEFINITION_FORMATION_WITH_SPECIFIED_SOURCE ( 'ANY', '', #140, .NOT_KNOWN. ) ;
#162 = CARTESIAN_POINT ( 'NONE',  ( 0.000000000000000000, 0.000000000000000000, 0.000000000000000000 ) ) ;
#163 = CARTESIAN_POINT ( 'NONE',  ( 0.000000000000000000, 0.000000000000000000, -1.500000000000000222 ) ) ;
#164 = CC_DESIGN_APPROVAL ( #58, ( #142 ) ) ;
#165 =( LENGTH_UNIT ( ) NAMED_UNIT ( * ) SI_UNIT ( .MILLI., .METRE. ) );
#166 = DATE_AND_TIME ( #138, #121 ) ;
#167 = CC_DESIGN_PERSON_AND_ORGANIZATION_ASSIGNMENT ( #108, #6, ( #161 ) ) ;
#168 = APPROVAL_PERSON_ORGANIZATION ( #153, #85, #123 ) ;
#169 = CARTESIAN_POINT ( 'NONE',  ( 0.000000000000000000, 77.00000000000000000, 0.000000000000000000 ) ) ;
#170 = CARTESIAN_POINT ( 'NONE',  ( 0.000000000000000000, 77.00000000000000000, 0.000000000000000000 ) ) ;
#171 = EDGE_LOOP ( 'NONE', ( #125, #160 ) ) ;
#172 = ORIENTED_EDGE ( 'NONE', *, *, #89, .F. ) ;
#173 = DIRECTION ( 'NONE',  ( 0.000000000000000000, 1.000000000000000000, 0.000000000000000000 ) ) ;
#174 = CC_DESIGN_APPROVAL ( #117, ( #161 ) ) ;
#175 = PLANE ( 'NONE',  #73 ) ;
ENDSEC;
END-ISO-10303-21;
