ISO-10303-21;
HEADER;
FILE_DESCRIPTION (( 'STEP AP203' ),
    '1' );
FILE_NAME ('Parasol.step',
    '2026-09-07T17:35:26',
    ( '' ),
    ( '' ),
    'SwSTEP 2.0',
    'SolidWorks 2026',
    '' );
FILE_SCHEMA (( 'CONFIG_CONTROL_DESIGN' ));
ENDSEC;

DATA;
#1 = CARTESIAN_POINT ( 'NONE',  ( -11.72591550316763787, 19.99999999999999645, 9.160949591263783536E-14 ) ) ;
#2 = CARTESIAN_POINT ( 'NONE',  ( -5.527649578606930625, 19.99999999999999645, -9.436288079662713102 ) ) ;
#3 = ORIENTED_EDGE ( 'NONE', *, *, #92, .T. ) ;
#4 = CARTESIAN_POINT ( 'NONE',  ( 10.58110179141518259, 19.99999999999999645, -2.763824789303474638 ) ) ;
#5 = OPEN_SHELL ( 'NONE', ( #176 ) ) ;
#6 = CARTESIAN_POINT ( 'NONE',  ( -1.237441905347606552E-13, 13.33333333333333037, -23.45183100633527573 ) ) ;
#7 = ORIENTED_EDGE ( 'NONE', *, *, #362, .F. ) ;
#8 = CALENDAR_DATE ( 2026, 7, 9 ) ;
#9 = CARTESIAN_POINT ( 'NONE',  ( 4.825753689306764122E-15, 0.000000000000000000, 35.17774650950291715 ) ) ;
#10 = CARTESIAN_POINT ( 'NONE',  ( 26.93904570931988118, 1.232974883230860241, -17.23055568135179172 ) ) ;
#11 = APPROVAL_DATE_TIME ( #548, #220 ) ;
#12 = CARTESIAN_POINT ( 'NONE',  ( 0.000000000000000000, 19.99999999999999645, 0.000000000000000000 ) ) ;
#13 = CARTESIAN_POINT ( 'NONE',  ( -35.17774650950291715, 0.000000000000000000, 3.400058012914541905E-13 ) ) ;
#14 = CARTESIAN_POINT ( 'NONE',  ( 31.74330537424555132, 0.000000000000000000, -8.291474367910433685 ) ) ;
#15 = CARTESIAN_POINT ( 'NONE',  ( -0.9594911507023807795, 0.2503258273956578406, -34.56016479938246988 ) ) ;
#16 = CARTESIAN_POINT ( 'NONE',  ( -29.76889445072455231, 1.458495235234534615, 9.902998334465525687 ) ) ;
#17 = CARTESIAN_POINT ( 'NONE',  ( -1.919009825690782822, 0.5006588357223581420, 33.94256537310495503 ) ) ;
#18 = CARTESIAN_POINT ( 'NONE',  ( 28.05295224657931286, 1.458604373462090376, -14.04540901556056731 ) ) ;
#19 = FACE_OUTER_BOUND ( 'NONE', #487, .T. ) ;
#20 = ADVANCED_FACE ( 'NONE', ( #19 ), #320, .T. ) ;
#21 = PERSON_AND_ORGANIZATION ( #139, #627 ) ;
#22 = CARTESIAN_POINT ( 'NONE',  ( 35.17774650950291715, 0.000000000000000000, -9.640408386636845960E-14 ) ) ;
#23 = CARTESIAN_POINT ( 'NONE',  ( 32.01515901939932718, 1.055010680004477175, -5.364889496186057372 ) ) ;
#24 = CARTESIAN_POINT ( 'NONE',  ( 5.527649578606903091, 13.33333333333333037, 21.16220358283038294 ) ) ;
#25 = CARTESIAN_POINT ( 'NONE',  ( -21.16220358283033676, 13.33333333333333037, 5.527649578607074510 ) ) ;
#26 = CARTESIAN_POINT ( 'NONE',  ( 22.64407328528068675, 0.5006588357223572539, 25.35796300709974105 ) ) ;
#27 = PRODUCT_DEFINITION_SHAPE ( 'NONE', 'NONE',  #330 ) ;
#28 = CARTESIAN_POINT ( 'NONE',  ( -31.61765756244791348, 1.150243229285628388, -6.116526129976368686 ) ) ;
#29 = CARTESIAN_POINT ( 'NONE',  ( -24.87442310373067400, 0.000000000000000000, 24.87442310373115006 ) ) ;
#30 = EDGE_CURVE ( 'NONE', #233, #43, #623, .T. ) ;
#31 = CARTESIAN_POINT ( 'NONE',  ( 4.867170009899412619, 0.9851789702245721259, 32.28436299149024791 ) ) ;
#32 = CARTESIAN_POINT ( 'NONE',  ( -25.80882945688223629, 0.7469095482599543701, -21.01790780780567403 ) ) ;
#33 = CARTESIAN_POINT ( 'NONE',  ( -5.364889496186147078, 1.055010680004477619, -32.01515901939931297 ) ) ;
#34 = CARTESIAN_POINT ( 'NONE',  ( -16.58294873582060802, 13.33333333333333037, 16.58294873582061157 ) ) ;
#35 = CARTESIAN_POINT ( 'NONE',  ( 24.87442310373098664, 0.000000000000000000, 24.87442310373084453 ) ) ;
#36 = CARTESIAN_POINT ( 'NONE',  ( -2.359223927328457648E-13, 0.000000000000000000, -35.17774650950291715 ) ) ;
#37 = CARTESIAN_POINT ( 'NONE',  ( -22.64407328528082530, 0.5006588357223561436, -25.35796300709963447 ) ) ;
#38 = CARTESIAN_POINT ( 'NONE',  ( -26.93181234747020270, 1.242720610580048568, -17.22707724230842175 ) ) ;
#39 = MANIFOLD_SURFACE_SHAPE_REPRESENTATION ( 'Parasol', ( #468, #557 ), #335 ) ;
#40 = CARTESIAN_POINT ( 'NONE',  ( 0.000000000000000000, 19.99999999999999645, 0.000000000000000000 ) ) ;
#41 = CARTESIAN_POINT ( 'NONE',  ( 23.45183100633527928, 13.33333333333333037, -9.367506770274758310E-14 ) ) ;
#42 = FACE_OUTER_BOUND ( 'NONE', #334, .T. ) ;
#43 = VERTEX_POINT ( 'NONE', #555 ) ;
#44 = CARTESIAN_POINT ( 'NONE',  ( 31.48892216868481242, 1.178972950637036998, 6.364458625848622653 ) ) ;
#45 = CARTESIAN_POINT ( 'NONE',  ( 7.115765348376245747, 1.258033588057711816, -31.10596899984439290 ) ) ;
#46 = CARTESIAN_POINT ( 'NONE',  ( 4.825753689306764122E-15, 0.000000000000000000, 35.17774650950291715 ) ) ;
#47 = CARTESIAN_POINT ( 'NONE',  ( 18.57177647858232561, 1.088233581647643833, -26.51465087625629025 ) ) ;
#48 = VERTEX_POINT ( 'NONE', #293 ) ;
#49 = CARTESIAN_POINT ( 'NONE',  ( -35.17774650950291715, 0.000000000000000000, 3.400058012914541905E-13 ) ) ;
#50 = CARTESIAN_POINT ( 'NONE',  ( 11.05529915721363921, 13.33333333333333037, -18.87257615932556121 ) ) ;
#51 = VERTEX_POINT ( 'NONE', #445 ) ;
#52 = CARTESIAN_POINT ( 'NONE',  ( 0.000000000000000000, 19.99999999999999645, 0.000000000000000000 ) ) ;
#53 = CARTESIAN_POINT ( 'NONE',  ( 0.000000000000000000, 19.99999999999999645, 0.000000000000000000 ) ) ;
#54 = COORDINATED_UNIVERSAL_TIME_OFFSET ( 0, 0, .AHEAD. ) ;
#55 = CARTESIAN_POINT ( 'NONE',  ( 24.87442310373081611, 0.000000000000000000, -24.87442310373101151 ) ) ;
#56 = CARTESIAN_POINT ( 'NONE',  ( -10.58110179141521279, 19.99999999999999645, -2.763824789303352070 ) ) ;
#57 = CARTESIAN_POINT ( 'NONE',  ( 0.000000000000000000, 19.99999999999999645, 0.000000000000000000 ) ) ;
#58 = APPROVAL_ROLE ( '' ) ;
#59 = B_SPLINE_CURVE_WITH_KNOTS ( 'NONE', 3,
 ( #595, #397, #298, #248, #493, #354, #401, #239, #144, #154, #64, #540, #439, #341, #488, #251, #447, #387, #196, #339, #537, #452, #17, #9 ),
 .UNSPECIFIED., .F., .F.,
 ( 4, 2, 2, 2, 2, 2, 2, 2, 2, 2, 2, 4 ),
 ( -1.000000000000000000, -0.8750000000000002220, -0.8125000000000002220, -0.7812500000000000000, -0.7499999999999997780, -0.6249999999999998890, -0.5000000000000000000, -0.3750000000000001110, -0.3125000000000000000, -0.2812499999999998890, -0.2499999999999998890, -0.000000000000000000 ),
 .UNSPECIFIED. ) ;
#60 = CARTESIAN_POINT ( 'NONE',  ( 0.000000000000000000, 19.99999999999999645, 0.000000000000000000 ) ) ;
#61 = CARTESIAN_POINT ( 'NONE',  ( -9.436288079662791262, 19.99999999999999645, -5.527649578606796510 ) ) ;
#62 = CARTESIAN_POINT ( 'NONE',  ( -32.28436299149021238, 0.9851789702245723479, 4.867170009899675520 ) ) ;
#63 = PERSON_AND_ORGANIZATION ( #139, #627 ) ;
#64 = CARTESIAN_POINT ( 'NONE',  ( -16.16136097325744814, 1.335176947508790013, 27.28904515679440124 ) ) ;
#65 = CARTESIAN_POINT ( 'NONE',  ( 5.551115123125782702E-14, 0.000000000000000000, 35.17774650950291715 ) ) ;
#66 = CARTESIAN_POINT ( 'NONE',  ( -27.29480303320861267, 1.327417397565370250, 16.16446284347214046 ) ) ;
#67 = CALENDAR_DATE ( 2026, 7, 9 ) ;
#68 = CARTESIAN_POINT ( 'NONE',  ( 0.000000000000000000, 19.99999999999999645, 0.000000000000000000 ) ) ;
#69 = CARTESIAN_POINT ( 'NONE',  ( -18.87257615932558963, 13.33333333333333037, -11.05529915721359124 ) ) ;
#70 = PERSON_AND_ORGANIZATION ( #139, #627 ) ;
#71 = CARTESIAN_POINT ( 'NONE',  ( 0.000000000000000000, 19.99999999999999645, 0.000000000000000000 ) ) ;
#72 = CARTESIAN_POINT ( 'NONE',  ( 10.58110179141520035, 19.99999999999999645, 2.763824789303407137 ) ) ;
#73 = CARTESIAN_POINT ( 'NONE',  ( -2.763824789303435114, 19.99999999999999645, 10.58110179141519325 ) ) ;
#74 = CARTESIAN_POINT ( 'NONE',  ( -17.76567854481376330, 1.178972950637037664, -26.76638225065115151 ) ) ;
#75 = CARTESIAN_POINT ( 'NONE',  ( -11.05529915721373868, 13.33333333333333037, 18.87257615932550436 ) ) ;
#76 = LOCAL_TIME ( 18, 35, 26.00000000000000000, #393 ) ;
#77 = B_SPLINE_CURVE_WITH_KNOTS ( 'NONE', 3,
 ( #545, #170, #117, #29 ),
 .UNSPECIFIED., .F., .F.,
 ( 4, 4 ),
 ( 0.000000000000000000, 1.000000000000000000 ),
 .UNSPECIFIED. ) ;
#78 = CARTESIAN_POINT ( 'NONE',  ( 0.000000000000000000, 19.99999999999999645, 0.000000000000000000 ) ) ;
#79 = CARTESIAN_POINT ( 'NONE',  ( -2.359223927328457648E-13, 0.000000000000000000, -35.17774650950291715 ) ) ;
#80 = CARTESIAN_POINT ( 'NONE',  ( -26.68209717145202120, 1.150243229285628610, 18.03202296383010150 ) ) ;
#81 = CARTESIAN_POINT ( 'NONE',  ( -13.00344173745300047, 1.489212052475039405, -28.45653438444521299 ) ) ;
#82 = CARTESIAN_POINT ( 'NONE',  ( -25.37914152031493487, 0.4677772842344611881, -22.65784199242731489 ) ) ;
#83 = UNCERTAINTY_MEASURE_WITH_UNIT (LENGTH_MEASURE( 1.000000000000000082E-05 ), #515, 'distance_accuracy_value', 'NONE');
#84 = CARTESIAN_POINT ( 'NONE',  ( 20.46934597131059164, 0.8702330526220810603, 25.92597116287306847 ) ) ;
#85 = EDGE_CURVE ( 'NONE', #484, #532, #380, .T. ) ;
#86 = CARTESIAN_POINT ( 'NONE',  ( -24.87442310373090848, 0.000000000000000000, 24.87442310373091914 ) ) ;
#87 = APPROVAL_PERSON_ORGANIZATION ( #63, #220, #502 ) ;
#88 = CARTESIAN_POINT ( 'NONE',  ( 29.76803672530015987, 1.458604373462090154, 9.904828806417118159 ) ) ;
#89 = CARTESIAN_POINT ( 'NONE',  ( -11.72591550316763964, 19.99999999999999645, 1.118896642005040576E-13 ) ) ;
#90 = CARTESIAN_POINT ( 'NONE',  ( -1.879824140434301677E-13, 0.000000000000000000, -35.17774650950291715 ) ) ;
#91 = VERTEX_POINT ( 'NONE', #309 ) ;
#92 = EDGE_CURVE ( 'NONE', #185, #430, #617, .T. ) ;
#93 = EDGE_LOOP ( 'NONE', ( #137, #427, #97 ) ) ;
#94 = OPEN_SHELL ( 'NONE', ( #602 ) ) ;
#95 = B_SPLINE_CURVE_WITH_KNOTS ( 'NONE', 3,
 ( #36, #569, #509, #504 ),
 .UNSPECIFIED., .F., .F.,
 ( 4, 4 ),
 ( 0.000000000000000000, 1.000000000000000000 ),
 .UNSPECIFIED. ) ;
#96 = CARTESIAN_POINT ( 'NONE',  ( 0.000000000000000000, 19.99999999999999645, 0.000000000000000000 ) ) ;
#97 = ORIENTED_EDGE ( 'NONE', *, *, #516, .T. ) ;
#98 = CARTESIAN_POINT ( 'NONE',  ( 35.17774650950292425, 0.000000000000000000, -1.422473250300981817E-13 ) ) ;
#99 = CARTESIAN_POINT ( 'NONE',  ( 31.88091852208104626, 1.088233581647643611, -5.616460348708234740 ) ) ;
#100 = EDGE_LOOP ( 'NONE', ( #539, #3, #236 ) ) ;
#101 = CARTESIAN_POINT ( 'NONE',  ( 16.58294873582054407, 13.33333333333333037, -16.58294873582067197 ) ) ;
#102 = CARTESIAN_POINT ( 'NONE',  ( -28.30886423898838089, 0.000000000000000000, -16.58294873582038065 ) ) ;
#103 = B_SPLINE_CURVE_WITH_KNOTS ( 'NONE', 3,
 ( #231, #574, #479, #46 ),
 .UNSPECIFIED., .F., .F.,
 ( 4, 4 ),
 ( 0.000000000000000000, 1.000000000000000000 ),
 .UNSPECIFIED. ) ;
#104 = CARTESIAN_POINT ( 'NONE',  ( 0.000000000000000000, 19.99999999999999645, 0.000000000000000000 ) ) ;
#105 = PERSON_AND_ORGANIZATION_ROLE ( 'creator' ) ;
#106 = CARTESIAN_POINT ( 'NONE',  ( -24.87442310373107901, 0.000000000000000000, -24.87442310373074861 ) ) ;
#107 = CARTESIAN_POINT ( 'NONE',  ( 8.291474367910325327, 19.99999999999999645, 8.291474367910284471 ) ) ;
#108 = DATE_AND_TIME ( #112, #163 ) ;
#109 = EDGE_CURVE ( 'NONE', #382, #91, #95, .T. ) ;
#110 = CARTESIAN_POINT ( 'NONE',  ( 32.83183464503455440, 0.8321062496858454560, -3.878235582430987982 ) ) ;
#111 = CARTESIAN_POINT ( 'NONE',  ( -27.47950605249106815, 1.365951950326433684, 15.63379861577902297 ) ) ;
#112 = CALENDAR_DATE ( 2026, 7, 9 ) ;
#113 = CARTESIAN_POINT ( 'NONE',  ( 0.000000000000000000, 19.99999999999999645, 0.000000000000000000 ) ) ;
#114 = CARTESIAN_POINT ( 'NONE',  ( -24.87442310373111454, 0.000000000000000000, -24.87442310373071308 ) ) ;
#115 = CARTESIAN_POINT ( 'NONE',  ( -26.93904570931978881, 1.232974883230859797, 17.23055568135194449 ) ) ;
#116 = DATE_AND_TIME ( #556, #76 ) ;
#117 = CARTESIAN_POINT ( 'NONE',  ( -16.58294873582044815, 13.33333333333333037, 16.58294873582076434 ) ) ;
#118 = FACE_OUTER_BOUND ( 'NONE', #437, .T. ) ;
#119 = B_SPLINE_SURFACE_WITH_KNOTS ( 'NONE', 3, 3, ( 
 ( #114, #102, #303, #205 ),
 ( #292, #69, #489, #395 ),
 ( #299, #61, #56, #497 ),
 ( #247, #152, #348, #402 ) ),
 .UNSPECIFIED., .F., .F., .F.,
 ( 4, 4 ),
 ( 4, 4 ),
 ( 0.000000000000000000, 1.000000000000000000 ),
 ( 0.000000000000000000, 1.000000000000000000 ),
 .UNSPECIFIED. ) ;
#120 = CARTESIAN_POINT ( 'NONE',  ( -10.58110179141516483, 19.99999999999999645, 2.763824789303533702 ) ) ;
#121 = CARTESIAN_POINT ( 'NONE',  ( -18.03202296383000913, 1.150243229285628610, -26.68209717145207804 ) ) ;
#122 = CARTESIAN_POINT ( 'NONE',  ( -33.94256537310498345, 0.5006588357223561436, -1.919009825690509041 ) ) ;
#123 = PERSON_AND_ORGANIZATION ( #139, #627 ) ;
#124 = CARTESIAN_POINT ( 'NONE',  ( -1.237441905347606552E-13, 13.33333333333333037, -23.45183100633527573 ) ) ;
#125 = CARTESIAN_POINT ( 'NONE',  ( -26.19089865979389842, 0.9483544538816932601, -19.65824762057513908 ) ) ;
#126 = CARTESIAN_POINT ( 'NONE',  ( -4.867170009899577821, 0.9851789702245721259, -32.28436299149021949 ) ) ;
#127 = CARTESIAN_POINT ( 'NONE',  ( -16.58294873582060802, 13.33333333333333037, 16.58294873582061157 ) ) ;
#128 = CARTESIAN_POINT ( 'NONE',  ( 7.868460945081316105, 1.335176947508789791, 30.72407681986918249 ) ) ;
#129 = CARTESIAN_POINT ( 'NONE',  ( -26.43168578645265043, 1.055010680004477397, -18.84458630031317483 ) ) ;
#130 = B_SPLINE_SURFACE_WITH_KNOTS ( 'NONE', 3, 3, ( 
 ( #514, #268, #520, #420 ),
 ( #34, #75, #221, #172 ),
 ( #369, #260, #73, #317 ),
 ( #371, #518, #619, #174 ) ),
 .UNSPECIFIED., .F., .F., .F.,
 ( 4, 4 ),
 ( 4, 4 ),
 ( 0.000000000000000000, 1.000000000000000000 ),
 ( 0.000000000000000000, 1.000000000000000000 ),
 .UNSPECIFIED. ) ;
#131 = CARTESIAN_POINT ( 'NONE',  ( -24.87442310373107901, 0.000000000000000000, -24.87442310373074861 ) ) ;
#132 = B_SPLINE_CURVE_WITH_KNOTS ( 'NONE', 3,
 ( #355, #15, #598, #156, #223, #365, #126, #33, #607, #604, #409, #316, #462, #81, #570, #263, #517, #216, #561, #74, #121, #307, #37, #503 ),
 .UNSPECIFIED., .F., .F.,
 ( 4, 2, 2, 2, 2, 2, 2, 2, 2, 2, 2, 4 ),
 ( -1.000000000000000000, -0.8750000000000012212, -0.8125000000000015543, -0.7812500000000017764, -0.7500000000000019984, -0.6250000000000022204, -0.5000000000000023315, -0.3750000000000025535, -0.3125000000000025535, -0.2812500000000022204, -0.2500000000000019984, -0.000000000000000000 ),
 .UNSPECIFIED. ) ;
#133 = CARTESIAN_POINT ( 'NONE',  ( 0.000000000000000000, 19.99999999999999645, 0.000000000000000000 ) ) ;
#134 = CARTESIAN_POINT ( 'NONE',  ( 13.00344230653111666, 1.489210291689023080, -28.45653575832231752 ) ) ;
#135 = EDGE_CURVE ( 'NONE', #386, #629, #351, .T. ) ;
#136 = VERTEX_POINT ( 'NONE', #410 ) ;
#137 = ORIENTED_EDGE ( 'NONE', *, *, #135, .F. ) ;
#138 = CARTESIAN_POINT ( 'NONE',  ( 35.17774650950292425, 0.000000000000000000, -1.422473250300981817E-13 ) ) ;
#139 = PERSON ( 'UNSPECIFIED', 'UNSPECIFIED', 'UNSPECIFIED', ('UNSPECIFIED'), ('UNSPECIFIED'), ('UNSPECIFIED') ) ;
#140 = CARTESIAN_POINT ( 'NONE',  ( 24.87442310373098664, 0.000000000000000000, 24.87442310373084453 ) ) ;
#141 = ORIENTED_EDGE ( 'NONE', *, *, #353, .F. ) ;
#142 = CARTESIAN_POINT ( 'NONE',  ( 25.37914152031481763, 0.4677772842344614102, 22.65784199242744634 ) ) ;
#143 = CARTESIAN_POINT ( 'NONE',  ( 6.864939133858168674, 1.232974883230860241, -31.23262466565070028 ) ) ;
#144 = CARTESIAN_POINT ( 'NONE',  ( -18.57177647858246772, 1.088233581647643833, 26.51465087625619432 ) ) ;
#145 = CARTESIAN_POINT ( 'NONE',  ( 0.000000000000000000, 19.99999999999999645, 0.000000000000000000 ) ) ;
#146 = COORDINATED_UNIVERSAL_TIME_OFFSET ( 0, 0, .AHEAD. ) ;
#147 = CARTESIAN_POINT ( 'NONE',  ( 0.000000000000000000, 19.99999999999999645, 0.000000000000000000 ) ) ;
#148 = CARTESIAN_POINT ( 'NONE',  ( 25.35796300709969842, 0.5006588357223582531, -22.64407328528075070 ) ) ;
#149 = CARTESIAN_POINT ( 'NONE',  ( 16.58294873582062934, 13.33333333333333037, 16.58294873582058671 ) ) ;
#150 = PERSON_AND_ORGANIZATION ( #139, #627 ) ;
#151 = CARTESIAN_POINT ( 'NONE',  ( 24.87442310373095111, 0.000000000000000000, 24.87442310373087651 ) ) ;
#152 = CARTESIAN_POINT ( 'NONE',  ( 0.000000000000000000, 19.99999999999999645, 0.000000000000000000 ) ) ;
#153 = B_SPLINE_CURVE_WITH_KNOTS ( 'NONE', 3,
 ( #553, #398, #254, #596, #110, #159, #295, #23, #99, #195, #242, #209, #198, #406, #18, #440, #546, #500, #10, #392, #593, #201, #148, #342 ),
 .UNSPECIFIED., .F., .F.,
 ( 4, 2, 2, 2, 2, 2, 2, 2, 2, 2, 2, 4 ),
 ( -1.000000000000000000, -0.8750000000000002220, -0.8125000000000003331, -0.7812500000000002220, -0.7500000000000001110, -0.6250000000000004441, -0.5000000000000006661, -0.3750000000000009992, -0.3125000000000011102, -0.2812500000000009992, -0.2500000000000007772, -0.000000000000000000 ),
 .UNSPECIFIED. ) ;
#154 = CARTESIAN_POINT ( 'NONE',  ( -17.22707724230863136, 1.242720610580048346, 26.93181234747006769 ) ) ;
#155 = CC_DESIGN_DATE_AND_TIME_ASSIGNMENT ( #161, #344, ( #330 ) ) ;
#156 = CARTESIAN_POINT ( 'NONE',  ( -3.387693186195427586, 0.7469095482599545921, -33.11150346070162698 ) ) ;
#157 = CARTESIAN_POINT ( 'NONE',  ( -28.45653438444519168, 1.489212052475040071, 13.00344173745308396 ) ) ;
#158 = CARTESIAN_POINT ( 'NONE',  ( -8.291474367910359078, 19.99999999999999645, -8.291474367910248944 ) ) ;
#159 = CARTESIAN_POINT ( 'NONE',  ( 32.42024224646294073, 0.9483544538816931491, -4.619281848956799053 ) ) ;
#160 = CARTESIAN_POINT ( 'NONE',  ( 24.87442310373098664, 0.000000000000000000, 24.87442310373084453 ) ) ;
#161 = DATE_AND_TIME ( #599, #213 ) ;
#162 = CARTESIAN_POINT ( 'NONE',  ( 23.45183100633527573, 13.33333333333333037, -6.269197041671952911E-14 ) ) ;
#163 = LOCAL_TIME ( 18, 35, 26.00000000000000000, #454 ) ;
#164 = CARTESIAN_POINT ( 'NONE',  ( -23.45183100633527928, 13.33333333333333037, 2.255140518769849223E-13 ) ) ;
#165 = CARTESIAN_POINT ( 'NONE',  ( 11.72591550316763787, 19.99999999999999645, -3.055727579459670294E-14 ) ) ;
#166 = CARTESIAN_POINT ( 'NONE',  ( -30.73034160679006987, 1.327417397565370472, -7.870339025075874240 ) ) ;
#167 = APPLICATION_PROTOCOL_DEFINITION ( 'international standard', 'config_control_design', 1994, #417 ) ;
#168 = CARTESIAN_POINT ( 'NONE',  ( -6.108338585361726599E-14, 19.99999999999999645, -11.72591550316763787 ) ) ;
#169 = CARTESIAN_POINT ( 'NONE',  ( -8.291474367910304011, 19.99999999999999645, 8.291474367910304011 ) ) ;
#170 = CARTESIAN_POINT ( 'NONE',  ( -8.291474367910224075, 19.99999999999999645, 8.291474367910382171 ) ) ;
#171 = CARTESIAN_POINT ( 'NONE',  ( 3.387693186195255723, 0.7469095482599543701, 33.11150346070163408 ) ) ;
#172 = CARTESIAN_POINT ( 'NONE',  ( 1.639750298678386435E-15, 13.33333333333333037, 23.45183100633527573 ) ) ;
#173 = CARTESIAN_POINT ( 'NONE',  ( 16.58294873582065421, 13.33333333333333037, 16.58294873582056894 ) ) ;
#174 = CARTESIAN_POINT ( 'NONE',  ( 0.000000000000000000, 19.99999999999999645, 0.000000000000000000 ) ) ;
#175 = CARTESIAN_POINT ( 'NONE',  ( -8.291474367910518950, 0.000000000000000000, -31.74330537424552290 ) ) ;
#176 = ADVANCED_FACE ( 'NONE', ( #458 ), #130, .T. ) ;
#177 = CARTESIAN_POINT ( 'NONE',  ( 33.94256537310496924, 0.5006588357223579200, 1.919009825690694004 ) ) ;
#178 = CARTESIAN_POINT ( 'NONE',  ( 20.47328623692341765, 0.8321062496858454560, -25.95793959567530607 ) ) ;
#179 = ORIENTED_EDGE ( 'NONE', *, *, #266, .T. ) ;
#180 = CARTESIAN_POINT ( 'NONE',  ( 29.31663026362652857, 1.489212052475040293, 10.92698660099229002 ) ) ;
#181 = CARTESIAN_POINT ( 'NONE',  ( -11.05529915721386303, 13.33333333333333037, -18.87257615932542620 ) ) ;
#182 = EDGE_LOOP ( 'NONE', ( #141, #279, #375 ) ) ;
#183 = CARTESIAN_POINT ( 'NONE',  ( 0.000000000000000000, 19.99999999999999645, 0.000000000000000000 ) ) ;
#184 = CARTESIAN_POINT ( 'NONE',  ( 9.904828806417043552, 1.458604373462090598, -29.76803672530018474 ) ) ;
#185 = VERTEX_POINT ( 'NONE', #86 ) ;
#186 = CARTESIAN_POINT ( 'NONE',  ( -23.45183100633527573, 13.33333333333333037, 1.847964106528017687E-13 ) ) ;
#187 = CARTESIAN_POINT ( 'NONE',  ( 8.376180056451127953, 1.365951950326433684, -30.48571009029537393 ) ) ;
#188 = VERTEX_POINT ( 'NONE', #272 ) ;
#189 = ADVANCED_FACE ( 'NONE', ( #470 ), #507, .T. ) ;
#190 = OPEN_SHELL ( 'NONE', ( #189 ) ) ;
#191 = CARTESIAN_POINT ( 'NONE',  ( -24.87442310373111454, 0.000000000000000000, -24.87442310373071308 ) ) ;
#192 = CARTESIAN_POINT ( 'NONE',  ( 8.291474367910261378, 19.99999999999999645, -8.291474367910348420 ) ) ;
#193 = VERTEX_POINT ( 'NONE', #576 ) ;
#194 = CARTESIAN_POINT ( 'NONE',  ( 9.436288079662727313, 19.99999999999999645, -5.527649578606905756 ) ) ;
#195 = CARTESIAN_POINT ( 'NONE',  ( 31.22505027860052351, 1.242720610580047902, -6.862284002478910239 ) ) ;
#196 = CARTESIAN_POINT ( 'NONE',  ( -6.864939133858329434, 1.232974883230860241, 31.23262466565067541 ) ) ;
#197 = EDGE_CURVE ( 'NONE', #478, #530, #443, .T. ) ;
#198 = CARTESIAN_POINT ( 'NONE',  ( 29.31663163750338441, 1.489210291689022858, -10.92698717007094800 ) ) ;
#199 = CARTESIAN_POINT ( 'NONE',  ( -34.56016479938245567, 0.2503258273956577851, 0.9594911507024832531 ) ) ;
#200 = CARTESIAN_POINT ( 'NONE',  ( 0.000000000000000000, 19.99999999999999645, 0.000000000000000000 ) ) ;
#201 = CARTESIAN_POINT ( 'NONE',  ( 25.92597116287301873, 0.8702330526220799500, -20.46934597131065914 ) ) ;
#202 = APPROVAL_STATUS ( 'not_yet_approved' ) ;
#203 = CARTESIAN_POINT ( 'NONE',  ( -8.291474367910369736, 19.99999999999999645, -8.291474367910240062 ) ) ;
#204 = B_SPLINE_CURVE_WITH_KNOTS ( 'NONE', 3,
 ( #455, #453, #252, #449 ),
 .UNSPECIFIED., .F., .F.,
 ( 4, 4 ),
 ( 0.000000000000000000, 1.000000000000000000 ),
 .UNSPECIFIED. ) ;
#205 = CARTESIAN_POINT ( 'NONE',  ( -35.17774650950291715, 0.000000000000000000, 2.795607442204918884E-13 ) ) ;
#206 = CARTESIAN_POINT ( 'NONE',  ( 24.87442310373095111, 0.000000000000000000, 24.87442310373087651 ) ) ;
#207 = APPROVAL_DATE_TIME ( #290, #322 ) ;
#208 =( NAMED_UNIT ( * ) PLANE_ANGLE_UNIT ( ) SI_UNIT ( $, .RADIAN. ) );
#209 = CARTESIAN_POINT ( 'NONE',  ( 29.76889445072462337, 1.458495235234534837, -9.902998334465360486 ) ) ;
#210 = CARTESIAN_POINT ( 'NONE',  ( 5.527649578606880887, 19.99999999999999645, 9.436288079662741524 ) ) ;
#211 = PRODUCT_RELATED_PRODUCT_CATEGORY ( 'detail', '', ( #218 ) ) ;
#212 = CARTESIAN_POINT ( 'NONE',  ( 24.87442310373095111, 0.000000000000000000, 24.87442310373087651 ) ) ;
#213 = LOCAL_TIME ( 18, 35, 26.00000000000000000, #404 ) ;
#214 = CARTESIAN_POINT ( 'NONE',  ( -25.92597116287289793, 0.8702330526220810603, 20.46934597131080125 ) ) ;
#215 = CARTESIAN_POINT ( 'NONE',  ( 0.000000000000000000, 19.99999999999999645, 0.000000000000000000 ) ) ;
#216 = CARTESIAN_POINT ( 'NONE',  ( -16.96363568399943844, 1.258033588057712260, -27.02684754633757080 ) ) ;
#217 = CARTESIAN_POINT ( 'NONE',  ( -30.48571009029538814, 1.365951950326433462, -8.376180056451051570 ) ) ;
#218 = PRODUCT ( 'Parasol', 'Parasol', '', ( #405 ) ) ;
#219 = CARTESIAN_POINT ( 'NONE',  ( 0.000000000000000000, 19.99999999999999645, 0.000000000000000000 ) ) ;
#220 = APPROVAL ( #300, 'UNSPECIFIED' ) ;
#221 = CARTESIAN_POINT ( 'NONE',  ( -5.527649578606869341, 13.33333333333333037, 21.16220358283039005 ) ) ;
#222 = CC_DESIGN_PERSON_AND_ORGANIZATION_ASSIGNMENT ( #70, #446, ( #498 ) ) ;
#223 = CARTESIAN_POINT ( 'NONE',  ( -3.878235582431075912, 0.8321062496858454560, -32.83183464503455440 ) ) ;
#224 = CARTESIAN_POINT ( 'NONE',  ( -31.23262466565072870, 1.232974883230860241, -6.864939133858086961 ) ) ;
#225 = CC_DESIGN_APPROVAL ( #567, ( #498 ) ) ;
#226 = CARTESIAN_POINT ( 'NONE',  ( 5.364889496185981876, 1.055010680004477841, 32.01515901939934139 ) ) ;
#227 = CARTESIAN_POINT ( 'NONE',  ( -29.76803672530021316, 1.458604373462090376, -9.904828806416967169 ) ) ;
#228 = CARTESIAN_POINT ( 'NONE',  ( 31.61765756244787440, 1.150243229285628388, 6.116526129976533888 ) ) ;
#229 = CARTESIAN_POINT ( 'NONE',  ( -1.561251128379126385E-13, 13.33333333333333037, -23.45183100633527928 ) ) ;
#230 = ORIENTED_EDGE ( 'NONE', *, *, #483, .F. ) ;
#231 = CARTESIAN_POINT ( 'NONE',  ( 0.000000000000000000, 19.99999999999999645, 0.000000000000000000 ) ) ;
#232 = CARTESIAN_POINT ( 'NONE',  ( -1.879824140434301677E-13, 0.000000000000000000, -35.17774650950291715 ) ) ;
#233 = VERTEX_POINT ( 'NONE', #140 ) ;
#234 = CARTESIAN_POINT ( 'NONE',  ( 35.17774650950291715, 0.000000000000000000, -9.640408386636845960E-14 ) ) ;
#235 = CARTESIAN_POINT ( 'NONE',  ( 6.364458625848541828, 1.178972950637036998, -31.48892216868482663 ) ) ;
#236 = ORIENTED_EDGE ( 'NONE', *, *, #472, .T. ) ;
#237 = CARTESIAN_POINT ( 'NONE',  ( -23.45183100633527928, 13.33333333333333037, 2.255140518769849223E-13 ) ) ;
#238 = ORIENTED_EDGE ( 'NONE', *, *, #280, .T. ) ;
#239 = CARTESIAN_POINT ( 'NONE',  ( -18.84458630031338444, 1.055010680004477619, 26.43168578645249767 ) ) ;
#240 = ORIENTED_EDGE ( 'NONE', *, *, #465, .T. ) ;
#241 = CARTESIAN_POINT ( 'NONE',  ( -24.87442310373107901, 0.000000000000000000, -24.87442310373074861 ) ) ;
#242 = CARTESIAN_POINT ( 'NONE',  ( 30.72407681986917538, 1.335176947508790457, -7.868460945081397817 ) ) ;
#243 = PERSON_AND_ORGANIZATION ( #139, #627 ) ;
#244 = B_SPLINE_CURVE_WITH_KNOTS ( 'NONE', 3,
 ( #464, #168, #124, #314 ),
 .UNSPECIFIED., .F., .F.,
 ( 4, 4 ),
 ( 0.000000000000000000, 1.000000000000000000 ),
 .UNSPECIFIED. ) ;
#245 = ADVANCED_FACE ( 'NONE', ( #42 ), #471, .T. ) ;
#246 = CARTESIAN_POINT ( 'NONE',  ( -16.58294873582071816, 13.33333333333333037, -16.58294873582049789 ) ) ;
#247 = CARTESIAN_POINT ( 'NONE',  ( 0.000000000000000000, 19.99999999999999645, 0.000000000000000000 ) ) ;
#248 = CARTESIAN_POINT ( 'NONE',  ( -21.01790780780587653, 0.7469095482599545921, 25.80882945688206576 ) ) ;
#249 = CARTESIAN_POINT ( 'NONE',  ( 0.000000000000000000, 19.99999999999999645, 0.000000000000000000 ) ) ;
#250 = CARTESIAN_POINT ( 'NONE',  ( -32.01515901939929165, 1.055010680004477175, 5.364889496186242113 ) ) ;
#251 = CARTESIAN_POINT ( 'NONE',  ( -8.376180056451284273, 1.365951950326433684, 30.48571009029532775 ) ) ;
#252 = CARTESIAN_POINT ( 'NONE',  ( 16.58294873582054407, 13.33333333333333037, -16.58294873582067197 ) ) ;
#253 = PERSON_AND_ORGANIZATION ( #139, #627 ) ;
#254 = CARTESIAN_POINT ( 'NONE',  ( 33.96727678960643715, 0.4677772842344613546, -1.924249349808953236 ) ) ;
#255 = CARTESIAN_POINT ( 'NONE',  ( -31.22505027860048443, 1.242720610580047680, 6.862284002479088763 ) ) ;
#256 = PERSON_AND_ORGANIZATION_ROLE ( 'classification_officer' ) ;
#257 = CARTESIAN_POINT ( 'NONE',  ( -31.74330537424550158, 0.000000000000000000, 8.291474367910614873 ) ) ;
#258 = CARTESIAN_POINT ( 'NONE',  ( 16.96363568399928923, 1.258033588057712482, 27.02684754633765962 ) ) ;
#259 = B_SPLINE_CURVE_WITH_KNOTS ( 'NONE', 3,
 ( #368, #513, #308, #171, #508, #459, #31, #226, #419, #563, #128, #457, #519, #618, #361, #318, #412, #258, #568, #269, #611, #84, #26, #212 ),
 .UNSPECIFIED., .F., .F.,
 ( 4, 2, 2, 2, 2, 2, 2, 2, 2, 2, 2, 4 ),
 ( -1.000000000000000000, -0.8750000000000009992, -0.8125000000000015543, -0.7812500000000016653, -0.7500000000000017764, -0.6250000000000013323, -0.5000000000000009992, -0.3750000000000006661, -0.3125000000000005551, -0.2812500000000005551, -0.2500000000000006661, -0.000000000000000000 ),
 .UNSPECIFIED. ) ;
#260 = CARTESIAN_POINT ( 'NONE',  ( -5.527649578606870229, 19.99999999999999645, 9.436288079662748629 ) ) ;
#261 = CARTESIAN_POINT ( 'NONE',  ( 11.72591550316763787, 19.99999999999999645, -3.055727579459670294E-14 ) ) ;
#262 = OPEN_SHELL ( 'NONE', ( #565 ) ) ;
#263 = CARTESIAN_POINT ( 'NONE',  ( -15.63379861577894303, 1.365951950326433462, -27.47950605249110012 ) ) ;
#264 = CARTESIAN_POINT ( 'NONE',  ( -29.31663026362659252, 1.489212052475040071, -10.92698660099214081 ) ) ;
#265 = CARTESIAN_POINT ( 'NONE',  ( -28.30886423898808957, 0.000000000000000000, 16.58294873582088513 ) ) ;
#266 = EDGE_CURVE ( 'NONE', #188, #581, #204, .T. ) ;
#267 = CARTESIAN_POINT ( 'NONE',  ( 28.30886423898829563, 0.000000000000000000, 16.58294873582052986 ) ) ;
#268 = CARTESIAN_POINT ( 'NONE',  ( -16.58294873582060092, -0.000000000000000000, 28.30886423898825299 ) ) ;
#269 = CARTESIAN_POINT ( 'NONE',  ( 17.76567854481362829, 1.178972950637037442, 26.76638225065124033 ) ) ;
#270 = CARTESIAN_POINT ( 'NONE',  ( -31.10596899984440711, 1.258033588057712704, -7.115765348376167587 ) ) ;
#271 = CARTESIAN_POINT ( 'NONE',  ( -24.87442310373111454, 0.000000000000000000, -24.87442310373071308 ) ) ;
#272 = CARTESIAN_POINT ( 'NONE',  ( 0.000000000000000000, 19.99999999999999645, 0.000000000000000000 ) ) ;
#273 = OPEN_SHELL ( 'NONE', ( #245 ) ) ;
#274 = CARTESIAN_POINT ( 'NONE',  ( 26.43168578645254030, 1.055010680004477397, 18.84458630031331339 ) ) ;
#275 = CARTESIAN_POINT ( 'NONE',  ( 6.116526129976453952, 1.150243229285628388, -31.61765756244790282 ) ) ;
#276 = ORIENTED_EDGE ( 'NONE', *, *, #425, .T. ) ;
#277 = CARTESIAN_POINT ( 'NONE',  ( 30.73034160679002014, 1.327417397565370027, 7.870339025076028783 ) ) ;
#278 = CARTESIAN_POINT ( 'NONE',  ( 21.01790780780574508, 0.7469095482599545921, -25.80882945688218300 ) ) ;
#279 = ORIENTED_EDGE ( 'NONE', *, *, #109, .T. ) ;
#280 = EDGE_CURVE ( 'NONE', #379, #584, #554, .T. ) ;
#281 = CARTESIAN_POINT ( 'NONE',  ( 23.75926418941785911, 0.2503258273956578961, -25.11618958771806476 ) ) ;
#282 = ORIENTED_EDGE ( 'NONE', *, *, #448, .T. ) ;
#283 = CARTESIAN_POINT ( 'NONE',  ( 0.000000000000000000, 19.99999999999999645, 0.000000000000000000 ) ) ;
#284 = CARTESIAN_POINT ( 'NONE',  ( 7.870339025075950623, 1.327417397565370472, -30.73034160679005922 ) ) ;
#285 = ORIENTED_EDGE ( 'NONE', *, *, #30, .T. ) ;
#286 = CARTESIAN_POINT ( 'NONE',  ( 23.45183100633527928, 13.33333333333333037, -9.367506770274758310E-14 ) ) ;
#287 = CARTESIAN_POINT ( 'NONE',  ( 0.000000000000000000, 19.99999999999999645, 0.000000000000000000 ) ) ;
#288 = VERTEX_POINT ( 'NONE', #340 ) ;
#289 = EDGE_CURVE ( 'NONE', #193, #581, #153, .T. ) ;
#290 = DATE_AND_TIME ( #8, #291 ) ;
#291 = LOCAL_TIME ( 18, 35, 26.00000000000000000, #146 ) ;
#292 = CARTESIAN_POINT ( 'NONE',  ( -16.58294873582074302, 13.33333333333333037, -16.58294873582048012 ) ) ;
#293 = CARTESIAN_POINT ( 'NONE',  ( 0.000000000000000000, 19.99999999999999645, 0.000000000000000000 ) ) ;
#294 = APPROVAL_STATUS ( 'not_yet_approved' ) ;
#295 = CARTESIAN_POINT ( 'NONE',  ( 32.28436299149023370, 0.9851789702245721259, -4.867170009899490779 ) ) ;
#296 = CARTESIAN_POINT ( 'NONE',  ( -32.83183464503454019, 0.8321062496858455670, 3.878235582431174944 ) ) ;
#297 = APPROVAL_DATE_TIME ( #108, #567 ) ;
#298 = CARTESIAN_POINT ( 'NONE',  ( -22.65784199242752095, 0.4677772842344612991, 25.37914152031476434 ) ) ;
#299 = CARTESIAN_POINT ( 'NONE',  ( -8.291474367910369736, 19.99999999999999645, -8.291474367910240062 ) ) ;
#300 = APPROVAL_STATUS ( 'not_yet_approved' ) ;
#301 = CARTESIAN_POINT ( 'NONE',  ( 28.30886423898818194, 0.000000000000000000, -16.58294873582072526 ) ) ;
#302 = ADVANCED_FACE ( 'NONE', ( #541 ), #119, .T. ) ;
#303 = CARTESIAN_POINT ( 'NONE',  ( -31.74330537424564724, 0.000000000000000000, -8.291474367910051768 ) ) ;
#304 = CARTESIAN_POINT ( 'NONE',  ( 2.763824789303447993, 19.99999999999999645, 10.58110179141518969 ) ) ;
#305 = APPROVAL_ROLE ( '' ) ;
#306 = CARTESIAN_POINT ( 'NONE',  ( 0.000000000000000000, 19.99999999999999645, 0.000000000000000000 ) ) ;
#307 = CARTESIAN_POINT ( 'NONE',  ( -20.46934597131072664, 0.8702330526220800611, -25.92597116287296544 ) ) ;
#308 = CARTESIAN_POINT ( 'NONE',  ( 1.924249349808869303, 0.4677772842344611881, 33.96727678960643004 ) ) ;
#309 = CARTESIAN_POINT ( 'NONE',  ( 0.000000000000000000, 19.99999999999999645, 0.000000000000000000 ) ) ;
#310 = EDGE_CURVE ( 'NONE', #288, #379, #525, .T. ) ;
#311 = APPLICATION_CONTEXT ( 'configuration controlled 3d designs of mechanical parts and assemblies' ) ;
#312 = APPLICATION_PROTOCOL_DEFINITION ( 'international standard', 'config_control_design', 1994, #311 ) ;
#313 = B_SPLINE_SURFACE_WITH_KNOTS ( 'NONE', 3, 3, ( 
 ( #360, #257, #265, #461 ),
 ( #164, #25, #606, #614 ),
 ( #407, #120, #560, #364 ),
 ( #68, #306, #78, #71 ) ),
 .UNSPECIFIED., .F., .F., .F.,
 ( 4, 4 ),
 ( 4, 4 ),
 ( 0.000000000000000000, 1.000000000000000000 ),
 ( 0.000000000000000000, 1.000000000000000000 ),
 .UNSPECIFIED. ) ;
#314 = CARTESIAN_POINT ( 'NONE',  ( -1.879824140434301677E-13, 0.000000000000000000, -35.17774650950291715 ) ) ;
#315 = CARTESIAN_POINT ( 'NONE',  ( -31.48892216868484795, 1.178972950637037442, -6.364458625848460116 ) ) ;
#316 = CARTESIAN_POINT ( 'NONE',  ( -9.902998334465440422, 1.458495235234534615, -29.76889445072459139 ) ) ;
#317 = CARTESIAN_POINT ( 'NONE',  ( 3.116573557613136755E-17, 19.99999999999999645, 11.72591550316763787 ) ) ;
#318 = CARTESIAN_POINT ( 'NONE',  ( 15.63379861577879737, 1.365951950326433684, 27.47950605249118183 ) ) ;
#319 = CARTESIAN_POINT ( 'NONE',  ( -28.45653575832233528, 1.489210291689022636, -13.00344230653103850 ) ) ;
#320 = B_SPLINE_SURFACE_WITH_KNOTS ( 'NONE', 3, 3, ( 
 ( #559, #456, #399, #206 ),
 ( #349, #24, #547, #149 ),
 ( #343, #304, #210, #490 ),
 ( #501, #543, #359, #104 ) ),
 .UNSPECIFIED., .F., .F., .F.,
 ( 4, 4 ),
 ( 4, 4 ),
 ( 0.000000000000000000, 1.000000000000000000 ),
 ( 0.000000000000000000, 1.000000000000000000 ),
 .UNSPECIFIED. ) ;
#321 = CARTESIAN_POINT ( 'NONE',  ( 26.27010091675846581, 0.9851789702245723479, 19.38688307838305747 ) ) ;
#322 = APPROVAL ( #202, 'UNSPECIFIED' ) ;
#323 = CARTESIAN_POINT ( 'NONE',  ( -5.527649578607010561, 13.33333333333333037, -21.16220358283035097 ) ) ;
#324 = CARTESIAN_POINT ( 'NONE',  ( 16.16136097325730958, 1.335176947508790235, -27.28904515679449361 ) ) ;
#325 = ORIENTED_EDGE ( 'NONE', *, *, #197, .F. ) ;
#326 = B_SPLINE_CURVE_WITH_KNOTS ( 'NONE', 3,
 ( #200, #158, #246, #241 ),
 .UNSPECIFIED., .F., .F.,
 ( 4, 4 ),
 ( 0.000000000000000000, 1.000000000000000000 ),
 .UNSPECIFIED. ) ;
#327 = CARTESIAN_POINT ( 'NONE',  ( 26.51465087625624761, 1.088233581647644055, 18.57177647858239311 ) ) ;
#328 = CARTESIAN_POINT ( 'NONE',  ( -7.632783294297951215E-14, 19.99999999999999645, -11.72591550316763787 ) ) ;
#329 = VERTEX_POINT ( 'NONE', #106 ) ;
#330 = PRODUCT_DEFINITION ( 'UNKNOWN', '', #498, #467 ) ;
#331 = CARTESIAN_POINT ( 'NONE',  ( 16.58294873582052276, 13.33333333333333037, -16.58294873582070039 ) ) ;
#332 = CC_DESIGN_PERSON_AND_ORGANIZATION_ASSIGNMENT ( #150, #601, ( #498 ) ) ;
#333 = CARTESIAN_POINT ( 'NONE',  ( 24.87442310373078058, 0.000000000000000000, -24.87442310373104704 ) ) ;
#334 = EDGE_LOOP ( 'NONE', ( #325, #240, #475 ) ) ;
#335 =( GEOMETRIC_REPRESENTATION_CONTEXT ( 3 ) GLOBAL_UNCERTAINTY_ASSIGNED_CONTEXT ( ( #83 ) ) GLOBAL_UNIT_ASSIGNED_CONTEXT ( ( #515, #208, #414 ) ) REPRESENTATION_CONTEXT ( 'NONE', 'WORKASPACE' ) );
#336 = CARTESIAN_POINT ( 'NONE',  ( 26.19089865979379894, 0.9483544538816932601, 19.65824762057528119 ) ) ;
#337 = CARTESIAN_POINT ( 'NONE',  ( 8.291474367910135257, 0.000000000000000000, -31.74330537424562593 ) ) ;
#338 = ORIENTED_EDGE ( 'NONE', *, *, #289, .F. ) ;
#339 = CARTESIAN_POINT ( 'NONE',  ( -6.364458625848707030, 1.178972950637037442, 31.48892216868479821 ) ) ;
#340 = CARTESIAN_POINT ( 'NONE',  ( 5.551115123125782702E-14, 0.000000000000000000, 35.17774650950291715 ) ) ;
#341 = CARTESIAN_POINT ( 'NONE',  ( -10.92698660099236818, 1.489212052475039849, 29.31663026362651081 ) ) ;
#342 = CARTESIAN_POINT ( 'NONE',  ( 24.87442310373081611, 0.000000000000000000, -24.87442310373101151 ) ) ;
#343 = CARTESIAN_POINT ( 'NONE',  ( 1.561251128379126385E-14, 19.99999999999999645, 11.72591550316763787 ) ) ;
#344 = DATE_TIME_ROLE ( 'creation_date' ) ;
#345 = LOCAL_TIME ( 18, 35, 26.00000000000000000, #54 ) ;
#346 = CC_DESIGN_SECURITY_CLASSIFICATION ( #521, ( #498 ) ) ;
#347 = FACE_OUTER_BOUND ( 'NONE', #587, .T. ) ;
#348 = CARTESIAN_POINT ( 'NONE',  ( 0.000000000000000000, 19.99999999999999645, 0.000000000000000000 ) ) ;
#349 = CARTESIAN_POINT ( 'NONE',  ( 3.469446951953614189E-14, 13.33333333333333037, 23.45183100633527928 ) ) ;
#350 = CARTESIAN_POINT ( 'NONE',  ( 0.000000000000000000, 19.99999999999999645, 0.000000000000000000 ) ) ;
#351 = B_SPLINE_CURVE_WITH_KNOTS ( 'NONE', 3,
 ( #416, #460, #82, #32, #366, #125, #572, #129, #463, #38, #363, #422, #319, #264, #227, #217, #166, #270, #224, #315, #28, #562, #122, #608 ),
 .UNSPECIFIED., .F., .F.,
 ( 4, 2, 2, 2, 2, 2, 2, 2, 2, 2, 2, 4 ),
 ( -1.000000000000000000, -0.8750000000000014433, -0.8125000000000021094, -0.7812500000000023315, -0.7500000000000025535, -0.6250000000000024425, -0.5000000000000021094, -0.3750000000000018874, -0.3125000000000017764, -0.2812500000000016653, -0.2500000000000016653, -0.000000000000000000 ),
 .UNSPECIFIED. ) ;
#352 = CARTESIAN_POINT ( 'NONE',  ( -31.88091852208101074, 1.088233581647643833, 5.616460348708416817 ) ) ;
#353 = EDGE_CURVE ( 'NONE', #382, #329, #132, .T. ) ;
#354 = CARTESIAN_POINT ( 'NONE',  ( -19.65824762057535580, 0.9483544538816937042, 26.19089865979375986 ) ) ;
#355 = CARTESIAN_POINT ( 'NONE',  ( -2.359223927328457648E-13, 0.000000000000000000, -35.17774650950291715 ) ) ;
#356 = CARTESIAN_POINT ( 'NONE',  ( -29.31663163750332401, 1.489210291689022414, 10.92698717007111142 ) ) ;
#357 = SECURITY_CLASSIFICATION_LEVEL ( 'unclassified' ) ;
#358 = CARTESIAN_POINT ( 'NONE',  ( 8.291474367910325327, 19.99999999999999645, 8.291474367910284471 ) ) ;
#359 = CARTESIAN_POINT ( 'NONE',  ( 0.000000000000000000, 19.99999999999999645, 0.000000000000000000 ) ) ;
#360 = CARTESIAN_POINT ( 'NONE',  ( -35.17774650950291715, 0.000000000000000000, 3.400058012914541905E-13 ) ) ;
#361 = CARTESIAN_POINT ( 'NONE',  ( 14.04540901556049093, 1.458604373462090154, 28.05295224657934128 ) ) ;
#362 = EDGE_CURVE ( 'NONE', #288, #584, #259, .T. ) ;
#363 = CARTESIAN_POINT ( 'NONE',  ( -27.28904515679453979, 1.335176947508790457, -16.16136097325724208 ) ) ;
#364 = CARTESIAN_POINT ( 'NONE',  ( -8.291474367910224075, 19.99999999999999645, 8.291474367910382171 ) ) ;
#365 = CARTESIAN_POINT ( 'NONE',  ( -4.619281848956890535, 0.9483544538816934821, -32.42024224646292652 ) ) ;
#366 = CARTESIAN_POINT ( 'NONE',  ( -25.95793959567535580, 0.8321062496858454560, -20.47328623692335015 ) ) ;
#367 = DIRECTION ( 'NONE',  ( 0.000000000000000000, 0.000000000000000000, 1.000000000000000000 ) ) ;
#368 = CARTESIAN_POINT ( 'NONE',  ( 5.551115123125782702E-14, 0.000000000000000000, 35.17774650950291715 ) ) ;
#369 = CARTESIAN_POINT ( 'NONE',  ( -8.291474367910304011, 19.99999999999999645, 8.291474367910304011 ) ) ;
#370 = CARTESIAN_POINT ( 'NONE',  ( 21.16220358283040426, 13.33333333333333037, 5.527649578606813385 ) ) ;
#371 = CARTESIAN_POINT ( 'NONE',  ( 0.000000000000000000, 19.99999999999999645, 0.000000000000000000 ) ) ;
#372 = CARTESIAN_POINT ( 'NONE',  ( -16.58294873582079987, 0.000000000000000000, -28.30886423898813931 ) ) ;
#373 = CARTESIAN_POINT ( 'NONE',  ( 11.72591550316763787, 19.99999999999999645, -4.510281037539698445E-14 ) ) ;
#374 = CARTESIAN_POINT ( 'NONE',  ( 14.04730985815437805, 1.458495235234534171, -28.05226441091351219 ) ) ;
#375 = ORIENTED_EDGE ( 'NONE', *, *, #544, .T. ) ;
#376 = CARTESIAN_POINT ( 'NONE',  ( 30.48571009029534906, 1.365951950326433684, 8.376180056451206113 ) ) ;
#377 = CARTESIAN_POINT ( 'NONE',  ( 0.000000000000000000, 19.99999999999999645, 0.000000000000000000 ) ) ;
#378 = EDGE_CURVE ( 'NONE', #136, #530, #244, .T. ) ;
#379 = VERTEX_POINT ( 'NONE', #219 ) ;
#380 = B_SPLINE_CURVE_WITH_KNOTS ( 'NONE', 3,
 ( #13, #199, #396, #403, #296, #495, #62, #250, #352, #255, #450, #16, #356, #157, #551, #111, #66, #605, #115, #413, #80, #214, #571, #616 ),
 .UNSPECIFIED., .F., .F.,
 ( 4, 2, 2, 2, 2, 2, 2, 2, 2, 2, 2, 4 ),
 ( -1.000000000000000000, -0.8750000000000013323, -0.8125000000000017764, -0.7812500000000021094, -0.7500000000000024425, -0.6250000000000023315, -0.5000000000000022204, -0.3750000000000022204, -0.3125000000000021094, -0.2812500000000021094, -0.2500000000000021094, -0.000000000000000000 ),
 .UNSPECIFIED. ) ;
#381 = CARTESIAN_POINT ( 'NONE',  ( 28.05226441091348022, 1.458495235234534837, 14.04730985815445088 ) ) ;
#382 = VERTEX_POINT ( 'NONE', #79 ) ;
#383 = B_SPLINE_CURVE_WITH_KNOTS ( 'NONE', 3,
 ( #183, #1, #186, #549 ),
 .UNSPECIFIED., .F., .F.,
 ( 4, 4 ),
 ( 0.000000000000000000, 1.000000000000000000 ),
 .UNSPECIFIED. ) ;
#384 = CARTESIAN_POINT ( 'NONE',  ( 24.87442310373078058, 0.000000000000000000, -24.87442310373104704 ) ) ;
#385 = CARTESIAN_POINT ( 'NONE',  ( -8.291474367910359078, 19.99999999999999645, -8.291474367910248944 ) ) ;
#386 = VERTEX_POINT ( 'NONE', #271 ) ;
#387 = CARTESIAN_POINT ( 'NONE',  ( -7.115765348376410060, 1.258033588057712704, 31.10596899984435026 ) ) ;
#388 = CARTESIAN_POINT ( 'NONE',  ( 5.527649578606820491, 19.99999999999999645, -9.436288079662777051 ) ) ;
#389 = ORIENTED_EDGE ( 'NONE', *, *, #85, .F. ) ;
#390 = CARTESIAN_POINT ( 'NONE',  ( 0.000000000000000000, 19.99999999999999645, 0.000000000000000000 ) ) ;
#391 = B_SPLINE_CURVE_WITH_KNOTS ( 'NONE', 3,
 ( #531, #620, #142, #428, #426, #336, #321, #274, #327, #473, #628, #381, #534, #180, #88, #376, #277, #528, #522, #44, #228, #431, #177, #234 ),
 .UNSPECIFIED., .F., .F.,
 ( 4, 2, 2, 2, 2, 2, 2, 2, 2, 2, 2, 4 ),
 ( -1.000000000000000000, -0.8749999999999995559, -0.8124999999999993339, -0.7812499999999994449, -0.7499999999999995559, -0.6249999999999997780, -0.4999999999999997780, -0.3749999999999998890, -0.3125000000000000000, -0.2812500000000000000, -0.2500000000000000000, -0.000000000000000000 ),
 .UNSPECIFIED. ) ;
#392 = CARTESIAN_POINT ( 'NONE',  ( 26.76638225065119769, 1.178972950637037442, -17.76567854481369579 ) ) ;
#393 = COORDINATED_UNIVERSAL_TIME_OFFSET ( 0, 0, .AHEAD. ) ;
#394 = CARTESIAN_POINT ( 'NONE',  ( -24.87442310373067400, 0.000000000000000000, 24.87442310373115006 ) ) ;
#395 = CARTESIAN_POINT ( 'NONE',  ( -23.45183100633527573, 13.33333333333333037, 1.847964106528017687E-13 ) ) ;
#396 = CARTESIAN_POINT ( 'NONE',  ( -33.96727678960643004, 0.4677772842344614102, 1.924249349809144860 ) ) ;
#397 = CARTESIAN_POINT ( 'NONE',  ( -23.75926418941798701, 0.2503258273956577851, 25.11618958771794397 ) ) ;
#398 = CARTESIAN_POINT ( 'NONE',  ( 34.56016479938246988, 0.2503258273956577851, -0.9594911507022887420 ) ) ;
#399 = CARTESIAN_POINT ( 'NONE',  ( 16.58294873582065421, 0.000000000000000000, 28.30886423898822102 ) ) ;
#400 = ADVANCED_FACE ( 'NONE', ( #118 ), #610, .T. ) ;
#401 = CARTESIAN_POINT ( 'NONE',  ( -19.38688307838313207, 0.9851789702245723479, 26.27010091675840542 ) ) ;
#402 = CARTESIAN_POINT ( 'NONE',  ( 0.000000000000000000, 19.99999999999999645, 0.000000000000000000 ) ) ;
#403 = CARTESIAN_POINT ( 'NONE',  ( -33.11150346070163408, 0.7469095482599544811, 3.387693186195526174 ) ) ;
#404 = COORDINATED_UNIVERSAL_TIME_OFFSET ( 0, 0, .AHEAD. ) ;
#405 = MECHANICAL_CONTEXT ( 'NONE', #417, 'mechanical' ) ;
#406 = CARTESIAN_POINT ( 'NONE',  ( 28.45653438444526628, 1.489212052475039849, -13.00344173745292409 ) ) ;
#407 = CARTESIAN_POINT ( 'NONE',  ( -11.72591550316763964, 19.99999999999999645, 1.118896642005040576E-13 ) ) ;
#408 = OPEN_SHELL ( 'NONE', ( #302 ) ) ;
#409 = CARTESIAN_POINT ( 'NONE',  ( -7.868460945081477753, 1.335176947508790235, -30.72407681986915406 ) ) ;
#410 = CARTESIAN_POINT ( 'NONE',  ( 0.000000000000000000, 19.99999999999999645, 0.000000000000000000 ) ) ;
#411 = CARTESIAN_POINT ( 'NONE',  ( 23.45183100633527573, 13.33333333333333037, -6.269197041671952911E-14 ) ) ;
#412 = CARTESIAN_POINT ( 'NONE',  ( 16.16446284347191664, 1.327417397565370250, 27.29480303320873702 ) ) ;
#413 = CARTESIAN_POINT ( 'NONE',  ( -26.76638225065108401, 1.178972950637037220, 17.76567854481383435 ) ) ;
#414 =( NAMED_UNIT ( * ) SI_UNIT ( $, .STERADIAN. ) SOLID_ANGLE_UNIT ( ) );
#415 = CARTESIAN_POINT ( 'NONE',  ( 31.74330537424560461, 0.000000000000000000, 8.291474367910216969 ) ) ;
#416 = CARTESIAN_POINT ( 'NONE',  ( -24.87442310373111454, 0.000000000000000000, -24.87442310373071308 ) ) ;
#417 = APPLICATION_CONTEXT ( 'configuration controlled 3d designs of mechanical parts and assemblies' ) ;
#418 = CC_DESIGN_APPROVAL ( #220, ( #330 ) ) ;
#419 = CARTESIAN_POINT ( 'NONE',  ( 5.616460348708156580, 1.088233581647643833, 31.88091852208105337 ) ) ;
#420 = CARTESIAN_POINT ( 'NONE',  ( 4.825753689306764122E-15, 0.000000000000000000, 35.17774650950291715 ) ) ;
#421 = CARTESIAN_POINT ( 'NONE',  ( 0.000000000000000000, 19.99999999999999645, 0.000000000000000000 ) ) ;
#422 = CARTESIAN_POINT ( 'NONE',  ( -28.05226441091355838, 1.458495235234534615, -14.04730985815430344 ) ) ;
#423 = CARTESIAN_POINT ( 'NONE',  ( 0.000000000000000000, 19.99999999999999645, 0.000000000000000000 ) ) ;
#424 = ORIENTED_EDGE ( 'NONE', *, *, #612, .T. ) ;
#425 = EDGE_CURVE ( 'NONE', #484, #536, #579, .T. ) ;
#426 = CARTESIAN_POINT ( 'NONE',  ( 25.95793959567525633, 0.8321062496858455670, 20.47328623692348160 ) ) ;
#427 = ORIENTED_EDGE ( 'NONE', *, *, #524, .T. ) ;
#428 = CARTESIAN_POINT ( 'NONE',  ( 25.80882945688212615, 0.7469095482599543701, 21.01790780780581613 ) ) ;
#429 = CARTESIAN_POINT ( 'NONE',  ( 3.858416675347043689, 0.8702330526220805051, -32.80644336088169410 ) ) ;
#430 = VERTEX_POINT ( 'NONE', #423 ) ;
#431 = CARTESIAN_POINT ( 'NONE',  ( 32.80644336088167989, 0.8702330526220815043, 3.858416675347132951 ) ) ;
#432 = CARTESIAN_POINT ( 'NONE',  ( 10.92698660099221364, 1.489212052475039627, -29.31663026362656055 ) ) ;
#433 = EDGE_LOOP ( 'NONE', ( #338, #282, #179 ) ) ;
#434 = CARTESIAN_POINT ( 'NONE',  ( 11.72591550316763787, 19.99999999999999645, -4.510281037539698445E-14 ) ) ;
#435 = CARTESIAN_POINT ( 'NONE',  ( 5.527649578606759206, 13.33333333333333037, -21.16220358283041847 ) ) ;
#436 = B_SPLINE_CURVE_WITH_KNOTS ( 'NONE', 3,
 ( #215, #261, #411, #22 ),
 .UNSPECIFIED., .F., .F.,
 ( 4, 4 ),
 ( 0.000000000000000000, 1.000000000000000000 ),
 .UNSPECIFIED. ) ;
#437 = EDGE_LOOP ( 'NONE', ( #230, #285, #424 ) ) ;
#438 = APPROVAL_PERSON_ORGANIZATION ( #594, #567, #305 ) ;
#439 = CARTESIAN_POINT ( 'NONE',  ( -13.00344230653126587, 1.489210291689022858, 28.45653575832224647 ) ) ;
#440 = CARTESIAN_POINT ( 'NONE',  ( 27.47950605249114986, 1.365951950326433240, -15.63379861577887375 ) ) ;
#441 = SHAPE_DEFINITION_REPRESENTATION ( #27, #39 ) ;
#442 = CARTESIAN_POINT ( 'NONE',  ( 21.16220358283036873, 13.33333333333333037, -5.527649578606954606 ) ) ;
#443 = B_SPLINE_CURVE_WITH_KNOTS ( 'NONE', 3,
 ( #625, #281, #480, #278, #178, #523, #586, #477, #47, #583, #324, #374, #134, #432, #184, #187, #284, #45, #143, #235, #275, #429, #527, #90 ),
 .UNSPECIFIED., .F., .F.,
 ( 4, 2, 2, 2, 2, 2, 2, 2, 2, 2, 2, 4 ),
 ( -1.000000000000000000, -0.8749999999999998890, -0.8124999999999998890, -0.7812500000000001110, -0.7500000000000002220, -0.6250000000000006661, -0.5000000000000008882, -0.3750000000000011102, -0.3125000000000013323, -0.2812500000000012212, -0.2500000000000012212, -0.000000000000000000 ),
 .UNSPECIFIED. ) ;
#444 = CARTESIAN_POINT ( 'NONE',  ( 16.58294873582062934, 13.33333333333333037, 16.58294873582058671 ) ) ;
#445 = CARTESIAN_POINT ( 'NONE',  ( 4.825753689306764122E-15, 0.000000000000000000, 35.17774650950291715 ) ) ;
#446 = PERSON_AND_ORGANIZATION_ROLE ( 'design_supplier' ) ;
#447 = CARTESIAN_POINT ( 'NONE',  ( -7.870339025076113160, 1.327417397565370472, 30.73034160679001303 ) ) ;
#448 = EDGE_CURVE ( 'NONE', #193, #188, #626, .T. ) ;
#449 = CARTESIAN_POINT ( 'NONE',  ( 24.87442310373081611, 0.000000000000000000, -24.87442310373101151 ) ) ;
#450 = CARTESIAN_POINT ( 'NONE',  ( -30.72407681986913275, 1.335176947508790457, 7.868460945081569236 ) ) ;
#451 = OPEN_SHELL ( 'NONE', ( #400 ) ) ;
#452 = CARTESIAN_POINT ( 'NONE',  ( -3.858416675347211555, 0.8702330526220801721, 32.80644336088166568 ) ) ;
#453 = CARTESIAN_POINT ( 'NONE',  ( 8.291474367910272036, 19.99999999999999645, -8.291474367910335985 ) ) ;
#454 = COORDINATED_UNIVERSAL_TIME_OFFSET ( 0, 0, .AHEAD. ) ;
#455 = CARTESIAN_POINT ( 'NONE',  ( 0.000000000000000000, 19.99999999999999645, 0.000000000000000000 ) ) ;
#456 = CARTESIAN_POINT ( 'NONE',  ( 8.291474367910355525, 0.000000000000000000, 31.74330537424556553 ) ) ;
#457 = CARTESIAN_POINT ( 'NONE',  ( 9.902998334465285879, 1.458495235234534615, 29.76889445072463758 ) ) ;
#458 = FACE_OUTER_BOUND ( 'NONE', #100, .T. ) ;
#459 = CARTESIAN_POINT ( 'NONE',  ( 4.619281848956722669, 0.9483544538816933711, 32.42024224646295494 ) ) ;
#460 = CARTESIAN_POINT ( 'NONE',  ( -25.11618958771811805, 0.2503258273956577851, -23.75926418941778806 ) ) ;
#461 = CARTESIAN_POINT ( 'NONE',  ( -24.87442310373067400, 0.000000000000000000, 24.87442310373115006 ) ) ;
#462 = CARTESIAN_POINT ( 'NONE',  ( -10.92698717007102616, 1.489210291689022636, -29.31663163750335244 ) ) ;
#463 = CARTESIAN_POINT ( 'NONE',  ( -26.51465087625634354, 1.088233581647643833, -18.57177647858225455 ) ) ;
#464 = CARTESIAN_POINT ( 'NONE',  ( 0.000000000000000000, 19.99999999999999645, 0.000000000000000000 ) ) ;
#465 = EDGE_CURVE ( 'NONE', #478, #136, #505, .T. ) ;
#466 = CARTESIAN_POINT ( 'NONE',  ( 0.000000000000000000, 19.99999999999999645, 0.000000000000000000 ) ) ;
#467 = DESIGN_CONTEXT ( 'detailed design', #311, 'design' ) ;
#468 = SHELL_BASED_SURFACE_MODEL ( 'NONE', ( #5, #542, #451, #262, #273, #190, #408, #94 ) );
#469 = CARTESIAN_POINT ( 'NONE',  ( 35.17774650950291715, 0.000000000000000000, -9.640408386636845960E-14 ) ) ;
#470 = FACE_OUTER_BOUND ( 'NONE', #182, .T. ) ;
#471 = B_SPLINE_SURFACE_WITH_KNOTS ( 'NONE', 3, 3, ( 
 ( #333, #482, #337, #232 ),
 ( #535, #50, #435, #6 ),
 ( #192, #388, #590, #538 ),
 ( #53, #287, #145, #12 ) ),
 .UNSPECIFIED., .F., .F., .F.,
 ( 4, 4 ),
 ( 4, 4 ),
 ( 0.000000000000000000, 1.000000000000000000 ),
 ( 0.000000000000000000, 1.000000000000000000 ),
 .UNSPECIFIED. ) ;
#472 = EDGE_CURVE ( 'NONE', #430, #51, #103, .T. ) ;
#473 = CARTESIAN_POINT ( 'NONE',  ( 26.93181234747009967, 1.242720610580047680, 17.22707724230856741 ) ) ;
#474 = CARTESIAN_POINT ( 'NONE',  ( -2.763824789303503504, 19.99999999999999645, -10.58110179141517548 ) ) ;
#475 = ORIENTED_EDGE ( 'NONE', *, *, #378, .T. ) ;
#476 = CARTESIAN_POINT ( 'NONE',  ( 8.291474367910261378, 19.99999999999999645, -8.291474367910348420 ) ) ;
#477 = CARTESIAN_POINT ( 'NONE',  ( 18.84458630031323523, 1.055010680004477841, -26.43168578645259359 ) ) ;
#478 = VERTEX_POINT ( 'NONE', #384 ) ;
#479 = CARTESIAN_POINT ( 'NONE',  ( 1.639750298678386435E-15, 13.33333333333333037, 23.45183100633527573 ) ) ;
#480 = CARTESIAN_POINT ( 'NONE',  ( 22.65784199242738595, 0.4677772842344613546, -25.37914152031488513 ) ) ;
#481 = CARTESIAN_POINT ( 'NONE',  ( 24.87442310373078058, 0.000000000000000000, -24.87442310373104704 ) ) ;
#482 = CARTESIAN_POINT ( 'NONE',  ( 16.58294873582045525, 0.000000000000000000, -28.30886423898833826 ) ) ;
#483 = EDGE_CURVE ( 'NONE', #233, #632, #391, .T. ) ;
#484 = VERTEX_POINT ( 'NONE', #49 ) ;
#485 = CARTESIAN_POINT ( 'NONE',  ( 8.291474367910272036, 19.99999999999999645, -8.291474367910335985 ) ) ;
#486 = CARTESIAN_POINT ( 'NONE',  ( 24.87442310373095111, 0.000000000000000000, 24.87442310373087651 ) ) ;
#487 = EDGE_LOOP ( 'NONE', ( #7, #577, #238 ) ) ;
#488 = CARTESIAN_POINT ( 'NONE',  ( -9.904828806417194542, 1.458604373462090154, 29.76803672530012790 ) ) ;
#489 = CARTESIAN_POINT ( 'NONE',  ( -21.16220358283042913, 13.33333333333333037, -5.527649578606703251 ) ) ;
#490 = CARTESIAN_POINT ( 'NONE',  ( 8.291474367910314669, 19.99999999999999645, 8.291474367910293353 ) ) ;
#491 = DATE_TIME_ROLE ( 'classification_date' ) ;
#492 = CC_DESIGN_PERSON_AND_ORGANIZATION_ASSIGNMENT ( #123, #506, ( #218 ) ) ;
#493 = CARTESIAN_POINT ( 'NONE',  ( -20.47328623692355265, 0.8321062496858454560, 25.95793959567519948 ) ) ;
#494 = CARTESIAN_POINT ( 'NONE',  ( 1.561251128379126385E-14, 19.99999999999999645, 11.72591550316763787 ) ) ;
#495 = CARTESIAN_POINT ( 'NONE',  ( -32.42024224646291231, 0.9483544538816939262, 4.619281848956987346 ) ) ;
#496 = CARTESIAN_POINT ( 'NONE',  ( -16.58294873582074302, 13.33333333333333037, -16.58294873582048012 ) ) ;
#497 = CARTESIAN_POINT ( 'NONE',  ( -11.72591550316763787, 19.99999999999999645, 9.160949591263783536E-14 ) ) ;
#498 = PRODUCT_DEFINITION_FORMATION_WITH_SPECIFIED_SOURCE ( 'ANY', '', #218, .NOT_KNOWN. ) ;
#499 = CARTESIAN_POINT ( 'NONE',  ( 24.87442310373081611, 0.000000000000000000, -24.87442310373101151 ) ) ;
#500 = CARTESIAN_POINT ( 'NONE',  ( 27.02684754633762765, 1.258033588057712482, -16.96363568399936028 ) ) ;
#501 = CARTESIAN_POINT ( 'NONE',  ( 0.000000000000000000, 19.99999999999999645, 0.000000000000000000 ) ) ;
#502 = APPROVAL_ROLE ( '' ) ;
#503 = CARTESIAN_POINT ( 'NONE',  ( -24.87442310373107901, 0.000000000000000000, -24.87442310373074861 ) ) ;
#504 = CARTESIAN_POINT ( 'NONE',  ( 0.000000000000000000, 19.99999999999999645, 0.000000000000000000 ) ) ;
#505 = B_SPLINE_CURVE_WITH_KNOTS ( 'NONE', 3,
 ( #481, #331, #476, #133 ),
 .UNSPECIFIED., .F., .F.,
 ( 4, 4 ),
 ( 0.000000000000000000, 1.000000000000000000 ),
 .UNSPECIFIED. ) ;
#506 = PERSON_AND_ORGANIZATION_ROLE ( 'design_owner' ) ;
#507 = B_SPLINE_SURFACE_WITH_KNOTS ( 'NONE', 3, 3, ( 
 ( #621, #175, #372, #131 ),
 ( #229, #323, #181, #631 ),
 ( #328, #474, #2, #385 ),
 ( #580, #377, #529, #96 ) ),
 .UNSPECIFIED., .F., .F., .F.,
 ( 4, 4 ),
 ( 4, 4 ),
 ( 0.000000000000000000, 1.000000000000000000 ),
 ( 0.000000000000000000, 1.000000000000000000 ),
 .UNSPECIFIED. ) ;
#508 = CARTESIAN_POINT ( 'NONE',  ( 3.878235582430905826, 0.8321062496858453450, 32.83183464503456861 ) ) ;
#509 = CARTESIAN_POINT ( 'NONE',  ( -7.632783294297951215E-14, 19.99999999999999645, -11.72591550316763787 ) ) ;
#510 = B_SPLINE_SURFACE_WITH_KNOTS ( 'NONE', 3, 3, ( 
 ( #98, #14, #301, #499 ),
 ( #286, #442, #589, #101 ),
 ( #434, #4, #194, #485 ),
 ( #60, #592, #390, #147 ) ),
 .UNSPECIFIED., .F., .F., .F.,
 ( 4, 4 ),
 ( 4, 4 ),
 ( 0.000000000000000000, 1.000000000000000000 ),
 ( 0.000000000000000000, 1.000000000000000000 ),
 .UNSPECIFIED. ) ;
#511 = CC_DESIGN_APPROVAL ( #322, ( #521 ) ) ;
#512 = CARTESIAN_POINT ( 'NONE',  ( -35.17774650950291715, 0.000000000000000000, 2.795607442204918884E-13 ) ) ;
#513 = CARTESIAN_POINT ( 'NONE',  ( 0.9594911507022032549, 0.2503258273956577851, 34.56016479938248409 ) ) ;
#514 = CARTESIAN_POINT ( 'NONE',  ( -24.87442310373090848, 0.000000000000000000, 24.87442310373091914 ) ) ;
#515 =( LENGTH_UNIT ( ) NAMED_UNIT ( * ) SI_UNIT ( .MILLI., .METRE. ) );
#516 = EDGE_CURVE ( 'NONE', #48, #629, #383, .T. ) ;
#517 = CARTESIAN_POINT ( 'NONE',  ( -16.16446284347205875, 1.327417397565370250, -27.29480303320865175 ) ) ;
#518 = CARTESIAN_POINT ( 'NONE',  ( -0.000000000000000000, 19.99999999999999645, -0.000000000000000000 ) ) ;
#519 = CARTESIAN_POINT ( 'NONE',  ( 10.92698717007087517, 1.489210291689022858, 29.31663163750340928 ) ) ;
#520 = CARTESIAN_POINT ( 'NONE',  ( -8.291474367910298682, -0.000000000000000000, 31.74330537424558685 ) ) ;
#521 = SECURITY_CLASSIFICATION ( '', '', #357 ) ;
#522 = CARTESIAN_POINT ( 'NONE',  ( 31.23262466565069673, 1.232974883230860241, 6.864939133858249498 ) ) ;
#523 = CARTESIAN_POINT ( 'NONE',  ( 19.65824762057522079, 0.9483544538816934821, -26.19089865979386289 ) ) ;
#524 = EDGE_CURVE ( 'NONE', #386, #48, #588, .T. ) ;
#525 = B_SPLINE_CURVE_WITH_KNOTS ( 'NONE', 3,
 ( #65, #600, #494, #249 ),
 .UNSPECIFIED., .F., .F.,
 ( 4, 4 ),
 ( 0.000000000000000000, 1.000000000000000000 ),
 .UNSPECIFIED. ) ;
#526 = CARTESIAN_POINT ( 'NONE',  ( 0.000000000000000000, 19.99999999999999645, 0.000000000000000000 ) ) ;
#527 = CARTESIAN_POINT ( 'NONE',  ( 1.919009825690598969, 0.5006588357223563657, -33.94256537310496213 ) ) ;
#528 = CARTESIAN_POINT ( 'NONE',  ( 31.10596899984436448, 1.258033588057712260, 7.115765348376324795 ) ) ;
#529 = CARTESIAN_POINT ( 'NONE',  ( 0.000000000000000000, 19.99999999999999645, 0.000000000000000000 ) ) ;
#530 = VERTEX_POINT ( 'NONE', #630 ) ;
#531 = CARTESIAN_POINT ( 'NONE',  ( 24.87442310373098664, 0.000000000000000000, 24.87442310373084453 ) ) ;
#532 = VERTEX_POINT ( 'NONE', #394 ) ;
#533 = EDGE_CURVE ( 'NONE', #185, #51, #59, .T. ) ;
#534 = CARTESIAN_POINT ( 'NONE',  ( 28.45653575832227489, 1.489210291689022858, 13.00344230653119126 ) ) ;
#535 = CARTESIAN_POINT ( 'NONE',  ( 16.58294873582052276, 13.33333333333333037, -16.58294873582070039 ) ) ;
#536 = VERTEX_POINT ( 'NONE', #113 ) ;
#537 = CARTESIAN_POINT ( 'NONE',  ( -6.116526129976615600, 1.150243229285628388, 31.61765756244786729 ) ) ;
#538 = CARTESIAN_POINT ( 'NONE',  ( -6.108338585361726599E-14, 19.99999999999999645, -11.72591550316763787 ) ) ;
#539 = ORIENTED_EDGE ( 'NONE', *, *, #533, .F. ) ;
#540 = CARTESIAN_POINT ( 'NONE',  ( -14.04730985815452193, 1.458495235234535059, 28.05226441091344469 ) ) ;
#541 = FACE_OUTER_BOUND ( 'NONE', #93, .T. ) ;
#542 = OPEN_SHELL ( 'NONE', ( #20 ) ) ;
#543 = CARTESIAN_POINT ( 'NONE',  ( 0.000000000000000000, 19.99999999999999645, 0.000000000000000000 ) ) ;
#544 = EDGE_CURVE ( 'NONE', #91, #329, #326, .T. ) ;
#545 = CARTESIAN_POINT ( 'NONE',  ( 0.000000000000000000, 19.99999999999999645, 0.000000000000000000 ) ) ;
#546 = CARTESIAN_POINT ( 'NONE',  ( 27.29480303320869794, 1.327417397565370250, -16.16446284347198414 ) ) ;
#547 = CARTESIAN_POINT ( 'NONE',  ( 11.05529915721376710, 13.33333333333333037, 18.87257615932548660 ) ) ;
#548 = DATE_AND_TIME ( #67, #345 ) ;
#549 = CARTESIAN_POINT ( 'NONE',  ( -35.17774650950291715, 0.000000000000000000, 2.795607442204918884E-13 ) ) ;
#550 = CARTESIAN_POINT ( 'NONE',  ( 8.291474367910314669, 19.99999999999999645, 8.291474367910293353 ) ) ;
#551 = CARTESIAN_POINT ( 'NONE',  ( -28.05295224657923114, 1.458604373462090598, 14.04540901556072541 ) ) ;
#552 = FACE_OUTER_BOUND ( 'NONE', #433, .T. ) ;
#553 = CARTESIAN_POINT ( 'NONE',  ( 35.17774650950292425, 0.000000000000000000, -1.422473250300981817E-13 ) ) ;
#554 = B_SPLINE_CURVE_WITH_KNOTS ( 'NONE', 3,
 ( #350, #550, #444, #486 ),
 .UNSPECIFIED., .F., .F.,
 ( 4, 4 ),
 ( 0.000000000000000000, 1.000000000000000000 ),
 .UNSPECIFIED. ) ;
#555 = CARTESIAN_POINT ( 'NONE',  ( 0.000000000000000000, 19.99999999999999645, 0.000000000000000000 ) ) ;
#556 = CALENDAR_DATE ( 2026, 7, 9 ) ;
#557 = AXIS2_PLACEMENT_3D ( 'NONE', #609, #367, #566 ) ;
#558 = CARTESIAN_POINT ( 'NONE',  ( 9.436288079662761064, 19.99999999999999645, 5.527649578606845360 ) ) ;
#559 = CARTESIAN_POINT ( 'NONE',  ( 5.551115123125782702E-14, 0.000000000000000000, 35.17774650950291715 ) ) ;
#560 = CARTESIAN_POINT ( 'NONE',  ( -9.436288079662695338, 19.99999999999999645, 5.527649578606958158 ) ) ;
#561 = CARTESIAN_POINT ( 'NONE',  ( -17.23055568135186633, 1.232974883230860019, -26.93904570931984210 ) ) ;
#562 = CARTESIAN_POINT ( 'NONE',  ( -32.80644336088170832, 0.8702330526220802831, -3.858416675346953983 ) ) ;
#563 = CARTESIAN_POINT ( 'NONE',  ( 6.862284002478831191, 1.242720610580047680, 31.22505027860053062 ) ) ;
#564 = CARTESIAN_POINT ( 'NONE',  ( -24.87442310373090848, 0.000000000000000000, 24.87442310373091914 ) ) ;
#565 = ADVANCED_FACE ( 'NONE', ( #552 ), #510, .T. ) ;
#566 = DIRECTION ( 'NONE',  ( 1.000000000000000000, 0.000000000000000000, 0.000000000000000000 ) ) ;
#567 = APPROVAL ( #294, 'UNSPECIFIED' ) ;
#568 = CARTESIAN_POINT ( 'NONE',  ( 17.23055568135173488, 1.232974883230859797, 26.93904570931993092 ) ) ;
#569 = CARTESIAN_POINT ( 'NONE',  ( -1.561251128379126385E-13, 13.33333333333333037, -23.45183100633527928 ) ) ;
#570 = CARTESIAN_POINT ( 'NONE',  ( -14.04540901556063659, 1.458604373462090154, -28.05295224657927022 ) ) ;
#571 = CARTESIAN_POINT ( 'NONE',  ( -25.35796300709957407, 0.5006588357223571428, 22.64407328528089991 ) ) ;
#572 = CARTESIAN_POINT ( 'NONE',  ( -26.27010091675855463, 0.9851789702245719038, -19.38688307838291180 ) ) ;
#573 = APPROVAL_PERSON_ORGANIZATION ( #21, #322, #58 ) ;
#574 = CARTESIAN_POINT ( 'NONE',  ( 3.116573557613136755E-17, 19.99999999999999645, 11.72591550316763787 ) ) ;
#575 = CC_DESIGN_PERSON_AND_ORGANIZATION_ASSIGNMENT ( #243, #256, ( #521 ) ) ;
#576 = CARTESIAN_POINT ( 'NONE',  ( 35.17774650950292425, 0.000000000000000000, -1.422473250300981817E-13 ) ) ;
#577 = ORIENTED_EDGE ( 'NONE', *, *, #310, .T. ) ;
#578 = CARTESIAN_POINT ( 'NONE',  ( 0.000000000000000000, 19.99999999999999645, 0.000000000000000000 ) ) ;
#579 = B_SPLINE_CURVE_WITH_KNOTS ( 'NONE', 3,
 ( #582, #237, #89, #624 ),
 .UNSPECIFIED., .F., .F.,
 ( 4, 4 ),
 ( 0.000000000000000000, 1.000000000000000000 ),
 .UNSPECIFIED. ) ;
#580 = CARTESIAN_POINT ( 'NONE',  ( 0.000000000000000000, 19.99999999999999645, 0.000000000000000000 ) ) ;
#581 = VERTEX_POINT ( 'NONE', #55 ) ;
#582 = CARTESIAN_POINT ( 'NONE',  ( -35.17774650950291715, 0.000000000000000000, 3.400058012914541905E-13 ) ) ;
#583 = CARTESIAN_POINT ( 'NONE',  ( 17.22707724230848569, 1.242720610580048124, -26.93181234747014940 ) ) ;
#584 = VERTEX_POINT ( 'NONE', #151 ) ;
#585 = EDGE_CURVE ( 'NONE', #536, #532, #77, .T. ) ;
#586 = CARTESIAN_POINT ( 'NONE',  ( 19.38688307838298641, 0.9851789702245721259, -26.27010091675850845 ) ) ;
#587 = EDGE_LOOP ( 'NONE', ( #389, #276, #591 ) ) ;
#588 = B_SPLINE_CURVE_WITH_KNOTS ( 'NONE', 3,
 ( #191, #496, #203, #52 ),
 .UNSPECIFIED., .F., .F.,
 ( 4, 4 ),
 ( 0.000000000000000000, 1.000000000000000000 ),
 .UNSPECIFIED. ) ;
#589 = CARTESIAN_POINT ( 'NONE',  ( 18.87257615932545818, 13.33333333333333037, -11.05529915721381329 ) ) ;
#590 = CARTESIAN_POINT ( 'NONE',  ( 2.763824789303380047, 19.99999999999999645, -10.58110179141520746 ) ) ;
#591 = ORIENTED_EDGE ( 'NONE', *, *, #585, .T. ) ;
#592 = CARTESIAN_POINT ( 'NONE',  ( 0.000000000000000000, 19.99999999999999645, 0.000000000000000000 ) ) ;
#593 = CARTESIAN_POINT ( 'NONE',  ( 26.68209717145212423, 1.150243229285628610, -18.03202296382993808 ) ) ;
#594 = PERSON_AND_ORGANIZATION ( #139, #627 ) ;
#595 = CARTESIAN_POINT ( 'NONE',  ( -24.87442310373090848, 0.000000000000000000, 24.87442310373091914 ) ) ;
#596 = CARTESIAN_POINT ( 'NONE',  ( 33.11150346070164829, 0.7469095482599547031, -3.387693186195339212 ) ) ;
#597 = CARTESIAN_POINT ( 'NONE',  ( 16.58294873582065421, 13.33333333333333037, 16.58294873582056894 ) ) ;
#598 = CARTESIAN_POINT ( 'NONE',  ( -1.924249349809044496, 0.4677772842344613546, -33.96727678960643715 ) ) ;
#599 = CALENDAR_DATE ( 2026, 7, 9 ) ;
#600 = CARTESIAN_POINT ( 'NONE',  ( 3.469446951953614189E-14, 13.33333333333333037, 23.45183100633527928 ) ) ;
#601 = PERSON_AND_ORGANIZATION_ROLE ( 'creator' ) ;
#602 = ADVANCED_FACE ( 'NONE', ( #347 ), #313, .T. ) ;
#603 = CARTESIAN_POINT ( 'NONE',  ( 35.17774650950291715, 0.000000000000000000, -9.640408386636845960E-14 ) ) ;
#604 = CARTESIAN_POINT ( 'NONE',  ( -6.862284002478994616, 1.242720610580048124, -31.22505027860049864 ) ) ;
#605 = CARTESIAN_POINT ( 'NONE',  ( -27.02684754633752817, 1.258033588057712260, 16.96363568399950950 ) ) ;
#606 = CARTESIAN_POINT ( 'NONE',  ( -18.87257615932539423, 13.33333333333333037, 11.05529915721391987 ) ) ;
#607 = CARTESIAN_POINT ( 'NONE',  ( -5.616460348708320893, 1.088233581647643833, -31.88091852208102495 ) ) ;
#608 = CARTESIAN_POINT ( 'NONE',  ( -35.17774650950291715, 0.000000000000000000, 2.795607442204918884E-13 ) ) ;
#609 = CARTESIAN_POINT ( 'NONE',  ( 0.000000000000000000, 0.000000000000000000, 0.000000000000000000 ) ) ;
#610 = B_SPLINE_SURFACE_WITH_KNOTS ( 'NONE', 3, 3, ( 
 ( #35, #267, #415, #469 ),
 ( #173, #615, #370, #162 ),
 ( #358, #558, #72, #165 ),
 ( #578, #283, #421, #40 ) ),
 .UNSPECIFIED., .F., .F., .F.,
 ( 4, 4 ),
 ( 4, 4 ),
 ( 0.000000000000000000, 1.000000000000000000 ),
 ( 0.000000000000000000, 1.000000000000000000 ),
 .UNSPECIFIED. ) ;
#611 = CARTESIAN_POINT ( 'NONE',  ( 18.03202296382987058, 1.150243229285628832, 26.68209717145216686 ) ) ;
#612 = EDGE_CURVE ( 'NONE', #43, #632, #436, .T. ) ;
#613 = CC_DESIGN_PERSON_AND_ORGANIZATION_ASSIGNMENT ( #253, #105, ( #330 ) ) ;
#614 = CARTESIAN_POINT ( 'NONE',  ( -16.58294873582044815, 13.33333333333333037, 16.58294873582076434 ) ) ;
#615 = CARTESIAN_POINT ( 'NONE',  ( 18.87257615932552923, 13.33333333333333037, 11.05529915721368894 ) ) ;
#616 = CARTESIAN_POINT ( 'NONE',  ( -24.87442310373067400, 0.000000000000000000, 24.87442310373115006 ) ) ;
#617 = B_SPLINE_CURVE_WITH_KNOTS ( 'NONE', 3,
 ( #564, #127, #169, #466 ),
 .UNSPECIFIED., .F., .F.,
 ( 4, 4 ),
 ( 0.000000000000000000, 1.000000000000000000 ),
 .UNSPECIFIED. ) ;
#618 = CARTESIAN_POINT ( 'NONE',  ( 13.00344173745285836, 1.489212052475039849, 28.45653438444528760 ) ) ;
#619 = CARTESIAN_POINT ( 'NONE',  ( -0.000000000000000000, 19.99999999999999645, -0.000000000000000000 ) ) ;
#620 = CARTESIAN_POINT ( 'NONE',  ( 25.11618958771800436, 0.2503258273956578406, 23.75926418941791596 ) ) ;
#621 = CARTESIAN_POINT ( 'NONE',  ( -2.359223927328457648E-13, 0.000000000000000000, -35.17774650950291715 ) ) ;
#622 = CC_DESIGN_DATE_AND_TIME_ASSIGNMENT ( #116, #491, ( #521 ) ) ;
#623 = B_SPLINE_CURVE_WITH_KNOTS ( 'NONE', 3,
 ( #160, #597, #107, #57 ),
 .UNSPECIFIED., .F., .F.,
 ( 4, 4 ),
 ( 0.000000000000000000, 1.000000000000000000 ),
 .UNSPECIFIED. ) ;
#624 = CARTESIAN_POINT ( 'NONE',  ( 0.000000000000000000, 19.99999999999999645, 0.000000000000000000 ) ) ;
#625 = CARTESIAN_POINT ( 'NONE',  ( 24.87442310373078058, 0.000000000000000000, -24.87442310373104704 ) ) ;
#626 = B_SPLINE_CURVE_WITH_KNOTS ( 'NONE', 3,
 ( #138, #41, #373, #526 ),
 .UNSPECIFIED., .F., .F.,
 ( 4, 4 ),
 ( 0.000000000000000000, 1.000000000000000000 ),
 .UNSPECIFIED. ) ;
#627 = ORGANIZATION ( 'UNSPECIFIED', 'UNSPECIFIED', '' ) ;
#628 = CARTESIAN_POINT ( 'NONE',  ( 27.28904515679445453, 1.335176947508790013, 16.16136097325737353 ) ) ;
#629 = VERTEX_POINT ( 'NONE', #512 ) ;
#630 = CARTESIAN_POINT ( 'NONE',  ( -1.879824140434301677E-13, 0.000000000000000000, -35.17774650950291715 ) ) ;
#631 = CARTESIAN_POINT ( 'NONE',  ( -16.58294873582071816, 13.33333333333333037, -16.58294873582049789 ) ) ;
#632 = VERTEX_POINT ( 'NONE', #603 ) ;
ENDSEC;
END-ISO-10303-21;
