ISO-10303-21;
HEADER;
FILE_DESCRIPTION (( 'STEP AP203' ),
    '1' );
FILE_NAME ('ParasolBase.step',
    '2026-09-07T17:35:26',
    ( '' ),
    ( '' ),
    'SwSTEP 2.0',
    'SolidWorks 2026',
    '' );
FILE_SCHEMA (( 'CONFIG_CONTROL_DESIGN' ));
ENDSEC;

DATA;
#1 = CARTESIAN_POINT ( 'NONE',  ( 0.000000000000000000, 3.000000000000000000, 6.500000000000000000 ) ) ;
#2 = CIRCLE ( 'NONE', #171, 7.500000000000000000 ) ;
#3 = DIRECTION ( 'NONE',  ( 0.000000000000000000, 0.000000000000000000, 1.000000000000000000 ) ) ;
#4 =( NAMED_UNIT ( * ) PLANE_ANGLE_UNIT ( ) SI_UNIT ( $, .RADIAN. ) );
#5 = CC_DESIGN_APPROVAL ( #113, ( #166 ) ) ;
#6 = AXIS2_PLACEMENT_3D ( 'NONE', #52, #118, #193 ) ;
#7 = MECHANICAL_CONTEXT ( 'NONE', #41, 'mechanical' ) ;
#8 = FACE_OUTER_BOUND ( 'NONE', #136, .T. ) ;
#9 = ADVANCED_FACE ( 'NONE', ( #170 ), #189, .T. ) ;
#10 = PERSON_AND_ORGANIZATION_ROLE ( 'design_owner' ) ;
#11 = APPROVAL_ROLE ( '' ) ;
#12 = ORIENTED_EDGE ( 'NONE', *, *, #63, .F. ) ;
#13 = APPROVAL_ROLE ( '' ) ;
#14 = ORIENTED_EDGE ( 'NONE', *, *, #149, .F. ) ;
#15 = PERSON_AND_ORGANIZATION_ROLE ( 'creator' ) ;
#16 = DIRECTION ( 'NONE',  ( 1.000000000000000000, -0.000000000000000000, 1.224646799147353207E-16 ) ) ;
#17 = CARTESIAN_POINT ( 'NONE',  ( 0.000000000000000000, 2.000000000000000000, 6.500000000000000000 ) ) ;
#18 = VERTEX_POINT ( 'NONE', #1 ) ;
#19 = AXIS2_PLACEMENT_3D ( 'NONE', #151, #154, #3 ) ;
#20 = ADVANCED_BREP_SHAPE_REPRESENTATION ( 'ParasolBase', ( #215, #73 ), #225 ) ;
#21 = AXIS2_PLACEMENT_3D ( 'NONE', #35, #125, #123 ) ;
#22 = ORGANIZATION ( 'UNSPECIFIED', 'UNSPECIFIED', '' ) ;
#23 = APPROVAL_STATUS ( 'not_yet_approved' ) ;
#24 = ORIENTED_EDGE ( 'NONE', *, *, #169, .T. ) ;
#25 = PERSON_AND_ORGANIZATION ( #190, #22 ) ;
#26 = AXIS2_PLACEMENT_3D ( 'NONE', #17, #61, #78 ) ;
#27 = VERTEX_POINT ( 'NONE', #132 ) ;
#28 = UNCERTAINTY_MEASURE_WITH_UNIT (LENGTH_MEASURE( 1.000000000000000082E-05 ), #140, 'distance_accuracy_value', 'NONE');
#29 = ORIENTED_EDGE ( 'NONE', *, *, #36, .T. ) ;
#30 = PRODUCT_RELATED_PRODUCT_CATEGORY ( 'detail', '', ( #197 ) ) ;
#31 = CARTESIAN_POINT ( 'NONE',  ( 0.000000000000000000, 2.000000000000000000, 0.000000000000000000 ) ) ;
#32 = DIRECTION ( 'NONE',  ( -0.000000000000000000, -1.000000000000000000, -0.000000000000000000 ) ) ;
#33 = DIRECTION ( 'NONE',  ( 0.000000000000000000, 1.000000000000000000, 0.000000000000000000 ) ) ;
#34 = CARTESIAN_POINT ( 'NONE',  ( 9.184850993605147944E-16, 3.000000000000000000, 7.500000000000000000 ) ) ;
#35 = CARTESIAN_POINT ( 'NONE',  ( 0.000000000000000000, 3.000000000000000000, 0.000000000000000000 ) ) ;
#36 = EDGE_CURVE ( 'NONE', #27, #220, #59, .T. ) ;
#37 = CARTESIAN_POINT ( 'NONE',  ( 0.000000000000000000, 0.000000000000000000, 0.000000000000000000 ) ) ;
#38 = AXIS2_PLACEMENT_3D ( 'NONE', #116, #188, #80 ) ;
#39 = PRODUCT_DEFINITION_SHAPE ( 'NONE', 'NONE',  #105 ) ;
#40 = APPROVAL_DATE_TIME ( #46, #113 ) ;
#41 = APPLICATION_CONTEXT ( 'configuration controlled 3d designs of mechanical parts and assemblies' ) ;
#42 = ORIENTED_EDGE ( 'NONE', *, *, #149, .T. ) ;
#43 = PERSON_AND_ORGANIZATION_ROLE ( 'classification_officer' ) ;
#44 = ORIENTED_EDGE ( 'NONE', *, *, #103, .T. ) ;
#45 = VERTEX_POINT ( 'NONE', #62 ) ;
#46 = DATE_AND_TIME ( #54, #141 ) ;
#47 = APPROVAL ( #94, 'UNSPECIFIED' ) ;
#48 = CARTESIAN_POINT ( 'NONE',  ( 7.960204194457795477E-16, 2.000000000000000000, -6.500000000000000000 ) ) ;
#49 = EDGE_LOOP ( 'NONE', ( #182, #42 ) ) ;
#50 = CARTESIAN_POINT ( 'NONE',  ( 0.000000000000000000, 2.000000000000000000, 0.000000000000000000 ) ) ;
#51 = CYLINDRICAL_SURFACE ( 'NONE', #86, 7.500000000000000000 ) ;
#52 = CARTESIAN_POINT ( 'NONE',  ( 0.000000000000000000, 0.000000000000000000, 0.000000000000000000 ) ) ;
#53 = TOROIDAL_SURFACE ( 'NONE', #110, 6.500000000000000000, 1.000000000000000000 ) ;
#54 = CALENDAR_DATE ( 2026, 7, 9 ) ;
#55 = COORDINATED_UNIVERSAL_TIME_OFFSET ( 0, 0, .AHEAD. ) ;
#56 = ORIENTED_EDGE ( 'NONE', *, *, #201, .F. ) ;
#57 = DATE_AND_TIME ( #71, #224 ) ;
#58 = ORIENTED_EDGE ( 'NONE', *, *, #201, .T. ) ;
#59 = CIRCLE ( 'NONE', #192, 7.500000000000000000 ) ;
#60 = ORIENTED_EDGE ( 'NONE', *, *, #163, .T. ) ;
#61 = DIRECTION ( 'NONE',  ( -1.000000000000000000, 0.000000000000000000, 0.000000000000000000 ) ) ;
#62 = CARTESIAN_POINT ( 'NONE',  ( 0.000000000000000000, 2.000000000000000000, -7.500000000000000000 ) ) ;
#63 = EDGE_CURVE ( 'NONE', #18, #108, #64, .T. ) ;
#64 = CIRCLE ( 'NONE', #119, 6.500000000000000000 ) ;
#65 = ORIENTED_EDGE ( 'NONE', *, *, #103, .F. ) ;
#66 = DIRECTION ( 'NONE',  ( 0.000000000000000000, 0.000000000000000000, 1.000000000000000000 ) ) ;
#67 = CARTESIAN_POINT ( 'NONE',  ( 0.000000000000000000, 0.000000000000000000, -7.500000000000000000 ) ) ;
#68 = CC_DESIGN_SECURITY_CLASSIFICATION ( #211, ( #166 ) ) ;
#69 = PERSON_AND_ORGANIZATION ( #190, #22 ) ;
#70 = ADVANCED_FACE ( 'NONE', ( #134 ), #51, .T. ) ;
#71 = CALENDAR_DATE ( 2026, 7, 9 ) ;
#72 = LOCAL_TIME ( 18, 35, 26.00000000000000000, #106 ) ;
#73 = AXIS2_PLACEMENT_3D ( 'NONE', #37, #66, #195 ) ;
#74 = EDGE_LOOP ( 'NONE', ( #65, #165, #12, #227 ) ) ;
#75 = COORDINATED_UNIVERSAL_TIME_OFFSET ( 0, 0, .AHEAD. ) ;
#76 = CARTESIAN_POINT ( 'NONE',  ( 0.000000000000000000, 0.000000000000000000, 0.000000000000000000 ) ) ;
#77 = DIRECTION ( 'NONE',  ( 0.000000000000000000, 0.000000000000000000, 1.000000000000000000 ) ) ;
#78 = DIRECTION ( 'NONE',  ( 0.000000000000000000, 0.000000000000000000, 1.000000000000000000 ) ) ;
#79 = ORIENTED_EDGE ( 'NONE', *, *, #36, .F. ) ;
#80 = DIRECTION ( 'NONE',  ( 0.000000000000000000, 0.000000000000000000, -1.000000000000000000 ) ) ;
#81 = CC_DESIGN_DATE_AND_TIME_ASSIGNMENT ( #109, #181, ( #211 ) ) ;
#82 = APPLICATION_PROTOCOL_DEFINITION ( 'international standard', 'config_control_design', 1994, #41 ) ;
#83 = CC_DESIGN_APPROVAL ( #47, ( #211 ) ) ;
#84 = CLOSED_SHELL ( 'NONE', ( #122, #9, #70, #217, #186, #88 ) ) ;
#85 = APPROVAL_STATUS ( 'not_yet_approved' ) ;
#86 = AXIS2_PLACEMENT_3D ( 'NONE', #98, #32, #137 ) ;
#87 = DATE_AND_TIME ( #198, #93 ) ;
#88 = ADVANCED_FACE ( 'NONE', ( #135 ), #53, .T. ) ;
#89 = APPROVAL_ROLE ( '' ) ;
#90 = ORIENTED_EDGE ( 'NONE', *, *, #133, .F. ) ;
#91 = PERSON_AND_ORGANIZATION ( #190, #22 ) ;
#92 = ORIENTED_EDGE ( 'NONE', *, *, #169, .F. ) ;
#93 = LOCAL_TIME ( 18, 35, 26.00000000000000000, #179 ) ;
#94 = APPROVAL_STATUS ( 'not_yet_approved' ) ;
#95 = CIRCLE ( 'NONE', #115, 7.500000000000000000 ) ;
#96 = DIRECTION ( 'NONE',  ( 0.000000000000000000, 1.000000000000000000, 0.000000000000000000 ) ) ;
#97 = DIRECTION ( 'NONE',  ( -0.000000000000000000, -1.000000000000000000, -0.000000000000000000 ) ) ;
#98 = CARTESIAN_POINT ( 'NONE',  ( 0.000000000000000000, 3.000000000000000000, 0.000000000000000000 ) ) ;
#99 = APPROVAL_PERSON_ORGANIZATION ( #69, #47, #13 ) ;
#100 = DIRECTION ( 'NONE',  ( 0.000000000000000000, 1.000000000000000000, 0.000000000000000000 ) ) ;
#101 = APPROVAL_PERSON_ORGANIZATION ( #185, #183, #11 ) ;
#102 = CARTESIAN_POINT ( 'NONE',  ( 0.000000000000000000, 3.000000000000000000, -7.500000000000000000 ) ) ;
#103 = EDGE_CURVE ( 'NONE', #45, #145, #167, .T. ) ;
#104 = PERSON_AND_ORGANIZATION ( #190, #22 ) ;
#105 = PRODUCT_DEFINITION ( 'UNKNOWN', '', #166, #128 ) ;
#106 = COORDINATED_UNIVERSAL_TIME_OFFSET ( 0, 0, .AHEAD. ) ;
#107 = EDGE_LOOP ( 'NONE', ( #56, #24, #130, #60 ) ) ;
#108 = VERTEX_POINT ( 'NONE', #175 ) ;
#109 = DATE_AND_TIME ( #162, #72 ) ;
#110 = AXIS2_PLACEMENT_3D ( 'NONE', #209, #100, #148 ) ;
#111 = DIRECTION ( 'NONE',  ( 1.224646799147352468E-16, 0.000000000000000000, -1.000000000000000000 ) ) ;
#112 = DIRECTION ( 'NONE',  ( 0.000000000000000000, 0.000000000000000000, 1.000000000000000000 ) ) ;
#113 = APPROVAL ( #85, 'UNSPECIFIED' ) ;
#114 = CARTESIAN_POINT ( 'NONE',  ( 0.000000000000000000, 2.000000000000000000, 0.000000000000000000 ) ) ;
#115 = AXIS2_PLACEMENT_3D ( 'NONE', #31, #97, #172 ) ;
#116 = CARTESIAN_POINT ( 'NONE',  ( 0.000000000000000000, 3.000000000000000000, 0.000000000000000000 ) ) ;
#117 = DIRECTION ( 'NONE',  ( -0.000000000000000000, -1.000000000000000000, -0.000000000000000000 ) ) ;
#118 = DIRECTION ( 'NONE',  ( 0.000000000000000000, 1.000000000000000000, 0.000000000000000000 ) ) ;
#119 = AXIS2_PLACEMENT_3D ( 'NONE', #226, #33, #213 ) ;
#120 = LOCAL_TIME ( 18, 35, 26.00000000000000000, #55 ) ;
#121 = DIRECTION ( 'NONE',  ( -0.000000000000000000, -1.000000000000000000, -0.000000000000000000 ) ) ;
#122 = ADVANCED_FACE ( 'NONE', ( #223 ), #160, .T. ) ;
#123 = DIRECTION ( 'NONE',  ( 0.000000000000000000, -0.000000000000000000, 1.000000000000000000 ) ) ;
#124 = CIRCLE ( 'NONE', #26, 1.000000000000000000 ) ;
#125 = DIRECTION ( 'NONE',  ( 0.000000000000000000, 1.000000000000000000, 0.000000000000000000 ) ) ;
#126 = CC_DESIGN_PERSON_AND_ORGANIZATION_ASSIGNMENT ( #104, #184, ( #166 ) ) ;
#127 = CALENDAR_DATE ( 2026, 7, 9 ) ;
#128 = DESIGN_CONTEXT ( 'detailed design', #157, 'design' ) ;
#129 = VECTOR ( 'NONE', #121, 1000.000000000000000 ) ;
#130 = ORIENTED_EDGE ( 'NONE', *, *, #210, .T. ) ;
#131 = SHAPE_DEFINITION_REPRESENTATION ( #39, #20 ) ;
#132 = CARTESIAN_POINT ( 'NONE',  ( 9.184850993605147944E-16, 0.000000000000000000, 7.500000000000000000 ) ) ;
#133 = EDGE_CURVE ( 'NONE', #45, #108, #206, .T. ) ;
#134 = FACE_OUTER_BOUND ( 'NONE', #107, .T. ) ;
#135 = FACE_OUTER_BOUND ( 'NONE', #203, .T. ) ;
#136 = EDGE_LOOP ( 'NONE', ( #214, #79 ) ) ;
#137 = DIRECTION ( 'NONE',  ( 0.000000000000000000, 0.000000000000000000, -1.000000000000000000 ) ) ;
#138 = PLANE ( 'NONE',  #6 ) ;
#139 = CC_DESIGN_PERSON_AND_ORGANIZATION_ASSIGNMENT ( #168, #43, ( #211 ) ) ;
#140 =( LENGTH_UNIT ( ) NAMED_UNIT ( * ) SI_UNIT ( .MILLI., .METRE. ) );
#141 = LOCAL_TIME ( 18, 35, 26.00000000000000000, #75 ) ;
#142 = CC_DESIGN_DATE_AND_TIME_ASSIGNMENT ( #87, #144, ( #105 ) ) ;
#143 = AXIS2_PLACEMENT_3D ( 'NONE', #48, #16, #111 ) ;
#144 = DATE_TIME_ROLE ( 'creation_date' ) ;
#145 = VERTEX_POINT ( 'NONE', #187 ) ;
#146 = EDGE_LOOP ( 'NONE', ( #44, #58, #29, #199 ) ) ;
#147 = APPROVAL_DATE_TIME ( #57, #47 ) ;
#148 = DIRECTION ( 'NONE',  ( 0.000000000000000000, 0.000000000000000000, 1.000000000000000000 ) ) ;
#149 = EDGE_CURVE ( 'NONE', #108, #18, #218, .T. ) ;
#150 = CC_DESIGN_APPROVAL ( #183, ( #105 ) ) ;
#151 = CARTESIAN_POINT ( 'NONE',  ( 0.000000000000000000, 3.000000000000000000, 0.000000000000000000 ) ) ;
#152 = CARTESIAN_POINT ( 'NONE',  ( 0.000000000000000000, 0.000000000000000000, 0.000000000000000000 ) ) ;
#153 = ORIENTED_EDGE ( 'NONE', *, *, #173, .T. ) ;
#154 = DIRECTION ( 'NONE',  ( 0.000000000000000000, 1.000000000000000000, 0.000000000000000000 ) ) ;
#155 = VECTOR ( 'NONE', #216, 1000.000000000000000 ) ;
#156 =( NAMED_UNIT ( * ) SI_UNIT ( $, .STERADIAN. ) SOLID_ANGLE_UNIT ( ) );
#157 = APPLICATION_CONTEXT ( 'configuration controlled 3d designs of mechanical parts and assemblies' ) ;
#158 = CC_DESIGN_PERSON_AND_ORGANIZATION_ASSIGNMENT ( #25, #15, ( #105 ) ) ;
#159 = LINE ( 'NONE', #34, #129 ) ;
#160 = TOROIDAL_SURFACE ( 'NONE', #212, 6.500000000000000000, 1.000000000000000000 ) ;
#161 = LINE ( 'NONE', #102, #155 ) ;
#162 = CALENDAR_DATE ( 2026, 7, 9 ) ;
#163 = EDGE_CURVE ( 'NONE', #220, #27, #2, .T. ) ;
#164 = COORDINATED_UNIVERSAL_TIME_OFFSET ( 0, 0, .AHEAD. ) ;
#165 = ORIENTED_EDGE ( 'NONE', *, *, #133, .T. ) ;
#166 = PRODUCT_DEFINITION_FORMATION_WITH_SPECIFIED_SOURCE ( 'ANY', '', #197, .NOT_KNOWN. ) ;
#167 = CIRCLE ( 'NONE', #180, 7.500000000000000000 ) ;
#168 = PERSON_AND_ORGANIZATION ( #190, #22 ) ;
#169 = EDGE_CURVE ( 'NONE', #145, #45, #95, .T. ) ;
#170 = FACE_OUTER_BOUND ( 'NONE', #146, .T. ) ;
#171 = AXIS2_PLACEMENT_3D ( 'NONE', #152, #208, #112 ) ;
#172 = DIRECTION ( 'NONE',  ( 0.000000000000000000, 0.000000000000000000, 1.000000000000000000 ) ) ;
#173 = EDGE_CURVE ( 'NONE', #145, #18, #124, .T. ) ;
#174 = DIRECTION ( 'NONE',  ( 0.000000000000000000, 0.000000000000000000, 1.000000000000000000 ) ) ;
#175 = CARTESIAN_POINT ( 'NONE',  ( 8.572527594031472204E-16, 3.000000000000000000, -6.500000000000000000 ) ) ;
#176 = FACE_OUTER_BOUND ( 'NONE', #49, .T. ) ;
#177 = CC_DESIGN_PERSON_AND_ORGANIZATION_ASSIGNMENT ( #202, #200, ( #166 ) ) ;
#178 = PERSON_AND_ORGANIZATION ( #190, #22 ) ;
#179 = COORDINATED_UNIVERSAL_TIME_OFFSET ( 0, 0, .AHEAD. ) ;
#180 = AXIS2_PLACEMENT_3D ( 'NONE', #50, #117, #191 ) ;
#181 = DATE_TIME_ROLE ( 'classification_date' ) ;
#182 = ORIENTED_EDGE ( 'NONE', *, *, #63, .T. ) ;
#183 = APPROVAL ( #23, 'UNSPECIFIED' ) ;
#184 = PERSON_AND_ORGANIZATION_ROLE ( 'design_supplier' ) ;
#185 = PERSON_AND_ORGANIZATION ( #190, #22 ) ;
#186 = ADVANCED_FACE ( 'NONE', ( #8 ), #138, .F. ) ;
#187 = CARTESIAN_POINT ( 'NONE',  ( 9.184850993605147944E-16, 2.000000000000000000, 7.500000000000000000 ) ) ;
#188 = DIRECTION ( 'NONE',  ( -0.000000000000000000, -1.000000000000000000, -0.000000000000000000 ) ) ;
#189 = CYLINDRICAL_SURFACE ( 'NONE', #38, 7.500000000000000000 ) ;
#190 = PERSON ( 'UNSPECIFIED', 'UNSPECIFIED', 'UNSPECIFIED', ('UNSPECIFIED'), ('UNSPECIFIED'), ('UNSPECIFIED') ) ;
#191 = DIRECTION ( 'NONE',  ( 0.000000000000000000, 0.000000000000000000, 1.000000000000000000 ) ) ;
#192 = AXIS2_PLACEMENT_3D ( 'NONE', #76, #207, #174 ) ;
#193 = DIRECTION ( 'NONE',  ( 0.000000000000000000, -0.000000000000000000, 1.000000000000000000 ) ) ;
#194 = PLANE ( 'NONE',  #21 ) ;
#195 = DIRECTION ( 'NONE',  ( 1.000000000000000000, 0.000000000000000000, 0.000000000000000000 ) ) ;
#196 = APPLICATION_PROTOCOL_DEFINITION ( 'international standard', 'config_control_design', 1994, #157 ) ;
#197 = PRODUCT ( 'ParasolBase', 'ParasolBase', '', ( #7 ) ) ;
#198 = CALENDAR_DATE ( 2026, 7, 9 ) ;
#199 = ORIENTED_EDGE ( 'NONE', *, *, #210, .F. ) ;
#200 = PERSON_AND_ORGANIZATION_ROLE ( 'creator' ) ;
#201 = EDGE_CURVE ( 'NONE', #145, #27, #159, .T. ) ;
#202 = PERSON_AND_ORGANIZATION ( #190, #22 ) ;
#203 = EDGE_LOOP ( 'NONE', ( #90, #92, #153, #14 ) ) ;
#204 = APPROVAL_DATE_TIME ( #222, #183 ) ;
#205 = APPROVAL_PERSON_ORGANIZATION ( #91, #113, #89 ) ;
#206 = CIRCLE ( 'NONE', #143, 1.000000000000000000 ) ;
#207 = DIRECTION ( 'NONE',  ( 0.000000000000000000, 1.000000000000000000, 0.000000000000000000 ) ) ;
#208 = DIRECTION ( 'NONE',  ( 0.000000000000000000, 1.000000000000000000, 0.000000000000000000 ) ) ;
#209 = CARTESIAN_POINT ( 'NONE',  ( 0.000000000000000000, 2.000000000000000000, 0.000000000000000000 ) ) ;
#210 = EDGE_CURVE ( 'NONE', #45, #220, #161, .T. ) ;
#211 = SECURITY_CLASSIFICATION ( '', '', #221 ) ;
#212 = AXIS2_PLACEMENT_3D ( 'NONE', #114, #96, #77 ) ;
#213 = DIRECTION ( 'NONE',  ( 0.000000000000000000, 0.000000000000000000, 1.000000000000000000 ) ) ;
#214 = ORIENTED_EDGE ( 'NONE', *, *, #163, .F. ) ;
#215 = MANIFOLD_SOLID_BREP ( 'Fillet1', #84 ) ;
#216 = DIRECTION ( 'NONE',  ( -0.000000000000000000, -1.000000000000000000, -0.000000000000000000 ) ) ;
#217 = ADVANCED_FACE ( 'NONE', ( #176 ), #194, .T. ) ;
#218 = CIRCLE ( 'NONE', #19, 6.500000000000000000 ) ;
#219 = CC_DESIGN_PERSON_AND_ORGANIZATION_ASSIGNMENT ( #178, #10, ( #197 ) ) ;
#220 = VERTEX_POINT ( 'NONE', #67 ) ;
#221 = SECURITY_CLASSIFICATION_LEVEL ( 'unclassified' ) ;
#222 = DATE_AND_TIME ( #127, #120 ) ;
#223 = FACE_OUTER_BOUND ( 'NONE', #74, .T. ) ;
#224 = LOCAL_TIME ( 18, 35, 26.00000000000000000, #164 ) ;
#225 =( GEOMETRIC_REPRESENTATION_CONTEXT ( 3 ) GLOBAL_UNCERTAINTY_ASSIGNED_CONTEXT ( ( #28 ) ) GLOBAL_UNIT_ASSIGNED_CONTEXT ( ( #140, #4, #156 ) ) REPRESENTATION_CONTEXT ( 'NONE', 'WORKASPACE' ) );
#226 = CARTESIAN_POINT ( 'NONE',  ( 0.000000000000000000, 3.000000000000000000, 0.000000000000000000 ) ) ;
#227 = ORIENTED_EDGE ( 'NONE', *, *, #173, .F. ) ;
ENDSEC;
END-ISO-10303-21;
