ISO-10303-21;
HEADER;
FILE_DESCRIPTION (( 'STEP AP203' ),
    '1' );
FILE_NAME ('Railing.step',
    '2026-09-07T17:35:27',
    ( '' ),
    ( '' ),
    'SwSTEP 2.0',
    'SolidWorks 2026',
    '' );
FILE_SCHEMA (( 'CONFIG_CONTROL_DESIGN' ));
ENDSEC;

DATA;
#1 = DIRECTION ( 'NONE',  ( 1.000000000000000000, 0.000000000000000000, 0.000000000000000000 ) ) ;
#2 = ORIENTED_EDGE ( 'NONE', *, *, #555, .T. ) ;
#3 = VECTOR ( 'NONE', #1, 1000.000000000000000 ) ;
#4 = DIRECTION ( 'NONE',  ( 0.000000000000000000, 0.000000000000000000, -1.000000000000000000 ) ) ;
#5 = APPROVAL_PERSON_ORGANIZATION ( #455, #97, #413 ) ;
#6 = SHAPE_DEFINITION_REPRESENTATION ( #347, #189 ) ;
#7 = VECTOR ( 'NONE', #190, 1000.000000000000000 ) ;
#8 = ORIENTED_EDGE ( 'NONE', *, *, #531, .F. ) ;
#9 = CYLINDRICAL_SURFACE ( 'NONE', #331, 1.500000000000000000 ) ;
#10 = CARTESIAN_POINT ( 'NONE',  ( 635.8914734120553476, -1265.835911333522063, 4.999999999999999112 ) ) ;
#11 = APPROVAL_ROLE ( '' ) ;
#12 = DIRECTION ( 'NONE',  ( 0.000000000000000000, -1.000000000000000000, 0.000000000000000000 ) ) ;
#13 = CARTESIAN_POINT ( 'NONE',  ( 719.2701530684955742, -1271.214590989962062, 3.500000000000000000 ) ) ;
#14 = EDGE_CURVE ( 'NONE', #337, #264, #478, .T. ) ;
#15 = DIRECTION ( 'NONE',  ( 0.000000000000000000, -1.000000000000000000, 0.000000000000000000 ) ) ;
#16 = VERTEX_POINT ( 'NONE', #357 ) ;
#17 = PERSON_AND_ORGANIZATION ( #154, #268 ) ;
#18 = CARTESIAN_POINT ( 'NONE',  ( 639.7701530684956879, 0.000000000000000000, 5.000000000000000000 ) ) ;
#19 = VECTOR ( 'NONE', #199, 1000.000000000000000 ) ;
#20 = CARTESIAN_POINT ( 'NONE',  ( 635.2701530684956879, -1403.214590989962289, 3.500000000000000000 ) ) ;
#21 = ORIENTED_EDGE ( 'NONE', *, *, #363, .T. ) ;
#22 = CARTESIAN_POINT ( 'NONE',  ( 719.2701530684955742, -1271.214590989962062, 3.500000000000000000 ) ) ;
#23 = CYLINDRICAL_SURFACE ( 'NONE', #516, 1.500000000000000000 ) ;
#24 = ORIENTED_EDGE ( 'NONE', *, *, #440, .F. ) ;
#25 = EDGE_CURVE ( 'NONE', #92, #257, #240, .T. ) ;
#26 = APPLICATION_PROTOCOL_DEFINITION ( 'international standard', 'config_control_design', 1994, #327 ) ;
#27 = DESIGN_CONTEXT ( 'detailed design', #327, 'design' ) ;
#28 = CARTESIAN_POINT ( 'NONE',  ( 0.000000000000000000, -1398.714590989962517, 3.500000000000000000 ) ) ;
#29 = CARTESIAN_POINT ( 'NONE',  ( 641.2701530684956879, -1271.214590989962062, 5.000000000000000000 ) ) ;
#30 = VERTEX_POINT ( 'NONE', #496 ) ;
#31 = DIRECTION ( 'NONE',  ( 0.000000000000000000, 1.000000000000000000, 0.000000000000000000 ) ) ;
#32 = LINE ( 'NONE', #461, #250 ) ;
#33 = VECTOR ( 'NONE', #274, 1000.000000000000000 ) ;
#34 = ORIENTED_EDGE ( 'NONE', *, *, #234, .T. ) ;
#35 = DIRECTION ( 'NONE',  ( -1.000000000000000000, 0.000000000000000000, 0.000000000000000000 ) ) ;
#36 = ADVANCED_FACE ( 'NONE', ( #650 ), #23, .T. ) ;
#37 = DIRECTION ( 'NONE',  ( 1.000000000000000000, -0.000000000000000000, -0.000000000000000000 ) ) ;
#38 = ORIENTED_EDGE ( 'NONE', *, *, #47, .F. ) ;
#39 = FACE_OUTER_BOUND ( 'NONE', #171, .T. ) ;
#40 = PLANE ( 'NONE',  #58 ) ;
#41 = EDGE_LOOP ( 'NONE', ( #475, #43, #34, #551 ) ) ;
#42 = FACE_OUTER_BOUND ( 'NONE', #208, .T. ) ;
#43 = ORIENTED_EDGE ( 'NONE', *, *, #678, .F. ) ;
#44 = DATE_AND_TIME ( #426, #644 ) ;
#45 = CYLINDRICAL_SURFACE ( 'NONE', #237, 1.500000000000000000 ) ;
#46 = ORIENTED_EDGE ( 'NONE', *, *, #219, .F. ) ;
#47 = EDGE_CURVE ( 'NONE', #352, #162, #546, .T. ) ;
#48 = CARTESIAN_POINT ( 'NONE',  ( 635.2701530684956879, -1265.214590989962289, 0.000000000000000000 ) ) ;
#49 = DIRECTION ( 'NONE',  ( -1.000000000000000000, 0.000000000000000000, 0.000000000000000000 ) ) ;
#50 = ORIENTED_EDGE ( 'NONE', *, *, #103, .F. ) ;
#51 = PLANE ( 'NONE',  #291 ) ;
#52 = COORDINATED_UNIVERSAL_TIME_OFFSET ( 0, 0, .AHEAD. ) ;
#53 = VERTEX_POINT ( 'NONE', #173 ) ;
#54 = FACE_OUTER_BOUND ( 'NONE', #372, .T. ) ;
#55 = EDGE_LOOP ( 'NONE', ( #362, #489, #242, #277, #571, #201, #553, #473, #525, #142 ) ) ;
#56 = LINE ( 'NONE', #308, #3 ) ;
#57 = ORIENTED_EDGE ( 'NONE', *, *, #197, .F. ) ;
#58 = AXIS2_PLACEMENT_3D ( 'NONE', #616, #83, #289 ) ;
#59 = DIRECTION ( 'NONE',  ( -0.000000000000000000, -0.000000000000000000, -1.000000000000000000 ) ) ;
#60 = DIRECTION ( 'NONE',  ( 1.000000000000000000, 0.000000000000000000, -0.000000000000000000 ) ) ;
#61 = CARTESIAN_POINT ( 'NONE',  ( 723.7701530684956879, -1266.714590989962517, 5.000000000000000000 ) ) ;
#62 = FACE_OUTER_BOUND ( 'NONE', #313, .T. ) ;
#63 = CARTESIAN_POINT ( 'NONE',  ( 639.7701530684956879, -1398.714590989962517, 5.000000000000000000 ) ) ;
#64 = MANIFOLD_SOLID_BREP ( 'Fillet1', #380 ) ;
#65 = ORIENTED_EDGE ( 'NONE', *, *, #103, .T. ) ;
#66 = PERSON_AND_ORGANIZATION ( #154, #268 ) ;
#67 = DIRECTION ( 'NONE',  ( -1.000000000000000000, -0.000000000000000000, -0.000000000000000000 ) ) ;
#68 = DIRECTION ( 'NONE',  ( -1.000000000000000000, -0.000000000000000000, -0.000000000000000000 ) ) ;
#69 = VERTEX_POINT ( 'NONE', #227 ) ;
#70 = CARTESIAN_POINT ( 'NONE',  ( 720.7701530684955742, -1269.714590989962062, 5.000000000000000000 ) ) ;
#71 = LOCAL_TIME ( 18, 35, 27.00000000000000000, #52 ) ;
#72 = CARTESIAN_POINT ( 'NONE',  ( 723.7701530684956879, -1365.714590989962062, 5.000000000000000000 ) ) ;
#73 = VECTOR ( 'NONE', #488, 1000.000000000000000 ) ;
#74 = ORIENTED_EDGE ( 'NONE', *, *, #344, .T. ) ;
#75 =( BOUNDED_CURVE ( )  B_SPLINE_CURVE ( 3, ( #524, #624, #147, #306 ),
 .UNSPECIFIED., .F., .T. ) 
 B_SPLINE_CURVE_WITH_KNOTS ( ( 4, 4 ),
 ( 0.000000000000000000, 1.570796326794896558 ),
 .UNSPECIFIED. ) 
 CURVE ( )  GEOMETRIC_REPRESENTATION_ITEM ( )  RATIONAL_B_SPLINE_CURVE ( ( 1.000000000000000000, 0.8047378541243649375, 0.8047378541243649375, 1.000000000000000000 ) ) 
 REPRESENTATION_ITEM ( '' )  );
#76 = DIRECTION ( 'NONE',  ( 0.000000000000000000, -1.000000000000000000, 0.000000000000000000 ) ) ;
#77 = LINE ( 'NONE', #220, #73 ) ;
#78 = APPROVAL_DATE_TIME ( #602, #211 ) ;
#79 = DIRECTION ( 'NONE',  ( -0.000000000000000000, -1.000000000000000000, -0.000000000000000000 ) ) ;
#80 = CARTESIAN_POINT ( 'NONE',  ( 725.2701530684955742, -1397.214590989962517, 5.000000000000000000 ) ) ;
#81 = EDGE_LOOP ( 'NONE', ( #544, #578, #238, #286 ) ) ;
#82 = DATE_TIME_ROLE ( 'classification_date' ) ;
#83 = DIRECTION ( 'NONE',  ( 0.000000000000000000, 1.000000000000000000, 0.000000000000000000 ) ) ;
#84 = AXIS2_PLACEMENT_3D ( 'NONE', #433, #591, #479 ) ;
#85 = ORIENTED_EDGE ( 'NONE', *, *, #443, .F. ) ;
#86 = CALENDAR_DATE ( 2026, 7, 9 ) ;
#87 = DIRECTION ( 'NONE',  ( -1.000000000000000000, 0.000000000000000000, 0.000000000000000000 ) ) ;
#88 = CARTESIAN_POINT ( 'NONE',  ( 719.2701530684954605, -1271.214590989962062, 4.378679656440357171 ) ) ;
#89 = EDGE_LOOP ( 'NONE', ( #294, #255, #637, #632 ) ) ;
#90 = DIRECTION ( 'NONE',  ( -1.000000000000000000, 0.000000000000000000, 0.000000000000000000 ) ) ;
#91 = DIRECTION ( 'NONE',  ( -0.000000000000000000, -0.000000000000000000, -1.000000000000000000 ) ) ;
#92 = VERTEX_POINT ( 'NONE', #109 ) ;
#93 = UNCERTAINTY_MEASURE_WITH_UNIT (LENGTH_MEASURE( 1.000000000000000082E-05 ), #594, 'distance_accuracy_value', 'NONE');
#94 = CARTESIAN_POINT ( 'NONE',  ( 719.2701530684955742, -1271.214590989962062, 5.000000000000000000 ) ) ;
#95 = ADVANCED_FACE ( 'NONE', ( #158 ), #170, .F. ) ;
#96 = ORIENTED_EDGE ( 'NONE', *, *, #248, .F. ) ;
#97 = APPROVAL ( #105, 'UNSPECIFIED' ) ;
#98 = VECTOR ( 'NONE', #379, 1000.000000000000000 ) ;
#99 = VECTOR ( 'NONE', #91, 1000.000000000000000 ) ;
#100 = FACE_OUTER_BOUND ( 'NONE', #501, .T. ) ;
#101 = DIRECTION ( 'NONE',  ( 0.000000000000000000, -1.000000000000000000, 0.000000000000000000 ) ) ;
#102 = ORIENTED_EDGE ( 'NONE', *, *, #420, .T. ) ;
#103 = EDGE_CURVE ( 'NONE', #343, #352, #266, .T. ) ;
#104 = EDGE_CURVE ( 'NONE', #521, #399, #126, .T. ) ;
#105 = APPROVAL_STATUS ( 'not_yet_approved' ) ;
#106 = APPROVAL_DATE_TIME ( #215, #685 ) ;
#107 = VERTEX_POINT ( 'NONE', #383 ) ;
#108 = CARTESIAN_POINT ( 'NONE',  ( 636.7701530684955742, -1266.714590989962517, 5.000000000000000000 ) ) ;
#109 = CARTESIAN_POINT ( 'NONE',  ( 725.2701530684955742, -1367.214590989962289, 3.500000000000000000 ) ) ;
#110 = CARTESIAN_POINT ( 'NONE',  ( 636.7701530684955742, -1401.714590989962289, 5.000000000000000000 ) ) ;
#111 = LOCAL_TIME ( 18, 35, 27.00000000000000000, #648 ) ;
#112 = CARTESIAN_POINT ( 'NONE',  ( 719.2701530684955742, -1367.214590989962289, 5.000000000000000000 ) ) ;
#113 = CARTESIAN_POINT ( 'NONE',  ( 724.6488327249360282, -1402.593270646402516, 4.999999999999999112 ) ) ;
#114 = EDGE_LOOP ( 'NONE', ( #186, #140, #309, #673 ) ) ;
#115 = DIRECTION ( 'NONE',  ( 0.000000000000000000, 0.000000000000000000, 1.000000000000000000 ) ) ;
#116 = DIRECTION ( 'NONE',  ( 0.000000000000000000, 0.000000000000000000, 1.000000000000000000 ) ) ;
#117 = ORIENTED_EDGE ( 'NONE', *, *, #606, .T. ) ;
#118 = EDGE_CURVE ( 'NONE', #53, #246, #216, .T. ) ;
#119 = DIRECTION ( 'NONE',  ( 0.000000000000000000, 0.000000000000000000, -1.000000000000000000 ) ) ;
#120 = EDGE_CURVE ( 'NONE', #370, #360, #324, .T. ) ;
#121 = DIRECTION ( 'NONE',  ( -0.000000000000000000, -0.000000000000000000, -1.000000000000000000 ) ) ;
#122 = VERTEX_POINT ( 'NONE', #543 ) ;
#123 = LINE ( 'NONE', #385, #98 ) ;
#124 = CYLINDRICAL_SURFACE ( 'NONE', #84, 1.500000000000000000 ) ;
#125 =( GEOMETRIC_REPRESENTATION_CONTEXT ( 3 ) GLOBAL_UNCERTAINTY_ASSIGNED_CONTEXT ( ( #93 ) ) GLOBAL_UNIT_ASSIGNED_CONTEXT ( ( #594, #388, #163 ) ) REPRESENTATION_CONTEXT ( 'NONE', 'WORKASPACE' ) );
#126 = LINE ( 'NONE', #438, #305 ) ;
#127 = VECTOR ( 'NONE', #321, 1000.000000000000000 ) ;
#128 = ORIENTED_EDGE ( 'NONE', *, *, #531, .T. ) ;
#129 = CARTESIAN_POINT ( 'NONE',  ( 635.2701530684956879, -1403.214590989962517, 4.378679656440357171 ) ) ;
#130 = LINE ( 'NONE', #509, #435 ) ;
#131 = LINE ( 'NONE', #562, #222 ) ;
#132 = CARTESIAN_POINT ( 'NONE',  ( 636.7701530684955742, -1266.714590989962517, 5.000000000000000000 ) ) ;
#133 = ORIENTED_EDGE ( 'NONE', *, *, #541, .T. ) ;
#134 = FACE_OUTER_BOUND ( 'NONE', #55, .T. ) ;
#135 = DIRECTION ( 'NONE',  ( 0.000000000000000000, 0.000000000000000000, -1.000000000000000000 ) ) ;
#136 = AXIS2_PLACEMENT_3D ( 'NONE', #217, #115, #494 ) ;
#137 = EDGE_LOOP ( 'NONE', ( #574, #304, #598, #128 ) ) ;
#138 = LINE ( 'NONE', #300, #679 ) ;
#139 = CARTESIAN_POINT ( 'NONE',  ( 0.000000000000000000, -1365.714590989962062, 3.500000000000000000 ) ) ;
#140 = ORIENTED_EDGE ( 'NONE', *, *, #431, .F. ) ;
#141 = DIRECTION ( 'NONE',  ( 1.000000000000000000, 0.000000000000000000, 0.000000000000000000 ) ) ;
#142 = ORIENTED_EDGE ( 'NONE', *, *, #197, .T. ) ;
#143 = VECTOR ( 'NONE', #577, 1000.000000000000000 ) ;
#144 = EDGE_LOOP ( 'NONE', ( #65, #232, #601, #621 ) ) ;
#145 = AXIS2_PLACEMENT_3D ( 'NONE', #582, #49, #258 ) ;
#146 = VECTOR ( 'NONE', #335, 1000.000000000000000 ) ;
#147 = CARTESIAN_POINT ( 'NONE',  ( 719.8914734120548928, -1366.593270646402516, 4.999999999999999112 ) ) ;
#148 =( BOUNDED_CURVE ( )  B_SPLINE_CURVE ( 3, ( #556, #565, #129, #653 ),
 .UNSPECIFIED., .F., .F. ) 
 B_SPLINE_CURVE_WITH_KNOTS ( ( 4, 4 ),
 ( 4.712388980384689674, 6.283185307179586232 ),
 .UNSPECIFIED. ) 
 CURVE ( )  GEOMETRIC_REPRESENTATION_ITEM ( )  RATIONAL_B_SPLINE_CURVE ( ( 1.000000000000000000, 0.8047378541243649375, 0.8047378541243649375, 1.000000000000000000 ) ) 
 REPRESENTATION_ITEM ( '' )  );
#149 = EDGE_LOOP ( 'NONE', ( #671, #261, #411, #195 ) ) ;
#150 = EDGE_CURVE ( 'NONE', #684, #617, #77, .T. ) ;
#151 = APPROVAL_DATE_TIME ( #620, #97 ) ;
#152 = CARTESIAN_POINT ( 'NONE',  ( 641.2701530684956879, -1271.214590989962062, 3.500000000000000000 ) ) ;
#153 = ORIENTED_EDGE ( 'NONE', *, *, #634, .F. ) ;
#154 = PERSON ( 'UNSPECIFIED', 'UNSPECIFIED', 'UNSPECIFIED', ('UNSPECIFIED'), ('UNSPECIFIED'), ('UNSPECIFIED') ) ;
#155 = LINE ( 'NONE', #580, #143 ) ;
#156 = EDGE_LOOP ( 'NONE', ( #153, #661, #325, #505, #392, #221, #589, #8, #417, #85 ) ) ;
#157 = LINE ( 'NONE', #316, #408 ) ;
#158 = FACE_OUTER_BOUND ( 'NONE', #81, .T. ) ;
#159 = CARTESIAN_POINT ( 'NONE',  ( 635.2701530684956879, -1403.214590989962289, 0.000000000000000000 ) ) ;
#160 = DIRECTION ( 'NONE',  ( -1.000000000000000000, -0.000000000000000000, -0.000000000000000000 ) ) ;
#161 = DIRECTION ( 'NONE',  ( 0.000000000000000000, 1.000000000000000000, 0.000000000000000000 ) ) ;
#162 = VERTEX_POINT ( 'NONE', #20 ) ;
#163 =( NAMED_UNIT ( * ) SI_UNIT ( $, .STERADIAN. ) SOLID_ANGLE_UNIT ( ) );
#164 = AXIS2_PLACEMENT_3D ( 'NONE', #230, #76, #239 ) ;
#165 = CARTESIAN_POINT ( 'NONE',  ( 725.2701530684956879, -1397.214590989962517, 4.378679656440357171 ) ) ;
#166 = CARTESIAN_POINT ( 'NONE',  ( 641.2701530684956879, -1397.214590989962517, 5.000000000000000000 ) ) ;
#167 = DIRECTION ( 'NONE',  ( 0.000000000000000000, 1.000000000000000000, 0.000000000000000000 ) ) ;
#168 = CARTESIAN_POINT ( 'NONE',  ( 725.2701530684955742, -1268.214590989962289, 0.000000000000000000 ) ) ;
#169 = EDGE_CURVE ( 'NONE', #162, #439, #285, .T. ) ;
#170 = PLANE ( 'NONE',  #210 ) ;
#171 = EDGE_LOOP ( 'NONE', ( #302, #518, #540, #57 ) ) ;
#172 = CARTESIAN_POINT ( 'NONE',  ( 723.7701530684956879, -1398.714590989962517, 5.000000000000000000 ) ) ;
#173 = CARTESIAN_POINT ( 'NONE',  ( 725.2701530684955742, -1265.214590989962289, 3.500000000000000000 ) ) ;
#174 = ORIENTED_EDGE ( 'NONE', *, *, #452, .T. ) ;
#175 = CALENDAR_DATE ( 2026, 7, 9 ) ;
#176 = CARTESIAN_POINT ( 'NONE',  ( 0.000000000000000000, 0.000000000000000000, 5.000000000000000000 ) ) ;
#177 = VECTOR ( 'NONE', #332, 1000.000000000000000 ) ;
#178 = CARTESIAN_POINT ( 'NONE',  ( 0.000000000000000000, 0.000000000000000000, 0.000000000000000000 ) ) ;
#179 = CALENDAR_DATE ( 2026, 7, 9 ) ;
#180 = CARTESIAN_POINT ( 'NONE',  ( 639.7701530684956879, -1398.714590989962517, 5.000000000000000000 ) ) ;
#181 = DIRECTION ( 'NONE',  ( -0.000000000000000000, -0.000000000000000000, -1.000000000000000000 ) ) ;
#182 = ADVANCED_FACE ( 'NONE', ( #447 ), #374, .F. ) ;
#183 = VERTEX_POINT ( 'NONE', #63 ) ;
#184 = FACE_OUTER_BOUND ( 'NONE', #445, .T. ) ;
#185 = DIRECTION ( 'NONE',  ( 0.000000000000000000, 1.000000000000000000, -0.000000000000000000 ) ) ;
#186 = ORIENTED_EDGE ( 'NONE', *, *, #541, .F. ) ;
#187 = PERSON_AND_ORGANIZATION ( #154, #268 ) ;
#188 = DIRECTION ( 'NONE',  ( 1.000000000000000000, -0.000000000000000000, -0.000000000000000000 ) ) ;
#189 = ADVANCED_BREP_SHAPE_REPRESENTATION ( 'Railing', ( #64, #136 ), #125 ) ;
#190 = DIRECTION ( 'NONE',  ( -0.000000000000000000, -0.000000000000000000, -1.000000000000000000 ) ) ;
#191 = VECTOR ( 'NONE', #181, 1000.000000000000000 ) ;
#192 = ORIENTED_EDGE ( 'NONE', *, *, #311, .T. ) ;
#193 = EDGE_CURVE ( 'NONE', #617, #360, #588, .T. ) ;
#194 = DIRECTION ( 'NONE',  ( 0.000000000000000000, 1.000000000000000000, 0.000000000000000000 ) ) ;
#195 = ORIENTED_EDGE ( 'NONE', *, *, #487, .T. ) ;
#196 = ORIENTED_EDGE ( 'NONE', *, *, #522, .T. ) ;
#197 = EDGE_CURVE ( 'NONE', #412, #183, #483, .T. ) ;
#198 = EDGE_CURVE ( 'NONE', #228, #657, #224, .T. ) ;
#199 = DIRECTION ( 'NONE',  ( -0.000000000000000000, 1.000000000000000000, -0.000000000000000000 ) ) ;
#200 = VECTOR ( 'NONE', #67, 1000.000000000000000 ) ;
#201 = ORIENTED_EDGE ( 'NONE', *, *, #359, .T. ) ;
#202 = CARTESIAN_POINT ( 'NONE',  ( 725.2701530684955742, -1403.214590989962289, 5.000000000000000000 ) ) ;
#203 = VERTEX_POINT ( 'NONE', #434 ) ;
#204 = PRODUCT_DEFINITION ( 'UNKNOWN', '', #269, #27 ) ;
#205 = CARTESIAN_POINT ( 'NONE',  ( 720.7701530684955742, -1365.714590989962062, 5.000000000000000000 ) ) ;
#206 = ORIENTED_EDGE ( 'NONE', *, *, #312, .T. ) ;
#207 = CARTESIAN_POINT ( 'NONE',  ( 641.2701530684956879, -1271.214590989962062, 3.500000000000000000 ) ) ;
#208 = EDGE_LOOP ( 'NONE', ( #307, #630, #24, #407 ) ) ;
#209 = EDGE_CURVE ( 'NONE', #337, #617, #645, .T. ) ;
#210 = AXIS2_PLACEMENT_3D ( 'NONE', #386, #60, #596 ) ;
#211 = APPROVAL ( #229, 'UNSPECIFIED' ) ;
#212 = ORIENTED_EDGE ( 'NONE', *, *, #234, .F. ) ;
#213 = COORDINATED_UNIVERSAL_TIME_OFFSET ( 0, 0, .AHEAD. ) ;
#214 = LINE ( 'NONE', #112, #579 ) ;
#215 = DATE_AND_TIME ( #638, #71 ) ;
#216 = LINE ( 'NONE', #539, #146 ) ;
#217 = CARTESIAN_POINT ( 'NONE',  ( 0.000000000000000000, 0.000000000000000000, 0.000000000000000000 ) ) ;
#218 = DIRECTION ( 'NONE',  ( 1.000000000000000000, 0.000000000000000000, 0.000000000000000000 ) ) ;
#219 = EDGE_CURVE ( 'NONE', #92, #419, #649, .T. ) ;
#220 = CARTESIAN_POINT ( 'NONE',  ( 725.2701530684955742, -1397.214590989962517, 0.000000000000000000 ) ) ;
#221 = ORIENTED_EDGE ( 'NONE', *, *, #311, .F. ) ;
#222 = VECTOR ( 'NONE', #188, 1000.000000000000000 ) ;
#223 = CYLINDRICAL_SURFACE ( 'NONE', #656, 1.500000000000000000 ) ;
#224 = LINE ( 'NONE', #273, #463 ) ;
#225 = FACE_OUTER_BOUND ( 'NONE', #465, .T. ) ;
#226 = CARTESIAN_POINT ( 'NONE',  ( 725.2701530684955742, -1265.214590989962289, 3.500000000000000000 ) ) ;
#227 = CARTESIAN_POINT ( 'NONE',  ( 719.2701530684955742, -1271.214590989962062, 3.500000000000000000 ) ) ;
#228 = VERTEX_POINT ( 'NONE', #132 ) ;
#229 = APPROVAL_STATUS ( 'not_yet_approved' ) ;
#230 = CARTESIAN_POINT ( 'NONE',  ( 635.2701530684956879, -1265.214590989962289, 5.000000000000000000 ) ) ;
#231 = CARTESIAN_POINT ( 'NONE',  ( 635.2701530684956879, -1403.214590989962289, 5.000000000000000000 ) ) ;
#232 = ORIENTED_EDGE ( 'NONE', *, *, #420, .F. ) ;
#233 = PERSON_AND_ORGANIZATION ( #154, #268 ) ;
#234 = EDGE_CURVE ( 'NONE', #69, #521, #333, .T. ) ;
#235 = VECTOR ( 'NONE', #280, 1000.000000000000000 ) ;
#236 = CARTESIAN_POINT ( 'NONE',  ( 641.2701530684956879, -1271.214590989962062, 0.000000000000000000 ) ) ;
#237 = AXIS2_PLACEMENT_3D ( 'NONE', #139, #141, #604 ) ;
#238 = ORIENTED_EDGE ( 'NONE', *, *, #248, .T. ) ;
#239 = DIRECTION ( 'NONE',  ( 0.000000000000000000, -0.000000000000000000, -1.000000000000000000 ) ) ;
#240 =( BOUNDED_CURVE ( )  B_SPLINE_CURVE ( 3, ( #329, #536, #444, #72 ),
 .UNSPECIFIED., .F., .F. ) 
 B_SPLINE_CURVE_WITH_KNOTS ( ( 4, 4 ),
 ( 0.000000000000000000, 1.570796326794896558 ),
 .UNSPECIFIED. ) 
 CURVE ( )  GEOMETRIC_REPRESENTATION_ITEM ( )  RATIONAL_B_SPLINE_CURVE ( ( 1.000000000000000000, 0.8047378541243649375, 0.8047378541243649375, 1.000000000000000000 ) ) 
 REPRESENTATION_ITEM ( '' )  );
#241 = CARTESIAN_POINT ( 'NONE',  ( 719.2701530684955742, -1271.214590989962062, 5.000000000000000000 ) ) ;
#242 = ORIENTED_EDGE ( 'NONE', *, *, #104, .T. ) ;
#243 = CYLINDRICAL_SURFACE ( 'NONE', #635, 1.500000000000000000 ) ;
#244 = DIRECTION ( 'NONE',  ( 1.000000000000000000, -0.000000000000000000, -0.000000000000000000 ) ) ;
#245 = EDGE_CURVE ( 'NONE', #257, #677, #567, .T. ) ;
#246 = VERTEX_POINT ( 'NONE', #517 ) ;
#247 = CC_DESIGN_DATE_AND_TIME_ASSIGNMENT ( #340, #82, ( #561 ) ) ;
#248 = EDGE_CURVE ( 'NONE', #69, #30, #410, .T. ) ;
#249 = CARTESIAN_POINT ( 'NONE',  ( 725.2701530684955742, -1367.214590989962289, 5.000000000000000000 ) ) ;
#250 = VECTOR ( 'NONE', #667, 1000.000000000000000 ) ;
#251 = ORIENTED_EDGE ( 'NONE', *, *, #575, .T. ) ;
#252 = VECTOR ( 'NONE', #592, 1000.000000000000000 ) ;
#253 = DATE_TIME_ROLE ( 'creation_date' ) ;
#254 = LINE ( 'NONE', #80, #320 ) ;
#255 = ORIENTED_EDGE ( 'NONE', *, *, #575, .F. ) ;
#256 = CARTESIAN_POINT ( 'NONE',  ( 725.2701530684955742, -1367.214590989962289, 0.000000000000000000 ) ) ;
#257 = VERTEX_POINT ( 'NONE', #552 ) ;
#258 = DIRECTION ( 'NONE',  ( 0.000000000000000000, 0.000000000000000000, 1.000000000000000000 ) ) ;
#259 = CC_DESIGN_PERSON_AND_ORGANIZATION_ASSIGNMENT ( #187, #449, ( #561 ) ) ;
#260 = AXIS2_PLACEMENT_3D ( 'NONE', #576, #101, #528 ) ;
#261 = ORIENTED_EDGE ( 'NONE', *, *, #674, .T. ) ;
#262 = CC_DESIGN_APPROVAL ( #685, ( #561 ) ) ;
#263 = CARTESIAN_POINT ( 'NONE',  ( 725.2701530684955742, -1400.214590989962289, 5.000000000000000000 ) ) ;
#264 = VERTEX_POINT ( 'NONE', #618 ) ;
#265 = PLANE ( 'NONE',  #260 ) ;
#266 =( BOUNDED_CURVE ( )  B_SPLINE_CURVE ( 3, ( #480, #113, #391, #600 ),
 .UNSPECIFIED., .F., .T. ) 
 B_SPLINE_CURVE_WITH_KNOTS ( ( 4, 4 ),
 ( 4.712388980384689674, 6.283185307179586232 ),
 .UNSPECIFIED. ) 
 CURVE ( )  GEOMETRIC_REPRESENTATION_ITEM ( )  RATIONAL_B_SPLINE_CURVE ( ( 1.000000000000000000, 0.8047378541243649375, 0.8047378541243649375, 1.000000000000000000 ) ) 
 REPRESENTATION_ITEM ( '' )  );
#267 = DIRECTION ( 'NONE',  ( 0.000000000000000000, -1.000000000000000000, 0.000000000000000000 ) ) ;
#268 = ORGANIZATION ( 'UNSPECIFIED', 'UNSPECIFIED', '' ) ;
#269 = PRODUCT_DEFINITION_FORMATION_WITH_SPECIFIED_SOURCE ( 'ANY', '', #560, .NOT_KNOWN. ) ;
#270 = CYLINDRICAL_SURFACE ( 'NONE', #394, 1.500000000000000000 ) ;
#271 = ADVANCED_FACE ( 'NONE', ( #670 ), #512, .T. ) ;
#272 = CARTESIAN_POINT ( 'NONE',  ( 725.2701530684955742, -1403.214590989962289, 5.000000000000000000 ) ) ;
#273 = CARTESIAN_POINT ( 'NONE',  ( 636.7701530684955742, 0.000000000000000000, 5.000000000000000000 ) ) ;
#274 = DIRECTION ( 'NONE',  ( -1.000000000000000000, -0.000000000000000000, -0.000000000000000000 ) ) ;
#275 = CARTESIAN_POINT ( 'NONE',  ( 636.7701530684955742, 0.000000000000000000, 3.500000000000000000 ) ) ;
#276 = DIRECTION ( 'NONE',  ( 0.000000000000000000, 0.000000000000000000, -1.000000000000000000 ) ) ;
#277 = ORIENTED_EDGE ( 'NONE', *, *, #519, .T. ) ;
#278 = CARTESIAN_POINT ( 'NONE',  ( 725.2701530684955742, -1397.214590989962517, 0.000000000000000000 ) ) ;
#279 = AXIS2_PLACEMENT_3D ( 'NONE', #314, #526, #355 ) ;
#280 = DIRECTION ( 'NONE',  ( 0.000000000000000000, 1.000000000000000000, 0.000000000000000000 ) ) ;
#281 = VECTOR ( 'NONE', #121, 1000.000000000000000 ) ;
#282 = CARTESIAN_POINT ( 'NONE',  ( 725.2701530684955742, -1403.214590989962289, 3.500000000000000000 ) ) ;
#283 = MECHANICAL_CONTEXT ( 'NONE', #365, 'mechanical' ) ;
#284 = LINE ( 'NONE', #159, #547 ) ;
#285 = LINE ( 'NONE', #231, #281 ) ;
#286 = ORIENTED_EDGE ( 'NONE', *, *, #634, .T. ) ;
#287 = PERSON_AND_ORGANIZATION_ROLE ( 'creator' ) ;
#288 = CARTESIAN_POINT ( 'NONE',  ( 641.2701530684956879, -1397.214590989962517, 4.378679656440357171 ) ) ;
#289 = DIRECTION ( 'NONE',  ( 0.000000000000000000, -0.000000000000000000, 1.000000000000000000 ) ) ;
#290 = ORIENTED_EDGE ( 'NONE', *, *, #120, .F. ) ;
#291 = AXIS2_PLACEMENT_3D ( 'NONE', #202, #418, #361 ) ;
#292 = PRODUCT_RELATED_PRODUCT_CATEGORY ( 'detail', '', ( #560 ) ) ;
#293 = PLANE ( 'NONE',  #537 ) ;
#294 = ORIENTED_EDGE ( 'NONE', *, *, #581, .T. ) ;
#295 = ADVANCED_FACE ( 'NONE', ( #42 ), #45, .T. ) ;
#296 = CARTESIAN_POINT ( 'NONE',  ( 725.2701530684955742, -1400.214590989962289, 0.000000000000000000 ) ) ;
#297 = ADVANCED_FACE ( 'NONE', ( #353 ), #293, .F. ) ;
#298 = CARTESIAN_POINT ( 'NONE',  ( 641.2701530684956879, -1397.214590989962517, 3.500000000000000000 ) ) ;
#299 = ORIENTED_EDGE ( 'NONE', *, *, #104, .F. ) ;
#300 = CARTESIAN_POINT ( 'NONE',  ( 719.2701530684955742, -1271.214590989962062, 0.000000000000000000 ) ) ;
#301 = DIRECTION ( 'NONE',  ( 1.000000000000000000, 0.000000000000000000, 0.000000000000000000 ) ) ;
#302 = ORIENTED_EDGE ( 'NONE', *, *, #457, .T. ) ;
#303 = LINE ( 'NONE', #563, #623 ) ;
#304 = ORIENTED_EDGE ( 'NONE', *, *, #633, .T. ) ;
#305 = VECTOR ( 'NONE', #12, 1000.000000000000000 ) ;
#306 = CARTESIAN_POINT ( 'NONE',  ( 720.7701530684955742, -1365.714590989962062, 5.000000000000000000 ) ) ;
#307 = ORIENTED_EDGE ( 'NONE', *, *, #25, .T. ) ;
#308 = CARTESIAN_POINT ( 'NONE',  ( 0.000000000000000000, -1401.714590989962289, 5.000000000000000000 ) ) ;
#309 = ORIENTED_EDGE ( 'NONE', *, *, #590, .F. ) ;
#310 = CC_DESIGN_APPROVAL ( #97, ( #269 ) ) ;
#311 = EDGE_CURVE ( 'NONE', #439, #107, #303, .T. ) ;
#312 = EDGE_CURVE ( 'NONE', #264, #684, #254, .T. ) ;
#313 = EDGE_LOOP ( 'NONE', ( #484, #299, #212, #668 ) ) ;
#314 = CARTESIAN_POINT ( 'NONE',  ( 723.7701530684956879, 0.000000000000000000, 3.500000000000000000 ) ) ;
#315 = ORIENTED_EDGE ( 'NONE', *, *, #193, .T. ) ;
#316 = CARTESIAN_POINT ( 'NONE',  ( 722.2701530684955742, -1367.214590989962289, 3.500000000000000000 ) ) ;
#317 = DIRECTION ( 'NONE',  ( 1.000000000000000000, 0.000000000000000000, 0.000000000000000000 ) ) ;
#318 = VECTOR ( 'NONE', #328, 1000.000000000000000 ) ;
#319 = LINE ( 'NONE', #481, #523 ) ;
#320 = VECTOR ( 'NONE', #456, 1000.000000000000000 ) ;
#321 = DIRECTION ( 'NONE',  ( -1.000000000000000000, 0.000000000000000000, 0.000000000000000000 ) ) ;
#322 = ORIENTED_EDGE ( 'NONE', *, *, #652, .T. ) ;
#323 = EDGE_CURVE ( 'NONE', #16, #521, #342, .T. ) ;
#324 = LINE ( 'NONE', #29, #491 ) ;
#325 = ORIENTED_EDGE ( 'NONE', *, *, #193, .F. ) ;
#326 = LINE ( 'NONE', #13, #33 ) ;
#327 = APPLICATION_CONTEXT ( 'configuration controlled 3d designs of mechanical parts and assemblies' ) ;
#328 = DIRECTION ( 'NONE',  ( 1.000000000000000000, 0.000000000000000000, 0.000000000000000000 ) ) ;
#329 = CARTESIAN_POINT ( 'NONE',  ( 725.2701530684955742, -1367.214590989962289, 3.500000000000000000 ) ) ;
#330 = DIRECTION ( 'NONE',  ( 1.000000000000000000, 0.000000000000000000, 0.000000000000000000 ) ) ;
#331 = AXIS2_PLACEMENT_3D ( 'NONE', #393, #330, #119 ) ;
#332 = DIRECTION ( 'NONE',  ( -0.000000000000000000, -0.000000000000000000, -1.000000000000000000 ) ) ;
#333 =( BOUNDED_CURVE ( )  B_SPLINE_CURVE ( 3, ( #504, #88, #348, #464 ),
 .UNSPECIFIED., .F., .F. ) 
 B_SPLINE_CURVE_WITH_KNOTS ( ( 4, 4 ),
 ( 3.141592653589793116, 4.712388980384689674 ),
 .UNSPECIFIED. ) 
 CURVE ( )  GEOMETRIC_REPRESENTATION_ITEM ( )  RATIONAL_B_SPLINE_CURVE ( ( 1.000000000000000000, 0.8047378541243649375, 0.8047378541243649375, 1.000000000000000000 ) ) 
 REPRESENTATION_ITEM ( '' )  );
#334 = ADVANCED_FACE ( 'NONE', ( #406 ), #402, .T. ) ;
#335 = DIRECTION ( 'NONE',  ( -0.000000000000000000, -0.000000000000000000, -1.000000000000000000 ) ) ;
#336 = CC_DESIGN_PERSON_AND_ORGANIZATION_ASSIGNMENT ( #66, #485, ( #560 ) ) ;
#337 = VERTEX_POINT ( 'NONE', #298 ) ;
#338 = DIRECTION ( 'NONE',  ( 0.000000000000000000, 0.000000000000000000, 1.000000000000000000 ) ) ;
#339 = DIRECTION ( 'NONE',  ( -1.000000000000000000, 0.000000000000000000, 0.000000000000000000 ) ) ;
#340 = DATE_AND_TIME ( #179, #680 ) ;
#341 = DIRECTION ( 'NONE',  ( 0.000000000000000000, 0.000000000000000000, 1.000000000000000000 ) ) ;
#342 = LINE ( 'NONE', #655, #381 ) ;
#343 = VERTEX_POINT ( 'NONE', #608 ) ;
#344 = EDGE_CURVE ( 'NONE', #360, #30, #130, .T. ) ;
#345 = ADVANCED_FACE ( 'NONE', ( #557 ), #40, .F. ) ;
#346 = DIRECTION ( 'NONE',  ( -1.000000000000000000, 0.000000000000000000, 0.000000000000000000 ) ) ;
#347 = PRODUCT_DEFINITION_SHAPE ( 'NONE', 'NONE',  #204 ) ;
#348 = CARTESIAN_POINT ( 'NONE',  ( 719.8914734120548928, -1270.593270646402516, 4.999999999999999112 ) ) ;
#349 = ORIENTED_EDGE ( 'NONE', *, *, #209, .F. ) ;
#350 = DIRECTION ( 'NONE',  ( 0.000000000000000000, -1.000000000000000000, 0.000000000000000000 ) ) ;
#351 = DIRECTION ( 'NONE',  ( 1.000000000000000000, 0.000000000000000000, 0.000000000000000000 ) ) ;
#352 = VERTEX_POINT ( 'NONE', #500 ) ;
#353 = FACE_OUTER_BOUND ( 'NONE', #558, .T. ) ;
#354 = EDGE_LOOP ( 'NONE', ( #46, #2, #174, #497 ) ) ;
#355 = DIRECTION ( 'NONE',  ( 0.000000000000000000, 0.000000000000000000, 1.000000000000000000 ) ) ;
#356 = VECTOR ( 'NONE', #79, 1000.000000000000000 ) ;
#357 = CARTESIAN_POINT ( 'NONE',  ( 639.7701530684956879, -1269.714590989962062, 5.000000000000000000 ) ) ;
#358 = CC_DESIGN_PERSON_AND_ORGANIZATION_ASSIGNMENT ( #375, #287, ( #204 ) ) ;
#359 = EDGE_CURVE ( 'NONE', #677, #228, #32, .T. ) ;
#360 = VERTEX_POINT ( 'NONE', #236 ) ;
#361 = DIRECTION ( 'NONE',  ( 0.000000000000000000, 0.000000000000000000, 1.000000000000000000 ) ) ;
#362 = ORIENTED_EDGE ( 'NONE', *, *, #532, .T. ) ;
#363 = EDGE_CURVE ( 'NONE', #122, #404, #453, .T. ) ;
#364 = ORIENTED_EDGE ( 'NONE', *, *, #522, .F. ) ;
#365 = APPLICATION_CONTEXT ( 'configuration controlled 3d designs of mechanical parts and assemblies' ) ;
#366 = ADVANCED_FACE ( 'NONE', ( #573 ), #631, .T. ) ;
#367 = CARTESIAN_POINT ( 'NONE',  ( 723.7701530684956879, -1398.714590989962517, 5.000000000000000000 ) ) ;
#368 = ADVANCED_FACE ( 'NONE', ( #683 ), #51, .F. ) ;
#369 = VECTOR ( 'NONE', #499, 1000.000000000000000 ) ;
#370 = VERTEX_POINT ( 'NONE', #152 ) ;
#371 = VECTOR ( 'NONE', #161, 1000.000000000000000 ) ;
#372 = EDGE_LOOP ( 'NONE', ( #349, #647, #206, #583 ) ) ;
#373 = CARTESIAN_POINT ( 'NONE',  ( 635.2701530684956879, -1265.214590989962289, 3.500000000000000000 ) ) ;
#374 = PLANE ( 'NONE',  #658 ) ;
#375 = PERSON_AND_ORGANIZATION ( #154, #268 ) ;
#376 = CARTESIAN_POINT ( 'NONE',  ( 723.7701530684956879, 0.000000000000000000, 3.500000000000000000 ) ) ;
#377 = CARTESIAN_POINT ( 'NONE',  ( 0.000000000000000000, -1398.714590989962517, 5.000000000000000000 ) ) ;
#378 = ORIENTED_EDGE ( 'NONE', *, *, #431, .T. ) ;
#379 = DIRECTION ( 'NONE',  ( -0.000000000000000000, -1.000000000000000000, -0.000000000000000000 ) ) ;
#380 = CLOSED_SHELL ( 'NONE', ( #95, #345, #441, #625, #182, #368, #390, #403, #628, #297, #615, #334, #533, #676, #627, #366, #566, #613, #295, #36, #469, #271 ) ) ;
#381 = VECTOR ( 'NONE', #351, 1000.000000000000000 ) ;
#382 = CARTESIAN_POINT ( 'NONE',  ( 725.2701530684956879, -1265.214590989962517, 4.378679656440357171 ) ) ;
#383 = CARTESIAN_POINT ( 'NONE',  ( 725.2701530684955742, -1403.214590989962289, 0.000000000000000000 ) ) ;
#384 = ORIENTED_EDGE ( 'NONE', *, *, #389, .F. ) ;
#385 = CARTESIAN_POINT ( 'NONE',  ( 725.2701530684955742, -1268.214590989962289, 3.500000000000000000 ) ) ;
#386 = CARTESIAN_POINT ( 'NONE',  ( 719.2701530684955742, -1271.214590989962062, 5.000000000000000000 ) ) ;
#387 = ORIENTED_EDGE ( 'NONE', *, *, #169, .F. ) ;
#388 =( NAMED_UNIT ( * ) PLANE_ANGLE_UNIT ( ) SI_UNIT ( $, .RADIAN. ) );
#389 = EDGE_CURVE ( 'NONE', #657, #343, #56, .T. ) ;
#390 = ADVANCED_FACE ( 'NONE', ( #100 ), #416, .F. ) ;
#391 = CARTESIAN_POINT ( 'NONE',  ( 725.2701530684956879, -1403.214590989962517, 4.378679656440357171 ) ) ;
#392 = ORIENTED_EDGE ( 'NONE', *, *, #606, .F. ) ;
#393 = CARTESIAN_POINT ( 'NONE',  ( 0.000000000000000000, -1401.714590989962289, 3.500000000000000000 ) ) ;
#394 = AXIS2_PLACEMENT_3D ( 'NONE', #376, #31, #508 ) ;
#395 = LOCAL_TIME ( 18, 35, 27.00000000000000000, #662 ) ;
#396 = PLANE ( 'NONE',  #164 ) ;
#397 = VECTOR ( 'NONE', #194, 1000.000000000000000 ) ;
#398 = CARTESIAN_POINT ( 'NONE',  ( 0.000000000000000000, -1269.714590989962062, 3.500000000000000000 ) ) ;
#399 = VERTEX_POINT ( 'NONE', #205 ) ;
#400 = PERSON_AND_ORGANIZATION_ROLE ( 'design_supplier' ) ;
#401 = LINE ( 'NONE', #451, #356 ) ;
#402 = PLANE ( 'NONE',  #471 ) ;
#403 = ADVANCED_FACE ( 'NONE', ( #54 ), #265, .F. ) ;
#404 = VERTEX_POINT ( 'NONE', #48 ) ;
#405 = CYLINDRICAL_SURFACE ( 'NONE', #622, 1.500000000000000000 ) ;
#406 = FACE_OUTER_BOUND ( 'NONE', #156, .T. ) ;
#407 = ORIENTED_EDGE ( 'NONE', *, *, #555, .F. ) ;
#408 = VECTOR ( 'NONE', #160, 1000.000000000000000 ) ;
#409 = PLANE ( 'NONE',  #587 ) ;
#410 = LINE ( 'NONE', #94, #99 ) ;
#411 = ORIENTED_EDGE ( 'NONE', *, *, #219, .T. ) ;
#412 = VERTEX_POINT ( 'NONE', #367 ) ;
#413 = APPROVAL_ROLE ( '' ) ;
#414 = EDGE_CURVE ( 'NONE', #16, #370, #646, .T. ) ;
#415 = EDGE_LOOP ( 'NONE', ( #387, #378, #21, #322 ) ) ;
#416 = PLANE ( 'NONE',  #535 ) ;
#417 = ORIENTED_EDGE ( 'NONE', *, *, #487, .F. ) ;
#418 = DIRECTION ( 'NONE',  ( 0.000000000000000000, 1.000000000000000000, -0.000000000000000000 ) ) ;
#419 = VERTEX_POINT ( 'NONE', #256 ) ;
#420 = EDGE_CURVE ( 'NONE', #264, #352, #155, .T. ) ;
#421 = CARTESIAN_POINT ( 'NONE',  ( 635.2701530684956879, -1403.214590989962289, 0.000000000000000000 ) ) ;
#422 = ORIENTED_EDGE ( 'NONE', *, *, #47, .T. ) ;
#423 = CC_DESIGN_SECURITY_CLASSIFICATION ( #561, ( #269 ) ) ;
#424 = CARTESIAN_POINT ( 'NONE',  ( 719.2701530684955742, -1367.214590989962289, 3.500000000000000000 ) ) ;
#425 = CARTESIAN_POINT ( 'NONE',  ( 725.2701530684955742, -1397.214590989962517, 3.500000000000000000 ) ) ;
#426 = CALENDAR_DATE ( 2026, 7, 9 ) ;
#427 =( BOUNDED_CURVE ( )  B_SPLINE_CURVE ( 3, ( #172, #595, #165, #492 ),
 .UNSPECIFIED., .F., .T. ) 
 B_SPLINE_CURVE_WITH_KNOTS ( ( 4, 4 ),
 ( 4.712388980384689674, 6.283185307179586232 ),
 .UNSPECIFIED. ) 
 CURVE ( )  GEOMETRIC_REPRESENTATION_ITEM ( )  RATIONAL_B_SPLINE_CURVE ( ( 1.000000000000000000, 0.8047378541243649375, 0.8047378541243649375, 1.000000000000000000 ) ) 
 REPRESENTATION_ITEM ( '' )  );
#428 = LINE ( 'NONE', #272, #177 ) ;
#429 = CC_DESIGN_PERSON_AND_ORGANIZATION_ASSIGNMENT ( #233, #400, ( #269 ) ) ;
#430 = CARTESIAN_POINT ( 'NONE',  ( 635.2701530684956879, -1403.214590989962289, 5.000000000000000000 ) ) ;
#431 = EDGE_CURVE ( 'NONE', #162, #122, #672, .T. ) ;
#432 = DIRECTION ( 'NONE',  ( -0.000000000000000000, -1.000000000000000000, -0.000000000000000000 ) ) ;
#433 = CARTESIAN_POINT ( 'NONE',  ( 720.7701530684955742, 0.000000000000000000, 3.500000000000000000 ) ) ;
#434 = CARTESIAN_POINT ( 'NONE',  ( 719.2701530684955742, -1367.214590989962289, 0.000000000000000000 ) ) ;
#435 = VECTOR ( 'NONE', #244, 1000.000000000000000 ) ;
#436 = EDGE_LOOP ( 'NONE', ( #133, #612, #364, #619 ) ) ;
#437 = LINE ( 'NONE', #168, #669 ) ;
#438 = CARTESIAN_POINT ( 'NONE',  ( 720.7701530684955742, 0.000000000000000000, 5.000000000000000000 ) ) ;
#439 = VERTEX_POINT ( 'NONE', #421 ) ;
#440 = EDGE_CURVE ( 'NONE', #514, #399, #75, .T. ) ;
#441 = ADVANCED_FACE ( 'NONE', ( #682 ), #520, .F. ) ;
#442 = LINE ( 'NONE', #18, #235 ) ;
#443 = EDGE_CURVE ( 'NONE', #203, #419, #470, .T. ) ;
#444 = CARTESIAN_POINT ( 'NONE',  ( 724.6488327249360282, -1366.593270646402516, 4.999999999999999112 ) ) ;
#445 = EDGE_LOOP ( 'NONE', ( #290, #251, #564, #315 ) ) ;
#446 = CARTESIAN_POINT ( 'NONE',  ( 641.2701530684956879, -1397.214590989962517, 3.500000000000000000 ) ) ;
#447 = FACE_OUTER_BOUND ( 'NONE', #415, .T. ) ;
#448 = CC_DESIGN_APPROVAL ( #211, ( #204 ) ) ;
#449 = PERSON_AND_ORGANIZATION_ROLE ( 'classification_officer' ) ;
#450 = APPROVAL_PERSON_ORGANIZATION ( #17, #211, #651 ) ;
#451 = CARTESIAN_POINT ( 'NONE',  ( 641.2701530684956879, -1397.214590989962517, 3.500000000000000000 ) ) ;
#452 = EDGE_CURVE ( 'NONE', #514, #203, #214, .T. ) ;
#453 = LINE ( 'NONE', #660, #191 ) ;
#454 = ORIENTED_EDGE ( 'NONE', *, *, #515, .F. ) ;
#455 = PERSON_AND_ORGANIZATION ( #154, #268 ) ;
#456 = DIRECTION ( 'NONE',  ( -0.000000000000000000, -0.000000000000000000, -1.000000000000000000 ) ) ;
#457 = EDGE_CURVE ( 'NONE', #412, #264, #427, .T. ) ;
#458 = ORIENTED_EDGE ( 'NONE', *, *, #120, .T. ) ;
#459 = COORDINATED_UNIVERSAL_TIME_OFFSET ( 0, 0, .AHEAD. ) ;
#460 = PLANE ( 'NONE',  #477 ) ;
#461 = CARTESIAN_POINT ( 'NONE',  ( 0.000000000000000000, -1266.714590989962517, 5.000000000000000000 ) ) ;
#462 = ORIENTED_EDGE ( 'NONE', *, *, #674, .F. ) ;
#463 = VECTOR ( 'NONE', #15, 1000.000000000000000 ) ;
#464 = CARTESIAN_POINT ( 'NONE',  ( 720.7701530684955742, -1269.714590989962062, 5.000000000000000000 ) ) ;
#465 = EDGE_LOOP ( 'NONE', ( #593, #38, #50, #384 ) ) ;
#466 = CARTESIAN_POINT ( 'NONE',  ( 639.7701530684956879, -1269.714590989962062, 5.000000000000000000 ) ) ;
#467 = ORIENTED_EDGE ( 'NONE', *, *, #515, .T. ) ;
#468 = CARTESIAN_POINT ( 'NONE',  ( 641.2701530684956879, -1271.214590989962062, 4.378679656440357171 ) ) ;
#469 = ADVANCED_FACE ( 'NONE', ( #62 ), #124, .T. ) ;
#470 = LINE ( 'NONE', #599, #559 ) ;
#471 = AXIS2_PLACEMENT_3D ( 'NONE', #178, #664, #339 ) ;
#472 = DIRECTION ( 'NONE',  ( -1.000000000000000000, 0.000000000000000000, 0.000000000000000000 ) ) ;
#473 = ORIENTED_EDGE ( 'NONE', *, *, #389, .T. ) ;
#474 = CARTESIAN_POINT ( 'NONE',  ( 640.6488327249361419, -1270.593270646402516, 4.999999999999999112 ) ) ;
#475 = ORIENTED_EDGE ( 'NONE', *, *, #414, .T. ) ;
#476 = CARTESIAN_POINT ( 'NONE',  ( 635.2701530684956879, -1265.214590989962289, 0.000000000000000000 ) ) ;
#477 = AXIS2_PLACEMENT_3D ( 'NONE', #176, #666, #35 ) ;
#478 = LINE ( 'NONE', #425, #681 ) ;
#479 = DIRECTION ( 'NONE',  ( 0.000000000000000000, 0.000000000000000000, -1.000000000000000000 ) ) ;
#480 = CARTESIAN_POINT ( 'NONE',  ( 723.7701530684956879, -1401.714590989962289, 5.000000000000000000 ) ) ;
#481 = CARTESIAN_POINT ( 'NONE',  ( 723.7701530684956879, 0.000000000000000000, 5.000000000000000000 ) ) ;
#482 = LINE ( 'NONE', #586, #318 ) ;
#483 = LINE ( 'NONE', #377, #127 ) ;
#484 = ORIENTED_EDGE ( 'NONE', *, *, #440, .T. ) ;
#485 = PERSON_AND_ORGANIZATION_ROLE ( 'design_owner' ) ;
#486 = LINE ( 'NONE', #22, #502 ) ;
#487 = EDGE_CURVE ( 'NONE', #419, #246, #437, .T. ) ;
#488 = DIRECTION ( 'NONE',  ( -1.000000000000000000, 0.000000000000000000, 0.000000000000000000 ) ) ;
#489 = ORIENTED_EDGE ( 'NONE', *, *, #323, .T. ) ;
#490 = APPROVAL_PERSON_ORGANIZATION ( #636, #685, #11 ) ;
#491 = VECTOR ( 'NONE', #550, 1000.000000000000000 ) ;
#492 = CARTESIAN_POINT ( 'NONE',  ( 725.2701530684955742, -1397.214590989962517, 3.500000000000000000 ) ) ;
#493 = DIRECTION ( 'NONE',  ( 0.000000000000000000, 1.000000000000000000, 0.000000000000000000 ) ) ;
#494 = DIRECTION ( 'NONE',  ( 1.000000000000000000, 0.000000000000000000, 0.000000000000000000 ) ) ;
#495 = CARTESIAN_POINT ( 'NONE',  ( 640.6488327249361419, -1397.835911333522063, 4.999999999999999112 ) ) ;
#496 = CARTESIAN_POINT ( 'NONE',  ( 719.2701530684955742, -1271.214590989962062, 0.000000000000000000 ) ) ;
#497 = ORIENTED_EDGE ( 'NONE', *, *, #443, .T. ) ;
#498 = PERSON_AND_ORGANIZATION ( #154, #268 ) ;
#499 = DIRECTION ( 'NONE',  ( 0.000000000000000000, 1.000000000000000000, 0.000000000000000000 ) ) ;
#500 = CARTESIAN_POINT ( 'NONE',  ( 725.2701530684955742, -1403.214590989962289, 3.500000000000000000 ) ) ;
#501 = EDGE_LOOP ( 'NONE', ( #626, #102, #467, #117 ) ) ;
#502 = VECTOR ( 'NONE', #538, 1000.000000000000000 ) ;
#503 = LINE ( 'NONE', #296, #369 ) ;
#504 = CARTESIAN_POINT ( 'NONE',  ( 719.2701530684955742, -1271.214590989962062, 3.500000000000000000 ) ) ;
#505 = ORIENTED_EDGE ( 'NONE', *, *, #150, .F. ) ;
#506 =( BOUNDED_CURVE ( )  B_SPLINE_CURVE ( 3, ( #373, #584, #10, #108 ),
 .UNSPECIFIED., .F., .T. ) 
 B_SPLINE_CURVE_WITH_KNOTS ( ( 4, 4 ),
 ( 0.000000000000000000, 1.570796326794896558 ),
 .UNSPECIFIED. ) 
 CURVE ( )  GEOMETRIC_REPRESENTATION_ITEM ( )  RATIONAL_B_SPLINE_CURVE ( ( 1.000000000000000000, 0.8047378541243649375, 0.8047378541243649375, 1.000000000000000000 ) ) 
 REPRESENTATION_ITEM ( '' )  );
#507 = PERSON_AND_ORGANIZATION_ROLE ( 'creator' ) ;
#508 = DIRECTION ( 'NONE',  ( 0.000000000000000000, 0.000000000000000000, 1.000000000000000000 ) ) ;
#509 = CARTESIAN_POINT ( 'NONE',  ( 719.2701530684955742, -1271.214590989962062, 0.000000000000000000 ) ) ;
#510 = ORIENTED_EDGE ( 'NONE', *, *, #245, .F. ) ;
#511 = SECURITY_CLASSIFICATION_LEVEL ( 'unclassified' ) ;
#512 = CYLINDRICAL_SURFACE ( 'NONE', #572, 1.500000000000000000 ) ;
#513 = EDGE_CURVE ( 'NONE', #514, #69, #486, .T. ) ;
#514 = VERTEX_POINT ( 'NONE', #424 ) ;
#515 = EDGE_CURVE ( 'NONE', #352, #107, #428, .T. ) ;
#516 = AXIS2_PLACEMENT_3D ( 'NONE', #585, #493, #116 ) ;
#517 = CARTESIAN_POINT ( 'NONE',  ( 725.2701530684955742, -1265.214590989962289, 0.000000000000000000 ) ) ;
#518 = ORIENTED_EDGE ( 'NONE', *, *, #14, .F. ) ;
#519 = EDGE_CURVE ( 'NONE', #399, #257, #482, .T. ) ;
#520 = PLANE ( 'NONE',  #145 ) ;
#521 = VERTEX_POINT ( 'NONE', #70 ) ;
#522 = EDGE_CURVE ( 'NONE', #53, #677, #597, .T. ) ;
#523 = VECTOR ( 'NONE', #167, 1000.000000000000000 ) ;
#524 = CARTESIAN_POINT ( 'NONE',  ( 719.2701530684955742, -1367.214590989962289, 3.500000000000000000 ) ) ;
#525 = ORIENTED_EDGE ( 'NONE', *, *, #665, .T. ) ;
#526 = DIRECTION ( 'NONE',  ( 0.000000000000000000, 1.000000000000000000, 0.000000000000000000 ) ) ;
#527 = EDGE_LOOP ( 'NONE', ( #454, #422, #605, #192 ) ) ;
#528 = DIRECTION ( 'NONE',  ( 0.000000000000000000, -0.000000000000000000, -1.000000000000000000 ) ) ;
#529 = APPROVAL_STATUS ( 'not_yet_approved' ) ;
#530 = ORIENTED_EDGE ( 'NONE', *, *, #25, .F. ) ;
#531 = EDGE_CURVE ( 'NONE', #246, #404, #542, .T. ) ;
#532 = EDGE_CURVE ( 'NONE', #183, #16, #442, .T. ) ;
#533 = ADVANCED_FACE ( 'NONE', ( #641 ), #223, .T. ) ;
#534 = FACE_OUTER_BOUND ( 'NONE', #609, .T. ) ;
#535 = AXIS2_PLACEMENT_3D ( 'NONE', #263, #472, #629 ) ;
#536 = CARTESIAN_POINT ( 'NONE',  ( 725.2701530684956879, -1367.214590989962062, 4.378679656440357171 ) ) ;
#537 = AXIS2_PLACEMENT_3D ( 'NONE', #241, #185, #570 ) ;
#538 = DIRECTION ( 'NONE',  ( -0.000000000000000000, 1.000000000000000000, -0.000000000000000000 ) ) ;
#539 = CARTESIAN_POINT ( 'NONE',  ( 725.2701530684955742, -1265.214590989962289, 5.000000000000000000 ) ) ;
#540 = ORIENTED_EDGE ( 'NONE', *, *, #581, .F. ) ;
#541 = EDGE_CURVE ( 'NONE', #122, #228, #506, .T. ) ;
#542 = LINE ( 'NONE', #476, #200 ) ;
#543 = CARTESIAN_POINT ( 'NONE',  ( 635.2701530684956879, -1265.214590989962289, 3.500000000000000000 ) ) ;
#544 = ORIENTED_EDGE ( 'NONE', *, *, #452, .F. ) ;
#545 = DIRECTION ( 'NONE',  ( 0.000000000000000000, 1.000000000000000000, 0.000000000000000000 ) ) ;
#546 = LINE ( 'NONE', #282, #548 ) ;
#547 = VECTOR ( 'NONE', #432, 1000.000000000000000 ) ;
#548 = VECTOR ( 'NONE', #68, 1000.000000000000000 ) ;
#549 = CARTESIAN_POINT ( 'NONE',  ( 723.7701530684956879, -1266.714590989962517, 5.000000000000000000 ) ) ;
#550 = DIRECTION ( 'NONE',  ( -0.000000000000000000, -0.000000000000000000, -1.000000000000000000 ) ) ;
#551 = ORIENTED_EDGE ( 'NONE', *, *, #323, .F. ) ;
#552 = CARTESIAN_POINT ( 'NONE',  ( 723.7701530684956879, -1365.714590989962062, 5.000000000000000000 ) ) ;
#553 = ORIENTED_EDGE ( 'NONE', *, *, #198, .T. ) ;
#554 =( BOUNDED_CURVE ( )  B_SPLINE_CURVE ( 3, ( #180, #495, #288, #446 ),
 .UNSPECIFIED., .F., .F. ) 
 B_SPLINE_CURVE_WITH_KNOTS ( ( 4, 4 ),
 ( 4.712388980384689674, 6.283185307179586232 ),
 .UNSPECIFIED. ) 
 CURVE ( )  GEOMETRIC_REPRESENTATION_ITEM ( )  RATIONAL_B_SPLINE_CURVE ( ( 1.000000000000000000, 0.8047378541243649375, 0.8047378541243649375, 1.000000000000000000 ) ) 
 REPRESENTATION_ITEM ( '' )  );
#555 = EDGE_CURVE ( 'NONE', #92, #514, #157, .T. ) ;
#556 = CARTESIAN_POINT ( 'NONE',  ( 636.7701530684955742, -1401.714590989962289, 5.000000000000000000 ) ) ;
#557 = FACE_OUTER_BOUND ( 'NONE', #354, .T. ) ;
#558 = EDGE_LOOP ( 'NONE', ( #96, #569, #458, #74 ) ) ;
#559 = VECTOR ( 'NONE', #218, 1000.000000000000000 ) ;
#560 = PRODUCT ( 'Railing', 'Railing', '', ( #283 ) ) ;
#561 = SECURITY_CLASSIFICATION ( '', '', #511 ) ;
#562 = CARTESIAN_POINT ( 'NONE',  ( 635.2701530684956879, -1265.214590989962289, 3.500000000000000000 ) ) ;
#563 = CARTESIAN_POINT ( 'NONE',  ( 725.2701530684955742, -1403.214590989962289, 0.000000000000000000 ) ) ;
#564 = ORIENTED_EDGE ( 'NONE', *, *, #209, .T. ) ;
#565 = CARTESIAN_POINT ( 'NONE',  ( 635.8914734120553476, -1402.593270646402516, 4.999999999999999112 ) ) ;
#566 = ADVANCED_FACE ( 'NONE', ( #534 ), #270, .T. ) ;
#567 = LINE ( 'NONE', #611, #397 ) ;
#568 = CC_DESIGN_PERSON_AND_ORGANIZATION_ASSIGNMENT ( #498, #507, ( #269 ) ) ;
#569 = ORIENTED_EDGE ( 'NONE', *, *, #678, .T. ) ;
#570 = DIRECTION ( 'NONE',  ( 0.000000000000000000, 0.000000000000000000, 1.000000000000000000 ) ) ;
#571 = ORIENTED_EDGE ( 'NONE', *, *, #245, .T. ) ;
#572 = AXIS2_PLACEMENT_3D ( 'NONE', #398, #301, #135 ) ;
#573 = FACE_OUTER_BOUND ( 'NONE', #144, .T. ) ;
#574 = ORIENTED_EDGE ( 'NONE', *, *, #363, .F. ) ;
#575 = EDGE_CURVE ( 'NONE', #370, #337, #401, .T. ) ;
#576 = CARTESIAN_POINT ( 'NONE',  ( 725.2701530684955742, -1397.214590989962517, 5.000000000000000000 ) ) ;
#577 = DIRECTION ( 'NONE',  ( -0.000000000000000000, -1.000000000000000000, -0.000000000000000000 ) ) ;
#578 = ORIENTED_EDGE ( 'NONE', *, *, #513, .T. ) ;
#579 = VECTOR ( 'NONE', #59, 1000.000000000000000 ) ;
#580 = CARTESIAN_POINT ( 'NONE',  ( 725.2701530684955742, -1400.214590989962289, 3.500000000000000000 ) ) ;
#581 = EDGE_CURVE ( 'NONE', #183, #337, #554, .T. ) ;
#582 = CARTESIAN_POINT ( 'NONE',  ( 725.2701530684955742, -1268.214590989962289, 5.000000000000000000 ) ) ;
#583 = ORIENTED_EDGE ( 'NONE', *, *, #150, .T. ) ;
#584 = CARTESIAN_POINT ( 'NONE',  ( 635.2701530684956879, -1265.214590989962517, 4.378679656440357171 ) ) ;
#585 = CARTESIAN_POINT ( 'NONE',  ( 639.7701530684956879, 0.000000000000000000, 3.500000000000000000 ) ) ;
#586 = CARTESIAN_POINT ( 'NONE',  ( 0.000000000000000000, -1365.714590989962062, 5.000000000000000000 ) ) ;
#587 = AXIS2_PLACEMENT_3D ( 'NONE', #610, #90, #338 ) ;
#588 = LINE ( 'NONE', #642, #371 ) ;
#589 = ORIENTED_EDGE ( 'NONE', *, *, #652, .F. ) ;
#590 = EDGE_CURVE ( 'NONE', #657, #162, #148, .T. ) ;
#591 = DIRECTION ( 'NONE',  ( 0.000000000000000000, -1.000000000000000000, 0.000000000000000000 ) ) ;
#592 = DIRECTION ( 'NONE',  ( -0.000000000000000000, -0.000000000000000000, -1.000000000000000000 ) ) ;
#593 = ORIENTED_EDGE ( 'NONE', *, *, #590, .T. ) ;
#594 =( LENGTH_UNIT ( ) NAMED_UNIT ( * ) SI_UNIT ( .MILLI., .METRE. ) );
#595 = CARTESIAN_POINT ( 'NONE',  ( 724.6488327249360282, -1397.835911333522063, 4.999999999999999112 ) ) ;
#596 = DIRECTION ( 'NONE',  ( -0.000000000000000000, 0.000000000000000000, -1.000000000000000000 ) ) ;
#597 =( BOUNDED_CURVE ( )  B_SPLINE_CURVE ( 3, ( #226, #382, #643, #549 ),
 .UNSPECIFIED., .F., .T. ) 
 B_SPLINE_CURVE_WITH_KNOTS ( ( 4, 4 ),
 ( 0.000000000000000000, 1.570796326794896558 ),
 .UNSPECIFIED. ) 
 CURVE ( )  GEOMETRIC_REPRESENTATION_ITEM ( )  RATIONAL_B_SPLINE_CURVE ( ( 1.000000000000000000, 0.8047378541243649375, 0.8047378541243649375, 1.000000000000000000 ) ) 
 REPRESENTATION_ITEM ( '' )  );
#598 = ORIENTED_EDGE ( 'NONE', *, *, #118, .T. ) ;
#599 = CARTESIAN_POINT ( 'NONE',  ( 722.2701530684955742, -1367.214590989962289, 0.000000000000000000 ) ) ;
#600 = CARTESIAN_POINT ( 'NONE',  ( 725.2701530684955742, -1403.214590989962289, 3.500000000000000000 ) ) ;
#601 = ORIENTED_EDGE ( 'NONE', *, *, #457, .F. ) ;
#602 = DATE_AND_TIME ( #175, #111 ) ;
#603 = FACE_OUTER_BOUND ( 'NONE', #436, .T. ) ;
#604 = DIRECTION ( 'NONE',  ( 0.000000000000000000, 0.000000000000000000, -1.000000000000000000 ) ) ;
#605 = ORIENTED_EDGE ( 'NONE', *, *, #169, .T. ) ;
#606 = EDGE_CURVE ( 'NONE', #107, #684, #503, .T. ) ;
#607 = CARTESIAN_POINT ( 'NONE',  ( 0.000000000000000000, -1266.714590989962517, 3.500000000000000000 ) ) ;
#608 = CARTESIAN_POINT ( 'NONE',  ( 723.7701530684956879, -1401.714590989962289, 5.000000000000000000 ) ) ;
#609 = EDGE_LOOP ( 'NONE', ( #196, #510, #530, #462 ) ) ;
#610 = CARTESIAN_POINT ( 'NONE',  ( 641.2701530684956879, -1397.214590989962517, 5.000000000000000000 ) ) ;
#611 = CARTESIAN_POINT ( 'NONE',  ( 723.7701530684956879, 0.000000000000000000, 5.000000000000000000 ) ) ;
#612 = ORIENTED_EDGE ( 'NONE', *, *, #359, .F. ) ;
#613 = ADVANCED_FACE ( 'NONE', ( #39 ), #243, .T. ) ;
#614 = FACE_OUTER_BOUND ( 'NONE', #137, .T. ) ;
#615 = ADVANCED_FACE ( 'NONE', ( #134 ), #460, .F. ) ;
#616 = CARTESIAN_POINT ( 'NONE',  ( 722.2701530684955742, -1367.214590989962289, 5.000000000000000000 ) ) ;
#617 = VERTEX_POINT ( 'NONE', #659 ) ;
#618 = CARTESIAN_POINT ( 'NONE',  ( 725.2701530684955742, -1397.214590989962517, 3.500000000000000000 ) ) ;
#619 = ORIENTED_EDGE ( 'NONE', *, *, #633, .F. ) ;
#620 = DATE_AND_TIME ( #86, #395 ) ;
#621 = ORIENTED_EDGE ( 'NONE', *, *, #665, .F. ) ;
#622 = AXIS2_PLACEMENT_3D ( 'NONE', #607, #346, #663 ) ;
#623 = VECTOR ( 'NONE', #37, 1000.000000000000000 ) ;
#624 = CARTESIAN_POINT ( 'NONE',  ( 719.2701530684954605, -1367.214590989962062, 4.378679656440357171 ) ) ;
#625 = ADVANCED_FACE ( 'NONE', ( #614 ), #396, .F. ) ;
#626 = ORIENTED_EDGE ( 'NONE', *, *, #312, .F. ) ;
#627 = ADVANCED_FACE ( 'NONE', ( #603 ), #405, .T. ) ;
#628 = ADVANCED_FACE ( 'NONE', ( #184 ), #409, .F. ) ;
#629 = DIRECTION ( 'NONE',  ( 0.000000000000000000, 0.000000000000000000, 1.000000000000000000 ) ) ;
#630 = ORIENTED_EDGE ( 'NONE', *, *, #519, .F. ) ;
#631 = CYLINDRICAL_SURFACE ( 'NONE', #279, 1.500000000000000000 ) ;
#632 = ORIENTED_EDGE ( 'NONE', *, *, #532, .F. ) ;
#633 = EDGE_CURVE ( 'NONE', #122, #53, #131, .T. ) ;
#634 = EDGE_CURVE ( 'NONE', #30, #203, #138, .T. ) ;
#635 = AXIS2_PLACEMENT_3D ( 'NONE', #28, #87, #341 ) ;
#636 = PERSON_AND_ORGANIZATION ( #154, #268 ) ;
#637 = ORIENTED_EDGE ( 'NONE', *, *, #414, .F. ) ;
#638 = CALENDAR_DATE ( 2026, 7, 9 ) ;
#639 = DIRECTION ( 'NONE',  ( 1.000000000000000000, -0.000000000000000000, -0.000000000000000000 ) ) ;
#640 = APPLICATION_PROTOCOL_DEFINITION ( 'international standard', 'config_control_design', 1994, #365 ) ;
#641 = FACE_OUTER_BOUND ( 'NONE', #114, .T. ) ;
#642 = CARTESIAN_POINT ( 'NONE',  ( 641.2701530684956879, -1397.214590989962517, 0.000000000000000000 ) ) ;
#643 = CARTESIAN_POINT ( 'NONE',  ( 724.6488327249360282, -1265.835911333522063, 4.999999999999999112 ) ) ;
#644 = LOCAL_TIME ( 18, 35, 27.00000000000000000, #213 ) ;
#645 = LINE ( 'NONE', #166, #252 ) ;
#646 =( BOUNDED_CURVE ( )  B_SPLINE_CURVE ( 3, ( #466, #474, #468, #207 ),
 .UNSPECIFIED., .F., .T. ) 
 B_SPLINE_CURVE_WITH_KNOTS ( ( 4, 4 ),
 ( 4.712388980384689674, 6.283185307179586232 ),
 .UNSPECIFIED. ) 
 CURVE ( )  GEOMETRIC_REPRESENTATION_ITEM ( )  RATIONAL_B_SPLINE_CURVE ( ( 1.000000000000000000, 0.8047378541243649375, 0.8047378541243649375, 1.000000000000000000 ) ) 
 REPRESENTATION_ITEM ( '' )  );
#647 = ORIENTED_EDGE ( 'NONE', *, *, #14, .T. ) ;
#648 = COORDINATED_UNIVERSAL_TIME_OFFSET ( 0, 0, .AHEAD. ) ;
#649 = LINE ( 'NONE', #249, #7 ) ;
#650 = FACE_OUTER_BOUND ( 'NONE', #89, .T. ) ;
#651 = APPROVAL_ROLE ( '' ) ;
#652 = EDGE_CURVE ( 'NONE', #404, #439, #284, .T. ) ;
#653 = CARTESIAN_POINT ( 'NONE',  ( 635.2701530684956879, -1403.214590989962289, 3.500000000000000000 ) ) ;
#654 = CC_DESIGN_DATE_AND_TIME_ASSIGNMENT ( #44, #253, ( #204 ) ) ;
#655 = CARTESIAN_POINT ( 'NONE',  ( 0.000000000000000000, -1269.714590989962062, 5.000000000000000000 ) ) ;
#656 = AXIS2_PLACEMENT_3D ( 'NONE', #275, #267, #4 ) ;
#657 = VERTEX_POINT ( 'NONE', #110 ) ;
#658 = AXIS2_PLACEMENT_3D ( 'NONE', #430, #317, #276 ) ;
#659 = CARTESIAN_POINT ( 'NONE',  ( 641.2701530684956879, -1397.214590989962517, 0.000000000000000000 ) ) ;
#660 = CARTESIAN_POINT ( 'NONE',  ( 635.2701530684956879, -1265.214590989962289, 5.000000000000000000 ) ) ;
#661 = ORIENTED_EDGE ( 'NONE', *, *, #344, .F. ) ;
#662 = COORDINATED_UNIVERSAL_TIME_OFFSET ( 0, 0, .AHEAD. ) ;
#663 = DIRECTION ( 'NONE',  ( 0.000000000000000000, 0.000000000000000000, 1.000000000000000000 ) ) ;
#664 = DIRECTION ( 'NONE',  ( -0.000000000000000000, 0.000000000000000000, -1.000000000000000000 ) ) ;
#665 = EDGE_CURVE ( 'NONE', #343, #412, #319, .T. ) ;
#666 = DIRECTION ( 'NONE',  ( -0.000000000000000000, 0.000000000000000000, -1.000000000000000000 ) ) ;
#667 = DIRECTION ( 'NONE',  ( -1.000000000000000000, 0.000000000000000000, 0.000000000000000000 ) ) ;
#668 = ORIENTED_EDGE ( 'NONE', *, *, #513, .F. ) ;
#669 = VECTOR ( 'NONE', #545, 1000.000000000000000 ) ;
#670 = FACE_OUTER_BOUND ( 'NONE', #41, .T. ) ;
#671 = ORIENTED_EDGE ( 'NONE', *, *, #118, .F. ) ;
#672 = LINE ( 'NONE', #675, #19 ) ;
#673 = ORIENTED_EDGE ( 'NONE', *, *, #198, .F. ) ;
#674 = EDGE_CURVE ( 'NONE', #53, #92, #123, .T. ) ;
#675 = CARTESIAN_POINT ( 'NONE',  ( 635.2701530684956879, -1403.214590989962289, 3.500000000000000000 ) ) ;
#676 = ADVANCED_FACE ( 'NONE', ( #225 ), #9, .T. ) ;
#677 = VERTEX_POINT ( 'NONE', #61 ) ;
#678 = EDGE_CURVE ( 'NONE', #69, #370, #326, .T. ) ;
#679 = VECTOR ( 'NONE', #350, 1000.000000000000000 ) ;
#680 = LOCAL_TIME ( 18, 35, 27.00000000000000000, #459 ) ;
#681 = VECTOR ( 'NONE', #639, 1000.000000000000000 ) ;
#682 = FACE_OUTER_BOUND ( 'NONE', #149, .T. ) ;
#683 = FACE_OUTER_BOUND ( 'NONE', #527, .T. ) ;
#684 = VERTEX_POINT ( 'NONE', #278 ) ;
#685 = APPROVAL ( #529, 'UNSPECIFIED' ) ;
ENDSEC;
END-ISO-10303-21;
