ISO-10303-21;
HEADER;
FILE_DESCRIPTION (( 'STEP AP203' ),
    '1' );
FILE_NAME ('SideWall.step',
    '2026-09-07T17:35:28',
    ( '' ),
    ( '' ),
    'SwSTEP 2.0',
    'SolidWorks 2026',
    '' );
FILE_SCHEMA (( 'CONFIG_CONTROL_DESIGN' ));
ENDSEC;

DATA;
#1 =( GEOMETRIC_REPRESENTATION_CONTEXT ( 3 ) GLOBAL_UNCERTAINTY_ASSIGNED_CONTEXT ( ( #113 ) ) GLOBAL_UNIT_ASSIGNED_CONTEXT ( ( #143, #188, #192 ) ) REPRESENTATION_CONTEXT ( 'NONE', 'WORKASPACE' ) );
#2 = EDGE_LOOP ( 'NONE', ( #230, #42, #141, #178 ) ) ;
#3 = DIRECTION ( 'NONE',  ( 1.000000000000000000, -0.000000000000000000, -0.000000000000000000 ) ) ;
#4 = CC_DESIGN_SECURITY_CLASSIFICATION ( #158, ( #108 ) ) ;
#5 = DIRECTION ( 'NONE',  ( -0.000000000000000000, 1.000000000000000000, -0.000000000000000000 ) ) ;
#6 = CARTESIAN_POINT ( 'NONE',  ( 0.000000000000000000, 10.53803090629957673, 18.59636501085226001 ) ) ;
#7 = EDGE_CURVE ( 'NONE', #85, #201, #120, .T. ) ;
#8 = DESIGN_CONTEXT ( 'detailed design', #166, 'design' ) ;
#9 = DIRECTION ( 'NONE',  ( 0.000000000000000000, 0.000000000000000000, -1.000000000000000000 ) ) ;
#10 = APPROVAL_STATUS ( 'not_yet_approved' ) ;
#11 = APPROVAL ( #12, 'UNSPECIFIED' ) ;
#12 = APPROVAL_STATUS ( 'not_yet_approved' ) ;
#13 = DATE_AND_TIME ( #79, #182 ) ;
#14 = LOCAL_TIME ( 18, 35, 28.00000000000000000, #190 ) ;
#15 = ORIENTED_EDGE ( 'NONE', *, *, #88, .F. ) ;
#16 = LOCAL_TIME ( 18, 35, 28.00000000000000000, #173 ) ;
#17 = DIRECTION ( 'NONE',  ( 0.000000000000000000, 0.000000000000000000, -1.000000000000000000 ) ) ;
#18 = CARTESIAN_POINT ( 'NONE',  ( 4.200000000000000178, -104.4619690937004179, 41.49636501085223728 ) ) ;
#19 = VERTEX_POINT ( 'NONE', #68 ) ;
#20 = VECTOR ( 'NONE', #124, 1000.000000000000000 ) ;
#21 = CARTESIAN_POINT ( 'NONE',  ( 0.000000000000000000, 10.53803090629956607, -94.30363498914776699 ) ) ;
#22 = CARTESIAN_POINT ( 'NONE',  ( 4.200000000000000178, 75.53803090629956785, -94.30363498914776699 ) ) ;
#23 = APPROVAL_PERSON_ORGANIZATION ( #233, #150, #171 ) ;
#24 = CARTESIAN_POINT ( 'NONE',  ( 4.200000000000000178, -104.4619690937004179, 41.49636501085223728 ) ) ;
#25 = LINE ( 'NONE', #169, #45 ) ;
#26 = PERSON ( 'UNSPECIFIED', 'UNSPECIFIED', 'UNSPECIFIED', ('UNSPECIFIED'), ('UNSPECIFIED'), ('UNSPECIFIED') ) ;
#27 = VECTOR ( 'NONE', #72, 1000.000000000000000 ) ;
#28 = APPROVAL_PERSON_ORGANIZATION ( #112, #11, #157 ) ;
#29 = CC_DESIGN_DATE_AND_TIME_ASSIGNMENT ( #13, #77, ( #69 ) ) ;
#30 = EDGE_LOOP ( 'NONE', ( #15, #204, #193, #61 ) ) ;
#31 = CARTESIAN_POINT ( 'NONE',  ( 4.200000000000000178, 10.53803090629957673, 18.59636501085226001 ) ) ;
#32 = ADVANCED_FACE ( 'NONE', ( #206 ), #202, .F. ) ;
#33 = LINE ( 'NONE', #66, #215 ) ;
#34 = DIRECTION ( 'NONE',  ( 0.000000000000000000, 0.000000000000000000, -1.000000000000000000 ) ) ;
#35 = VERTEX_POINT ( 'NONE', #139 ) ;
#36 = DIRECTION ( 'NONE',  ( -1.000000000000000000, -0.000000000000000000, -0.000000000000000000 ) ) ;
#37 = DIRECTION ( 'NONE',  ( 1.000000000000000000, 0.000000000000000000, 0.000000000000000000 ) ) ;
#38 = CC_DESIGN_PERSON_AND_ORGANIZATION_ASSIGNMENT ( #80, #131, ( #149 ) ) ;
#39 = DIRECTION ( 'NONE',  ( 0.000000000000000000, 0.000000000000000000, -1.000000000000000000 ) ) ;
#40 = CARTESIAN_POINT ( 'NONE',  ( 4.200000000000000178, -104.4619690937004179, -94.30363498914776699 ) ) ;
#41 = CALENDAR_DATE ( 2026, 7, 9 ) ;
#42 = ORIENTED_EDGE ( 'NONE', *, *, #128, .T. ) ;
#43 = DATE_AND_TIME ( #41, #147 ) ;
#44 = CARTESIAN_POINT ( 'NONE',  ( 0.000000000000000000, 0.000000000000000000, 0.000000000000000000 ) ) ;
#45 = VECTOR ( 'NONE', #39, 1000.000000000000000 ) ;
#46 = APPROVAL_STATUS ( 'not_yet_approved' ) ;
#47 = ADVANCED_FACE ( 'NONE', ( #102 ), #186, .F. ) ;
#48 = ORIENTED_EDGE ( 'NONE', *, *, #179, .T. ) ;
#49 = CARTESIAN_POINT ( 'NONE',  ( 0.000000000000000000, 0.000000000000000000, 0.000000000000000000 ) ) ;
#50 = CC_DESIGN_APPROVAL ( #110, ( #108 ) ) ;
#51 = ORIENTED_EDGE ( 'NONE', *, *, #71, .T. ) ;
#52 = ORIENTED_EDGE ( 'NONE', *, *, #145, .F. ) ;
#53 = CC_DESIGN_APPROVAL ( #11, ( #69 ) ) ;
#54 = AXIS2_PLACEMENT_3D ( 'NONE', #24, #189, #73 ) ;
#55 = LINE ( 'NONE', #56, #20 ) ;
#56 = CARTESIAN_POINT ( 'NONE',  ( 4.200000000000000178, 75.53803090629956785, 41.49636501085227280 ) ) ;
#57 = AXIS2_PLACEMENT_3D ( 'NONE', #181, #222, #34 ) ;
#58 = LINE ( 'NONE', #6, #27 ) ;
#59 = PERSON_AND_ORGANIZATION ( #26, #200 ) ;
#60 = APPLICATION_PROTOCOL_DEFINITION ( 'international standard', 'config_control_design', 1994, #217 ) ;
#61 = ORIENTED_EDGE ( 'NONE', *, *, #106, .F. ) ;
#62 = DIRECTION ( 'NONE',  ( 0.000000000000000000, 0.000000000000000000, 1.000000000000000000 ) ) ;
#63 = AXIS2_PLACEMENT_3D ( 'NONE', #162, #83, #160 ) ;
#64 = PRODUCT_RELATED_PRODUCT_CATEGORY ( 'detail', '', ( #149 ) ) ;
#65 = DIRECTION ( 'NONE',  ( 0.000000000000000000, -1.000000000000000000, -1.927470528863119542E-16 ) ) ;
#66 = CARTESIAN_POINT ( 'NONE',  ( 0.000000000000000000, -104.4619690937004179, 41.49636501085223728 ) ) ;
#67 = ORIENTED_EDGE ( 'NONE', *, *, #88, .T. ) ;
#68 = CARTESIAN_POINT ( 'NONE',  ( 4.200000000000000178, 10.53803090629957673, 41.49636501085227280 ) ) ;
#69 = PRODUCT_DEFINITION ( 'UNKNOWN', '', #108, #8 ) ;
#70 = VERTEX_POINT ( 'NONE', #18 ) ;
#71 = EDGE_CURVE ( 'NONE', #19, #201, #101, .T. ) ;
#72 = DIRECTION ( 'NONE',  ( 0.000000000000000000, 0.000000000000000000, -1.000000000000000000 ) ) ;
#73 = DIRECTION ( 'NONE',  ( 0.000000000000000000, -0.000000000000000000, 1.000000000000000000 ) ) ;
#74 = DATE_AND_TIME ( #109, #16 ) ;
#75 = PERSON_AND_ORGANIZATION_ROLE ( 'creator' ) ;
#76 = EDGE_CURVE ( 'NONE', #172, #19, #220, .T. ) ;
#77 = DATE_TIME_ROLE ( 'creation_date' ) ;
#78 = EDGE_LOOP ( 'NONE', ( #119, #142, #52, #48 ) ) ;
#79 = CALENDAR_DATE ( 2026, 7, 9 ) ;
#80 = PERSON_AND_ORGANIZATION ( #26, #200 ) ;
#81 = ORIENTED_EDGE ( 'NONE', *, *, #135, .F. ) ;
#82 = VECTOR ( 'NONE', #5, 1000.000000000000000 ) ;
#83 = DIRECTION ( 'NONE',  ( -0.000000000000000000, 0.000000000000000000, 1.000000000000000000 ) ) ;
#84 = CARTESIAN_POINT ( 'NONE',  ( 0.000000000000000000, -104.4619690937004179, 41.49636501085223728 ) ) ;
#85 = VERTEX_POINT ( 'NONE', #21 ) ;
#86 = VERTEX_POINT ( 'NONE', #116 ) ;
#87 = CARTESIAN_POINT ( 'NONE',  ( 0.000000000000000000, 10.53803090629956607, -94.30363498914776699 ) ) ;
#88 = EDGE_CURVE ( 'NONE', #172, #100, #117, .T. ) ;
#89 = PLANE ( 'NONE',  #54 ) ;
#90 = DIRECTION ( 'NONE',  ( 0.000000000000000000, 1.927470528863119295E-16, -1.000000000000000000 ) ) ;
#91 = PERSON_AND_ORGANIZATION ( #26, #200 ) ;
#92 = MECHANICAL_CONTEXT ( 'NONE', #217, 'mechanical' ) ;
#93 = EDGE_LOOP ( 'NONE', ( #155, #152, #81, #229 ) ) ;
#94 = PERSON_AND_ORGANIZATION ( #26, #200 ) ;
#95 = AXIS2_PLACEMENT_3D ( 'NONE', #49, #37, #9 ) ;
#96 = CALENDAR_DATE ( 2026, 7, 9 ) ;
#97 = CARTESIAN_POINT ( 'NONE',  ( 4.200000000000000178, 0.000000000000000000, 0.000000000000000000 ) ) ;
#98 = DIRECTION ( 'NONE',  ( 1.000000000000000000, -0.000000000000000000, -0.000000000000000000 ) ) ;
#99 = ADVANCED_FACE ( 'NONE', ( #134 ), #218, .T. ) ;
#100 = VERTEX_POINT ( 'NONE', #84 ) ;
#101 = LINE ( 'NONE', #31, #225 ) ;
#102 = FACE_OUTER_BOUND ( 'NONE', #93, .T. ) ;
#103 = LINE ( 'NONE', #187, #82 ) ;
#104 = CC_DESIGN_APPROVAL ( #150, ( #158 ) ) ;
#105 = AXIS2_PLACEMENT_3D ( 'NONE', #44, #62, #196 ) ;
#106 = EDGE_CURVE ( 'NONE', #100, #35, #33, .T. ) ;
#107 = FACE_OUTER_BOUND ( 'NONE', #78, .T. ) ;
#108 = PRODUCT_DEFINITION_FORMATION_WITH_SPECIFIED_SOURCE ( 'ANY', '', #149, .NOT_KNOWN. ) ;
#109 = CALENDAR_DATE ( 2026, 7, 9 ) ;
#110 = APPROVAL ( #46, 'UNSPECIFIED' ) ;
#111 = APPROVAL_DATE_TIME ( #43, #150 ) ;
#112 = PERSON_AND_ORGANIZATION ( #26, #200 ) ;
#113 = UNCERTAINTY_MEASURE_WITH_UNIT (LENGTH_MEASURE( 1.000000000000000082E-05 ), #143, 'distance_accuracy_value', 'NONE');
#114 = VECTOR ( 'NONE', #3, 1000.000000000000000 ) ;
#115 = SECURITY_CLASSIFICATION_LEVEL ( 'unclassified' ) ;
#116 = CARTESIAN_POINT ( 'NONE',  ( 4.200000000000000178, -104.4619690937004179, -94.30363498914776699 ) ) ;
#117 = LINE ( 'NONE', #165, #183 ) ;
#118 = ADVANCED_FACE ( 'NONE', ( #219 ), #237, .F. ) ;
#119 = ORIENTED_EDGE ( 'NONE', *, *, #106, .T. ) ;
#120 = LINE ( 'NONE', #87, #114 ) ;
#121 = APPROVAL_PERSON_ORGANIZATION ( #94, #110, #176 ) ;
#122 = ORIENTED_EDGE ( 'NONE', *, *, #76, .F. ) ;
#123 = LINE ( 'NONE', #22, #197 ) ;
#124 = DIRECTION ( 'NONE',  ( 0.000000000000000000, -1.000000000000000000, -1.927470528863119542E-16 ) ) ;
#125 = PRODUCT_DEFINITION_SHAPE ( 'NONE', 'NONE',  #69 ) ;
#126 = CARTESIAN_POINT ( 'NONE',  ( 4.200000000000000178, -104.4619690937004179, 41.49636501085223728 ) ) ;
#127 = PLANE ( 'NONE',  #205 ) ;
#128 = EDGE_CURVE ( 'NONE', #19, #70, #55, .T. ) ;
#129 = PERSON_AND_ORGANIZATION ( #26, #200 ) ;
#130 = LOCAL_TIME ( 18, 35, 28.00000000000000000, #212 ) ;
#131 = PERSON_AND_ORGANIZATION_ROLE ( 'design_owner' ) ;
#132 = ORIENTED_EDGE ( 'NONE', *, *, #161, .F. ) ;
#133 = APPROVAL_DATE_TIME ( #234, #11 ) ;
#134 = FACE_OUTER_BOUND ( 'NONE', #2, .T. ) ;
#135 = EDGE_CURVE ( 'NONE', #86, #201, #123, .T. ) ;
#136 = DIRECTION ( 'NONE',  ( 0.000000000000000000, 0.000000000000000000, -1.000000000000000000 ) ) ;
#137 = ADVANCED_BREP_SHAPE_REPRESENTATION ( 'SideWall', ( #140, #105 ), #1 ) ;
#138 = VECTOR ( 'NONE', #209, 1000.000000000000000 ) ;
#139 = CARTESIAN_POINT ( 'NONE',  ( 0.000000000000000000, -104.4619690937004179, -94.30363498914776699 ) ) ;
#140 = MANIFOLD_SOLID_BREP ( 'Cut-Extrude3', #170 ) ;
#141 = ORIENTED_EDGE ( 'NONE', *, *, #145, .T. ) ;
#142 = ORIENTED_EDGE ( 'NONE', *, *, #195, .F. ) ;
#143 =( LENGTH_UNIT ( ) NAMED_UNIT ( * ) SI_UNIT ( .MILLI., .METRE. ) );
#144 = CARTESIAN_POINT ( 'NONE',  ( 4.200000000000000178, 10.53803090629956607, -94.30363498914776699 ) ) ;
#145 = EDGE_CURVE ( 'NONE', #70, #86, #25, .T. ) ;
#146 = DIRECTION ( 'NONE',  ( 0.000000000000000000, 1.000000000000000000, 1.927470528863119295E-16 ) ) ;
#147 = LOCAL_TIME ( 18, 35, 28.00000000000000000, #231 ) ;
#148 = AXIS2_PLACEMENT_3D ( 'NONE', #97, #180, #17 ) ;
#149 = PRODUCT ( 'SideWall', 'SideWall', '', ( #92 ) ) ;
#150 = APPROVAL ( #10, 'UNSPECIFIED' ) ;
#151 = PERSON_AND_ORGANIZATION_ROLE ( 'classification_officer' ) ;
#152 = ORIENTED_EDGE ( 'NONE', *, *, #7, .T. ) ;
#153 = APPROVAL_DATE_TIME ( #74, #110 ) ;
#154 = CALENDAR_DATE ( 2026, 7, 9 ) ;
#155 = ORIENTED_EDGE ( 'NONE', *, *, #213, .T. ) ;
#156 = DATE_AND_TIME ( #154, #130 ) ;
#157 = APPROVAL_ROLE ( '' ) ;
#158 = SECURITY_CLASSIFICATION ( '', '', #115 ) ;
#159 = VECTOR ( 'NONE', #36, 1000.000000000000000 ) ;
#160 = DIRECTION ( 'NONE',  ( 1.000000000000000000, 0.000000000000000000, 0.000000000000000000 ) ) ;
#161 = EDGE_CURVE ( 'NONE', #172, #85, #58, .T. ) ;
#162 = CARTESIAN_POINT ( 'NONE',  ( 4.200000000000000178, 75.53803090629956785, -94.30363498914776699 ) ) ;
#163 = CARTESIAN_POINT ( 'NONE',  ( 0.000000000000000000, 10.53803090629957673, 41.49636501085227280 ) ) ;
#164 = EDGE_LOOP ( 'NONE', ( #51, #177, #132, #236 ) ) ;
#165 = CARTESIAN_POINT ( 'NONE',  ( 0.000000000000000000, 75.53803090629956785, 41.49636501085227280 ) ) ;
#166 = APPLICATION_CONTEXT ( 'configuration controlled 3d designs of mechanical parts and assemblies' ) ;
#167 = CARTESIAN_POINT ( 'NONE',  ( 4.200000000000000178, 75.53803090629956785, 41.49636501085227280 ) ) ;
#168 = ADVANCED_FACE ( 'NONE', ( #227 ), #127, .F. ) ;
#169 = CARTESIAN_POINT ( 'NONE',  ( 4.200000000000000178, -104.4619690937004179, 41.49636501085223728 ) ) ;
#170 = CLOSED_SHELL ( 'NONE', ( #168, #199, #47, #99, #118, #32 ) ) ;
#171 = APPROVAL_ROLE ( '' ) ;
#172 = VERTEX_POINT ( 'NONE', #210 ) ;
#173 = COORDINATED_UNIVERSAL_TIME_OFFSET ( 0, 0, .AHEAD. ) ;
#174 = CC_DESIGN_PERSON_AND_ORGANIZATION_ASSIGNMENT ( #59, #216, ( #108 ) ) ;
#175 = COORDINATED_UNIVERSAL_TIME_OFFSET ( 0, 0, .AHEAD. ) ;
#176 = APPROVAL_ROLE ( '' ) ;
#177 = ORIENTED_EDGE ( 'NONE', *, *, #7, .F. ) ;
#178 = ORIENTED_EDGE ( 'NONE', *, *, #135, .T. ) ;
#179 = EDGE_CURVE ( 'NONE', #70, #100, #224, .T. ) ;
#180 = DIRECTION ( 'NONE',  ( 1.000000000000000000, 0.000000000000000000, 0.000000000000000000 ) ) ;
#181 = CARTESIAN_POINT ( 'NONE',  ( 0.000000000000000000, 10.53803090629957673, 18.59636501085226001 ) ) ;
#182 = LOCAL_TIME ( 18, 35, 28.00000000000000000, #175 ) ;
#183 = VECTOR ( 'NONE', #65, 1000.000000000000000 ) ;
#184 = CC_DESIGN_PERSON_AND_ORGANIZATION_ASSIGNMENT ( #211, #151, ( #158 ) ) ;
#185 = DIRECTION ( 'NONE',  ( 0.000000000000000000, 0.000000000000000000, -1.000000000000000000 ) ) ;
#186 = PLANE ( 'NONE',  #63 ) ;
#187 = CARTESIAN_POINT ( 'NONE',  ( 0.000000000000000000, 75.53803090629956785, -94.30363498914776699 ) ) ;
#188 =( NAMED_UNIT ( * ) PLANE_ANGLE_UNIT ( ) SI_UNIT ( $, .RADIAN. ) );
#189 = DIRECTION ( 'NONE',  ( -0.000000000000000000, 1.000000000000000000, 0.000000000000000000 ) ) ;
#190 = COORDINATED_UNIVERSAL_TIME_OFFSET ( 0, 0, .AHEAD. ) ;
#191 = VECTOR ( 'NONE', #98, 1000.000000000000000 ) ;
#192 =( NAMED_UNIT ( * ) SI_UNIT ( $, .STERADIAN. ) SOLID_ANGLE_UNIT ( ) );
#193 = ORIENTED_EDGE ( 'NONE', *, *, #213, .F. ) ;
#194 = SHAPE_DEFINITION_REPRESENTATION ( #125, #137 ) ;
#195 = EDGE_CURVE ( 'NONE', #86, #35, #207, .T. ) ;
#196 = DIRECTION ( 'NONE',  ( 1.000000000000000000, 0.000000000000000000, 0.000000000000000000 ) ) ;
#197 = VECTOR ( 'NONE', #208, 1000.000000000000000 ) ;
#198 = DATE_TIME_ROLE ( 'classification_date' ) ;
#199 = ADVANCED_FACE ( 'NONE', ( #107 ), #89, .F. ) ;
#200 = ORGANIZATION ( 'UNSPECIFIED', 'UNSPECIFIED', '' ) ;
#201 = VERTEX_POINT ( 'NONE', #144 ) ;
#202 = PLANE ( 'NONE',  #57 ) ;
#203 = CC_DESIGN_DATE_AND_TIME_ASSIGNMENT ( #156, #198, ( #158 ) ) ;
#204 = ORIENTED_EDGE ( 'NONE', *, *, #161, .T. ) ;
#205 = AXIS2_PLACEMENT_3D ( 'NONE', #167, #90, #146 ) ;
#206 = FACE_OUTER_BOUND ( 'NONE', #164, .T. ) ;
#207 = LINE ( 'NONE', #40, #159 ) ;
#208 = DIRECTION ( 'NONE',  ( -0.000000000000000000, 1.000000000000000000, -0.000000000000000000 ) ) ;
#209 = DIRECTION ( 'NONE',  ( -1.000000000000000000, -0.000000000000000000, -0.000000000000000000 ) ) ;
#210 = CARTESIAN_POINT ( 'NONE',  ( 0.000000000000000000, 10.53803090629957673, 41.49636501085227280 ) ) ;
#211 = PERSON_AND_ORGANIZATION ( #26, #200 ) ;
#212 = COORDINATED_UNIVERSAL_TIME_OFFSET ( 0, 0, .AHEAD. ) ;
#213 = EDGE_CURVE ( 'NONE', #35, #85, #103, .T. ) ;
#214 = PERSON_AND_ORGANIZATION_ROLE ( 'creator' ) ;
#215 = VECTOR ( 'NONE', #136, 1000.000000000000000 ) ;
#216 = PERSON_AND_ORGANIZATION_ROLE ( 'design_supplier' ) ;
#217 = APPLICATION_CONTEXT ( 'configuration controlled 3d designs of mechanical parts and assemblies' ) ;
#218 = PLANE ( 'NONE',  #148 ) ;
#219 = FACE_OUTER_BOUND ( 'NONE', #30, .T. ) ;
#220 = LINE ( 'NONE', #163, #191 ) ;
#221 = CC_DESIGN_PERSON_AND_ORGANIZATION_ASSIGNMENT ( #129, #75, ( #69 ) ) ;
#222 = DIRECTION ( 'NONE',  ( 0.000000000000000000, -1.000000000000000000, -0.000000000000000000 ) ) ;
#223 = ORIENTED_EDGE ( 'NONE', *, *, #128, .F. ) ;
#224 = LINE ( 'NONE', #126, #138 ) ;
#225 = VECTOR ( 'NONE', #185, 1000.000000000000000 ) ;
#226 = CC_DESIGN_PERSON_AND_ORGANIZATION_ASSIGNMENT ( #91, #214, ( #108 ) ) ;
#227 = FACE_OUTER_BOUND ( 'NONE', #235, .T. ) ;
#228 = APPLICATION_PROTOCOL_DEFINITION ( 'international standard', 'config_control_design', 1994, #166 ) ;
#229 = ORIENTED_EDGE ( 'NONE', *, *, #195, .T. ) ;
#230 = ORIENTED_EDGE ( 'NONE', *, *, #71, .F. ) ;
#231 = COORDINATED_UNIVERSAL_TIME_OFFSET ( 0, 0, .AHEAD. ) ;
#232 = ORIENTED_EDGE ( 'NONE', *, *, #179, .F. ) ;
#233 = PERSON_AND_ORGANIZATION ( #26, #200 ) ;
#234 = DATE_AND_TIME ( #96, #14 ) ;
#235 = EDGE_LOOP ( 'NONE', ( #122, #67, #232, #223 ) ) ;
#236 = ORIENTED_EDGE ( 'NONE', *, *, #76, .T. ) ;
#237 = PLANE ( 'NONE',  #95 ) ;
ENDSEC;
END-ISO-10303-21;
