ISO-10303-21;
HEADER;
FILE_DESCRIPTION (( 'STEP AP203' ),
    '1' );
FILE_NAME ('SofaFrame.step',
    '2026-09-07T17:35:28',
    ( '' ),
    ( '' ),
    'SwSTEP 2.0',
    'SolidWorks 2026',
    '' );
FILE_SCHEMA (( 'CONFIG_CONTROL_DESIGN' ));
ENDSEC;

DATA;
#1 = VECTOR ( 'NONE', #213, 1000.000000000000000 ) ;
#2 = CLOSED_SHELL ( 'NONE', ( #367, #267, #742, #629, #435, #458, #224, #453, #636, #787, #670, #342, #442, #801, #665, #790, #434, #721, #854, #402, #42, #865, #761, #372, #420, #810, #311, #606 ) ) ;
#3 = PERSON_AND_ORGANIZATION_ROLE ( 'creator' ) ;
#4 = CARTESIAN_POINT ( 'NONE',  ( 14.51004704568249792, 3.000000000000000000, -32.23598720549306051 ) ) ;
#5 = FACE_OUTER_BOUND ( 'NONE', #433, .T. ) ;
#6 = ORIENTED_EDGE ( 'NONE', *, *, #122, .T. ) ;
#7 = EDGE_CURVE ( 'NONE', #158, #796, #782, .T. ) ;
#8 = PERSON_AND_ORGANIZATION_ROLE ( 'creator' ) ;
#9 = CARTESIAN_POINT ( 'NONE',  ( 12.51004704568249792, 0.000000000000000000, -4.235987205493064067 ) ) ;
#10 = LINE ( 'NONE', #204, #279 ) ;
#11 = CC_DESIGN_APPROVAL ( #318, ( #590 ) ) ;
#12 = ORIENTED_EDGE ( 'NONE', *, *, #622, .T. ) ;
#13 = CARTESIAN_POINT ( 'NONE',  ( 12.51004704568249792, -5.000000000000000000, -25.23598720549304630 ) ) ;
#14 = DIRECTION ( 'NONE',  ( -0.000000000000000000, 0.000000000000000000, 1.000000000000000000 ) ) ;
#15 = DIRECTION ( 'NONE',  ( -0.000000000000000000, -0.000000000000000000, 1.000000000000000000 ) ) ;
#16 = VERTEX_POINT ( 'NONE', #726 ) ;
#17 = LINE ( 'NONE', #30, #640 ) ;
#18 = VECTOR ( 'NONE', #552, 1000.000000000000000 ) ;
#19 = CARTESIAN_POINT ( 'NONE',  ( 12.51004704568249792, 0.000000000000000000, -4.235987205493064067 ) ) ;
#20 = ORIENTED_EDGE ( 'NONE', *, *, #463, .T. ) ;
#21 = DIRECTION ( 'NONE',  ( -1.000000000000000000, -0.000000000000000000, -0.000000000000000000 ) ) ;
#22 = FACE_BOUND ( 'NONE', #331, .T. ) ;
#23 = EDGE_LOOP ( 'NONE', ( #48, #179, #789, #290 ) ) ;
#24 = VECTOR ( 'NONE', #664, 1000.000000000000000 ) ;
#25 = ORIENTED_EDGE ( 'NONE', *, *, #188, .F. ) ;
#26 = FACE_OUTER_BOUND ( 'NONE', #321, .T. ) ;
#27 = VERTEX_POINT ( 'NONE', #648 ) ;
#28 = ORIENTED_EDGE ( 'NONE', *, *, #255, .T. ) ;
#29 = EDGE_CURVE ( 'NONE', #709, #16, #102, .T. ) ;
#30 = CARTESIAN_POINT ( 'NONE',  ( -65.48995295431750208, 0.000000000000000000, -32.23598720549306051 ) ) ;
#31 = LINE ( 'NONE', #167, #183 ) ;
#32 = ORIENTED_EDGE ( 'NONE', *, *, #715, .T. ) ;
#33 = VECTOR ( 'NONE', #355, 1000.000000000000000 ) ;
#34 = VECTOR ( 'NONE', #604, 1000.000000000000000 ) ;
#35 = VERTEX_POINT ( 'NONE', #313 ) ;
#36 = EDGE_CURVE ( 'NONE', #681, #536, #299, .T. ) ;
#37 = DIRECTION ( 'NONE',  ( 1.000000000000000000, 0.000000000000000000, -0.000000000000000000 ) ) ;
#38 = LINE ( 'NONE', #766, #223 ) ;
#39 = EDGE_LOOP ( 'NONE', ( #115, #630, #511, #385 ) ) ;
#40 = ORIENTED_EDGE ( 'NONE', *, *, #153, .F. ) ;
#41 = CARTESIAN_POINT ( 'NONE',  ( 14.51004704568249792, 23.00000000000000000, -29.23598720549306051 ) ) ;
#42 = ADVANCED_FACE ( 'NONE', ( #718 ), #645, .F. ) ;
#43 = DIRECTION ( 'NONE',  ( 1.000000000000000000, -0.000000000000000000, -0.000000000000000000 ) ) ;
#44 = DIRECTION ( 'NONE',  ( -0.000000000000000000, -1.000000000000000000, -0.000000000000000000 ) ) ;
#45 = VERTEX_POINT ( 'NONE', #852 ) ;
#46 = LINE ( 'NONE', #785, #195 ) ;
#47 = APPLICATION_PROTOCOL_DEFINITION ( 'international standard', 'config_control_design', 1994, #555 ) ;
#48 = ORIENTED_EDGE ( 'NONE', *, *, #505, .T. ) ;
#49 = VECTOR ( 'NONE', #817, 1000.000000000000000 ) ;
#50 = ORIENTED_EDGE ( 'NONE', *, *, #36, .F. ) ;
#51 = VECTOR ( 'NONE', #90, 1000.000000000000000 ) ;
#52 = DIRECTION ( 'NONE',  ( -1.000000000000000000, 0.000000000000000000, 0.000000000000000000 ) ) ;
#53 = CARTESIAN_POINT ( 'NONE',  ( -65.48995295431750208, 3.000000000000000000, -32.23598720549306051 ) ) ;
#54 = ORIENTED_EDGE ( 'NONE', *, *, #657, .T. ) ;
#55 = DIRECTION ( 'NONE',  ( 0.000000000000000000, 0.000000000000000000, -1.000000000000000000 ) ) ;
#56 = CARTESIAN_POINT ( 'NONE',  ( 12.51004704568249792, -5.000000000000000000, -30.23598720549306051 ) ) ;
#57 = VERTEX_POINT ( 'NONE', #121 ) ;
#58 = DIRECTION ( 'NONE',  ( -0.000000000000000000, 1.000000000000000000, -0.000000000000000000 ) ) ;
#59 = VECTOR ( 'NONE', #567, 1000.000000000000000 ) ;
#60 = CARTESIAN_POINT ( 'NONE',  ( -63.48995295431750208, -5.000000000000000000, -4.235987205493064067 ) ) ;
#61 = EDGE_CURVE ( 'NONE', #540, #366, #840, .T. ) ;
#62 = CARTESIAN_POINT ( 'NONE',  ( 12.51004704568249792, -5.000000000000000000, -9.235987205493074725 ) ) ;
#63 = ORIENTED_EDGE ( 'NONE', *, *, #524, .F. ) ;
#64 = CALENDAR_DATE ( 2026, 7, 9 ) ;
#65 = DIRECTION ( 'NONE',  ( 1.000000000000000000, 0.000000000000000000, 0.000000000000000000 ) ) ;
#66 = LINE ( 'NONE', #535, #156 ) ;
#67 = VERTEX_POINT ( 'NONE', #661 ) ;
#68 = CARTESIAN_POINT ( 'NONE',  ( -65.48995295431750208, 3.000000000000000000, -32.23598720549306051 ) ) ;
#69 = CARTESIAN_POINT ( 'NONE',  ( 12.51004704568249792, 0.000000000000000000, -9.235987205493074725 ) ) ;
#70 = ORIENTED_EDGE ( 'NONE', *, *, #779, .T. ) ;
#71 = APPROVAL ( #441, 'UNSPECIFIED' ) ;
#72 = AXIS2_PLACEMENT_3D ( 'NONE', #368, #238, #770 ) ;
#73 = COORDINATED_UNIVERSAL_TIME_OFFSET ( 0, 0, .AHEAD. ) ;
#74 = DIRECTION ( 'NONE',  ( -1.000000000000000000, 0.000000000000000000, -0.000000000000000000 ) ) ;
#75 = FACE_OUTER_BOUND ( 'NONE', #381, .T. ) ;
#76 = ORIENTED_EDGE ( 'NONE', *, *, #861, .F. ) ;
#77 = PRODUCT ( 'SofaFrame', 'SofaFrame', '', ( #797 ) ) ;
#78 = PERSON_AND_ORGANIZATION ( #317, #268 ) ;
#79 = CARTESIAN_POINT ( 'NONE',  ( 7.510047045682499700, -5.000000000000000000, -30.23598720549306051 ) ) ;
#80 = ORIENTED_EDGE ( 'NONE', *, *, #275, .F. ) ;
#81 = DIRECTION ( 'NONE',  ( -0.000000000000000000, 0.000000000000000000, 1.000000000000000000 ) ) ;
#82 = PLANE ( 'NONE',  #490 ) ;
#83 = DIRECTION ( 'NONE',  ( -1.000000000000000000, 0.000000000000000000, 0.000000000000000000 ) ) ;
#84 = ORIENTED_EDGE ( 'NONE', *, *, #559, .F. ) ;
#85 = LINE ( 'NONE', #278, #849 ) ;
#86 = DIRECTION ( 'NONE',  ( 1.000000000000000000, 0.000000000000000000, 0.000000000000000000 ) ) ;
#87 = AXIS2_PLACEMENT_3D ( 'NONE', #762, #747, #208 ) ;
#88 = FACE_OUTER_BOUND ( 'NONE', #809, .T. ) ;
#89 = EDGE_LOOP ( 'NONE', ( #295, #833, #618, #804 ) ) ;
#90 = DIRECTION ( 'NONE',  ( 1.000000000000000000, -0.000000000000000000, -0.000000000000000000 ) ) ;
#91 = DIRECTION ( 'NONE',  ( -1.000000000000000000, 0.000000000000000000, 0.000000000000000000 ) ) ;
#92 = ORIENTED_EDGE ( 'NONE', *, *, #657, .F. ) ;
#93 = LOCAL_TIME ( 18, 35, 28.00000000000000000, #814 ) ;
#94 = DIRECTION ( 'NONE',  ( -1.000000000000000000, 0.000000000000000000, 0.000000000000000000 ) ) ;
#95 = DIRECTION ( 'NONE',  ( 0.000000000000000000, -1.000000000000000000, 0.000000000000000000 ) ) ;
#96 = DIRECTION ( 'NONE',  ( -0.000000000000000000, -1.000000000000000000, -0.000000000000000000 ) ) ;
#97 = ORIENTED_EDGE ( 'NONE', *, *, #7, .T. ) ;
#98 = CARTESIAN_POINT ( 'NONE',  ( -63.48995295431750208, -5.000000000000000000, -30.23598720549306051 ) ) ;
#99 = CC_DESIGN_PERSON_AND_ORGANIZATION_ASSIGNMENT ( #525, #620, ( #110 ) ) ;
#100 = LINE ( 'NONE', #647, #478 ) ;
#101 = DIRECTION ( 'NONE',  ( -1.000000000000000000, 0.000000000000000000, 0.000000000000000000 ) ) ;
#102 = LINE ( 'NONE', #438, #492 ) ;
#103 = AXIS2_PLACEMENT_3D ( 'NONE', #68, #807, #259 ) ;
#104 = VECTOR ( 'NONE', #127, 1000.000000000000000 ) ;
#105 = VERTEX_POINT ( 'NONE', #320 ) ;
#106 = CARTESIAN_POINT ( 'NONE',  ( 7.510047045682499700, -5.000000000000000000, -4.235987205493064067 ) ) ;
#107 = FACE_OUTER_BOUND ( 'NONE', #39, .T. ) ;
#108 = ORIENTED_EDGE ( 'NONE', *, *, #733, .F. ) ;
#109 = ORIENTED_EDGE ( 'NONE', *, *, #256, .T. ) ;
#110 = SECURITY_CLASSIFICATION ( '', '', #146 ) ;
#111 = DIRECTION ( 'NONE',  ( 1.000000000000000000, 0.000000000000000000, 0.000000000000000000 ) ) ;
#112 = FACE_OUTER_BOUND ( 'NONE', #307, .T. ) ;
#113 = FACE_OUTER_BOUND ( 'NONE', #653, .T. ) ;
#114 = CARTESIAN_POINT ( 'NONE',  ( -63.48995295431750208, -5.000000000000000000, -30.23598720549306051 ) ) ;
#115 = ORIENTED_EDGE ( 'NONE', *, *, #297, .T. ) ;
#116 = DIRECTION ( 'NONE',  ( -0.000000000000000000, 0.000000000000000000, 1.000000000000000000 ) ) ;
#117 = VERTEX_POINT ( 'NONE', #114 ) ;
#118 = AXIS2_PLACEMENT_3D ( 'NONE', #378, #580, #37 ) ;
#119 = ORIENTED_EDGE ( 'NONE', *, *, #779, .F. ) ;
#120 = DIRECTION ( 'NONE',  ( 1.000000000000000000, 0.000000000000000000, 0.000000000000000000 ) ) ;
#121 = CARTESIAN_POINT ( 'NONE',  ( 12.51004704568249792, -5.000000000000000000, -9.235987205493074725 ) ) ;
#122 = EDGE_CURVE ( 'NONE', #506, #304, #499, .T. ) ;
#123 = ORIENTED_EDGE ( 'NONE', *, *, #733, .T. ) ;
#124 = CARTESIAN_POINT ( 'NONE',  ( 7.510047045682499700, -5.000000000000000000, -25.23598720549304630 ) ) ;
#125 = EDGE_CURVE ( 'NONE', #550, #35, #245, .T. ) ;
#126 = DIRECTION ( 'NONE',  ( 0.000000000000000000, 0.000000000000000000, -1.000000000000000000 ) ) ;
#127 = DIRECTION ( 'NONE',  ( -0.000000000000000000, 1.000000000000000000, -0.000000000000000000 ) ) ;
#128 = ORIENTED_EDGE ( 'NONE', *, *, #219, .F. ) ;
#129 = EDGE_CURVE ( 'NONE', #422, #439, #514, .T. ) ;
#130 = VECTOR ( 'NONE', #15, 1000.000000000000000 ) ;
#131 = EDGE_CURVE ( 'NONE', #669, #777, #248, .T. ) ;
#132 = PERSON_AND_ORGANIZATION ( #317, #268 ) ;
#133 = CARTESIAN_POINT ( 'NONE',  ( -65.48995295431750208, 23.00000000000000000, -32.23598720549306051 ) ) ;
#134 = APPROVAL_PERSON_ORGANIZATION ( #306, #71, #520 ) ;
#135 = APPROVAL_DATE_TIME ( #613, #71 ) ;
#136 = EDGE_CURVE ( 'NONE', #592, #707, #516, .T. ) ;
#137 = CARTESIAN_POINT ( 'NONE',  ( -58.48995295431750208, -5.000000000000000000, -25.23598720549304986 ) ) ;
#138 = LINE ( 'NONE', #399, #362 ) ;
#139 = ORIENTED_EDGE ( 'NONE', *, *, #573, .F. ) ;
#140 = AXIS2_PLACEMENT_3D ( 'NONE', #106, #111, #650 ) ;
#141 = SHAPE_DEFINITION_REPRESENTATION ( #753, #360 ) ;
#142 = CARTESIAN_POINT ( 'NONE',  ( 7.510047045682499700, 0.000000000000000000, -25.23598720549304630 ) ) ;
#143 = CARTESIAN_POINT ( 'NONE',  ( -58.48995295431750208, -5.000000000000000000, -4.235987205493064067 ) ) ;
#144 = ORIENTED_EDGE ( 'NONE', *, *, #309, .T. ) ;
#145 = LINE ( 'NONE', #488, #655 ) ;
#146 = SECURITY_CLASSIFICATION_LEVEL ( 'unclassified' ) ;
#147 = FACE_OUTER_BOUND ( 'NONE', #277, .T. ) ;
#148 = DIRECTION ( 'NONE',  ( -0.000000000000000000, -0.000000000000000000, 1.000000000000000000 ) ) ;
#149 = ORIENTED_EDGE ( 'NONE', *, *, #251, .F. ) ;
#150 = CARTESIAN_POINT ( 'NONE',  ( 12.51004704568249792, -5.000000000000000000, -30.23598720549306051 ) ) ;
#151 = EDGE_CURVE ( 'NONE', #27, #67, #448, .T. ) ;
#152 = EDGE_LOOP ( 'NONE', ( #97, #615, #180, #848 ) ) ;
#153 = EDGE_CURVE ( 'NONE', #550, #754, #170, .T. ) ;
#154 = DIRECTION ( 'NONE',  ( -0.000000000000000000, 1.000000000000000000, -0.000000000000000000 ) ) ;
#155 = EDGE_CURVE ( 'NONE', #67, #506, #459, .T. ) ;
#156 = VECTOR ( 'NONE', #823, 1000.000000000000000 ) ;
#157 = VECTOR ( 'NONE', #856, 1000.000000000000000 ) ;
#158 = VERTEX_POINT ( 'NONE', #257 ) ;
#159 = EDGE_LOOP ( 'NONE', ( #12, #50, #773, #210 ) ) ;
#160 = LINE ( 'NONE', #768, #596 ) ;
#161 = CARTESIAN_POINT ( 'NONE',  ( -63.48995295431750208, -5.000000000000000000, -30.23598720549306051 ) ) ;
#162 = LINE ( 'NONE', #839, #389 ) ;
#163 = EDGE_LOOP ( 'NONE', ( #589, #483, #40, #63, #300, #825 ) ) ;
#164 = EDGE_CURVE ( 'NONE', #569, #302, #522, .T. ) ;
#165 = AXIS2_PLACEMENT_3D ( 'NONE', #659, #126, #587 ) ;
#166 = CARTESIAN_POINT ( 'NONE',  ( 12.51004704568249792, -5.000000000000000000, -4.235987205493064067 ) ) ;
#167 = CARTESIAN_POINT ( 'NONE',  ( 12.51004704568249792, -5.000000000000000000, -30.23598720549306051 ) ) ;
#168 = DIRECTION ( 'NONE',  ( -1.000000000000000000, 0.000000000000000000, -0.000000000000000000 ) ) ;
#169 = CARTESIAN_POINT ( 'NONE',  ( 12.51004704568249792, -5.000000000000000000, -4.235987205493064067 ) ) ;
#170 = LINE ( 'NONE', #432, #795 ) ;
#171 = VECTOR ( 'NONE', #584, 1000.000000000000000 ) ;
#172 = ORIENTED_EDGE ( 'NONE', *, *, #155, .F. ) ;
#173 = CARTESIAN_POINT ( 'NONE',  ( -63.48995295431750208, -5.000000000000000000, -4.235987205493064067 ) ) ;
#174 = DIRECTION ( 'NONE',  ( 0.000000000000000000, 0.000000000000000000, -1.000000000000000000 ) ) ;
#175 = DIRECTION ( 'NONE',  ( -1.000000000000000000, -0.000000000000000000, -0.000000000000000000 ) ) ;
#176 = VERTEX_POINT ( 'NONE', #738 ) ;
#177 = AXIS2_PLACEMENT_3D ( 'NONE', #60, #593, #174 ) ;
#178 = FACE_OUTER_BOUND ( 'NONE', #828, .T. ) ;
#179 = ORIENTED_EDGE ( 'NONE', *, *, #338, .F. ) ;
#180 = ORIENTED_EDGE ( 'NONE', *, *, #374, .F. ) ;
#181 = CARTESIAN_POINT ( 'NONE',  ( 14.51004704568249792, 3.000000000000000000, -32.23598720549306051 ) ) ;
#182 = CARTESIAN_POINT ( 'NONE',  ( 12.51004704568249792, -5.000000000000000000, -4.235987205493064067 ) ) ;
#183 = VECTOR ( 'NONE', #572, 1000.000000000000000 ) ;
#184 = ORIENTED_EDGE ( 'NONE', *, *, #29, .F. ) ;
#185 = AXIS2_PLACEMENT_3D ( 'NONE', #723, #168, #843 ) ;
#186 = DIRECTION ( 'NONE',  ( -0.000000000000000000, 0.000000000000000000, -1.000000000000000000 ) ) ;
#187 = ORIENTED_EDGE ( 'NONE', *, *, #837, .F. ) ;
#188 = EDGE_CURVE ( 'NONE', #371, #691, #323, .T. ) ;
#189 =( GEOMETRIC_REPRESENTATION_CONTEXT ( 3 ) GLOBAL_UNCERTAINTY_ASSIGNED_CONTEXT ( ( #579 ) ) GLOBAL_UNIT_ASSIGNED_CONTEXT ( ( #717, #247, #386 ) ) REPRESENTATION_CONTEXT ( 'NONE', 'WORKASPACE' ) );
#190 = LINE ( 'NONE', #597, #24 ) ;
#191 = DIRECTION ( 'NONE',  ( 1.000000000000000000, -0.000000000000000000, -0.000000000000000000 ) ) ;
#192 = ORIENTED_EDGE ( 'NONE', *, *, #125, .T. ) ;
#193 = EDGE_CURVE ( 'NONE', #713, #302, #388, .T. ) ;
#194 = DIRECTION ( 'NONE',  ( -0.000000000000000000, 1.000000000000000000, -0.000000000000000000 ) ) ;
#195 = VECTOR ( 'NONE', #154, 1000.000000000000000 ) ;
#196 = DATE_AND_TIME ( #408, #315 ) ;
#197 = LINE ( 'NONE', #332, #207 ) ;
#198 = VERTEX_POINT ( 'NONE', #470 ) ;
#199 = FACE_OUTER_BOUND ( 'NONE', #646, .T. ) ;
#200 = CARTESIAN_POINT ( 'NONE',  ( -65.48995295431750208, 3.000000000000000000, -2.235987205493061847 ) ) ;
#201 = ORIENTED_EDGE ( 'NONE', *, *, #693, .T. ) ;
#202 = DATE_TIME_ROLE ( 'creation_date' ) ;
#203 = CARTESIAN_POINT ( 'NONE',  ( -63.48995295431750208, -5.000000000000000000, -9.235987205493071173 ) ) ;
#204 = CARTESIAN_POINT ( 'NONE',  ( -63.48995295431750208, 0.000000000000000000, -25.23598720549304986 ) ) ;
#205 = ORIENTED_EDGE ( 'NONE', *, *, #193, .F. ) ;
#206 = CARTESIAN_POINT ( 'NONE',  ( -58.48995295431750208, -5.000000000000000000, -30.23598720549306051 ) ) ;
#207 = VECTOR ( 'NONE', #608, 1000.000000000000000 ) ;
#208 = DIRECTION ( 'NONE',  ( 0.000000000000000000, -0.000000000000000000, 1.000000000000000000 ) ) ;
#209 = LINE ( 'NONE', #409, #563 ) ;
#210 = ORIENTED_EDGE ( 'NONE', *, *, #251, .T. ) ;
#211 = EDGE_CURVE ( 'NONE', #314, #198, #466, .T. ) ;
#212 = LINE ( 'NONE', #361, #240 ) ;
#213 = DIRECTION ( 'NONE',  ( -0.000000000000000000, 1.000000000000000000, -0.000000000000000000 ) ) ;
#214 = APPROVAL ( #689, 'UNSPECIFIED' ) ;
#215 = DIRECTION ( 'NONE',  ( -1.000000000000000000, 0.000000000000000000, -0.000000000000000000 ) ) ;
#216 = ORIENTED_EDGE ( 'NONE', *, *, #29, .T. ) ;
#217 = DIRECTION ( 'NONE',  ( 0.000000000000000000, -1.000000000000000000, 0.000000000000000000 ) ) ;
#218 = FACE_BOUND ( 'NONE', #588, .T. ) ;
#219 = EDGE_CURVE ( 'NONE', #272, #468, #398, .T. ) ;
#220 = VERTEX_POINT ( 'NONE', #858 ) ;
#221 = EDGE_LOOP ( 'NONE', ( #662, #489, #184, #853 ) ) ;
#222 = CARTESIAN_POINT ( 'NONE',  ( -65.48995295431750208, 23.00000000000000000, -29.23598720549306051 ) ) ;
#223 = VECTOR ( 'NONE', #96, 1000.000000000000000 ) ;
#224 = ADVANCED_FACE ( 'NONE', ( #199 ), #677, .F. ) ;
#225 = CARTESIAN_POINT ( 'NONE',  ( -58.48995295431750208, 0.000000000000000000, -4.235987205493064067 ) ) ;
#226 = VECTOR ( 'NONE', #576, 1000.000000000000000 ) ;
#227 = PLANE ( 'NONE',  #263 ) ;
#228 = ORIENTED_EDGE ( 'NONE', *, *, #799, .T. ) ;
#229 = PRODUCT_RELATED_PRODUCT_CATEGORY ( 'detail', '', ( #77 ) ) ;
#230 = DIRECTION ( 'NONE',  ( -1.000000000000000000, 0.000000000000000000, 0.000000000000000000 ) ) ;
#231 = FACE_OUTER_BOUND ( 'NONE', #159, .T. ) ;
#232 = DIRECTION ( 'NONE',  ( -0.000000000000000000, -0.000000000000000000, -1.000000000000000000 ) ) ;
#233 = CARTESIAN_POINT ( 'NONE',  ( 12.51004704568249792, -5.000000000000000000, -4.235987205493064067 ) ) ;
#234 = FACE_OUTER_BOUND ( 'NONE', #310, .T. ) ;
#235 = ORIENTED_EDGE ( 'NONE', *, *, #455, .F. ) ;
#236 = EDGE_CURVE ( 'NONE', #669, #57, #594, .T. ) ;
#237 = ORIENTED_EDGE ( 'NONE', *, *, #467, .T. ) ;
#238 = DIRECTION ( 'NONE',  ( 0.000000000000000000, 1.000000000000000000, 0.000000000000000000 ) ) ;
#239 = ORIENTED_EDGE ( 'NONE', *, *, #784, .T. ) ;
#240 = VECTOR ( 'NONE', #341, 1000.000000000000000 ) ;
#241 = ORIENTED_EDGE ( 'NONE', *, *, #683, .F. ) ;
#242 = PLANE ( 'NONE',  #140 ) ;
#243 = CARTESIAN_POINT ( 'NONE',  ( -58.48995295431750208, 0.000000000000000000, -25.23598720549304986 ) ) ;
#244 = PERSON_AND_ORGANIZATION ( #317, #268 ) ;
#245 = LINE ( 'NONE', #652, #157 ) ;
#246 = ORIENTED_EDGE ( 'NONE', *, *, #155, .T. ) ;
#247 =( NAMED_UNIT ( * ) PLANE_ANGLE_UNIT ( ) SI_UNIT ( $, .RADIAN. ) );
#248 = LINE ( 'NONE', #788, #642 ) ;
#249 = ORIENTED_EDGE ( 'NONE', *, *, #784, .F. ) ;
#250 = APPLICATION_PROTOCOL_DEFINITION ( 'international standard', 'config_control_design', 1994, #465 ) ;
#251 = EDGE_CURVE ( 'NONE', #562, #45, #261, .T. ) ;
#252 = VECTOR ( 'NONE', #83, 1000.000000000000000 ) ;
#253 = ORIENTED_EDGE ( 'NONE', *, *, #601, .F. ) ;
#254 = AXIS2_PLACEMENT_3D ( 'NONE', #743, #599, #74 ) ;
#255 = EDGE_CURVE ( 'NONE', #686, #624, #741, .T. ) ;
#256 = EDGE_CURVE ( 'NONE', #57, #727, #668, .T. ) ;
#257 = CARTESIAN_POINT ( 'NONE',  ( -63.48995295431750208, 0.000000000000000000, -25.23598720549304986 ) ) ;
#258 = ORIENTED_EDGE ( 'NONE', *, *, #702, .F. ) ;
#259 = DIRECTION ( 'NONE',  ( 0.000000000000000000, 0.000000000000000000, -1.000000000000000000 ) ) ;
#260 = ORIENTED_EDGE ( 'NONE', *, *, #303, .F. ) ;
#261 = LINE ( 'NONE', #4, #479 ) ;
#262 = EDGE_LOOP ( 'NONE', ( #421, #736, #119, #767 ) ) ;
#263 = AXIS2_PLACEMENT_3D ( 'NONE', #553, #644, #494 ) ;
#264 = LINE ( 'NONE', #534, #18 ) ;
#265 = PLANE ( 'NONE',  #413 ) ;
#266 = ORIENTED_EDGE ( 'NONE', *, *, #303, .T. ) ;
#267 = ADVANCED_FACE ( 'NONE', ( #602 ), #867, .F. ) ;
#268 = ORGANIZATION ( 'UNSPECIFIED', 'UNSPECIFIED', '' ) ;
#269 = APPROVAL_ROLE ( '' ) ;
#270 = DIRECTION ( 'NONE',  ( -0.000000000000000000, -0.000000000000000000, 1.000000000000000000 ) ) ;
#271 = CARTESIAN_POINT ( 'NONE',  ( 7.510047045682499700, -5.000000000000000000, -4.235987205493064067 ) ) ;
#272 = VERTEX_POINT ( 'NONE', #526 ) ;
#273 = CARTESIAN_POINT ( 'NONE',  ( 14.51004704568249792, 23.00000000000000000, -32.23598720549306051 ) ) ;
#274 = DIRECTION ( 'NONE',  ( 1.000000000000000000, 0.000000000000000000, 0.000000000000000000 ) ) ;
#275 = EDGE_CURVE ( 'NONE', #713, #371, #197, .T. ) ;
#276 = CARTESIAN_POINT ( 'NONE',  ( 0.000000000000000000, -5.000000000000000000, 0.000000000000000000 ) ) ;
#277 = EDGE_LOOP ( 'NONE', ( #246, #658, #582, #595 ) ) ;
#278 = CARTESIAN_POINT ( 'NONE',  ( -58.48995295431750208, -5.000000000000000000, -4.235987205493064067 ) ) ;
#279 = VECTOR ( 'NONE', #476, 1000.000000000000000 ) ;
#280 = LINE ( 'NONE', #614, #460 ) ;
#281 = EDGE_CURVE ( 'NONE', #691, #220, #264, .T. ) ;
#282 = ORIENTED_EDGE ( 'NONE', *, *, #682, .T. ) ;
#283 = FACE_OUTER_BOUND ( 'NONE', #89, .T. ) ;
#284 = LINE ( 'NONE', #289, #292 ) ;
#285 = CARTESIAN_POINT ( 'NONE',  ( 7.510047045682499700, 0.000000000000000000, -9.235987205493074725 ) ) ;
#286 = ORIENTED_EDGE ( 'NONE', *, *, #557, .T. ) ;
#287 = DIRECTION ( 'NONE',  ( -0.000000000000000000, 1.000000000000000000, -0.000000000000000000 ) ) ;
#288 = EDGE_CURVE ( 'NONE', #176, #673, #690, .T. ) ;
#289 = CARTESIAN_POINT ( 'NONE',  ( -63.48995295431750208, 0.000000000000000000, -4.235987205493064067 ) ) ;
#290 = ORIENTED_EDGE ( 'NONE', *, *, #462, .T. ) ;
#291 = CARTESIAN_POINT ( 'NONE',  ( 7.510047045682499700, 0.000000000000000000, -4.235987205493064067 ) ) ;
#292 = VECTOR ( 'NONE', #827, 1000.000000000000000 ) ;
#293 = FACE_OUTER_BOUND ( 'NONE', #561, .T. ) ;
#294 = VECTOR ( 'NONE', #58, 1000.000000000000000 ) ;
#295 = ORIENTED_EDGE ( 'NONE', *, *, #61, .T. ) ;
#296 = CARTESIAN_POINT ( 'NONE',  ( 14.51004704568249792, 0.000000000000000000, -2.235987205493061847 ) ) ;
#297 = EDGE_CURVE ( 'NONE', #468, #27, #627, .T. ) ;
#298 = CARTESIAN_POINT ( 'NONE',  ( 12.51004704568249792, -5.000000000000000000, -4.235987205493064067 ) ) ;
#299 = LINE ( 'NONE', #53, #565 ) ;
#300 = ORIENTED_EDGE ( 'NONE', *, *, #850, .F. ) ;
#301 = CARTESIAN_POINT ( 'NONE',  ( -58.48995295431750208, 0.000000000000000000, -30.23598720549306051 ) ) ;
#302 = VERTEX_POINT ( 'NONE', #142 ) ;
#303 = EDGE_CURVE ( 'NONE', #105, #67, #284, .T. ) ;
#304 = VERTEX_POINT ( 'NONE', #225 ) ;
#305 = CARTESIAN_POINT ( 'NONE',  ( 0.000000000000000000, -5.000000000000000000, 0.000000000000000000 ) ) ;
#306 = PERSON_AND_ORGANIZATION ( #317, #268 ) ;
#307 = EDGE_LOOP ( 'NONE', ( #583, #70, #216, #521 ) ) ;
#308 = AXIS2_PLACEMENT_3D ( 'NONE', #305, #95, #356 ) ;
#309 = EDGE_CURVE ( 'NONE', #468, #105, #548, .T. ) ;
#310 = EDGE_LOOP ( 'NONE', ( #354, #461, #527, #634 ) ) ;
#311 = ADVANCED_FACE ( 'NONE', ( #26 ), #404, .F. ) ;
#312 = LINE ( 'NONE', #181, #769 ) ;
#313 = CARTESIAN_POINT ( 'NONE',  ( 14.51004704568249792, 3.000000000000000000, -29.23598720549306051 ) ) ;
#314 = VERTEX_POINT ( 'NONE', #815 ) ;
#315 = LOCAL_TIME ( 18, 35, 28.00000000000000000, #73 ) ;
#316 = DIRECTION ( 'NONE',  ( -1.000000000000000000, 0.000000000000000000, -0.000000000000000000 ) ) ;
#317 = PERSON ( 'UNSPECIFIED', 'UNSPECIFIED', 'UNSPECIFIED', ('UNSPECIFIED'), ('UNSPECIFIED'), ('UNSPECIFIED') ) ;
#318 = APPROVAL ( #802, 'UNSPECIFIED' ) ;
#319 = CARTESIAN_POINT ( 'NONE',  ( 7.510047045682499700, -5.000000000000000000, -30.23598720549306051 ) ) ;
#320 = CARTESIAN_POINT ( 'NONE',  ( -63.48995295431750208, 0.000000000000000000, -4.235987205493064067 ) ) ;
#321 = EDGE_LOOP ( 'NONE', ( #649, #235, #253, #426 ) ) ;
#322 = PLANE ( 'NONE',  #165 ) ;
#323 = LINE ( 'NONE', #674, #449 ) ;
#324 = VECTOR ( 'NONE', #94, 1000.000000000000000 ) ;
#325 = EDGE_LOOP ( 'NONE', ( #260, #187, #400, #172 ) ) ;
#326 = LINE ( 'NONE', #600, #755 ) ;
#327 = DIRECTION ( 'NONE',  ( -0.000000000000000000, 1.000000000000000000, -0.000000000000000000 ) ) ;
#328 = ORIENTED_EDGE ( 'NONE', *, *, #702, .T. ) ;
#329 = COORDINATED_UNIVERSAL_TIME_OFFSET ( 0, 0, .AHEAD. ) ;
#330 = CARTESIAN_POINT ( 'NONE',  ( -63.48995295431750208, -5.000000000000000000, -4.235987205493064067 ) ) ;
#331 = EDGE_LOOP ( 'NONE', ( #457, #639, #477, #554 ) ) ;
#332 = CARTESIAN_POINT ( 'NONE',  ( 7.510047045682499700, -5.000000000000000000, -30.23598720549306051 ) ) ;
#333 = CARTESIAN_POINT ( 'NONE',  ( 7.510047045682499700, -5.000000000000000000, -25.23598720549304630 ) ) ;
#334 = VECTOR ( 'NONE', #343, 1000.000000000000000 ) ;
#335 = VECTOR ( 'NONE', #65, 1000.000000000000000 ) ;
#336 = CALENDAR_DATE ( 2026, 7, 9 ) ;
#337 = PLANE ( 'NONE',  #87 ) ;
#338 = EDGE_CURVE ( 'NONE', #656, #422, #632, .T. ) ;
#339 = PLANE ( 'NONE',  #697 ) ;
#340 = EDGE_LOOP ( 'NONE', ( #123, #25, #80, #473 ) ) ;
#341 = DIRECTION ( 'NONE',  ( 1.000000000000000000, 0.000000000000000000, 0.000000000000000000 ) ) ;
#342 = ADVANCED_FACE ( 'NONE', ( #757 ), #82, .F. ) ;
#343 = DIRECTION ( 'NONE',  ( -0.000000000000000000, 1.000000000000000000, -0.000000000000000000 ) ) ;
#344 = CARTESIAN_POINT ( 'NONE',  ( 7.510047045682499700, 0.000000000000000000, -30.23598720549306051 ) ) ;
#345 = ORIENTED_EDGE ( 'NONE', *, *, #751, .T. ) ;
#346 = DIRECTION ( 'NONE',  ( -0.000000000000000000, -1.000000000000000000, -0.000000000000000000 ) ) ;
#347 = VECTOR ( 'NONE', #86, 1000.000000000000000 ) ;
#348 = DIRECTION ( 'NONE',  ( 1.000000000000000000, 0.000000000000000000, -0.000000000000000000 ) ) ;
#349 = ORIENTED_EDGE ( 'NONE', *, *, #774, .F. ) ;
#350 = CARTESIAN_POINT ( 'NONE',  ( -58.48995295431750208, 0.000000000000000000, -9.235987205493071173 ) ) ;
#351 = DIRECTION ( 'NONE',  ( -0.000000000000000000, -0.000000000000000000, -1.000000000000000000 ) ) ;
#352 = CC_DESIGN_APPROVAL ( #71, ( #382 ) ) ;
#353 = DIRECTION ( 'NONE',  ( 0.000000000000000000, -0.000000000000000000, -1.000000000000000000 ) ) ;
#354 = ORIENTED_EDGE ( 'NONE', *, *, #125, .F. ) ;
#355 = DIRECTION ( 'NONE',  ( 1.000000000000000000, 0.000000000000000000, 0.000000000000000000 ) ) ;
#356 = DIRECTION ( 'NONE',  ( 0.000000000000000000, -0.000000000000000000, -1.000000000000000000 ) ) ;
#357 = FACE_OUTER_BOUND ( 'NONE', #859, .T. ) ;
#358 = ORIENTED_EDGE ( 'NONE', *, *, #573, .T. ) ;
#359 = ORIENTED_EDGE ( 'NONE', *, *, #394, .F. ) ;
#360 = ADVANCED_BREP_SHAPE_REPRESENTATION ( 'SofaFrame', ( #820, #660 ), #189 ) ;
#361 = CARTESIAN_POINT ( 'NONE',  ( -63.48995295431750208, 0.000000000000000000, -30.23598720549306051 ) ) ;
#362 = VECTOR ( 'NONE', #623, 1000.000000000000000 ) ;
#363 = DIRECTION ( 'NONE',  ( -0.000000000000000000, -1.000000000000000000, -0.000000000000000000 ) ) ;
#364 = VECTOR ( 'NONE', #232, 1000.000000000000000 ) ;
#365 = CARTESIAN_POINT ( 'NONE',  ( -58.48995295431750208, 0.000000000000000000, -30.23598720549306051 ) ) ;
#366 = VERTEX_POINT ( 'NONE', #475 ) ;
#367 = ADVANCED_FACE ( 'NONE', ( #684, #22, #419, #704, #218 ), #337, .F. ) ;
#368 = CARTESIAN_POINT ( 'NONE',  ( 0.000000000000000000, 23.00000000000000000, 0.000000000000000000 ) ) ;
#369 = LINE ( 'NONE', #700, #737 ) ;
#370 = ORIENTED_EDGE ( 'NONE', *, *, #131, .F. ) ;
#371 = VERTEX_POINT ( 'NONE', #79 ) ;
#372 = ADVANCED_FACE ( 'NONE', ( #416 ), #621, .F. ) ;
#373 = PLANE ( 'NONE',  #794 ) ;
#374 = EDGE_CURVE ( 'NONE', #16, #117, #280, .T. ) ;
#375 = PLANE ( 'NONE',  #177 ) ;
#376 = CARTESIAN_POINT ( 'NONE',  ( -58.48995295431750208, 0.000000000000000000, -4.235987205493064067 ) ) ;
#377 = EDGE_LOOP ( 'NONE', ( #444, #556, #390, #345 ) ) ;
#378 = CARTESIAN_POINT ( 'NONE',  ( -65.48995295431750208, 3.000000000000000000, -32.23598720549306051 ) ) ;
#379 = VECTOR ( 'NONE', #821, 1000.000000000000000 ) ;
#380 = ORIENTED_EDGE ( 'NONE', *, *, #682, .F. ) ;
#381 = EDGE_LOOP ( 'NONE', ( #857, #286, #701, #282 ) ) ;
#382 = PRODUCT_DEFINITION ( 'UNKNOWN', '', #590, #445 ) ;
#383 = PERSON_AND_ORGANIZATION_ROLE ( 'design_owner' ) ;
#384 = DIRECTION ( 'NONE',  ( 0.000000000000000000, 0.000000000000000000, 1.000000000000000000 ) ) ;
#385 = ORIENTED_EDGE ( 'NONE', *, *, #219, .T. ) ;
#386 =( NAMED_UNIT ( * ) SI_UNIT ( $, .STERADIAN. ) SOLID_ANGLE_UNIT ( ) );
#387 = FACE_OUTER_BOUND ( 'NONE', #340, .T. ) ;
#388 = LINE ( 'NONE', #124, #294 ) ;
#389 = VECTOR ( 'NONE', #568, 1000.000000000000000 ) ;
#390 = ORIENTED_EDGE ( 'NONE', *, *, #844, .T. ) ;
#391 = PERSON_AND_ORGANIZATION_ROLE ( 'design_supplier' ) ;
#392 = DIRECTION ( 'NONE',  ( -1.000000000000000000, 0.000000000000000000, 0.000000000000000000 ) ) ;
#393 = ORIENTED_EDGE ( 'NONE', *, *, #837, .T. ) ;
#394 = EDGE_CURVE ( 'NONE', #727, #707, #558, .T. ) ;
#395 = CARTESIAN_POINT ( 'NONE',  ( 7.510047045682499700, 0.000000000000000000, -4.235987205493064067 ) ) ;
#396 = EDGE_LOOP ( 'NONE', ( #6, #871, #696, #201 ) ) ;
#397 = APPROVAL_ROLE ( '' ) ;
#398 = LINE ( 'NONE', #330, #34 ) ;
#399 = CARTESIAN_POINT ( 'NONE',  ( -65.48995295431750208, 23.00000000000000000, -32.23598720549306051 ) ) ;
#400 = ORIENTED_EDGE ( 'NONE', *, *, #122, .F. ) ;
#401 = VECTOR ( 'NONE', #194, 1000.000000000000000 ) ;
#402 = ADVANCED_FACE ( 'NONE', ( #147 ), #339, .F. ) ;
#403 = VECTOR ( 'NONE', #530, 1000.000000000000000 ) ;
#404 = PLANE ( 'NONE',  #834 ) ;
#405 = ORIENTED_EDGE ( 'NONE', *, *, #844, .F. ) ;
#406 = PLANE ( 'NONE',  #507 ) ;
#407 = LOCAL_TIME ( 18, 35, 28.00000000000000000, #474 ) ;
#408 = CALENDAR_DATE ( 2026, 7, 9 ) ;
#409 = CARTESIAN_POINT ( 'NONE',  ( -58.48995295431750208, -5.000000000000000000, -9.235987205493071173 ) ) ;
#410 = ORIENTED_EDGE ( 'NONE', *, *, #164, .T. ) ;
#411 = DIRECTION ( 'NONE',  ( 0.000000000000000000, 0.000000000000000000, -1.000000000000000000 ) ) ;
#412 = ORIENTED_EDGE ( 'NONE', *, *, #394, .T. ) ;
#413 = AXIS2_PLACEMENT_3D ( 'NONE', #200, #758, #215 ) ;
#414 = CARTESIAN_POINT ( 'NONE',  ( -63.48995295431750208, -5.000000000000000000, -9.235987205493071173 ) ) ;
#415 = VECTOR ( 'NONE', #148, 1000.000000000000000 ) ;
#416 = FACE_OUTER_BOUND ( 'NONE', #732, .T. ) ;
#417 = ORIENTED_EDGE ( 'NONE', *, *, #622, .F. ) ;
#418 = LINE ( 'NONE', #222, #546 ) ;
#419 = FACE_OUTER_BOUND ( 'NONE', #495, .T. ) ;
#420 = ADVANCED_FACE ( 'NONE', ( #293 ), #430, .F. ) ;
#421 = ORIENTED_EDGE ( 'NONE', *, *, #129, .T. ) ;
#422 = VERTEX_POINT ( 'NONE', #301 ) ;
#423 = DIRECTION ( 'NONE',  ( 0.000000000000000000, 0.000000000000000000, 1.000000000000000000 ) ) ;
#424 = DIRECTION ( 'NONE',  ( 0.000000000000000000, 1.000000000000000000, 0.000000000000000000 ) ) ;
#425 = LINE ( 'NONE', #633, #609 ) ;
#426 = ORIENTED_EDGE ( 'NONE', *, *, #188, .T. ) ;
#427 = CARTESIAN_POINT ( 'NONE',  ( -58.48995295431750208, -5.000000000000000000, -25.23598720549304986 ) ) ;
#428 = EDGE_CURVE ( 'NONE', #366, #713, #440, .T. ) ;
#429 = VECTOR ( 'NONE', #503, 1000.000000000000000 ) ;
#430 = PLANE ( 'NONE',  #519 ) ;
#431 = DIRECTION ( 'NONE',  ( 0.000000000000000000, -1.000000000000000000, 0.000000000000000000 ) ) ;
#432 = CARTESIAN_POINT ( 'NONE',  ( -65.48995295431750208, 3.000000000000000000, -32.23598720549306051 ) ) ;
#433 = EDGE_LOOP ( 'NONE', ( #517, #750, #739, #20 ) ) ;
#434 = ADVANCED_FACE ( 'NONE', ( #178 ), #373, .F. ) ;
#435 = ADVANCED_FACE ( 'NONE', ( #231 ), #775, .F. ) ;
#436 = CARTESIAN_POINT ( 'NONE',  ( -58.48995295431750208, -5.000000000000000000, -9.235987205493071173 ) ) ;
#437 = DIRECTION ( 'NONE',  ( -0.000000000000000000, 0.000000000000000000, -1.000000000000000000 ) ) ;
#438 = CARTESIAN_POINT ( 'NONE',  ( -63.48995295431750208, -5.000000000000000000, -25.23598720549304986 ) ) ;
#439 = VERTEX_POINT ( 'NONE', #243 ) ;
#440 = LINE ( 'NONE', #720, #429 ) ;
#441 = APPROVAL_STATUS ( 'not_yet_approved' ) ;
#442 = ADVANCED_FACE ( 'NONE', ( #112 ), #712, .T. ) ;
#443 = DIRECTION ( 'NONE',  ( -0.000000000000000000, 1.000000000000000000, -0.000000000000000000 ) ) ;
#444 = ORIENTED_EDGE ( 'NONE', *, *, #850, .T. ) ;
#445 = DESIGN_CONTEXT ( 'detailed design', #555, 'design' ) ;
#446 = AXIS2_PLACEMENT_3D ( 'NONE', #699, #91, #752 ) ;
#447 = DIRECTION ( 'NONE',  ( 1.000000000000000000, 0.000000000000000000, 0.000000000000000000 ) ) ;
#448 = LINE ( 'NONE', #772, #680 ) ;
#449 = VECTOR ( 'NONE', #672, 1000.000000000000000 ) ;
#450 = ORIENTED_EDGE ( 'NONE', *, *, #236, .F. ) ;
#451 = LINE ( 'NONE', #855, #841 ) ;
#452 = CARTESIAN_POINT ( 'NONE',  ( -63.48995295431750208, 0.000000000000000000, -9.235987205493071173 ) ) ;
#453 = ADVANCED_FACE ( 'NONE', ( #847 ), #637, .T. ) ;
#454 = ORIENTED_EDGE ( 'NONE', *, *, #151, .F. ) ;
#455 = EDGE_CURVE ( 'NONE', #540, #220, #31, .T. ) ;
#456 = LINE ( 'NONE', #786, #631 ) ;
#457 = ORIENTED_EDGE ( 'NONE', *, *, #505, .F. ) ;
#458 = ADVANCED_FACE ( 'NONE', ( #234 ), #780, .T. ) ;
#459 = LINE ( 'NONE', #452, #335 ) ;
#460 = VECTOR ( 'NONE', #351, 1000.000000000000000 ) ;
#461 = ORIENTED_EDGE ( 'NONE', *, *, #153, .T. ) ;
#462 = EDGE_CURVE ( 'NONE', #117, #796, #851, .T. ) ;
#463 = EDGE_CURVE ( 'NONE', #754, #176, #100, .T. ) ;
#464 = PERSON_AND_ORGANIZATION ( #317, #268 ) ;
#465 = APPLICATION_CONTEXT ( 'configuration controlled 3d designs of mechanical parts and assemblies' ) ;
#466 = LINE ( 'NONE', #870, #403 ) ;
#467 = EDGE_CURVE ( 'NONE', #198, #35, #512, .T. ) ;
#468 = VERTEX_POINT ( 'NONE', #173 ) ;
#469 = PERSON_AND_ORGANIZATION ( #317, #268 ) ;
#470 = CARTESIAN_POINT ( 'NONE',  ( 14.51004704568249792, 23.00000000000000000, -29.23598720549306051 ) ) ;
#471 = CC_DESIGN_PERSON_AND_ORGANIZATION_ASSIGNMENT ( #464, #8, ( #382 ) ) ;
#472 = CARTESIAN_POINT ( 'NONE',  ( 12.51004704568249792, 0.000000000000000000, -4.235987205493064067 ) ) ;
#473 = ORIENTED_EDGE ( 'NONE', *, *, #193, .T. ) ;
#474 = COORDINATED_UNIVERSAL_TIME_OFFSET ( 0, 0, .AHEAD. ) ;
#475 = CARTESIAN_POINT ( 'NONE',  ( 12.51004704568249792, -5.000000000000000000, -25.23598720549304630 ) ) ;
#476 = DIRECTION ( 'NONE',  ( -1.000000000000000000, -0.000000000000000000, -0.000000000000000000 ) ) ;
#477 = ORIENTED_EDGE ( 'NONE', *, *, #756, .F. ) ;
#478 = VECTOR ( 'NONE', #838, 1000.000000000000000 ) ;
#479 = VECTOR ( 'NONE', #735, 1000.000000000000000 ) ;
#480 = LINE ( 'NONE', #502, #171 ) ;
#481 = DIRECTION ( 'NONE',  ( -0.000000000000000000, 0.000000000000000000, -1.000000000000000000 ) ) ;
#482 = PLANE ( 'NONE',  #764 ) ;
#483 = ORIENTED_EDGE ( 'NONE', *, *, #463, .F. ) ;
#484 = DIRECTION ( 'NONE',  ( -0.000000000000000000, 1.000000000000000000, -0.000000000000000000 ) ) ;
#485 = AXIS2_PLACEMENT_3D ( 'NONE', #298, #437, #52 ) ;
#486 = CARTESIAN_POINT ( 'NONE',  ( 12.51004704568249792, -5.000000000000000000, -30.23598720549306051 ) ) ;
#487 = VERTEX_POINT ( 'NONE', #436 ) ;
#488 = CARTESIAN_POINT ( 'NONE',  ( -63.48995295431750208, -5.000000000000000000, -30.23598720549306051 ) ) ;
#489 = ORIENTED_EDGE ( 'NONE', *, *, #500, .F. ) ;
#490 = AXIS2_PLACEMENT_3D ( 'NONE', #161, #348, #481 ) ;
#491 = LINE ( 'NONE', #166, #324 ) ;
#492 = VECTOR ( 'NONE', #175, 1000.000000000000000 ) ;
#493 = DIRECTION ( 'NONE',  ( 0.000000000000000000, 0.000000000000000000, 1.000000000000000000 ) ) ;
#494 = DIRECTION ( 'NONE',  ( 1.000000000000000000, 0.000000000000000000, -0.000000000000000000 ) ) ;
#495 = EDGE_LOOP ( 'NONE', ( #241, #417, #92, #745 ) ) ;
#496 = CARTESIAN_POINT ( 'NONE',  ( 12.51004704568249792, 0.000000000000000000, -25.23598720549304630 ) ) ;
#497 = CARTESIAN_POINT ( 'NONE',  ( 12.51004704568249792, -5.000000000000000000, -25.23598720549304630 ) ) ;
#498 = CC_DESIGN_APPROVAL ( #214, ( #110 ) ) ;
#499 = LINE ( 'NONE', #376, #611 ) ;
#500 = EDGE_CURVE ( 'NONE', #16, #158, #46, .T. ) ;
#501 = ORIENTED_EDGE ( 'NONE', *, *, #715, .F. ) ;
#502 = CARTESIAN_POINT ( 'NONE',  ( 14.51004704568249792, 0.000000000000000000, -32.23598720549306051 ) ) ;
#503 = DIRECTION ( 'NONE',  ( -1.000000000000000000, 0.000000000000000000, 0.000000000000000000 ) ) ;
#504 = DIRECTION ( 'NONE',  ( -0.000000000000000000, 1.000000000000000000, -0.000000000000000000 ) ) ;
#505 = EDGE_CURVE ( 'NONE', #796, #422, #212, .T. ) ;
#506 = VERTEX_POINT ( 'NONE', #350 ) ;
#507 = AXIS2_PLACEMENT_3D ( 'NONE', #836, #230, #423 ) ;
#508 = CARTESIAN_POINT ( 'NONE',  ( 0.000000000000000000, 3.000000000000000000, 0.000000000000000000 ) ) ;
#509 = CARTESIAN_POINT ( 'NONE',  ( 14.51004704568249792, 3.000000000000000000, -2.235987205493061847 ) ) ;
#510 = ORIENTED_EDGE ( 'NONE', *, *, #131, .T. ) ;
#511 = ORIENTED_EDGE ( 'NONE', *, *, #688, .T. ) ;
#512 = LINE ( 'NONE', #41, #711 ) ;
#513 = CARTESIAN_POINT ( 'NONE',  ( 0.000000000000000000, 0.000000000000000000, 0.000000000000000000 ) ) ;
#514 = LINE ( 'NONE', #365, #226 ) ;
#515 = ORIENTED_EDGE ( 'NONE', *, *, #528, .T. ) ;
#516 = LINE ( 'NONE', #182, #725 ) ;
#517 = ORIENTED_EDGE ( 'NONE', *, *, #288, .T. ) ;
#518 = LINE ( 'NONE', #427, #401 ) ;
#519 = AXIS2_PLACEMENT_3D ( 'NONE', #497, #842, #643 ) ;
#520 = APPROVAL_ROLE ( '' ) ;
#521 = ORIENTED_EDGE ( 'NONE', *, *, #374, .T. ) ;
#522 = LINE ( 'NONE', #798, #835 ) ;
#523 = EDGE_LOOP ( 'NONE', ( #266, #454, #675, #144 ) ) ;
#524 = EDGE_CURVE ( 'NONE', #314, #550, #418, .T. ) ;
#525 = PERSON_AND_ORGANIZATION ( #317, #268 ) ;
#526 = CARTESIAN_POINT ( 'NONE',  ( -58.48995295431750208, -5.000000000000000000, -4.235987205493064067 ) ) ;
#527 = ORIENTED_EDGE ( 'NONE', *, *, #868, .T. ) ;
#528 = EDGE_CURVE ( 'NONE', #272, #304, #85, .T. ) ;
#529 = APPROVAL_DATE_TIME ( #196, #318 ) ;
#530 = DIRECTION ( 'NONE',  ( 1.000000000000000000, 0.000000000000000000, 0.000000000000000000 ) ) ;
#531 = AXIS2_PLACEMENT_3D ( 'NONE', #695, #101, #575 ) ;
#532 = DIRECTION ( 'NONE',  ( -0.000000000000000000, 1.000000000000000000, -0.000000000000000000 ) ) ;
#533 = CC_DESIGN_PERSON_AND_ORGANIZATION_ASSIGNMENT ( #244, #383, ( #77 ) ) ;
#534 = CARTESIAN_POINT ( 'NONE',  ( 12.51004704568249792, 0.000000000000000000, -30.23598720549306051 ) ) ;
#535 = CARTESIAN_POINT ( 'NONE',  ( -65.48995295431750208, 0.000000000000000000, -32.23598720549306051 ) ) ;
#536 = VERTEX_POINT ( 'NONE', #760 ) ;
#537 = COORDINATED_UNIVERSAL_TIME_OFFSET ( 0, 0, .AHEAD. ) ;
#538 = CARTESIAN_POINT ( 'NONE',  ( -63.48995295431750208, -5.000000000000000000, -4.235987205493064067 ) ) ;
#539 = LINE ( 'NONE', #395, #678 ) ;
#540 = VERTEX_POINT ( 'NONE', #150 ) ;
#541 = PLANE ( 'NONE',  #666 ) ;
#542 = DIRECTION ( 'NONE',  ( 1.000000000000000000, 0.000000000000000000, -0.000000000000000000 ) ) ;
#543 = CARTESIAN_POINT ( 'NONE',  ( 7.510047045682499700, 0.000000000000000000, -30.23598720549306051 ) ) ;
#544 = ORIENTED_EDGE ( 'NONE', *, *, #281, .F. ) ;
#545 = EDGE_CURVE ( 'NONE', #117, #656, #145, .T. ) ;
#546 = VECTOR ( 'NONE', #346, 1000.000000000000000 ) ;
#547 = PLANE ( 'NONE',  #805 ) ;
#548 = LINE ( 'NONE', #538, #334 ) ;
#549 = LINE ( 'NONE', #344, #49 ) ;
#550 = VERTEX_POINT ( 'NONE', #832 ) ;
#551 = DIRECTION ( 'NONE',  ( 1.000000000000000000, 0.000000000000000000, 0.000000000000000000 ) ) ;
#552 = DIRECTION ( 'NONE',  ( 1.000000000000000000, -0.000000000000000000, -0.000000000000000000 ) ) ;
#553 = CARTESIAN_POINT ( 'NONE',  ( 12.51004704568249792, -5.000000000000000000, -9.235987205493074725 ) ) ;
#554 = ORIENTED_EDGE ( 'NONE', *, *, #129, .F. ) ;
#555 = APPLICATION_CONTEXT ( 'configuration controlled 3d designs of mechanical parts and assemblies' ) ;
#556 = ORIENTED_EDGE ( 'NONE', *, *, #211, .T. ) ;
#557 = EDGE_CURVE ( 'NONE', #686, #669, #160, .T. ) ;
#558 = LINE ( 'NONE', #9, #585 ) ;
#559 = EDGE_CURVE ( 'NONE', #592, #686, #491, .T. ) ;
#560 = CARTESIAN_POINT ( 'NONE',  ( 0.000000000000000000, -5.000000000000000000, 0.000000000000000000 ) ) ;
#561 = EDGE_LOOP ( 'NONE', ( #410, #205, #724, #358 ) ) ;
#562 = VERTEX_POINT ( 'NONE', #273 ) ;
#563 = VECTOR ( 'NONE', #532, 1000.000000000000000 ) ;
#564 = FACE_OUTER_BOUND ( 'NONE', #706, .T. ) ;
#565 = VECTOR ( 'NONE', #44, 1000.000000000000000 ) ;
#566 = CC_DESIGN_PERSON_AND_ORGANIZATION_ASSIGNMENT ( #671, #391, ( #590 ) ) ;
#567 = DIRECTION ( 'NONE',  ( -0.000000000000000000, 1.000000000000000000, -0.000000000000000000 ) ) ;
#568 = DIRECTION ( 'NONE',  ( 0.000000000000000000, 0.000000000000000000, 1.000000000000000000 ) ) ;
#569 = VERTEX_POINT ( 'NONE', #496 ) ;
#570 = CC_DESIGN_DATE_AND_TIME_ASSIGNMENT ( #603, #806, ( #110 ) ) ;
#571 = LINE ( 'NONE', #233, #415 ) ;
#572 = DIRECTION ( 'NONE',  ( -0.000000000000000000, 1.000000000000000000, -0.000000000000000000 ) ) ;
#573 = EDGE_CURVE ( 'NONE', #366, #569, #829, .T. ) ;
#574 = APPROVAL_PERSON_ORGANIZATION ( #469, #214, #397 ) ;
#575 = DIRECTION ( 'NONE',  ( 0.000000000000000000, 0.000000000000000000, 1.000000000000000000 ) ) ;
#576 = DIRECTION ( 'NONE',  ( 0.000000000000000000, 0.000000000000000000, 1.000000000000000000 ) ) ;
#577 = ORIENTED_EDGE ( 'NONE', *, *, #211, .F. ) ;
#578 = FACE_OUTER_BOUND ( 'NONE', #221, .T. ) ;
#579 = UNCERTAINTY_MEASURE_WITH_UNIT (LENGTH_MEASURE( 1.000000000000000082E-05 ), #717, 'distance_accuracy_value', 'NONE');
#580 = DIRECTION ( 'NONE',  ( 0.000000000000000000, 0.000000000000000000, 1.000000000000000000 ) ) ;
#581 = PLANE ( 'NONE',  #531 ) ;
#582 = ORIENTED_EDGE ( 'NONE', *, *, #598, .F. ) ;
#583 = ORIENTED_EDGE ( 'NONE', *, *, #545, .T. ) ;
#584 = DIRECTION ( 'NONE',  ( -0.000000000000000000, -0.000000000000000000, -1.000000000000000000 ) ) ;
#585 = VECTOR ( 'NONE', #270, 1000.000000000000000 ) ;
#586 = DIRECTION ( 'NONE',  ( 0.000000000000000000, -0.000000000000000000, 1.000000000000000000 ) ) ;
#587 = DIRECTION ( 'NONE',  ( -1.000000000000000000, 0.000000000000000000, -0.000000000000000000 ) ) ;
#588 = EDGE_LOOP ( 'NONE', ( #349, #544, #108, #783 ) ) ;
#589 = ORIENTED_EDGE ( 'NONE', *, *, #683, .T. ) ;
#590 = PRODUCT_DEFINITION_FORMATION_WITH_SPECIFIED_SOURCE ( 'ANY', '', #77, .NOT_KNOWN. ) ;
#591 = DIRECTION ( 'NONE',  ( -0.000000000000000000, -0.000000000000000000, 1.000000000000000000 ) ) ;
#592 = VERTEX_POINT ( 'NONE', #692 ) ;
#593 = DIRECTION ( 'NONE',  ( 1.000000000000000000, 0.000000000000000000, 0.000000000000000000 ) ) ;
#594 = LINE ( 'NONE', #863, #749 ) ;
#595 = ORIENTED_EDGE ( 'NONE', *, *, #151, .T. ) ;
#596 = VECTOR ( 'NONE', #411, 1000.000000000000000 ) ;
#597 = CARTESIAN_POINT ( 'NONE',  ( -65.48995295431750208, 23.00000000000000000, -32.23598720549306051 ) ) ;
#598 = EDGE_CURVE ( 'NONE', #27, #487, #626, .T. ) ;
#599 = DIRECTION ( 'NONE',  ( 0.000000000000000000, 0.000000000000000000, -1.000000000000000000 ) ) ;
#600 = CARTESIAN_POINT ( 'NONE',  ( -65.48995295431750208, 3.000000000000000000, -2.235987205493061847 ) ) ;
#601 = EDGE_CURVE ( 'NONE', #371, #540, #619, .T. ) ;
#602 = FACE_OUTER_BOUND ( 'NONE', #163, .T. ) ;
#603 = DATE_AND_TIME ( #336, #812 ) ;
#604 = DIRECTION ( 'NONE',  ( -1.000000000000000000, -0.000000000000000000, -0.000000000000000000 ) ) ;
#605 = EDGE_LOOP ( 'NONE', ( #258, #359, #249, #501 ) ) ;
#606 = ADVANCED_FACE ( 'NONE', ( #283 ), #541, .T. ) ;
#607 = CALENDAR_DATE ( 2026, 7, 9 ) ;
#608 = DIRECTION ( 'NONE',  ( -0.000000000000000000, -0.000000000000000000, -1.000000000000000000 ) ) ;
#609 = VECTOR ( 'NONE', #628, 1000.000000000000000 ) ;
#610 = DIRECTION ( 'NONE',  ( 0.000000000000000000, 0.000000000000000000, -1.000000000000000000 ) ) ;
#611 = VECTOR ( 'NONE', #591, 1000.000000000000000 ) ;
#612 = ORIENTED_EDGE ( 'NONE', *, *, #256, .F. ) ;
#613 = DATE_AND_TIME ( #607, #687 ) ;
#614 = CARTESIAN_POINT ( 'NONE',  ( -63.48995295431750208, -5.000000000000000000, -30.23598720549306051 ) ) ;
#615 = ORIENTED_EDGE ( 'NONE', *, *, #462, .F. ) ;
#616 = CC_DESIGN_SECURITY_CLASSIFICATION ( #110, ( #590 ) ) ;
#617 = CARTESIAN_POINT ( 'NONE',  ( -65.48995295431750208, 0.000000000000000000, -2.235987205493061847 ) ) ;
#618 = ORIENTED_EDGE ( 'NONE', *, *, #275, .T. ) ;
#619 = LINE ( 'NONE', #635, #51 ) ;
#620 = PERSON_AND_ORGANIZATION_ROLE ( 'classification_officer' ) ;
#621 = PLANE ( 'NONE',  #446 ) ;
#622 = EDGE_CURVE ( 'NONE', #45, #536, #17, .T. ) ;
#623 = DIRECTION ( 'NONE',  ( -1.000000000000000000, -0.000000000000000000, -0.000000000000000000 ) ) ;
#624 = VERTEX_POINT ( 'NONE', #291 ) ;
#625 = AXIS2_PLACEMENT_3D ( 'NONE', #508, #424, #586 ) ;
#626 = LINE ( 'NONE', #414, #33 ) ;
#627 = LINE ( 'NONE', #694, #379 ) ;
#628 = DIRECTION ( 'NONE',  ( 0.000000000000000000, 0.000000000000000000, 1.000000000000000000 ) ) ;
#629 = ADVANCED_FACE ( 'NONE', ( #564 ), #406, .F. ) ;
#630 = ORIENTED_EDGE ( 'NONE', *, *, #598, .T. ) ;
#631 = VECTOR ( 'NONE', #862, 1000.000000000000000 ) ;
#632 = LINE ( 'NONE', #765, #1 ) ;
#633 = CARTESIAN_POINT ( 'NONE',  ( -58.48995295431750208, -5.000000000000000000, -30.23598720549306051 ) ) ;
#634 = ORIENTED_EDGE ( 'NONE', *, *, #861, .T. ) ;
#635 = CARTESIAN_POINT ( 'NONE',  ( 12.51004704568249792, -5.000000000000000000, -30.23598720549306051 ) ) ;
#636 = ADVANCED_FACE ( 'NONE', ( #708 ), #547, .F. ) ;
#637 = PLANE ( 'NONE',  #72 ) ;
#638 = PLANE ( 'NONE',  #485 ) ;
#639 = ORIENTED_EDGE ( 'NONE', *, *, #7, .F. ) ;
#640 = VECTOR ( 'NONE', #21, 1000.000000000000000 ) ;
#641 = FACE_OUTER_BOUND ( 'NONE', #831, .T. ) ;
#642 = VECTOR ( 'NONE', #443, 1000.000000000000000 ) ;
#643 = DIRECTION ( 'NONE',  ( -1.000000000000000000, 0.000000000000000000, 0.000000000000000000 ) ) ;
#644 = DIRECTION ( 'NONE',  ( 0.000000000000000000, 0.000000000000000000, 1.000000000000000000 ) ) ;
#645 = PLANE ( 'NONE',  #185 ) ;
#646 = EDGE_LOOP ( 'NONE', ( #192, #759, #577, #813 ) ) ;
#647 = CARTESIAN_POINT ( 'NONE',  ( -65.48995295431750208, 3.000000000000000000, -2.235987205493061847 ) ) ;
#648 = CARTESIAN_POINT ( 'NONE',  ( -63.48995295431750208, -5.000000000000000000, -9.235987205493071173 ) ) ;
#649 = ORIENTED_EDGE ( 'NONE', *, *, #281, .T. ) ;
#650 = DIRECTION ( 'NONE',  ( 0.000000000000000000, 0.000000000000000000, -1.000000000000000000 ) ) ;
#651 = CARTESIAN_POINT ( 'NONE',  ( -63.48995295431750208, -5.000000000000000000, -30.23598720549306051 ) ) ;
#652 = CARTESIAN_POINT ( 'NONE',  ( -65.48995295431750208, 3.000000000000000000, -29.23598720549306051 ) ) ;
#653 = EDGE_LOOP ( 'NONE', ( #393, #714, #128, #515 ) ) ;
#654 = CARTESIAN_POINT ( 'NONE',  ( 7.510047045682499700, -5.000000000000000000, -9.235987205493074725 ) ) ;
#655 = VECTOR ( 'NONE', #551, 1000.000000000000000 ) ;
#656 = VERTEX_POINT ( 'NONE', #206 ) ;
#657 = EDGE_CURVE ( 'NONE', #673, #45, #480, .T. ) ;
#658 = ORIENTED_EDGE ( 'NONE', *, *, #693, .F. ) ;
#659 = CARTESIAN_POINT ( 'NONE',  ( -63.48995295431750208, -5.000000000000000000, -4.235987205493064067 ) ) ;
#660 = AXIS2_PLACEMENT_3D ( 'NONE', #513, #866, #120 ) ;
#661 = CARTESIAN_POINT ( 'NONE',  ( -63.48995295431750208, 0.000000000000000000, -9.235987205493071173 ) ) ;
#662 = ORIENTED_EDGE ( 'NONE', *, *, #756, .T. ) ;
#663 = EDGE_CURVE ( 'NONE', #709, #439, #518, .T. ) ;
#664 = DIRECTION ( 'NONE',  ( 0.000000000000000000, 0.000000000000000000, 1.000000000000000000 ) ) ;
#665 = ADVANCED_FACE ( 'NONE', ( #641 ), #242, .F. ) ;
#666 = AXIS2_PLACEMENT_3D ( 'NONE', #826, #217, #698 ) ;
#667 = DIRECTION ( 'NONE',  ( 1.000000000000000000, 0.000000000000000000, -0.000000000000000000 ) ) ;
#668 = LINE ( 'NONE', #62, #822 ) ;
#669 = VERTEX_POINT ( 'NONE', #654 ) ;
#670 = ADVANCED_FACE ( 'NONE', ( #578 ), #846, .F. ) ;
#671 = PERSON_AND_ORGANIZATION ( #317, #268 ) ;
#672 = DIRECTION ( 'NONE',  ( -0.000000000000000000, 1.000000000000000000, -0.000000000000000000 ) ) ;
#673 = VERTEX_POINT ( 'NONE', #296 ) ;
#674 = CARTESIAN_POINT ( 'NONE',  ( 7.510047045682499700, -5.000000000000000000, -30.23598720549306051 ) ) ;
#675 = ORIENTED_EDGE ( 'NONE', *, *, #297, .F. ) ;
#676 = DATE_AND_TIME ( #64, #93 ) ;
#677 = PLANE ( 'NONE',  #254 ) ;
#678 = VECTOR ( 'NONE', #811, 1000.000000000000000 ) ;
#679 = CARTESIAN_POINT ( 'NONE',  ( -65.48995295431750208, 3.000000000000000000, -2.235987205493061847 ) ) ;
#680 = VECTOR ( 'NONE', #776, 1000.000000000000000 ) ;
#681 = VERTEX_POINT ( 'NONE', #133 ) ;
#682 = EDGE_CURVE ( 'NONE', #57, #592, #571, .T. ) ;
#683 = EDGE_CURVE ( 'NONE', #536, #176, #66, .T. ) ;
#684 = FACE_BOUND ( 'NONE', #325, .T. ) ;
#685 = LINE ( 'NONE', #143, #130 ) ;
#686 = VERTEX_POINT ( 'NONE', #271 ) ;
#687 = LOCAL_TIME ( 18, 35, 28.00000000000000000, #329 ) ;
#688 = EDGE_CURVE ( 'NONE', #487, #272, #685, .T. ) ;
#689 = APPROVAL_STATUS ( 'not_yet_approved' ) ;
#690 = LINE ( 'NONE', #617, #347 ) ;
#691 = VERTEX_POINT ( 'NONE', #543 ) ;
#692 = CARTESIAN_POINT ( 'NONE',  ( 12.51004704568249792, -5.000000000000000000, -4.235987205493064067 ) ) ;
#693 = EDGE_CURVE ( 'NONE', #487, #506, #209, .T. ) ;
#694 = CARTESIAN_POINT ( 'NONE',  ( -63.48995295431750208, -5.000000000000000000, -4.235987205493064067 ) ) ;
#695 = CARTESIAN_POINT ( 'NONE',  ( -58.48995295431750208, -5.000000000000000000, -30.23598720549306051 ) ) ;
#696 = ORIENTED_EDGE ( 'NONE', *, *, #688, .F. ) ;
#697 = AXIS2_PLACEMENT_3D ( 'NONE', #203, #14, #274 ) ;
#698 = DIRECTION ( 'NONE',  ( 0.000000000000000000, -0.000000000000000000, -1.000000000000000000 ) ) ;
#699 = CARTESIAN_POINT ( 'NONE',  ( 12.51004704568249792, -5.000000000000000000, -30.23598720549306051 ) ) ;
#700 = CARTESIAN_POINT ( 'NONE',  ( 12.51004704568249792, 0.000000000000000000, -9.235987205493074725 ) ) ;
#701 = ORIENTED_EDGE ( 'NONE', *, *, #236, .T. ) ;
#702 = EDGE_CURVE ( 'NONE', #707, #624, #808, .T. ) ;
#703 = AXIS2_PLACEMENT_3D ( 'NONE', #319, #667, #186 ) ;
#704 = FACE_BOUND ( 'NONE', #605, .T. ) ;
#705 = FACE_OUTER_BOUND ( 'NONE', #262, .T. ) ;
#706 = EDGE_LOOP ( 'NONE', ( #54, #149, #405, #237, #76, #228 ) ) ;
#707 = VERTEX_POINT ( 'NONE', #472 ) ;
#708 = FACE_OUTER_BOUND ( 'NONE', #23, .T. ) ;
#709 = VERTEX_POINT ( 'NONE', #137 ) ;
#710 = ORIENTED_EDGE ( 'NONE', *, *, #136, .F. ) ;
#711 = VECTOR ( 'NONE', #363, 1000.000000000000000 ) ;
#712 = PLANE ( 'NONE',  #308 ) ;
#713 = VERTEX_POINT ( 'NONE', #333 ) ;
#714 = ORIENTED_EDGE ( 'NONE', *, *, #309, .F. ) ;
#715 = EDGE_CURVE ( 'NONE', #624, #777, #539, .T. ) ;
#716 = DIRECTION ( 'NONE',  ( -1.000000000000000000, 0.000000000000000000, -0.000000000000000000 ) ) ;
#717 =( LENGTH_UNIT ( ) NAMED_UNIT ( * ) SI_UNIT ( .MILLI., .METRE. ) );
#718 = FACE_OUTER_BOUND ( 'NONE', #396, .T. ) ;
#719 = ORIENTED_EDGE ( 'NONE', *, *, #455, .T. ) ;
#720 = CARTESIAN_POINT ( 'NONE',  ( 12.51004704568249792, -5.000000000000000000, -25.23598720549304630 ) ) ;
#721 = ADVANCED_FACE ( 'NONE', ( #75 ), #482, .T. ) ;
#722 = PLANE ( 'NONE',  #703 ) ;
#723 = CARTESIAN_POINT ( 'NONE',  ( -58.48995295431750208, -5.000000000000000000, -4.235987205493064067 ) ) ;
#724 = ORIENTED_EDGE ( 'NONE', *, *, #428, .F. ) ;
#725 = VECTOR ( 'NONE', #504, 1000.000000000000000 ) ;
#726 = CARTESIAN_POINT ( 'NONE',  ( -63.48995295431750208, -5.000000000000000000, -25.23598720549304986 ) ) ;
#727 = VERTEX_POINT ( 'NONE', #69 ) ;
#728 = CC_DESIGN_PERSON_AND_ORGANIZATION_ASSIGNMENT ( #132, #3, ( #590 ) ) ;
#729 = DIRECTION ( 'NONE',  ( -0.000000000000000000, -0.000000000000000000, -1.000000000000000000 ) ) ;
#730 = APPROVAL_PERSON_ORGANIZATION ( #78, #318, #269 ) ;
#731 = DIRECTION ( 'NONE',  ( 0.000000000000000000, 0.000000000000000000, 1.000000000000000000 ) ) ;
#732 = EDGE_LOOP ( 'NONE', ( #845, #139, #864, #719 ) ) ;
#733 = EDGE_CURVE ( 'NONE', #302, #691, #549, .T. ) ;
#734 = FACE_OUTER_BOUND ( 'NONE', #523, .T. ) ;
#735 = DIRECTION ( 'NONE',  ( -0.000000000000000000, -1.000000000000000000, -0.000000000000000000 ) ) ;
#736 = ORIENTED_EDGE ( 'NONE', *, *, #663, .F. ) ;
#737 = VECTOR ( 'NONE', #43, 1000.000000000000000 ) ;
#738 = CARTESIAN_POINT ( 'NONE',  ( -65.48995295431750208, 0.000000000000000000, -2.235987205493061847 ) ) ;
#739 = ORIENTED_EDGE ( 'NONE', *, *, #868, .F. ) ;
#740 = DATE_AND_TIME ( #746, #407 ) ;
#741 = LINE ( 'NONE', #803, #104 ) ;
#742 = ADVANCED_FACE ( 'NONE', ( #5 ), #265, .F. ) ;
#743 = CARTESIAN_POINT ( 'NONE',  ( -65.48995295431750208, 23.00000000000000000, -29.23598720549306051 ) ) ;
#744 = DIRECTION ( 'NONE',  ( 0.000000000000000000, -1.000000000000000000, -0.000000000000000000 ) ) ;
#745 = ORIENTED_EDGE ( 'NONE', *, *, #288, .F. ) ;
#746 = CALENDAR_DATE ( 2026, 7, 9 ) ;
#747 = DIRECTION ( 'NONE',  ( 0.000000000000000000, 1.000000000000000000, 0.000000000000000000 ) ) ;
#748 = AXIS2_PLACEMENT_3D ( 'NONE', #793, #55, #316 ) ;
#749 = VECTOR ( 'NONE', #191, 1000.000000000000000 ) ;
#750 = ORIENTED_EDGE ( 'NONE', *, *, #799, .F. ) ;
#751 = EDGE_CURVE ( 'NONE', #562, #681, #138, .T. ) ;
#752 = DIRECTION ( 'NONE',  ( 0.000000000000000000, 0.000000000000000000, 1.000000000000000000 ) ) ;
#753 = PRODUCT_DEFINITION_SHAPE ( 'NONE', 'NONE',  #382 ) ;
#754 = VERTEX_POINT ( 'NONE', #679 ) ;
#755 = VECTOR ( 'NONE', #447, 1000.000000000000000 ) ;
#756 = EDGE_CURVE ( 'NONE', #439, #158, #10, .T. ) ;
#757 = FACE_OUTER_BOUND ( 'NONE', #152, .T. ) ;
#758 = DIRECTION ( 'NONE',  ( 0.000000000000000000, 0.000000000000000000, -1.000000000000000000 ) ) ;
#759 = ORIENTED_EDGE ( 'NONE', *, *, #467, .F. ) ;
#760 = CARTESIAN_POINT ( 'NONE',  ( -65.48995295431750208, 0.000000000000000000, -32.23598720549306051 ) ) ;
#761 = ADVANCED_FACE ( 'NONE', ( #107 ), #771, .T. ) ;
#762 = CARTESIAN_POINT ( 'NONE',  ( 0.000000000000000000, 0.000000000000000000, 0.000000000000000000 ) ) ;
#763 = VERTEX_POINT ( 'NONE', #509 ) ;
#764 = AXIS2_PLACEMENT_3D ( 'NONE', #276, #744, #610 ) ;
#765 = CARTESIAN_POINT ( 'NONE',  ( -58.48995295431750208, -5.000000000000000000, -30.23598720549306051 ) ) ;
#766 = CARTESIAN_POINT ( 'NONE',  ( 14.51004704568249792, 3.000000000000000000, -2.235987205493061847 ) ) ;
#767 = ORIENTED_EDGE ( 'NONE', *, *, #338, .T. ) ;
#768 = CARTESIAN_POINT ( 'NONE',  ( 7.510047045682499700, -5.000000000000000000, -4.235987205493064067 ) ) ;
#769 = VECTOR ( 'NONE', #781, 1000.000000000000000 ) ;
#770 = DIRECTION ( 'NONE',  ( 0.000000000000000000, -0.000000000000000000, 1.000000000000000000 ) ) ;
#771 = PLANE ( 'NONE',  #778 ) ;
#772 = CARTESIAN_POINT ( 'NONE',  ( -63.48995295431750208, -5.000000000000000000, -9.235987205493071173 ) ) ;
#773 = ORIENTED_EDGE ( 'NONE', *, *, #751, .F. ) ;
#774 = EDGE_CURVE ( 'NONE', #220, #569, #162, .T. ) ;
#775 = PLANE ( 'NONE',  #118 ) ;
#776 = DIRECTION ( 'NONE',  ( -0.000000000000000000, 1.000000000000000000, -0.000000000000000000 ) ) ;
#777 = VERTEX_POINT ( 'NONE', #285 ) ;
#778 = AXIS2_PLACEMENT_3D ( 'NONE', #560, #431, #353 ) ;
#779 = EDGE_CURVE ( 'NONE', #656, #709, #425, .T. ) ;
#780 = PLANE ( 'NONE',  #625 ) ;
#781 = DIRECTION ( 'NONE',  ( -0.000000000000000000, -0.000000000000000000, -1.000000000000000000 ) ) ;
#782 = LINE ( 'NONE', #791, #364 ) ;
#783 = ORIENTED_EDGE ( 'NONE', *, *, #164, .F. ) ;
#784 = EDGE_CURVE ( 'NONE', #777, #727, #369, .T. ) ;
#785 = CARTESIAN_POINT ( 'NONE',  ( -63.48995295431750208, -5.000000000000000000, -25.23598720549304986 ) ) ;
#786 = CARTESIAN_POINT ( 'NONE',  ( -63.48995295431750208, 0.000000000000000000, -4.235987205493064067 ) ) ;
#787 = ADVANCED_FACE ( 'NONE', ( #705 ), #581, .F. ) ;
#788 = CARTESIAN_POINT ( 'NONE',  ( 7.510047045682499700, -5.000000000000000000, -9.235987205493074725 ) ) ;
#789 = ORIENTED_EDGE ( 'NONE', *, *, #545, .F. ) ;
#790 = ADVANCED_FACE ( 'NONE', ( #88 ), #227, .F. ) ;
#791 = CARTESIAN_POINT ( 'NONE',  ( -63.48995295431750208, 0.000000000000000000, -30.23598720549306051 ) ) ;
#792 = ORIENTED_EDGE ( 'NONE', *, *, #255, .F. ) ;
#793 = CARTESIAN_POINT ( 'NONE',  ( -63.48995295431750208, -5.000000000000000000, -25.23598720549304986 ) ) ;
#794 = AXIS2_PLACEMENT_3D ( 'NONE', #169, #716, #116 ) ;
#795 = VECTOR ( 'NONE', #731, 1000.000000000000000 ) ;
#796 = VERTEX_POINT ( 'NONE', #830 ) ;
#797 = MECHANICAL_CONTEXT ( 'NONE', #465, 'mechanical' ) ;
#798 = CARTESIAN_POINT ( 'NONE',  ( 12.51004704568249792, 0.000000000000000000, -25.23598720549304630 ) ) ;
#799 = EDGE_CURVE ( 'NONE', #763, #673, #38, .T. ) ;
#800 = ORIENTED_EDGE ( 'NONE', *, *, #557, .F. ) ;
#801 = ADVANCED_FACE ( 'NONE', ( #357 ), #638, .F. ) ;
#802 = APPROVAL_STATUS ( 'not_yet_approved' ) ;
#803 = CARTESIAN_POINT ( 'NONE',  ( 7.510047045682499700, -5.000000000000000000, -4.235987205493064067 ) ) ;
#804 = ORIENTED_EDGE ( 'NONE', *, *, #601, .T. ) ;
#805 = AXIS2_PLACEMENT_3D ( 'NONE', #98, #81, #819 ) ;
#806 = DATE_TIME_ROLE ( 'classification_date' ) ;
#807 = DIRECTION ( 'NONE',  ( 1.000000000000000000, 0.000000000000000000, 0.000000000000000000 ) ) ;
#808 = LINE ( 'NONE', #19, #252 ) ;
#809 = EDGE_LOOP ( 'NONE', ( #239, #612, #450, #510 ) ) ;
#810 = ADVANCED_FACE ( 'NONE', ( #387 ), #722, .F. ) ;
#811 = DIRECTION ( 'NONE',  ( 0.000000000000000000, 0.000000000000000000, -1.000000000000000000 ) ) ;
#812 = LOCAL_TIME ( 18, 35, 28.00000000000000000, #537 ) ;
#813 = ORIENTED_EDGE ( 'NONE', *, *, #524, .T. ) ;
#814 = COORDINATED_UNIVERSAL_TIME_OFFSET ( 0, 0, .AHEAD. ) ;
#815 = CARTESIAN_POINT ( 'NONE',  ( -65.48995295431750208, 23.00000000000000000, -29.23598720549306051 ) ) ;
#816 = CC_DESIGN_DATE_AND_TIME_ASSIGNMENT ( #676, #202, ( #382 ) ) ;
#817 = DIRECTION ( 'NONE',  ( -0.000000000000000000, -0.000000000000000000, -1.000000000000000000 ) ) ;
#818 = ORIENTED_EDGE ( 'NONE', *, *, #136, .T. ) ;
#819 = DIRECTION ( 'NONE',  ( 1.000000000000000000, 0.000000000000000000, 0.000000000000000000 ) ) ;
#820 = MANIFOLD_SOLID_BREP ( 'Boss-Extrude3', #2 ) ;
#821 = DIRECTION ( 'NONE',  ( 0.000000000000000000, 0.000000000000000000, -1.000000000000000000 ) ) ;
#822 = VECTOR ( 'NONE', #327, 1000.000000000000000 ) ;
#823 = DIRECTION ( 'NONE',  ( 0.000000000000000000, 0.000000000000000000, 1.000000000000000000 ) ) ;
#824 = VECTOR ( 'NONE', #384, 1000.000000000000000 ) ;
#825 = ORIENTED_EDGE ( 'NONE', *, *, #36, .T. ) ;
#826 = CARTESIAN_POINT ( 'NONE',  ( 0.000000000000000000, -5.000000000000000000, 0.000000000000000000 ) ) ;
#827 = DIRECTION ( 'NONE',  ( 0.000000000000000000, 0.000000000000000000, -1.000000000000000000 ) ) ;
#828 = EDGE_LOOP ( 'NONE', ( #412, #710, #380, #109 ) ) ;
#829 = LINE ( 'NONE', #13, #860 ) ;
#830 = CARTESIAN_POINT ( 'NONE',  ( -63.48995295431750208, 0.000000000000000000, -30.23598720549306051 ) ) ;
#831 = EDGE_LOOP ( 'NONE', ( #32, #370, #800, #28 ) ) ;
#832 = CARTESIAN_POINT ( 'NONE',  ( -65.48995295431750208, 3.000000000000000000, -29.23598720549306051 ) ) ;
#833 = ORIENTED_EDGE ( 'NONE', *, *, #428, .T. ) ;
#834 = AXIS2_PLACEMENT_3D ( 'NONE', #486, #493, #542 ) ;
#835 = VECTOR ( 'NONE', #392, 1000.000000000000000 ) ;
#836 = CARTESIAN_POINT ( 'NONE',  ( 14.51004704568249792, 3.000000000000000000, -32.23598720549306051 ) ) ;
#837 = EDGE_CURVE ( 'NONE', #304, #105, #456, .T. ) ;
#838 = DIRECTION ( 'NONE',  ( -0.000000000000000000, -1.000000000000000000, -0.000000000000000000 ) ) ;
#839 = CARTESIAN_POINT ( 'NONE',  ( 12.51004704568249792, 0.000000000000000000, -30.23598720549306051 ) ) ;
#840 = LINE ( 'NONE', #56, #824 ) ;
#841 = VECTOR ( 'NONE', #729, 1000.000000000000000 ) ;
#842 = DIRECTION ( 'NONE',  ( -0.000000000000000000, 0.000000000000000000, -1.000000000000000000 ) ) ;
#843 = DIRECTION ( 'NONE',  ( -0.000000000000000000, 0.000000000000000000, 1.000000000000000000 ) ) ;
#844 = EDGE_CURVE ( 'NONE', #198, #562, #451, .T. ) ;
#845 = ORIENTED_EDGE ( 'NONE', *, *, #774, .T. ) ;
#846 = PLANE ( 'NONE',  #748 ) ;
#847 = FACE_OUTER_BOUND ( 'NONE', #377, .T. ) ;
#848 = ORIENTED_EDGE ( 'NONE', *, *, #500, .T. ) ;
#849 = VECTOR ( 'NONE', #287, 1000.000000000000000 ) ;
#850 = EDGE_CURVE ( 'NONE', #681, #314, #190, .T. ) ;
#851 = LINE ( 'NONE', #651, #59 ) ;
#852 = CARTESIAN_POINT ( 'NONE',  ( 14.51004704568249792, 0.000000000000000000, -32.23598720549306051 ) ) ;
#853 = ORIENTED_EDGE ( 'NONE', *, *, #663, .T. ) ;
#854 = ADVANCED_FACE ( 'NONE', ( #734 ), #375, .F. ) ;
#855 = CARTESIAN_POINT ( 'NONE',  ( 14.51004704568249792, 23.00000000000000000, -32.23598720549306051 ) ) ;
#856 = DIRECTION ( 'NONE',  ( 1.000000000000000000, 0.000000000000000000, 0.000000000000000000 ) ) ;
#857 = ORIENTED_EDGE ( 'NONE', *, *, #559, .T. ) ;
#858 = CARTESIAN_POINT ( 'NONE',  ( 12.51004704568249792, 0.000000000000000000, -30.23598720549306051 ) ) ;
#859 = EDGE_LOOP ( 'NONE', ( #328, #792, #84, #818 ) ) ;
#860 = VECTOR ( 'NONE', #484, 1000.000000000000000 ) ;
#861 = EDGE_CURVE ( 'NONE', #763, #35, #312, .T. ) ;
#862 = DIRECTION ( 'NONE',  ( -1.000000000000000000, -0.000000000000000000, -0.000000000000000000 ) ) ;
#863 = CARTESIAN_POINT ( 'NONE',  ( 12.51004704568249792, -5.000000000000000000, -9.235987205493074725 ) ) ;
#864 = ORIENTED_EDGE ( 'NONE', *, *, #61, .F. ) ;
#865 = ADVANCED_FACE ( 'NONE', ( #113 ), #322, .F. ) ;
#866 = DIRECTION ( 'NONE',  ( 0.000000000000000000, 0.000000000000000000, 1.000000000000000000 ) ) ;
#867 = PLANE ( 'NONE',  #103 ) ;
#868 = EDGE_CURVE ( 'NONE', #754, #763, #326, .T. ) ;
#869 = APPROVAL_DATE_TIME ( #740, #214 ) ;
#870 = CARTESIAN_POINT ( 'NONE',  ( -65.48995295431750208, 23.00000000000000000, -29.23598720549306051 ) ) ;
#871 = ORIENTED_EDGE ( 'NONE', *, *, #528, .F. ) ;
ENDSEC;
END-ISO-10303-21;
