ISO-10303-21;
HEADER;
FILE_DESCRIPTION (( 'STEP AP203' ),
    '1' );
FILE_NAME ('TopFloor.step',
    '2026-09-07T17:35:28',
    ( '' ),
    ( '' ),
    'SwSTEP 2.0',
    'SolidWorks 2026',
    '' );
FILE_SCHEMA (( 'CONFIG_CONTROL_DESIGN' ));
ENDSEC;

DATA;
#1 = ORIENTED_EDGE ( 'NONE', *, *, #195, .T. ) ;
#2 = LOCAL_TIME ( 18, 35, 28.00000000000000000, #60 ) ;
#3 = VERTEX_POINT ( 'NONE', #187 ) ;
#4 = DIRECTION ( 'NONE',  ( 0.000000000000000000, -1.000000000000000000, 0.000000000000000000 ) ) ;
#5 = CARTESIAN_POINT ( 'NONE',  ( 16.02689251792115144, 4.000000000000000000, -49.16071899713506355 ) ) ;
#6 = CARTESIAN_POINT ( 'NONE',  ( -78.17310748207883364, 4.000000000000000000, 90.83928100286495066 ) ) ;
#7 = EDGE_CURVE ( 'NONE', #106, #180, #119, .T. ) ;
#8 = DIRECTION ( 'NONE',  ( 1.021928410001064506E-16, 0.000000000000000000, 1.000000000000000000 ) ) ;
#9 = APPROVAL_PERSON_ORGANIZATION ( #193, #198, #62 ) ;
#10 = APPROVAL_DATE_TIME ( #95, #198 ) ;
#11 = EDGE_CURVE ( 'NONE', #36, #106, #144, .T. ) ;
#12 = APPROVAL_DATE_TIME ( #58, #189 ) ;
#13 = APPLICATION_PROTOCOL_DEFINITION ( 'international standard', 'config_control_design', 1994, #163 ) ;
#14 = ORIENTED_EDGE ( 'NONE', *, *, #178, .T. ) ;
#15 = CALENDAR_DATE ( 2026, 7, 9 ) ;
#16 = CARTESIAN_POINT ( 'NONE',  ( -73.97310748207883080, 0.000000000000000000, 90.83928100286495066 ) ) ;
#17 = FACE_OUTER_BOUND ( 'NONE', #227, .T. ) ;
#18 = VERTEX_POINT ( 'NONE', #140 ) ;
#19 = ORIENTED_EDGE ( 'NONE', *, *, #206, .T. ) ;
#20 = LOCAL_TIME ( 18, 35, 28.00000000000000000, #46 ) ;
#21 = AXIS2_PLACEMENT_3D ( 'NONE', #35, #103, #184 ) ;
#22 = CARTESIAN_POINT ( 'NONE',  ( -78.17310748207883364, 4.000000000000000000, -44.96071899713506070 ) ) ;
#23 = CARTESIAN_POINT ( 'NONE',  ( 0.000000000000000000, 0.000000000000000000, 0.000000000000000000 ) ) ;
#24 = APPROVAL_STATUS ( 'not_yet_approved' ) ;
#25 = PERSON_AND_ORGANIZATION_ROLE ( 'design_owner' ) ;
#26 = DESIGN_CONTEXT ( 'detailed design', #71, 'design' ) ;
#27 = PERSON_AND_ORGANIZATION ( #112, #129 ) ;
#28 = ADVANCED_FACE ( 'NONE', ( #161 ), #222, .T. ) ;
#29 = CALENDAR_DATE ( 2026, 7, 9 ) ;
#30 = LOCAL_TIME ( 18, 35, 28.00000000000000000, #113 ) ;
#31 =( GEOMETRIC_REPRESENTATION_CONTEXT ( 3 ) GLOBAL_UNCERTAINTY_ASSIGNED_CONTEXT ( ( #118 ) ) GLOBAL_UNIT_ASSIGNED_CONTEXT ( ( #224, #190, #176 ) ) REPRESENTATION_CONTEXT ( 'NONE', 'WORKASPACE' ) );
#32 = ORIENTED_EDGE ( 'NONE', *, *, #34, .T. ) ;
#33 = CARTESIAN_POINT ( 'NONE',  ( -73.97310748207883080, 4.000000000000000000, 90.83928100286495066 ) ) ;
#34 = EDGE_CURVE ( 'NONE', #160, #18, #203, .T. ) ;
#35 = CARTESIAN_POINT ( 'NONE',  ( 0.000000000000000000, 4.000000000000000000, 0.000000000000000000 ) ) ;
#36 = VERTEX_POINT ( 'NONE', #165 ) ;
#37 = EDGE_LOOP ( 'NONE', ( #155, #138, #105, #61 ) ) ;
#38 = LINE ( 'NONE', #75, #191 ) ;
#39 = CC_DESIGN_DATE_AND_TIME_ASSIGNMENT ( #86, #56, ( #121 ) ) ;
#40 = CARTESIAN_POINT ( 'NONE',  ( 16.02689251792116565, 4.000000000000000000, 90.83928100286495066 ) ) ;
#41 = PRODUCT ( 'TopFloor', 'TopFloor', '', ( #215 ) ) ;
#42 = LINE ( 'NONE', #188, #47 ) ;
#43 = DATE_AND_TIME ( #29, #20 ) ;
#44 = CALENDAR_DATE ( 2026, 7, 9 ) ;
#45 = CALENDAR_DATE ( 2026, 7, 9 ) ;
#46 = COORDINATED_UNIVERSAL_TIME_OFFSET ( 0, 0, .AHEAD. ) ;
#47 = VECTOR ( 'NONE', #111, 1000.000000000000000 ) ;
#48 = FACE_OUTER_BOUND ( 'NONE', #37, .T. ) ;
#49 = LINE ( 'NONE', #88, #55 ) ;
#50 = CARTESIAN_POINT ( 'NONE',  ( -78.17310748207883364, 0.000000000000000000, -44.96071899713506070 ) ) ;
#51 = CARTESIAN_POINT ( 'NONE',  ( -78.17310748207883364, 0.000000000000000000, 0.000000000000000000 ) ) ;
#52 = DIRECTION ( 'NONE',  ( -1.000000000000000000, 0.000000000000000000, 0.000000000000000000 ) ) ;
#53 = DIRECTION ( 'NONE',  ( -0.000000000000000000, -0.000000000000000000, -1.000000000000000000 ) ) ;
#54 = PRODUCT_DEFINITION_SHAPE ( 'NONE', 'NONE',  #121 ) ;
#55 = VECTOR ( 'NONE', #168, 1000.000000000000000 ) ;
#56 = DATE_TIME_ROLE ( 'creation_date' ) ;
#57 = APPLICATION_PROTOCOL_DEFINITION ( 'international standard', 'config_control_design', 1994, #71 ) ;
#58 = DATE_AND_TIME ( #45, #151 ) ;
#59 = ORIENTED_EDGE ( 'NONE', *, *, #225, .F. ) ;
#60 = COORDINATED_UNIVERSAL_TIME_OFFSET ( 0, 0, .AHEAD. ) ;
#61 = ORIENTED_EDGE ( 'NONE', *, *, #148, .F. ) ;
#62 = APPROVAL_ROLE ( '' ) ;
#63 = PRODUCT_RELATED_PRODUCT_CATEGORY ( 'detail', '', ( #41 ) ) ;
#64 = ORIENTED_EDGE ( 'NONE', *, *, #195, .F. ) ;
#65 = ORIENTED_EDGE ( 'NONE', *, *, #181, .T. ) ;
#66 = DIRECTION ( 'NONE',  ( -1.000000000000000000, 0.000000000000000000, -0.000000000000000000 ) ) ;
#67 = VERTEX_POINT ( 'NONE', #217 ) ;
#68 = EDGE_CURVE ( 'NONE', #3, #67, #49, .T. ) ;
#69 = VECTOR ( 'NONE', #94, 1000.000000000000000 ) ;
#70 = PLANE ( 'NONE',  #235 ) ;
#71 = APPLICATION_CONTEXT ( 'configuration controlled 3d designs of mechanical parts and assemblies' ) ;
#72 = ADVANCED_FACE ( 'NONE', ( #48 ), #70, .F. ) ;
#73 = CC_DESIGN_APPROVAL ( #198, ( #150 ) ) ;
#74 = CARTESIAN_POINT ( 'NONE',  ( -78.17310748207883364, 4.000000000000000000, 90.83928100286495066 ) ) ;
#75 = CARTESIAN_POINT ( 'NONE',  ( 16.02689251792115144, 0.000000000000000000, -49.16071899713506355 ) ) ;
#76 = AXIS2_PLACEMENT_3D ( 'NONE', #175, #177, #116 ) ;
#77 = APPROVAL_DATE_TIME ( #78, #185 ) ;
#78 = DATE_AND_TIME ( #83, #2 ) ;
#79 = CC_DESIGN_PERSON_AND_ORGANIZATION_ASSIGNMENT ( #229, #179, ( #121 ) ) ;
#80 = SECURITY_CLASSIFICATION_LEVEL ( 'unclassified' ) ;
#81 = ORIENTED_EDGE ( 'NONE', *, *, #178, .F. ) ;
#82 = CC_DESIGN_SECURITY_CLASSIFICATION ( #150, ( #133 ) ) ;
#83 = CALENDAR_DATE ( 2026, 7, 9 ) ;
#84 = AXIS2_PLACEMENT_3D ( 'NONE', #130, #172, #8 ) ;
#85 = ADVANCED_BREP_SHAPE_REPRESENTATION ( 'TopFloor', ( #228, #76 ), #31 ) ;
#86 = DATE_AND_TIME ( #15, #30 ) ;
#87 = ORIENTED_EDGE ( 'NONE', *, *, #68, .T. ) ;
#88 = CARTESIAN_POINT ( 'NONE',  ( -78.17310748207883364, 4.000000000000000000, -49.16071899713506355 ) ) ;
#89 = CARTESIAN_POINT ( 'NONE',  ( 0.000000000000000000, 0.000000000000000000, -49.16071899713506355 ) ) ;
#90 = ORIENTED_EDGE ( 'NONE', *, *, #98, .T. ) ;
#91 = CARTESIAN_POINT ( 'NONE',  ( 16.02689251792115144, 4.000000000000000000, -44.96071899713506070 ) ) ;
#92 = LINE ( 'NONE', #22, #209 ) ;
#93 = AXIS2_PLACEMENT_3D ( 'NONE', #51, #237, #204 ) ;
#94 = DIRECTION ( 'NONE',  ( -0.000000000000000000, 1.000000000000000000, -0.000000000000000000 ) ) ;
#95 = DATE_AND_TIME ( #44, #183 ) ;
#96 = VECTOR ( 'NONE', #107, 1000.000000000000000 ) ;
#97 = APPROVAL_ROLE ( '' ) ;
#98 = EDGE_CURVE ( 'NONE', #3, #36, #182, .T. ) ;
#99 = APPROVAL_STATUS ( 'not_yet_approved' ) ;
#100 = EDGE_LOOP ( 'NONE', ( #194, #59, #126, #230 ) ) ;
#101 = DATE_TIME_ROLE ( 'classification_date' ) ;
#102 = DIRECTION ( 'NONE',  ( 0.000000000000000000, 0.000000000000000000, -1.000000000000000000 ) ) ;
#103 = DIRECTION ( 'NONE',  ( 0.000000000000000000, 1.000000000000000000, 0.000000000000000000 ) ) ;
#104 = CC_DESIGN_DATE_AND_TIME_ASSIGNMENT ( #43, #101, ( #150 ) ) ;
#105 = ORIENTED_EDGE ( 'NONE', *, *, #206, .F. ) ;
#106 = VERTEX_POINT ( 'NONE', #143 ) ;
#107 = DIRECTION ( 'NONE',  ( -1.021928410001064506E-16, -0.000000000000000000, -1.000000000000000000 ) ) ;
#108 = DIRECTION ( 'NONE',  ( -1.000000000000000000, 0.000000000000000000, 0.000000000000000000 ) ) ;
#109 = FACE_OUTER_BOUND ( 'NONE', #201, .T. ) ;
#110 = ADVANCED_FACE ( 'NONE', ( #166 ), #200, .T. ) ;
#111 = DIRECTION ( 'NONE',  ( 1.000000000000000000, 0.000000000000000000, 0.000000000000000000 ) ) ;
#112 = PERSON ( 'UNSPECIFIED', 'UNSPECIFIED', 'UNSPECIFIED', ('UNSPECIFIED'), ('UNSPECIFIED'), ('UNSPECIFIED') ) ;
#113 = COORDINATED_UNIVERSAL_TIME_OFFSET ( 0, 0, .AHEAD. ) ;
#114 = CC_DESIGN_PERSON_AND_ORGANIZATION_ASSIGNMENT ( #159, #154, ( #150 ) ) ;
#115 = SHAPE_DEFINITION_REPRESENTATION ( #54, #85 ) ;
#116 = DIRECTION ( 'NONE',  ( 1.000000000000000000, 0.000000000000000000, 0.000000000000000000 ) ) ;
#117 = VECTOR ( 'NONE', #145, 1000.000000000000000 ) ;
#118 = UNCERTAINTY_MEASURE_WITH_UNIT (LENGTH_MEASURE( 1.000000000000000082E-05 ), #224, 'distance_accuracy_value', 'NONE');
#119 = LINE ( 'NONE', #223, #96 ) ;
#120 = DIRECTION ( 'NONE',  ( 0.000000000000000000, 0.000000000000000000, 1.000000000000000000 ) ) ;
#121 = PRODUCT_DEFINITION ( 'UNKNOWN', '', #133, #26 ) ;
#122 = CC_DESIGN_APPROVAL ( #189, ( #121 ) ) ;
#123 = PLANE ( 'NONE',  #128 ) ;
#124 = VECTOR ( 'NONE', #142, 1000.000000000000000 ) ;
#125 = ORIENTED_EDGE ( 'NONE', *, *, #181, .F. ) ;
#126 = ORIENTED_EDGE ( 'NONE', *, *, #34, .F. ) ;
#127 = PLANE ( 'NONE',  #216 ) ;
#128 = AXIS2_PLACEMENT_3D ( 'NONE', #89, #219, #52 ) ;
#129 = ORGANIZATION ( 'UNSPECIFIED', 'UNSPECIFIED', '' ) ;
#130 = CARTESIAN_POINT ( 'NONE',  ( 16.02689251792115144, 4.000000000000000000, -44.96071899713506070 ) ) ;
#131 = DIRECTION ( 'NONE',  ( 0.000000000000000000, -0.000000000000000000, 1.000000000000000000 ) ) ;
#132 = LINE ( 'NONE', #74, #69 ) ;
#133 = PRODUCT_DEFINITION_FORMATION_WITH_SPECIFIED_SOURCE ( 'ANY', '', #41, .NOT_KNOWN. ) ;
#134 = DIRECTION ( 'NONE',  ( 0.000000000000000000, 1.000000000000000000, 0.000000000000000000 ) ) ;
#135 = COORDINATED_UNIVERSAL_TIME_OFFSET ( 0, 0, .AHEAD. ) ;
#136 = PERSON_AND_ORGANIZATION ( #112, #129 ) ;
#137 = PERSON_AND_ORGANIZATION_ROLE ( 'design_supplier' ) ;
#138 = ORIENTED_EDGE ( 'NONE', *, *, #171, .F. ) ;
#139 = COORDINATED_UNIVERSAL_TIME_OFFSET ( 0, 0, .AHEAD. ) ;
#140 = CARTESIAN_POINT ( 'NONE',  ( 16.02689251792115144, 4.000000000000000000, -49.16071899713506355 ) ) ;
#141 = ADVANCED_FACE ( 'NONE', ( #17 ), #123, .T. ) ;
#142 = DIRECTION ( 'NONE',  ( -1.021928410001064506E-16, -0.000000000000000000, -1.000000000000000000 ) ) ;
#143 = CARTESIAN_POINT ( 'NONE',  ( 16.02689251792116565, 0.000000000000000000, 90.83928100286495066 ) ) ;
#144 = LINE ( 'NONE', #16, #117 ) ;
#145 = DIRECTION ( 'NONE',  ( 1.000000000000000000, 0.000000000000000000, 0.000000000000000000 ) ) ;
#146 = CC_DESIGN_APPROVAL ( #185, ( #133 ) ) ;
#147 = CARTESIAN_POINT ( 'NONE',  ( 16.02689251792115144, 4.000000000000000000, -49.16071899713506355 ) ) ;
#148 = EDGE_CURVE ( 'NONE', #36, #167, #132, .T. ) ;
#149 = LINE ( 'NONE', #205, #156 ) ;
#150 = SECURITY_CLASSIFICATION ( '', '', #80 ) ;
#151 = LOCAL_TIME ( 18, 35, 28.00000000000000000, #135 ) ;
#152 = ADVANCED_FACE ( 'NONE', ( #109 ), #127, .F. ) ;
#153 = PERSON_AND_ORGANIZATION ( #112, #129 ) ;
#154 = PERSON_AND_ORGANIZATION_ROLE ( 'classification_officer' ) ;
#155 = ORIENTED_EDGE ( 'NONE', *, *, #11, .T. ) ;
#156 = VECTOR ( 'NONE', #192, 1000.000000000000000 ) ;
#157 = PERSON_AND_ORGANIZATION ( #112, #129 ) ;
#158 = ORIENTED_EDGE ( 'NONE', *, *, #7, .F. ) ;
#159 = PERSON_AND_ORGANIZATION ( #112, #129 ) ;
#160 = VERTEX_POINT ( 'NONE', #40 ) ;
#161 = FACE_OUTER_BOUND ( 'NONE', #233, .T. ) ;
#162 = CC_DESIGN_PERSON_AND_ORGANIZATION_ASSIGNMENT ( #153, #137, ( #133 ) ) ;
#163 = APPLICATION_CONTEXT ( 'configuration controlled 3d designs of mechanical parts and assemblies' ) ;
#164 = APPROVAL_PERSON_ORGANIZATION ( #211, #189, #213 ) ;
#165 = CARTESIAN_POINT ( 'NONE',  ( -78.17310748207883364, 0.000000000000000000, 90.83928100286495066 ) ) ;
#166 = FACE_OUTER_BOUND ( 'NONE', #236, .T. ) ;
#167 = VERTEX_POINT ( 'NONE', #6 ) ;
#168 = DIRECTION ( 'NONE',  ( -0.000000000000000000, 1.000000000000000000, -0.000000000000000000 ) ) ;
#169 = VECTOR ( 'NONE', #120, 1000.000000000000000 ) ;
#170 = LINE ( 'NONE', #5, #221 ) ;
#171 = EDGE_CURVE ( 'NONE', #160, #106, #149, .T. ) ;
#172 = DIRECTION ( 'NONE',  ( -1.000000000000000000, 0.000000000000000000, 1.021928410001064506E-16 ) ) ;
#173 = CLOSED_SHELL ( 'NONE', ( #72, #220, #110, #152, #28, #141 ) ) ;
#174 = PLANE ( 'NONE',  #84 ) ;
#175 = CARTESIAN_POINT ( 'NONE',  ( 0.000000000000000000, 0.000000000000000000, 0.000000000000000000 ) ) ;
#176 =( NAMED_UNIT ( * ) SI_UNIT ( $, .STERADIAN. ) SOLID_ANGLE_UNIT ( ) );
#177 = DIRECTION ( 'NONE',  ( 0.000000000000000000, 0.000000000000000000, 1.000000000000000000 ) ) ;
#178 = EDGE_CURVE ( 'NONE', #167, #67, #92, .T. ) ;
#179 = PERSON_AND_ORGANIZATION_ROLE ( 'creator' ) ;
#180 = VERTEX_POINT ( 'NONE', #208 ) ;
#181 = EDGE_CURVE ( 'NONE', #180, #3, #38, .T. ) ;
#182 = LINE ( 'NONE', #50, #169 ) ;
#183 = LOCAL_TIME ( 18, 35, 28.00000000000000000, #139 ) ;
#184 = DIRECTION ( 'NONE',  ( 0.000000000000000000, -0.000000000000000000, 1.000000000000000000 ) ) ;
#185 = APPROVAL ( #99, 'UNSPECIFIED' ) ;
#186 = ORIENTED_EDGE ( 'NONE', *, *, #98, .F. ) ;
#187 = CARTESIAN_POINT ( 'NONE',  ( -78.17310748207883364, 0.000000000000000000, -49.16071899713506355 ) ) ;
#188 = CARTESIAN_POINT ( 'NONE',  ( -73.97310748207883080, 4.000000000000000000, 90.83928100286495066 ) ) ;
#189 = APPROVAL ( #231, 'UNSPECIFIED' ) ;
#190 =( NAMED_UNIT ( * ) PLANE_ANGLE_UNIT ( ) SI_UNIT ( $, .RADIAN. ) );
#191 = VECTOR ( 'NONE', #108, 1000.000000000000000 ) ;
#192 = DIRECTION ( 'NONE',  ( -0.000000000000000000, -1.000000000000000000, -0.000000000000000000 ) ) ;
#193 = PERSON_AND_ORGANIZATION ( #112, #129 ) ;
#194 = ORIENTED_EDGE ( 'NONE', *, *, #7, .T. ) ;
#195 = EDGE_CURVE ( 'NONE', #67, #18, #226, .T. ) ;
#196 = PERSON_AND_ORGANIZATION_ROLE ( 'creator' ) ;
#197 = VECTOR ( 'NONE', #207, 1000.000000000000000 ) ;
#198 = APPROVAL ( #24, 'UNSPECIFIED' ) ;
#199 = ORIENTED_EDGE ( 'NONE', *, *, #11, .F. ) ;
#200 = PLANE ( 'NONE',  #21 ) ;
#201 = EDGE_LOOP ( 'NONE', ( #199, #186, #125, #158 ) ) ;
#202 = CC_DESIGN_PERSON_AND_ORGANIZATION_ASSIGNMENT ( #157, #196, ( #133 ) ) ;
#203 = LINE ( 'NONE', #91, #124 ) ;
#204 = DIRECTION ( 'NONE',  ( 0.000000000000000000, 0.000000000000000000, 1.000000000000000000 ) ) ;
#205 = CARTESIAN_POINT ( 'NONE',  ( 16.02689251792116565, 4.000000000000000000, 90.83928100286495066 ) ) ;
#206 = EDGE_CURVE ( 'NONE', #167, #160, #42, .T. ) ;
#207 = DIRECTION ( 'NONE',  ( 1.000000000000000000, -0.000000000000000000, -0.000000000000000000 ) ) ;
#208 = CARTESIAN_POINT ( 'NONE',  ( 16.02689251792115144, 0.000000000000000000, -49.16071899713506355 ) ) ;
#209 = VECTOR ( 'NONE', #53, 1000.000000000000000 ) ;
#210 = FACE_OUTER_BOUND ( 'NONE', #100, .T. ) ;
#211 = PERSON_AND_ORGANIZATION ( #112, #129 ) ;
#212 = CC_DESIGN_PERSON_AND_ORGANIZATION_ASSIGNMENT ( #27, #25, ( #41 ) ) ;
#213 = APPROVAL_ROLE ( '' ) ;
#214 = ORIENTED_EDGE ( 'NONE', *, *, #68, .F. ) ;
#215 = MECHANICAL_CONTEXT ( 'NONE', #163, 'mechanical' ) ;
#216 = AXIS2_PLACEMENT_3D ( 'NONE', #23, #134, #131 ) ;
#217 = CARTESIAN_POINT ( 'NONE',  ( -78.17310748207883364, 4.000000000000000000, -49.16071899713506355 ) ) ;
#218 = ORIENTED_EDGE ( 'NONE', *, *, #225, .T. ) ;
#219 = DIRECTION ( 'NONE',  ( -0.000000000000000000, 0.000000000000000000, -1.000000000000000000 ) ) ;
#220 = ADVANCED_FACE ( 'NONE', ( #210 ), #174, .F. ) ;
#221 = VECTOR ( 'NONE', #4, 1000.000000000000000 ) ;
#222 = PLANE ( 'NONE',  #93 ) ;
#223 = CARTESIAN_POINT ( 'NONE',  ( 16.02689251792115144, 0.000000000000000000, -44.96071899713506070 ) ) ;
#224 =( LENGTH_UNIT ( ) NAMED_UNIT ( * ) SI_UNIT ( .MILLI., .METRE. ) );
#225 = EDGE_CURVE ( 'NONE', #18, #180, #170, .T. ) ;
#226 = LINE ( 'NONE', #147, #197 ) ;
#227 = EDGE_LOOP ( 'NONE', ( #218, #65, #87, #1 ) ) ;
#228 = MANIFOLD_SOLID_BREP ( 'Boss-Extrude3', #173 ) ;
#229 = PERSON_AND_ORGANIZATION ( #112, #129 ) ;
#230 = ORIENTED_EDGE ( 'NONE', *, *, #171, .T. ) ;
#231 = APPROVAL_STATUS ( 'not_yet_approved' ) ;
#232 = ORIENTED_EDGE ( 'NONE', *, *, #148, .T. ) ;
#233 = EDGE_LOOP ( 'NONE', ( #14, #214, #90, #232 ) ) ;
#234 = APPROVAL_PERSON_ORGANIZATION ( #136, #185, #97 ) ;
#235 = AXIS2_PLACEMENT_3D ( 'NONE', #33, #102, #66 ) ;
#236 = EDGE_LOOP ( 'NONE', ( #32, #64, #81, #19 ) ) ;
#237 = DIRECTION ( 'NONE',  ( -1.000000000000000000, 0.000000000000000000, 0.000000000000000000 ) ) ;
ENDSEC;
END-ISO-10303-21;
